<svg xmlns="http://www.w3.org/2000/svg" width="184.71" height="35" viewBox="0 0 184.71 35"><rect class="svg__rect" x="0" y="0" width="115.31" height="35" fill="#31C4F3"/><rect class="svg__rect" x="113.31" y="0" width="71.4" height="35" fill="#389AD5"/><path class="svg__text" d="M15.69 22L14.22 22L14.22 13.47L16.14 13.47L18.60 20.01L21.06 13.47L22.97 13.47L22.97 22L21.49 22L21.49 19.19L21.64 15.43L19.12 22L18.06 22L15.55 15.43L15.69 19.19L15.69 22ZM28.49 22L26.95 22L30.17 13.47L31.50 13.47L34.73 22L33.18 22L32.49 20.01L29.18 20.01L28.49 22ZM30.83 15.28L29.60 18.82L32.07 18.82L30.83 15.28ZM41.14 22L38.69 22L38.69 13.47L41.21 13.47Q42.34 13.47 43.21 13.97Q44.09 14.48 44.57 15.40Q45.05 16.33 45.05 17.52L45.05 17.52L45.05 17.95Q45.05 19.16 44.57 20.08Q44.08 21.00 43.19 21.50Q42.30 22 41.14 22L41.14 22ZM40.17 14.66L40.17 20.82L41.14 20.82Q42.30 20.82 42.93 20.09Q43.55 19.36 43.56 17.99L43.56 17.99L43.56 17.52Q43.56 16.13 42.96 15.40Q42.35 14.66 41.21 14.66L41.21 14.66L40.17 14.66ZM55.09 22L49.51 22L49.51 13.47L55.05 13.47L55.05 14.66L51.00 14.66L51.00 17.02L54.50 17.02L54.50 18.19L51.00 18.19L51.00 20.82L55.09 20.82L55.09 22ZM66.65 22L64.68 13.47L66.15 13.47L67.47 19.88L69.10 13.47L70.34 13.47L71.96 19.89L73.27 13.47L74.74 13.47L72.77 22L71.35 22L69.73 15.77L68.07 22L66.65 22ZM80.38 22L78.90 22L78.90 13.47L80.38 13.47L80.38 22ZM86.87 14.66L84.23 14.66L84.23 13.47L91.00 13.47L91.00 14.66L88.34 14.66L88.34 22L86.87 22L86.87 14.66ZM96.24 22L94.75 22L94.75 13.47L96.24 13.47L96.24 17.02L100.05 17.02L100.05 13.47L101.53 13.47L101.53 22L100.05 22L100.05 18.21L96.24 18.21L96.24 22Z" fill="#FFFFFF"/><path class="svg__text" d="M131.47 22L127.50 22L127.50 13.60L131.47 13.60Q132.85 13.60 133.92 14.12Q134.99 14.63 135.58 15.58Q136.16 16.53 136.16 17.80L136.16 17.80Q136.16 19.07 135.58 20.02Q134.99 20.97 133.92 21.48Q132.85 22 131.47 22L131.47 22ZM129.88 15.50L129.88 20.10L131.38 20.10Q132.45 20.10 133.11 19.49Q133.76 18.88 133.76 17.80L133.76 17.80Q133.76 16.72 133.11 16.11Q132.45 15.50 131.38 15.50L131.38 15.50L129.88 15.50ZM142.31 22L139.88 22L143.59 13.60L145.94 13.60L149.65 22L147.19 22L146.52 20.37L142.97 20.37L142.31 22ZM144.75 15.93L143.66 18.61L145.83 18.61L144.75 15.93ZM156.19 22L153.81 22L153.81 13.60L157.65 13.60Q158.79 13.60 159.63 13.98Q160.47 14.35 160.93 15.06Q161.38 15.76 161.38 16.71L161.38 16.71Q161.38 17.62 160.95 18.30Q160.53 18.98 159.74 19.36L159.74 19.36L161.55 22L159.00 22L157.48 19.77L156.19 19.77L156.19 22ZM156.19 15.47L156.19 17.93L157.50 17.93Q158.24 17.93 158.61 17.61Q158.98 17.29 158.98 16.71L158.98 16.71Q158.98 16.12 158.61 15.79Q158.24 15.47 157.50 15.47L157.50 15.47L156.19 15.47ZM167.96 15.48L165.38 15.48L165.38 13.60L172.90 13.60L172.90 15.48L170.34 15.48L170.34 22L167.96 22L167.96 15.48Z" fill="#FFFFFF" x="126.31"/></svg>