<svg xmlns="http://www.w3.org/2000/svg" width="70" height="70" fill="none" viewBox="0 0 70 70"><g clip-path="url(#clip0)"><path fill="#A3E7DF" d="M24.0002 22.5C23.2002 18.5 27.6669 11.5 30.0002 8.5L34.5003 4L47.0003 0.5L57.0003 3.5L65.0003 11L69.0003 20.5V27C68.0003 29.5 65.8003 34.9 65.0003 36.5L63.5003 39.5L65.0003 42.5C66.0003 43.8333 67.4003 46.5 65.0003 46.5C62.0003 46.5 59.5003 44.5 58.0003 43.5C56.5003 42.5 52.0003 45.5 51.5003 45.5C51.1003 45.5 47.0003 47.1667 45.0003 48C41.5003 44.5 34.4003 37.3 34.0003 36.5C33.5003 35.5 25.0002 27.5 24.0002 22.5Z"/><path fill="#FEC93B" d="M1.00022 43C2.0003 32.5 13.6669 26 19.5002 23.5H23.0003L34.0003 26L41.5003 32L46.0003 41.5V51C44.667 54.1667 41.9003 60.5 41.5003 60.5C41.0003 60.5 34.0003 66 27.5003 69C22.3003 71.4 15.0003 68 12.0003 66C10.0003 66.8333 6.00024 68.6 6.00024 69C6.00024 69.4 4.00027 67.8333 3.00028 67C3.66695 66.1667 5.20028 64.3 6.00024 63.5L6.00028 63.5C7.00021 62.5 7.00023 62.5 6.00024 60.5C5.00024 58.5 0.145555 51.9733 1.00022 43Z"/><path fill="#000" d="M46.3251 24.792C46.8914 24.792 47.3505 24.3329 47.3505 23.7666C47.3505 23.2003 46.8914 22.7412 46.3251 22.7412C45.7588 22.7412 45.2997 23.2003 45.2997 23.7666C45.2997 24.3329 45.7588 24.792 46.3251 24.792Z"/><path fill="#000" d="M50.4266 24.792C50.9929 24.792 51.452 24.3329 51.452 23.7666C51.452 23.2003 50.9929 22.7412 50.4266 22.7412C49.8603 22.7412 49.4012 23.2003 49.4012 23.7666C49.4012 24.3329 49.8603 24.792 50.4266 24.792Z"/><path fill="#000" d="M42.2235 24.792C42.7898 24.792 43.2489 24.3329 43.2489 23.7666C43.2489 23.2003 42.7898 22.7412 42.2235 22.7412C41.6572 22.7412 41.1981 23.2003 41.1981 23.7666C41.1981 24.3329 41.6572 24.792 42.2235 24.792Z"/><path fill="#000" d="M69.3595 44.5785C66.9742 43.6129 65.0549 41.7475 64.0153 39.4079C67.8797 35.0677 70.0002 29.5069 70.0002 23.6752C70.0002 10.6207 59.3795 0 46.325 0C34.8844 0 25.0905 8.15637 23.0372 19.394C22.9354 19.9511 23.3044 20.4851 23.8616 20.587C24.4178 20.6884 24.9526 20.3195 25.0546 19.7626C26.9298 9.49963 35.8752 2.05078 46.325 2.05078C58.2488 2.05078 67.9494 11.7515 67.9494 23.6752C67.9494 29.2038 65.8631 34.4656 62.0746 38.4911C61.8076 38.7749 61.7243 39.1856 61.8601 39.5508C62.7149 41.8522 64.2577 43.8218 66.2423 45.2059C65.7914 45.2683 65.3345 45.2994 64.8732 45.2994C62.368 45.2994 59.9764 44.3619 58.139 42.6595C57.8119 42.3564 57.3264 42.2994 56.9381 42.5187C54.8513 43.6965 52.5971 44.5122 50.2376 44.9429C49.6805 45.0446 49.3114 45.5786 49.4131 46.1357C49.5147 46.693 50.0494 47.0615 50.606 46.9603C52.9512 46.5322 55.202 45.7568 57.3067 44.6528C59.4395 46.3973 62.0987 47.3501 64.8734 47.3501C66.4231 47.3501 67.9326 47.0571 69.3597 46.4792C69.7469 46.3225 70.0003 45.9465 70.0003 45.5287C70.0002 45.1113 69.7467 44.7353 69.3595 44.5785Z"/><path fill="#000" d="M25.9029 45.693C26.1989 45.2372 26.3709 44.6939 26.3709 44.1112C26.3709 42.505 25.0641 41.1982 23.4579 41.1982H21.0751C20.5086 41.1982 20.0497 41.6573 20.0497 42.2236V50.4268C20.0497 50.6995 20.1584 50.9611 20.3515 51.1534C20.5438 51.3448 20.8039 51.4521 21.0751 51.4521C21.0796 51.4521 23.2702 51.4424 23.874 51.4424C25.6569 51.4424 27.1074 49.992 27.1074 48.209C27.1075 47.1938 26.637 46.2862 25.9029 45.693ZM22.1006 43.249H23.4581C23.9334 43.249 24.3202 43.6358 24.3202 44.1112C24.3202 44.5865 23.9334 44.9733 23.4581 44.9733C23.4354 44.9733 23.4127 44.974 23.3904 44.9755H22.1006V43.249ZM23.874 49.3915C23.5475 49.3915 22.7586 49.3944 22.1004 49.397V47.0263H23.874C24.5261 47.0263 25.0566 47.5568 25.0566 48.2089C25.0567 48.8611 24.5261 49.3915 23.874 49.3915Z"/><path fill="#000" d="M14.9377 41.9743C14.9349 41.9666 14.9319 41.9589 14.9287 41.9513C14.7421 41.4945 14.301 41.1989 13.8075 41.1982C13.3139 41.1988 12.8729 41.4945 12.6862 41.9513C12.6831 41.9589 12.6801 41.9666 12.6772 41.9743L9.59695 50.0619C9.39529 50.5911 9.66107 51.1835 10.1902 51.385C10.7193 51.5863 11.3118 51.3212 11.5135 50.7918L12.0299 49.438H15.5854L16.1018 50.7918C16.3034 51.3212 16.896 51.5864 17.4251 51.385C17.9542 51.1835 18.2198 50.591 18.0183 50.0619L14.9377 41.9743ZM12.8119 47.3871L13.8073 44.7777L14.8028 47.3871H12.8119Z"/><path fill="#000" d="M37.4549 48.4827C37.021 48.1187 36.3743 48.1753 36.0104 48.6091C35.9389 48.6942 35.8616 48.7739 35.7808 48.8459C35.3677 49.2139 34.8396 49.4005 34.2117 49.4005C32.5156 49.4005 31.1355 48.0206 31.1355 46.3244C31.1355 44.6281 32.5156 43.2482 34.2117 43.2482C34.8283 43.2482 35.4227 43.4296 35.9309 43.7729C36.4003 44.09 37.0377 43.9665 37.3546 43.4973C37.6715 43.0281 37.5482 42.3905 37.0788 42.0735C36.2305 41.5004 35.2389 41.1973 34.2116 41.1973C31.3845 41.1973 29.0846 43.4971 29.0846 46.3242C29.0846 49.1513 31.3845 51.4512 34.2116 51.4512C35.3415 51.4512 36.3559 51.0797 37.1447 50.377C37.2993 50.2393 37.446 50.0878 37.581 49.927C37.9453 49.4935 37.8887 48.8467 37.4549 48.4827Z"/><path fill="#000" d="M23.6754 22.6494C10.621 22.6494 0.000244141 33.27 0.000244141 46.3245C0.000244141 52.1563 2.12075 57.7171 5.98511 62.0574C4.9455 64.3969 3.02597 66.2623 0.640771 67.2279C0.253721 67.3847 0.000244141 67.7606 0.000244141 68.1784C0.000244141 68.5961 0.253721 68.972 0.640908 69.1289C2.06798 69.7066 3.57749 69.9996 5.1272 69.9996C7.9019 69.9996 10.5609 69.0468 12.694 67.3022C16.0657 69.0688 19.8466 69.9996 23.6754 69.9996C36.7299 69.9996 47.3505 59.3789 47.3505 46.3245C47.3505 33.27 36.7299 22.6494 23.6754 22.6494ZM23.6754 67.9488C19.955 67.9488 16.285 66.9873 13.0624 65.1683C12.9049 65.0793 12.7311 65.0358 12.5585 65.0358C12.306 65.0358 12.0557 65.129 11.8614 65.3091C10.0239 67.0114 7.6323 67.9488 5.1272 67.9488C4.66591 67.9488 4.20899 67.9175 3.7581 67.8553C5.7427 66.4711 7.28558 64.5015 8.14034 62.2002C8.2761 61.8349 8.19298 61.4242 7.92597 61.1405C4.13749 57.1148 2.05103 51.8531 2.05103 46.3245C2.05103 34.4008 11.7516 24.7001 23.6754 24.7001C35.5991 24.7001 45.2997 34.4007 45.2997 46.3245C45.2997 58.2482 35.5991 67.9488 23.6754 67.9488Z"/></g><defs><clipPath id="clip0"><rect width="70" height="70" x="0" fill="#fff" rx="8"/></clipPath></defs></svg>