<?xml version="1.0" standalone="no"?>
<!DOCTYPE svg PUBLIC "-//W3C//DTD SVG 20010904//EN"
 "http://www.w3.org/TR/2001/REC-SVG-20010904/DTD/svg10.dtd">
<svg version="1.0" xmlns="http://www.w3.org/2000/svg"
 width="1587.000000pt" height="2245.000000pt" viewBox="0 0 1587.000000 2245.000000"
 preserveAspectRatio="xMidYMid meet">

<g transform="translate(0.000000,2245.000000) scale(0.100000,-0.100000)"
fill="#000000" stroke="none">
<path d="M7885 14559 c-93 -12 -168 -67 -216 -159 -20 -37 -24 -60 -24 -130 0
-73 4 -92 27 -136 29 -55 81 -106 134 -132 l34 -16 -2 -155 -3 -156 -380 -6
c-427 -7 -499 -17 -736 -95 -148 -49 -399 -176 -518 -261 -272 -195 -503 -463
-637 -739 l-45 -91 -80 -11 c-310 -44 -568 -274 -651 -581 -30 -111 -30 -297
1 -405 88 -313 360 -551 666 -582 l64 -7 51 -100 c245 -486 682 -854 1195
-1007 204 -60 279 -71 543 -77 l242 -6 32 -59 c144 -271 600 -321 834 -93 78
77 109 147 109 250 0 68 -5 89 -29 139 -114 234 -461 326 -726 194 -79 -40
-159 -116 -194 -186 l-26 -52 -108 0 c-354 1 -638 62 -895 191 -493 248 -823
672 -953 1225 -27 114 -29 130 -29 374 0 227 3 266 23 357 85 386 284 727 572
980 233 205 506 343 814 409 140 30 394 46 661 42 l200 -3 3 -151 3 -152 -53
-12 c-126 -29 -288 -153 -317 -243 l-12 -35 -247 -5 c-223 -4 -257 -7 -347
-30 -176 -46 -300 -104 -435 -205 -281 -210 -455 -533 -476 -880 -36 -610 396
-1149 1000 -1247 135 -22 1814 -22 1959 0 455 68 829 402 961 857 76 263 49
568 -73 824 -81 169 -174 291 -309 403 -156 130 -283 195 -487 248 -91 23
-123 26 -347 30 l-247 5 -12 35 c-29 90 -191 214 -317 243 l-53 12 3 152 3
151 205 3 c492 7 761 -38 1050 -174 484 -230 846 -672 970 -1186 47 -195 51
-255 57 -752 l5 -469 77 6 c294 23 569 242 666 530 158 471 -147 970 -635
1039 l-80 11 -51 101 c-160 316 -402 583 -707 780 -182 118 -447 225 -676 273
-113 24 -146 26 -501 32 l-380 6 -3 155 -2 155 45 24 c170 90 206 326 71 469
-61 66 -155 95 -261 81z m-744 -2501 c21 -12 51 -40 66 -62 23 -34 27 -52 28
-108 0 -58 -4 -72 -30 -110 -104 -150 -327 -98 -359 84 -10 54 10 114 52 160
66 70 158 84 243 36z m1743 21 c60 -17 122 -85 135 -150 38 -186 -176 -313
-321 -191 -67 57 -87 163 -45 242 26 50 56 75 113 95 48 17 68 18 118 4z
m-458 -685 c-13 -96 -87 -200 -189 -266 -165 -106 -439 -106 -606 1 -103 66
-174 168 -188 268 l-6 43 498 0 498 0 -7 -46z"/>
</g>
</svg>
