<svg xmlns="http://www.w3.org/2000/svg" width="81" height="141" fill="none" viewBox="0 0 81 141"><g clip-path="url(#clip0)" opacity=".5"><path fill="#FFE9D5" d="M24.6825 139.202C20.4242 138.729 17.5852 134.754 15.3141 131.158C8.97382 121.127 2.53893 111.191 -3.80135 101.16C-2.94967 105.986 -2.00336 111.191 -3.99061 115.733C-4.74765 117.437 -5.97786 119.045 -7.58658 120.181C-8.43826 120.843 -9.4792 121.317 -10.4255 121.601C-12.3181 122.168 -14.4 122.168 -16.1034 121.222C-18.5638 119.803 -19.8886 117.058 -21.0242 114.503C-27.4591 99.5515 -32.5691 84.032 -36.3544 68.2287C-36.2597 73.3388 -36.2597 78.6381 -38.5309 83.1804C-40.1396 86.3978 -43.3571 89.0475 -46.8584 89.8045C-47.8993 89.9938 -49.0349 90.0884 -50.0758 89.8992C-50.4544 89.8045 -50.8329 89.7099 -51.306 89.6153C-54.3342 88.669 -56.5107 86.1139 -58.2141 83.4643C-65.6899 72.0139 -67.0148 57.9139 -68.0557 44.4763C-68.6235 36.3381 -68.4342 29.2408 -66.2577 23.6576C-65.7846 22.3327 -65.1222 21.1025 -64.3651 19.9669C-61.053 14.9515 -55.3752 11.8287 -45.9121 11.2609C-23.6738 10.1253 -1.15168 14.0052 19.3832 22.4274C20.3295 22.8059 21.2758 23.3737 21.9383 24.2253C22.8846 25.2663 23.1685 26.4018 23.0738 27.4428C22.9792 28.3891 22.6007 29.3354 22.0329 30.1871C20.7081 32.1743 18.3423 33.9723 15.9765 34.9186C9.63624 37.5683 2.53893 38.7039 -4.36913 38.1361C11.245 39.9341 26.4805 44.4763 40.2966 51.6683C41.5268 52.3307 42.4732 53.3716 42.9463 54.6018C43.1356 55.1696 43.3248 55.7374 43.2302 56.3998C43.2302 56.7784 43.1356 57.1569 43.0409 57.5354C42.5678 59.1441 40.9591 59.9012 39.445 60.469C33.9564 62.4562 27.9946 63.024 22.2222 62.0777C36.3222 64.7273 49.3812 71.8247 59.0336 82.2341C59.2228 82.518 59.5067 82.7072 59.6014 83.0857C60.1691 84.032 60.3584 85.073 60.1691 86.1139C60.1691 86.2086 60.1691 86.3032 60.1691 86.3032C59.6013 88.8582 57.2356 89.1421 55.2483 89.3314C50.4221 89.8045 45.596 90.2777 40.8644 90.7508C59.1282 98.6998 73.5121 114.503 79.8524 132.956C80.6094 135.038 80.0416 137.215 78.7168 138.729C78.149 139.391 77.392 139.959 76.5403 140.337C75.3101 140.905 73.8906 141.094 72.4711 140.716C55.8161 136.458 41.4322 124.913 27.9946 113.935C31.1174 118.383 34.4295 123.209 34.5242 128.603C34.6188 132.01 32.9154 135.606 30.2658 137.593C29.5087 138.161 28.5624 138.634 27.6161 138.918C26.6698 139.296 25.7235 139.391 24.6825 139.202Z"/><path fill="#FEC93B" d="M6.7974 77.8813C-1.43549 71.1625 -9.85764 64.5383 -18.3744 58.1034C-16.2925 70.6893 -14.0214 83.2752 -11.8449 95.7665L-8.05965 117.342C-7.87039 118.289 -7.68113 119.33 -7.49187 120.276C-8.34354 120.938 -9.38448 121.411 -10.3308 121.695C-10.5201 120.371 -10.8039 119.046 -10.9932 117.721C-12.2234 110.529 -13.5482 103.337 -14.7784 96.145C-17.1442 82.5182 -19.51 68.7967 -22.065 55.1699C-32.0959 47.5994 -42.316 40.2182 -52.7254 33.0263C-51.4952 46.6531 -49.9811 60.1853 -48.5617 73.8122C-47.9939 79.2061 -47.5207 84.6001 -46.9529 89.994C-47.9939 90.1833 -49.1295 90.2779 -50.1704 90.0887C-50.7382 84.9786 -51.2113 79.7739 -51.7791 74.6638C-53.2932 59.9961 -54.618 45.2336 -56.3214 30.5658C-56.9838 30.0927 -57.5516 29.7142 -58.214 29.241C-60.8637 27.443 -63.608 25.645 -66.2576 23.8471C-76.9509 16.8444 -87.7388 10.1256 -98.3375 3.21753C-100.041 2.08196 -98.2429 -0.756969 -96.5395 0.283971C-85.5623 6.43498 -74.9637 13.2484 -64.5543 20.2511C-61.1476 22.5222 -57.8355 24.7934 -54.5234 27.0645C-40.3288 24.6041 -25.7556 23.6578 -11.3717 24.0363C0.0786057 24.3202 11.5289 25.3612 22.79 27.7269C22.6954 28.6732 22.3169 29.6195 21.7491 30.4712C10.7719 28.9571 -0.299919 27.6323 -11.4664 27.443C-24.5254 27.1591 -37.5845 28.0108 -50.5489 29.8088C-40.518 36.7169 -30.6764 43.8142 -21.0241 51.1007C-7.77576 49.7759 5.47256 49.7759 18.7209 51.0061C25.4397 51.6685 32.1585 52.6148 38.688 53.9397C40.0128 54.2236 41.3377 54.5075 42.6625 54.886C42.8518 55.4538 43.041 56.0216 42.9464 56.684C42.9464 57.0625 42.8518 57.441 42.7571 57.8195C22.9793 54.0343 2.8229 52.6148 -17.2388 54.1289C-9.38448 60.0907 -1.53012 66.2417 6.13498 72.582C6.32424 72.4873 6.60814 72.4873 6.7974 72.4873C19.0994 73.339 31.3068 75.7048 43.2303 78.6383C48.6243 79.9632 54.0182 81.5719 59.3175 83.3699C59.8853 84.3162 60.0746 85.3571 59.8853 86.3981C59.7907 86.3981 59.6961 86.3034 59.6014 86.3034C53.7343 84.6001 47.8672 83.086 41.9055 81.6665C31.4014 79.1115 20.8028 77.4081 10.1095 75.9887C14.841 79.8685 19.4779 83.843 24.1149 87.9122C42.8518 104.189 61.1155 121.128 78.2437 139.107C77.6759 139.77 76.9189 140.338 76.0672 140.716C68.3075 133.051 60.4531 125.575 52.4095 118.099C38.7826 105.514 24.7773 93.2115 10.3934 81.3826C14.1786 92.833 18.2477 104.189 22.1276 115.544C24.4934 122.452 26.8591 129.266 29.2249 136.174C29.4142 136.742 29.6035 137.215 29.7927 137.783C29.0357 138.35 28.0894 138.824 27.143 139.107C26.9538 138.445 26.7645 137.877 26.4806 137.215L19.4779 116.585C15.5034 103.621 11.4343 90.6565 6.7974 77.8813Z"/><path fill="#FF922C" d="M47.3942 122.452C48.4351 123.209 50.1385 122.547 50.2331 121.222C50.3277 120.181 49.76 119.14 49.2868 118.194C48.8136 117.342 47.6781 116.775 46.7318 117.248C45.6908 117.721 45.3123 118.762 45.6908 119.803C46.164 120.749 46.5425 121.79 47.3942 122.452Z"/><path fill="#FF922C" d="M40.8645 119.235C41.7162 119.992 43.5141 119.235 43.5141 118.1C43.5141 117.532 43.4195 116.964 43.1356 116.491C42.8517 116.018 42.4732 115.639 42 115.261C41.1484 114.598 39.6343 115.261 39.6343 116.302C39.6343 116.869 39.6343 117.343 39.8235 117.91C40.1074 118.478 40.486 118.857 40.8645 119.235Z"/><path fill="#FF922C" d="M1.87665 87.6283C1.97128 87.7229 1.97128 87.7229 1.87665 87.6283C1.97128 87.7229 1.97128 87.7229 1.97128 87.7229C2.06591 87.9122 2.16054 88.1015 2.34981 88.1961C2.53907 88.2907 2.6337 88.48 2.82296 88.5746C3.01222 88.7639 3.01222 88.7639 2.82296 88.5746C2.6337 88.3853 2.72833 88.48 2.91759 88.6692C2.91759 88.7639 3.29611 89.0478 3.39074 89.237C3.58001 89.6156 3.76927 89.8994 4.14779 90.0887C4.81021 90.4672 5.94578 90.6565 6.51357 89.9941C6.89209 89.5209 7.27062 89.237 7.36525 88.5746C7.36525 88.2907 7.36525 88.0068 7.36525 87.7229C7.36525 87.0605 7.08135 86.4927 6.79746 85.9249C6.04042 84.6947 4.62095 83.8431 3.10686 84.2216C2.34981 84.4109 1.78202 84.7894 1.49813 85.4518C1.30887 86.3035 1.4035 87.0605 1.87665 87.6283Z"/><path fill="#FF922C" d="M5.5672 98.7003C6.70277 99.1735 7.83835 98.1325 7.74372 96.997C7.55445 95.956 7.0813 94.9151 6.32425 94.158C5.28331 93.1171 4.14774 92.7386 2.72828 93.1171C2.06586 93.3064 1.68734 94.158 1.78197 94.8204C1.8766 96.8077 3.86385 97.9433 5.5672 98.7003Z"/><path fill="#FF922C" d="M37.0791 87.0603C37.4576 87.4388 38.0254 88.1012 38.7824 88.2905C39.2556 88.3851 39.7287 88.1012 40.0126 87.8174C40.5804 87.1549 40.3911 86.0194 40.0126 85.2623C39.6341 84.4106 38.9717 83.6536 38.0254 83.3697C36.6059 82.9912 35.4703 84.1267 35.9435 85.4516C36.1328 86.114 36.5113 86.5871 37.0791 87.0603Z"/><path fill="#FF922C" d="M31.9691 89.4265C32.8208 89.6157 33.9564 89.2372 34.051 88.1963C34.051 87.9124 34.051 87.6285 34.051 87.3446C34.051 87.1553 33.9564 87.0607 33.9564 86.8714C33.9564 86.8714 33.9564 86.8714 33.9564 86.7768C33.8617 86.4929 33.8617 86.3037 33.7671 86.0198C33.7671 85.9251 33.5778 85.3573 33.6725 85.7359C33.4832 84.8842 32.8208 84.3164 31.8745 84.3164C31.0228 84.3164 30.2658 84.9788 30.1711 85.8305C29.8872 87.1553 30.455 89.048 31.9691 89.4265Z"/><path fill="#FF922C" d="M15.9766 62.9301C16.7337 62.8354 17.4907 61.9838 17.3015 61.2267C17.1122 60.375 16.7337 59.7126 15.9766 59.2395C15.4089 58.7663 14.6518 58.4824 13.8948 58.4824C12.6646 58.4824 11.8129 59.4287 12.286 60.6589C12.6646 62.173 14.3679 63.0247 15.9766 62.9301Z"/><path fill="#FF922C" d="M7.64892 65.0111C8.31134 65.8627 9.16302 66.8091 10.2986 67.1876C10.961 67.3768 11.6234 67.2822 12.0966 66.809C12.5697 66.3359 12.6644 65.6735 12.3805 65.0111C12.2858 64.8218 12.1912 64.4433 12.0966 64.4433C11.9073 64.1594 11.7181 63.8755 11.5288 63.5916C11.1503 63.1184 10.6771 62.7399 10.204 62.3614C9.44691 61.699 8.21671 61.9829 7.55429 62.6453C7.08114 63.2131 7.08114 64.254 7.64892 65.0111Z"/><path fill="#FF922C" d="M12.5698 65.0107C12.5698 65.2 12.6645 65.2 12.5698 65.0107V65.0107Z"/></g><defs><clipPath id="clip0"><rect width="179.042" height="141" fill="#fff" transform="translate(-99)"/></clipPath></defs></svg>