<svg width="76" height="158" viewBox="0 0 76 158" fill="none" xmlns="http://www.w3.org/2000/svg">
<g clip-path="url(#clip0)">
<path d="M26.0779 99.364C23.2404 98.5582 20.1982 98.4802 17.3348 99.1214C12.2269 100.36 7.81242 104.166 6.035 109.048C5.1071 111.711 5.05101 115.062 7.0606 117.097C8.75196 118.771 11.5327 119.032 13.7554 118.125C15.9649 117.292 17.7255 115.54 19.2157 113.587C20.6188 111.695 21.8258 109.616 23.316 107.663C24.5928 106.054 26.0657 104.633 27.6607 103.387C27.835 103.264 28.0093 103.142 28.2577 103.033C25.7785 107.562 23.6045 112.527 22.0973 117.609C19.8965 118.826 17.6527 123.319 16.8466 124.858C15.1343 128.071 13.9015 131.597 13.3355 135.241C12.8479 138.44 13.0229 142.214 15.5903 144.118C17.8875 145.822 21.2565 145.346 23.4747 143.598C25.6928 141.85 26.8691 139.078 27.5137 136.289C28.2628 132.906 28.345 129.406 27.6471 125.998C27.2676 124.251 26.2381 119.256 24.3725 117.705C25.797 113.525 27.4307 109.458 29.57 105.557C30.6898 103.539 31.8706 101.608 33.1255 99.6897C33.1868 101.076 33.5663 102.823 33.5708 103.664C33.4795 105.482 33.2271 107.347 32.8264 109.187C32.3125 111.235 31.5893 113.171 31.2976 115.258C30.8796 117.629 31.1023 120.266 32.2577 122.38C33.4871 124.507 35.8105 126.062 38.225 125.8C40.0947 125.595 41.8379 124.374 42.8793 122.801C43.9207 121.227 44.4085 119.327 44.6741 117.387C45.2964 111.691 43.1989 105.82 39.3671 101.554C38.6086 100.656 36.1587 98.0852 34.5548 97.6497C38.1889 92.6368 42.5117 88.051 47.2748 84.0012C47.2617 84.0753 47.2486 84.1494 47.2356 84.2235C46.9394 85.4701 46.8655 86.7558 46.6565 87.9413C46.1732 90.6829 44.901 93.1326 44.0471 95.8088C43.2064 98.4109 42.8321 101.401 43.9962 103.898C44.5674 104.992 45.3869 105.977 46.3328 106.678C48.9003 108.583 52.8186 108.891 55.1892 106.712C56.5488 105.5 57.2328 103.787 57.6204 102.022C58.535 98.1337 58.2031 93.9497 56.7162 90.2496C55.7133 87.7045 54.0524 85.4253 52.0908 83.5515C51.6984 83.1767 50.7917 82.2529 50.055 81.6646C55.1407 77.5188 60.4704 73.7217 65.3468 69.4627C65.2074 69.8201 65.068 70.1775 65.0288 70.3998C64.1182 72.5313 63.1946 74.7368 62.284 76.8682C61.3866 78.9256 60.4891 80.9829 60.0972 83.2058C59.7053 85.4287 59.819 87.8171 60.9264 89.7695C61.9117 91.5475 63.5943 92.8374 65.5818 93.2642C67.4952 93.6779 69.6656 93.0673 71.0645 91.6332C74.1366 88.5076 74.615 82.3273 74.1088 78.2653C74.052 77.7205 73.9342 77.0885 73.8164 76.4566C73.0705 72.8871 71.4049 68.4679 68.4016 66.8689C68.8635 66.4156 69.3254 65.9622 69.7874 65.5088C73.4827 61.882 76.9078 58.0547 80.0016 53.9398C79.0433 57.2088 78.5775 60.7174 78.5084 64.1432C78.4566 67.0372 78.7753 69.9965 79.9263 72.5678C81.0643 75.2132 83.257 77.5097 86.0073 78.3766C88.7577 79.2434 92.0569 78.2971 93.6996 75.9128C94.9414 74.0689 94.989 71.6325 94.3043 69.4491C93.6807 67.3528 92.4121 65.4483 91.2175 63.557C88.8764 59.9355 86.5223 56.3881 84.1812 52.7666C83.9501 52.3439 83.331 51.0888 82.7337 50.1431C84.176 48.029 85.5442 45.9019 86.8383 43.7616C87.7054 42.3101 88.4984 40.8456 89.2914 39.381C89.6882 40.5969 90.2593 41.6908 90.7433 42.8457C91.7811 45.6262 92.0998 48.5855 92.815 51.462C93.5303 54.3385 94.7643 57.3064 97.1486 58.9491C98.1686 59.6637 99.389 60.1081 100.662 60.256C103.874 60.6695 107.343 58.7599 108.214 55.552C108.689 53.7257 108.349 51.7557 107.76 49.8948C106.426 45.7632 103.936 42.1156 100.645 39.549C98.361 37.7712 95.8373 36.4859 93.1218 35.8543C92.7514 35.789 92.0975 35.5974 91.4437 35.4057C94.4979 28.9155 96.9855 22.1725 98.671 15.2118C99.1066 13.6078 96.5655 12.8542 96.1909 14.5454C94.5315 21.3579 92.1573 27.8916 89.1423 34.1596C88.2835 33.397 86.9672 32.6301 86.5618 32.3295C84.1033 30.6737 81.2309 29.6325 78.2889 29.4194C73.0849 29.0368 67.659 31.2126 64.478 35.3885C62.7132 37.5985 61.6939 40.7804 63.0062 43.3037C64.0875 45.4043 66.6504 46.4673 69.0388 46.3536C71.4272 46.2399 73.615 45.0976 75.6196 43.6938C77.5371 42.3511 79.3587 40.6858 81.2762 39.3431C83.0063 38.1965 84.8454 37.2984 86.7325 36.5615C87.055 36.4656 87.5257 36.3957 88.0835 36.2649C85.0336 42.2975 81.4171 48.0774 77.2601 53.4565C76.2227 53.2736 74.6275 53.2215 74.1088 53.1301C69.8854 52.3855 65.675 51.5669 61.4515 50.8223C59.2286 50.4304 57.0058 50.0385 54.8266 50.2655C52.6474 50.4925 50.4117 51.4736 49.1698 53.3174C47.6012 55.7148 48.0638 59.1579 49.8991 61.315C51.7213 63.5462 54.6678 64.6005 57.5618 64.6523C60.4558 64.7041 63.2843 63.8276 65.8556 62.6765C68.2656 61.5734 70.6277 60.3091 72.7325 58.7702C71.3947 60.2915 69.9959 61.7257 68.5971 63.1598C65.2765 66.3944 61.7728 69.3674 58.134 72.2403C57.2491 71.6259 55.6103 70.9549 55.1177 70.7153C51.4649 68.467 47.8122 66.2186 44.1594 63.9703C42.3025 62.8025 40.3715 61.6217 38.1748 61.0817C36.0652 60.4806 33.6027 60.5812 31.7724 61.8629C29.4191 63.5108 28.5959 66.88 29.4986 69.5603C30.3881 72.3147 32.7813 74.341 35.4053 75.4912C38.0423 76.5673 40.9843 76.7803 43.9044 76.6839C47.5917 76.57 51.2352 75.8372 54.7218 74.6946C54.8089 74.6336 54.9571 74.6597 55.1184 74.6118C52.1158 76.9092 49.1873 79.2197 46.2327 81.6783C44.6987 83.0123 43.1648 84.3462 41.6919 85.7673C40.977 85.4885 39.8525 85.3667 39.421 85.2142C38.4229 84.809 37.4247 84.4038 36.4527 83.8505C34.5566 82.905 32.7608 81.8244 30.8777 80.8049C27.2468 78.866 23.0799 77.3674 19.1618 78.3574C17.8848 78.6671 16.7038 79.2993 15.78 80.206C13.6186 82.4989 13.7194 86.2602 15.6245 88.888C17.5427 91.4418 20.8815 92.8708 24.1329 93.062C27.3844 93.2532 30.5703 92.5161 33.6602 91.4565C34.144 91.3125 35.8698 90.6236 37.6959 89.7996C34.7458 93.0994 32.0528 96.6738 29.7653 100.549C28.571 99.9563 26.6706 99.4685 26.0779 99.364Z" fill="#EBFAF5"/>
</g>
<defs>
<clipPath id="clip0">
<rect width="91.2643" height="143.405" fill="white" transform="translate(24.8975 0.753906) rotate(9.99826)"/>
</clipPath>
</defs>
</svg>
