<svg xmlns="http://www.w3.org/2000/svg" width="24" height="24" fill="none" viewBox="0 0 24 24"><path fill="#000" d="M18.3754 21H5.62454C4.67332 21 3.89941 20.2261 3.89941 19.2749V10.1985C3.89941 9.86711 4.16805 9.59844 4.49946 9.59844C4.83087 9.59844 5.0995 9.86711 5.0995 10.1985V19.2749C5.0995 19.5644 5.33502 19.7999 5.62454 19.7999H18.3754C18.665 19.7999 18.9005 19.5644 18.9005 19.2749V10.1985C18.9005 9.86711 19.1691 9.59844 19.5005 9.59844C19.8319 9.59844 20.1006 9.86711 20.1006 10.1985V19.2749C20.1006 20.2261 19.3267 21 18.3754 21Z"/><path fill="#000" d="M21.0006 12.2985C20.847 12.2985 20.6935 12.2399 20.5763 12.1227L13.1137 4.66013C12.4996 4.04599 11.5004 4.04599 10.8862 4.66013L3.42363 12.1227C3.18931 12.3571 2.80937 12.3571 2.57506 12.1227C2.3407 11.8884 2.3407 11.5085 2.57506 11.2741L10.0376 3.81152C11.1197 2.72949 12.8803 2.72949 13.9623 3.81152L21.4249 11.2741C21.6592 11.5085 21.6592 11.8884 21.4249 12.1227C21.3077 12.2399 21.1542 12.2985 21.0006 12.2985Z"/><path fill="#000" d="M14.4001 21H9.5998C9.26839 21 8.99976 20.7313 8.99976 20.4V15.0746C8.99976 14.0406 9.84094 13.1994 10.8749 13.1994H13.125C14.159 13.1994 15.0002 14.0406 15.0002 15.0746V20.4C15.0002 20.7313 14.7315 21 14.4001 21ZM10.1998 19.7999H13.8001V15.0746C13.8001 14.7024 13.4973 14.3995 13.125 14.3995H10.8749C10.5027 14.3995 10.1998 14.7024 10.1998 15.0746V19.7999Z"/></svg>