<svg width="24" height="24" viewBox="0 0 24 24" fill="none" xmlns="http://www.w3.org/2000/svg">
<path d="M7.1139 5.22469L10.156 3.06012C10.5461 2.86512 11.3846 2.47512 11.6186 2.47512C11.9111 2.47512 14.1927 3.06012 14.6022 3.06012C14.9298 3.06012 15.9868 3.68415 16.4743 3.99617L18.1123 7.50627L17.3518 9.43683C16.8448 10.3144 15.784 12.1045 15.5968 12.2449C15.4096 12.3853 14.2707 13.5515 13.7247 14.117V15.755C12.7302 15.7745 10.6826 15.8018 10.4486 15.755C10.2146 15.7082 10.1561 15.1115 10.156 14.819L10.7411 11.7769L13.7247 9.43683L14.1927 8.20829L13.7247 7.15526L12.7887 6.16073C12.4572 6.19973 11.7005 6.31284 11.3261 6.45324C10.8581 6.62875 10.156 7.85728 9.74658 8.20829C9.41902 8.4891 7.42601 8.09129 6.47046 7.85728L7.1139 5.22469Z" fill="#FFD3A9"/>
<path d="M12.1396 17.4271C10.8376 17.4271 9.77829 18.4863 9.77829 19.7884C9.77829 21.0904 10.8376 22.1497 12.1396 22.1497C13.4416 22.1497 14.5009 21.0904 14.5009 19.7884C14.5009 18.4863 13.4416 17.4271 12.1396 17.4271ZM12.1396 20.969C11.4886 20.969 10.9589 20.4394 10.9589 19.7884C10.9589 19.1374 11.4886 18.6077 12.1396 18.6077C12.7906 18.6077 13.3202 19.1374 13.3202 19.7884C13.3202 20.4394 12.7906 20.969 12.1396 20.969Z" fill="#0A0A0A"/>
<path d="M12.1394 2C8.7541 2 6 4.7541 6 8.13937V8.7297H10.7226V8.13937C10.7226 7.35814 11.3581 6.72259 12.1394 6.72259C12.9206 6.72259 13.5561 7.35814 13.5561 8.13937C13.5561 8.55567 13.3734 8.94969 13.0548 9.22049L9.77807 12.0063V16.2465H14.5007V14.1899L16.1133 12.8189C17.4894 11.6495 18.2787 9.94391 18.2787 8.13937C18.2787 4.7541 15.5246 2 12.1394 2V2ZM15.3486 11.9193L13.32 13.644V15.0658H10.9587V12.5522L13.8194 10.1201C14.4024 9.62463 14.7368 8.9027 14.7368 8.13937C14.7368 6.70713 13.5716 5.54194 12.1394 5.54194C10.9101 5.54194 9.8776 6.40028 9.6096 7.54905H7.21556C7.5084 5.09208 9.60487 3.18065 12.1394 3.18065C14.8736 3.18065 17.0981 5.40511 17.0981 8.13937C17.0981 9.59684 16.4605 10.9745 15.3486 11.9193Z" fill="#0A0A0A"/>
</svg>
