<svg xmlns="http://www.w3.org/2000/svg" width="13" height="21" fill="none" viewBox="0 0 13 21"><path fill="#fff" d="M1.1139 3.22469L4.15604 1.06012C4.54607 0.86512 5.38463 0.475121 5.61864 0.475121C5.91115 0.475121 8.19272 1.06012 8.60223 1.06012C8.92984 1.06012 9.98677 1.68415 10.4743 1.99617L12.1123 5.50627L11.3518 7.43683C10.8448 8.31436 9.78396 10.1045 9.59676 10.2449C9.40955 10.3853 8.27072 11.5515 7.7247 12.117V13.755C6.73017 13.7745 4.68261 13.8018 4.4486 13.755C4.2146 13.7082 4.15606 13.1115 4.15604 12.819L4.74111 9.7769L7.7247 7.43683L8.19272 6.20829L7.7247 5.15526L6.78867 4.16073C6.45716 4.19973 5.70054 4.31284 5.32613 4.45324C4.85812 4.62875 4.15604 5.85728 3.74658 6.20829C3.41902 6.4891 1.42601 6.09129 0.470459 5.85728L1.1139 3.22469Z"/><path fill="#0A0A0A" d="M6.13959 15.4271C4.83757 15.4271 3.77829 16.4863 3.77829 17.7884C3.77829 19.0904 4.83757 20.1497 6.13959 20.1497C7.4416 20.1497 8.50088 19.0904 8.50088 17.7884C8.50088 16.4863 7.4416 15.4271 6.13959 15.4271ZM6.13959 18.969C5.48858 18.969 4.95894 18.4394 4.95894 17.7884C4.95894 17.1374 5.48858 16.6077 6.13959 16.6077C6.7906 16.6077 7.32023 17.1374 7.32023 17.7884C7.32023 18.4394 6.7906 18.969 6.13959 18.969Z"/><path fill="#0A0A0A" d="M6.13937 0C2.7541 0 0 2.7541 0 6.13937V6.7297H4.72259V6.13937C4.72259 5.35814 5.35814 4.72259 6.13937 4.72259C6.9206 4.72259 7.55615 5.35814 7.55615 6.13937C7.55615 6.55567 7.37342 6.94969 7.05477 7.22049L3.77807 10.0063V14.2465H8.50067V12.1899L10.1133 10.8189C11.4894 9.64948 12.2787 7.94391 12.2787 6.13937C12.2787 2.7541 9.52464 0 6.13937 0V0ZM9.34865 9.9193L7.32002 11.644V13.0658H4.95872V10.5522L7.81935 8.12007C8.4024 7.62463 8.7368 6.9027 8.7368 6.13937C8.7368 4.70713 7.57161 3.54194 6.13937 3.54194C4.91012 3.54194 3.8776 4.40028 3.6096 5.54905H1.21556C1.5084 3.09208 3.60487 1.18065 6.13937 1.18065C8.87363 1.18065 11.0981 3.40511 11.0981 6.13937C11.0981 7.59684 10.4605 8.9745 9.34865 9.9193Z"/></svg>