<svg xmlns="http://www.w3.org/2000/svg" width="24" height="24" fill="none" viewBox="0 0 24 24"><path fill="#F57903" d="M6.74059 3.38413L6.67652 3.45313L3.552 6.93248C3.552 6.93248 6.89336 7.32674 7.00179 7.29717C7.11514 7.2676 9.8109 7.05569 9.85032 7.05569C9.88975 7.05569 10.8261 6.95712 10.8261 6.90784C10.8261 6.85855 9.52998 5.04988 9.49549 5.04988C9.46099 5.04988 7.22356 3.23628 7.18413 3.25107C7.14471 3.26585 6.74059 3.38413 6.74059 3.38413Z"/><path fill="#000" d="M6.6814 7.14941V20.9535C6.6814 21.2196 6.91795 21.4414 7.20872 21.4414C7.49949 21.4414 7.73604 21.2245 7.73604 20.9535V7.14941H6.6814Z"/><path fill="#000" d="M11.26 6.40025L8.32276 3.463C7.70672 2.84697 6.70629 2.84697 6.09025 3.463L3.15301 6.40025C2.95095 6.6023 2.95095 6.93743 3.15301 7.14441C3.36 7.3514 3.69019 7.3514 3.89718 7.14441L6.67672 4.36487L7.20404 3.90162L7.73136 4.35994L10.5158 7.13948C10.7228 7.34647 11.053 7.34647 11.26 7.13948C11.4621 6.93743 11.4621 6.6023 11.26 6.40025Z"/><path fill="#000" d="M3 7.07018V6.66113H11.4125V7.07018C11.4125 7.36095 11.176 7.5975 10.8852 7.5975H3.52732C3.23656 7.59257 3 7.36095 3 7.07018Z"/><path fill="#F57903" d="M16.8384 21.0562L16.9025 20.9872L20.0319 17.5079C20.0319 17.5079 16.6906 17.1136 16.5821 17.1432C16.4737 17.1728 13.773 17.3847 13.7336 17.3847C13.6942 17.3847 12.7578 17.4832 12.7578 17.5325C12.7578 17.5818 14.0539 19.3954 14.0884 19.3954C14.1229 19.3954 16.3554 21.209 16.3949 21.1942C16.4343 21.1794 16.8384 21.0562 16.8384 21.0562Z"/><path fill="#000" d="M16.8977 16.8432V3.70935C16.8977 3.45308 16.6611 3.24609 16.3703 3.24609C16.0796 3.24609 15.843 3.45308 15.843 3.70935V16.8432H16.8977Z"/><path fill="#000" d="M12.3193 18.041L15.2565 20.9783C15.8725 21.5943 16.873 21.5943 17.489 20.9783L20.4263 18.041C20.6332 17.834 20.6332 17.5038 20.4263 17.2968C20.2193 17.0899 19.8891 17.0899 19.6821 17.2968L16.8976 20.0813L16.3703 20.5446L15.843 20.0813L13.0634 17.3018C12.8564 17.0948 12.5263 17.0948 12.3193 17.3018C12.1172 17.5038 12.1172 17.834 12.3193 18.041Z"/><path fill="#000" d="M20.579 17.3701V17.7791H12.1665V17.3701C12.1665 17.0793 12.4031 16.8428 12.6938 16.8428H20.0517C20.3425 16.8428 20.579 17.0793 20.579 17.3701Z"/></svg>