<svg width="24" height="24" viewBox="0 0 24 24" fill="none" xmlns="http://www.w3.org/2000/svg">
<path d="M5 8H19" stroke="black" stroke-width="1.3"/>
<path d="M18.3636 21.999C18.2332 21.9989 18.1059 21.9568 17.999 21.8784L12 17.4799L6.001 21.8797C5.90556 21.9496 5.79363 21.9907 5.67742 21.9986C5.56121 22.0065 5.44516 21.9808 5.34192 21.9243C5.23868 21.8679 5.1522 21.7829 5.09191 21.6785C5.03162 21.5741 4.99983 21.4544 5 21.3324V5.19985C5.00084 4.35146 5.32293 3.53808 5.89559 2.93819C6.46824 2.33829 7.24469 2.00088 8.05455 2H15.9455C16.7553 2.00088 17.5318 2.33829 18.1044 2.93819C18.6771 3.53808 18.9992 4.35146 19 5.19985V21.3324C19 21.5092 18.933 21.6788 18.8136 21.8038C18.6943 21.9288 18.5324 21.999 18.3636 21.999ZM12 15.9993C12.1305 15.9994 12.2578 16.0416 12.3646 16.12L17.7273 20.0518V5.19985C17.7273 4.7048 17.5395 4.23003 17.2054 3.87998C16.8712 3.52993 16.418 3.33327 15.9455 3.33327H8.05455C7.58198 3.33327 7.12877 3.52993 6.79461 3.87998C6.46045 4.23003 6.27273 4.7048 6.27273 5.19985V20.0518L11.6354 16.1187C11.7424 16.0407 11.8697 15.999 12 15.9993Z" fill="black"/>
</svg>
