<svg xmlns="http://www.w3.org/2000/svg" width="24" height="24" fill="none" viewBox="0 0 24 24"><path fill="#FFD3A9" d="M4.5 10.5L10 3.99998L10.5 3.49998L12.5 2.99998L14 3.99998L18.5 8.49998C19 9.16665 20 10.6 20 11C20 11.4 19.6667 16.1667 19.5 18.5V20.5H14C14.1667 19.3333 14.5 16.9 14.5 16.5C14.5 16.1 14.1667 14.6667 14 14H13.5H10.5L9.5 15V20.5H5C4.6 20.5 4.5 19.8333 4.5 19.5V10.5Z"/><path fill="#000" d="M18.6406 21.3743H5.35938C4.36859 21.3743 3.5625 20.5683 3.5625 19.5775V10.1236C3.5625 9.77839 3.8423 9.49855 4.1875 9.49855C4.5327 9.49855 4.8125 9.77839 4.8125 10.1236V19.5775C4.8125 19.879 5.05781 20.1243 5.35938 20.1243H18.6406C18.9422 20.1243 19.1875 19.879 19.1875 19.5775V10.1236C19.1875 9.77839 19.4673 9.49855 19.8125 9.49855C20.1577 9.49855 20.4375 9.77839 20.4375 10.1236V19.5775C20.4375 20.5682 19.6315 21.3743 18.6406 21.3743Z"/><path fill="#000" d="M21.375 12.3109C21.215 12.3109 21.0551 12.2499 20.9331 12.1278L13.1601 4.35484C12.5204 3.71515 11.4796 3.71515 10.8399 4.35484L3.06694 12.1278C2.82288 12.3719 2.42714 12.3719 2.18308 12.1278C1.93897 11.8838 1.93897 11.488 2.18308 11.244L9.95605 3.47093C11.0831 2.3439 12.917 2.3439 14.0439 3.47093L21.8169 11.2439C22.061 11.488 22.061 11.8837 21.8169 12.1278C21.6949 12.2499 21.535 12.3109 21.375 12.3109Z"/><path fill="#000" d="M14.5 21.3743H9.5C9.1548 21.3743 8.875 21.0945 8.875 20.7493V15.2025C8.875 14.1255 9.75117 13.2493 10.8281 13.2493H13.1719C14.2488 13.2493 15.125 14.1255 15.125 15.2025V20.7493C15.125 21.0945 14.8452 21.3743 14.5 21.3743ZM10.125 20.1243H13.875V15.2025C13.875 14.8148 13.5596 14.4993 13.1719 14.4993H10.8281C10.4404 14.4993 10.125 14.8148 10.125 15.2025V20.1243Z"/></svg>