<svg width="32" height="32" viewBox="0 0 32 32" fill="none" xmlns="http://www.w3.org/2000/svg">
<circle cx="16" cy="15" r="4" fill="#FFBE80"/>
<path fill-rule="evenodd" clip-rule="evenodd" d="M21.3333 15.9997C21.3333 18.9452 18.9454 21.333 15.9999 21.333C13.0544 21.333 10.6666 18.9452 10.6666 15.9997C10.6666 13.0542 13.0544 10.6663 15.9999 10.6663C18.9454 10.6663 21.3333 13.0542 21.3333 15.9997ZM19.3333 15.9997C19.3333 17.8406 17.8409 19.333 15.9999 19.333C14.159 19.333 12.6666 17.8406 12.6666 15.9997C12.6666 14.1587 14.159 12.6663 15.9999 12.6663C17.8409 12.6663 19.3333 14.1587 19.3333 15.9997Z" fill="#1A1A1A"/>
<path fill-rule="evenodd" clip-rule="evenodd" d="M15.9999 1.33301C15.6428 1.33301 15.2885 1.34579 14.9375 1.37094C13.9194 1.44389 13.1435 2.19264 12.921 3.10871L12.4517 5.04195C12.4263 5.14628 12.3323 5.27151 12.1525 5.33639C11.8211 5.456 11.4968 5.59059 11.1806 5.73934C11.0079 5.8206 10.8529 5.79862 10.7612 5.74273L9.06212 4.70754C8.25746 4.21729 7.17996 4.23623 6.40846 4.90366C5.87143 5.36826 5.3685 5.87119 4.90391 6.40822C4.23647 7.17971 4.21753 8.25722 4.70778 9.06187L5.74297 10.7609C5.79887 10.8527 5.82084 11.0077 5.73958 11.1804C5.59083 11.4966 5.45624 11.8208 5.33663 12.1523C5.27176 12.332 5.14652 12.4261 5.04219 12.4514L3.10896 12.9208C2.19288 13.1432 1.44414 13.9192 1.37119 14.9372C1.34603 15.2883 1.33325 15.6426 1.33325 15.9997C1.33325 16.3568 1.34603 16.7111 1.37119 17.0621C1.44414 18.0802 2.19288 18.8561 3.10896 19.0785L5.04219 19.5479C5.14652 19.5733 5.27176 19.6673 5.33663 19.8471C5.45624 20.1785 5.59083 20.5028 5.73958 20.8189C5.82084 20.9917 5.79887 21.1467 5.74297 21.2384L4.70778 22.9375C4.21753 23.7421 4.23647 24.8196 4.9039 25.5911C5.3685 26.1282 5.87143 26.6311 6.40846 27.0957C7.17996 27.7631 8.25746 27.7821 9.06212 27.2918L10.7612 26.2566C10.8529 26.2007 11.0079 26.1788 11.1806 26.26C11.4968 26.4088 11.8211 26.5434 12.1525 26.663C12.3323 26.7278 12.4263 26.8531 12.4517 26.9574L12.921 28.8906C13.1435 29.8067 13.9194 30.5555 14.9375 30.6284C15.2885 30.6536 15.6428 30.6663 15.9999 30.6663C16.357 30.6663 16.7113 30.6536 17.0623 30.6284C18.0804 30.5555 18.8564 29.8067 19.0788 28.8906L19.5482 26.9574C19.5735 26.8531 19.6676 26.7278 19.8473 26.663C20.1788 26.5434 20.503 26.4088 20.8192 26.26C20.9919 26.1788 21.1469 26.2007 21.2387 26.2566L22.9377 27.2918C23.7424 27.7821 24.8199 27.7631 25.5914 27.0957C26.1284 26.6311 26.6313 26.1282 27.0959 25.5911C27.7634 24.8196 27.7823 23.7421 27.2921 22.9375L26.2569 21.2384C26.201 21.1467 26.179 20.9917 26.2603 20.8189C26.409 20.5028 26.5436 20.1785 26.6632 19.8471C26.7281 19.6673 26.8533 19.5733 26.9576 19.5479L28.8909 19.0785C29.807 18.8561 30.5557 18.0802 30.6286 17.0621C30.6538 16.7111 30.6666 16.3568 30.6666 15.9997C30.6666 15.6426 30.6538 15.2883 30.6286 14.9372C30.5557 13.9192 29.807 13.1432 28.8909 12.9208L26.9576 12.4514C26.8533 12.4261 26.7281 12.332 26.6632 12.1523C26.5436 11.8208 26.409 11.4966 26.2603 11.1804C26.179 11.0077 26.201 10.8527 26.2569 10.7609L27.2921 9.06187C27.7823 8.25722 27.7634 7.17971 27.0959 6.40822C26.6313 5.87118 26.1284 5.36826 25.5914 4.90366C24.8199 4.23623 23.7424 4.21729 22.9377 4.70754L21.2386 5.74273C21.1469 5.79862 20.9919 5.8206 20.8192 5.73934C20.503 5.59059 20.1788 5.45599 19.8473 5.33639C19.6676 5.27151 19.5735 5.14628 19.5482 5.04195L19.0788 3.10871C18.8564 2.19264 18.0804 1.44389 17.0623 1.37094C16.7113 1.34579 16.357 1.33301 15.9999 1.33301ZM15.0804 3.36583C15.3839 3.34408 15.6905 3.33301 15.9999 3.33301C16.3093 3.33301 16.6159 3.34408 16.9194 3.36583C16.9934 3.37113 17.0993 3.43268 17.1353 3.5806L17.6046 5.51384C17.8076 6.3497 18.4382 6.95411 19.1685 7.21765C19.441 7.31599 19.7077 7.42669 19.9678 7.54908C20.6708 7.87981 21.5445 7.89835 22.2793 7.45069L23.9783 6.4155C24.1083 6.33633 24.2267 6.36761 24.2829 6.4162C24.7471 6.81779 25.1818 7.25254 25.5834 7.71674C25.632 7.7729 25.6633 7.89132 25.5841 8.02126L24.5489 9.72033C24.1012 10.4551 24.1198 11.3288 24.4505 12.0318C24.5729 12.2919 24.6836 12.5586 24.7819 12.8311C25.0455 13.5614 25.6499 14.192 26.4858 14.3949L28.419 14.8643C28.5669 14.9003 28.6285 15.0062 28.6338 15.0802C28.6555 15.3837 28.6666 15.6903 28.6666 15.9997C28.6666 16.309 28.6555 16.6157 28.6338 16.9192C28.6285 16.9932 28.5669 17.0991 28.419 17.135L26.4858 17.6044C25.6499 17.8074 25.0455 18.4379 24.7819 19.1682C24.6836 19.4407 24.5729 19.7074 24.4505 19.9676C24.1198 20.6706 24.1012 21.5443 24.5489 22.279L25.5841 23.9781C25.6633 24.108 25.632 24.2265 25.5834 24.2826C25.1818 24.7468 24.7471 25.1816 24.2829 25.5832C24.2267 25.6317 24.1083 25.663 23.9783 25.5839L22.2793 24.5487C21.5445 24.101 20.6708 24.1195 19.9678 24.4503C19.7077 24.5727 19.441 24.6834 19.1684 24.7817C18.4382 25.0452 17.8076 25.6496 17.6046 26.4855L17.1353 28.4187C17.0993 28.5667 16.9934 28.6282 16.9194 28.6335C16.6159 28.6553 16.3093 28.6663 15.9999 28.6663C15.6905 28.6663 15.3839 28.6553 15.0804 28.6335C15.0064 28.6282 14.9005 28.5667 14.8646 28.4187L14.3952 26.4855C14.1922 25.6496 13.5617 25.0452 12.8314 24.7817C12.5589 24.6834 12.2922 24.5727 12.032 24.4503C11.329 24.1195 10.4553 24.101 9.72058 24.5487L8.02151 25.5838C7.89156 25.663 7.77314 25.6317 7.71698 25.5832C7.25278 25.1816 6.81803 24.7468 6.41644 24.2826C6.36785 24.2264 6.33658 24.108 6.41575 23.9781L7.45093 22.279C7.8986 21.5443 7.88005 20.6706 7.54932 19.9676C7.42694 19.7074 7.31624 19.4407 7.21789 19.1682C6.95435 18.4379 6.34995 17.8074 5.51408 17.6044L3.58085 17.135C3.43292 17.0991 3.37138 16.9932 3.36607 16.9192C3.34432 16.6157 3.33325 16.309 3.33325 15.9997C3.33325 15.6903 3.34432 15.3837 3.36607 15.0802C3.37138 15.0061 3.43292 14.9003 3.58085 14.8643L5.51408 14.3949C6.34995 14.192 6.95435 13.5614 7.21789 12.8311C7.31624 12.5586 7.42694 12.2919 7.54932 12.0318C7.88005 11.3288 7.8986 10.4551 7.45093 9.72033L6.41575 8.02127C6.33658 7.89132 6.36785 7.7729 6.41644 7.71674C6.81803 7.25254 7.25278 6.81779 7.71698 6.4162C7.77315 6.36761 7.89157 6.33633 8.02151 6.4155L9.72058 7.45069C10.4553 7.89835 11.329 7.87981 12.032 7.54908C12.2922 7.42669 12.5589 7.31599 12.8314 7.21765C13.5617 6.95411 14.1922 6.3497 14.3952 5.51384L14.8646 3.5806C14.9005 3.43268 15.0064 3.37113 15.0804 3.36583Z" fill="#1A1A1A"/>
</svg>
