<svg xmlns="http://www.w3.org/2000/svg" width="16" height="16" fill="none" viewBox="0 0 16 16"><path fill="#666" fill-rule="evenodd" d="M2.66667 4.66634C3.03485 4.66634 3.33333 4.36786 3.33333 3.99967C3.33333 3.63149 3.03485 3.33301 2.66667 3.33301C2.29848 3.33301 2 3.63149 2 3.99967C2 4.36786 2.29848 4.66634 2.66667 4.66634ZM5.83333 3.66634C5.55719 3.66634 5.33333 3.8902 5.33333 4.16634C5.33333 4.44248 5.55719 4.66634 5.83333 4.66634H13.5C13.7761 4.66634 14 4.44248 14 4.16634C14 3.8902 13.7761 3.66634 13.5 3.66634H5.83333ZM5.83333 7.66634C5.55719 7.66634 5.33333 7.89021 5.33333 8.16634C5.33333 8.44247 5.55719 8.66634 5.83333 8.66634H13.5C13.7761 8.66634 14 8.44247 14 8.16634C14 7.89021 13.7761 7.66634 13.5 7.66634H5.83333ZM5.83333 11.6663C5.55719 11.6663 5.33333 11.8902 5.33333 12.1663C5.33333 12.4425 5.55719 12.6663 5.83333 12.6663H13.5C13.7761 12.6663 14 12.4425 14 12.1663C14 11.8902 13.7761 11.6663 13.5 11.6663H5.83333ZM3.33333 7.99967C3.33333 8.36787 3.03485 8.66634 2.66667 8.66634C2.29848 8.66634 2 8.36787 2 7.99967C2 7.63147 2.29848 7.33301 2.66667 7.33301C3.03485 7.33301 3.33333 7.63147 3.33333 7.99967ZM2.66667 12.6663C3.03485 12.6663 3.33333 12.3679 3.33333 11.9997C3.33333 11.6315 3.03485 11.333 2.66667 11.333C2.29848 11.333 2 11.6315 2 11.9997C2 12.3679 2.29848 12.6663 2.66667 12.6663Z" clip-rule="evenodd"/></svg>