<svg width="14" height="15" viewBox="0 0 14 15" fill="none" xmlns="http://www.w3.org/2000/svg">
<rect width="14" height="15" fill="#E5E5E5"/>
<rect width="375" height="812" transform="translate(-160 -206)" fill="white"/>
<path d="M-135 -34C-131.455 -34 -129.455 -36.2045 -129.455 -39.8409C-129.455 -43.4545 -131.455 -45.6364 -134.841 -45.6364H-138.591V-34H-135ZM-137.182 -35.25V-44.3864H-134.932C-132.205 -44.3864 -130.818 -42.6591 -130.818 -39.8409C-130.818 -37 -132.205 -35.25 -135.091 -35.25H-137.182ZM-125.932 -39.25C-125.932 -40.7727 -124.96 -41.6364 -123.636 -41.6364C-122.375 -41.6364 -121.614 -40.8409 -121.614 -39.4545V-34H-120.273V-39.5455C-120.273 -41.7898 -121.466 -42.8409 -123.25 -42.8409C-124.625 -42.8409 -125.409 -42.267 -125.818 -41.3636H-125.932V-45.6364H-127.273V-34H-125.932V-39.25ZM-117.82 -34H-116.479V-39.5227C-116.479 -40.7045 -115.547 -41.5682 -114.274 -41.5682C-113.916 -41.5682 -113.547 -41.5 -113.456 -41.4773V-42.8409C-113.609 -42.8523 -113.962 -42.8636 -114.161 -42.8636C-115.206 -42.8636 -116.115 -42.2727 -116.433 -41.4091H-116.524V-42.7273H-117.82V-34ZM-117.161 -31.1136C-116.638 -31.1136 -116.206 -31.5227 -116.206 -32.0227C-116.206 -32.5227 -116.638 -32.9318 -117.161 -32.9318C-117.683 -32.9318 -118.115 -32.5227 -118.115 -32.0227C-118.115 -31.5227 -117.683 -31.1136 -117.161 -31.1136ZM-107.524 -42.7273H-109.388V-44.8182H-110.729V-42.7273H-112.047V-41.5909H-110.729V-36.1364C-110.729 -34.6136 -109.501 -33.8864 -108.365 -33.8864C-107.865 -33.8864 -107.547 -33.9773 -107.365 -34.0455L-107.638 -35.25C-107.751 -35.2273 -107.933 -35.1818 -108.229 -35.1818C-108.82 -35.1818 -109.388 -35.3636 -109.388 -36.5V-41.5909H-107.524V-42.7273ZM-102.939 -33.7955C-101.416 -33.7955 -100.621 -34.6136 -100.348 -35.1818H-100.28V-34H-98.9389V-39.75C-98.9389 -42.5227 -101.053 -42.8409 -102.166 -42.8409C-103.484 -42.8409 -104.984 -42.3864 -105.666 -40.7955L-104.393 -40.3409C-104.098 -40.9773 -103.399 -41.6591 -102.121 -41.6591C-100.888 -41.6591 -100.28 -41.0057 -100.28 -39.8864V-39.8409C-100.28 -39.1932 -100.939 -39.25 -102.53 -39.0455C-104.149 -38.8352 -105.916 -38.4773 -105.916 -36.4773C-105.916 -34.7727 -104.598 -33.7955 -102.939 -33.7955ZM-102.734 -35C-103.803 -35 -104.575 -35.4773 -104.575 -36.4091C-104.575 -37.4318 -103.643 -37.75 -102.598 -37.8864C-102.03 -37.9545 -100.507 -38.1136 -100.28 -38.3864V-37.1591C-100.28 -36.0682 -101.143 -35 -102.734 -35ZM-96.4915 -34H-95.1506V-39.5227C-95.1506 -40.7045 -94.2188 -41.5682 -92.946 -41.5682C-92.5881 -41.5682 -92.2188 -41.5 -92.1278 -41.4773V-42.8409C-92.2812 -42.8523 -92.6335 -42.8636 -92.8324 -42.8636C-93.8778 -42.8636 -94.7869 -42.2727 -95.1051 -41.4091H-95.196V-42.7273H-96.4915V-34ZM-87.9702 -33.7955C-86.4474 -33.7955 -85.652 -34.6136 -85.3793 -35.1818H-85.3111V-34H-83.9702V-39.75C-83.9702 -42.5227 -86.0838 -42.8409 -87.1974 -42.8409C-88.5156 -42.8409 -90.0156 -42.3864 -90.6974 -40.7955L-89.4247 -40.3409C-89.1293 -40.9773 -88.4304 -41.6591 -87.152 -41.6591C-85.919 -41.6591 -85.3111 -41.0057 -85.3111 -39.8864V-39.8409C-85.3111 -39.1932 -85.9702 -39.25 -87.5611 -39.0455C-89.1804 -38.8352 -90.9474 -38.4773 -90.9474 -36.4773C-90.9474 -34.7727 -89.6293 -33.7955 -87.9702 -33.7955ZM-87.7656 -35C-88.8338 -35 -89.6065 -35.4773 -89.6065 -36.4091C-89.6065 -37.4318 -88.6747 -37.75 -87.6293 -37.8864C-87.0611 -37.9545 -85.5384 -38.1136 -85.3111 -38.3864V-37.1591C-85.3111 -36.0682 -86.1747 -35 -87.7656 -35ZM-84.4474 -45.6364H-89.7656V-44.5H-84.4474V-45.6364ZM-75.3409 -40.7727C-75.7614 -42.0114 -76.7045 -42.8409 -78.4318 -42.8409C-80.2727 -42.8409 -81.6364 -41.7955 -81.6364 -40.3182C-81.6364 -39.1136 -80.9205 -38.3068 -79.3182 -37.9318L-77.8636 -37.5909C-76.983 -37.3864 -76.5682 -36.9659 -76.5682 -36.3636C-76.5682 -35.6136 -77.3636 -35 -78.6136 -35C-79.7102 -35 -80.3977 -35.4716 -80.6364 -36.4091L-81.9091 -36.0909C-81.5966 -34.608 -80.375 -33.8182 -78.5909 -33.8182C-76.5625 -33.8182 -75.1818 -34.9261 -75.1818 -36.4318C-75.1818 -37.6477 -75.9432 -38.4148 -77.5 -38.7955L-78.7955 -39.1136C-79.8295 -39.3693 -80.2955 -39.7159 -80.2955 -40.3864C-80.2955 -41.1364 -79.5 -41.6818 -78.4318 -41.6818C-77.2614 -41.6818 -76.7784 -41.0341 -76.5455 -40.4318L-75.3409 -40.7727ZM-78.4773 -31.1136C-77.9545 -31.1136 -77.5227 -31.5227 -77.5227 -32.0227C-77.5227 -32.5227 -77.9545 -32.9318 -78.4773 -32.9318C-79 -32.9318 -79.4318 -32.5227 -79.4318 -32.0227C-79.4318 -31.5227 -79 -31.1136 -78.4773 -31.1136ZM-69.3679 -42.7273H-71.2315V-44.8182H-72.5724V-42.7273H-73.8906V-41.5909H-72.5724V-36.1364C-72.5724 -34.6136 -71.3452 -33.8864 -70.2088 -33.8864C-69.7088 -33.8864 -69.3906 -33.9773 -69.2088 -34.0455L-69.4815 -35.25C-69.5952 -35.2273 -69.777 -35.1818 -70.0724 -35.1818C-70.6634 -35.1818 -71.2315 -35.3636 -71.2315 -36.5V-41.5909H-69.3679V-42.7273ZM-71.1406 -31.1136C-70.6179 -31.1136 -70.1861 -31.5227 -70.1861 -32.0227C-70.1861 -32.5227 -70.6179 -32.9318 -71.1406 -32.9318C-71.6634 -32.9318 -72.0952 -32.5227 -72.0952 -32.0227C-72.0952 -31.5227 -71.6634 -31.1136 -71.1406 -31.1136ZM-67.3509 -34H-66.0099V-39.5227C-66.0099 -40.7045 -65.0781 -41.5682 -63.8054 -41.5682C-63.4474 -41.5682 -63.0781 -41.5 -62.9872 -41.4773V-42.8409C-63.1406 -42.8523 -63.4929 -42.8636 -63.6918 -42.8636C-64.7372 -42.8636 -65.6463 -42.2727 -65.9645 -41.4091H-66.0554V-42.7273H-67.3509V-34ZM-58.8295 -33.7955C-57.3068 -33.7955 -56.5114 -34.6136 -56.2386 -35.1818H-56.1705V-34H-54.8295V-39.75C-54.8295 -42.5227 -56.9432 -42.8409 -58.0568 -42.8409C-59.375 -42.8409 -60.875 -42.3864 -61.5568 -40.7955L-60.2841 -40.3409C-59.9886 -40.9773 -59.2898 -41.6591 -58.0114 -41.6591C-56.7784 -41.6591 -56.1705 -41.0057 -56.1705 -39.8864V-39.8409C-56.1705 -39.1932 -56.8295 -39.25 -58.4205 -39.0455C-60.0398 -38.8352 -61.8068 -38.4773 -61.8068 -36.4773C-61.8068 -34.7727 -60.4886 -33.7955 -58.8295 -33.7955ZM-58.625 -35C-59.6932 -35 -60.4659 -35.4773 -60.4659 -36.4091C-60.4659 -37.4318 -59.5341 -37.75 -58.4886 -37.8864C-57.9205 -37.9545 -56.3977 -38.1136 -56.1705 -38.3864V-37.1591C-56.1705 -36.0682 -57.0341 -35 -58.625 -35ZM-41.7003 -40.7727C-42.1207 -42.0114 -43.0639 -42.8409 -44.7912 -42.8409C-46.6321 -42.8409 -47.9957 -41.7955 -47.9957 -40.3182C-47.9957 -39.1136 -47.2798 -38.3068 -45.6776 -37.9318L-44.223 -37.5909C-43.3423 -37.3864 -42.9276 -36.9659 -42.9276 -36.3636C-42.9276 -35.6136 -43.723 -35 -44.973 -35C-46.0696 -35 -46.7571 -35.4716 -46.9957 -36.4091L-48.2685 -36.0909C-47.956 -34.608 -46.7344 -33.8182 -44.9503 -33.8182C-42.9219 -33.8182 -41.5412 -34.9261 -41.5412 -36.4318C-41.5412 -37.6477 -42.3026 -38.4148 -43.8594 -38.7955L-45.1548 -39.1136C-46.1889 -39.3693 -46.6548 -39.7159 -46.6548 -40.3864C-46.6548 -41.1364 -45.8594 -41.6818 -44.7912 -41.6818C-43.6207 -41.6818 -43.1378 -41.0341 -42.9048 -40.4318L-41.7003 -40.7727ZM-36.9545 -33.7955C-35.4318 -33.7955 -34.6364 -34.6136 -34.3636 -35.1818H-34.2955V-34H-32.9545V-39.75C-32.9545 -42.5227 -35.0682 -42.8409 -36.1818 -42.8409C-37.5 -42.8409 -39 -42.3864 -39.6818 -40.7955L-38.4091 -40.3409C-38.1136 -40.9773 -37.4148 -41.6591 -36.1364 -41.6591C-34.9034 -41.6591 -34.2955 -41.0057 -34.2955 -39.8864V-39.8409C-34.2955 -39.1932 -34.9545 -39.25 -36.5455 -39.0455C-38.1648 -38.8352 -39.9318 -38.4773 -39.9318 -36.4773C-39.9318 -34.7727 -38.6136 -33.7955 -36.9545 -33.7955ZM-36.75 -35C-37.8182 -35 -38.5909 -35.4773 -38.5909 -36.4091C-38.5909 -37.4318 -37.6591 -37.75 -36.6136 -37.8864C-36.0455 -37.9545 -34.5227 -38.1136 -34.2955 -38.3864V-37.1591C-34.2955 -36.0682 -35.1591 -35 -36.75 -35ZM-30.5071 -34H-29.1662V-42.7273H-30.5071V-34ZM-29.8253 -44.1818C-29.3026 -44.1818 -28.8707 -44.5909 -28.8707 -45.0909C-28.8707 -45.5909 -29.3026 -46 -29.8253 -46C-30.348 -46 -30.7798 -45.5909 -30.7798 -45.0909C-30.7798 -44.5909 -30.348 -44.1818 -29.8253 -44.1818ZM-23.4148 -33.8182C-21.733 -33.8182 -21.1648 -34.8636 -20.8693 -35.3409H-20.7102V-34H-19.4148V-45.6364H-20.7557V-41.3409H-20.8693C-21.1648 -41.7955 -21.6875 -42.8409 -23.392 -42.8409C-25.5966 -42.8409 -27.1193 -41.0909 -27.1193 -38.3409C-27.1193 -35.5682 -25.5966 -33.8182 -23.4148 -33.8182ZM-23.233 -35.0227C-24.9148 -35.0227 -25.7784 -36.5 -25.7784 -38.3636C-25.7784 -40.2045 -24.9375 -41.6364 -23.233 -41.6364C-21.5966 -41.6364 -20.733 -40.3182 -20.733 -38.3636C-20.733 -36.3864 -21.6193 -35.0227 -23.233 -35.0227ZM-15.7955 -33.9091C-15.233 -33.9091 -14.7727 -34.3693 -14.7727 -34.9318C-14.7727 -35.4943 -15.233 -35.9545 -15.7955 -35.9545C-16.358 -35.9545 -16.8182 -35.4943 -16.8182 -34.9318C-16.8182 -34.3693 -16.358 -33.9091 -15.7955 -33.9091ZM-15.7955 -40.3864C-15.233 -40.3864 -14.7727 -40.8466 -14.7727 -41.4091C-14.7727 -41.9716 -15.233 -42.4318 -15.7955 -42.4318C-16.358 -42.4318 -16.8182 -41.9716 -16.8182 -41.4091C-16.8182 -40.8466 -16.358 -40.3864 -15.7955 -40.3864ZM2.13352 -39.8182C2.13352 -43.5 -0.025568 -45.7955 -3.00284 -45.7955C-5.98011 -45.7955 -8.1392 -43.5 -8.1392 -39.8182C-8.1392 -36.1364 -5.98011 -33.8409 -3.00284 -33.8409C-0.025568 -33.8409 2.13352 -36.1364 2.13352 -39.8182ZM0.769887 -39.8182C0.769887 -36.7955 -0.889204 -35.1591 -3.00284 -35.1591C-5.11648 -35.1591 -6.77557 -36.7955 -6.77557 -39.8182C-6.77557 -42.8409 -5.11648 -44.4773 -3.00284 -44.4773C-0.889204 -44.4773 0.769887 -42.8409 0.769887 -39.8182ZM15.3665 -42.7273H16.7301C16.6676 -44.483 15.0483 -45.7955 12.7983 -45.7955C10.571 -45.7955 8.82102 -44.5 8.82102 -42.5455C8.82102 -40.9773 9.95739 -40.0455 11.7756 -39.5227L13.2074 -39.1136C14.4347 -38.7727 15.5256 -38.3409 15.5256 -37.1818C15.5256 -35.9091 14.2983 -35.0682 12.6847 -35.0682C11.2983 -35.0682 10.071 -35.6818 9.95739 -37H8.50284C8.6392 -35.0909 10.1847 -33.7955 12.6847 -33.7955C15.3665 -33.7955 16.8892 -35.2727 16.8892 -37.1591C16.8892 -39.3409 14.821 -40.0455 13.6165 -40.3636L12.4347 -40.6818C11.571 -40.9091 10.1847 -41.3636 10.1847 -42.6136C10.1847 -43.7273 11.2074 -44.5455 12.7528 -44.5455C14.1619 -44.5455 15.2301 -43.875 15.3665 -42.7273ZM21.5923 -33.7955C23.1151 -33.7955 23.9105 -34.6136 24.1832 -35.1818H24.2514V-34H25.5923V-39.75C25.5923 -42.5227 23.4787 -42.8409 22.3651 -42.8409C21.0469 -42.8409 19.5469 -42.3864 18.8651 -40.7955L20.1378 -40.3409C20.4332 -40.9773 21.1321 -41.6591 22.4105 -41.6591C23.6435 -41.6591 24.2514 -41.0057 24.2514 -39.8864V-39.8409C24.2514 -39.1932 23.5923 -39.25 22.0014 -39.0455C20.3821 -38.8352 18.6151 -38.4773 18.6151 -36.4773C18.6151 -34.7727 19.9332 -33.7955 21.5923 -33.7955ZM21.7969 -35C20.7287 -35 19.956 -35.4773 19.956 -36.4091C19.956 -37.4318 20.8878 -37.75 21.9332 -37.8864C22.5014 -37.9545 24.0241 -38.1136 24.2514 -38.3864V-37.1591C24.2514 -36.0682 23.3878 -35 21.7969 -35ZM29.3807 -39.25C29.3807 -40.7727 30.3239 -41.6364 31.608 -41.6364C32.8523 -41.6364 33.608 -40.8239 33.608 -39.4545V-34H34.9489V-39.5455C34.9489 -41.7727 33.7614 -42.8409 31.9943 -42.8409C30.6761 -42.8409 29.858 -42.25 29.4489 -41.3636H29.3352V-42.7273H28.0398V-34H29.3807V-39.25ZM29.7443 -43.7727C29.7443 -44.25 30.0625 -44.6364 30.4943 -44.6364C31.358 -44.6364 31.517 -43.9091 32.5625 -43.9091C33.5398 -43.9091 34.2898 -44.6591 34.2898 -45.8409L33.267 -45.9318C33.267 -45.4545 32.9261 -45.0682 32.4943 -45.0682C31.6761 -45.0682 31.2898 -45.7955 30.4261 -45.7955C29.4489 -45.7955 28.6989 -44.9773 28.6989 -43.8182L29.7443 -43.7727ZM37.3991 -42.7273V-33.3636C37.3991 -32.4773 37.0355 -31.9773 36.2173 -31.9773H35.9673V-30.7273H36.2401C37.9219 -30.7273 38.7401 -31.75 38.7401 -33.3636V-42.7273H37.3991ZM38.0582 -44.1818C38.581 -44.1818 39.0128 -44.5909 39.0128 -45.0909C39.0128 -45.5909 38.581 -46 38.0582 -46C37.5355 -46 37.1037 -45.5909 37.1037 -45.0909C37.1037 -44.5909 37.5355 -44.1818 38.0582 -44.1818ZM43.7642 -33.7955C45.2869 -33.7955 46.0824 -34.6136 46.3551 -35.1818H46.4233V-34H47.7642V-39.75C47.7642 -42.5227 45.6506 -42.8409 44.5369 -42.8409C43.2188 -42.8409 41.7188 -42.3864 41.0369 -40.7955L42.3097 -40.3409C42.6051 -40.9773 43.304 -41.6591 44.5824 -41.6591C45.8153 -41.6591 46.4233 -41.0057 46.4233 -39.8864V-39.8409C46.4233 -39.1932 45.7642 -39.25 44.1733 -39.0455C42.554 -38.8352 40.7869 -38.4773 40.7869 -36.4773C40.7869 -34.7727 42.1051 -33.7955 43.7642 -33.7955ZM43.9688 -35C42.9006 -35 42.1278 -35.4773 42.1278 -36.4091C42.1278 -37.4318 43.0597 -37.75 44.1051 -37.8864C44.6733 -37.9545 46.196 -38.1136 46.4233 -38.3864V-37.1591C46.4233 -36.0682 45.5597 -35 43.9688 -35ZM50.7628 -30.7273C51.973 -30.7273 52.8253 -31.3693 53.331 -32.7273L57.0469 -42.7045L55.581 -42.7273L53.1719 -35.7727H53.081L50.6719 -42.7273H49.2173L52.4446 -33.9545L52.1946 -33.2727C51.706 -31.9432 51.1037 -31.8182 50.1264 -32.0682L49.7855 -30.8864C49.9219 -30.8182 50.3082 -30.7273 50.7628 -30.7273ZM61.1236 -33.7955C62.6463 -33.7955 63.4418 -34.6136 63.7145 -35.1818H63.7827V-34H65.1236V-39.75C65.1236 -42.5227 63.0099 -42.8409 61.8963 -42.8409C60.5781 -42.8409 59.0781 -42.3864 58.3963 -40.7955L59.669 -40.3409C59.9645 -40.9773 60.6634 -41.6591 61.9418 -41.6591C63.1747 -41.6591 63.7827 -41.0057 63.7827 -39.8864V-39.8409C63.7827 -39.1932 63.1236 -39.25 61.5327 -39.0455C59.9134 -38.8352 58.1463 -38.4773 58.1463 -36.4773C58.1463 -34.7727 59.4645 -33.7955 61.1236 -33.7955ZM61.3281 -35C60.2599 -35 59.4872 -35.4773 59.4872 -36.4091C59.4872 -37.4318 60.419 -37.75 61.4645 -37.8864C62.0327 -37.9545 63.5554 -38.1136 63.7827 -38.3864V-37.1591C63.7827 -36.0682 62.919 -35 61.3281 -35ZM69.571 -35.5909H68.1165L68.0483 -34.9545C67.8835 -33.4148 67.5597 -31.8807 67.4119 -31.1591H68.4347C68.7074 -31.9318 69.2869 -33.6818 69.4801 -34.9773L69.571 -35.5909ZM79.1236 -33.7955C80.6463 -33.7955 81.4418 -34.6136 81.7145 -35.1818H81.7827V-34H83.1236V-39.75C83.1236 -42.5227 81.0099 -42.8409 79.8963 -42.8409C78.5781 -42.8409 77.0781 -42.3864 76.3963 -40.7955L77.669 -40.3409C77.9645 -40.9773 78.6634 -41.6591 79.9418 -41.6591C81.1747 -41.6591 81.7827 -41.0057 81.7827 -39.8864V-39.8409C81.7827 -39.1932 81.1236 -39.25 79.5327 -39.0455C77.9134 -38.8352 76.1463 -38.4773 76.1463 -36.4773C76.1463 -34.7727 77.4645 -33.7955 79.1236 -33.7955ZM79.3281 -35C78.2599 -35 77.4872 -35.4773 77.4872 -36.4091C77.4872 -37.4318 78.419 -37.75 79.4645 -37.8864C80.0327 -37.9545 81.5554 -38.1136 81.7827 -38.3864V-37.1591C81.7827 -36.0682 80.919 -35 79.3281 -35ZM89.4574 -42.7273H87.5028V-43.6136C87.5028 -44.4773 87.8665 -44.9318 88.7528 -44.9318C89.1392 -44.9318 89.3665 -44.8409 89.5028 -44.7955L89.8892 -45.9545C89.6847 -46.0455 89.2756 -46.1818 88.6165 -46.1818C87.3665 -46.1818 86.1619 -45.4318 86.1619 -43.9318V-42.7273H84.7528V-41.5909H86.1619V-34H87.5028V-41.5909H89.4574V-42.7273ZM95.1321 -42.7273H93.2685V-44.8182H91.9276V-42.7273H90.6094V-41.5909H91.9276V-36.1364C91.9276 -34.6136 93.1548 -33.8864 94.2912 -33.8864C94.7912 -33.8864 95.1094 -33.9773 95.2912 -34.0455L95.0185 -35.25C94.9048 -35.2273 94.723 -35.1818 94.4276 -35.1818C93.8366 -35.1818 93.2685 -35.3636 93.2685 -36.5V-41.5909H95.1321V-42.7273ZM100.714 -33.8182C102.487 -33.8182 103.783 -34.7045 104.192 -36.0227L102.896 -36.3864C102.555 -35.4773 101.766 -35.0227 100.714 -35.0227C99.1406 -35.0227 98.0554 -36.0398 97.9929 -37.9091H104.328V-38.4773C104.328 -41.7273 102.396 -42.8409 100.578 -42.8409C98.2145 -42.8409 96.6463 -40.9773 96.6463 -38.2955C96.6463 -35.6136 98.1918 -33.8182 100.714 -33.8182ZM97.9929 -39.0682C98.0838 -40.4261 99.044 -41.6364 100.578 -41.6364C102.033 -41.6364 102.964 -40.5455 102.964 -39.0682H97.9929ZM106.368 -34H107.709V-39.5227C107.709 -40.7045 108.641 -41.5682 109.913 -41.5682C110.271 -41.5682 110.641 -41.5 110.732 -41.4773V-42.8409C110.578 -42.8523 110.226 -42.8636 110.027 -42.8636C108.982 -42.8636 108.072 -42.2727 107.754 -41.4091H107.663V-42.7273H106.368V-34ZM116.821 -34H118.162V-39.4545C118.162 -40.733 119.094 -41.6364 120.139 -41.6364C121.156 -41.6364 121.866 -40.9716 121.866 -39.9773V-34H123.23V-39.6818C123.23 -40.8068 123.935 -41.6364 125.162 -41.6364C126.116 -41.6364 126.935 -41.1307 126.935 -39.8409V-34H128.276V-39.8409C128.276 -41.892 127.173 -42.8409 125.616 -42.8409C124.366 -42.8409 123.452 -42.267 123.003 -41.3636H122.912C122.48 -42.2955 121.719 -42.8409 120.571 -42.8409C119.435 -42.8409 118.594 -42.2955 118.23 -41.3636H118.116V-42.7273H116.821V-34ZM131.278 -30.7273C132.489 -30.7273 133.341 -31.3693 133.847 -32.7273L137.562 -42.7045L136.097 -42.7273L133.688 -35.7727H133.597L131.188 -42.7273H129.733L132.96 -33.9545L132.71 -33.2727C132.222 -31.9432 131.619 -31.8182 130.642 -32.0682L130.301 -30.8864C130.438 -30.8182 130.824 -30.7273 131.278 -30.7273ZM150.018 -40.7727C149.598 -42.0114 148.655 -42.8409 146.928 -42.8409C145.087 -42.8409 143.723 -41.7955 143.723 -40.3182C143.723 -39.1136 144.439 -38.3068 146.041 -37.9318L147.496 -37.5909C148.376 -37.3864 148.791 -36.9659 148.791 -36.3636C148.791 -35.6136 147.996 -35 146.746 -35C145.649 -35 144.962 -35.4716 144.723 -36.4091L143.45 -36.0909C143.763 -34.608 144.984 -33.8182 146.768 -33.8182C148.797 -33.8182 150.178 -34.9261 150.178 -36.4318C150.178 -37.6477 149.416 -38.4148 147.859 -38.7955L146.564 -39.1136C145.53 -39.3693 145.064 -39.7159 145.064 -40.3864C145.064 -41.1364 145.859 -41.6818 146.928 -41.6818C148.098 -41.6818 148.581 -41.0341 148.814 -40.4318L150.018 -40.7727ZM155.741 -33.8182C158.105 -33.8182 159.696 -35.6136 159.696 -38.3182C159.696 -41.0455 158.105 -42.8409 155.741 -42.8409C153.378 -42.8409 151.787 -41.0455 151.787 -38.3182C151.787 -35.6136 153.378 -33.8182 155.741 -33.8182ZM155.741 -35.0227C153.946 -35.0227 153.128 -36.5682 153.128 -38.3182C153.128 -40.0682 153.946 -41.6364 155.741 -41.6364C157.537 -41.6364 158.355 -40.0682 158.355 -38.3182C158.355 -36.5682 157.537 -35.0227 155.741 -35.0227ZM163.084 -39.25C163.084 -40.7727 164.027 -41.6364 165.311 -41.6364C166.555 -41.6364 167.311 -40.8239 167.311 -39.4545V-34H168.652V-39.5455C168.652 -41.7727 167.464 -42.8409 165.697 -42.8409C164.379 -42.8409 163.561 -42.25 163.152 -41.3636H163.038V-42.7273H161.743V-34H163.084V-39.25ZM177.284 -40.7727C176.864 -42.0114 175.92 -42.8409 174.193 -42.8409C172.352 -42.8409 170.989 -41.7955 170.989 -40.3182C170.989 -39.1136 171.705 -38.3068 173.307 -37.9318L174.761 -37.5909C175.642 -37.3864 176.057 -36.9659 176.057 -36.3636C176.057 -35.6136 175.261 -35 174.011 -35C172.915 -35 172.227 -35.4716 171.989 -36.4091L170.716 -36.0909C171.028 -34.608 172.25 -33.8182 174.034 -33.8182C176.062 -33.8182 177.443 -34.9261 177.443 -36.4318C177.443 -37.6477 176.682 -38.4148 175.125 -38.7955L173.83 -39.1136C172.795 -39.3693 172.33 -39.7159 172.33 -40.3864C172.33 -41.1364 173.125 -41.6818 174.193 -41.6818C175.364 -41.6818 175.847 -41.0341 176.08 -40.4318L177.284 -40.7727ZM-136.205 -9.79545C-134.682 -9.79545 -133.886 -10.6136 -133.614 -11.1818H-133.545V-10H-132.205V-15.75C-132.205 -18.5227 -134.318 -18.8409 -135.432 -18.8409C-136.75 -18.8409 -138.25 -18.3864 -138.932 -16.7955L-137.659 -16.3409C-137.364 -16.9773 -136.665 -17.6591 -135.386 -17.6591C-134.153 -17.6591 -133.545 -17.0057 -133.545 -15.8864V-15.8409C-133.545 -15.1932 -134.205 -15.25 -135.795 -15.0455C-137.415 -14.8352 -139.182 -14.4773 -139.182 -12.4773C-139.182 -10.7727 -137.864 -9.79545 -136.205 -9.79545ZM-136 -11C-137.068 -11 -137.841 -11.4773 -137.841 -12.4091C-137.841 -13.4318 -136.909 -13.75 -135.864 -13.8864C-135.295 -13.9545 -133.773 -14.1136 -133.545 -14.3864V-13.1591C-133.545 -12.0682 -134.409 -11 -136 -11ZM-128.416 -15.25C-128.416 -16.7727 -127.473 -17.6364 -126.189 -17.6364C-124.945 -17.6364 -124.189 -16.8239 -124.189 -15.4545V-10H-122.848V-15.5455C-122.848 -17.7727 -124.036 -18.8409 -125.803 -18.8409C-127.121 -18.8409 -127.939 -18.25 -128.348 -17.3636H-128.462V-18.7273H-129.757V-10H-128.416V-15.25ZM-117.102 -9.81818C-115.42 -9.81818 -114.852 -10.8636 -114.557 -11.3409H-114.398V-10H-113.102V-21.6364H-114.443V-17.3409H-114.557C-114.852 -17.7955 -115.375 -18.8409 -117.08 -18.8409C-119.284 -18.8409 -120.807 -17.0909 -120.807 -14.3409C-120.807 -11.5682 -119.284 -9.81818 -117.102 -9.81818ZM-116.92 -11.0227C-118.602 -11.0227 -119.466 -12.5 -119.466 -14.3636C-119.466 -16.2045 -118.625 -17.6364 -116.92 -17.6364C-115.284 -17.6364 -114.42 -16.3182 -114.42 -14.3636C-114.42 -12.3864 -115.307 -11.0227 -116.92 -11.0227ZM-102.165 -18.7273H-104.028V-20.8182H-105.369V-18.7273H-106.688V-17.5909H-105.369V-12.1364C-105.369 -10.6136 -104.142 -9.88636 -103.006 -9.88636C-102.506 -9.88636 -102.188 -9.97727 -102.006 -10.0455L-102.278 -11.25C-102.392 -11.2273 -102.574 -11.1818 -102.869 -11.1818C-103.46 -11.1818 -104.028 -11.3636 -104.028 -12.5V-17.5909H-102.165V-18.7273ZM-98.6193 -15.25C-98.6193 -16.7727 -97.6477 -17.6364 -96.3239 -17.6364C-95.0625 -17.6364 -94.3011 -16.8409 -94.3011 -15.4545V-10H-92.9602V-15.5455C-92.9602 -17.7898 -94.1534 -18.8409 -95.9375 -18.8409C-97.3125 -18.8409 -98.0966 -18.267 -98.5057 -17.3636H-98.6193V-21.6364H-99.9602V-10H-98.6193V-15.25ZM-86.848 -9.81818C-85.0753 -9.81818 -83.7798 -10.7045 -83.3707 -12.0227L-84.6662 -12.3864C-85.0071 -11.4773 -85.7969 -11.0227 -86.848 -11.0227C-88.4219 -11.0227 -89.5071 -12.0398 -89.5696 -13.9091H-83.2344V-14.4773C-83.2344 -17.7273 -85.1662 -18.8409 -86.9844 -18.8409C-89.348 -18.8409 -90.9162 -16.9773 -90.9162 -14.2955C-90.9162 -11.6136 -89.3707 -9.81818 -86.848 -9.81818ZM-89.5696 -15.0682C-89.4787 -16.4261 -88.5185 -17.6364 -86.9844 -17.6364C-85.5298 -17.6364 -84.598 -16.5455 -84.598 -15.0682H-89.5696ZM-70.5128 -16.7727C-70.9332 -18.0114 -71.8764 -18.8409 -73.6037 -18.8409C-75.4446 -18.8409 -76.8082 -17.7955 -76.8082 -16.3182C-76.8082 -15.1136 -76.0923 -14.3068 -74.4901 -13.9318L-73.0355 -13.5909C-72.1548 -13.3864 -71.7401 -12.9659 -71.7401 -12.3636C-71.7401 -11.6136 -72.5355 -11 -73.7855 -11C-74.8821 -11 -75.5696 -11.4716 -75.8082 -12.4091L-77.081 -12.0909C-76.7685 -10.608 -75.5469 -9.81818 -73.7628 -9.81818C-71.7344 -9.81818 -70.3537 -10.9261 -70.3537 -12.4318C-70.3537 -13.6477 -71.1151 -14.4148 -72.6719 -14.7955L-73.9673 -15.1136C-75.0014 -15.3693 -75.4673 -15.7159 -75.4673 -16.3864C-75.4673 -17.1364 -74.6719 -17.6818 -73.6037 -17.6818C-72.4332 -17.6818 -71.9503 -17.0341 -71.7173 -16.4318L-70.5128 -16.7727ZM-64.7898 -9.81818C-62.4261 -9.81818 -60.8352 -11.6136 -60.8352 -14.3182C-60.8352 -17.0455 -62.4261 -18.8409 -64.7898 -18.8409C-67.1534 -18.8409 -68.7443 -17.0455 -68.7443 -14.3182C-68.7443 -11.6136 -67.1534 -9.81818 -64.7898 -9.81818ZM-64.7898 -11.0227C-66.5852 -11.0227 -67.4034 -12.5682 -67.4034 -14.3182C-67.4034 -16.0682 -66.5852 -17.6364 -64.7898 -17.6364C-62.9943 -17.6364 -62.1761 -16.0682 -62.1761 -14.3182C-62.1761 -12.5682 -62.9943 -11.0227 -64.7898 -11.0227ZM-57.4474 -15.25C-57.4474 -16.7727 -56.5043 -17.6364 -55.2202 -17.6364C-53.9759 -17.6364 -53.2202 -16.8239 -53.2202 -15.4545V-10H-51.8793V-15.5455C-51.8793 -17.7727 -53.0668 -18.8409 -54.8338 -18.8409C-56.152 -18.8409 -56.9702 -18.25 -57.3793 -17.3636H-57.4929V-18.7273H-58.7884V-10H-57.4474V-15.25ZM-43.2472 -16.7727C-43.6676 -18.0114 -44.6108 -18.8409 -46.3381 -18.8409C-48.179 -18.8409 -49.5426 -17.7955 -49.5426 -16.3182C-49.5426 -15.1136 -48.8267 -14.3068 -47.2244 -13.9318L-45.7699 -13.5909C-44.8892 -13.3864 -44.4744 -12.9659 -44.4744 -12.3636C-44.4744 -11.6136 -45.2699 -11 -46.5199 -11C-47.6165 -11 -48.304 -11.4716 -48.5426 -12.4091L-49.8153 -12.0909C-49.5028 -10.608 -48.2812 -9.81818 -46.4972 -9.81818C-44.4688 -9.81818 -43.0881 -10.9261 -43.0881 -12.4318C-43.0881 -13.6477 -43.8494 -14.4148 -45.4062 -14.7955L-46.7017 -15.1136C-47.7358 -15.3693 -48.2017 -15.7159 -48.2017 -16.3864C-48.2017 -17.1364 -47.4062 -17.6818 -46.3381 -17.6818C-45.1676 -17.6818 -44.6847 -17.0341 -44.4517 -16.4318L-43.2472 -16.7727ZM-33.0241 -9.81818C-30.6605 -9.81818 -29.0696 -11.6136 -29.0696 -14.3182C-29.0696 -17.0455 -30.6605 -18.8409 -33.0241 -18.8409C-35.3878 -18.8409 -36.9787 -17.0455 -36.9787 -14.3182C-36.9787 -11.6136 -35.3878 -9.81818 -33.0241 -9.81818ZM-33.0241 -11.0227C-34.8196 -11.0227 -35.6378 -12.5682 -35.6378 -14.3182C-35.6378 -16.0682 -34.8196 -17.6364 -33.0241 -17.6364C-31.2287 -17.6364 -30.4105 -16.0682 -30.4105 -14.3182C-30.4105 -12.5682 -31.2287 -11.0227 -33.0241 -11.0227ZM-23.1364 -18.7273H-25.0909V-19.6136C-25.0909 -20.4773 -24.7273 -20.9318 -23.8409 -20.9318C-23.4545 -20.9318 -23.2273 -20.8409 -23.0909 -20.7955L-22.7045 -21.9545C-22.9091 -22.0455 -23.3182 -22.1818 -23.9773 -22.1818C-25.2273 -22.1818 -26.4318 -21.4318 -26.4318 -19.9318V-18.7273H-27.8409V-17.5909H-26.4318V-10H-25.0909V-17.5909H-23.1364V-18.7273ZM-16.5753 -10H-15.1662V-14.25H-12.6207C-9.91051 -14.25 -8.68892 -15.8977 -8.68892 -17.9545C-8.68892 -20.0114 -9.91051 -21.6364 -12.6435 -21.6364H-16.5753V-10ZM-15.1662 -15.5V-20.3864H-12.6889C-10.7969 -20.3864 -10.0753 -19.3523 -10.0753 -17.9545C-10.0753 -16.5568 -10.7969 -15.5 -12.6662 -15.5H-15.1662ZM-4.03267 -9.79545C-2.50994 -9.79545 -1.71449 -10.6136 -1.44176 -11.1818H-1.37358V-10H-0.03267V-15.75C-0.03267 -18.5227 -2.14631 -18.8409 -3.25994 -18.8409C-4.57812 -18.8409 -6.07812 -18.3864 -6.75994 -16.7955L-5.48722 -16.3409C-5.19176 -16.9773 -4.4929 -17.6591 -3.21449 -17.6591C-1.98153 -17.6591 -1.37358 -17.0057 -1.37358 -15.8864V-15.8409C-1.37358 -15.1932 -2.03267 -15.25 -3.62358 -15.0455C-5.2429 -14.8352 -7.00994 -14.4773 -7.00994 -12.4773C-7.00994 -10.7727 -5.69176 -9.79545 -4.03267 -9.79545ZM-3.82812 -11C-4.89631 -11 -5.66903 -11.4773 -5.66903 -12.4091C-5.66903 -13.4318 -4.73722 -13.75 -3.69176 -13.8864C-3.12358 -13.9545 -1.60085 -14.1136 -1.37358 -14.3864V-13.1591C-1.37358 -12.0682 -2.23722 -11 -3.82812 -11ZM-0.509943 -21.6364H-5.82812V-20.5H-0.509943V-21.6364ZM3.75568 -15.25C3.75568 -16.7727 4.69886 -17.6364 5.98295 -17.6364C7.22727 -17.6364 7.98295 -16.8239 7.98295 -15.4545V-10H9.32386V-15.5455C9.32386 -17.7727 8.13636 -18.8409 6.36932 -18.8409C5.05114 -18.8409 4.23295 -18.25 3.82386 -17.3636H3.71023V-18.7273H2.41477V-10H3.75568V-15.25ZM5.86932 -7.11364C6.39205 -7.11364 6.82386 -7.52273 6.82386 -8.02273C6.82386 -8.52273 6.39205 -8.93182 5.86932 -8.93182C5.34659 -8.93182 4.91477 -8.52273 4.91477 -8.02273C4.91477 -7.52273 5.34659 -7.11364 5.86932 -7.11364ZM15.0696 -9.81818C16.7514 -9.81818 17.3196 -10.8636 17.6151 -11.3409H17.7741V-10H19.0696V-21.6364H17.7287V-17.3409H17.6151C17.3196 -17.7955 16.7969 -18.8409 15.0923 -18.8409C12.8878 -18.8409 11.3651 -17.0909 11.3651 -14.3409C11.3651 -11.5682 12.8878 -9.81818 15.0696 -9.81818ZM15.2514 -11.0227C13.5696 -11.0227 12.706 -12.5 12.706 -14.3636C12.706 -16.2045 13.5469 -17.6364 15.2514 -17.6364C16.8878 -17.6364 17.7514 -16.3182 17.7514 -14.3636C17.7514 -12.3864 16.8651 -11.0227 15.2514 -11.0227ZM15.3537 -7.11364C15.8764 -7.11364 16.3082 -7.52273 16.3082 -8.02273C16.3082 -8.52273 15.8764 -8.93182 15.3537 -8.93182C14.831 -8.93182 14.3991 -8.52273 14.3991 -8.02273C14.3991 -7.52273 14.831 -7.11364 15.3537 -7.11364ZM27.2116 -13.5682C27.2116 -11.9318 25.9616 -11.1818 24.9616 -11.1818C23.848 -11.1818 23.0526 -12 23.0526 -13.2727V-18.7273H21.7116V-13.1818C21.7116 -10.9545 22.8935 -9.88636 24.5298 -9.88636C25.848 -9.88636 26.7116 -10.5909 27.1207 -11.4773H27.2116V-10H28.5526V-18.7273H27.2116V-13.5682ZM38.0767 -9.79545C39.5994 -9.79545 40.3949 -10.6136 40.6676 -11.1818H40.7358V-10H42.0767V-15.75C42.0767 -18.5227 39.9631 -18.8409 38.8494 -18.8409C37.5312 -18.8409 36.0312 -18.3864 35.3494 -16.7955L36.6222 -16.3409C36.9176 -16.9773 37.6165 -17.6591 38.8949 -17.6591C40.1278 -17.6591 40.7358 -17.0057 40.7358 -15.8864V-15.8409C40.7358 -15.1932 40.0767 -15.25 38.4858 -15.0455C36.8665 -14.8352 35.0994 -14.4773 35.0994 -12.4773C35.0994 -10.7727 36.4176 -9.79545 38.0767 -9.79545ZM38.2812 -11C37.2131 -11 36.4403 -11.4773 36.4403 -12.4091C36.4403 -13.4318 37.3722 -13.75 38.4176 -13.8864C38.9858 -13.9545 40.5085 -14.1136 40.7358 -14.3864V-13.1591C40.7358 -12.0682 39.8722 -11 38.2812 -11ZM50.706 -16.7727C50.2855 -18.0114 49.3423 -18.8409 47.6151 -18.8409C45.7741 -18.8409 44.4105 -17.7955 44.4105 -16.3182C44.4105 -15.1136 45.1264 -14.3068 46.7287 -13.9318L48.1832 -13.5909C49.0639 -13.3864 49.4787 -12.9659 49.4787 -12.3636C49.4787 -11.6136 48.6832 -11 47.4332 -11C46.3366 -11 45.6491 -11.4716 45.4105 -12.4091L44.1378 -12.0909C44.4503 -10.608 45.6719 -9.81818 47.456 -9.81818C49.4844 -9.81818 50.8651 -10.9261 50.8651 -12.4318C50.8651 -13.6477 50.1037 -14.4148 48.5469 -14.7955L47.2514 -15.1136C46.2173 -15.3693 45.7514 -15.7159 45.7514 -16.3864C45.7514 -17.1364 46.5469 -17.6818 47.6151 -17.6818C48.7855 -17.6818 49.2685 -17.0341 49.5014 -16.4318L50.706 -16.7727ZM59.0653 -16.7727C58.6449 -18.0114 57.7017 -18.8409 55.9744 -18.8409C54.1335 -18.8409 52.7699 -17.7955 52.7699 -16.3182C52.7699 -15.1136 53.4858 -14.3068 55.0881 -13.9318L56.5426 -13.5909C57.4233 -13.3864 57.8381 -12.9659 57.8381 -12.3636C57.8381 -11.6136 57.0426 -11 55.7926 -11C54.696 -11 54.0085 -11.4716 53.7699 -12.4091L52.4972 -12.0909C52.8097 -10.608 54.0312 -9.81818 55.8153 -9.81818C57.8438 -9.81818 59.2244 -10.9261 59.2244 -12.4318C59.2244 -13.6477 58.4631 -14.4148 56.9062 -14.7955L55.6108 -15.1136C54.5767 -15.3693 54.1108 -15.7159 54.1108 -16.3864C54.1108 -17.1364 54.9062 -17.6818 55.9744 -17.6818C57.1449 -17.6818 57.6278 -17.0341 57.8608 -16.4318L59.0653 -16.7727ZM64.902 -9.81818C66.6747 -9.81818 67.9702 -10.7045 68.3793 -12.0227L67.0838 -12.3864C66.7429 -11.4773 65.9531 -11.0227 64.902 -11.0227C63.3281 -11.0227 62.2429 -12.0398 62.1804 -13.9091H68.5156V-14.4773C68.5156 -17.7273 66.5838 -18.8409 64.7656 -18.8409C62.402 -18.8409 60.8338 -16.9773 60.8338 -14.2955C60.8338 -11.6136 62.3793 -9.81818 64.902 -9.81818ZM62.1804 -15.0682C62.2713 -16.4261 63.2315 -17.6364 64.7656 -17.6364C66.2202 -17.6364 67.152 -16.5455 67.152 -15.0682H62.1804ZM70.5554 -10H71.8963V-15.4545C71.8963 -16.733 72.8281 -17.6364 73.8736 -17.6364C74.8906 -17.6364 75.6009 -16.9716 75.6009 -15.9773V-10H76.9645V-15.6818C76.9645 -16.8068 77.669 -17.6364 78.8963 -17.6364C79.8509 -17.6364 80.669 -17.1307 80.669 -15.8409V-10H82.0099V-15.8409C82.0099 -17.892 80.9077 -18.8409 79.3509 -18.8409C78.1009 -18.8409 77.1861 -18.267 76.7372 -17.3636H76.6463C76.2145 -18.2955 75.4531 -18.8409 74.3054 -18.8409C73.169 -18.8409 72.3281 -18.2955 71.9645 -17.3636H71.8509V-18.7273H70.5554V-10ZM84.6435 -10H85.9389V-11.3409H86.098C86.3935 -10.8636 86.9616 -9.81818 88.6435 -9.81818C90.8253 -9.81818 92.348 -11.5682 92.348 -14.3409C92.348 -17.0909 90.8253 -18.8409 88.6207 -18.8409C86.9162 -18.8409 86.3935 -17.7955 86.098 -17.3409H85.9844V-21.6364H84.6435V-10ZM85.9616 -14.3636C85.9616 -16.3182 86.8253 -17.6364 88.4616 -17.6364C90.1662 -17.6364 91.0071 -16.2045 91.0071 -14.3636C91.0071 -12.5 90.1435 -11.0227 88.4616 -11.0227C86.848 -11.0227 85.9616 -12.3864 85.9616 -14.3636ZM95.7401 -21.6364H94.3991V-10H95.7401V-21.6364ZM101.855 -9.81818C103.628 -9.81818 104.923 -10.7045 105.332 -12.0227L104.037 -12.3864C103.696 -11.4773 102.906 -11.0227 101.855 -11.0227C100.281 -11.0227 99.196 -12.0398 99.1335 -13.9091H105.469V-14.4773C105.469 -17.7273 103.537 -18.8409 101.719 -18.8409C99.3551 -18.8409 97.7869 -16.9773 97.7869 -14.2955C97.7869 -11.6136 99.3324 -9.81818 101.855 -9.81818ZM99.1335 -15.0682C99.2244 -16.4261 100.185 -17.6364 101.719 -17.6364C103.173 -17.6364 104.105 -16.5455 104.105 -15.0682H99.1335ZM110.804 -9.81818C112.486 -9.81818 113.054 -10.8636 113.349 -11.3409H113.509V-10H114.804V-21.6364H113.463V-17.3409H113.349C113.054 -17.7955 112.531 -18.8409 110.827 -18.8409C108.622 -18.8409 107.099 -17.0909 107.099 -14.3409C107.099 -11.5682 108.622 -9.81818 110.804 -9.81818ZM110.986 -11.0227C109.304 -11.0227 108.44 -12.5 108.44 -14.3636C108.44 -16.2045 109.281 -17.6364 110.986 -17.6364C112.622 -17.6364 113.486 -16.3182 113.486 -14.3636C113.486 -12.3864 112.599 -11.0227 110.986 -11.0227ZM121.946 -10H123.287V-18.7273H121.946V-10ZM122.628 -20.1818C123.151 -20.1818 123.582 -20.5909 123.582 -21.0909C123.582 -21.5909 123.151 -22 122.628 -22C122.105 -22 121.673 -21.5909 121.673 -21.0909C121.673 -20.5909 122.105 -20.1818 122.628 -20.1818ZM127.084 -15.25C127.084 -16.7727 128.027 -17.6364 129.311 -17.6364C130.555 -17.6364 131.311 -16.8239 131.311 -15.4545V-10H132.652V-15.5455C132.652 -17.7727 131.464 -18.8409 129.697 -18.8409C128.379 -18.8409 127.561 -18.25 127.152 -17.3636H127.038V-18.7273H125.743V-10H127.084V-15.25ZM143.398 -18.7273H141.534V-20.8182H140.193V-18.7273H138.875V-17.5909H140.193V-12.1364C140.193 -10.6136 141.42 -9.88636 142.557 -9.88636C143.057 -9.88636 143.375 -9.97727 143.557 -10.0455L143.284 -11.25C143.17 -11.2273 142.989 -11.1818 142.693 -11.1818C142.102 -11.1818 141.534 -11.3636 141.534 -12.5V-17.5909H143.398V-18.7273ZM146.943 -15.25C146.943 -16.7727 147.915 -17.6364 149.239 -17.6364C150.5 -17.6364 151.261 -16.8409 151.261 -15.4545V-10H152.602V-15.5455C152.602 -17.7898 151.409 -18.8409 149.625 -18.8409C148.25 -18.8409 147.466 -18.267 147.057 -17.3636H146.943V-21.6364H145.602V-10H146.943V-15.25ZM158.714 -9.81818C160.487 -9.81818 161.783 -10.7045 162.192 -12.0227L160.896 -12.3864C160.555 -11.4773 159.766 -11.0227 158.714 -11.0227C157.141 -11.0227 156.055 -12.0398 155.993 -13.9091H162.328V-14.4773C162.328 -17.7273 160.396 -18.8409 158.578 -18.8409C156.214 -18.8409 154.646 -16.9773 154.646 -14.2955C154.646 -11.6136 156.192 -9.81818 158.714 -9.81818ZM155.993 -15.0682C156.084 -16.4261 157.044 -17.6364 158.578 -17.6364C160.033 -17.6364 160.964 -16.5455 160.964 -15.0682H155.993ZM-138.773 17.2727H-137.432V12.6591H-137.318C-137.023 13.1364 -136.455 14.1818 -134.773 14.1818C-132.591 14.1818 -131.068 12.4318 -131.068 9.65909C-131.068 6.90909 -132.591 5.15909 -134.795 5.15909C-136.5 5.15909 -137.023 6.20455 -137.318 6.65909H-137.477V5.27273H-138.773V17.2727ZM-137.455 9.63636C-137.455 7.68182 -136.591 6.36364 -134.955 6.36364C-133.25 6.36364 -132.409 7.79545 -132.409 9.63636C-132.409 11.5 -133.273 12.9773 -134.955 12.9773C-136.568 12.9773 -137.455 11.6136 -137.455 9.63636ZM-127.682 2.36364H-129.023V14H-127.682V2.36364ZM-122.658 14.2045C-121.135 14.2045 -120.339 13.3864 -120.067 12.8182H-119.999V14H-118.658V8.25C-118.658 5.47727 -120.771 5.15909 -121.885 5.15909C-123.203 5.15909 -124.703 5.61364 -125.385 7.20455L-124.112 7.65909C-123.817 7.02273 -123.118 6.34091 -121.839 6.34091C-120.607 6.34091 -119.999 6.99432 -119.999 8.11364V8.15909C-119.999 8.80682 -120.658 8.75 -122.249 8.95455C-123.868 9.16477 -125.635 9.52273 -125.635 11.5227C-125.635 13.2273 -124.317 14.2045 -122.658 14.2045ZM-122.453 13C-123.521 13 -124.294 12.5227 -124.294 11.5909C-124.294 10.5682 -123.362 10.25 -122.317 10.1136C-121.749 10.0455 -120.226 9.88636 -119.999 9.61364V10.8409C-119.999 11.9318 -120.862 13 -122.453 13ZM-112.665 14.1818C-110.733 14.1818 -109.46 13 -109.233 11.4545H-110.574C-110.824 12.4091 -111.619 12.9773 -112.665 12.9773C-114.256 12.9773 -115.278 11.6591 -115.278 9.63636C-115.278 7.65909 -114.233 6.36364 -112.665 6.36364C-111.483 6.36364 -110.778 7.09091 -110.574 7.88636H-109.233C-109.46 6.25 -110.847 5.15909 -112.688 5.15909C-115.051 5.15909 -116.619 7.02273 -116.619 9.68182C-116.619 12.2955 -115.119 14.1818 -112.665 14.1818ZM-103.614 14.1818C-101.841 14.1818 -100.545 13.2955 -100.136 11.9773L-101.432 11.6136C-101.773 12.5227 -102.562 12.9773 -103.614 12.9773C-105.188 12.9773 -106.273 11.9602 -106.335 10.0909H-100V9.52273C-100 6.27273 -101.932 5.15909 -103.75 5.15909C-106.114 5.15909 -107.682 7.02273 -107.682 9.70455C-107.682 12.3864 -106.136 14.1818 -103.614 14.1818ZM-106.335 8.93182C-106.244 7.57386 -105.284 6.36364 -103.75 6.36364C-102.295 6.36364 -101.364 7.45455 -101.364 8.93182H-106.335ZM-89.9148 14.1818C-87.5511 14.1818 -85.9602 12.3864 -85.9602 9.68182C-85.9602 6.95455 -87.5511 5.15909 -89.9148 5.15909C-92.2784 5.15909 -93.8693 6.95455 -93.8693 9.68182C-93.8693 12.3864 -92.2784 14.1818 -89.9148 14.1818ZM-89.9148 12.9773C-91.7102 12.9773 -92.5284 11.4318 -92.5284 9.68182C-92.5284 7.93182 -91.7102 6.36364 -89.9148 6.36364C-88.1193 6.36364 -87.3011 7.93182 -87.3011 9.68182C-87.3011 11.4318 -88.1193 12.9773 -89.9148 12.9773ZM-80.027 5.27273H-81.9815V4.38636C-81.9815 3.52273 -81.6179 3.06818 -80.7315 3.06818C-80.3452 3.06818 -80.1179 3.15909 -79.9815 3.20455L-79.5952 2.04545C-79.7997 1.95455 -80.2088 1.81818 -80.8679 1.81818C-82.1179 1.81818 -83.3224 2.56818 -83.3224 4.06818V5.27273H-84.7315V6.40909H-83.3224V14H-81.9815V6.40909H-80.027V5.27273ZM-73.6477 17.2727H-72.3068V12.6591H-72.1932C-71.8977 13.1364 -71.3295 14.1818 -69.6477 14.1818C-67.4659 14.1818 -65.9432 12.4318 -65.9432 9.65909C-65.9432 6.90909 -67.4659 5.15909 -69.6705 5.15909C-71.375 5.15909 -71.8977 6.20455 -72.1932 6.65909H-72.3523V5.27273H-73.6477V17.2727ZM-72.3295 9.63636C-72.3295 7.68182 -71.4659 6.36364 -69.8295 6.36364C-68.125 6.36364 -67.2841 7.79545 -67.2841 9.63636C-67.2841 11.5 -68.1477 12.9773 -69.8295 12.9773C-71.4432 12.9773 -72.3295 11.6136 -72.3295 9.63636ZM-63.8977 14H-62.5568V5.27273H-63.8977V14ZM-63.2159 3.81818C-62.6932 3.81818 -62.2614 3.40909 -62.2614 2.90909C-62.2614 2.40909 -62.6932 2 -63.2159 2C-63.7386 2 -64.1705 2.40909 -64.1705 2.90909C-64.1705 3.40909 -63.7386 3.81818 -63.2159 3.81818ZM-58.7599 2.36364H-60.1009V14H-58.7599V2.36364ZM-52.7812 17.4545C-50.6903 17.4545 -49.0085 16.5 -49.0085 14.25V5.27273H-50.304V6.65909H-50.4403C-50.7358 6.20455 -51.2812 5.15909 -52.9858 5.15909C-55.1903 5.15909 -56.7131 6.90909 -56.7131 9.59091C-56.7131 12.3182 -55.1222 13.8636 -53.0085 13.8636C-51.304 13.8636 -50.7585 12.8636 -50.4631 12.3864H-50.3494V14.1591C-50.3494 15.6136 -51.3722 16.2727 -52.7812 16.2727C-54.3665 16.2727 -54.9233 15.4375 -55.2812 14.9545L-56.3494 15.7045C-55.804 16.6193 -54.7301 17.4545 -52.7812 17.4545ZM-52.8267 12.6591C-54.5085 12.6591 -55.3722 11.3864 -55.3722 9.56818C-55.3722 7.79545 -54.5312 6.36364 -52.8267 6.36364C-51.1903 6.36364 -50.3267 7.68182 -50.3267 9.56818C-50.3267 11.5 -51.2131 12.6591 -52.8267 12.6591ZM-46.554 14H-45.2131V8.47727C-45.2131 7.29545 -44.2812 6.43182 -43.0085 6.43182C-42.6506 6.43182 -42.2812 6.5 -42.1903 6.52273V5.15909C-42.3438 5.14773 -42.696 5.13636 -42.8949 5.13636C-43.9403 5.13636 -44.8494 5.72727 -45.1676 6.59091H-45.2585V5.27273H-46.554V14ZM-40.6009 14H-39.2599V5.27273H-40.6009V14ZM-39.919 3.81818C-39.3963 3.81818 -38.9645 3.40909 -38.9645 2.90909C-38.9645 2.40909 -39.3963 2 -39.919 2C-40.4418 2 -40.8736 2.40909 -40.8736 2.90909C-40.8736 3.40909 -40.4418 3.81818 -39.919 3.81818ZM-36.804 14H-35.4631V8.54545C-35.4631 7.26705 -34.5312 6.36364 -33.4858 6.36364C-32.4688 6.36364 -31.7585 7.02841 -31.7585 8.02273V14H-30.3949V8.31818C-30.3949 7.19318 -29.6903 6.36364 -28.4631 6.36364C-27.5085 6.36364 -26.6903 6.86932 -26.6903 8.15909V14H-25.3494V8.15909C-25.3494 6.10795 -26.4517 5.15909 -28.0085 5.15909C-29.2585 5.15909 -30.1733 5.73295 -30.6222 6.63636H-30.7131C-31.1449 5.70455 -31.9062 5.15909 -33.054 5.15909C-34.1903 5.15909 -35.0312 5.70455 -35.3949 6.63636H-35.5085V5.27273H-36.804V14ZM-20.3295 14.2045C-18.8068 14.2045 -18.0114 13.3864 -17.7386 12.8182H-17.6705V14H-16.3295V8.25C-16.3295 5.47727 -18.4432 5.15909 -19.5568 5.15909C-20.875 5.15909 -22.375 5.61364 -23.0568 7.20455L-21.7841 7.65909C-21.4886 7.02273 -20.7898 6.34091 -19.5114 6.34091C-18.2784 6.34091 -17.6705 6.99432 -17.6705 8.11364V8.15909C-17.6705 8.80682 -18.3295 8.75 -19.9205 8.95455C-21.5398 9.16477 -23.3068 9.52273 -23.3068 11.5227C-23.3068 13.2273 -21.9886 14.2045 -20.3295 14.2045ZM-20.125 13C-21.1932 13 -21.9659 12.5227 -21.9659 11.5909C-21.9659 10.5682 -21.0341 10.25 -19.9886 10.1136C-19.4205 10.0455 -17.8977 9.88636 -17.6705 9.61364V10.8409C-17.6705 11.9318 -18.5341 13 -20.125 13ZM-10.3594 17.4545C-8.26847 17.4545 -6.58665 16.5 -6.58665 14.25V5.27273H-7.8821V6.65909H-8.01847C-8.31392 6.20455 -8.85938 5.15909 -10.5639 5.15909C-12.7685 5.15909 -14.2912 6.90909 -14.2912 9.59091C-14.2912 12.3182 -12.7003 13.8636 -10.5866 13.8636C-8.8821 13.8636 -8.33665 12.8636 -8.04119 12.3864H-7.92756V14.1591C-7.92756 15.6136 -8.95028 16.2727 -10.3594 16.2727C-11.9446 16.2727 -12.5014 15.4375 -12.8594 14.9545L-13.9276 15.7045C-13.3821 16.6193 -12.3082 17.4545 -10.3594 17.4545ZM-10.4048 12.6591C-12.0866 12.6591 -12.9503 11.3864 -12.9503 9.56818C-12.9503 7.79545 -12.1094 6.36364 -10.4048 6.36364C-8.76847 6.36364 -7.90483 7.68182 -7.90483 9.56818C-7.90483 11.5 -8.79119 12.6591 -10.4048 12.6591ZM-0.473011 14.1818C1.29972 14.1818 2.59517 13.2955 3.00426 11.9773L1.70881 11.6136C1.3679 12.5227 0.578125 12.9773 -0.473011 12.9773C-2.04688 12.9773 -3.1321 11.9602 -3.1946 10.0909H3.14062V9.52273C3.14062 6.27273 1.20881 5.15909 -0.609375 5.15909C-2.97301 5.15909 -4.54119 7.02273 -4.54119 9.70455C-4.54119 12.3864 -2.99574 14.1818 -0.473011 14.1818ZM-3.1946 8.93182C-3.10369 7.57386 -2.14347 6.36364 -0.609375 6.36364C0.84517 6.36364 1.77699 7.45455 1.77699 8.93182H-3.1946ZM12.2486 14.2045C13.7713 14.2045 14.5668 13.3864 14.8395 12.8182H14.9077V14H16.2486V8.25C16.2486 5.47727 14.1349 5.15909 13.0213 5.15909C11.7031 5.15909 10.2031 5.61364 9.52131 7.20455L10.794 7.65909C11.0895 7.02273 11.7884 6.34091 13.0668 6.34091C14.2997 6.34091 14.9077 6.99432 14.9077 8.11364V8.15909C14.9077 8.80682 14.2486 8.75 12.6577 8.95455C11.0384 9.16477 9.27131 9.52273 9.27131 11.5227C9.27131 13.2273 10.5895 14.2045 12.2486 14.2045ZM12.4531 13C11.3849 13 10.6122 12.5227 10.6122 11.5909C10.6122 10.5682 11.544 10.25 12.5895 10.1136C13.1577 10.0455 14.6804 9.88636 14.9077 9.61364V10.8409C14.9077 11.9318 14.044 13 12.4531 13ZM22.4915 5.27273H20.6278V3.18182H19.2869V5.27273H17.9688V6.40909H19.2869V11.8636C19.2869 13.3864 20.5142 14.1136 21.6506 14.1136C22.1506 14.1136 22.4688 14.0227 22.6506 13.9545L22.3778 12.75C22.2642 12.7727 22.0824 12.8182 21.7869 12.8182C21.196 12.8182 20.6278 12.6364 20.6278 11.5V6.40909H22.4915V5.27273ZM29.1903 14H30.5994V10.2273L32.054 8.59091L36.0994 14H37.804L32.9176 7.61364L37.804 2.36364H35.9631L30.7358 8.13636H30.5994V2.36364H29.1903V14ZM44.3991 10.4318C44.3991 12.0682 43.1491 12.8182 42.1491 12.8182C41.0355 12.8182 40.2401 12 40.2401 10.7273V5.27273H38.8991V10.8182C38.8991 13.0455 40.081 14.1136 41.7173 14.1136C43.0355 14.1136 43.8991 13.4091 44.3082 12.5227H44.3991V14H45.7401V5.27273H44.3991V10.4318ZM48.196 14H49.5369V8.47727C49.5369 7.29545 50.4688 6.43182 51.7415 6.43182C52.0994 6.43182 52.4688 6.5 52.5597 6.52273V5.15909C52.4062 5.14773 52.054 5.13636 51.8551 5.13636C50.8097 5.13636 49.9006 5.72727 49.5824 6.59091H49.4915V5.27273H48.196V14ZM59.6491 10.4318C59.6491 12.0682 58.3991 12.8182 57.3991 12.8182C56.2855 12.8182 55.4901 12 55.4901 10.7273V5.27273H54.1491V10.8182C54.1491 13.0455 55.331 14.1136 56.9673 14.1136C58.2855 14.1136 59.1491 13.4091 59.5582 12.5227H59.6491V14H60.9901V5.27273H59.6491V10.4318ZM63.446 14H64.7869V10.733L65.7244 9.86364L68.9915 14H70.696L66.7358 9L70.4233 5.27273H68.7642L64.946 9.15909H64.7869V2.36364H63.446V14ZM78.331 7.22727C77.9105 5.98864 76.9673 5.15909 75.2401 5.15909C73.3991 5.15909 72.0355 6.20455 72.0355 7.68182C72.0355 8.88636 72.7514 9.69318 74.3537 10.0682L75.8082 10.4091C76.6889 10.6136 77.1037 11.0341 77.1037 11.6364C77.1037 12.3864 76.3082 13 75.0582 13C73.9616 13 73.2741 12.5284 73.0355 11.5909L71.7628 11.9091C72.0753 13.392 73.2969 14.1818 75.081 14.1818C77.1094 14.1818 78.4901 13.0739 78.4901 11.5682C78.4901 10.3523 77.7287 9.58523 76.1719 9.20455L74.8764 8.88636C73.8423 8.63068 73.3764 8.28409 73.3764 7.61364C73.3764 6.86364 74.1719 6.31818 75.2401 6.31818C76.4105 6.31818 76.8935 6.96591 77.1264 7.56818L78.331 7.22727ZM75.1946 16.8864C75.7173 16.8864 76.1491 16.4773 76.1491 15.9773C76.1491 15.4773 75.7173 15.0682 75.1946 15.0682C74.6719 15.0682 74.2401 15.4773 74.2401 15.9773C74.2401 16.4773 74.6719 16.8864 75.1946 16.8864ZM84.1676 14.1818C85.9403 14.1818 87.2358 13.2955 87.6449 11.9773L86.3494 11.6136C86.0085 12.5227 85.2188 12.9773 84.1676 12.9773C82.5938 12.9773 81.5085 11.9602 81.446 10.0909H87.7812V9.52273C87.7812 6.27273 85.8494 5.15909 84.0312 5.15909C81.6676 5.15909 80.0994 7.02273 80.0994 9.70455C80.0994 12.3864 81.6449 14.1818 84.1676 14.1818ZM81.446 8.93182C81.5369 7.57386 82.4972 6.36364 84.0312 6.36364C85.4858 6.36364 86.4176 7.45455 86.4176 8.93182H81.446ZM93.6165 5.27273H91.7528V3.18182H90.4119V5.27273H89.0938V6.40909H90.4119V11.8636C90.4119 13.3864 91.6392 14.1136 92.7756 14.1136C93.2756 14.1136 93.5938 14.0227 93.7756 13.9545L93.5028 12.75C93.3892 12.7727 93.2074 12.8182 92.9119 12.8182C92.321 12.8182 91.7528 12.6364 91.7528 11.5V6.40909H93.6165V5.27273ZM95.6335 14H96.9744V8.47727C96.9744 7.29545 97.9062 6.43182 99.179 6.43182C99.5369 6.43182 99.9062 6.5 99.9972 6.52273V5.15909C99.8438 5.14773 99.4915 5.13636 99.2926 5.13636C98.2472 5.13636 97.3381 5.72727 97.0199 6.59091H96.929V5.27273H95.6335V14ZM104.155 14.2045C105.678 14.2045 106.473 13.3864 106.746 12.8182H106.814V14H108.155V8.25C108.155 5.47727 106.041 5.15909 104.928 5.15909C103.609 5.15909 102.109 5.61364 101.428 7.20455L102.7 7.65909C102.996 7.02273 103.695 6.34091 104.973 6.34091C106.206 6.34091 106.814 6.99432 106.814 8.11364V8.15909C106.814 8.80682 106.155 8.75 104.564 8.95455C102.945 9.16477 101.178 9.52273 101.178 11.5227C101.178 13.2273 102.496 14.2045 104.155 14.2045ZM104.359 13C103.291 13 102.518 12.5227 102.518 11.5909C102.518 10.5682 103.45 10.25 104.496 10.1136C105.064 10.0455 106.587 9.88636 106.814 9.61364V10.8409C106.814 11.9318 105.95 13 104.359 13ZM112.602 12.4091H111.148L111.08 13.0455C110.915 14.5852 110.591 16.1193 110.443 16.8409H111.466C111.739 16.0682 112.318 14.3182 112.511 13.0227L112.602 12.4091ZM122.882 14.1818C124.564 14.1818 125.132 13.1364 125.428 12.6591H125.587V14H126.882V2.36364H125.541V6.65909H125.428C125.132 6.20455 124.609 5.15909 122.905 5.15909C120.7 5.15909 119.178 6.90909 119.178 9.65909C119.178 12.4318 120.7 14.1818 122.882 14.1818ZM123.064 12.9773C121.382 12.9773 120.518 11.5 120.518 9.63636C120.518 7.79545 121.359 6.36364 123.064 6.36364C124.7 6.36364 125.564 7.68182 125.564 9.63636C125.564 11.6136 124.678 12.9773 123.064 12.9773ZM133.183 14.1818C134.956 14.1818 136.251 13.2955 136.661 11.9773L135.365 11.6136C135.024 12.5227 134.234 12.9773 133.183 12.9773C131.609 12.9773 130.524 11.9602 130.462 10.0909H136.797V9.52273C136.797 6.27273 134.865 5.15909 133.047 5.15909C130.683 5.15909 129.115 7.02273 129.115 9.70455C129.115 12.3864 130.661 14.1818 133.183 14.1818ZM130.462 8.93182C130.553 7.57386 131.513 6.36364 133.047 6.36364C134.501 6.36364 135.433 7.45455 135.433 8.93182H130.462ZM145.018 7.22727C144.598 5.98864 143.655 5.15909 141.928 5.15909C140.087 5.15909 138.723 6.20455 138.723 7.68182C138.723 8.88636 139.439 9.69318 141.041 10.0682L142.496 10.4091C143.376 10.6136 143.791 11.0341 143.791 11.6364C143.791 12.3864 142.996 13 141.746 13C140.649 13 139.962 12.5284 139.723 11.5909L138.45 11.9091C138.763 13.392 139.984 14.1818 141.768 14.1818C143.797 14.1818 145.178 13.0739 145.178 11.5682C145.178 10.3523 144.416 9.58523 142.859 9.20455L141.564 8.88636C140.53 8.63068 140.064 8.28409 140.064 7.61364C140.064 6.86364 140.859 6.31818 141.928 6.31818C143.098 6.31818 143.581 6.96591 143.814 7.56818L145.018 7.22727ZM147.196 14H148.537V5.27273H147.196V14ZM147.878 3.81818C148.401 3.81818 148.832 3.40909 148.832 2.90909C148.832 2.40909 148.401 2 147.878 2C147.355 2 146.923 2.40909 146.923 2.90909C146.923 3.40909 147.355 3.81818 147.878 3.81818ZM150.993 14H152.334V8.47727C152.334 7.29545 153.266 6.43182 154.538 6.43182C154.896 6.43182 155.266 6.5 155.357 6.52273V5.15909C155.203 5.14773 154.851 5.13636 154.652 5.13636C153.607 5.13636 152.697 5.72727 152.379 6.59091H152.288V5.27273H150.993V14ZM156.946 14H158.287V5.27273H156.946V14ZM157.628 3.81818C158.151 3.81818 158.582 3.40909 158.582 2.90909C158.582 2.40909 158.151 2 157.628 2C157.105 2 156.673 2.40909 156.673 2.90909C156.673 3.40909 157.105 3.81818 157.628 3.81818ZM162.084 8.75C162.084 7.22727 163.027 6.36364 164.311 6.36364C165.555 6.36364 166.311 7.17614 166.311 8.54545V14H167.652V8.45455C167.652 6.22727 166.464 5.15909 164.697 5.15909C163.379 5.15909 162.561 5.75 162.152 6.63636H162.038V5.27273H160.743V14H162.084V8.75ZM173.625 17.4545C175.716 17.4545 177.398 16.5 177.398 14.25V5.27273H176.102V6.65909H175.966C175.67 6.20455 175.125 5.15909 173.42 5.15909C171.216 5.15909 169.693 6.90909 169.693 9.59091C169.693 12.3182 171.284 13.8636 173.398 13.8636C175.102 13.8636 175.648 12.8636 175.943 12.3864H176.057V14.1591C176.057 15.6136 175.034 16.2727 173.625 16.2727C172.04 16.2727 171.483 15.4375 171.125 14.9545L170.057 15.7045C170.602 16.6193 171.676 17.4545 173.625 17.4545ZM173.58 12.6591C171.898 12.6591 171.034 11.3864 171.034 9.56818C171.034 7.79545 171.875 6.36364 173.58 6.36364C175.216 6.36364 176.08 7.68182 176.08 9.56818C176.08 11.5 175.193 12.6591 173.58 12.6591ZM-134.977 29.2727H-136.841V27.1818H-138.182V29.2727H-139.5V30.4091H-138.182V35.8636C-138.182 37.3864 -136.955 38.1136 -135.818 38.1136C-135.318 38.1136 -135 38.0227 -134.818 37.9545L-135.091 36.75C-135.205 36.7727 -135.386 36.8182 -135.682 36.8182C-136.273 36.8182 -136.841 36.6364 -136.841 35.5V30.4091H-134.977V29.2727ZM-129.509 38.1818C-127.145 38.1818 -125.554 36.3864 -125.554 33.6818C-125.554 30.9545 -127.145 29.1591 -129.509 29.1591C-131.872 29.1591 -133.463 30.9545 -133.463 33.6818C-133.463 36.3864 -131.872 38.1818 -129.509 38.1818ZM-129.509 36.9773C-131.304 36.9773 -132.122 35.4318 -132.122 33.6818C-132.122 31.9318 -131.304 30.3636 -129.509 30.3636C-127.713 30.3636 -126.895 31.9318 -126.895 33.6818C-126.895 35.4318 -127.713 36.9773 -129.509 36.9773ZM-115.121 29.2727H-117.075V28.3864C-117.075 27.5227 -116.712 27.0682 -115.825 27.0682C-115.439 27.0682 -115.212 27.1591 -115.075 27.2045L-114.689 26.0455C-114.893 25.9545 -115.303 25.8182 -115.962 25.8182C-117.212 25.8182 -118.416 26.5682 -118.416 28.0682V29.2727H-119.825V30.4091H-118.416V38H-117.075V30.4091H-115.121V29.2727ZM-113.241 38H-111.901V29.2727H-113.241V38ZM-112.56 27.8182C-112.037 27.8182 -111.605 27.4091 -111.605 26.9091C-111.605 26.4091 -112.037 26 -112.56 26C-113.082 26 -113.514 26.4091 -113.514 26.9091C-113.514 27.4091 -113.082 27.8182 -112.56 27.8182ZM-105.922 41.4545C-103.831 41.4545 -102.149 40.5 -102.149 38.25V29.2727H-103.445V30.6591H-103.581C-103.876 30.2045 -104.422 29.1591 -106.126 29.1591C-108.331 29.1591 -109.854 30.9091 -109.854 33.5909C-109.854 36.3182 -108.263 37.8636 -106.149 37.8636C-104.445 37.8636 -103.899 36.8636 -103.604 36.3864H-103.49V38.1591C-103.49 39.6136 -104.513 40.2727 -105.922 40.2727C-107.507 40.2727 -108.064 39.4375 -108.422 38.9545L-109.49 39.7045C-108.945 40.6193 -107.871 41.4545 -105.922 41.4545ZM-105.967 36.6591C-107.649 36.6591 -108.513 35.3864 -108.513 33.5682C-108.513 31.7955 -107.672 30.3636 -105.967 30.3636C-104.331 30.3636 -103.467 31.6818 -103.467 33.5682C-103.467 35.5 -104.354 36.6591 -105.967 36.6591ZM-98.3537 32.75C-98.3537 31.2273 -97.3821 30.3636 -96.0582 30.3636C-94.7969 30.3636 -94.0355 31.1591 -94.0355 32.5455V38H-92.6946V32.4545C-92.6946 30.2102 -93.8878 29.1591 -95.6719 29.1591C-97.0469 29.1591 -97.831 29.733 -98.2401 30.6364H-98.3537V26.3636H-99.6946V38H-98.3537V32.75ZM-86.446 29.2727H-88.3097V27.1818H-89.6506V29.2727H-90.9688V30.4091H-89.6506V35.8636C-89.6506 37.3864 -88.4233 38.1136 -87.2869 38.1136C-86.7869 38.1136 -86.4688 38.0227 -86.2869 37.9545L-86.5597 36.75C-86.6733 36.7727 -86.8551 36.8182 -87.1506 36.8182C-87.7415 36.8182 -88.3097 36.6364 -88.3097 35.5V30.4091H-86.446V29.2727ZM-82.429 36.4091H-83.8835L-83.9517 37.0455C-84.1165 38.5852 -84.4403 40.1193 -84.5881 40.8409H-83.5653C-83.2926 40.0682 -82.7131 38.3182 -82.5199 37.0227L-82.429 36.4091ZM-73.4673 38H-72.1491L-70.2401 31.2955H-70.1037L-68.1946 38H-66.8764L-64.2173 29.2727H-65.6264L-67.5128 35.9318H-67.6037L-69.4446 29.2727H-70.8764L-72.7401 35.9545H-72.831L-74.7173 29.2727H-76.1264L-73.4673 38ZM-61.1037 32.75C-61.1037 31.2273 -60.1321 30.3636 -58.8082 30.3636C-57.5469 30.3636 -56.7855 31.1591 -56.7855 32.5455V38H-55.4446V32.4545C-55.4446 30.2102 -56.6378 29.1591 -58.4219 29.1591C-59.7969 29.1591 -60.581 29.733 -60.9901 30.6364H-61.1037V26.3636H-62.4446V38H-61.1037V32.75ZM-50.4233 38.2045C-48.9006 38.2045 -48.1051 37.3864 -47.8324 36.8182H-47.7642V38H-46.4233V32.25C-46.4233 29.4773 -48.5369 29.1591 -49.6506 29.1591C-50.9688 29.1591 -52.4688 29.6136 -53.1506 31.2045L-51.8778 31.6591C-51.5824 31.0227 -50.8835 30.3409 -49.6051 30.3409C-48.3722 30.3409 -47.7642 30.9943 -47.7642 32.1136V32.1591C-47.7642 32.8068 -48.4233 32.75 -50.0142 32.9545C-51.6335 33.1648 -53.4006 33.5227 -53.4006 35.5227C-53.4006 37.2273 -52.0824 38.2045 -50.4233 38.2045ZM-50.2188 37C-51.2869 37 -52.0597 36.5227 -52.0597 35.5909C-52.0597 34.5682 -51.1278 34.25 -50.0824 34.1136C-49.5142 34.0455 -47.9915 33.8864 -47.7642 33.6136V34.8409C-47.7642 35.9318 -48.6278 37 -50.2188 37ZM-40.1804 29.2727H-42.044V27.1818H-43.3849V29.2727H-44.7031V30.4091H-43.3849V35.8636C-43.3849 37.3864 -42.1577 38.1136 -41.0213 38.1136C-40.5213 38.1136 -40.2031 38.0227 -40.0213 37.9545L-40.294 36.75C-40.4077 36.7727 -40.5895 36.8182 -40.8849 36.8182C-41.4759 36.8182 -42.044 36.6364 -42.044 35.5V30.4091H-40.1804V29.2727ZM-30.3679 38.1818C-28.6861 38.1818 -28.1179 37.1364 -27.8224 36.6591H-27.6634V38H-26.3679V26.3636H-27.7088V30.6591H-27.8224C-28.1179 30.2045 -28.6406 29.1591 -30.3452 29.1591C-32.5497 29.1591 -34.0724 30.9091 -34.0724 33.6591C-34.0724 36.4318 -32.5497 38.1818 -30.3679 38.1818ZM-30.1861 36.9773C-31.8679 36.9773 -32.7315 35.5 -32.7315 33.6364C-32.7315 31.7955 -31.8906 30.3636 -30.1861 30.3636C-28.5497 30.3636 -27.6861 31.6818 -27.6861 33.6364C-27.6861 35.6136 -28.5724 36.9773 -30.1861 36.9773ZM-23.7259 38H-22.3849V29.2727H-23.7259V38ZM-23.044 27.8182C-22.5213 27.8182 -22.0895 27.4091 -22.0895 26.9091C-22.0895 26.4091 -22.5213 26 -23.044 26C-23.5668 26 -23.9986 26.4091 -23.9986 26.9091C-23.9986 27.4091 -23.5668 27.8182 -23.044 27.8182ZM-16.6335 38.1818C-14.9517 38.1818 -14.3835 37.1364 -14.0881 36.6591H-13.929V38H-12.6335V26.3636H-13.9744V30.6591H-14.0881C-14.3835 30.2045 -14.9062 29.1591 -16.6108 29.1591C-18.8153 29.1591 -20.3381 30.9091 -20.3381 33.6591C-20.3381 36.4318 -18.8153 38.1818 -16.6335 38.1818ZM-16.4517 36.9773C-18.1335 36.9773 -18.9972 35.5 -18.9972 33.6364C-18.9972 31.7955 -18.1562 30.3636 -16.4517 30.3636C-14.8153 30.3636 -13.9517 31.6818 -13.9517 33.6364C-13.9517 35.6136 -14.8381 36.9773 -16.4517 36.9773ZM-1.69602 29.2727H-3.55966V27.1818H-4.90057V29.2727H-6.21875V30.4091H-4.90057V35.8636C-4.90057 37.3864 -3.6733 38.1136 -2.53693 38.1136C-2.03693 38.1136 -1.71875 38.0227 -1.53693 37.9545L-1.80966 36.75C-1.9233 36.7727 -2.10511 36.8182 -2.40057 36.8182C-2.99148 36.8182 -3.55966 36.6364 -3.55966 35.5V30.4091H-1.69602V29.2727ZM1.84943 32.75C1.84943 31.2273 2.82102 30.3636 4.14489 30.3636C5.40625 30.3636 6.16761 31.1591 6.16761 32.5455V38H7.50852V32.4545C7.50852 30.2102 6.31534 29.1591 4.53125 29.1591C3.15625 29.1591 2.37216 29.733 1.96307 30.6364H1.84943V26.3636H0.508523V38H1.84943V32.75ZM13.6207 38.1818C15.3935 38.1818 16.6889 37.2955 17.098 35.9773L15.8026 35.6136C15.4616 36.5227 14.6719 36.9773 13.6207 36.9773C12.0469 36.9773 10.9616 35.9602 10.8991 34.0909H17.2344V33.5227C17.2344 30.2727 15.3026 29.1591 13.4844 29.1591C11.1207 29.1591 9.55256 31.0227 9.55256 33.7045C9.55256 36.3864 11.098 38.1818 13.6207 38.1818ZM10.8991 32.9318C10.9901 31.5739 11.9503 30.3636 13.4844 30.3636C14.9389 30.3636 15.8707 31.4545 15.8707 32.9318H10.8991ZM19.8722 41.2727C21.0824 41.2727 21.9347 40.6307 22.4403 39.2727L26.1562 29.2955L24.6903 29.2727L22.2812 36.2273H22.1903L19.7812 29.2727H18.3267L21.554 38.0455L21.304 38.7273C20.8153 40.0568 20.2131 40.1818 19.2358 39.9318L18.8949 41.1136C19.0312 41.1818 19.4176 41.2727 19.8722 41.2727ZM35.7259 38.1818C37.4077 38.1818 37.9759 37.1364 38.2713 36.6591H38.4304V38H39.7259V26.3636H38.3849V30.6591H38.2713C37.9759 30.2045 37.4531 29.1591 35.7486 29.1591C33.544 29.1591 32.0213 30.9091 32.0213 33.6591C32.0213 36.4318 33.544 38.1818 35.7259 38.1818ZM35.9077 36.9773C34.2259 36.9773 33.3622 35.5 33.3622 33.6364C33.3622 31.7955 34.2031 30.3636 35.9077 30.3636C37.544 30.3636 38.4077 31.6818 38.4077 33.6364C38.4077 35.6136 37.5213 36.9773 35.9077 36.9773ZM45.9134 38.1818C48.277 38.1818 49.8679 36.3864 49.8679 33.6818C49.8679 30.9545 48.277 29.1591 45.9134 29.1591C43.5497 29.1591 41.9588 30.9545 41.9588 33.6818C41.9588 36.3864 43.5497 38.1818 45.9134 38.1818ZM45.9134 36.9773C44.1179 36.9773 43.2997 35.4318 43.2997 33.6818C43.2997 31.9318 44.1179 30.3636 45.9134 30.3636C47.7088 30.3636 48.527 31.9318 48.527 33.6818C48.527 35.4318 47.7088 36.9773 45.9134 36.9773ZM53.6648 34.7273H55.0284V34.6591C55.0511 33.25 55.4148 32.6364 56.4148 32.0114C57.4148 31.4034 58.0057 30.5284 58.0057 29.2727C58.0057 27.5 56.7102 26.2045 54.7102 26.2045C52.8693 26.2045 51.4091 27.3409 51.3239 29.2727H52.7557C52.8409 27.9318 53.7784 27.3864 54.7102 27.3864C55.7784 27.3864 56.642 28.0909 56.642 29.2045C56.642 30.108 56.125 30.7557 55.4602 31.1591C54.3466 31.8352 53.6818 32.4943 53.6648 34.6591V34.7273ZM54.392 38.0909C54.9545 38.0909 55.4148 37.6307 55.4148 37.0682C55.4148 36.5057 54.9545 36.0455 54.392 36.0455C53.8295 36.0455 53.3693 36.5057 53.3693 37.0682C53.3693 37.6307 53.8295 38.0909 54.392 38.0909Z" fill="#1A1A1A"/>
<rect x="-160" y="-206" width="375" height="812" fill="black" fill-opacity="0.5"/>
<rect x="-25" y="-68" width="220" height="104" rx="8" fill="white"/>
<g clip-path="url(#clip0)">
<path d="M12.1427 1.52439L4.3323 1.19016L12.4583 9.83909L12.8722 8.93679L12.8651 2.37134C12.8651 2.37134 12.6836 1.39754 12.5934 1.3796C12.5032 1.36167 12.1427 1.52439 12.1427 1.52439Z" fill="#FEC93B"/>
<path d="M13.5775 10.3427L13.559 9.96391L13.3695 1.48674C13.3513 1.34246 13.3241 1.24329 13.2518 1.13515L13.2608 1.09004C13.2608 1.09004 13.2157 1.08108 13.2247 1.03597L13.1886 0.981902L13.1796 1.027C13.0894 1.00906 12.9992 0.991125 12.8639 0.964217L4.38619 0.684822L4.0164 0.658167C3.64662 0.631513 3.31322 0.893411 3.28656 1.2632C3.31373 1.36237 3.34089 1.46155 3.42212 1.52459L7.62941 5.83086L0.395312 12.9723C0.0980447 13.2883 0.00834926 13.7393 0.279217 14.0276C0.559053 14.2708 0.982912 14.2613 1.32528 13.9543L8.55938 6.81286L12.6944 11.011C12.7756 11.074 12.8569 11.1371 12.9471 11.155C13.2987 11.0374 13.5508 10.7125 13.5775 10.3427ZM9.03578 5.36037L8.96352 5.25223L5.67723 1.97306L11.0347 2.3821L11.9185 2.41722L11.9285 3.31004L12.2229 8.6667L9.03578 5.36037Z" fill="#24292E"/>
</g>
<defs>
<clipPath id="clip0">
<rect width="12.6" height="15.3131" fill="white" transform="translate(2.98633 -1) rotate(11.2478)"/>
</clipPath>
</defs>
</svg>
