<svg width="14" height="20" viewBox="0 0 14 20" fill="none" xmlns="http://www.w3.org/2000/svg">
<rect width="14" height="20" fill="#E5E5E5"/>
<g clip-path="url(#clip0)">
<rect width="375" height="812" transform="translate(-320 -778)" fill="white"/>
<path d="M-295 -41C-291.455 -41 -289.455 -43.2045 -289.455 -46.8409C-289.455 -50.4545 -291.455 -52.6364 -294.841 -52.6364H-298.591V-41H-295ZM-297.182 -42.25V-51.3864H-294.932C-292.205 -51.3864 -290.818 -49.6591 -290.818 -46.8409C-290.818 -44 -292.205 -42.25 -295.091 -42.25H-297.182ZM-285.932 -46.25C-285.932 -47.7727 -284.96 -48.6364 -283.636 -48.6364C-282.375 -48.6364 -281.614 -47.8409 -281.614 -46.4545V-41H-280.273V-46.5455C-280.273 -48.7898 -281.466 -49.8409 -283.25 -49.8409C-284.625 -49.8409 -285.409 -49.267 -285.818 -48.3636H-285.932V-52.6364H-287.273V-41H-285.932V-46.25ZM-277.82 -41H-276.479V-46.5227C-276.479 -47.7045 -275.547 -48.5682 -274.274 -48.5682C-273.916 -48.5682 -273.547 -48.5 -273.456 -48.4773V-49.8409C-273.609 -49.8523 -273.962 -49.8636 -274.161 -49.8636C-275.206 -49.8636 -276.115 -49.2727 -276.433 -48.4091H-276.524V-49.7273H-277.82V-41ZM-271.866 -41H-270.526V-49.7273H-271.866V-41ZM-271.185 -51.1818C-270.662 -51.1818 -270.23 -51.5909 -270.23 -52.0909C-270.23 -52.5909 -270.662 -53 -271.185 -53C-271.707 -53 -272.139 -52.5909 -272.139 -52.0909C-272.139 -51.5909 -271.707 -51.1818 -271.185 -51.1818ZM-264.274 -49.7273H-266.138V-51.8182H-267.479V-49.7273H-268.797V-48.5909H-267.479V-43.1364C-267.479 -41.6136 -266.251 -40.8864 -265.115 -40.8864C-264.615 -40.8864 -264.297 -40.9773 -264.115 -41.0455L-264.388 -42.25C-264.501 -42.2273 -264.683 -42.1818 -264.979 -42.1818C-265.57 -42.1818 -266.138 -42.3636 -266.138 -43.5V-48.5909H-264.274V-49.7273ZM-259.689 -40.7955C-258.166 -40.7955 -257.371 -41.6136 -257.098 -42.1818H-257.03V-41H-255.689V-46.75C-255.689 -49.5227 -257.803 -49.8409 -258.916 -49.8409C-260.234 -49.8409 -261.734 -49.3864 -262.416 -47.7955L-261.143 -47.3409C-260.848 -47.9773 -260.149 -48.6591 -258.871 -48.6591C-257.638 -48.6591 -257.03 -48.0057 -257.03 -46.8864V-46.8409C-257.03 -46.1932 -257.689 -46.25 -259.28 -46.0455C-260.899 -45.8352 -262.666 -45.4773 -262.666 -43.4773C-262.666 -41.7727 -261.348 -40.7955 -259.689 -40.7955ZM-259.484 -42C-260.553 -42 -261.325 -42.4773 -261.325 -43.4091C-261.325 -44.4318 -260.393 -44.75 -259.348 -44.8864C-258.78 -44.9545 -257.257 -45.1136 -257.03 -45.3864V-44.1591C-257.03 -43.0682 -257.893 -42 -259.484 -42ZM-253.241 -41H-251.901V-46.5227C-251.901 -47.7045 -250.969 -48.5682 -249.696 -48.5682C-249.338 -48.5682 -248.969 -48.5 -248.878 -48.4773V-49.8409C-249.031 -49.8523 -249.384 -49.8636 -249.582 -49.8636C-250.628 -49.8636 -251.537 -49.2727 -251.855 -48.4091H-251.946V-49.7273H-253.241V-41ZM-244.72 -40.7955C-243.197 -40.7955 -242.402 -41.6136 -242.129 -42.1818H-242.061V-41H-240.72V-46.75C-240.72 -49.5227 -242.834 -49.8409 -243.947 -49.8409C-245.266 -49.8409 -246.766 -49.3864 -247.447 -47.7955L-246.175 -47.3409C-245.879 -47.9773 -245.18 -48.6591 -243.902 -48.6591C-242.669 -48.6591 -242.061 -48.0057 -242.061 -46.8864V-46.8409C-242.061 -46.1932 -242.72 -46.25 -244.311 -46.0455C-245.93 -45.8352 -247.697 -45.4773 -247.697 -43.4773C-247.697 -41.7727 -246.379 -40.7955 -244.72 -40.7955ZM-244.516 -42C-245.584 -42 -246.357 -42.4773 -246.357 -43.4091C-246.357 -44.4318 -245.425 -44.75 -244.379 -44.8864C-243.811 -44.9545 -242.288 -45.1136 -242.061 -45.3864V-44.1591C-242.061 -43.0682 -242.925 -42 -244.516 -42ZM-232.091 -47.7727C-232.511 -49.0114 -233.455 -49.8409 -235.182 -49.8409C-237.023 -49.8409 -238.386 -48.7955 -238.386 -47.3182C-238.386 -46.1136 -237.67 -45.3068 -236.068 -44.9318L-234.614 -44.5909C-233.733 -44.3864 -233.318 -43.9659 -233.318 -43.3636C-233.318 -42.6136 -234.114 -42 -235.364 -42C-236.46 -42 -237.148 -42.4716 -237.386 -43.4091L-238.659 -43.0909C-238.347 -41.608 -237.125 -40.8182 -235.341 -40.8182C-233.312 -40.8182 -231.932 -41.9261 -231.932 -43.4318C-231.932 -44.6477 -232.693 -45.4148 -234.25 -45.7955L-235.545 -46.1136C-236.58 -46.3693 -237.045 -46.7159 -237.045 -47.3864C-237.045 -48.1364 -236.25 -48.6818 -235.182 -48.6818C-234.011 -48.6818 -233.528 -48.0341 -233.295 -47.4318L-232.091 -47.7727ZM-228.572 -46.25C-228.572 -47.7727 -227.601 -48.6364 -226.277 -48.6364C-225.016 -48.6364 -224.254 -47.8409 -224.254 -46.4545V-41H-222.913V-46.5455C-222.913 -48.7898 -224.107 -49.8409 -225.891 -49.8409C-227.266 -49.8409 -228.05 -49.267 -228.459 -48.3636H-228.572V-52.6364H-229.913V-41H-228.572V-46.25ZM-216.665 -49.7273H-218.528V-51.8182H-219.869V-49.7273H-221.188V-48.5909H-219.869V-43.1364C-219.869 -41.6136 -218.642 -40.8864 -217.506 -40.8864C-217.006 -40.8864 -216.688 -40.9773 -216.506 -41.0455L-216.778 -42.25C-216.892 -42.2273 -217.074 -42.1818 -217.369 -42.1818C-217.96 -42.1818 -218.528 -42.3636 -218.528 -43.5V-48.5909H-216.665V-49.7273ZM-214.648 -41H-213.307V-46.5227C-213.307 -47.7045 -212.375 -48.5682 -211.102 -48.5682C-210.744 -48.5682 -210.375 -48.5 -210.284 -48.4773V-49.8409C-210.438 -49.8523 -210.79 -49.8636 -210.989 -49.8636C-212.034 -49.8636 -212.943 -49.2727 -213.261 -48.4091H-213.352V-49.7273H-214.648V-41ZM-206.126 -40.7955C-204.604 -40.7955 -203.808 -41.6136 -203.536 -42.1818H-203.467V-41H-202.126V-46.75C-202.126 -49.5227 -204.24 -49.8409 -205.354 -49.8409C-206.672 -49.8409 -208.172 -49.3864 -208.854 -47.7955L-207.581 -47.3409C-207.286 -47.9773 -206.587 -48.6591 -205.308 -48.6591C-204.075 -48.6591 -203.467 -48.0057 -203.467 -46.8864V-46.8409C-203.467 -46.1932 -204.126 -46.25 -205.717 -46.0455C-207.337 -45.8352 -209.104 -45.4773 -209.104 -43.4773C-209.104 -41.7727 -207.786 -40.7955 -206.126 -40.7955ZM-205.922 -42C-206.99 -42 -207.763 -42.4773 -207.763 -43.4091C-207.763 -44.4318 -206.831 -44.75 -205.786 -44.8864C-205.217 -44.9545 -203.695 -45.1136 -203.467 -45.3864V-44.1591C-203.467 -43.0682 -204.331 -42 -205.922 -42ZM-188.997 -47.7727C-189.418 -49.0114 -190.361 -49.8409 -192.088 -49.8409C-193.929 -49.8409 -195.293 -48.7955 -195.293 -47.3182C-195.293 -46.1136 -194.577 -45.3068 -192.974 -44.9318L-191.52 -44.5909C-190.639 -44.3864 -190.224 -43.9659 -190.224 -43.3636C-190.224 -42.6136 -191.02 -42 -192.27 -42C-193.366 -42 -194.054 -42.4716 -194.293 -43.4091L-195.565 -43.0909C-195.253 -41.608 -194.031 -40.8182 -192.247 -40.8182C-190.219 -40.8182 -188.838 -41.9261 -188.838 -43.4318C-188.838 -44.6477 -189.599 -45.4148 -191.156 -45.7955L-192.452 -46.1136C-193.486 -46.3693 -193.952 -46.7159 -193.952 -47.3864C-193.952 -48.1364 -193.156 -48.6818 -192.088 -48.6818C-190.918 -48.6818 -190.435 -48.0341 -190.202 -47.4318L-188.997 -47.7727ZM-184.251 -40.7955C-182.729 -40.7955 -181.933 -41.6136 -181.661 -42.1818H-181.592V-41H-180.251V-46.75C-180.251 -49.5227 -182.365 -49.8409 -183.479 -49.8409C-184.797 -49.8409 -186.297 -49.3864 -186.979 -47.7955L-185.706 -47.3409C-185.411 -47.9773 -184.712 -48.6591 -183.433 -48.6591C-182.2 -48.6591 -181.592 -48.0057 -181.592 -46.8864V-46.8409C-181.592 -46.1932 -182.251 -46.25 -183.842 -46.0455C-185.462 -45.8352 -187.229 -45.4773 -187.229 -43.4773C-187.229 -41.7727 -185.911 -40.7955 -184.251 -40.7955ZM-184.047 -42C-185.115 -42 -185.888 -42.4773 -185.888 -43.4091C-185.888 -44.4318 -184.956 -44.75 -183.911 -44.8864C-183.342 -44.9545 -181.82 -45.1136 -181.592 -45.3864V-44.1591C-181.592 -43.0682 -182.456 -42 -184.047 -42ZM-177.804 -41H-176.463V-49.7273H-177.804V-41ZM-177.122 -51.1818C-176.599 -51.1818 -176.168 -51.5909 -176.168 -52.0909C-176.168 -52.5909 -176.599 -53 -177.122 -53C-177.645 -53 -178.077 -52.5909 -178.077 -52.0909C-178.077 -51.5909 -177.645 -51.1818 -177.122 -51.1818ZM-170.712 -40.8182C-169.03 -40.8182 -168.462 -41.8636 -168.166 -42.3409H-168.007V-41H-166.712V-52.6364H-168.053V-48.3409H-168.166C-168.462 -48.7955 -168.984 -49.8409 -170.689 -49.8409C-172.893 -49.8409 -174.416 -48.0909 -174.416 -45.3409C-174.416 -42.5682 -172.893 -40.8182 -170.712 -40.8182ZM-170.53 -42.0227C-172.212 -42.0227 -173.075 -43.5 -173.075 -45.3636C-173.075 -47.2045 -172.234 -48.6364 -170.53 -48.6364C-168.893 -48.6364 -168.03 -47.3182 -168.03 -45.3636C-168.03 -43.3864 -168.916 -42.0227 -170.53 -42.0227ZM-163.092 -40.9091C-162.53 -40.9091 -162.07 -41.3693 -162.07 -41.9318C-162.07 -42.4943 -162.53 -42.9545 -163.092 -42.9545C-163.655 -42.9545 -164.115 -42.4943 -164.115 -41.9318C-164.115 -41.3693 -163.655 -40.9091 -163.092 -40.9091ZM-163.092 -47.3864C-162.53 -47.3864 -162.07 -47.8466 -162.07 -48.4091C-162.07 -48.9716 -162.53 -49.4318 -163.092 -49.4318C-163.655 -49.4318 -164.115 -48.9716 -164.115 -48.4091C-164.115 -47.8466 -163.655 -47.3864 -163.092 -47.3864ZM-145.163 -46.8182C-145.163 -50.5 -147.322 -52.7955 -150.3 -52.7955C-153.277 -52.7955 -155.436 -50.5 -155.436 -46.8182C-155.436 -43.1364 -153.277 -40.8409 -150.3 -40.8409C-147.322 -40.8409 -145.163 -43.1364 -145.163 -46.8182ZM-146.527 -46.8182C-146.527 -43.7955 -148.186 -42.1591 -150.3 -42.1591C-152.413 -42.1591 -154.072 -43.7955 -154.072 -46.8182C-154.072 -49.8409 -152.413 -51.4773 -150.3 -51.4773C-148.186 -51.4773 -146.527 -49.8409 -146.527 -46.8182ZM-131.93 -49.7273H-130.567C-130.629 -51.483 -132.249 -52.7955 -134.499 -52.7955C-136.726 -52.7955 -138.476 -51.5 -138.476 -49.5455C-138.476 -47.9773 -137.339 -47.0455 -135.521 -46.5227L-134.089 -46.1136C-132.862 -45.7727 -131.771 -45.3409 -131.771 -44.1818C-131.771 -42.9091 -132.999 -42.0682 -134.612 -42.0682C-135.999 -42.0682 -137.226 -42.6818 -137.339 -44H-138.794C-138.658 -42.0909 -137.112 -40.7955 -134.612 -40.7955C-131.93 -40.7955 -130.408 -42.2727 -130.408 -44.1591C-130.408 -46.3409 -132.476 -47.0455 -133.68 -47.3636L-134.862 -47.6818C-135.726 -47.9091 -137.112 -48.3636 -137.112 -49.6136C-137.112 -50.7273 -136.089 -51.5455 -134.544 -51.5455C-133.135 -51.5455 -132.067 -50.875 -131.93 -49.7273ZM-125.705 -40.7955C-124.182 -40.7955 -123.386 -41.6136 -123.114 -42.1818H-123.045V-41H-121.705V-46.75C-121.705 -49.5227 -123.818 -49.8409 -124.932 -49.8409C-126.25 -49.8409 -127.75 -49.3864 -128.432 -47.7955L-127.159 -47.3409C-126.864 -47.9773 -126.165 -48.6591 -124.886 -48.6591C-123.653 -48.6591 -123.045 -48.0057 -123.045 -46.8864V-46.8409C-123.045 -46.1932 -123.705 -46.25 -125.295 -46.0455C-126.915 -45.8352 -128.682 -45.4773 -128.682 -43.4773C-128.682 -41.7727 -127.364 -40.7955 -125.705 -40.7955ZM-125.5 -42C-126.568 -42 -127.341 -42.4773 -127.341 -43.4091C-127.341 -44.4318 -126.409 -44.75 -125.364 -44.8864C-124.795 -44.9545 -123.273 -45.1136 -123.045 -45.3864V-44.1591C-123.045 -43.0682 -123.909 -42 -125.5 -42ZM-117.916 -46.25C-117.916 -47.7727 -116.973 -48.6364 -115.689 -48.6364C-114.445 -48.6364 -113.689 -47.8239 -113.689 -46.4545V-41H-112.348V-46.5455C-112.348 -48.7727 -113.536 -49.8409 -115.303 -49.8409C-116.621 -49.8409 -117.439 -49.25 -117.848 -48.3636H-117.962V-49.7273H-119.257V-41H-117.916V-46.25ZM-109.898 -49.7273V-40.3636C-109.898 -39.4773 -110.261 -38.9773 -111.08 -38.9773H-111.33V-37.7273H-111.057C-109.375 -37.7273 -108.557 -38.75 -108.557 -40.3636V-49.7273H-109.898ZM-109.239 -51.1818C-108.716 -51.1818 -108.284 -51.5909 -108.284 -52.0909C-108.284 -52.5909 -108.716 -53 -109.239 -53C-109.761 -53 -110.193 -52.5909 -110.193 -52.0909C-110.193 -51.5909 -109.761 -51.1818 -109.239 -51.1818ZM-103.533 -40.7955C-102.01 -40.7955 -101.214 -41.6136 -100.942 -42.1818H-100.874V-41H-99.5327V-46.75C-99.5327 -49.5227 -101.646 -49.8409 -102.76 -49.8409C-104.078 -49.8409 -105.578 -49.3864 -106.26 -47.7955L-104.987 -47.3409C-104.692 -47.9773 -103.993 -48.6591 -102.714 -48.6591C-101.482 -48.6591 -100.874 -48.0057 -100.874 -46.8864V-46.8409C-100.874 -46.1932 -101.533 -46.25 -103.124 -46.0455C-104.743 -45.8352 -106.51 -45.4773 -106.51 -43.4773C-106.51 -41.7727 -105.192 -40.7955 -103.533 -40.7955ZM-103.328 -42C-104.396 -42 -105.169 -42.4773 -105.169 -43.4091C-105.169 -44.4318 -104.237 -44.75 -103.192 -44.8864C-102.624 -44.9545 -101.101 -45.1136 -100.874 -45.3864V-44.1591C-100.874 -43.0682 -101.737 -42 -103.328 -42ZM-96.5341 -37.7273C-95.3239 -37.7273 -94.4716 -38.3693 -93.9659 -39.7273L-90.25 -49.7045L-91.7159 -49.7273L-94.125 -42.7727H-94.2159L-96.625 -49.7273H-98.0795L-94.8523 -40.9545L-95.1023 -40.2727C-95.5909 -38.9432 -96.1932 -38.8182 -97.1705 -39.0682L-97.5114 -37.8864C-97.375 -37.8182 -96.9886 -37.7273 -96.5341 -37.7273ZM-87.0227 -42.5909H-88.4773L-88.5455 -41.9545C-88.7102 -40.4148 -89.0341 -38.8807 -89.1818 -38.1591H-88.1591C-87.8864 -38.9318 -87.3068 -40.6818 -87.1136 -41.9773L-87.0227 -42.5909ZM-77.4702 -40.7955C-75.9474 -40.7955 -75.152 -41.6136 -74.8793 -42.1818H-74.8111V-41H-73.4702V-46.75C-73.4702 -49.5227 -75.5838 -49.8409 -76.6974 -49.8409C-78.0156 -49.8409 -79.5156 -49.3864 -80.1974 -47.7955L-78.9247 -47.3409C-78.6293 -47.9773 -77.9304 -48.6591 -76.652 -48.6591C-75.419 -48.6591 -74.8111 -48.0057 -74.8111 -46.8864V-46.8409C-74.8111 -46.1932 -75.4702 -46.25 -77.0611 -46.0455C-78.6804 -45.8352 -80.4474 -45.4773 -80.4474 -43.4773C-80.4474 -41.7727 -79.1293 -40.7955 -77.4702 -40.7955ZM-77.2656 -42C-78.3338 -42 -79.1065 -42.4773 -79.1065 -43.4091C-79.1065 -44.4318 -78.1747 -44.75 -77.1293 -44.8864C-76.5611 -44.9545 -75.0384 -45.1136 -74.8111 -45.3864V-44.1591C-74.8111 -43.0682 -75.6747 -42 -77.2656 -42ZM-67.1364 -49.7273H-69.0909V-50.6136C-69.0909 -51.4773 -68.7273 -51.9318 -67.8409 -51.9318C-67.4545 -51.9318 -67.2273 -51.8409 -67.0909 -51.7955L-66.7045 -52.9545C-66.9091 -53.0455 -67.3182 -53.1818 -67.9773 -53.1818C-69.2273 -53.1818 -70.4318 -52.4318 -70.4318 -50.9318V-49.7273H-71.8409V-48.5909H-70.4318V-41H-69.0909V-48.5909H-67.1364V-49.7273ZM-61.4616 -49.7273H-63.3253V-51.8182H-64.6662V-49.7273H-65.9844V-48.5909H-64.6662V-43.1364C-64.6662 -41.6136 -63.4389 -40.8864 -62.3026 -40.8864C-61.8026 -40.8864 -61.4844 -40.9773 -61.3026 -41.0455L-61.5753 -42.25C-61.6889 -42.2273 -61.8707 -42.1818 -62.1662 -42.1818C-62.7571 -42.1818 -63.3253 -42.3636 -63.3253 -43.5V-48.5909H-61.4616V-49.7273ZM-55.8793 -40.8182C-54.1065 -40.8182 -52.8111 -41.7045 -52.402 -43.0227L-53.6974 -43.3864C-54.0384 -42.4773 -54.8281 -42.0227 -55.8793 -42.0227C-57.4531 -42.0227 -58.5384 -43.0398 -58.6009 -44.9091H-52.2656V-45.4773C-52.2656 -48.7273 -54.1974 -49.8409 -56.0156 -49.8409C-58.3793 -49.8409 -59.9474 -47.9773 -59.9474 -45.2955C-59.9474 -42.6136 -58.402 -40.8182 -55.8793 -40.8182ZM-58.6009 -46.0682C-58.5099 -47.4261 -57.5497 -48.6364 -56.0156 -48.6364C-54.5611 -48.6364 -53.6293 -47.5455 -53.6293 -46.0682H-58.6009ZM-50.2259 -41H-48.8849V-46.5227C-48.8849 -47.7045 -47.9531 -48.5682 -46.6804 -48.5682C-46.3224 -48.5682 -45.9531 -48.5 -45.8622 -48.4773V-49.8409C-46.0156 -49.8523 -46.3679 -49.8636 -46.5668 -49.8636C-47.6122 -49.8636 -48.5213 -49.2727 -48.8395 -48.4091H-48.9304V-49.7273H-50.2259V-41ZM-36.25 -37.5455C-34.1591 -37.5455 -32.4773 -38.5 -32.4773 -40.75V-49.7273H-33.7727V-48.3409H-33.9091C-34.2045 -48.7955 -34.75 -49.8409 -36.4545 -49.8409C-38.6591 -49.8409 -40.1818 -48.0909 -40.1818 -45.4091C-40.1818 -42.6818 -38.5909 -41.1364 -36.4773 -41.1364C-34.7727 -41.1364 -34.2273 -42.1364 -33.9318 -42.6136H-33.8182V-40.8409C-33.8182 -39.3864 -34.8409 -38.7273 -36.25 -38.7273C-37.8352 -38.7273 -38.392 -39.5625 -38.75 -40.0455L-39.8182 -39.2955C-39.2727 -38.3807 -38.1989 -37.5455 -36.25 -37.5455ZM-36.2955 -42.3409C-37.9773 -42.3409 -38.8409 -43.6136 -38.8409 -45.4318C-38.8409 -47.2045 -38 -48.6364 -36.2955 -48.6364C-34.6591 -48.6364 -33.7955 -47.3182 -33.7955 -45.4318C-33.7955 -43.5 -34.6818 -42.3409 -36.2955 -42.3409ZM-27.4545 -40.7955C-25.9318 -40.7955 -25.1364 -41.6136 -24.8636 -42.1818H-24.7955V-41H-23.4545V-46.75C-23.4545 -49.5227 -25.5682 -49.8409 -26.6818 -49.8409C-28 -49.8409 -29.5 -49.3864 -30.1818 -47.7955L-28.9091 -47.3409C-28.6136 -47.9773 -27.9148 -48.6591 -26.6364 -48.6591C-25.4034 -48.6591 -24.7955 -48.0057 -24.7955 -46.8864V-46.8409C-24.7955 -46.1932 -25.4545 -46.25 -27.0455 -46.0455C-28.6648 -45.8352 -30.4318 -45.4773 -30.4318 -43.4773C-30.4318 -41.7727 -29.1136 -40.7955 -27.4545 -40.7955ZM-27.25 -42C-28.3182 -42 -29.0909 -42.4773 -29.0909 -43.4091C-29.0909 -44.4318 -28.1591 -44.75 -27.1136 -44.8864C-26.5455 -44.9545 -25.0227 -45.1136 -24.7955 -45.3864V-44.1591C-24.7955 -43.0682 -25.6591 -42 -27.25 -42ZM-17.2116 -49.7273H-19.0753V-51.8182H-20.4162V-49.7273H-21.7344V-48.5909H-20.4162V-43.1364C-20.4162 -41.6136 -19.1889 -40.8864 -18.0526 -40.8864C-17.5526 -40.8864 -17.2344 -40.9773 -17.0526 -41.0455L-17.3253 -42.25C-17.4389 -42.2273 -17.6207 -42.1818 -17.9162 -42.1818C-18.5071 -42.1818 -19.0753 -42.3636 -19.0753 -43.5V-48.5909H-17.2116V-49.7273ZM-13.6662 -46.25C-13.6662 -47.7727 -12.6946 -48.6364 -11.3707 -48.6364C-10.1094 -48.6364 -9.34801 -47.8409 -9.34801 -46.4545V-41H-8.0071V-46.5455C-8.0071 -48.7898 -9.20028 -49.8409 -10.9844 -49.8409C-12.3594 -49.8409 -13.1435 -49.267 -13.5526 -48.3636H-13.6662V-52.6364H-15.0071V-41H-13.6662V-46.25ZM-1.89489 -40.8182C-0.122159 -40.8182 1.1733 -41.7045 1.58239 -43.0227L0.286932 -43.3864C-0.053977 -42.4773 -0.84375 -42.0227 -1.89489 -42.0227C-3.46875 -42.0227 -4.55398 -43.0398 -4.61648 -44.9091H1.71875V-45.4773C1.71875 -48.7273 -0.213068 -49.8409 -2.03125 -49.8409C-4.39489 -49.8409 -5.96307 -47.9773 -5.96307 -45.2955C-5.96307 -42.6136 -4.41761 -40.8182 -1.89489 -40.8182ZM-4.61648 -46.0682C-4.52557 -47.4261 -3.56534 -48.6364 -2.03125 -48.6364C-0.576705 -48.6364 0.355114 -47.5455 0.355114 -46.0682H-4.61648ZM3.75852 -41H5.09943V-46.5227C5.09943 -47.7045 6.03125 -48.5682 7.30398 -48.5682C7.66193 -48.5682 8.03125 -48.5 8.12216 -48.4773V-49.8409C7.96875 -49.8523 7.61648 -49.8636 7.41761 -49.8636C6.37216 -49.8636 5.46307 -49.2727 5.14489 -48.4091H5.05398V-49.7273H3.75852V-41ZM9.71165 -41H11.0526V-49.7273H9.71165V-41ZM10.3935 -51.1818C10.9162 -51.1818 11.348 -51.5909 11.348 -52.0909C11.348 -52.5909 10.9162 -53 10.3935 -53C9.87074 -53 9.43892 -52.5909 9.43892 -52.0909C9.43892 -51.5909 9.87074 -51.1818 10.3935 -51.1818ZM14.8494 -46.25C14.8494 -47.7727 15.7926 -48.6364 17.0767 -48.6364C18.321 -48.6364 19.0767 -47.8239 19.0767 -46.4545V-41H20.4176V-46.5455C20.4176 -48.7727 19.2301 -49.8409 17.4631 -49.8409C16.1449 -49.8409 15.3267 -49.25 14.9176 -48.3636H14.804V-49.7273H13.5085V-41H14.8494V-46.25ZM26.3906 -37.5455C28.4815 -37.5455 30.1634 -38.5 30.1634 -40.75V-49.7273H28.8679V-48.3409H28.7315C28.4361 -48.7955 27.8906 -49.8409 26.1861 -49.8409C23.9815 -49.8409 22.4588 -48.0909 22.4588 -45.4091C22.4588 -42.6818 24.0497 -41.1364 26.1634 -41.1364C27.8679 -41.1364 28.4134 -42.1364 28.7088 -42.6136H28.8224V-40.8409C28.8224 -39.3864 27.7997 -38.7273 26.3906 -38.7273C24.8054 -38.7273 24.2486 -39.5625 23.8906 -40.0455L22.8224 -39.2955C23.3679 -38.3807 24.4418 -37.5455 26.3906 -37.5455ZM26.3452 -42.3409C24.6634 -42.3409 23.7997 -43.6136 23.7997 -45.4318C23.7997 -47.2045 24.6406 -48.6364 26.3452 -48.6364C27.9815 -48.6364 28.8452 -47.3182 28.8452 -45.4318C28.8452 -43.5 27.9588 -42.3409 26.3452 -42.3409ZM-295.227 -16.8182C-292.864 -16.8182 -291.273 -18.6136 -291.273 -21.3182C-291.273 -24.0455 -292.864 -25.8409 -295.227 -25.8409C-297.591 -25.8409 -299.182 -24.0455 -299.182 -21.3182C-299.182 -18.6136 -297.591 -16.8182 -295.227 -16.8182ZM-295.227 -18.0227C-297.023 -18.0227 -297.841 -19.5682 -297.841 -21.3182C-297.841 -23.0682 -297.023 -24.6364 -295.227 -24.6364C-293.432 -24.6364 -292.614 -23.0682 -292.614 -21.3182C-292.614 -19.5682 -293.432 -18.0227 -295.227 -18.0227ZM-287.885 -22.25C-287.885 -23.7727 -286.942 -24.6364 -285.658 -24.6364C-284.413 -24.6364 -283.658 -23.8239 -283.658 -22.4545V-17H-282.317V-22.5455C-282.317 -24.7727 -283.504 -25.8409 -285.271 -25.8409C-286.589 -25.8409 -287.408 -25.25 -287.817 -24.3636H-287.93V-25.7273H-289.226V-17H-287.885V-22.25ZM-271.571 -25.7273H-273.435V-27.8182H-274.776V-25.7273H-276.094V-24.5909H-274.776V-19.1364C-274.776 -17.6136 -273.548 -16.8864 -272.412 -16.8864C-271.912 -16.8864 -271.594 -16.9773 -271.412 -17.0455L-271.685 -18.25C-271.798 -18.2273 -271.98 -18.1818 -272.276 -18.1818C-272.866 -18.1818 -273.435 -18.3636 -273.435 -19.5V-24.5909H-271.571V-25.7273ZM-268.026 -22.25C-268.026 -23.7727 -267.054 -24.6364 -265.73 -24.6364C-264.469 -24.6364 -263.707 -23.8409 -263.707 -22.4545V-17H-262.366V-22.5455C-262.366 -24.7898 -263.56 -25.8409 -265.344 -25.8409C-266.719 -25.8409 -267.503 -25.267 -267.912 -24.3636H-268.026V-28.6364H-269.366V-17H-268.026V-22.25ZM-256.254 -16.8182C-254.482 -16.8182 -253.186 -17.7045 -252.777 -19.0227L-254.072 -19.3864C-254.413 -18.4773 -255.203 -18.0227 -256.254 -18.0227C-257.828 -18.0227 -258.913 -19.0398 -258.976 -20.9091H-252.641V-21.4773C-252.641 -24.7273 -254.572 -25.8409 -256.391 -25.8409C-258.754 -25.8409 -260.322 -23.9773 -260.322 -21.2955C-260.322 -18.6136 -258.777 -16.8182 -256.254 -16.8182ZM-258.976 -22.0682C-258.885 -23.4261 -257.925 -24.6364 -256.391 -24.6364C-254.936 -24.6364 -254.004 -23.5455 -254.004 -22.0682H-258.976ZM-244.76 -22.25C-244.76 -23.7727 -243.788 -24.6364 -242.464 -24.6364C-241.203 -24.6364 -240.442 -23.8409 -240.442 -22.4545V-17H-239.101V-22.5455C-239.101 -24.7898 -240.294 -25.8409 -242.078 -25.8409C-243.453 -25.8409 -244.237 -25.267 -244.646 -24.3636H-244.76V-28.6364H-246.101V-17H-244.76V-22.25ZM-233.102 -16.8182C-230.739 -16.8182 -229.148 -18.6136 -229.148 -21.3182C-229.148 -24.0455 -230.739 -25.8409 -233.102 -25.8409C-235.466 -25.8409 -237.057 -24.0455 -237.057 -21.3182C-237.057 -18.6136 -235.466 -16.8182 -233.102 -16.8182ZM-233.102 -18.0227C-234.898 -18.0227 -235.716 -19.5682 -235.716 -21.3182C-235.716 -23.0682 -234.898 -24.6364 -233.102 -24.6364C-231.307 -24.6364 -230.489 -23.0682 -230.489 -21.3182C-230.489 -19.5682 -231.307 -18.0227 -233.102 -18.0227ZM-225.76 -28.6364H-227.101V-17H-225.76V-28.6364ZM-222.44 -13.7273C-221.23 -13.7273 -220.378 -14.3693 -219.872 -15.7273L-216.156 -25.7045L-217.622 -25.7273L-220.031 -18.7727H-220.122L-222.531 -25.7273H-223.986L-220.759 -16.9545L-221.009 -16.2727C-221.497 -14.9432 -222.099 -14.8182 -223.077 -15.0682L-223.418 -13.8864C-223.281 -13.8182 -222.895 -13.7273 -222.44 -13.7273ZM-205.996 -25.7273H-207.95V-26.6136C-207.95 -27.4773 -207.587 -27.9318 -206.7 -27.9318C-206.314 -27.9318 -206.087 -27.8409 -205.95 -27.7955L-205.564 -28.9545C-205.768 -29.0455 -206.178 -29.1818 -206.837 -29.1818C-208.087 -29.1818 -209.291 -28.4318 -209.291 -26.9318V-25.7273H-210.7V-24.5909H-209.291V-17H-207.95V-24.5909H-205.996V-25.7273ZM-204.116 -17H-202.776V-25.7273H-204.116V-17ZM-203.435 -27.1818C-202.912 -27.1818 -202.48 -27.5909 -202.48 -28.0909C-202.48 -28.5909 -202.912 -29 -203.435 -29C-203.957 -29 -204.389 -28.5909 -204.389 -28.0909C-204.389 -27.5909 -203.957 -27.1818 -203.435 -27.1818ZM-196.661 -16.8182C-194.888 -16.8182 -193.592 -17.7045 -193.183 -19.0227L-194.479 -19.3864C-194.82 -18.4773 -195.609 -18.0227 -196.661 -18.0227C-198.234 -18.0227 -199.32 -19.0398 -199.382 -20.9091H-193.047V-21.4773C-193.047 -24.7273 -194.979 -25.8409 -196.797 -25.8409C-199.161 -25.8409 -200.729 -23.9773 -200.729 -21.2955C-200.729 -18.6136 -199.183 -16.8182 -196.661 -16.8182ZM-199.382 -22.0682C-199.291 -23.4261 -198.331 -24.6364 -196.797 -24.6364C-195.342 -24.6364 -194.411 -23.5455 -194.411 -22.0682H-199.382ZM-189.666 -28.6364H-191.007V-17H-189.666V-28.6364ZM-183.915 -16.8182C-182.233 -16.8182 -181.665 -17.8636 -181.369 -18.3409H-181.21V-17H-179.915V-28.6364H-181.256V-24.3409H-181.369C-181.665 -24.7955 -182.188 -25.8409 -183.892 -25.8409C-186.097 -25.8409 -187.619 -24.0909 -187.619 -21.3409C-187.619 -18.5682 -186.097 -16.8182 -183.915 -16.8182ZM-183.733 -18.0227C-185.415 -18.0227 -186.278 -19.5 -186.278 -21.3636C-186.278 -23.2045 -185.438 -24.6364 -183.733 -24.6364C-182.097 -24.6364 -181.233 -23.3182 -181.233 -21.3636C-181.233 -19.3864 -182.119 -18.0227 -183.733 -18.0227ZM-169.227 -16.8182C-166.864 -16.8182 -165.273 -18.6136 -165.273 -21.3182C-165.273 -24.0455 -166.864 -25.8409 -169.227 -25.8409C-171.591 -25.8409 -173.182 -24.0455 -173.182 -21.3182C-173.182 -18.6136 -171.591 -16.8182 -169.227 -16.8182ZM-169.227 -18.0227C-171.023 -18.0227 -171.841 -19.5682 -171.841 -21.3182C-171.841 -23.0682 -171.023 -24.6364 -169.227 -24.6364C-167.432 -24.6364 -166.614 -23.0682 -166.614 -21.3182C-166.614 -19.5682 -167.432 -18.0227 -169.227 -18.0227ZM-159.339 -25.7273H-161.294V-26.6136C-161.294 -27.4773 -160.93 -27.9318 -160.044 -27.9318C-159.658 -27.9318 -159.43 -27.8409 -159.294 -27.7955L-158.908 -28.9545C-159.112 -29.0455 -159.521 -29.1818 -160.18 -29.1818C-161.43 -29.1818 -162.635 -28.4318 -162.635 -26.9318V-25.7273H-164.044V-24.5909H-162.635V-17H-161.294V-24.5909H-159.339V-25.7273ZM-152.778 -17H-151.369V-20.7727L-149.915 -22.4091L-145.869 -17H-144.165L-149.051 -23.3864L-144.165 -28.6364H-146.006L-151.233 -22.8636H-151.369V-28.6364H-152.778V-17ZM-137.57 -20.5682C-137.57 -18.9318 -138.82 -18.1818 -139.82 -18.1818C-140.933 -18.1818 -141.729 -19 -141.729 -20.2727V-25.7273H-143.07V-20.1818C-143.07 -17.9545 -141.888 -16.8864 -140.251 -16.8864C-138.933 -16.8864 -138.07 -17.5909 -137.661 -18.4773H-137.57V-17H-136.229V-25.7273H-137.57V-20.5682ZM-133.773 -17H-132.432V-22.5227C-132.432 -23.7045 -131.5 -24.5682 -130.227 -24.5682C-129.869 -24.5682 -129.5 -24.5 -129.409 -24.4773V-25.8409C-129.562 -25.8523 -129.915 -25.8636 -130.114 -25.8636C-131.159 -25.8636 -132.068 -25.2727 -132.386 -24.4091H-132.477V-25.7273H-133.773V-17ZM-122.32 -20.5682C-122.32 -18.9318 -123.57 -18.1818 -124.57 -18.1818C-125.683 -18.1818 -126.479 -19 -126.479 -20.2727V-25.7273H-127.82V-20.1818C-127.82 -17.9545 -126.638 -16.8864 -125.001 -16.8864C-123.683 -16.8864 -122.82 -17.5909 -122.411 -18.4773H-122.32V-17H-120.979V-25.7273H-122.32V-20.5682ZM-118.523 -17H-117.182V-20.267L-116.244 -21.1364L-112.977 -17H-111.273L-115.233 -22L-111.545 -25.7273H-113.205L-117.023 -21.8409H-117.182V-28.6364H-118.523V-17ZM-103.638 -23.7727C-104.058 -25.0114 -105.001 -25.8409 -106.729 -25.8409C-108.57 -25.8409 -109.933 -24.7955 -109.933 -23.3182C-109.933 -22.1136 -109.217 -21.3068 -107.615 -20.9318L-106.161 -20.5909C-105.28 -20.3864 -104.865 -19.9659 -104.865 -19.3636C-104.865 -18.6136 -105.661 -18 -106.911 -18C-108.007 -18 -108.695 -18.4716 -108.933 -19.4091L-110.206 -19.0909C-109.893 -17.608 -108.672 -16.8182 -106.888 -16.8182C-104.859 -16.8182 -103.479 -17.9261 -103.479 -19.4318C-103.479 -20.6477 -104.24 -21.4148 -105.797 -21.7955L-107.092 -22.1136C-108.126 -22.3693 -108.592 -22.7159 -108.592 -23.3864C-108.592 -24.1364 -107.797 -24.6818 -106.729 -24.6818C-105.558 -24.6818 -105.075 -24.0341 -104.842 -23.4318L-103.638 -23.7727ZM-100.119 -22.25C-100.119 -23.7727 -99.1477 -24.6364 -97.8239 -24.6364C-96.5625 -24.6364 -95.8011 -23.8409 -95.8011 -22.4545V-17H-94.4602V-22.5455C-94.4602 -24.7898 -95.6534 -25.8409 -97.4375 -25.8409C-98.8125 -25.8409 -99.5966 -25.267 -100.006 -24.3636H-100.119V-28.6364H-101.46V-17H-100.119V-22.25ZM-88.348 -16.8182C-86.5753 -16.8182 -85.2798 -17.7045 -84.8707 -19.0227L-86.1662 -19.3864C-86.5071 -18.4773 -87.2969 -18.0227 -88.348 -18.0227C-89.9219 -18.0227 -91.0071 -19.0398 -91.0696 -20.9091H-84.7344V-21.4773C-84.7344 -24.7273 -86.6662 -25.8409 -88.4844 -25.8409C-90.848 -25.8409 -92.4162 -23.9773 -92.4162 -21.2955C-92.4162 -18.6136 -90.8707 -16.8182 -88.348 -16.8182ZM-91.0696 -22.0682C-90.9787 -23.4261 -90.0185 -24.6364 -88.4844 -24.6364C-87.0298 -24.6364 -86.098 -23.5455 -86.098 -22.0682H-91.0696ZM-78.8991 -25.7273H-80.7628V-27.8182H-82.1037V-25.7273H-83.4219V-24.5909H-82.1037V-19.1364C-82.1037 -17.6136 -80.8764 -16.8864 -79.7401 -16.8864C-79.2401 -16.8864 -78.9219 -16.9773 -78.7401 -17.0455L-79.0128 -18.25C-79.1264 -18.2273 -79.3082 -18.1818 -79.6037 -18.1818C-80.1946 -18.1818 -80.7628 -18.3636 -80.7628 -19.5V-24.5909H-78.8991V-25.7273ZM-76.8821 -17H-75.5412V-22.5227C-75.5412 -23.7045 -74.6094 -24.5682 -73.3366 -24.5682C-72.9787 -24.5682 -72.6094 -24.5 -72.5185 -24.4773V-25.8409C-72.6719 -25.8523 -73.0241 -25.8636 -73.223 -25.8636C-74.2685 -25.8636 -75.1776 -25.2727 -75.4957 -24.4091H-75.5866V-25.7273H-76.8821V-17ZM-68.3608 -16.7955C-66.8381 -16.7955 -66.0426 -17.6136 -65.7699 -18.1818H-65.7017V-17H-64.3608V-22.75C-64.3608 -25.5227 -66.4744 -25.8409 -67.5881 -25.8409C-68.9062 -25.8409 -70.4062 -25.3864 -71.0881 -23.7955L-69.8153 -23.3409C-69.5199 -23.9773 -68.821 -24.6591 -67.5426 -24.6591C-66.3097 -24.6591 -65.7017 -24.0057 -65.7017 -22.8864V-22.8409C-65.7017 -22.1932 -66.3608 -22.25 -67.9517 -22.0455C-69.571 -21.8352 -71.3381 -21.4773 -71.3381 -19.4773C-71.3381 -17.7727 -70.0199 -16.7955 -68.3608 -16.7955ZM-68.1562 -18C-69.2244 -18 -69.9972 -18.4773 -69.9972 -19.4091C-69.9972 -20.4318 -69.0653 -20.75 -68.0199 -20.8864C-67.4517 -20.9545 -65.929 -21.1136 -65.7017 -21.3864V-20.1591C-65.7017 -19.0682 -66.5653 -18 -68.1562 -18ZM-59.9134 -18.5909H-61.3679L-61.4361 -17.9545C-61.6009 -16.4148 -61.9247 -14.8807 -62.0724 -14.1591H-61.0497C-60.777 -14.9318 -60.1974 -16.6818 -60.0043 -17.9773L-59.9134 -18.5909ZM-50.3608 -16.7955C-48.8381 -16.7955 -48.0426 -17.6136 -47.7699 -18.1818H-47.7017V-17H-46.3608V-22.75C-46.3608 -25.5227 -48.4744 -25.8409 -49.5881 -25.8409C-50.9062 -25.8409 -52.4062 -25.3864 -53.0881 -23.7955L-51.8153 -23.3409C-51.5199 -23.9773 -50.821 -24.6591 -49.5426 -24.6591C-48.3097 -24.6591 -47.7017 -24.0057 -47.7017 -22.8864V-22.8409C-47.7017 -22.1932 -48.3608 -22.25 -49.9517 -22.0455C-51.571 -21.8352 -53.3381 -21.4773 -53.3381 -19.4773C-53.3381 -17.7727 -52.0199 -16.7955 -50.3608 -16.7955ZM-50.1562 -18C-51.2244 -18 -51.9972 -18.4773 -51.9972 -19.4091C-51.9972 -20.4318 -51.0653 -20.75 -50.0199 -20.8864C-49.4517 -20.9545 -47.929 -21.1136 -47.7017 -21.3864V-20.1591C-47.7017 -19.0682 -48.5653 -18 -50.1562 -18ZM-42.5724 -22.25C-42.5724 -23.7727 -41.6293 -24.6364 -40.3452 -24.6364C-39.1009 -24.6364 -38.3452 -23.8239 -38.3452 -22.4545V-17H-37.0043V-22.5455C-37.0043 -24.7727 -38.1918 -25.8409 -39.9588 -25.8409C-41.277 -25.8409 -42.0952 -25.25 -42.5043 -24.3636H-42.6179V-25.7273H-43.9134V-17H-42.5724V-22.25ZM-31.2585 -16.8182C-29.5767 -16.8182 -29.0085 -17.8636 -28.7131 -18.3409H-28.554V-17H-27.2585V-28.6364H-28.5994V-24.3409H-28.7131C-29.0085 -24.7955 -29.5312 -25.8409 -31.2358 -25.8409C-33.4403 -25.8409 -34.9631 -24.0909 -34.9631 -21.3409C-34.9631 -18.5682 -33.4403 -16.8182 -31.2585 -16.8182ZM-31.0767 -18.0227C-32.7585 -18.0227 -33.6222 -19.5 -33.6222 -21.3636C-33.6222 -23.2045 -32.7812 -24.6364 -31.0767 -24.6364C-29.4403 -24.6364 -28.5767 -23.3182 -28.5767 -21.3636C-28.5767 -19.3864 -29.4631 -18.0227 -31.0767 -18.0227ZM-295.477 7.18182C-293.795 7.18182 -293.227 6.13636 -292.932 5.65909H-292.773V7H-291.477V-4.63636H-292.818V-0.340909H-292.932C-293.227 -0.795455 -293.75 -1.84091 -295.455 -1.84091C-297.659 -1.84091 -299.182 -0.0909095 -299.182 2.65909C-299.182 5.43182 -297.659 7.18182 -295.477 7.18182ZM-295.295 5.97727C-296.977 5.97727 -297.841 4.5 -297.841 2.63636C-297.841 0.795455 -297 -0.636364 -295.295 -0.636364C-293.659 -0.636364 -292.795 0.681818 -292.795 2.63636C-292.795 4.61364 -293.682 5.97727 -295.295 5.97727ZM-285.176 7.18182C-283.403 7.18182 -282.108 6.29545 -281.699 4.97727L-282.994 4.61364C-283.335 5.52273 -284.125 5.97727 -285.176 5.97727C-286.75 5.97727 -287.835 4.96023 -287.898 3.09091H-281.562V2.52273C-281.562 -0.727273 -283.494 -1.84091 -285.312 -1.84091C-287.676 -1.84091 -289.244 0.022727 -289.244 2.70455C-289.244 5.38636 -287.699 7.18182 -285.176 7.18182ZM-287.898 1.93182C-287.807 0.573864 -286.847 -0.636364 -285.312 -0.636364C-283.858 -0.636364 -282.926 0.454545 -282.926 1.93182H-287.898ZM-273.341 0.227273C-273.761 -1.01136 -274.705 -1.84091 -276.432 -1.84091C-278.273 -1.84091 -279.636 -0.795455 -279.636 0.681818C-279.636 1.88636 -278.92 2.69318 -277.318 3.06818L-275.864 3.40909C-274.983 3.61364 -274.568 4.03409 -274.568 4.63636C-274.568 5.38636 -275.364 6 -276.614 6C-277.71 6 -278.398 5.52841 -278.636 4.59091L-279.909 4.90909C-279.597 6.39205 -278.375 7.18182 -276.591 7.18182C-274.562 7.18182 -273.182 6.07386 -273.182 4.56818C-273.182 3.35227 -273.943 2.58523 -275.5 2.20455L-276.795 1.88636C-277.83 1.63068 -278.295 1.28409 -278.295 0.613636C-278.295 -0.136364 -277.5 -0.681818 -276.432 -0.681818C-275.261 -0.681818 -274.778 -0.034091 -274.545 0.568182L-273.341 0.227273ZM-271.163 7H-269.822V-1.72727H-271.163V7ZM-270.482 -3.18182C-269.959 -3.18182 -269.527 -3.59091 -269.527 -4.09091C-269.527 -4.59091 -269.959 -5 -270.482 -5C-271.004 -5 -271.436 -4.59091 -271.436 -4.09091C-271.436 -3.59091 -271.004 -3.18182 -270.482 -3.18182ZM-267.366 7H-266.026V1.47727C-266.026 0.295455 -265.094 -0.568182 -263.821 -0.568182C-263.463 -0.568182 -263.094 -0.5 -263.003 -0.477273V-1.84091C-263.156 -1.85227 -263.509 -1.86364 -263.707 -1.86364C-264.753 -1.86364 -265.662 -1.27273 -265.98 -0.409091H-266.071V-1.72727H-267.366V7ZM-261.413 7H-260.072V-1.72727H-261.413V7ZM-260.732 -3.18182C-260.209 -3.18182 -259.777 -3.59091 -259.777 -4.09091C-259.777 -4.59091 -260.209 -5 -260.732 -5C-261.254 -5 -261.686 -4.59091 -261.686 -4.09091C-261.686 -3.59091 -261.254 -3.18182 -260.732 -3.18182ZM-256.276 1.75C-256.276 0.227273 -255.332 -0.636364 -254.048 -0.636364C-252.804 -0.636364 -252.048 0.176136 -252.048 1.54545V7H-250.707V1.45455C-250.707 -0.772727 -251.895 -1.84091 -253.662 -1.84091C-254.98 -1.84091 -255.798 -1.25 -256.207 -0.363636H-256.321V-1.72727H-257.616V7H-256.276V1.75ZM-244.734 10.4545C-242.643 10.4545 -240.962 9.5 -240.962 7.25V-1.72727H-242.257V-0.340909H-242.393C-242.689 -0.795455 -243.234 -1.84091 -244.939 -1.84091C-247.143 -1.84091 -248.666 -0.0909095 -248.666 2.59091C-248.666 5.31818 -247.075 6.86364 -244.962 6.86364C-243.257 6.86364 -242.712 5.86364 -242.416 5.38636H-242.303V7.15909C-242.303 8.61364 -243.325 9.27273 -244.734 9.27273C-246.32 9.27273 -246.876 8.4375 -247.234 7.95455L-248.303 8.70455C-247.757 9.61932 -246.683 10.4545 -244.734 10.4545ZM-244.78 5.65909C-246.462 5.65909 -247.325 4.38636 -247.325 2.56818C-247.325 0.795455 -246.484 -0.636364 -244.78 -0.636364C-243.143 -0.636364 -242.28 0.681818 -242.28 2.56818C-242.28 4.5 -243.166 5.65909 -244.78 5.65909ZM-230.212 -1.72727H-232.075V-3.81818H-233.416V-1.72727H-234.734V-0.590909H-233.416V4.86364C-233.416 6.38636 -232.189 7.11364 -231.053 7.11364C-230.553 7.11364 -230.234 7.02273 -230.053 6.95455L-230.325 5.75C-230.439 5.77273 -230.621 5.81818 -230.916 5.81818C-231.507 5.81818 -232.075 5.63636 -232.075 4.5V-0.590909H-230.212V-1.72727ZM-224.743 7.18182C-222.379 7.18182 -220.788 5.38636 -220.788 2.68182C-220.788 -0.045455 -222.379 -1.84091 -224.743 -1.84091C-227.107 -1.84091 -228.697 -0.045455 -228.697 2.68182C-228.697 5.38636 -227.107 7.18182 -224.743 7.18182ZM-224.743 5.97727C-226.538 5.97727 -227.357 4.43182 -227.357 2.68182C-227.357 0.931818 -226.538 -0.636364 -224.743 -0.636364C-222.947 -0.636364 -222.129 0.931818 -222.129 2.68182C-222.129 4.43182 -222.947 5.97727 -224.743 5.97727ZM-210.355 -1.72727H-212.31V-2.61364C-212.31 -3.47727 -211.946 -3.93182 -211.06 -3.93182C-210.673 -3.93182 -210.446 -3.84091 -210.31 -3.79545L-209.923 -4.95455C-210.128 -5.04545 -210.537 -5.18182 -211.196 -5.18182C-212.446 -5.18182 -213.651 -4.43182 -213.651 -2.93182V-1.72727H-215.06V-0.590909H-213.651V7H-212.31V-0.590909H-210.355V-1.72727ZM-208.476 7H-207.135V-1.72727H-208.476V7ZM-207.794 -3.18182C-207.271 -3.18182 -206.839 -3.59091 -206.839 -4.09091C-206.839 -4.59091 -207.271 -5 -207.794 -5C-208.317 -5 -208.749 -4.59091 -208.749 -4.09091C-208.749 -3.59091 -208.317 -3.18182 -207.794 -3.18182ZM-201.156 10.4545C-199.065 10.4545 -197.384 9.5 -197.384 7.25V-1.72727H-198.679V-0.340909H-198.815C-199.111 -0.795455 -199.656 -1.84091 -201.361 -1.84091C-203.565 -1.84091 -205.088 -0.0909095 -205.088 2.59091C-205.088 5.31818 -203.497 6.86364 -201.384 6.86364C-199.679 6.86364 -199.134 5.86364 -198.838 5.38636H-198.724V7.15909C-198.724 8.61364 -199.747 9.27273 -201.156 9.27273C-202.741 9.27273 -203.298 8.4375 -203.656 7.95455L-204.724 8.70455C-204.179 9.61932 -203.105 10.4545 -201.156 10.4545ZM-201.202 5.65909C-202.884 5.65909 -203.747 4.38636 -203.747 2.56818C-203.747 0.795455 -202.906 -0.636364 -201.202 -0.636364C-199.565 -0.636364 -198.702 0.681818 -198.702 2.56818C-198.702 4.5 -199.588 5.65909 -201.202 5.65909ZM-193.588 1.75C-193.588 0.227273 -192.616 -0.636364 -191.293 -0.636364C-190.031 -0.636364 -189.27 0.159091 -189.27 1.54545V7H-187.929V1.45455C-187.929 -0.789773 -189.122 -1.84091 -190.906 -1.84091C-192.281 -1.84091 -193.065 -1.26705 -193.474 -0.363636H-193.588V-4.63636H-194.929V7H-193.588V1.75ZM-181.68 -1.72727H-183.544V-3.81818H-184.885V-1.72727H-186.203V-0.590909H-184.885V4.86364C-184.885 6.38636 -183.658 7.11364 -182.521 7.11364C-182.021 7.11364 -181.703 7.02273 -181.521 6.95455L-181.794 5.75C-181.908 5.77273 -182.089 5.81818 -182.385 5.81818C-182.976 5.81818 -183.544 5.63636 -183.544 4.5V-0.590909H-181.68V-1.72727ZM-177.663 5.40909H-179.118L-179.186 6.04545C-179.351 7.58523 -179.675 9.11932 -179.822 9.84091H-178.8C-178.527 9.06818 -177.947 7.31818 -177.754 6.02273L-177.663 5.40909ZM-168.702 7H-167.384L-165.474 0.295455H-165.338L-163.429 7H-162.111L-159.452 -1.72727H-160.861L-162.747 4.93182H-162.838L-164.679 -1.72727H-166.111L-167.974 4.95455H-168.065L-169.952 -1.72727H-171.361L-168.702 7ZM-156.338 1.75C-156.338 0.227273 -155.366 -0.636364 -154.043 -0.636364C-152.781 -0.636364 -152.02 0.159091 -152.02 1.54545V7H-150.679V1.45455C-150.679 -0.789773 -151.872 -1.84091 -153.656 -1.84091C-155.031 -1.84091 -155.815 -1.26705 -156.224 -0.363636H-156.338V-4.63636H-157.679V7H-156.338V1.75ZM-145.658 7.20455C-144.135 7.20455 -143.339 6.38636 -143.067 5.81818H-142.999V7H-141.658V1.25C-141.658 -1.52273 -143.771 -1.84091 -144.885 -1.84091C-146.203 -1.84091 -147.703 -1.38636 -148.385 0.204545L-147.112 0.659091C-146.817 0.022727 -146.118 -0.659091 -144.839 -0.659091C-143.607 -0.659091 -142.999 -0.00568199 -142.999 1.11364V1.15909C-142.999 1.80682 -143.658 1.75 -145.249 1.95455C-146.868 2.16477 -148.635 2.52273 -148.635 4.52273C-148.635 6.22727 -147.317 7.20455 -145.658 7.20455ZM-145.453 6C-146.521 6 -147.294 5.52273 -147.294 4.59091C-147.294 3.56818 -146.362 3.25 -145.317 3.11364C-144.749 3.04545 -143.226 2.88636 -142.999 2.61364V3.84091C-142.999 4.93182 -143.862 6 -145.453 6ZM-135.415 -1.72727H-137.278V-3.81818H-138.619V-1.72727H-139.938V-0.590909H-138.619V4.86364C-138.619 6.38636 -137.392 7.11364 -136.256 7.11364C-135.756 7.11364 -135.438 7.02273 -135.256 6.95455L-135.528 5.75C-135.642 5.77273 -135.824 5.81818 -136.119 5.81818C-136.71 5.81818 -137.278 5.63636 -137.278 4.5V-0.590909H-135.415V-1.72727ZM-125.602 7.18182C-123.92 7.18182 -123.352 6.13636 -123.057 5.65909H-122.898V7H-121.602V-4.63636H-122.943V-0.340909H-123.057C-123.352 -0.795455 -123.875 -1.84091 -125.58 -1.84091C-127.784 -1.84091 -129.307 -0.0909095 -129.307 2.65909C-129.307 5.43182 -127.784 7.18182 -125.602 7.18182ZM-125.42 5.97727C-127.102 5.97727 -127.966 4.5 -127.966 2.63636C-127.966 0.795455 -127.125 -0.636364 -125.42 -0.636364C-123.784 -0.636364 -122.92 0.681818 -122.92 2.63636C-122.92 4.61364 -123.807 5.97727 -125.42 5.97727ZM-118.96 7H-117.619V-1.72727H-118.96V7ZM-118.278 -3.18182C-117.756 -3.18182 -117.324 -3.59091 -117.324 -4.09091C-117.324 -4.59091 -117.756 -5 -118.278 -5C-118.801 -5 -119.233 -4.59091 -119.233 -4.09091C-119.233 -3.59091 -118.801 -3.18182 -118.278 -3.18182ZM-111.868 7.18182C-110.186 7.18182 -109.618 6.13636 -109.322 5.65909H-109.163V7H-107.868V-4.63636H-109.209V-0.340909H-109.322C-109.618 -0.795455 -110.141 -1.84091 -111.845 -1.84091C-114.05 -1.84091 -115.572 -0.0909095 -115.572 2.65909C-115.572 5.43182 -114.05 7.18182 -111.868 7.18182ZM-111.686 5.97727C-113.368 5.97727 -114.232 4.5 -114.232 2.63636C-114.232 0.795455 -113.391 -0.636364 -111.686 -0.636364C-110.05 -0.636364 -109.186 0.681818 -109.186 2.63636C-109.186 4.61364 -110.072 5.97727 -111.686 5.97727ZM-100.726 7H-99.3849V1.54545C-99.3849 0.267045 -98.4531 -0.636364 -97.4077 -0.636364C-96.3906 -0.636364 -95.6804 0.028409 -95.6804 1.02273V7H-94.3168V1.31818C-94.3168 0.193182 -93.6122 -0.636364 -92.3849 -0.636364C-91.4304 -0.636364 -90.6122 -0.130682 -90.6122 1.15909V7H-89.2713V1.15909C-89.2713 -0.892045 -90.3736 -1.84091 -91.9304 -1.84091C-93.1804 -1.84091 -94.0952 -1.26705 -94.544 -0.363636H-94.6349C-95.0668 -1.29545 -95.8281 -1.84091 -96.9759 -1.84091C-98.1122 -1.84091 -98.9531 -1.29545 -99.3168 -0.363636H-99.4304V-1.72727H-100.726V7ZM-86.2685 10.2727C-85.0582 10.2727 -84.206 9.63068 -83.7003 8.27273L-79.9844 -1.70455L-81.4503 -1.72727L-83.8594 5.22727H-83.9503L-86.3594 -1.72727H-87.8139L-84.5866 7.04545L-84.8366 7.72727C-85.3253 9.05682 -85.9276 9.18182 -86.9048 8.93182L-87.2457 10.1136C-87.1094 10.1818 -86.723 10.2727 -86.2685 10.2727ZM-67.5284 0.227273C-67.9489 -1.01136 -68.892 -1.84091 -70.6193 -1.84091C-72.4602 -1.84091 -73.8239 -0.795455 -73.8239 0.681818C-73.8239 1.88636 -73.108 2.69318 -71.5057 3.06818L-70.0511 3.40909C-69.1705 3.61364 -68.7557 4.03409 -68.7557 4.63636C-68.7557 5.38636 -69.5511 6 -70.8011 6C-71.8977 6 -72.5852 5.52841 -72.8239 4.59091L-74.0966 4.90909C-73.7841 6.39205 -72.5625 7.18182 -70.7784 7.18182C-68.75 7.18182 -67.3693 6.07386 -67.3693 4.56818C-67.3693 3.35227 -68.1307 2.58523 -69.6875 2.20455L-70.983 1.88636C-72.017 1.63068 -72.483 1.28409 -72.483 0.613636C-72.483 -0.136364 -71.6875 -0.681818 -70.6193 -0.681818C-69.4489 -0.681818 -68.9659 -0.034091 -68.733 0.568182L-67.5284 0.227273ZM-61.8054 7.18182C-59.4418 7.18182 -57.8509 5.38636 -57.8509 2.68182C-57.8509 -0.045455 -59.4418 -1.84091 -61.8054 -1.84091C-64.169 -1.84091 -65.7599 -0.045455 -65.7599 2.68182C-65.7599 5.38636 -64.169 7.18182 -61.8054 7.18182ZM-61.8054 5.97727C-63.6009 5.97727 -64.419 4.43182 -64.419 2.68182C-64.419 0.931818 -63.6009 -0.636364 -61.8054 -0.636364C-60.0099 -0.636364 -59.1918 0.931818 -59.1918 2.68182C-59.1918 4.43182 -60.0099 5.97727 -61.8054 5.97727ZM-54.4631 1.75C-54.4631 0.227273 -53.5199 -0.636364 -52.2358 -0.636364C-50.9915 -0.636364 -50.2358 0.176136 -50.2358 1.54545V7H-48.8949V1.45455C-48.8949 -0.772727 -50.0824 -1.84091 -51.8494 -1.84091C-53.1676 -1.84091 -53.9858 -1.25 -54.3949 -0.363636H-54.5085V-1.72727H-55.804V7H-54.4631V1.75ZM-40.2628 0.227273C-40.6832 -1.01136 -41.6264 -1.84091 -43.3537 -1.84091C-45.1946 -1.84091 -46.5582 -0.795455 -46.5582 0.681818C-46.5582 1.88636 -45.8423 2.69318 -44.2401 3.06818L-42.7855 3.40909C-41.9048 3.61364 -41.4901 4.03409 -41.4901 4.63636C-41.4901 5.38636 -42.2855 6 -43.5355 6C-44.6321 6 -45.3196 5.52841 -45.5582 4.59091L-46.831 4.90909C-46.5185 6.39205 -45.2969 7.18182 -43.5128 7.18182C-41.4844 7.18182 -40.1037 6.07386 -40.1037 4.56818C-40.1037 3.35227 -40.8651 2.58523 -42.4219 2.20455L-43.7173 1.88636C-44.7514 1.63068 -45.2173 1.28409 -45.2173 0.613636C-45.2173 -0.136364 -44.4219 -0.681818 -43.3537 -0.681818C-42.1832 -0.681818 -41.7003 -0.034091 -41.4673 0.568182L-40.2628 0.227273ZM-31.017 7.20455C-29.4943 7.20455 -28.6989 6.38636 -28.4261 5.81818H-28.358V7H-27.017V1.25C-27.017 -1.52273 -29.1307 -1.84091 -30.2443 -1.84091C-31.5625 -1.84091 -33.0625 -1.38636 -33.7443 0.204545L-32.4716 0.659091C-32.1761 0.022727 -31.4773 -0.659091 -30.1989 -0.659091C-28.9659 -0.659091 -28.358 -0.00568199 -28.358 1.11364V1.15909C-28.358 1.80682 -29.017 1.75 -30.608 1.95455C-32.2273 2.16477 -33.9943 2.52273 -33.9943 4.52273C-33.9943 6.22727 -32.6761 7.20455 -31.017 7.20455ZM-30.8125 6C-31.8807 6 -32.6534 5.52273 -32.6534 4.59091C-32.6534 3.56818 -31.7216 3.25 -30.6761 3.11364C-30.108 3.04545 -28.5852 2.88636 -28.358 2.61364V3.84091C-28.358 4.93182 -29.2216 6 -30.8125 6ZM-23.2287 1.75C-23.2287 0.227273 -22.2855 -0.636364 -21.0014 -0.636364C-19.7571 -0.636364 -19.0014 0.176136 -19.0014 1.54545V7H-17.6605V1.45455C-17.6605 -0.772727 -18.848 -1.84091 -20.6151 -1.84091C-21.9332 -1.84091 -22.7514 -1.25 -23.1605 -0.363636H-23.2741V-1.72727H-24.5696V7H-23.2287V1.75ZM-11.9148 7.18182C-10.233 7.18182 -9.66477 6.13636 -9.36932 5.65909H-9.21023V7H-7.91477V-4.63636H-9.25568V-0.340909H-9.36932C-9.66477 -0.795455 -10.1875 -1.84091 -11.892 -1.84091C-14.0966 -1.84091 -15.6193 -0.0909095 -15.6193 2.65909C-15.6193 5.43182 -14.0966 7.18182 -11.9148 7.18182ZM-11.733 5.97727C-13.4148 5.97727 -14.2784 4.5 -14.2784 2.63636C-14.2784 0.795455 -13.4375 -0.636364 -11.733 -0.636364C-10.0966 -0.636364 -9.23295 0.681818 -9.23295 2.63636C-9.23295 4.61364 -10.1193 5.97727 -11.733 5.97727ZM3.02273 -1.72727H1.15909V-3.81818H-0.181818V-1.72727H-1.5V-0.590909H-0.181818V4.86364C-0.181818 6.38636 1.04545 7.11364 2.18182 7.11364C2.68182 7.11364 3 7.02273 3.18182 6.95455L2.90909 5.75C2.79545 5.77273 2.61364 5.81818 2.31818 5.81818C1.72727 5.81818 1.15909 5.63636 1.15909 4.5V-0.590909H3.02273V-1.72727ZM6.56818 1.75C6.56818 0.227273 7.53977 -0.636364 8.86364 -0.636364C10.125 -0.636364 10.8864 0.159091 10.8864 1.54545V7H12.2273V1.45455C12.2273 -0.789773 11.0341 -1.84091 9.25 -1.84091C7.875 -1.84091 7.09091 -1.26705 6.68182 -0.363636H6.56818V-4.63636H5.22727V7H6.56818V1.75ZM18.3395 7.18182C20.1122 7.18182 21.4077 6.29545 21.8168 4.97727L20.5213 4.61364C20.1804 5.52273 19.3906 5.97727 18.3395 5.97727C16.7656 5.97727 15.6804 4.96023 15.6179 3.09091H21.9531V2.52273C21.9531 -0.727273 20.0213 -1.84091 18.2031 -1.84091C15.8395 -1.84091 14.2713 0.022727 14.2713 2.70455C14.2713 5.38636 15.8168 7.18182 18.3395 7.18182ZM15.6179 1.93182C15.7088 0.573864 16.669 -0.636364 18.2031 -0.636364C19.6577 -0.636364 20.5895 0.454545 20.5895 1.93182H15.6179ZM-292.591 24.2273C-293.011 22.9886 -293.955 22.1591 -295.682 22.1591C-297.523 22.1591 -298.886 23.2045 -298.886 24.6818C-298.886 25.8864 -298.17 26.6932 -296.568 27.0682L-295.114 27.4091C-294.233 27.6136 -293.818 28.0341 -293.818 28.6364C-293.818 29.3864 -294.614 30 -295.864 30C-296.96 30 -297.648 29.5284 -297.886 28.5909L-299.159 28.9091C-298.847 30.392 -297.625 31.1818 -295.841 31.1818C-293.812 31.1818 -292.432 30.0739 -292.432 28.5682C-292.432 27.3523 -293.193 26.5852 -294.75 26.2045L-296.045 25.8864C-297.08 25.6307 -297.545 25.2841 -297.545 24.6136C-297.545 23.8636 -296.75 23.3182 -295.682 23.3182C-294.511 23.3182 -294.028 23.9659 -293.795 24.5682L-292.591 24.2273ZM-286.868 31.1818C-284.504 31.1818 -282.913 29.3864 -282.913 26.6818C-282.913 23.9545 -284.504 22.1591 -286.868 22.1591C-289.232 22.1591 -290.822 23.9545 -290.822 26.6818C-290.822 29.3864 -289.232 31.1818 -286.868 31.1818ZM-286.868 29.9773C-288.663 29.9773 -289.482 28.4318 -289.482 26.6818C-289.482 24.9318 -288.663 23.3636 -286.868 23.3636C-285.072 23.3636 -284.254 24.9318 -284.254 26.6818C-284.254 28.4318 -285.072 29.9773 -286.868 29.9773ZM-279.526 25.75C-279.526 24.2273 -278.582 23.3636 -277.298 23.3636C-276.054 23.3636 -275.298 24.1761 -275.298 25.5455V31H-273.957V25.4545C-273.957 23.2273 -275.145 22.1591 -276.912 22.1591C-278.23 22.1591 -279.048 22.75 -279.457 23.6364H-279.571V22.2727H-280.866V31H-279.526V25.75ZM-265.325 24.2273C-265.746 22.9886 -266.689 22.1591 -268.416 22.1591C-270.257 22.1591 -271.621 23.2045 -271.621 24.6818C-271.621 25.8864 -270.905 26.6932 -269.303 27.0682L-267.848 27.4091C-266.967 27.6136 -266.553 28.0341 -266.553 28.6364C-266.553 29.3864 -267.348 30 -268.598 30C-269.695 30 -270.382 29.5284 -270.621 28.5909L-271.893 28.9091C-271.581 30.392 -270.359 31.1818 -268.575 31.1818C-266.547 31.1818 -265.166 30.0739 -265.166 28.5682C-265.166 27.3523 -265.928 26.5852 -267.484 26.2045L-268.78 25.8864C-269.814 25.6307 -270.28 25.2841 -270.28 24.6136C-270.28 23.8636 -269.484 23.3182 -268.416 23.3182C-267.246 23.3182 -266.763 23.9659 -266.53 24.5682L-265.325 24.2273ZM-255.102 31.1818C-252.739 31.1818 -251.148 29.3864 -251.148 26.6818C-251.148 23.9545 -252.739 22.1591 -255.102 22.1591C-257.466 22.1591 -259.057 23.9545 -259.057 26.6818C-259.057 29.3864 -257.466 31.1818 -255.102 31.1818ZM-255.102 29.9773C-256.898 29.9773 -257.716 28.4318 -257.716 26.6818C-257.716 24.9318 -256.898 23.3636 -255.102 23.3636C-253.307 23.3636 -252.489 24.9318 -252.489 26.6818C-252.489 28.4318 -253.307 29.9773 -255.102 29.9773ZM-245.214 22.2727H-247.169V21.3864C-247.169 20.5227 -246.805 20.0682 -245.919 20.0682C-245.533 20.0682 -245.305 20.1591 -245.169 20.2045L-244.783 19.0455C-244.987 18.9545 -245.396 18.8182 -246.055 18.8182C-247.305 18.8182 -248.51 19.5682 -248.51 21.0682V22.2727H-249.919V23.4091H-248.51V31H-247.169V23.4091H-245.214V22.2727ZM-238.653 31H-237.244V26.75H-234.699C-231.989 26.75 -230.767 25.1023 -230.767 23.0455C-230.767 20.9886 -231.989 19.3636 -234.722 19.3636H-238.653V31ZM-237.244 25.5V20.6136H-234.767C-232.875 20.6136 -232.153 21.6477 -232.153 23.0455C-232.153 24.4432 -232.875 25.5 -234.744 25.5H-237.244ZM-226.111 31.2045C-224.588 31.2045 -223.793 30.3864 -223.52 29.8182H-223.452V31H-222.111V25.25C-222.111 22.4773 -224.224 22.1591 -225.338 22.1591C-226.656 22.1591 -228.156 22.6136 -228.838 24.2045L-227.565 24.6591C-227.27 24.0227 -226.571 23.3409 -225.293 23.3409C-224.06 23.3409 -223.452 23.9943 -223.452 25.1136V25.1591C-223.452 25.8068 -224.111 25.75 -225.702 25.9545C-227.321 26.1648 -229.088 26.5227 -229.088 28.5227C-229.088 30.2273 -227.77 31.2045 -226.111 31.2045ZM-225.906 30C-226.974 30 -227.747 29.5227 -227.747 28.5909C-227.747 27.5682 -226.815 27.25 -225.77 27.1136C-225.202 27.0455 -223.679 26.8864 -223.452 26.6136V27.8409C-223.452 28.9318 -224.315 30 -225.906 30ZM-218.322 25.75C-218.322 24.2273 -217.379 23.3636 -216.095 23.3636C-214.851 23.3636 -214.095 24.1761 -214.095 25.5455V31H-212.754V25.4545C-212.754 23.2273 -213.942 22.1591 -215.709 22.1591C-217.027 22.1591 -217.845 22.75 -218.254 23.6364H-218.368V22.2727H-219.663V31H-218.322V25.75ZM-207.009 31.1818C-205.327 31.1818 -204.759 30.1364 -204.463 29.6591H-204.304V31H-203.009V19.3636H-204.349V23.6591H-204.463C-204.759 23.2045 -205.281 22.1591 -206.986 22.1591C-209.19 22.1591 -210.713 23.9091 -210.713 26.6591C-210.713 29.4318 -209.19 31.1818 -207.009 31.1818ZM-206.827 29.9773C-208.509 29.9773 -209.372 28.5 -209.372 26.6364C-209.372 24.7955 -208.531 23.3636 -206.827 23.3636C-205.19 23.3636 -204.327 24.6818 -204.327 26.6364C-204.327 28.6136 -205.213 29.9773 -206.827 29.9773ZM-194.866 27.4318C-194.866 29.0682 -196.116 29.8182 -197.116 29.8182C-198.23 29.8182 -199.026 29 -199.026 27.7273V22.2727H-200.366V27.8182C-200.366 30.0455 -199.185 31.1136 -197.548 31.1136C-196.23 31.1136 -195.366 30.4091 -194.957 29.5227H-194.866V31H-193.526V22.2727H-194.866V27.4318ZM-183.274 31.1818C-181.592 31.1818 -181.024 30.1364 -180.729 29.6591H-180.57V31H-179.274V19.3636H-180.615V23.6591H-180.729C-181.024 23.2045 -181.547 22.1591 -183.251 22.1591C-185.456 22.1591 -186.979 23.9091 -186.979 26.6591C-186.979 29.4318 -185.456 31.1818 -183.274 31.1818ZM-183.092 29.9773C-184.774 29.9773 -185.638 28.5 -185.638 26.6364C-185.638 24.7955 -184.797 23.3636 -183.092 23.3636C-181.456 23.3636 -180.592 24.6818 -180.592 26.6364C-180.592 28.6136 -181.479 29.9773 -183.092 29.9773ZM-173.087 31.1818C-170.723 31.1818 -169.132 29.3864 -169.132 26.6818C-169.132 23.9545 -170.723 22.1591 -173.087 22.1591C-175.45 22.1591 -177.041 23.9545 -177.041 26.6818C-177.041 29.3864 -175.45 31.1818 -173.087 31.1818ZM-173.087 29.9773C-174.882 29.9773 -175.7 28.4318 -175.7 26.6818C-175.7 24.9318 -174.882 23.3636 -173.087 23.3636C-171.291 23.3636 -170.473 24.9318 -170.473 26.6818C-170.473 28.4318 -171.291 29.9773 -173.087 29.9773ZM-165.335 27.7273H-163.972V27.6591C-163.949 26.25 -163.585 25.6364 -162.585 25.0114C-161.585 24.4034 -160.994 23.5284 -160.994 22.2727C-160.994 20.5 -162.29 19.2045 -164.29 19.2045C-166.131 19.2045 -167.591 20.3409 -167.676 22.2727H-166.244C-166.159 20.9318 -165.222 20.3864 -164.29 20.3864C-163.222 20.3864 -162.358 21.0909 -162.358 22.2045C-162.358 23.108 -162.875 23.7557 -163.54 24.1591C-164.653 24.8352 -165.318 25.4943 -165.335 27.6591V27.7273ZM-164.608 31.0909C-164.045 31.0909 -163.585 30.6307 -163.585 30.0682C-163.585 29.5057 -164.045 29.0455 -164.608 29.0455C-165.17 29.0455 -165.631 29.5057 -165.631 30.0682C-165.631 30.6307 -165.17 31.0909 -164.608 31.0909Z" fill="#1A1A1A"/>
<g clip-path="url(#clip1)" filter="url(#filter0_i)">
<rect width="375" height="48" transform="translate(-320 -14)" fill="white"/>
<path d="M1 19V1L10 0.5L13 1C13.1667 2.66667 13.5 6.1 13.5 6.5C13.5 6.9 13.1667 15 13 19L7 14L1 19Z" fill="#FEC93B"/>
<path fill-rule="evenodd" clip-rule="evenodd" d="M0 1.75C0 0.783503 0.783501 0 1.75 0H12.25C13.2165 0 14 0.783502 14 1.75V19.25C14 19.5383 13.8347 19.8011 13.5749 19.926C13.315 20.0509 13.0066 20.0158 12.7815 19.8357L7 15.2105L1.21852 19.8357C0.993394 20.0158 0.684958 20.0509 0.425108 19.926C0.165259 19.8011 0 19.5383 0 19.25V1.75ZM1.75 1.5C1.61193 1.5 1.5 1.61193 1.5 1.75V17.6895L6.53148 13.6643C6.80539 13.4452 7.19461 13.4452 7.46852 13.6643L12.5 17.6895V1.75C12.5 1.61193 12.3881 1.5 12.25 1.5H1.75Z" fill="#1A1A1A"/>
</g>
</g>
<defs>
<filter id="filter0_i" x="-320" y="-14" width="375" height="48" filterUnits="userSpaceOnUse" color-interpolation-filters="sRGB">
<feFlood flood-opacity="0" result="BackgroundImageFix"/>
<feBlend mode="normal" in="SourceGraphic" in2="BackgroundImageFix" result="shape"/>
<feColorMatrix in="SourceAlpha" type="matrix" values="0 0 0 0 0 0 0 0 0 0 0 0 0 0 0 0 0 0 127 0" result="hardAlpha"/>
<feOffset dy="1"/>
<feComposite in2="hardAlpha" operator="arithmetic" k2="-1" k3="1"/>
<feColorMatrix type="matrix" values="0 0 0 0 0.905882 0 0 0 0 0.905882 0 0 0 0 0.905882 0 0 0 1 0"/>
<feBlend mode="normal" in2="shape" result="effect1_innerShadow"/>
</filter>
<clipPath id="clip0">
<rect width="375" height="812" fill="white" transform="translate(-320 -778)"/>
</clipPath>
<clipPath id="clip1">
<rect width="375" height="48" fill="white" transform="translate(-320 -14)"/>
</clipPath>
</defs>
</svg>
