<svg xmlns="http://www.w3.org/2000/svg" width="16" height="21" fill="none" viewBox="0 0 16 21"><path fill="#000" fill-rule="evenodd" d="M8.53 0.21934C8.38937 0.0788896 8.19875 0 8 0C7.80125 0 7.61063 0.0788896 7.47 0.21934L4.22 3.46934C4.08752 3.61151 4.0154 3.79956 4.01882 3.99386C4.02225 4.18816 4.10097 4.37355 4.23838 4.51096C4.37579 4.64838 4.56118 4.72709 4.75548 4.73052C4.94978 4.73394 5.13783 4.66182 5.28 4.52934L7.25 2.55934V13.2493C7.25 13.4483 7.32902 13.639 7.46967 13.7797C7.61032 13.9203 7.80109 13.9993 8 13.9993C8.19891 13.9993 8.38968 13.9203 8.53033 13.7797C8.67098 13.639 8.75 13.4483 8.75 13.2493V2.55934L10.72 4.52934C10.7887 4.60303 10.8715 4.66213 10.9635 4.70312C11.0555 4.74411 11.1548 4.76615 11.2555 4.76793C11.3562 4.76971 11.4562 4.75118 11.5496 4.71346C11.643 4.67574 11.7278 4.6196 11.799 4.54838C11.8703 4.47716 11.9264 4.39233 11.9641 4.29894C12.0018 4.20555 12.0204 4.10552 12.0186 4.00482C12.0168 3.90411 11.9948 3.8048 11.9538 3.7128C11.9128 3.6208 11.8537 3.538 11.78 3.46934L8.53 0.21934ZM1.5 8.74934C1.5 8.68304 1.52634 8.61945 1.57322 8.57256C1.62011 8.52568 1.6837 8.49934 1.75 8.49934H4.25C4.44891 8.49934 4.63968 8.42032 4.78033 8.27967C4.92098 8.13902 5 7.94825 5 7.74934C5 7.55043 4.92098 7.35966 4.78033 7.21901C4.63968 7.07836 4.44891 6.99934 4.25 6.99934H1.75C1.28587 6.99934 0.840752 7.18371 0.512563 7.5119C0.184375 7.84009 0 8.28521 0 8.74934V19.2493C0 20.2153 0.784 20.9993 1.75 20.9993H14.25C14.7141 20.9993 15.1592 20.815 15.4874 20.4868C15.8156 20.1586 16 19.7135 16 19.2493V8.74934C16 8.28521 15.8156 7.84009 15.4874 7.5119C15.1592 7.18371 14.7141 6.99934 14.25 6.99934H11.75C11.5511 6.99934 11.3603 7.07836 11.2197 7.21901C11.079 7.35966 11 7.55043 11 7.74934C11 7.94825 11.079 8.13902 11.2197 8.27967C11.3603 8.42032 11.5511 8.49934 11.75 8.49934H14.25C14.3163 8.49934 14.3799 8.52568 14.4268 8.57256C14.4737 8.61945 14.5 8.68304 14.5 8.74934V19.2493C14.5 19.3156 14.4737 19.3792 14.4268 19.4261C14.3799 19.473 14.3163 19.4993 14.25 19.4993H1.75C1.6837 19.4993 1.62011 19.473 1.57322 19.4261C1.52634 19.3792 1.5 19.3156 1.5 19.2493V8.74934Z" clip-rule="evenodd"/></svg>