<svg width="12" height="12" viewBox="0 0 12 12" fill="none" xmlns="http://www.w3.org/2000/svg">
<rect width="12" height="12" fill="#E5E5E5"/>
<rect width="375" height="812" transform="translate(-22 -212)" fill="white"/>
<path d="M9.5 5L8 2.77778L8.375 1.88889L9 0.5H9.5L11.5 2L11 3.22222L9.5 5Z" fill="#FEC93B"/>
<path fill-rule="evenodd" clip-rule="evenodd" d="M8.86543 0.295201C9.2498 -0.0984011 9.873 -0.0983998 10.2574 0.295202L11.7117 1.78444C12.0961 2.17804 12.0961 2.81619 11.7117 3.2098L10.1409 4.81831L10.1339 4.82533L4.0438 10.7781C3.93253 10.8869 3.79792 10.9674 3.65077 11.0133L0.544656 11.9813C0.395621 12.0277 0.233718 11.9863 0.123561 11.8735C0.0134038 11.7607 -0.0270719 11.5949 0.0182868 11.4423L0.959579 8.27524C1.00887 8.10938 1.09912 7.95935 1.22159 7.83964L7.29807 1.90016L8.86543 0.295201ZM7.58602 2.813L1.80411 8.46454C1.78661 8.48164 1.77372 8.50308 1.76668 8.52677L1.05567 10.919L3.40513 10.1868C3.42615 10.1802 3.44538 10.1687 3.46128 10.1532L9.23905 4.50569L7.58602 2.813ZM9.84262 3.90201L11.1152 2.59893C11.1701 2.5427 11.1701 2.45153 11.1152 2.39531L9.66083 0.906069C9.60592 0.84984 9.51689 0.849841 9.46198 0.906069L8.18943 2.20915L9.84262 3.90201Z" fill="#24292E"/>
</svg>
