<svg xmlns="http://www.w3.org/2000/svg" width="20" height="20" fill="none" viewBox="0 0 20 20"><rect width="20" height="20" fill="#E5E5E5"/><g clip-path="url(#clip0)"><rect width="375" height="812" fill="#fff" transform="translate(-224 -778)"/><path fill="#1A1A1A" d="M-199 -41C-195.455 -41 -193.455 -43.2045 -193.455 -46.8409C-193.455 -50.4545 -195.455 -52.6364 -198.841 -52.6364H-202.591V-41H-199ZM-201.182 -42.25V-51.3864H-198.932C-196.205 -51.3864 -194.818 -49.6591 -194.818 -46.8409C-194.818 -44 -196.205 -42.25 -199.091 -42.25H-201.182ZM-189.932 -46.25C-189.932 -47.7727 -188.96 -48.6364 -187.636 -48.6364C-186.375 -48.6364 -185.614 -47.8409 -185.614 -46.4545V-41H-184.273V-46.5455C-184.273 -48.7898 -185.466 -49.8409 -187.25 -49.8409C-188.625 -49.8409 -189.409 -49.267 -189.818 -48.3636H-189.932V-52.6364H-191.273V-41H-189.932V-46.25ZM-181.82 -41H-180.479V-46.5227C-180.479 -47.7045 -179.547 -48.5682 -178.274 -48.5682C-177.916 -48.5682 -177.547 -48.5 -177.456 -48.4773V-49.8409C-177.609 -49.8523 -177.962 -49.8636 -178.161 -49.8636C-179.206 -49.8636 -180.115 -49.2727 -180.433 -48.4091H-180.524V-49.7273H-181.82V-41ZM-175.866 -41H-174.526V-49.7273H-175.866V-41ZM-175.185 -51.1818C-174.662 -51.1818 -174.23 -51.5909 -174.23 -52.0909C-174.23 -52.5909 -174.662 -53 -175.185 -53C-175.707 -53 -176.139 -52.5909 -176.139 -52.0909C-176.139 -51.5909 -175.707 -51.1818 -175.185 -51.1818ZM-168.274 -49.7273H-170.138V-51.8182H-171.479V-49.7273H-172.797V-48.5909H-171.479V-43.1364C-171.479 -41.6136 -170.251 -40.8864 -169.115 -40.8864C-168.615 -40.8864 -168.297 -40.9773 -168.115 -41.0455L-168.388 -42.25C-168.501 -42.2273 -168.683 -42.1818 -168.979 -42.1818C-169.57 -42.1818 -170.138 -42.3636 -170.138 -43.5V-48.5909H-168.274V-49.7273ZM-163.689 -40.7955C-162.166 -40.7955 -161.371 -41.6136 -161.098 -42.1818H-161.03V-41H-159.689V-46.75C-159.689 -49.5227 -161.803 -49.8409 -162.916 -49.8409C-164.234 -49.8409 -165.734 -49.3864 -166.416 -47.7955L-165.143 -47.3409C-164.848 -47.9773 -164.149 -48.6591 -162.871 -48.6591C-161.638 -48.6591 -161.03 -48.0057 -161.03 -46.8864V-46.8409C-161.03 -46.1932 -161.689 -46.25 -163.28 -46.0455C-164.899 -45.8352 -166.666 -45.4773 -166.666 -43.4773C-166.666 -41.7727 -165.348 -40.7955 -163.689 -40.7955ZM-163.484 -42C-164.553 -42 -165.325 -42.4773 -165.325 -43.4091C-165.325 -44.4318 -164.393 -44.75 -163.348 -44.8864C-162.78 -44.9545 -161.257 -45.1136 -161.03 -45.3864V-44.1591C-161.03 -43.0682 -161.893 -42 -163.484 -42ZM-157.241 -41H-155.901V-46.5227C-155.901 -47.7045 -154.969 -48.5682 -153.696 -48.5682C-153.338 -48.5682 -152.969 -48.5 -152.878 -48.4773V-49.8409C-153.031 -49.8523 -153.384 -49.8636 -153.582 -49.8636C-154.628 -49.8636 -155.537 -49.2727 -155.855 -48.4091H-155.946V-49.7273H-157.241V-41ZM-148.72 -40.7955C-147.197 -40.7955 -146.402 -41.6136 -146.129 -42.1818H-146.061V-41H-144.72V-46.75C-144.72 -49.5227 -146.834 -49.8409 -147.947 -49.8409C-149.266 -49.8409 -150.766 -49.3864 -151.447 -47.7955L-150.175 -47.3409C-149.879 -47.9773 -149.18 -48.6591 -147.902 -48.6591C-146.669 -48.6591 -146.061 -48.0057 -146.061 -46.8864V-46.8409C-146.061 -46.1932 -146.72 -46.25 -148.311 -46.0455C-149.93 -45.8352 -151.697 -45.4773 -151.697 -43.4773C-151.697 -41.7727 -150.379 -40.7955 -148.72 -40.7955ZM-148.516 -42C-149.584 -42 -150.357 -42.4773 -150.357 -43.4091C-150.357 -44.4318 -149.425 -44.75 -148.379 -44.8864C-147.811 -44.9545 -146.288 -45.1136 -146.061 -45.3864V-44.1591C-146.061 -43.0682 -146.925 -42 -148.516 -42ZM-136.091 -47.7727C-136.511 -49.0114 -137.455 -49.8409 -139.182 -49.8409C-141.023 -49.8409 -142.386 -48.7955 -142.386 -47.3182C-142.386 -46.1136 -141.67 -45.3068 -140.068 -44.9318L-138.614 -44.5909C-137.733 -44.3864 -137.318 -43.9659 -137.318 -43.3636C-137.318 -42.6136 -138.114 -42 -139.364 -42C-140.46 -42 -141.148 -42.4716 -141.386 -43.4091L-142.659 -43.0909C-142.347 -41.608 -141.125 -40.8182 -139.341 -40.8182C-137.312 -40.8182 -135.932 -41.9261 -135.932 -43.4318C-135.932 -44.6477 -136.693 -45.4148 -138.25 -45.7955L-139.545 -46.1136C-140.58 -46.3693 -141.045 -46.7159 -141.045 -47.3864C-141.045 -48.1364 -140.25 -48.6818 -139.182 -48.6818C-138.011 -48.6818 -137.528 -48.0341 -137.295 -47.4318L-136.091 -47.7727ZM-132.572 -46.25C-132.572 -47.7727 -131.601 -48.6364 -130.277 -48.6364C-129.016 -48.6364 -128.254 -47.8409 -128.254 -46.4545V-41H-126.913V-46.5455C-126.913 -48.7898 -128.107 -49.8409 -129.891 -49.8409C-131.266 -49.8409 -132.05 -49.267 -132.459 -48.3636H-132.572V-52.6364H-133.913V-41H-132.572V-46.25ZM-120.665 -49.7273H-122.528V-51.8182H-123.869V-49.7273H-125.188V-48.5909H-123.869V-43.1364C-123.869 -41.6136 -122.642 -40.8864 -121.506 -40.8864C-121.006 -40.8864 -120.688 -40.9773 -120.506 -41.0455L-120.778 -42.25C-120.892 -42.2273 -121.074 -42.1818 -121.369 -42.1818C-121.96 -42.1818 -122.528 -42.3636 -122.528 -43.5V-48.5909H-120.665V-49.7273ZM-118.648 -41H-117.307V-46.5227C-117.307 -47.7045 -116.375 -48.5682 -115.102 -48.5682C-114.744 -48.5682 -114.375 -48.5 -114.284 -48.4773V-49.8409C-114.438 -49.8523 -114.79 -49.8636 -114.989 -49.8636C-116.034 -49.8636 -116.943 -49.2727 -117.261 -48.4091H-117.352V-49.7273H-118.648V-41ZM-110.126 -40.7955C-108.604 -40.7955 -107.808 -41.6136 -107.536 -42.1818H-107.467V-41H-106.126V-46.75C-106.126 -49.5227 -108.24 -49.8409 -109.354 -49.8409C-110.672 -49.8409 -112.172 -49.3864 -112.854 -47.7955L-111.581 -47.3409C-111.286 -47.9773 -110.587 -48.6591 -109.308 -48.6591C-108.075 -48.6591 -107.467 -48.0057 -107.467 -46.8864V-46.8409C-107.467 -46.1932 -108.126 -46.25 -109.717 -46.0455C-111.337 -45.8352 -113.104 -45.4773 -113.104 -43.4773C-113.104 -41.7727 -111.786 -40.7955 -110.126 -40.7955ZM-109.922 -42C-110.99 -42 -111.763 -42.4773 -111.763 -43.4091C-111.763 -44.4318 -110.831 -44.75 -109.786 -44.8864C-109.217 -44.9545 -107.695 -45.1136 -107.467 -45.3864V-44.1591C-107.467 -43.0682 -108.331 -42 -109.922 -42ZM-92.9972 -47.7727C-93.4176 -49.0114 -94.3608 -49.8409 -96.0881 -49.8409C-97.929 -49.8409 -99.2926 -48.7955 -99.2926 -47.3182C-99.2926 -46.1136 -98.5767 -45.3068 -96.9744 -44.9318L-95.5199 -44.5909C-94.6392 -44.3864 -94.2244 -43.9659 -94.2244 -43.3636C-94.2244 -42.6136 -95.0199 -42 -96.2699 -42C-97.3665 -42 -98.054 -42.4716 -98.2926 -43.4091L-99.5653 -43.0909C-99.2528 -41.608 -98.0312 -40.8182 -96.2472 -40.8182C-94.2188 -40.8182 -92.8381 -41.9261 -92.8381 -43.4318C-92.8381 -44.6477 -93.5994 -45.4148 -95.1562 -45.7955L-96.4517 -46.1136C-97.4858 -46.3693 -97.9517 -46.7159 -97.9517 -47.3864C-97.9517 -48.1364 -97.1562 -48.6818 -96.0881 -48.6818C-94.9176 -48.6818 -94.4347 -48.0341 -94.2017 -47.4318L-92.9972 -47.7727ZM-88.2514 -40.7955C-86.7287 -40.7955 -85.9332 -41.6136 -85.6605 -42.1818H-85.5923V-41H-84.2514V-46.75C-84.2514 -49.5227 -86.3651 -49.8409 -87.4787 -49.8409C-88.7969 -49.8409 -90.2969 -49.3864 -90.9787 -47.7955L-89.706 -47.3409C-89.4105 -47.9773 -88.7116 -48.6591 -87.4332 -48.6591C-86.2003 -48.6591 -85.5923 -48.0057 -85.5923 -46.8864V-46.8409C-85.5923 -46.1932 -86.2514 -46.25 -87.8423 -46.0455C-89.4616 -45.8352 -91.2287 -45.4773 -91.2287 -43.4773C-91.2287 -41.7727 -89.9105 -40.7955 -88.2514 -40.7955ZM-88.0469 -42C-89.1151 -42 -89.8878 -42.4773 -89.8878 -43.4091C-89.8878 -44.4318 -88.956 -44.75 -87.9105 -44.8864C-87.3423 -44.9545 -85.8196 -45.1136 -85.5923 -45.3864V-44.1591C-85.5923 -43.0682 -86.456 -42 -88.0469 -42ZM-81.804 -41H-80.4631V-49.7273H-81.804V-41ZM-81.1222 -51.1818C-80.5994 -51.1818 -80.1676 -51.5909 -80.1676 -52.0909C-80.1676 -52.5909 -80.5994 -53 -81.1222 -53C-81.6449 -53 -82.0767 -52.5909 -82.0767 -52.0909C-82.0767 -51.5909 -81.6449 -51.1818 -81.1222 -51.1818ZM-74.7116 -40.8182C-73.0298 -40.8182 -72.4616 -41.8636 -72.1662 -42.3409H-72.0071V-41H-70.7116V-52.6364H-72.0526V-48.3409H-72.1662C-72.4616 -48.7955 -72.9844 -49.8409 -74.6889 -49.8409C-76.8935 -49.8409 -78.4162 -48.0909 -78.4162 -45.3409C-78.4162 -42.5682 -76.8935 -40.8182 -74.7116 -40.8182ZM-74.5298 -42.0227C-76.2116 -42.0227 -77.0753 -43.5 -77.0753 -45.3636C-77.0753 -47.2045 -76.2344 -48.6364 -74.5298 -48.6364C-72.8935 -48.6364 -72.0298 -47.3182 -72.0298 -45.3636C-72.0298 -43.3864 -72.9162 -42.0227 -74.5298 -42.0227ZM-67.0923 -40.9091C-66.5298 -40.9091 -66.0696 -41.3693 -66.0696 -41.9318C-66.0696 -42.4943 -66.5298 -42.9545 -67.0923 -42.9545C-67.6548 -42.9545 -68.1151 -42.4943 -68.1151 -41.9318C-68.1151 -41.3693 -67.6548 -40.9091 -67.0923 -40.9091ZM-67.0923 -47.3864C-66.5298 -47.3864 -66.0696 -47.8466 -66.0696 -48.4091C-66.0696 -48.9716 -66.5298 -49.4318 -67.0923 -49.4318C-67.6548 -49.4318 -68.1151 -48.9716 -68.1151 -48.4091C-68.1151 -47.8466 -67.6548 -47.3864 -67.0923 -47.3864ZM-49.1634 -46.8182C-49.1634 -50.5 -51.3224 -52.7955 -54.2997 -52.7955C-57.277 -52.7955 -59.4361 -50.5 -59.4361 -46.8182C-59.4361 -43.1364 -57.277 -40.8409 -54.2997 -40.8409C-51.3224 -40.8409 -49.1634 -43.1364 -49.1634 -46.8182ZM-50.527 -46.8182C-50.527 -43.7955 -52.1861 -42.1591 -54.2997 -42.1591C-56.4134 -42.1591 -58.0724 -43.7955 -58.0724 -46.8182C-58.0724 -49.8409 -56.4134 -51.4773 -54.2997 -51.4773C-52.1861 -51.4773 -50.527 -49.8409 -50.527 -46.8182ZM-35.9304 -49.7273H-34.5668C-34.6293 -51.483 -36.2486 -52.7955 -38.4986 -52.7955C-40.7259 -52.7955 -42.4759 -51.5 -42.4759 -49.5455C-42.4759 -47.9773 -41.3395 -47.0455 -39.5213 -46.5227L-38.0895 -46.1136C-36.8622 -45.7727 -35.7713 -45.3409 -35.7713 -44.1818C-35.7713 -42.9091 -36.9986 -42.0682 -38.6122 -42.0682C-39.9986 -42.0682 -41.2259 -42.6818 -41.3395 -44H-42.794C-42.6577 -42.0909 -41.1122 -40.7955 -38.6122 -40.7955C-35.9304 -40.7955 -34.4077 -42.2727 -34.4077 -44.1591C-34.4077 -46.3409 -36.4759 -47.0455 -37.6804 -47.3636L-38.8622 -47.6818C-39.7259 -47.9091 -41.1122 -48.3636 -41.1122 -49.6136C-41.1122 -50.7273 -40.0895 -51.5455 -38.544 -51.5455C-37.1349 -51.5455 -36.0668 -50.875 -35.9304 -49.7273ZM-29.7045 -40.7955C-28.1818 -40.7955 -27.3864 -41.6136 -27.1136 -42.1818H-27.0455V-41H-25.7045V-46.75C-25.7045 -49.5227 -27.8182 -49.8409 -28.9318 -49.8409C-30.25 -49.8409 -31.75 -49.3864 -32.4318 -47.7955L-31.1591 -47.3409C-30.8636 -47.9773 -30.1648 -48.6591 -28.8864 -48.6591C-27.6534 -48.6591 -27.0455 -48.0057 -27.0455 -46.8864V-46.8409C-27.0455 -46.1932 -27.7045 -46.25 -29.2955 -46.0455C-30.9148 -45.8352 -32.6818 -45.4773 -32.6818 -43.4773C-32.6818 -41.7727 -31.3636 -40.7955 -29.7045 -40.7955ZM-29.5 -42C-30.5682 -42 -31.3409 -42.4773 -31.3409 -43.4091C-31.3409 -44.4318 -30.4091 -44.75 -29.3636 -44.8864C-28.7955 -44.9545 -27.2727 -45.1136 -27.0455 -45.3864V-44.1591C-27.0455 -43.0682 -27.9091 -42 -29.5 -42ZM-21.9162 -46.25C-21.9162 -47.7727 -20.973 -48.6364 -19.6889 -48.6364C-18.4446 -48.6364 -17.6889 -47.8239 -17.6889 -46.4545V-41H-16.348V-46.5455C-16.348 -48.7727 -17.5355 -49.8409 -19.3026 -49.8409C-20.6207 -49.8409 -21.4389 -49.25 -21.848 -48.3636H-21.9616V-49.7273H-23.2571V-41H-21.9162V-46.25ZM-13.8977 -49.7273V-40.3636C-13.8977 -39.4773 -14.2614 -38.9773 -15.0795 -38.9773H-15.3295V-37.7273H-15.0568C-13.375 -37.7273 -12.5568 -38.75 -12.5568 -40.3636V-49.7273H-13.8977ZM-13.2386 -51.1818C-12.7159 -51.1818 -12.2841 -51.5909 -12.2841 -52.0909C-12.2841 -52.5909 -12.7159 -53 -13.2386 -53C-13.7614 -53 -14.1932 -52.5909 -14.1932 -52.0909C-14.1932 -51.5909 -13.7614 -51.1818 -13.2386 -51.1818ZM-7.53267 -40.7955C-6.00994 -40.7955 -5.21449 -41.6136 -4.94176 -42.1818H-4.87358V-41H-3.53267V-46.75C-3.53267 -49.5227 -5.64631 -49.8409 -6.75994 -49.8409C-8.07812 -49.8409 -9.57812 -49.3864 -10.2599 -47.7955L-8.98722 -47.3409C-8.69176 -47.9773 -7.9929 -48.6591 -6.71449 -48.6591C-5.48153 -48.6591 -4.87358 -48.0057 -4.87358 -46.8864V-46.8409C-4.87358 -46.1932 -5.53267 -46.25 -7.12358 -46.0455C-8.7429 -45.8352 -10.5099 -45.4773 -10.5099 -43.4773C-10.5099 -41.7727 -9.19176 -40.7955 -7.53267 -40.7955ZM-7.32812 -42C-8.39631 -42 -9.16903 -42.4773 -9.16903 -43.4091C-9.16903 -44.4318 -8.23722 -44.75 -7.19176 -44.8864C-6.62358 -44.9545 -5.10085 -45.1136 -4.87358 -45.3864V-44.1591C-4.87358 -43.0682 -5.73722 -42 -7.32812 -42ZM-0.534091 -37.7273C0.676136 -37.7273 1.52841 -38.3693 2.03409 -39.7273L5.75 -49.7045L4.28409 -49.7273L1.875 -42.7727H1.78409L-0.625 -49.7273H-2.07955L1.14773 -40.9545L0.897727 -40.2727C0.409091 -38.9432 -0.193182 -38.8182 -1.17045 -39.0682L-1.51136 -37.8864C-1.375 -37.8182 -0.988636 -37.7273 -0.534091 -37.7273ZM8.97727 -42.5909H7.52273L7.45455 -41.9545C7.28977 -40.4148 6.96591 -38.8807 6.81818 -38.1591H7.84091C8.11364 -38.9318 8.69318 -40.6818 8.88636 -41.9773L8.97727 -42.5909ZM18.5298 -40.7955C20.0526 -40.7955 20.848 -41.6136 21.1207 -42.1818H21.1889V-41H22.5298V-46.75C22.5298 -49.5227 20.4162 -49.8409 19.3026 -49.8409C17.9844 -49.8409 16.4844 -49.3864 15.8026 -47.7955L17.0753 -47.3409C17.3707 -47.9773 18.0696 -48.6591 19.348 -48.6591C20.581 -48.6591 21.1889 -48.0057 21.1889 -46.8864V-46.8409C21.1889 -46.1932 20.5298 -46.25 18.9389 -46.0455C17.3196 -45.8352 15.5526 -45.4773 15.5526 -43.4773C15.5526 -41.7727 16.8707 -40.7955 18.5298 -40.7955ZM18.7344 -42C17.6662 -42 16.8935 -42.4773 16.8935 -43.4091C16.8935 -44.4318 17.8253 -44.75 18.8707 -44.8864C19.4389 -44.9545 20.9616 -45.1136 21.1889 -45.3864V-44.1591C21.1889 -43.0682 20.3253 -42 18.7344 -42ZM28.8636 -49.7273H26.9091V-50.6136C26.9091 -51.4773 27.2727 -51.9318 28.1591 -51.9318C28.5455 -51.9318 28.7727 -51.8409 28.9091 -51.7955L29.2955 -52.9545C29.0909 -53.0455 28.6818 -53.1818 28.0227 -53.1818C26.7727 -53.1818 25.5682 -52.4318 25.5682 -50.9318V-49.7273H24.1591V-48.5909H25.5682V-41H26.9091V-48.5909H28.8636V-49.7273ZM34.5384 -49.7273H32.6747V-51.8182H31.3338V-49.7273H30.0156V-48.5909H31.3338V-43.1364C31.3338 -41.6136 32.5611 -40.8864 33.6974 -40.8864C34.1974 -40.8864 34.5156 -40.9773 34.6974 -41.0455L34.4247 -42.25C34.3111 -42.2273 34.1293 -42.1818 33.8338 -42.1818C33.2429 -42.1818 32.6747 -42.3636 32.6747 -43.5V-48.5909H34.5384V-49.7273ZM40.1207 -40.8182C41.8935 -40.8182 43.1889 -41.7045 43.598 -43.0227L42.3026 -43.3864C41.9616 -42.4773 41.1719 -42.0227 40.1207 -42.0227C38.5469 -42.0227 37.4616 -43.0398 37.3991 -44.9091H43.7344V-45.4773C43.7344 -48.7273 41.8026 -49.8409 39.9844 -49.8409C37.6207 -49.8409 36.0526 -47.9773 36.0526 -45.2955C36.0526 -42.6136 37.598 -40.8182 40.1207 -40.8182ZM37.3991 -46.0682C37.4901 -47.4261 38.4503 -48.6364 39.9844 -48.6364C41.4389 -48.6364 42.3707 -47.5455 42.3707 -46.0682H37.3991ZM45.7741 -41H47.1151V-46.5227C47.1151 -47.7045 48.0469 -48.5682 49.3196 -48.5682C49.6776 -48.5682 50.0469 -48.5 50.1378 -48.4773V-49.8409C49.9844 -49.8523 49.6321 -49.8636 49.4332 -49.8636C48.3878 -49.8636 47.4787 -49.2727 47.1605 -48.4091H47.0696V-49.7273H45.7741V-41ZM59.75 -37.5455C61.8409 -37.5455 63.5227 -38.5 63.5227 -40.75V-49.7273H62.2273V-48.3409H62.0909C61.7955 -48.7955 61.25 -49.8409 59.5455 -49.8409C57.3409 -49.8409 55.8182 -48.0909 55.8182 -45.4091C55.8182 -42.6818 57.4091 -41.1364 59.5227 -41.1364C61.2273 -41.1364 61.7727 -42.1364 62.0682 -42.6136H62.1818V-40.8409C62.1818 -39.3864 61.1591 -38.7273 59.75 -38.7273C58.1648 -38.7273 57.608 -39.5625 57.25 -40.0455L56.1818 -39.2955C56.7273 -38.3807 57.8011 -37.5455 59.75 -37.5455ZM59.7045 -42.3409C58.0227 -42.3409 57.1591 -43.6136 57.1591 -45.4318C57.1591 -47.2045 58 -48.6364 59.7045 -48.6364C61.3409 -48.6364 62.2045 -47.3182 62.2045 -45.4318C62.2045 -43.5 61.3182 -42.3409 59.7045 -42.3409ZM68.5455 -40.7955C70.0682 -40.7955 70.8636 -41.6136 71.1364 -42.1818H71.2045V-41H72.5455V-46.75C72.5455 -49.5227 70.4318 -49.8409 69.3182 -49.8409C68 -49.8409 66.5 -49.3864 65.8182 -47.7955L67.0909 -47.3409C67.3864 -47.9773 68.0852 -48.6591 69.3636 -48.6591C70.5966 -48.6591 71.2045 -48.0057 71.2045 -46.8864V-46.8409C71.2045 -46.1932 70.5455 -46.25 68.9545 -46.0455C67.3352 -45.8352 65.5682 -45.4773 65.5682 -43.4773C65.5682 -41.7727 66.8864 -40.7955 68.5455 -40.7955ZM68.75 -42C67.6818 -42 66.9091 -42.4773 66.9091 -43.4091C66.9091 -44.4318 67.8409 -44.75 68.8864 -44.8864C69.4545 -44.9545 70.9773 -45.1136 71.2045 -45.3864V-44.1591C71.2045 -43.0682 70.3409 -42 68.75 -42ZM78.7884 -49.7273H76.9247V-51.8182H75.5838V-49.7273H74.2656V-48.5909H75.5838V-43.1364C75.5838 -41.6136 76.8111 -40.8864 77.9474 -40.8864C78.4474 -40.8864 78.7656 -40.9773 78.9474 -41.0455L78.6747 -42.25C78.5611 -42.2273 78.3793 -42.1818 78.0838 -42.1818C77.4929 -42.1818 76.9247 -42.3636 76.9247 -43.5V-48.5909H78.7884V-49.7273ZM82.3338 -46.25C82.3338 -47.7727 83.3054 -48.6364 84.6293 -48.6364C85.8906 -48.6364 86.652 -47.8409 86.652 -46.4545V-41H87.9929V-46.5455C87.9929 -48.7898 86.7997 -49.8409 85.0156 -49.8409C83.6406 -49.8409 82.8565 -49.267 82.4474 -48.3636H82.3338V-52.6364H80.9929V-41H82.3338V-46.25ZM94.1051 -40.8182C95.8778 -40.8182 97.1733 -41.7045 97.5824 -43.0227L96.2869 -43.3864C95.946 -42.4773 95.1562 -42.0227 94.1051 -42.0227C92.5312 -42.0227 91.446 -43.0398 91.3835 -44.9091H97.7188V-45.4773C97.7188 -48.7273 95.7869 -49.8409 93.9688 -49.8409C91.6051 -49.8409 90.0369 -47.9773 90.0369 -45.2955C90.0369 -42.6136 91.5824 -40.8182 94.1051 -40.8182ZM91.3835 -46.0682C91.4744 -47.4261 92.4347 -48.6364 93.9688 -48.6364C95.4233 -48.6364 96.3551 -47.5455 96.3551 -46.0682H91.3835ZM99.7585 -41H101.099V-46.5227C101.099 -47.7045 102.031 -48.5682 103.304 -48.5682C103.662 -48.5682 104.031 -48.5 104.122 -48.4773V-49.8409C103.969 -49.8523 103.616 -49.8636 103.418 -49.8636C102.372 -49.8636 101.463 -49.2727 101.145 -48.4091H101.054V-49.7273H99.7585V-41ZM105.712 -41H107.053V-49.7273H105.712V-41ZM106.393 -51.1818C106.916 -51.1818 107.348 -51.5909 107.348 -52.0909C107.348 -52.5909 106.916 -53 106.393 -53C105.871 -53 105.439 -52.5909 105.439 -52.0909C105.439 -51.5909 105.871 -51.1818 106.393 -51.1818ZM110.849 -46.25C110.849 -47.7727 111.793 -48.6364 113.077 -48.6364C114.321 -48.6364 115.077 -47.8239 115.077 -46.4545V-41H116.418V-46.5455C116.418 -48.7727 115.23 -49.8409 113.463 -49.8409C112.145 -49.8409 111.327 -49.25 110.918 -48.3636H110.804V-49.7273H109.509V-41H110.849V-46.25ZM122.391 -37.5455C124.482 -37.5455 126.163 -38.5 126.163 -40.75V-49.7273H124.868V-48.3409H124.732C124.436 -48.7955 123.891 -49.8409 122.186 -49.8409C119.982 -49.8409 118.459 -48.0909 118.459 -45.4091C118.459 -42.6818 120.05 -41.1364 122.163 -41.1364C123.868 -41.1364 124.413 -42.1364 124.709 -42.6136H124.822V-40.8409C124.822 -39.3864 123.8 -38.7273 122.391 -38.7273C120.805 -38.7273 120.249 -39.5625 119.891 -40.0455L118.822 -39.2955C119.368 -38.3807 120.442 -37.5455 122.391 -37.5455ZM122.345 -42.3409C120.663 -42.3409 119.8 -43.6136 119.8 -45.4318C119.8 -47.2045 120.641 -48.6364 122.345 -48.6364C123.982 -48.6364 124.845 -47.3182 124.845 -45.4318C124.845 -43.5 123.959 -42.3409 122.345 -42.3409ZM-199.227 -16.8182C-196.864 -16.8182 -195.273 -18.6136 -195.273 -21.3182C-195.273 -24.0455 -196.864 -25.8409 -199.227 -25.8409C-201.591 -25.8409 -203.182 -24.0455 -203.182 -21.3182C-203.182 -18.6136 -201.591 -16.8182 -199.227 -16.8182ZM-199.227 -18.0227C-201.023 -18.0227 -201.841 -19.5682 -201.841 -21.3182C-201.841 -23.0682 -201.023 -24.6364 -199.227 -24.6364C-197.432 -24.6364 -196.614 -23.0682 -196.614 -21.3182C-196.614 -19.5682 -197.432 -18.0227 -199.227 -18.0227ZM-191.885 -22.25C-191.885 -23.7727 -190.942 -24.6364 -189.658 -24.6364C-188.413 -24.6364 -187.658 -23.8239 -187.658 -22.4545V-17H-186.317V-22.5455C-186.317 -24.7727 -187.504 -25.8409 -189.271 -25.8409C-190.589 -25.8409 -191.408 -25.25 -191.817 -24.3636H-191.93V-25.7273H-193.226V-17H-191.885V-22.25ZM-175.571 -25.7273H-177.435V-27.8182H-178.776V-25.7273H-180.094V-24.5909H-178.776V-19.1364C-178.776 -17.6136 -177.548 -16.8864 -176.412 -16.8864C-175.912 -16.8864 -175.594 -16.9773 -175.412 -17.0455L-175.685 -18.25C-175.798 -18.2273 -175.98 -18.1818 -176.276 -18.1818C-176.866 -18.1818 -177.435 -18.3636 -177.435 -19.5V-24.5909H-175.571V-25.7273ZM-172.026 -22.25C-172.026 -23.7727 -171.054 -24.6364 -169.73 -24.6364C-168.469 -24.6364 -167.707 -23.8409 -167.707 -22.4545V-17H-166.366V-22.5455C-166.366 -24.7898 -167.56 -25.8409 -169.344 -25.8409C-170.719 -25.8409 -171.503 -25.267 -171.912 -24.3636H-172.026V-28.6364H-173.366V-17H-172.026V-22.25ZM-160.254 -16.8182C-158.482 -16.8182 -157.186 -17.7045 -156.777 -19.0227L-158.072 -19.3864C-158.413 -18.4773 -159.203 -18.0227 -160.254 -18.0227C-161.828 -18.0227 -162.913 -19.0398 -162.976 -20.9091H-156.641V-21.4773C-156.641 -24.7273 -158.572 -25.8409 -160.391 -25.8409C-162.754 -25.8409 -164.322 -23.9773 -164.322 -21.2955C-164.322 -18.6136 -162.777 -16.8182 -160.254 -16.8182ZM-162.976 -22.0682C-162.885 -23.4261 -161.925 -24.6364 -160.391 -24.6364C-158.936 -24.6364 -158.004 -23.5455 -158.004 -22.0682H-162.976ZM-148.76 -22.25C-148.76 -23.7727 -147.788 -24.6364 -146.464 -24.6364C-145.203 -24.6364 -144.442 -23.8409 -144.442 -22.4545V-17H-143.101V-22.5455C-143.101 -24.7898 -144.294 -25.8409 -146.078 -25.8409C-147.453 -25.8409 -148.237 -25.267 -148.646 -24.3636H-148.76V-28.6364H-150.101V-17H-148.76V-22.25ZM-137.102 -16.8182C-134.739 -16.8182 -133.148 -18.6136 -133.148 -21.3182C-133.148 -24.0455 -134.739 -25.8409 -137.102 -25.8409C-139.466 -25.8409 -141.057 -24.0455 -141.057 -21.3182C-141.057 -18.6136 -139.466 -16.8182 -137.102 -16.8182ZM-137.102 -18.0227C-138.898 -18.0227 -139.716 -19.5682 -139.716 -21.3182C-139.716 -23.0682 -138.898 -24.6364 -137.102 -24.6364C-135.307 -24.6364 -134.489 -23.0682 -134.489 -21.3182C-134.489 -19.5682 -135.307 -18.0227 -137.102 -18.0227ZM-129.76 -28.6364H-131.101V-17H-129.76V-28.6364ZM-126.44 -13.7273C-125.23 -13.7273 -124.378 -14.3693 -123.872 -15.7273L-120.156 -25.7045L-121.622 -25.7273L-124.031 -18.7727H-124.122L-126.531 -25.7273H-127.986L-124.759 -16.9545L-125.009 -16.2727C-125.497 -14.9432 -126.099 -14.8182 -127.077 -15.0682L-127.418 -13.8864C-127.281 -13.8182 -126.895 -13.7273 -126.44 -13.7273ZM-109.996 -25.7273H-111.95V-26.6136C-111.95 -27.4773 -111.587 -27.9318 -110.7 -27.9318C-110.314 -27.9318 -110.087 -27.8409 -109.95 -27.7955L-109.564 -28.9545C-109.768 -29.0455 -110.178 -29.1818 -110.837 -29.1818C-112.087 -29.1818 -113.291 -28.4318 -113.291 -26.9318V-25.7273H-114.7V-24.5909H-113.291V-17H-111.95V-24.5909H-109.996V-25.7273ZM-108.116 -17H-106.776V-25.7273H-108.116V-17ZM-107.435 -27.1818C-106.912 -27.1818 -106.48 -27.5909 -106.48 -28.0909C-106.48 -28.5909 -106.912 -29 -107.435 -29C-107.957 -29 -108.389 -28.5909 -108.389 -28.0909C-108.389 -27.5909 -107.957 -27.1818 -107.435 -27.1818ZM-100.661 -16.8182C-98.8878 -16.8182 -97.5923 -17.7045 -97.1832 -19.0227L-98.4787 -19.3864C-98.8196 -18.4773 -99.6094 -18.0227 -100.661 -18.0227C-102.234 -18.0227 -103.32 -19.0398 -103.382 -20.9091H-97.0469V-21.4773C-97.0469 -24.7273 -98.9787 -25.8409 -100.797 -25.8409C-103.161 -25.8409 -104.729 -23.9773 -104.729 -21.2955C-104.729 -18.6136 -103.183 -16.8182 -100.661 -16.8182ZM-103.382 -22.0682C-103.291 -23.4261 -102.331 -24.6364 -100.797 -24.6364C-99.3423 -24.6364 -98.4105 -23.5455 -98.4105 -22.0682H-103.382ZM-93.6662 -28.6364H-95.0071V-17H-93.6662V-28.6364ZM-87.9148 -16.8182C-86.233 -16.8182 -85.6648 -17.8636 -85.3693 -18.3409H-85.2102V-17H-83.9148V-28.6364H-85.2557V-24.3409H-85.3693C-85.6648 -24.7955 -86.1875 -25.8409 -87.892 -25.8409C-90.0966 -25.8409 -91.6193 -24.0909 -91.6193 -21.3409C-91.6193 -18.5682 -90.0966 -16.8182 -87.9148 -16.8182ZM-87.733 -18.0227C-89.4148 -18.0227 -90.2784 -19.5 -90.2784 -21.3636C-90.2784 -23.2045 -89.4375 -24.6364 -87.733 -24.6364C-86.0966 -24.6364 -85.233 -23.3182 -85.233 -21.3636C-85.233 -19.3864 -86.1193 -18.0227 -87.733 -18.0227ZM-73.2273 -16.8182C-70.8636 -16.8182 -69.2727 -18.6136 -69.2727 -21.3182C-69.2727 -24.0455 -70.8636 -25.8409 -73.2273 -25.8409C-75.5909 -25.8409 -77.1818 -24.0455 -77.1818 -21.3182C-77.1818 -18.6136 -75.5909 -16.8182 -73.2273 -16.8182ZM-73.2273 -18.0227C-75.0227 -18.0227 -75.8409 -19.5682 -75.8409 -21.3182C-75.8409 -23.0682 -75.0227 -24.6364 -73.2273 -24.6364C-71.4318 -24.6364 -70.6136 -23.0682 -70.6136 -21.3182C-70.6136 -19.5682 -71.4318 -18.0227 -73.2273 -18.0227ZM-63.3395 -25.7273H-65.294V-26.6136C-65.294 -27.4773 -64.9304 -27.9318 -64.044 -27.9318C-63.6577 -27.9318 -63.4304 -27.8409 -63.294 -27.7955L-62.9077 -28.9545C-63.1122 -29.0455 -63.5213 -29.1818 -64.1804 -29.1818C-65.4304 -29.1818 -66.6349 -28.4318 -66.6349 -26.9318V-25.7273H-68.044V-24.5909H-66.6349V-17H-65.294V-24.5909H-63.3395V-25.7273ZM-56.7784 -17H-55.3693V-20.7727L-53.9148 -22.4091L-49.8693 -17H-48.1648L-53.0511 -23.3864L-48.1648 -28.6364H-50.0057L-55.233 -22.8636H-55.3693V-28.6364H-56.7784V-17ZM-41.5696 -20.5682C-41.5696 -18.9318 -42.8196 -18.1818 -43.8196 -18.1818C-44.9332 -18.1818 -45.7287 -19 -45.7287 -20.2727V-25.7273H-47.0696V-20.1818C-47.0696 -17.9545 -45.8878 -16.8864 -44.2514 -16.8864C-42.9332 -16.8864 -42.0696 -17.5909 -41.6605 -18.4773H-41.5696V-17H-40.2287V-25.7273H-41.5696V-20.5682ZM-37.7727 -17H-36.4318V-22.5227C-36.4318 -23.7045 -35.5 -24.5682 -34.2273 -24.5682C-33.8693 -24.5682 -33.5 -24.5 -33.4091 -24.4773V-25.8409C-33.5625 -25.8523 -33.9148 -25.8636 -34.1136 -25.8636C-35.1591 -25.8636 -36.0682 -25.2727 -36.3864 -24.4091H-36.4773V-25.7273H-37.7727V-17ZM-26.3196 -20.5682C-26.3196 -18.9318 -27.5696 -18.1818 -28.5696 -18.1818C-29.6832 -18.1818 -30.4787 -19 -30.4787 -20.2727V-25.7273H-31.8196V-20.1818C-31.8196 -17.9545 -30.6378 -16.8864 -29.0014 -16.8864C-27.6832 -16.8864 -26.8196 -17.5909 -26.4105 -18.4773H-26.3196V-17H-24.9787V-25.7273H-26.3196V-20.5682ZM-22.5227 -17H-21.1818V-20.267L-20.2443 -21.1364L-16.9773 -17H-15.2727L-19.233 -22L-15.5455 -25.7273H-17.2045L-21.0227 -21.8409H-21.1818V-28.6364H-22.5227V-17ZM-7.63778 -23.7727C-8.05824 -25.0114 -9.00142 -25.8409 -10.7287 -25.8409C-12.5696 -25.8409 -13.9332 -24.7955 -13.9332 -23.3182C-13.9332 -22.1136 -13.2173 -21.3068 -11.6151 -20.9318L-10.1605 -20.5909C-9.27983 -20.3864 -8.86506 -19.9659 -8.86506 -19.3636C-8.86506 -18.6136 -9.66051 -18 -10.9105 -18C-12.0071 -18 -12.6946 -18.4716 -12.9332 -19.4091L-14.206 -19.0909C-13.8935 -17.608 -12.6719 -16.8182 -10.8878 -16.8182C-8.85938 -16.8182 -7.47869 -17.9261 -7.47869 -19.4318C-7.47869 -20.6477 -8.24006 -21.4148 -9.79688 -21.7955L-11.0923 -22.1136C-12.1264 -22.3693 -12.5923 -22.7159 -12.5923 -23.3864C-12.5923 -24.1364 -11.7969 -24.6818 -10.7287 -24.6818C-9.55824 -24.6818 -9.07528 -24.0341 -8.84233 -23.4318L-7.63778 -23.7727ZM-4.11932 -22.25C-4.11932 -23.7727 -3.14773 -24.6364 -1.82386 -24.6364C-0.5625 -24.6364 0.198864 -23.8409 0.198864 -22.4545V-17H1.53977V-22.5455C1.53977 -24.7898 0.346591 -25.8409 -1.4375 -25.8409C-2.8125 -25.8409 -3.59659 -25.267 -4.00568 -24.3636H-4.11932V-28.6364H-5.46023V-17H-4.11932V-22.25ZM7.65199 -16.8182C9.42472 -16.8182 10.7202 -17.7045 11.1293 -19.0227L9.83381 -19.3864C9.4929 -18.4773 8.70312 -18.0227 7.65199 -18.0227C6.07812 -18.0227 4.9929 -19.0398 4.9304 -20.9091H11.2656V-21.4773C11.2656 -24.7273 9.33381 -25.8409 7.51562 -25.8409C5.15199 -25.8409 3.58381 -23.9773 3.58381 -21.2955C3.58381 -18.6136 5.12926 -16.8182 7.65199 -16.8182ZM4.9304 -22.0682C5.02131 -23.4261 5.98153 -24.6364 7.51562 -24.6364C8.97017 -24.6364 9.90199 -23.5455 9.90199 -22.0682H4.9304ZM17.1009 -25.7273H15.2372V-27.8182H13.8963V-25.7273H12.5781V-24.5909H13.8963V-19.1364C13.8963 -17.6136 15.1236 -16.8864 16.2599 -16.8864C16.7599 -16.8864 17.0781 -16.9773 17.2599 -17.0455L16.9872 -18.25C16.8736 -18.2273 16.6918 -18.1818 16.3963 -18.1818C15.8054 -18.1818 15.2372 -18.3636 15.2372 -19.5V-24.5909H17.1009V-25.7273ZM19.1179 -17H20.4588V-22.5227C20.4588 -23.7045 21.3906 -24.5682 22.6634 -24.5682C23.0213 -24.5682 23.3906 -24.5 23.4815 -24.4773V-25.8409C23.3281 -25.8523 22.9759 -25.8636 22.777 -25.8636C21.7315 -25.8636 20.8224 -25.2727 20.5043 -24.4091H20.4134V-25.7273H19.1179V-17ZM27.6392 -16.7955C29.1619 -16.7955 29.9574 -17.6136 30.2301 -18.1818H30.2983V-17H31.6392V-22.75C31.6392 -25.5227 29.5256 -25.8409 28.4119 -25.8409C27.0938 -25.8409 25.5938 -25.3864 24.9119 -23.7955L26.1847 -23.3409C26.4801 -23.9773 27.179 -24.6591 28.4574 -24.6591C29.6903 -24.6591 30.2983 -24.0057 30.2983 -22.8864V-22.8409C30.2983 -22.1932 29.6392 -22.25 28.0483 -22.0455C26.429 -21.8352 24.6619 -21.4773 24.6619 -19.4773C24.6619 -17.7727 25.9801 -16.7955 27.6392 -16.7955ZM27.8438 -18C26.7756 -18 26.0028 -18.4773 26.0028 -19.4091C26.0028 -20.4318 26.9347 -20.75 27.9801 -20.8864C28.5483 -20.9545 30.071 -21.1136 30.2983 -21.3864V-20.1591C30.2983 -19.0682 29.4347 -18 27.8438 -18ZM36.0866 -18.5909H34.6321L34.5639 -17.9545C34.3991 -16.4148 34.0753 -14.8807 33.9276 -14.1591H34.9503C35.223 -14.9318 35.8026 -16.6818 35.9957 -17.9773L36.0866 -18.5909ZM45.6392 -16.7955C47.1619 -16.7955 47.9574 -17.6136 48.2301 -18.1818H48.2983V-17H49.6392V-22.75C49.6392 -25.5227 47.5256 -25.8409 46.4119 -25.8409C45.0938 -25.8409 43.5938 -25.3864 42.9119 -23.7955L44.1847 -23.3409C44.4801 -23.9773 45.179 -24.6591 46.4574 -24.6591C47.6903 -24.6591 48.2983 -24.0057 48.2983 -22.8864V-22.8409C48.2983 -22.1932 47.6392 -22.25 46.0483 -22.0455C44.429 -21.8352 42.6619 -21.4773 42.6619 -19.4773C42.6619 -17.7727 43.9801 -16.7955 45.6392 -16.7955ZM45.8438 -18C44.7756 -18 44.0028 -18.4773 44.0028 -19.4091C44.0028 -20.4318 44.9347 -20.75 45.9801 -20.8864C46.5483 -20.9545 48.071 -21.1136 48.2983 -21.3864V-20.1591C48.2983 -19.0682 47.4347 -18 45.8438 -18ZM53.4276 -22.25C53.4276 -23.7727 54.3707 -24.6364 55.6548 -24.6364C56.8991 -24.6364 57.6548 -23.8239 57.6548 -22.4545V-17H58.9957V-22.5455C58.9957 -24.7727 57.8082 -25.8409 56.0412 -25.8409C54.723 -25.8409 53.9048 -25.25 53.4957 -24.3636H53.3821V-25.7273H52.0866V-17H53.4276V-22.25ZM64.7415 -16.8182C66.4233 -16.8182 66.9915 -17.8636 67.2869 -18.3409H67.446V-17H68.7415V-28.6364H67.4006V-24.3409H67.2869C66.9915 -24.7955 66.4688 -25.8409 64.7642 -25.8409C62.5597 -25.8409 61.0369 -24.0909 61.0369 -21.3409C61.0369 -18.5682 62.5597 -16.8182 64.7415 -16.8182ZM64.9233 -18.0227C63.2415 -18.0227 62.3778 -19.5 62.3778 -21.3636C62.3778 -23.2045 63.2188 -24.6364 64.9233 -24.6364C66.5597 -24.6364 67.4233 -23.3182 67.4233 -21.3636C67.4233 -19.3864 66.5369 -18.0227 64.9233 -18.0227ZM-199.477 7.18182C-197.795 7.18182 -197.227 6.13636 -196.932 5.65909H-196.773V7H-195.477V-4.63636H-196.818V-0.340909H-196.932C-197.227 -0.795455 -197.75 -1.84091 -199.455 -1.84091C-201.659 -1.84091 -203.182 -0.0909095 -203.182 2.65909C-203.182 5.43182 -201.659 7.18182 -199.477 7.18182ZM-199.295 5.97727C-200.977 5.97727 -201.841 4.5 -201.841 2.63636C-201.841 0.795455 -201 -0.636364 -199.295 -0.636364C-197.659 -0.636364 -196.795 0.681818 -196.795 2.63636C-196.795 4.61364 -197.682 5.97727 -199.295 5.97727ZM-189.176 7.18182C-187.403 7.18182 -186.108 6.29545 -185.699 4.97727L-186.994 4.61364C-187.335 5.52273 -188.125 5.97727 -189.176 5.97727C-190.75 5.97727 -191.835 4.96023 -191.898 3.09091H-185.562V2.52273C-185.562 -0.727273 -187.494 -1.84091 -189.312 -1.84091C-191.676 -1.84091 -193.244 0.022727 -193.244 2.70455C-193.244 5.38636 -191.699 7.18182 -189.176 7.18182ZM-191.898 1.93182C-191.807 0.573864 -190.847 -0.636364 -189.312 -0.636364C-187.858 -0.636364 -186.926 0.454545 -186.926 1.93182H-191.898ZM-177.341 0.227273C-177.761 -1.01136 -178.705 -1.84091 -180.432 -1.84091C-182.273 -1.84091 -183.636 -0.795455 -183.636 0.681818C-183.636 1.88636 -182.92 2.69318 -181.318 3.06818L-179.864 3.40909C-178.983 3.61364 -178.568 4.03409 -178.568 4.63636C-178.568 5.38636 -179.364 6 -180.614 6C-181.71 6 -182.398 5.52841 -182.636 4.59091L-183.909 4.90909C-183.597 6.39205 -182.375 7.18182 -180.591 7.18182C-178.562 7.18182 -177.182 6.07386 -177.182 4.56818C-177.182 3.35227 -177.943 2.58523 -179.5 2.20455L-180.795 1.88636C-181.83 1.63068 -182.295 1.28409 -182.295 0.613636C-182.295 -0.136364 -181.5 -0.681818 -180.432 -0.681818C-179.261 -0.681818 -178.778 -0.034091 -178.545 0.568182L-177.341 0.227273ZM-175.163 7H-173.822V-1.72727H-175.163V7ZM-174.482 -3.18182C-173.959 -3.18182 -173.527 -3.59091 -173.527 -4.09091C-173.527 -4.59091 -173.959 -5 -174.482 -5C-175.004 -5 -175.436 -4.59091 -175.436 -4.09091C-175.436 -3.59091 -175.004 -3.18182 -174.482 -3.18182ZM-171.366 7H-170.026V1.47727C-170.026 0.295455 -169.094 -0.568182 -167.821 -0.568182C-167.463 -0.568182 -167.094 -0.5 -167.003 -0.477273V-1.84091C-167.156 -1.85227 -167.509 -1.86364 -167.707 -1.86364C-168.753 -1.86364 -169.662 -1.27273 -169.98 -0.409091H-170.071V-1.72727H-171.366V7ZM-165.413 7H-164.072V-1.72727H-165.413V7ZM-164.732 -3.18182C-164.209 -3.18182 -163.777 -3.59091 -163.777 -4.09091C-163.777 -4.59091 -164.209 -5 -164.732 -5C-165.254 -5 -165.686 -4.59091 -165.686 -4.09091C-165.686 -3.59091 -165.254 -3.18182 -164.732 -3.18182ZM-160.276 1.75C-160.276 0.227273 -159.332 -0.636364 -158.048 -0.636364C-156.804 -0.636364 -156.048 0.176136 -156.048 1.54545V7H-154.707V1.45455C-154.707 -0.772727 -155.895 -1.84091 -157.662 -1.84091C-158.98 -1.84091 -159.798 -1.25 -160.207 -0.363636H-160.321V-1.72727H-161.616V7H-160.276V1.75ZM-148.734 10.4545C-146.643 10.4545 -144.962 9.5 -144.962 7.25V-1.72727H-146.257V-0.340909H-146.393C-146.689 -0.795455 -147.234 -1.84091 -148.939 -1.84091C-151.143 -1.84091 -152.666 -0.0909095 -152.666 2.59091C-152.666 5.31818 -151.075 6.86364 -148.962 6.86364C-147.257 6.86364 -146.712 5.86364 -146.416 5.38636H-146.303V7.15909C-146.303 8.61364 -147.325 9.27273 -148.734 9.27273C-150.32 9.27273 -150.876 8.4375 -151.234 7.95455L-152.303 8.70455C-151.757 9.61932 -150.683 10.4545 -148.734 10.4545ZM-148.78 5.65909C-150.462 5.65909 -151.325 4.38636 -151.325 2.56818C-151.325 0.795455 -150.484 -0.636364 -148.78 -0.636364C-147.143 -0.636364 -146.28 0.681818 -146.28 2.56818C-146.28 4.5 -147.166 5.65909 -148.78 5.65909ZM-134.212 -1.72727H-136.075V-3.81818H-137.416V-1.72727H-138.734V-0.590909H-137.416V4.86364C-137.416 6.38636 -136.189 7.11364 -135.053 7.11364C-134.553 7.11364 -134.234 7.02273 -134.053 6.95455L-134.325 5.75C-134.439 5.77273 -134.621 5.81818 -134.916 5.81818C-135.507 5.81818 -136.075 5.63636 -136.075 4.5V-0.590909H-134.212V-1.72727ZM-128.743 7.18182C-126.379 7.18182 -124.788 5.38636 -124.788 2.68182C-124.788 -0.045455 -126.379 -1.84091 -128.743 -1.84091C-131.107 -1.84091 -132.697 -0.045455 -132.697 2.68182C-132.697 5.38636 -131.107 7.18182 -128.743 7.18182ZM-128.743 5.97727C-130.538 5.97727 -131.357 4.43182 -131.357 2.68182C-131.357 0.931818 -130.538 -0.636364 -128.743 -0.636364C-126.947 -0.636364 -126.129 0.931818 -126.129 2.68182C-126.129 4.43182 -126.947 5.97727 -128.743 5.97727ZM-114.355 -1.72727H-116.31V-2.61364C-116.31 -3.47727 -115.946 -3.93182 -115.06 -3.93182C-114.673 -3.93182 -114.446 -3.84091 -114.31 -3.79545L-113.923 -4.95455C-114.128 -5.04545 -114.537 -5.18182 -115.196 -5.18182C-116.446 -5.18182 -117.651 -4.43182 -117.651 -2.93182V-1.72727H-119.06V-0.590909H-117.651V7H-116.31V-0.590909H-114.355V-1.72727ZM-112.476 7H-111.135V-1.72727H-112.476V7ZM-111.794 -3.18182C-111.271 -3.18182 -110.839 -3.59091 -110.839 -4.09091C-110.839 -4.59091 -111.271 -5 -111.794 -5C-112.317 -5 -112.749 -4.59091 -112.749 -4.09091C-112.749 -3.59091 -112.317 -3.18182 -111.794 -3.18182ZM-105.156 10.4545C-103.065 10.4545 -101.384 9.5 -101.384 7.25V-1.72727H-102.679V-0.340909H-102.815C-103.111 -0.795455 -103.656 -1.84091 -105.361 -1.84091C-107.565 -1.84091 -109.088 -0.0909095 -109.088 2.59091C-109.088 5.31818 -107.497 6.86364 -105.384 6.86364C-103.679 6.86364 -103.134 5.86364 -102.838 5.38636H-102.724V7.15909C-102.724 8.61364 -103.747 9.27273 -105.156 9.27273C-106.741 9.27273 -107.298 8.4375 -107.656 7.95455L-108.724 8.70455C-108.179 9.61932 -107.105 10.4545 -105.156 10.4545ZM-105.202 5.65909C-106.884 5.65909 -107.747 4.38636 -107.747 2.56818C-107.747 0.795455 -106.906 -0.636364 -105.202 -0.636364C-103.565 -0.636364 -102.702 0.681818 -102.702 2.56818C-102.702 4.5 -103.588 5.65909 -105.202 5.65909ZM-97.5881 1.75C-97.5881 0.227273 -96.6165 -0.636364 -95.2926 -0.636364C-94.0312 -0.636364 -93.2699 0.159091 -93.2699 1.54545V7H-91.929V1.45455C-91.929 -0.789773 -93.1222 -1.84091 -94.9062 -1.84091C-96.2812 -1.84091 -97.0653 -1.26705 -97.4744 -0.363636H-97.5881V-4.63636H-98.929V7H-97.5881V1.75ZM-85.6804 -1.72727H-87.544V-3.81818H-88.8849V-1.72727H-90.2031V-0.590909H-88.8849V4.86364C-88.8849 6.38636 -87.6577 7.11364 -86.5213 7.11364C-86.0213 7.11364 -85.7031 7.02273 -85.5213 6.95455L-85.794 5.75C-85.9077 5.77273 -86.0895 5.81818 -86.3849 5.81818C-86.9759 5.81818 -87.544 5.63636 -87.544 4.5V-0.590909H-85.6804V-1.72727ZM-81.6634 5.40909H-83.1179L-83.1861 6.04545C-83.3509 7.58523 -83.6747 9.11932 -83.8224 9.84091H-82.7997C-82.527 9.06818 -81.9474 7.31818 -81.7543 6.02273L-81.6634 5.40909ZM-72.7017 7H-71.3835L-69.4744 0.295455H-69.3381L-67.429 7H-66.1108L-63.4517 -1.72727H-64.8608L-66.7472 4.93182H-66.8381L-68.679 -1.72727H-70.1108L-71.9744 4.95455H-72.0653L-73.9517 -1.72727H-75.3608L-72.7017 7ZM-60.3381 1.75C-60.3381 0.227273 -59.3665 -0.636364 -58.0426 -0.636364C-56.7812 -0.636364 -56.0199 0.159091 -56.0199 1.54545V7H-54.679V1.45455C-54.679 -0.789773 -55.8722 -1.84091 -57.6562 -1.84091C-59.0312 -1.84091 -59.8153 -1.26705 -60.2244 -0.363636H-60.3381V-4.63636H-61.679V7H-60.3381V1.75ZM-49.6577 7.20455C-48.1349 7.20455 -47.3395 6.38636 -47.0668 5.81818H-46.9986V7H-45.6577V1.25C-45.6577 -1.52273 -47.7713 -1.84091 -48.8849 -1.84091C-50.2031 -1.84091 -51.7031 -1.38636 -52.3849 0.204545L-51.1122 0.659091C-50.8168 0.022727 -50.1179 -0.659091 -48.8395 -0.659091C-47.6065 -0.659091 -46.9986 -0.00568199 -46.9986 1.11364V1.15909C-46.9986 1.80682 -47.6577 1.75 -49.2486 1.95455C-50.8679 2.16477 -52.6349 2.52273 -52.6349 4.52273C-52.6349 6.22727 -51.3168 7.20455 -49.6577 7.20455ZM-49.4531 6C-50.5213 6 -51.294 5.52273 -51.294 4.59091C-51.294 3.56818 -50.3622 3.25 -49.3168 3.11364C-48.7486 3.04545 -47.2259 2.88636 -46.9986 2.61364V3.84091C-46.9986 4.93182 -47.8622 6 -49.4531 6ZM-39.4148 -1.72727H-41.2784V-3.81818H-42.6193V-1.72727H-43.9375V-0.590909H-42.6193V4.86364C-42.6193 6.38636 -41.392 7.11364 -40.2557 7.11364C-39.7557 7.11364 -39.4375 7.02273 -39.2557 6.95455L-39.5284 5.75C-39.642 5.77273 -39.8239 5.81818 -40.1193 5.81818C-40.7102 5.81818 -41.2784 5.63636 -41.2784 4.5V-0.590909H-39.4148V-1.72727ZM-29.6023 7.18182C-27.9205 7.18182 -27.3523 6.13636 -27.0568 5.65909H-26.8977V7H-25.6023V-4.63636H-26.9432V-0.340909H-27.0568C-27.3523 -0.795455 -27.875 -1.84091 -29.5795 -1.84091C-31.7841 -1.84091 -33.3068 -0.0909095 -33.3068 2.65909C-33.3068 5.43182 -31.7841 7.18182 -29.6023 7.18182ZM-29.4205 5.97727C-31.1023 5.97727 -31.9659 4.5 -31.9659 2.63636C-31.9659 0.795455 -31.125 -0.636364 -29.4205 -0.636364C-27.7841 -0.636364 -26.9205 0.681818 -26.9205 2.63636C-26.9205 4.61364 -27.8068 5.97727 -29.4205 5.97727ZM-22.9602 7H-21.6193V-1.72727H-22.9602V7ZM-22.2784 -3.18182C-21.7557 -3.18182 -21.3239 -3.59091 -21.3239 -4.09091C-21.3239 -4.59091 -21.7557 -5 -22.2784 -5C-22.8011 -5 -23.233 -4.59091 -23.233 -4.09091C-23.233 -3.59091 -22.8011 -3.18182 -22.2784 -3.18182ZM-15.8679 7.18182C-14.1861 7.18182 -13.6179 6.13636 -13.3224 5.65909H-13.1634V7H-11.8679V-4.63636H-13.2088V-0.340909H-13.3224C-13.6179 -0.795455 -14.1406 -1.84091 -15.8452 -1.84091C-18.0497 -1.84091 -19.5724 -0.0909095 -19.5724 2.65909C-19.5724 5.43182 -18.0497 7.18182 -15.8679 7.18182ZM-15.6861 5.97727C-17.3679 5.97727 -18.2315 4.5 -18.2315 2.63636C-18.2315 0.795455 -17.3906 -0.636364 -15.6861 -0.636364C-14.0497 -0.636364 -13.1861 0.681818 -13.1861 2.63636C-13.1861 4.61364 -14.0724 5.97727 -15.6861 5.97727ZM-4.72585 7H-3.38494V1.54545C-3.38494 0.267045 -2.45312 -0.636364 -1.40767 -0.636364C-0.390625 -0.636364 0.319602 0.028409 0.319602 1.02273V7H1.68324V1.31818C1.68324 0.193182 2.38778 -0.636364 3.61506 -0.636364C4.5696 -0.636364 5.38778 -0.130682 5.38778 1.15909V7H6.72869V1.15909C6.72869 -0.892045 5.62642 -1.84091 4.0696 -1.84091C2.8196 -1.84091 1.90483 -1.26705 1.45597 -0.363636H1.36506C0.933239 -1.29545 0.171875 -1.84091 -0.975852 -1.84091C-2.11222 -1.84091 -2.95312 -1.29545 -3.31676 -0.363636H-3.4304V-1.72727H-4.72585V7ZM9.73153 10.2727C10.9418 10.2727 11.794 9.63068 12.2997 8.27273L16.0156 -1.70455L14.5497 -1.72727L12.1406 5.22727H12.0497L9.64062 -1.72727H8.18608L11.4134 7.04545L11.1634 7.72727C10.6747 9.05682 10.0724 9.18182 9.09517 8.93182L8.75426 10.1136C8.89062 10.1818 9.27699 10.2727 9.73153 10.2727ZM28.4716 0.227273C28.0511 -1.01136 27.108 -1.84091 25.3807 -1.84091C23.5398 -1.84091 22.1761 -0.795455 22.1761 0.681818C22.1761 1.88636 22.892 2.69318 24.4943 3.06818L25.9489 3.40909C26.8295 3.61364 27.2443 4.03409 27.2443 4.63636C27.2443 5.38636 26.4489 6 25.1989 6C24.1023 6 23.4148 5.52841 23.1761 4.59091L21.9034 4.90909C22.2159 6.39205 23.4375 7.18182 25.2216 7.18182C27.25 7.18182 28.6307 6.07386 28.6307 4.56818C28.6307 3.35227 27.8693 2.58523 26.3125 2.20455L25.017 1.88636C23.983 1.63068 23.517 1.28409 23.517 0.613636C23.517 -0.136364 24.3125 -0.681818 25.3807 -0.681818C26.5511 -0.681818 27.0341 -0.034091 27.267 0.568182L28.4716 0.227273ZM34.1946 7.18182C36.5582 7.18182 38.1491 5.38636 38.1491 2.68182C38.1491 -0.045455 36.5582 -1.84091 34.1946 -1.84091C31.831 -1.84091 30.2401 -0.045455 30.2401 2.68182C30.2401 5.38636 31.831 7.18182 34.1946 7.18182ZM34.1946 5.97727C32.3991 5.97727 31.581 4.43182 31.581 2.68182C31.581 0.931818 32.3991 -0.636364 34.1946 -0.636364C35.9901 -0.636364 36.8082 0.931818 36.8082 2.68182C36.8082 4.43182 35.9901 5.97727 34.1946 5.97727ZM41.5369 1.75C41.5369 0.227273 42.4801 -0.636364 43.7642 -0.636364C45.0085 -0.636364 45.7642 0.176136 45.7642 1.54545V7H47.1051V1.45455C47.1051 -0.772727 45.9176 -1.84091 44.1506 -1.84091C42.8324 -1.84091 42.0142 -1.25 41.6051 -0.363636H41.4915V-1.72727H40.196V7H41.5369V1.75ZM55.7372 0.227273C55.3168 -1.01136 54.3736 -1.84091 52.6463 -1.84091C50.8054 -1.84091 49.4418 -0.795455 49.4418 0.681818C49.4418 1.88636 50.1577 2.69318 51.7599 3.06818L53.2145 3.40909C54.0952 3.61364 54.5099 4.03409 54.5099 4.63636C54.5099 5.38636 53.7145 6 52.4645 6C51.3679 6 50.6804 5.52841 50.4418 4.59091L49.169 4.90909C49.4815 6.39205 50.7031 7.18182 52.4872 7.18182C54.5156 7.18182 55.8963 6.07386 55.8963 4.56818C55.8963 3.35227 55.1349 2.58523 53.5781 2.20455L52.2827 1.88636C51.2486 1.63068 50.7827 1.28409 50.7827 0.613636C50.7827 -0.136364 51.5781 -0.681818 52.6463 -0.681818C53.8168 -0.681818 54.2997 -0.034091 54.5327 0.568182L55.7372 0.227273ZM64.983 7.20455C66.5057 7.20455 67.3011 6.38636 67.5739 5.81818H67.642V7H68.983V1.25C68.983 -1.52273 66.8693 -1.84091 65.7557 -1.84091C64.4375 -1.84091 62.9375 -1.38636 62.2557 0.204545L63.5284 0.659091C63.8239 0.022727 64.5227 -0.659091 65.8011 -0.659091C67.0341 -0.659091 67.642 -0.00568199 67.642 1.11364V1.15909C67.642 1.80682 66.983 1.75 65.392 1.95455C63.7727 2.16477 62.0057 2.52273 62.0057 4.52273C62.0057 6.22727 63.3239 7.20455 64.983 7.20455ZM65.1875 6C64.1193 6 63.3466 5.52273 63.3466 4.59091C63.3466 3.56818 64.2784 3.25 65.3239 3.11364C65.892 3.04545 67.4148 2.88636 67.642 2.61364V3.84091C67.642 4.93182 66.7784 6 65.1875 6ZM72.7713 1.75C72.7713 0.227273 73.7145 -0.636364 74.9986 -0.636364C76.2429 -0.636364 76.9986 0.176136 76.9986 1.54545V7H78.3395V1.45455C78.3395 -0.772727 77.152 -1.84091 75.3849 -1.84091C74.0668 -1.84091 73.2486 -1.25 72.8395 -0.363636H72.7259V-1.72727H71.4304V7H72.7713V1.75ZM84.0852 7.18182C85.767 7.18182 86.3352 6.13636 86.6307 5.65909H86.7898V7H88.0852V-4.63636H86.7443V-0.340909H86.6307C86.3352 -0.795455 85.8125 -1.84091 84.108 -1.84091C81.9034 -1.84091 80.3807 -0.0909095 80.3807 2.65909C80.3807 5.43182 81.9034 7.18182 84.0852 7.18182ZM84.267 5.97727C82.5852 5.97727 81.7216 4.5 81.7216 2.63636C81.7216 0.795455 82.5625 -0.636364 84.267 -0.636364C85.9034 -0.636364 86.767 0.681818 86.767 2.63636C86.767 4.61364 85.8807 5.97727 84.267 5.97727ZM99.0227 -1.72727H97.1591V-3.81818H95.8182V-1.72727H94.5V-0.590909H95.8182V4.86364C95.8182 6.38636 97.0455 7.11364 98.1818 7.11364C98.6818 7.11364 99 7.02273 99.1818 6.95455L98.9091 5.75C98.7955 5.77273 98.6136 5.81818 98.3182 5.81818C97.7273 5.81818 97.1591 5.63636 97.1591 4.5V-0.590909H99.0227V-1.72727ZM102.568 1.75C102.568 0.227273 103.54 -0.636364 104.864 -0.636364C106.125 -0.636364 106.886 0.159091 106.886 1.54545V7H108.227V1.45455C108.227 -0.789773 107.034 -1.84091 105.25 -1.84091C103.875 -1.84091 103.091 -1.26705 102.682 -0.363636H102.568V-4.63636H101.227V7H102.568V1.75ZM114.339 7.18182C116.112 7.18182 117.408 6.29545 117.817 4.97727L116.521 4.61364C116.18 5.52273 115.391 5.97727 114.339 5.97727C112.766 5.97727 111.68 4.96023 111.618 3.09091H117.953V2.52273C117.953 -0.727273 116.021 -1.84091 114.203 -1.84091C111.839 -1.84091 110.271 0.022727 110.271 2.70455C110.271 5.38636 111.817 7.18182 114.339 7.18182ZM111.618 1.93182C111.709 0.573864 112.669 -0.636364 114.203 -0.636364C115.658 -0.636364 116.589 0.454545 116.589 1.93182H111.618ZM-196.591 24.2273C-197.011 22.9886 -197.955 22.1591 -199.682 22.1591C-201.523 22.1591 -202.886 23.2045 -202.886 24.6818C-202.886 25.8864 -202.17 26.6932 -200.568 27.0682L-199.114 27.4091C-198.233 27.6136 -197.818 28.0341 -197.818 28.6364C-197.818 29.3864 -198.614 30 -199.864 30C-200.96 30 -201.648 29.5284 -201.886 28.5909L-203.159 28.9091C-202.847 30.392 -201.625 31.1818 -199.841 31.1818C-197.812 31.1818 -196.432 30.0739 -196.432 28.5682C-196.432 27.3523 -197.193 26.5852 -198.75 26.2045L-200.045 25.8864C-201.08 25.6307 -201.545 25.2841 -201.545 24.6136C-201.545 23.8636 -200.75 23.3182 -199.682 23.3182C-198.511 23.3182 -198.028 23.9659 -197.795 24.5682L-196.591 24.2273ZM-190.868 31.1818C-188.504 31.1818 -186.913 29.3864 -186.913 26.6818C-186.913 23.9545 -188.504 22.1591 -190.868 22.1591C-193.232 22.1591 -194.822 23.9545 -194.822 26.6818C-194.822 29.3864 -193.232 31.1818 -190.868 31.1818ZM-190.868 29.9773C-192.663 29.9773 -193.482 28.4318 -193.482 26.6818C-193.482 24.9318 -192.663 23.3636 -190.868 23.3636C-189.072 23.3636 -188.254 24.9318 -188.254 26.6818C-188.254 28.4318 -189.072 29.9773 -190.868 29.9773ZM-183.526 25.75C-183.526 24.2273 -182.582 23.3636 -181.298 23.3636C-180.054 23.3636 -179.298 24.1761 -179.298 25.5455V31H-177.957V25.4545C-177.957 23.2273 -179.145 22.1591 -180.912 22.1591C-182.23 22.1591 -183.048 22.75 -183.457 23.6364H-183.571V22.2727H-184.866V31H-183.526V25.75ZM-169.325 24.2273C-169.746 22.9886 -170.689 22.1591 -172.416 22.1591C-174.257 22.1591 -175.621 23.2045 -175.621 24.6818C-175.621 25.8864 -174.905 26.6932 -173.303 27.0682L-171.848 27.4091C-170.967 27.6136 -170.553 28.0341 -170.553 28.6364C-170.553 29.3864 -171.348 30 -172.598 30C-173.695 30 -174.382 29.5284 -174.621 28.5909L-175.893 28.9091C-175.581 30.392 -174.359 31.1818 -172.575 31.1818C-170.547 31.1818 -169.166 30.0739 -169.166 28.5682C-169.166 27.3523 -169.928 26.5852 -171.484 26.2045L-172.78 25.8864C-173.814 25.6307 -174.28 25.2841 -174.28 24.6136C-174.28 23.8636 -173.484 23.3182 -172.416 23.3182C-171.246 23.3182 -170.763 23.9659 -170.53 24.5682L-169.325 24.2273ZM-159.102 31.1818C-156.739 31.1818 -155.148 29.3864 -155.148 26.6818C-155.148 23.9545 -156.739 22.1591 -159.102 22.1591C-161.466 22.1591 -163.057 23.9545 -163.057 26.6818C-163.057 29.3864 -161.466 31.1818 -159.102 31.1818ZM-159.102 29.9773C-160.898 29.9773 -161.716 28.4318 -161.716 26.6818C-161.716 24.9318 -160.898 23.3636 -159.102 23.3636C-157.307 23.3636 -156.489 24.9318 -156.489 26.6818C-156.489 28.4318 -157.307 29.9773 -159.102 29.9773ZM-149.214 22.2727H-151.169V21.3864C-151.169 20.5227 -150.805 20.0682 -149.919 20.0682C-149.533 20.0682 -149.305 20.1591 -149.169 20.2045L-148.783 19.0455C-148.987 18.9545 -149.396 18.8182 -150.055 18.8182C-151.305 18.8182 -152.51 19.5682 -152.51 21.0682V22.2727H-153.919V23.4091H-152.51V31H-151.169V23.4091H-149.214V22.2727ZM-142.653 31H-141.244V26.75H-138.699C-135.989 26.75 -134.767 25.1023 -134.767 23.0455C-134.767 20.9886 -135.989 19.3636 -138.722 19.3636H-142.653V31ZM-141.244 25.5V20.6136H-138.767C-136.875 20.6136 -136.153 21.6477 -136.153 23.0455C-136.153 24.4432 -136.875 25.5 -138.744 25.5H-141.244ZM-130.111 31.2045C-128.588 31.2045 -127.793 30.3864 -127.52 29.8182H-127.452V31H-126.111V25.25C-126.111 22.4773 -128.224 22.1591 -129.338 22.1591C-130.656 22.1591 -132.156 22.6136 -132.838 24.2045L-131.565 24.6591C-131.27 24.0227 -130.571 23.3409 -129.293 23.3409C-128.06 23.3409 -127.452 23.9943 -127.452 25.1136V25.1591C-127.452 25.8068 -128.111 25.75 -129.702 25.9545C-131.321 26.1648 -133.088 26.5227 -133.088 28.5227C-133.088 30.2273 -131.77 31.2045 -130.111 31.2045ZM-129.906 30C-130.974 30 -131.747 29.5227 -131.747 28.5909C-131.747 27.5682 -130.815 27.25 -129.77 27.1136C-129.202 27.0455 -127.679 26.8864 -127.452 26.6136V27.8409C-127.452 28.9318 -128.315 30 -129.906 30ZM-122.322 25.75C-122.322 24.2273 -121.379 23.3636 -120.095 23.3636C-118.851 23.3636 -118.095 24.1761 -118.095 25.5455V31H-116.754V25.4545C-116.754 23.2273 -117.942 22.1591 -119.709 22.1591C-121.027 22.1591 -121.845 22.75 -122.254 23.6364H-122.368V22.2727H-123.663V31H-122.322V25.75ZM-111.009 31.1818C-109.327 31.1818 -108.759 30.1364 -108.463 29.6591H-108.304V31H-107.009V19.3636H-108.349V23.6591H-108.463C-108.759 23.2045 -109.281 22.1591 -110.986 22.1591C-113.19 22.1591 -114.713 23.9091 -114.713 26.6591C-114.713 29.4318 -113.19 31.1818 -111.009 31.1818ZM-110.827 29.9773C-112.509 29.9773 -113.372 28.5 -113.372 26.6364C-113.372 24.7955 -112.531 23.3636 -110.827 23.3636C-109.19 23.3636 -108.327 24.6818 -108.327 26.6364C-108.327 28.6136 -109.213 29.9773 -110.827 29.9773ZM-98.8665 27.4318C-98.8665 29.0682 -100.116 29.8182 -101.116 29.8182C-102.23 29.8182 -103.026 29 -103.026 27.7273V22.2727H-104.366V27.8182C-104.366 30.0455 -103.185 31.1136 -101.548 31.1136C-100.23 31.1136 -99.3665 30.4091 -98.9574 29.5227H-98.8665V31H-97.5256V22.2727H-98.8665V27.4318ZM-87.2741 31.1818C-85.5923 31.1818 -85.0241 30.1364 -84.7287 29.6591H-84.5696V31H-83.2741V19.3636H-84.6151V23.6591H-84.7287C-85.0241 23.2045 -85.5469 22.1591 -87.2514 22.1591C-89.456 22.1591 -90.9787 23.9091 -90.9787 26.6591C-90.9787 29.4318 -89.456 31.1818 -87.2741 31.1818ZM-87.0923 29.9773C-88.7741 29.9773 -89.6378 28.5 -89.6378 26.6364C-89.6378 24.7955 -88.7969 23.3636 -87.0923 23.3636C-85.456 23.3636 -84.5923 24.6818 -84.5923 26.6364C-84.5923 28.6136 -85.4787 29.9773 -87.0923 29.9773ZM-77.0866 31.1818C-74.723 31.1818 -73.1321 29.3864 -73.1321 26.6818C-73.1321 23.9545 -74.723 22.1591 -77.0866 22.1591C-79.4503 22.1591 -81.0412 23.9545 -81.0412 26.6818C-81.0412 29.3864 -79.4503 31.1818 -77.0866 31.1818ZM-77.0866 29.9773C-78.8821 29.9773 -79.7003 28.4318 -79.7003 26.6818C-79.7003 24.9318 -78.8821 23.3636 -77.0866 23.3636C-75.2912 23.3636 -74.473 24.9318 -74.473 26.6818C-74.473 28.4318 -75.2912 29.9773 -77.0866 29.9773ZM-69.3352 27.7273H-67.9716V27.6591C-67.9489 26.25 -67.5852 25.6364 -66.5852 25.0114C-65.5852 24.4034 -64.9943 23.5284 -64.9943 22.2727C-64.9943 20.5 -66.2898 19.2045 -68.2898 19.2045C-70.1307 19.2045 -71.5909 20.3409 -71.6761 22.2727H-70.2443C-70.1591 20.9318 -69.2216 20.3864 -68.2898 20.3864C-67.2216 20.3864 -66.358 21.0909 -66.358 22.2045C-66.358 23.108 -66.875 23.7557 -67.5398 24.1591C-68.6534 24.8352 -69.3182 25.4943 -69.3352 27.6591V27.7273ZM-68.608 31.0909C-68.0455 31.0909 -67.5852 30.6307 -67.5852 30.0682C-67.5852 29.5057 -68.0455 29.0455 -68.608 29.0455C-69.1705 29.0455 -69.6307 29.5057 -69.6307 30.0682C-69.6307 30.6307 -69.1705 31.0909 -68.608 31.0909Z"/><g clip-path="url(#clip1)" filter="url(#filter0_i)"><rect width="375" height="48" fill="#fff" transform="translate(-224 -14)"/><path fill="#FEC93B" d="M2.5 13L15.5 1H17.5L19.5 4L19 5L7.5 16.5L3.5 18.5H1L2.5 13Z"/><path fill="#24292E" fill-rule="evenodd" d="M14.7757 0.492002C15.4163 -0.164002 16.455 -0.164 17.0956 0.492003L19.5195 2.97406C20.1602 3.63007 20.1602 4.69366 19.5195 5.34966L16.9015 8.03052L16.8898 8.04222L6.73966 17.9635C6.55422 18.1448 6.32987 18.279 6.08461 18.3554L0.907761 19.9688C0.659368 20.0462 0.389529 19.9771 0.205935 19.7891C0.0223397 19.6011 -0.0451198 19.3248 0.0304781 19.0705L1.5993 13.7921C1.68146 13.5156 1.83186 13.2656 2.03598 13.0661L12.1635 3.16694L14.7757 0.492002ZM12.6434 4.68833L3.00685 14.1076C2.97769 14.1361 2.9562 14.1718 2.94447 14.2113L1.75946 18.1983L5.67521 16.978C5.71025 16.9671 5.7423 16.9479 5.76879 16.922L15.3984 7.50949L12.6434 4.68833ZM16.4044 6.50335L18.5253 4.33155C18.6168 4.23783 18.6168 4.08589 18.5253 3.99218L16.1014 1.51012C16.0099 1.4164 15.8615 1.4164 15.77 1.51011L13.6491 3.68192L16.4044 6.50335Z" clip-rule="evenodd"/></g></g><defs><filter id="filter0_i" width="375" height="48" x="-224" y="-14" color-interpolation-filters="sRGB" filterUnits="userSpaceOnUse"><feFlood flood-opacity="0" result="BackgroundImageFix"/><feBlend in="SourceGraphic" in2="BackgroundImageFix" mode="normal" result="shape"/><feColorMatrix in="SourceAlpha" result="hardAlpha" type="matrix" values="0 0 0 0 0 0 0 0 0 0 0 0 0 0 0 0 0 0 127 0"/><feOffset dy="1"/><feComposite in2="hardAlpha" k2="-1" k3="1" operator="arithmetic"/><feColorMatrix type="matrix" values="0 0 0 0 0.905882 0 0 0 0 0.905882 0 0 0 0 0.905882 0 0 0 1 0"/><feBlend in2="shape" mode="normal" result="effect1_innerShadow"/></filter><clipPath id="clip0"><rect width="375" height="812" fill="#fff" transform="translate(-224 -778)"/></clipPath><clipPath id="clip1"><rect width="375" height="48" fill="#fff" transform="translate(-224 -14)"/></clipPath></defs></svg>