<svg xmlns="http://www.w3.org/2000/svg" viewBox="0 0 100 100"><path d="m82.4 25.6-20-20C62 5.2 61.5 5 61 5H23c-3.3 0-6 2.7-6 6v78c0 3.3 2.7 6 6 6h54c3.3 0 6-2.7 6-6V27c0-.5-.2-1-.6-1.4zM63 11.8 76.2 25H65c-1.1 0-2-.9-2-2V11.8zM77 91H23c-1.1 0-2-.9-2-2V11c0-1.1.9-2 2-2h36v14c0 3.3 2.7 6 6 6h14v60c0 1.1-.9 2-2 2zM28.2 40.8c1 .4 2.2 0 2.6-1l2.6-5.8h9.2l2.6 5.8c.3.7 1.1 1.2 1.8 1.2.3 0 .5-.1.8-.2 1-.4 1.5-1.6 1-2.6l-8-18c-.3-.7-1-1.2-1.8-1.2h-2c-.8 0-1.5.5-1.8 1.2l-8 18c-.5 1 0 2.2 1 2.6zM38 23.7l2.8 6.3h-5.6l2.8-6.3zM73 39c0 1.1-.9 2-2 2H57c-1.1 0-2-.9-2-2s.9-2 2-2h14c1.1 0 2 .9 2 2zm0 14c0 1.1-.9 2-2 2H29c-1.1 0-2-.9-2-2s.9-2 2-2h42c1.1 0 2 .9 2 2zm0 14c0 1.1-.9 2-2 2H29c-1.1 0-2-.9-2-2s.9-2 2-2h42c1.1 0 2 .9 2 2zm0 14c0 1.1-.9 2-2 2H29c-1.1 0-2-.9-2-2s.9-2 2-2h42c1.1 0 2 .9 2 2z"/></svg>