<svg xmlns="http://www.w3.org/2000/svg" width="24" height="24" fill="none" viewBox="0 0 24 24"><path fill="#FFD3A9" d="M3.5 18.5V12H10V18.5H3.5Z"/><path fill="#FFD3A9" d="M14 18.5V12H20.5V18.5H14Z"/><path fill="#000" d="M20.6512 6.07692H21.1897V5H20.6512C16.9726 5 13.9271 7.85234 13.6512 11.4615V19H21.1897V11.4615H14.7529C15.0259 8.44698 17.5668 6.07692 20.6512 6.07692ZM20.1128 17.9231H14.7282V12.5385H20.1128V17.9231Z"/><path fill="#000" d="M2.81024 11.4615V19H10.3487V11.4615H3.9119C4.18486 8.44698 6.72575 6.07692 9.81024 6.07692H10.3487V5H9.81024C6.13158 5 3.08608 7.85234 2.81024 11.4615ZM9.27178 17.9231H3.88716V12.5385H9.27178V17.9231Z"/></svg>