<svg width="61" height="18" viewBox="0 0 61 18" fill="none" xmlns="http://www.w3.org/2000/svg">
<g opacity="0.5" clip-path="url(#clip0)">
<path d="M57.0904 9.12259C56.8398 8.07 55.1356 7.86951 54.2334 7.66902C53.1306 7.4184 52.0279 7.21791 50.9252 7.11766C52.3287 6.5663 53.682 5.81446 54.8348 4.91224C55.1356 4.66162 54.7346 4.21051 54.3837 4.46113C52.0279 6.31569 49.221 6.86704 46.4642 7.76926C46.1134 7.86951 46.2136 8.32062 46.5144 8.37074C46.5144 8.37074 46.6146 8.42087 46.6647 8.37074C47.0156 8.37074 49.4716 7.61889 49.7724 7.51865C50.9252 7.56877 52.0279 7.71914 53.1808 7.96976C54.2334 8.22037 55.9877 8.47099 56.6894 9.32308C56.8398 9.52358 57.1405 9.32308 57.0904 9.12259Z" fill="#1AC3AF"/>
<path d="M58.6442 6.76678C59.2457 7.11765 59.5965 7.81937 59.6467 8.5211C59.7469 8.5211 59.8472 8.57122 59.9474 8.57122C60.2481 8.62134 60.599 8.67147 60.8997 8.67147C61.0501 8.67147 61.1002 8.92208 60.8997 8.92208C60.4988 8.97221 59.9975 9.02233 59.5965 8.92208C59.5965 8.97221 59.5965 9.02233 59.5464 9.07245C59.6467 9.12258 59.7469 9.1727 59.8472 9.22282C60.0978 9.32307 60.3985 9.42332 60.599 9.57369C60.7494 9.67393 60.6491 9.87443 60.4988 9.87443C60.198 9.87443 59.8973 9.77418 59.6467 9.67393C59.5464 9.62381 59.4963 9.62381 59.396 9.57369C59.396 9.57369 59.396 9.62381 59.3459 9.62381L59.396 9.67393C59.6467 9.92455 59.8973 10.125 60.0978 10.3757C60.1479 10.4759 60.0476 10.5762 59.9975 10.526C59.6968 10.3757 59.4462 10.125 59.1956 9.92455C59.1956 9.92455 59.1454 9.92455 59.1454 9.87443C58.9449 10.125 58.5941 10.4258 58.0427 10.526C57.0403 10.6764 55.8373 9.97467 55.6869 8.82184C55.5366 7.81937 56.2383 6.91715 57.0904 6.61641C57.1405 6.61641 57.8923 6.3658 58.6442 6.76678Z" fill="#FF922C"/>
<path d="M56.6895 3.05738C56.5391 3.35812 56.3386 3.65886 56.1883 3.90948C56.1883 3.9596 56.2384 3.9596 56.2384 3.9596C56.2885 3.9596 56.3386 3.90948 56.3887 3.85935C56.6895 3.70898 56.9902 3.55861 57.291 3.40824C57.4413 3.35812 57.5416 3.50849 57.4413 3.60874C57.1907 3.80923 56.89 4.00972 56.6394 4.16009C56.5391 4.21022 56.489 4.26034 56.3887 4.31046V4.36059C56.4389 4.36059 56.489 4.36059 56.5391 4.36059C56.7897 4.36059 57.0404 4.31046 57.291 4.36059C57.3411 4.36059 57.3411 4.51096 57.291 4.51096C57.0404 4.6112 56.7897 4.6112 56.5391 4.6112C56.489 4.6112 56.489 4.6112 56.4389 4.6112C56.4389 4.76157 56.4389 4.91194 56.4389 5.06231C56.3386 5.66379 55.8875 6.31539 55.1357 6.51589C54.2334 6.71638 53.4315 6.01465 53.1809 5.31293C53.1307 5.16256 52.9804 4.8117 53.0806 4.41071C53.3312 3.50849 54.6344 2.85689 55.4865 3.25787C55.687 3.35812 55.8875 3.50849 55.9878 3.65886C56.1883 3.40824 56.3386 3.15763 56.489 2.90701C56.5892 2.75664 56.7897 2.90701 56.6895 3.05738Z" fill="#FF922C"/>
<path d="M46.4641 5.11238C45.7624 5.66373 46.0632 5.363 43.4066 7.06719C41.9029 8.06965 41.101 8.62101 40.8503 8.42051C40.7 8.27014 40.8503 7.81903 40.9506 7.56842C42.1034 4.66127 43.958 0.150176 46.7649 -0.000193386C47.0656 -0.000193386 48.1182 -0.0503167 48.7197 0.651409C48.7698 0.701532 49.0706 1.00227 49.1207 1.45338C49.4214 2.75659 47.6671 4.16004 46.4641 5.11238ZM43.557 3.50843C42.9555 4.5109 42.4543 5.61361 42.0032 6.71632C42.5545 5.86423 43.3064 5.11238 44.0081 4.46078C45.2111 3.25782 46.414 2.05486 47.6671 0.902025C46.9654 0.801779 46.013 1.0524 45.5619 1.35313C44.6597 1.85437 44.0582 2.65634 43.557 3.50843ZM48.1182 1.00227C46.1133 3.15757 43.958 5.01213 42.1535 7.3178C42.755 6.91682 43.4066 6.51583 43.958 6.11484C45.3614 5.1625 47.216 4.05979 48.1182 2.55609C48.6194 1.704 48.5192 1.25289 48.1182 1.00227Z" fill="#1AC3AF"/>
<path d="M49.9728 13.9848C49.622 16.09 46.8652 15.3382 45.562 14.8369C43.2062 13.9848 40.9005 12.0802 38.2941 12.2806C38.244 12.2806 38.1939 12.2806 38.1939 12.2806C38.0936 12.2305 38.0936 12.03 38.1438 11.8797C38.244 11.6792 38.3944 11.5789 38.4946 11.5288C42.8052 9.27325 46.0131 10.376 46.0131 10.376C47.6672 10.6767 50.3237 11.7293 49.9728 13.9848ZM39.848 11.3283C41.6524 11.2281 43.5069 11.5789 45.2111 12.0802C46.364 12.3809 47.5669 12.7318 48.6696 13.1829C48.9203 13.2831 49.1208 13.3834 49.2711 13.4836V13.4335C49.3714 12.7318 48.6195 12.1303 48.1684 11.8295C47.0657 10.9774 45.8126 10.9273 44.6097 10.8271C42.9556 10.6266 41.4018 10.8772 39.848 11.3283ZM49.0706 13.9848C47.8175 13.1327 46.0632 12.6816 44.6598 12.2806C43.0057 11.8295 41.4519 11.629 39.7978 11.5789C40.5497 11.7794 41.3516 12.1303 41.8028 12.3308C43.5069 13.0325 45.0608 14.0851 46.8652 14.4861C47.0657 14.5362 47.5168 14.7367 48.0682 14.6364C48.419 14.5863 48.82 14.3357 49.0706 13.9848Z" fill="#1AC3AF"/>
<path d="M12.8313 17.7938C10.676 18.5457 7.2175 13.6837 6.31528 12.3805C5.46318 11.1776 4.86171 10.125 4.51084 9.42324C3.10739 9.27287 1.70394 9.07237 0.300491 8.87188C-0.200741 8.82176 -0.0503731 8.01979 0.450859 8.12003C2.20517 8.37065 3.95948 8.57114 5.7138 8.77163C6.86663 6.51609 8.37033 3.9598 10.3251 2.30573C11.2274 1.50376 13.2824 0.55142 13.9841 2.10524C14.6859 3.65906 12.8313 5.31313 11.8288 6.1151C10.4755 7.26794 8.82144 8.37065 7.06713 8.922C8.77132 9.02225 10.4254 9.1225 12.1296 9.22274C12.8814 8.77163 13.7335 8.52102 14.4854 8.12003C15.4377 7.56868 16.2898 6.91707 17.0918 6.21535C17.3925 5.96473 17.7935 6.36572 17.5429 6.61633C16.5404 7.51855 15.2372 8.62126 13.8338 9.27287C15.538 9.22274 17.2923 9.17262 18.9965 9.17262C19.4476 7.86941 22.1542 0.451173 25.6629 0.25068C25.9135 0.25068 26.6653 0.200557 27.0162 0.651666C27.8182 1.70425 26.0638 4.56128 24.8108 5.76424C23.5577 6.9672 22.2044 8.32052 20.5503 9.02225C21.5026 8.922 22.5051 8.82176 23.4574 8.67139C24.0589 8.42077 24.7105 8.01978 25.3621 7.41831C26.5651 6.26547 27.2167 5.56375 27.6177 5.01239C27.8182 4.71165 28.2693 5.06251 28.1189 5.36325C27.5675 6.36572 26.7656 7.21781 25.8633 7.91954C25.6629 8.06991 25.4624 8.22028 25.2117 8.42077C28.2693 7.91954 31.2767 7.16769 34.3342 6.31559C34.5848 6.26547 34.685 6.56621 34.4344 6.66646C32.8305 7.36818 31.1764 7.91954 29.4722 8.37065C30.6251 8.67139 31.7278 9.07237 32.7804 9.57361C33.031 9.72398 32.8305 10.0748 32.5799 9.97459C31.0762 9.42324 29.5725 9.02225 28.0186 8.77163C26.3145 9.17262 24.6103 9.47336 22.9061 9.67385C25.5125 10.125 28.169 10.9269 30.4747 12.18C31.9784 13.0321 33.8831 14.8867 32.9808 16.7412C32.0285 18.7462 29.2717 17.3427 28.0688 16.3904C26.7656 15.3879 25.6127 14.1849 24.3095 13.1324C23.0063 12.0296 21.4525 11.1274 20.1994 9.97459C20.1994 9.97459 20.1994 9.97459 20.1493 9.92447C18.1945 9.97459 16.1896 10.0748 14.2347 10.125C14.4352 10.2252 14.6859 10.3255 14.8864 10.4257C15.8888 10.9269 16.791 11.5785 17.6431 12.3304C17.8937 12.581 17.5429 12.9319 17.2923 12.7314C16.8412 12.3304 16.2397 11.9795 14.6357 10.9771C14.0844 10.6763 13.4829 10.3756 12.7311 10.1751C12.5306 10.125 12.3802 10.0748 12.2298 10.0748C10.3251 9.97459 8.47058 9.82422 6.5659 9.72398C8.37033 10.4257 10.0745 11.4783 11.478 12.6812C12.5306 13.5333 14.5856 15.7388 13.4829 17.2425C13.2824 17.5432 12.8814 17.7437 12.8313 17.7938ZM31.7278 16.5909C31.828 16.5407 31.9283 16.4405 31.9784 16.3402C30.3744 14.8365 28.5199 13.8842 26.6152 12.7815C24.9611 11.8292 23.3071 10.8768 21.5527 10.125C21.7031 10.2753 21.9036 10.4257 22.1542 10.5761C22.7557 11.0272 24.2093 12.1299 25.4122 13.1825C28.0688 15.3879 29.0712 16.641 30.7253 16.8415C30.9759 16.7914 31.3769 16.7914 31.7278 16.5909ZM27.8182 11.4783C25.2619 10.6763 22.455 10.0247 21.3021 9.72398C23.3572 10.3756 25.2619 11.4783 27.2167 12.4306C29.0712 13.383 30.7754 14.3854 32.3292 15.7889C32.4796 15.2375 32.3794 14.6361 32.0285 14.0847C31.6275 13.4331 30.9759 12.9319 30.3243 12.581C29.0211 11.8793 27.9685 11.5284 27.8182 11.4783ZM26.6653 1.30327C25.713 2.70672 24.5601 3.85955 23.3572 5.06251C22.2043 6.16522 21.252 7.31806 20.2997 8.57114C21.8535 7.66892 22.9562 6.7667 23.6579 6.06498C24.1592 5.56375 27.2668 2.60647 26.6653 1.30327ZM21.8535 4.6114C21.3021 5.51362 20.6004 6.81683 19.9989 8.57114C21.7031 5.71412 24.5601 3.80943 26.2643 0.952406L26.3145 0.902283C26.114 0.802036 25.9636 0.802036 25.9135 0.751913C24.3596 0.55142 22.8058 3.05758 21.8535 4.6114ZM13.4328 2.60647C13.4328 2.60647 13.4328 2.55635 13.3827 2.55635C11.4278 4.71165 9.1723 6.86695 6.71626 8.47089C7.71873 8.12003 9.02193 7.51855 10.4254 6.51609C11.6785 5.56375 12.5807 4.6114 13.132 3.80943C13.4829 3.3082 13.5831 2.85709 13.4328 2.60647ZM6.5659 8.22028C7.61848 7.26794 8.77132 6.41584 9.77378 5.41338C10.8765 4.31066 11.9291 3.25808 12.9817 2.10524C12.7812 2.00499 12.6308 2.00499 12.5306 1.95487C12.0795 1.85462 11.2274 1.95487 9.42292 3.90968C8.62095 4.86202 7.56836 6.26547 6.5659 8.22028ZM9.72366 11.9795C8.82144 11.378 7.56836 10.5761 5.91429 9.87435C8.37033 11.8793 11.077 13.9343 12.9817 16.4906C13.0819 16.2901 13.132 16.1398 13.1822 15.9393C13.3325 14.5358 11.478 13.2326 9.72366 11.9795ZM12.2799 17.0921C12.3802 17.042 12.4303 17.042 12.5306 16.9918C10.8765 14.1849 7.96935 12.1299 5.56343 9.92447C6.46565 11.6287 7.36787 12.8817 8.06959 13.7338C9.3728 15.3879 11.077 17.4931 12.2799 17.0921Z" fill="#1AC3AF"/>
<path d="M36.6901 7.92029C37.2916 7.56943 37.6424 6.8677 37.6926 6.16598C37.7928 6.16598 37.8931 6.11586 37.9933 6.11586C38.294 6.06573 38.5948 6.01561 38.9456 6.01561C39.096 6.01561 39.1461 5.76499 38.9456 5.76499C38.5447 5.71487 38.0434 5.66475 37.6424 5.76499C37.6424 5.71487 37.6424 5.66475 37.5923 5.61462C37.6926 5.5645 37.7928 5.51438 37.8931 5.46425C38.1437 5.36401 38.4444 5.26376 38.6449 5.11339C38.7953 5.01314 38.695 4.81265 38.5447 4.81265C38.2439 4.81265 37.9432 4.9129 37.6926 5.01314C37.5923 5.06327 37.5422 5.06327 37.4419 5.11339C37.4419 5.11339 37.4419 5.06327 37.3918 5.06327L37.4419 5.01314C37.6926 4.81265 37.9432 4.56203 38.1437 4.31142C38.1938 4.21117 38.0935 4.11093 38.0434 4.16105C37.7427 4.31142 37.4921 4.56203 37.2415 4.76253C37.2415 4.76253 37.1913 4.76253 37.1913 4.81265C36.9908 4.56203 36.64 4.2613 36.0886 4.16105C35.0862 4.01068 33.8832 4.66228 33.6827 5.81512C33.5323 6.81758 34.2341 7.7198 35.036 8.02054C35.1864 8.07066 35.9382 8.32128 36.6901 7.92029Z" fill="#FF922C"/>
<path d="M34.7353 11.6294C34.5849 11.3287 34.3844 11.0279 34.234 10.7773C34.234 10.7272 34.2842 10.7272 34.2842 10.7272C34.3343 10.7773 34.3844 10.7773 34.4345 10.8274C34.7353 10.9778 35.036 11.1783 35.3367 11.2786C35.437 11.3287 35.5372 11.1783 35.437 11.0781C35.1864 10.8776 34.8856 10.6771 34.635 10.5267C34.5348 10.4766 34.4847 10.4265 34.3844 10.3763V10.3262C34.4345 10.3262 34.4847 10.3262 34.5348 10.3262C34.7854 10.3262 35.036 10.3763 35.2866 10.3262C35.3869 10.3262 35.3869 10.1758 35.2866 10.1257C35.036 10.0255 34.7854 10.0255 34.5348 10.0255C34.4847 10.0255 34.4847 10.0255 34.4345 10.0255C34.4345 9.8751 34.4847 9.72473 34.4345 9.57436C34.3343 8.97289 33.8832 8.27116 33.1313 8.12079C32.2291 7.9203 31.4271 8.62202 31.1264 9.27362C31.0763 9.42399 30.9259 9.77486 31.0261 10.1758C31.2768 11.1282 32.58 11.7297 33.4321 11.3287C33.6326 11.2284 33.833 11.0781 33.9333 10.9277C34.0837 11.1783 34.234 11.4289 34.3844 11.6795C34.5849 11.88 34.7854 11.7798 34.7353 11.6294Z" fill="#FF922C"/>
<path d="M19.7484 15.5388C19.7484 15.1378 19.6482 14.7368 19.4978 14.386C19.5479 14.3358 19.5479 14.3358 19.598 14.2857C19.6983 14.4361 20.2496 15.1378 20.5003 15.2381C20.5504 15.2381 20.6506 15.2882 20.7008 15.2381C20.7509 15.1879 20.7509 15.0376 20.7509 15.0376C20.7509 14.9373 20.6506 14.8371 20.6005 14.8371C20.4501 14.6867 20.1494 14.4361 19.7484 14.1354C19.7484 14.1354 19.7985 14.0852 19.7985 14.0351C19.7985 13.985 19.8487 13.985 19.8487 13.9349C19.8487 13.9349 19.8988 13.9349 19.8988 13.985C20.1494 14.0852 20.4 14.2356 20.7008 14.2857C20.801 14.2857 20.9013 14.1855 20.801 14.0852C20.6005 13.8847 20.2998 13.7845 20.0492 13.6842H19.999C20.0492 13.5339 20.1494 13.2833 20.1494 12.9825C20.1494 12.3309 19.7484 11.5289 18.9966 11.2282C18.345 10.9776 17.7435 11.2783 17.543 11.3786C17.3926 11.4287 16.3902 11.9299 16.2899 12.8823C16.1897 13.8346 16.9415 14.8371 17.9941 14.9373C18.3951 14.9874 18.746 14.8872 19.0467 14.6867C19.1469 14.9874 19.1971 15.2882 19.2973 15.6391C19.4477 15.7894 19.7484 15.7894 19.7484 15.5388Z" fill="#FF922C"/>
<path d="M30.9759 4.51153C30.9759 4.11055 30.7754 3.75968 30.575 3.50907C30.9258 3.40882 31.2266 3.25845 31.5774 3.1582C31.7278 3.10808 31.6777 2.90759 31.5273 2.90759C31.1263 2.95771 30.6752 3.00783 30.2742 3.1582C30.4246 3.00783 30.5248 2.85747 30.6752 2.75722C30.8757 2.55673 31.1263 2.35623 31.3268 2.10562C31.3769 2.00537 31.3268 1.855 31.2266 1.90512C30.9759 2.00537 30.7253 2.20586 30.4747 2.40636C30.3243 2.55673 30.1238 2.7071 29.9735 2.90759C29.9234 2.85747 29.8732 2.85747 29.8231 2.85747C29.8231 2.80734 29.8231 2.80734 29.8231 2.75722C29.8732 2.5066 29.9735 2.20586 30.0236 1.95525C30.0236 1.855 29.8732 1.75475 29.8231 1.855C29.6727 2.10562 29.5224 2.40636 29.4221 2.75722C29.1715 2.7071 28.971 2.65697 28.7204 2.7071C28.0187 2.75722 27.3169 3.10808 26.9661 3.65944C26.4648 4.56166 27.2167 5.96511 28.2693 6.31597C29.5224 6.66683 30.9759 5.61424 30.9759 4.51153Z" fill="#FF922C"/>
<path d="M17.8438 7.86995C18.8462 7.46897 19.147 6.11564 18.746 5.21342C19.0467 5.11318 19.3475 5.01293 19.6482 4.91268C19.7485 4.86256 19.7485 4.71219 19.6482 4.66207C19.4477 4.5117 19.147 4.66207 18.8964 4.71219C18.746 4.76231 18.6457 4.76231 18.4954 4.81244C18.4452 4.76231 18.3951 4.71219 18.345 4.66207C18.345 4.66207 18.345 4.66207 18.3951 4.61194C18.6959 4.36133 18.9966 4.11071 19.2973 3.86009C19.4477 3.70972 19.2973 3.45911 19.0968 3.55935C18.746 3.80997 18.3951 4.06059 18.0944 4.3112C18.0443 4.3112 18.0443 4.36133 17.9941 4.36133C17.944 4.36133 17.8939 4.3112 17.8438 4.3112C17.944 3.96034 18.0944 3.60948 18.1946 3.25861C18.2448 3.10825 17.944 3.008 17.8939 3.15837C17.7435 3.50923 17.6433 3.86009 17.4929 4.21096C16.6909 4.06059 15.7887 4.5117 15.4378 5.26355C15.1371 5.96527 15.4378 6.71712 15.4378 6.81737C15.488 6.91761 15.5381 7.06798 15.6885 7.26848C16.1897 7.81983 17.0919 8.17069 17.8438 7.86995Z" fill="#FF922C"/>
</g>
<defs>
<clipPath id="clip0">
<rect width="61" height="18" fill="white" transform="matrix(-1 0 0 1 61 0)"/>
</clipPath>
</defs>
</svg>
