<svg xmlns="http://www.w3.org/2000/svg" width="22" height="22" fill="none" viewBox="0 0 22 22"><path fill="#1A1A1A" fill-rule="evenodd" d="M15 11C15 13.2091 13.2091 15 11 15C8.79086 15 7 13.2091 7 11C7 8.79086 8.79086 7 11 7C13.2091 7 15 8.79086 15 11ZM13.5 11C13.5 12.3807 12.3807 13.5 11 13.5C9.61929 13.5 8.5 12.3807 8.5 11C8.5 9.61929 9.61929 8.5 11 8.5C12.3807 8.5 13.5 9.61929 13.5 11Z" clip-rule="evenodd"/><path fill="#1A1A1A" fill-rule="evenodd" d="M11 0C10.7322 0 10.4664 0.00958604 10.2032 0.0284507C9.43962 0.0831633 8.85767 0.644723 8.69085 1.33178L8.3388 2.7817C8.31981 2.85995 8.24927 2.95388 8.11444 3.00254C7.86586 3.09224 7.62269 3.19319 7.38555 3.30475C7.256 3.36569 7.13975 3.34921 7.07095 3.30729L5.79665 2.5309C5.19316 2.16321 4.38503 2.17741 3.80641 2.67799C3.40363 3.02644 3.02644 3.40363 2.67799 3.80641C2.17741 4.38503 2.16321 5.19316 2.5309 5.79665L3.30729 7.07095C3.34921 7.13976 3.36569 7.256 3.30475 7.38555C3.19318 7.62269 3.09224 7.86586 3.00254 8.11444C2.95388 8.24927 2.85995 8.31981 2.7817 8.33881L1.33178 8.69085C0.644724 8.85767 0.0831634 9.43962 0.0284507 10.2032C0.00958604 10.4664 0 10.7322 0 11C0 11.2678 0.00958604 11.5336 0.0284507 11.7968C0.0831633 12.5604 0.644723 13.1423 1.33178 13.3092L2.7817 13.6612C2.85995 13.6802 2.95388 13.7507 3.00254 13.8856C3.09224 14.1341 3.19318 14.3773 3.30475 14.6145C3.36569 14.744 3.34921 14.8602 3.30729 14.9291L2.5309 16.2034C2.16321 16.8068 2.17741 17.615 2.67799 18.1936C3.02644 18.5964 3.40363 18.9736 3.80641 19.322C4.38503 19.8226 5.19316 19.8368 5.79665 19.4691L7.07095 18.6927C7.13975 18.6508 7.256 18.6343 7.38555 18.6953C7.62269 18.8068 7.86586 18.9078 8.11444 18.9975C8.24927 19.0461 8.31981 19.14 8.3388 19.2183L8.69085 20.6682C8.85767 21.3553 9.43962 21.9168 10.2032 21.9715C10.4664 21.9904 10.7322 22 11 22C11.2678 22 11.5335 21.9904 11.7968 21.9715C12.5604 21.9168 13.1423 21.3553 13.3092 20.6682L13.6612 19.2183C13.6802 19.14 13.7507 19.0461 13.8856 18.9975C14.1341 18.9078 14.3773 18.8068 14.6145 18.6953C14.744 18.6343 14.8602 18.6508 14.929 18.6927L16.2034 19.4691C16.8068 19.8368 17.615 19.8226 18.1936 19.322C18.5964 18.9736 18.9736 18.5964 19.322 18.1936C19.8226 17.615 19.8368 16.8068 19.4691 16.2034L18.6927 14.929C18.6508 14.8602 18.6343 14.744 18.6952 14.6145C18.8068 14.3773 18.9078 14.1341 18.9975 13.8856C19.0461 13.7507 19.14 13.6802 19.2183 13.6612L20.6682 13.3092C21.3553 13.1423 21.9168 12.5604 21.9715 11.7968C21.9904 11.5336 22 11.2678 22 11C22 10.7322 21.9904 10.4664 21.9715 10.2032C21.9168 9.43962 21.3553 8.85767 20.6682 8.69085L19.2183 8.33881C19.14 8.31981 19.0461 8.24927 18.9975 8.11444C18.9078 7.86586 18.8068 7.62269 18.6952 7.38555C18.6343 7.256 18.6508 7.13976 18.6927 7.07095L19.4691 5.79665C19.8368 5.19316 19.8226 4.38503 19.322 3.80641C18.9736 3.40363 18.5964 3.02644 18.1936 2.67799C17.615 2.17741 16.8068 2.16321 16.2034 2.5309L14.929 3.30729C14.8602 3.34921 14.744 3.36569 14.6145 3.30475C14.3773 3.19318 14.1341 3.09224 13.8856 3.00254C13.7507 2.95388 13.6802 2.85995 13.6612 2.7817L13.3092 1.33178C13.1423 0.644723 12.5604 0.0831633 11.7968 0.0284507C11.5335 0.00958604 11.2678 0 11 0ZM10.3104 1.52461C10.538 1.5083 10.768 1.5 11 1.5C11.232 1.5 11.462 1.5083 11.6896 1.52461C11.7451 1.52859 11.8246 1.57475 11.8515 1.6857L12.2035 3.13562C12.3558 3.76252 12.8287 4.21583 13.3764 4.41348C13.5808 4.48724 13.7808 4.57026 13.9759 4.66205C14.5032 4.9101 15.1584 4.92401 15.7095 4.58826L16.9838 3.81187C17.0813 3.75249 17.1701 3.77595 17.2122 3.81239C17.5604 4.11359 17.8864 4.43965 18.1876 4.7878C18.224 4.82992 18.2475 4.91874 18.1881 5.01619L17.4117 6.29049C17.076 6.84156 17.0899 7.49682 17.3379 8.02408C17.4297 8.21919 17.5128 8.4192 17.5865 8.6236C17.7842 9.17132 18.2375 9.64424 18.8644 9.79645L20.3143 10.1485C20.4252 10.1754 20.4714 10.2549 20.4754 10.3104C20.4917 10.538 20.5 10.768 20.5 11C20.5 11.232 20.4917 11.462 20.4754 11.6896C20.4714 11.7451 20.4252 11.8246 20.3143 11.8515L18.8644 12.2035C18.2375 12.3558 17.7842 12.8287 17.5865 13.3764C17.5128 13.5808 17.4297 13.7808 17.3379 13.9759C17.0899 14.5032 17.076 15.1584 17.4117 15.7095L18.1881 16.9838C18.2475 17.0813 18.224 17.1701 18.1876 17.2122C17.8864 17.5604 17.5604 17.8864 17.2122 18.1876C17.1701 18.2241 17.0813 18.2475 16.9838 18.1881L15.7095 17.4117C15.1584 17.076 14.5032 17.0899 13.9759 17.3379C13.7808 17.4297 13.5808 17.5128 13.3764 17.5865C12.8287 17.7842 12.3558 18.2375 12.2035 18.8644L11.8515 20.3143C11.8246 20.4252 11.7451 20.4714 11.6896 20.4754C11.462 20.4917 11.232 20.5 11 20.5C10.768 20.5 10.538 20.4917 10.3104 20.4754C10.2549 20.4714 10.1754 20.4252 10.1485 20.3143L9.79645 18.8644C9.64424 18.2375 9.17131 17.7842 8.6236 17.5865C8.4192 17.5128 8.21919 17.4297 8.02408 17.3379C7.49682 17.0899 6.84156 17.076 6.29049 17.4117L5.01619 18.1881C4.91873 18.2475 4.82992 18.224 4.7878 18.1876C4.43965 17.8864 4.11358 17.5604 3.81239 17.2122C3.77595 17.1701 3.75249 17.0813 3.81187 16.9838L4.58826 15.7095C4.92401 15.1584 4.9101 14.5032 4.66205 13.9759C4.57026 13.7808 4.48724 13.5808 4.41348 13.3764C4.21583 12.8287 3.76252 12.3558 3.13562 12.2035L1.6857 11.8515C1.57475 11.8246 1.52859 11.7451 1.52461 11.6896C1.5083 11.462 1.5 11.232 1.5 11C1.5 10.768 1.5083 10.538 1.52461 10.3104C1.52859 10.2549 1.57475 10.1754 1.6857 10.1485L3.13562 9.79645C3.76252 9.64424 4.21583 9.17131 4.41348 8.6236C4.48724 8.4192 4.57026 8.21919 4.66205 8.02408C4.9101 7.49682 4.92401 6.84156 4.58826 6.29049L3.81187 5.01619C3.75249 4.91874 3.77595 4.82992 3.81239 4.7878C4.11358 4.43965 4.43965 4.11359 4.7878 3.81239C4.82992 3.77595 4.91874 3.75249 5.01619 3.81187L6.29049 4.58826C6.84156 4.92401 7.49682 4.9101 8.02408 4.66205C8.21919 4.57026 8.4192 4.48724 8.6236 4.41348C9.17131 4.21583 9.64424 3.76252 9.79645 3.13562L10.1485 1.6857C10.1754 1.57475 10.2549 1.52859 10.3104 1.52461Z" clip-rule="evenodd"/></svg>