<svg width="20" height="20" viewBox="0 0 20 20" fill="none" xmlns="http://www.w3.org/2000/svg">
<path fill-rule="evenodd" clip-rule="evenodd" d="M14.7757 0.492002C15.4163 -0.164002 16.455 -0.164 17.0956 0.492003L19.5195 2.97406C20.1602 3.63007 20.1602 4.69366 19.5195 5.34966L16.9015 8.03052L16.8898 8.04222L6.73966 17.9635C6.55422 18.1448 6.32987 18.279 6.08461 18.3554L0.907761 19.9688C0.659368 20.0462 0.389529 19.9771 0.205935 19.7891C0.0223397 19.6011 -0.0451198 19.3248 0.0304781 19.0705L1.5993 13.7921C1.68146 13.5156 1.83186 13.2656 2.03598 13.0661L12.1635 3.16694L14.7757 0.492002ZM12.6434 4.68833L3.00685 14.1076C2.97769 14.1361 2.9562 14.1718 2.94447 14.2113L1.75946 18.1983L5.67521 16.978C5.71025 16.9671 5.7423 16.9479 5.76879 16.922L15.3984 7.50949L12.6434 4.68833ZM16.4044 6.50335L18.5253 4.33155C18.6168 4.23783 18.6168 4.08589 18.5253 3.99218L16.1014 1.51012C16.0099 1.4164 15.8615 1.4164 15.77 1.51011L13.6491 3.68192L16.4044 6.50335Z" fill="#24292E"/>
</svg>
