<svg xmlns="http://www.w3.org/2000/svg" width="18" height="14" fill="none" viewBox="0 0 18 14"><path fill="#24292E" fill-rule="evenodd" d="M1 2C1.55228 2 2 1.55228 2 1C2 0.44772 1.55228 0 1 0C0.44772 0 0 0.44772 0 1C0 1.55228 0.44772 2 1 2ZM5.75 0.5C5.33579 0.5 5 0.83579 5 1.25C5 1.66421 5.33579 2 5.75 2H17.25C17.6642 2 18 1.66421 18 1.25C18 0.83579 17.6642 0.5 17.25 0.5H5.75ZM5.75 6.5C5.33579 6.5 5 6.8358 5 7.25C5 7.6642 5.33579 8 5.75 8H17.25C17.6642 8 18 7.6642 18 7.25C18 6.8358 17.6642 6.5 17.25 6.5H5.75ZM5.75 12.5C5.33579 12.5 5 12.8358 5 13.25C5 13.6642 5.33579 14 5.75 14H17.25C17.6642 14 18 13.6642 18 13.25C18 12.8358 17.6642 12.5 17.25 12.5H5.75ZM2 7C2 7.5523 1.55228 8 1 8C0.44772 8 0 7.5523 0 7C0 6.4477 0.44772 6 1 6C1.55228 6 2 6.4477 2 7ZM1 14C1.55228 14 2 13.5523 2 13C2 12.4477 1.55228 12 1 12C0.44772 12 0 12.4477 0 13C0 13.5523 0.44772 14 1 14Z" clip-rule="evenodd"/></svg>