<svg width="18" height="23" viewBox="0 0 18 23" fill="none" xmlns="http://www.w3.org/2000/svg">
<rect width="18" height="23" fill="#E5E5E5"/>
<rect width="375" height="812" transform="translate(-158 -155)" fill="white"/>
<path d="M-133 17C-129.455 17 -127.455 14.7955 -127.455 11.1591C-127.455 7.54545 -129.455 5.36364 -132.841 5.36364H-136.591V17H-133ZM-135.182 15.75V6.61364H-132.932C-130.205 6.61364 -128.818 8.34091 -128.818 11.1591C-128.818 14 -130.205 15.75 -133.091 15.75H-135.182ZM-123.932 11.75C-123.932 10.2273 -122.96 9.36364 -121.636 9.36364C-120.375 9.36364 -119.614 10.1591 -119.614 11.5455V17H-118.273V11.4545C-118.273 9.21023 -119.466 8.15909 -121.25 8.15909C-122.625 8.15909 -123.409 8.73295 -123.818 9.63636H-123.932V5.36364H-125.273V17H-123.932V11.75ZM-115.82 17H-114.479V11.4773C-114.479 10.2955 -113.547 9.43182 -112.274 9.43182C-111.916 9.43182 -111.547 9.5 -111.456 9.52273V8.15909C-111.609 8.14773 -111.962 8.13636 -112.161 8.13636C-113.206 8.13636 -114.115 8.72727 -114.433 9.59091H-114.524V8.27273H-115.82V17ZM-115.161 19.8864C-114.638 19.8864 -114.206 19.4773 -114.206 18.9773C-114.206 18.4773 -114.638 18.0682 -115.161 18.0682C-115.683 18.0682 -116.115 18.4773 -116.115 18.9773C-116.115 19.4773 -115.683 19.8864 -115.161 19.8864ZM-105.524 8.27273H-107.388V6.18182H-108.729V8.27273H-110.047V9.40909H-108.729V14.8636C-108.729 16.3864 -107.501 17.1136 -106.365 17.1136C-105.865 17.1136 -105.547 17.0227 -105.365 16.9545L-105.638 15.75C-105.751 15.7727 -105.933 15.8182 -106.229 15.8182C-106.82 15.8182 -107.388 15.6364 -107.388 14.5V9.40909H-105.524V8.27273ZM-100.939 17.2045C-99.4162 17.2045 -98.6207 16.3864 -98.348 15.8182H-98.2798V17H-96.9389V11.25C-96.9389 8.47727 -99.0526 8.15909 -100.166 8.15909C-101.484 8.15909 -102.984 8.61364 -103.666 10.2045L-102.393 10.6591C-102.098 10.0227 -101.399 9.34091 -100.121 9.34091C-98.8878 9.34091 -98.2798 9.99432 -98.2798 11.1136V11.1591C-98.2798 11.8068 -98.9389 11.75 -100.53 11.9545C-102.149 12.1648 -103.916 12.5227 -103.916 14.5227C-103.916 16.2273 -102.598 17.2045 -100.939 17.2045ZM-100.734 16C-101.803 16 -102.575 15.5227 -102.575 14.5909C-102.575 13.5682 -101.643 13.25 -100.598 13.1136C-100.03 13.0455 -98.5071 12.8864 -98.2798 12.6136V13.8409C-98.2798 14.9318 -99.1435 16 -100.734 16ZM-94.4915 17H-93.1506V11.4773C-93.1506 10.2955 -92.2188 9.43182 -90.946 9.43182C-90.5881 9.43182 -90.2188 9.5 -90.1278 9.52273V8.15909C-90.2812 8.14773 -90.6335 8.13636 -90.8324 8.13636C-91.8778 8.13636 -92.7869 8.72727 -93.1051 9.59091H-93.196V8.27273H-94.4915V17ZM-85.9702 17.2045C-84.4474 17.2045 -83.652 16.3864 -83.3793 15.8182H-83.3111V17H-81.9702V11.25C-81.9702 8.47727 -84.0838 8.15909 -85.1974 8.15909C-86.5156 8.15909 -88.0156 8.61364 -88.6974 10.2045L-87.4247 10.6591C-87.1293 10.0227 -86.4304 9.34091 -85.152 9.34091C-83.919 9.34091 -83.3111 9.99432 -83.3111 11.1136V11.1591C-83.3111 11.8068 -83.9702 11.75 -85.5611 11.9545C-87.1804 12.1648 -88.9474 12.5227 -88.9474 14.5227C-88.9474 16.2273 -87.6293 17.2045 -85.9702 17.2045ZM-85.7656 16C-86.8338 16 -87.6065 15.5227 -87.6065 14.5909C-87.6065 13.5682 -86.6747 13.25 -85.6293 13.1136C-85.0611 13.0455 -83.5384 12.8864 -83.3111 12.6136V13.8409C-83.3111 14.9318 -84.1747 16 -85.7656 16ZM-82.4474 5.36364H-87.7656V6.5H-82.4474V5.36364ZM-73.3409 10.2273C-73.7614 8.98864 -74.7045 8.15909 -76.4318 8.15909C-78.2727 8.15909 -79.6364 9.20455 -79.6364 10.6818C-79.6364 11.8864 -78.9205 12.6932 -77.3182 13.0682L-75.8636 13.4091C-74.983 13.6136 -74.5682 14.0341 -74.5682 14.6364C-74.5682 15.3864 -75.3636 16 -76.6136 16C-77.7102 16 -78.3977 15.5284 -78.6364 14.5909L-79.9091 14.9091C-79.5966 16.392 -78.375 17.1818 -76.5909 17.1818C-74.5625 17.1818 -73.1818 16.0739 -73.1818 14.5682C-73.1818 13.3523 -73.9432 12.5852 -75.5 12.2045L-76.7955 11.8864C-77.8295 11.6307 -78.2955 11.2841 -78.2955 10.6136C-78.2955 9.86364 -77.5 9.31818 -76.4318 9.31818C-75.2614 9.31818 -74.7784 9.96591 -74.5455 10.5682L-73.3409 10.2273ZM-76.4773 19.8864C-75.9545 19.8864 -75.5227 19.4773 -75.5227 18.9773C-75.5227 18.4773 -75.9545 18.0682 -76.4773 18.0682C-77 18.0682 -77.4318 18.4773 -77.4318 18.9773C-77.4318 19.4773 -77 19.8864 -76.4773 19.8864ZM-67.3679 8.27273H-69.2315V6.18182H-70.5724V8.27273H-71.8906V9.40909H-70.5724V14.8636C-70.5724 16.3864 -69.3452 17.1136 -68.2088 17.1136C-67.7088 17.1136 -67.3906 17.0227 -67.2088 16.9545L-67.4815 15.75C-67.5952 15.7727 -67.777 15.8182 -68.0724 15.8182C-68.6634 15.8182 -69.2315 15.6364 -69.2315 14.5V9.40909H-67.3679V8.27273ZM-69.1406 19.8864C-68.6179 19.8864 -68.1861 19.4773 -68.1861 18.9773C-68.1861 18.4773 -68.6179 18.0682 -69.1406 18.0682C-69.6634 18.0682 -70.0952 18.4773 -70.0952 18.9773C-70.0952 19.4773 -69.6634 19.8864 -69.1406 19.8864ZM-65.3509 17H-64.0099V11.4773C-64.0099 10.2955 -63.0781 9.43182 -61.8054 9.43182C-61.4474 9.43182 -61.0781 9.5 -60.9872 9.52273V8.15909C-61.1406 8.14773 -61.4929 8.13636 -61.6918 8.13636C-62.7372 8.13636 -63.6463 8.72727 -63.9645 9.59091H-64.0554V8.27273H-65.3509V17ZM-56.8295 17.2045C-55.3068 17.2045 -54.5114 16.3864 -54.2386 15.8182H-54.1705V17H-52.8295V11.25C-52.8295 8.47727 -54.9432 8.15909 -56.0568 8.15909C-57.375 8.15909 -58.875 8.61364 -59.5568 10.2045L-58.2841 10.6591C-57.9886 10.0227 -57.2898 9.34091 -56.0114 9.34091C-54.7784 9.34091 -54.1705 9.99432 -54.1705 11.1136V11.1591C-54.1705 11.8068 -54.8295 11.75 -56.4205 11.9545C-58.0398 12.1648 -59.8068 12.5227 -59.8068 14.5227C-59.8068 16.2273 -58.4886 17.2045 -56.8295 17.2045ZM-56.625 16C-57.6932 16 -58.4659 15.5227 -58.4659 14.5909C-58.4659 13.5682 -57.5341 13.25 -56.4886 13.1136C-55.9205 13.0455 -54.3977 12.8864 -54.1705 12.6136V13.8409C-54.1705 14.9318 -55.0341 16 -56.625 16ZM-39.7003 10.2273C-40.1207 8.98864 -41.0639 8.15909 -42.7912 8.15909C-44.6321 8.15909 -45.9957 9.20455 -45.9957 10.6818C-45.9957 11.8864 -45.2798 12.6932 -43.6776 13.0682L-42.223 13.4091C-41.3423 13.6136 -40.9276 14.0341 -40.9276 14.6364C-40.9276 15.3864 -41.723 16 -42.973 16C-44.0696 16 -44.7571 15.5284 -44.9957 14.5909L-46.2685 14.9091C-45.956 16.392 -44.7344 17.1818 -42.9503 17.1818C-40.9219 17.1818 -39.5412 16.0739 -39.5412 14.5682C-39.5412 13.3523 -40.3026 12.5852 -41.8594 12.2045L-43.1548 11.8864C-44.1889 11.6307 -44.6548 11.2841 -44.6548 10.6136C-44.6548 9.86364 -43.8594 9.31818 -42.7912 9.31818C-41.6207 9.31818 -41.1378 9.96591 -40.9048 10.5682L-39.7003 10.2273ZM-34.9545 17.2045C-33.4318 17.2045 -32.6364 16.3864 -32.3636 15.8182H-32.2955V17H-30.9545V11.25C-30.9545 8.47727 -33.0682 8.15909 -34.1818 8.15909C-35.5 8.15909 -37 8.61364 -37.6818 10.2045L-36.4091 10.6591C-36.1136 10.0227 -35.4148 9.34091 -34.1364 9.34091C-32.9034 9.34091 -32.2955 9.99432 -32.2955 11.1136V11.1591C-32.2955 11.8068 -32.9545 11.75 -34.5455 11.9545C-36.1648 12.1648 -37.9318 12.5227 -37.9318 14.5227C-37.9318 16.2273 -36.6136 17.2045 -34.9545 17.2045ZM-34.75 16C-35.8182 16 -36.5909 15.5227 -36.5909 14.5909C-36.5909 13.5682 -35.6591 13.25 -34.6136 13.1136C-34.0455 13.0455 -32.5227 12.8864 -32.2955 12.6136V13.8409C-32.2955 14.9318 -33.1591 16 -34.75 16ZM-28.5071 17H-27.1662V8.27273H-28.5071V17ZM-27.8253 6.81818C-27.3026 6.81818 -26.8707 6.40909 -26.8707 5.90909C-26.8707 5.40909 -27.3026 5 -27.8253 5C-28.348 5 -28.7798 5.40909 -28.7798 5.90909C-28.7798 6.40909 -28.348 6.81818 -27.8253 6.81818ZM-21.4148 17.1818C-19.733 17.1818 -19.1648 16.1364 -18.8693 15.6591H-18.7102V17H-17.4148V5.36364H-18.7557V9.65909H-18.8693C-19.1648 9.20455 -19.6875 8.15909 -21.392 8.15909C-23.5966 8.15909 -25.1193 9.90909 -25.1193 12.6591C-25.1193 15.4318 -23.5966 17.1818 -21.4148 17.1818ZM-21.233 15.9773C-22.9148 15.9773 -23.7784 14.5 -23.7784 12.6364C-23.7784 10.7955 -22.9375 9.36364 -21.233 9.36364C-19.5966 9.36364 -18.733 10.6818 -18.733 12.6364C-18.733 14.6136 -19.6193 15.9773 -21.233 15.9773ZM-13.7955 17.0909C-13.233 17.0909 -12.7727 16.6307 -12.7727 16.0682C-12.7727 15.5057 -13.233 15.0455 -13.7955 15.0455C-14.358 15.0455 -14.8182 15.5057 -14.8182 16.0682C-14.8182 16.6307 -14.358 17.0909 -13.7955 17.0909ZM-13.7955 10.6136C-13.233 10.6136 -12.7727 10.1534 -12.7727 9.59091C-12.7727 9.02841 -13.233 8.56818 -13.7955 8.56818C-14.358 8.56818 -14.8182 9.02841 -14.8182 9.59091C-14.8182 10.1534 -14.358 10.6136 -13.7955 10.6136ZM4.13352 11.1818C4.13352 7.5 1.97443 5.20455 -1.00284 5.20455C-3.98011 5.20455 -6.1392 7.5 -6.1392 11.1818C-6.1392 14.8636 -3.98011 17.1591 -1.00284 17.1591C1.97443 17.1591 4.13352 14.8636 4.13352 11.1818ZM2.76989 11.1818C2.76989 14.2045 1.1108 15.8409 -1.00284 15.8409C-3.11648 15.8409 -4.77557 14.2045 -4.77557 11.1818C-4.77557 8.15909 -3.11648 6.52273 -1.00284 6.52273C1.1108 6.52273 2.76989 8.15909 2.76989 11.1818ZM17.3665 8.27273H18.7301C18.6676 6.51705 17.0483 5.20455 14.7983 5.20455C12.571 5.20455 10.821 6.5 10.821 8.45455C10.821 10.0227 11.9574 10.9545 13.7756 11.4773L15.2074 11.8864C16.4347 12.2273 17.5256 12.6591 17.5256 13.8182C17.5256 15.0909 16.2983 15.9318 14.6847 15.9318C13.2983 15.9318 12.071 15.3182 11.9574 14H10.5028C10.6392 15.9091 12.1847 17.2045 14.6847 17.2045C17.3665 17.2045 18.8892 15.7273 18.8892 13.8409C18.8892 11.6591 16.821 10.9545 15.6165 10.6364L14.4347 10.3182C13.571 10.0909 12.1847 9.63636 12.1847 8.38636C12.1847 7.27273 13.2074 6.45455 14.7528 6.45455C16.1619 6.45455 17.2301 7.125 17.3665 8.27273ZM23.5923 17.2045C25.1151 17.2045 25.9105 16.3864 26.1832 15.8182H26.2514V17H27.5923V11.25C27.5923 8.47727 25.4787 8.15909 24.3651 8.15909C23.0469 8.15909 21.5469 8.61364 20.8651 10.2045L22.1378 10.6591C22.4332 10.0227 23.1321 9.34091 24.4105 9.34091C25.6435 9.34091 26.2514 9.99432 26.2514 11.1136V11.1591C26.2514 11.8068 25.5923 11.75 24.0014 11.9545C22.3821 12.1648 20.6151 12.5227 20.6151 14.5227C20.6151 16.2273 21.9332 17.2045 23.5923 17.2045ZM23.7969 16C22.7287 16 21.956 15.5227 21.956 14.5909C21.956 13.5682 22.8878 13.25 23.9332 13.1136C24.5014 13.0455 26.0241 12.8864 26.2514 12.6136V13.8409C26.2514 14.9318 25.3878 16 23.7969 16ZM31.3807 11.75C31.3807 10.2273 32.3239 9.36364 33.608 9.36364C34.8523 9.36364 35.608 10.1761 35.608 11.5455V17H36.9489V11.4545C36.9489 9.22727 35.7614 8.15909 33.9943 8.15909C32.6761 8.15909 31.858 8.75 31.4489 9.63636H31.3352V8.27273H30.0398V17H31.3807V11.75ZM31.7443 7.22727C31.7443 6.75 32.0625 6.36364 32.4943 6.36364C33.358 6.36364 33.517 7.09091 34.5625 7.09091C35.5398 7.09091 36.2898 6.34091 36.2898 5.15909L35.267 5.06818C35.267 5.54545 34.9261 5.93182 34.4943 5.93182C33.6761 5.93182 33.2898 5.20455 32.4261 5.20455C31.4489 5.20455 30.6989 6.02273 30.6989 7.18182L31.7443 7.22727ZM39.3991 8.27273V17.6364C39.3991 18.5227 39.0355 19.0227 38.2173 19.0227H37.9673V20.2727H38.2401C39.9219 20.2727 40.7401 19.25 40.7401 17.6364V8.27273H39.3991ZM40.0582 6.81818C40.581 6.81818 41.0128 6.40909 41.0128 5.90909C41.0128 5.40909 40.581 5 40.0582 5C39.5355 5 39.1037 5.40909 39.1037 5.90909C39.1037 6.40909 39.5355 6.81818 40.0582 6.81818ZM45.7642 17.2045C47.2869 17.2045 48.0824 16.3864 48.3551 15.8182H48.4233V17H49.7642V11.25C49.7642 8.47727 47.6506 8.15909 46.5369 8.15909C45.2188 8.15909 43.7188 8.61364 43.0369 10.2045L44.3097 10.6591C44.6051 10.0227 45.304 9.34091 46.5824 9.34091C47.8153 9.34091 48.4233 9.99432 48.4233 11.1136V11.1591C48.4233 11.8068 47.7642 11.75 46.1733 11.9545C44.554 12.1648 42.7869 12.5227 42.7869 14.5227C42.7869 16.2273 44.1051 17.2045 45.7642 17.2045ZM45.9688 16C44.9006 16 44.1278 15.5227 44.1278 14.5909C44.1278 13.5682 45.0597 13.25 46.1051 13.1136C46.6733 13.0455 48.196 12.8864 48.4233 12.6136V13.8409C48.4233 14.9318 47.5597 16 45.9688 16ZM52.7628 20.2727C53.973 20.2727 54.8253 19.6307 55.331 18.2727L59.0469 8.29545L57.581 8.27273L55.1719 15.2273H55.081L52.6719 8.27273H51.2173L54.4446 17.0455L54.1946 17.7273C53.706 19.0568 53.1037 19.1818 52.1264 18.9318L51.7855 20.1136C51.9219 20.1818 52.3082 20.2727 52.7628 20.2727ZM63.1236 17.2045C64.6463 17.2045 65.4418 16.3864 65.7145 15.8182H65.7827V17H67.1236V11.25C67.1236 8.47727 65.0099 8.15909 63.8963 8.15909C62.5781 8.15909 61.0781 8.61364 60.3963 10.2045L61.669 10.6591C61.9645 10.0227 62.6634 9.34091 63.9418 9.34091C65.1747 9.34091 65.7827 9.99432 65.7827 11.1136V11.1591C65.7827 11.8068 65.1236 11.75 63.5327 11.9545C61.9134 12.1648 60.1463 12.5227 60.1463 14.5227C60.1463 16.2273 61.4645 17.2045 63.1236 17.2045ZM63.3281 16C62.2599 16 61.4872 15.5227 61.4872 14.5909C61.4872 13.5682 62.419 13.25 63.4645 13.1136C64.0327 13.0455 65.5554 12.8864 65.7827 12.6136V13.8409C65.7827 14.9318 64.919 16 63.3281 16ZM71.571 15.4091H70.1165L70.0483 16.0455C69.8835 17.5852 69.5597 19.1193 69.4119 19.8409H70.4347C70.7074 19.0682 71.2869 17.3182 71.4801 16.0227L71.571 15.4091ZM81.1236 17.2045C82.6463 17.2045 83.4418 16.3864 83.7145 15.8182H83.7827V17H85.1236V11.25C85.1236 8.47727 83.0099 8.15909 81.8963 8.15909C80.5781 8.15909 79.0781 8.61364 78.3963 10.2045L79.669 10.6591C79.9645 10.0227 80.6634 9.34091 81.9418 9.34091C83.1747 9.34091 83.7827 9.99432 83.7827 11.1136V11.1591C83.7827 11.8068 83.1236 11.75 81.5327 11.9545C79.9134 12.1648 78.1463 12.5227 78.1463 14.5227C78.1463 16.2273 79.4645 17.2045 81.1236 17.2045ZM81.3281 16C80.2599 16 79.4872 15.5227 79.4872 14.5909C79.4872 13.5682 80.419 13.25 81.4645 13.1136C82.0327 13.0455 83.5554 12.8864 83.7827 12.6136V13.8409C83.7827 14.9318 82.919 16 81.3281 16ZM91.4574 8.27273H89.5028V7.38636C89.5028 6.52273 89.8665 6.06818 90.7528 6.06818C91.1392 6.06818 91.3665 6.15909 91.5028 6.20455L91.8892 5.04545C91.6847 4.95455 91.2756 4.81818 90.6165 4.81818C89.3665 4.81818 88.1619 5.56818 88.1619 7.06818V8.27273H86.7528V9.40909H88.1619V17H89.5028V9.40909H91.4574V8.27273ZM97.1321 8.27273H95.2685V6.18182H93.9276V8.27273H92.6094V9.40909H93.9276V14.8636C93.9276 16.3864 95.1548 17.1136 96.2912 17.1136C96.7912 17.1136 97.1094 17.0227 97.2912 16.9545L97.0185 15.75C96.9048 15.7727 96.723 15.8182 96.4276 15.8182C95.8366 15.8182 95.2685 15.6364 95.2685 14.5V9.40909H97.1321V8.27273ZM102.714 17.1818C104.487 17.1818 105.783 16.2955 106.192 14.9773L104.896 14.6136C104.555 15.5227 103.766 15.9773 102.714 15.9773C101.141 15.9773 100.055 14.9602 99.9929 13.0909H106.328V12.5227C106.328 9.27273 104.396 8.15909 102.578 8.15909C100.214 8.15909 98.6463 10.0227 98.6463 12.7045C98.6463 15.3864 100.192 17.1818 102.714 17.1818ZM99.9929 11.9318C100.084 10.5739 101.044 9.36364 102.578 9.36364C104.033 9.36364 104.964 10.4545 104.964 11.9318H99.9929ZM108.368 17H109.709V11.4773C109.709 10.2955 110.641 9.43182 111.913 9.43182C112.271 9.43182 112.641 9.5 112.732 9.52273V8.15909C112.578 8.14773 112.226 8.13636 112.027 8.13636C110.982 8.13636 110.072 8.72727 109.754 9.59091H109.663V8.27273H108.368V17ZM118.821 17H120.162V11.5455C120.162 10.267 121.094 9.36364 122.139 9.36364C123.156 9.36364 123.866 10.0284 123.866 11.0227V17H125.23V11.3182C125.23 10.1932 125.935 9.36364 127.162 9.36364C128.116 9.36364 128.935 9.86932 128.935 11.1591V17H130.276V11.1591C130.276 9.10795 129.173 8.15909 127.616 8.15909C126.366 8.15909 125.452 8.73295 125.003 9.63636H124.912C124.48 8.70455 123.719 8.15909 122.571 8.15909C121.435 8.15909 120.594 8.70455 120.23 9.63636H120.116V8.27273H118.821V17ZM133.278 20.2727C134.489 20.2727 135.341 19.6307 135.847 18.2727L139.562 8.29545L138.097 8.27273L135.688 15.2273H135.597L133.188 8.27273H131.733L134.96 17.0455L134.71 17.7273C134.222 19.0568 133.619 19.1818 132.642 18.9318L132.301 20.1136C132.438 20.1818 132.824 20.2727 133.278 20.2727ZM152.018 10.2273C151.598 8.98864 150.655 8.15909 148.928 8.15909C147.087 8.15909 145.723 9.20455 145.723 10.6818C145.723 11.8864 146.439 12.6932 148.041 13.0682L149.496 13.4091C150.376 13.6136 150.791 14.0341 150.791 14.6364C150.791 15.3864 149.996 16 148.746 16C147.649 16 146.962 15.5284 146.723 14.5909L145.45 14.9091C145.763 16.392 146.984 17.1818 148.768 17.1818C150.797 17.1818 152.178 16.0739 152.178 14.5682C152.178 13.3523 151.416 12.5852 149.859 12.2045L148.564 11.8864C147.53 11.6307 147.064 11.2841 147.064 10.6136C147.064 9.86364 147.859 9.31818 148.928 9.31818C150.098 9.31818 150.581 9.96591 150.814 10.5682L152.018 10.2273ZM157.741 17.1818C160.105 17.1818 161.696 15.3864 161.696 12.6818C161.696 9.95455 160.105 8.15909 157.741 8.15909C155.378 8.15909 153.787 9.95455 153.787 12.6818C153.787 15.3864 155.378 17.1818 157.741 17.1818ZM157.741 15.9773C155.946 15.9773 155.128 14.4318 155.128 12.6818C155.128 10.9318 155.946 9.36364 157.741 9.36364C159.537 9.36364 160.355 10.9318 160.355 12.6818C160.355 14.4318 159.537 15.9773 157.741 15.9773ZM165.084 11.75C165.084 10.2273 166.027 9.36364 167.311 9.36364C168.555 9.36364 169.311 10.1761 169.311 11.5455V17H170.652V11.4545C170.652 9.22727 169.464 8.15909 167.697 8.15909C166.379 8.15909 165.561 8.75 165.152 9.63636H165.038V8.27273H163.743V17H165.084V11.75ZM179.284 10.2273C178.864 8.98864 177.92 8.15909 176.193 8.15909C174.352 8.15909 172.989 9.20455 172.989 10.6818C172.989 11.8864 173.705 12.6932 175.307 13.0682L176.761 13.4091C177.642 13.6136 178.057 14.0341 178.057 14.6364C178.057 15.3864 177.261 16 176.011 16C174.915 16 174.227 15.5284 173.989 14.5909L172.716 14.9091C173.028 16.392 174.25 17.1818 176.034 17.1818C178.062 17.1818 179.443 16.0739 179.443 14.5682C179.443 13.3523 178.682 12.5852 177.125 12.2045L175.83 11.8864C174.795 11.6307 174.33 11.2841 174.33 10.6136C174.33 9.86364 175.125 9.31818 176.193 9.31818C177.364 9.31818 177.847 9.96591 178.08 10.5682L179.284 10.2273ZM-134.205 41.2045C-132.682 41.2045 -131.886 40.3864 -131.614 39.8182H-131.545V41H-130.205V35.25C-130.205 32.4773 -132.318 32.1591 -133.432 32.1591C-134.75 32.1591 -136.25 32.6136 -136.932 34.2045L-135.659 34.6591C-135.364 34.0227 -134.665 33.3409 -133.386 33.3409C-132.153 33.3409 -131.545 33.9943 -131.545 35.1136V35.1591C-131.545 35.8068 -132.205 35.75 -133.795 35.9545C-135.415 36.1648 -137.182 36.5227 -137.182 38.5227C-137.182 40.2273 -135.864 41.2045 -134.205 41.2045ZM-134 40C-135.068 40 -135.841 39.5227 -135.841 38.5909C-135.841 37.5682 -134.909 37.25 -133.864 37.1136C-133.295 37.0455 -131.773 36.8864 -131.545 36.6136V37.8409C-131.545 38.9318 -132.409 40 -134 40ZM-126.416 35.75C-126.416 34.2273 -125.473 33.3636 -124.189 33.3636C-122.945 33.3636 -122.189 34.1761 -122.189 35.5455V41H-120.848V35.4545C-120.848 33.2273 -122.036 32.1591 -123.803 32.1591C-125.121 32.1591 -125.939 32.75 -126.348 33.6364H-126.462V32.2727H-127.757V41H-126.416V35.75ZM-115.102 41.1818C-113.42 41.1818 -112.852 40.1364 -112.557 39.6591H-112.398V41H-111.102V29.3636H-112.443V33.6591H-112.557C-112.852 33.2045 -113.375 32.1591 -115.08 32.1591C-117.284 32.1591 -118.807 33.9091 -118.807 36.6591C-118.807 39.4318 -117.284 41.1818 -115.102 41.1818ZM-114.92 39.9773C-116.602 39.9773 -117.466 38.5 -117.466 36.6364C-117.466 34.7955 -116.625 33.3636 -114.92 33.3636C-113.284 33.3636 -112.42 34.6818 -112.42 36.6364C-112.42 38.6136 -113.307 39.9773 -114.92 39.9773ZM-100.165 32.2727H-102.028V30.1818H-103.369V32.2727H-104.688V33.4091H-103.369V38.8636C-103.369 40.3864 -102.142 41.1136 -101.006 41.1136C-100.506 41.1136 -100.188 41.0227 -100.006 40.9545L-100.278 39.75C-100.392 39.7727 -100.574 39.8182 -100.869 39.8182C-101.46 39.8182 -102.028 39.6364 -102.028 38.5V33.4091H-100.165V32.2727ZM-96.6193 35.75C-96.6193 34.2273 -95.6477 33.3636 -94.3239 33.3636C-93.0625 33.3636 -92.3011 34.1591 -92.3011 35.5455V41H-90.9602V35.4545C-90.9602 33.2102 -92.1534 32.1591 -93.9375 32.1591C-95.3125 32.1591 -96.0966 32.733 -96.5057 33.6364H-96.6193V29.3636H-97.9602V41H-96.6193V35.75ZM-84.848 41.1818C-83.0753 41.1818 -81.7798 40.2955 -81.3707 38.9773L-82.6662 38.6136C-83.0071 39.5227 -83.7969 39.9773 -84.848 39.9773C-86.4219 39.9773 -87.5071 38.9602 -87.5696 37.0909H-81.2344V36.5227C-81.2344 33.2727 -83.1662 32.1591 -84.9844 32.1591C-87.348 32.1591 -88.9162 34.0227 -88.9162 36.7045C-88.9162 39.3864 -87.3707 41.1818 -84.848 41.1818ZM-87.5696 35.9318C-87.4787 34.5739 -86.5185 33.3636 -84.9844 33.3636C-83.5298 33.3636 -82.598 34.4545 -82.598 35.9318H-87.5696ZM-68.5128 34.2273C-68.9332 32.9886 -69.8764 32.1591 -71.6037 32.1591C-73.4446 32.1591 -74.8082 33.2045 -74.8082 34.6818C-74.8082 35.8864 -74.0923 36.6932 -72.4901 37.0682L-71.0355 37.4091C-70.1548 37.6136 -69.7401 38.0341 -69.7401 38.6364C-69.7401 39.3864 -70.5355 40 -71.7855 40C-72.8821 40 -73.5696 39.5284 -73.8082 38.5909L-75.081 38.9091C-74.7685 40.392 -73.5469 41.1818 -71.7628 41.1818C-69.7344 41.1818 -68.3537 40.0739 -68.3537 38.5682C-68.3537 37.3523 -69.1151 36.5852 -70.6719 36.2045L-71.9673 35.8864C-73.0014 35.6307 -73.4673 35.2841 -73.4673 34.6136C-73.4673 33.8636 -72.6719 33.3182 -71.6037 33.3182C-70.4332 33.3182 -69.9503 33.9659 -69.7173 34.5682L-68.5128 34.2273ZM-62.7898 41.1818C-60.4261 41.1818 -58.8352 39.3864 -58.8352 36.6818C-58.8352 33.9545 -60.4261 32.1591 -62.7898 32.1591C-65.1534 32.1591 -66.7443 33.9545 -66.7443 36.6818C-66.7443 39.3864 -65.1534 41.1818 -62.7898 41.1818ZM-62.7898 39.9773C-64.5852 39.9773 -65.4034 38.4318 -65.4034 36.6818C-65.4034 34.9318 -64.5852 33.3636 -62.7898 33.3636C-60.9943 33.3636 -60.1761 34.9318 -60.1761 36.6818C-60.1761 38.4318 -60.9943 39.9773 -62.7898 39.9773ZM-55.4474 35.75C-55.4474 34.2273 -54.5043 33.3636 -53.2202 33.3636C-51.9759 33.3636 -51.2202 34.1761 -51.2202 35.5455V41H-49.8793V35.4545C-49.8793 33.2273 -51.0668 32.1591 -52.8338 32.1591C-54.152 32.1591 -54.9702 32.75 -55.3793 33.6364H-55.4929V32.2727H-56.7884V41H-55.4474V35.75ZM-41.2472 34.2273C-41.6676 32.9886 -42.6108 32.1591 -44.3381 32.1591C-46.179 32.1591 -47.5426 33.2045 -47.5426 34.6818C-47.5426 35.8864 -46.8267 36.6932 -45.2244 37.0682L-43.7699 37.4091C-42.8892 37.6136 -42.4744 38.0341 -42.4744 38.6364C-42.4744 39.3864 -43.2699 40 -44.5199 40C-45.6165 40 -46.304 39.5284 -46.5426 38.5909L-47.8153 38.9091C-47.5028 40.392 -46.2812 41.1818 -44.4972 41.1818C-42.4688 41.1818 -41.0881 40.0739 -41.0881 38.5682C-41.0881 37.3523 -41.8494 36.5852 -43.4062 36.2045L-44.7017 35.8864C-45.7358 35.6307 -46.2017 35.2841 -46.2017 34.6136C-46.2017 33.8636 -45.4062 33.3182 -44.3381 33.3182C-43.1676 33.3182 -42.6847 33.9659 -42.4517 34.5682L-41.2472 34.2273ZM-31.0241 41.1818C-28.6605 41.1818 -27.0696 39.3864 -27.0696 36.6818C-27.0696 33.9545 -28.6605 32.1591 -31.0241 32.1591C-33.3878 32.1591 -34.9787 33.9545 -34.9787 36.6818C-34.9787 39.3864 -33.3878 41.1818 -31.0241 41.1818ZM-31.0241 39.9773C-32.8196 39.9773 -33.6378 38.4318 -33.6378 36.6818C-33.6378 34.9318 -32.8196 33.3636 -31.0241 33.3636C-29.2287 33.3636 -28.4105 34.9318 -28.4105 36.6818C-28.4105 38.4318 -29.2287 39.9773 -31.0241 39.9773ZM-21.1364 32.2727H-23.0909V31.3864C-23.0909 30.5227 -22.7273 30.0682 -21.8409 30.0682C-21.4545 30.0682 -21.2273 30.1591 -21.0909 30.2045L-20.7045 29.0455C-20.9091 28.9545 -21.3182 28.8182 -21.9773 28.8182C-23.2273 28.8182 -24.4318 29.5682 -24.4318 31.0682V32.2727H-25.8409V33.4091H-24.4318V41H-23.0909V33.4091H-21.1364V32.2727ZM-14.5753 41H-13.1662V36.75H-10.6207C-7.91051 36.75 -6.68892 35.1023 -6.68892 33.0455C-6.68892 30.9886 -7.91051 29.3636 -10.6435 29.3636H-14.5753V41ZM-13.1662 35.5V30.6136H-10.6889C-8.79688 30.6136 -8.07528 31.6477 -8.07528 33.0455C-8.07528 34.4432 -8.79688 35.5 -10.6662 35.5H-13.1662ZM-2.03267 41.2045C-0.509943 41.2045 0.285511 40.3864 0.558239 39.8182H0.62642V41H1.96733V35.25C1.96733 32.4773 -0.146307 32.1591 -1.25994 32.1591C-2.57812 32.1591 -4.07812 32.6136 -4.75994 34.2045L-3.48722 34.6591C-3.19176 34.0227 -2.4929 33.3409 -1.21449 33.3409C0.018466 33.3409 0.62642 33.9943 0.62642 35.1136V35.1591C0.62642 35.8068 -0.0326705 35.75 -1.62358 35.9545C-3.2429 36.1648 -5.00994 36.5227 -5.00994 38.5227C-5.00994 40.2273 -3.69176 41.2045 -2.03267 41.2045ZM-1.82812 40C-2.89631 40 -3.66903 39.5227 -3.66903 38.5909C-3.66903 37.5682 -2.73722 37.25 -1.69176 37.1136C-1.12358 37.0455 0.399148 36.8864 0.62642 36.6136V37.8409C0.62642 38.9318 -0.237216 40 -1.82812 40ZM1.49006 29.3636H-3.82812V30.5H1.49006V29.3636ZM5.75568 35.75C5.75568 34.2273 6.69886 33.3636 7.98295 33.3636C9.22727 33.3636 9.98295 34.1761 9.98295 35.5455V41H11.3239V35.4545C11.3239 33.2273 10.1364 32.1591 8.36932 32.1591C7.05114 32.1591 6.23295 32.75 5.82386 33.6364H5.71023V32.2727H4.41477V41H5.75568V35.75ZM7.86932 43.8864C8.39205 43.8864 8.82386 43.4773 8.82386 42.9773C8.82386 42.4773 8.39205 42.0682 7.86932 42.0682C7.34659 42.0682 6.91477 42.4773 6.91477 42.9773C6.91477 43.4773 7.34659 43.8864 7.86932 43.8864ZM17.0696 41.1818C18.7514 41.1818 19.3196 40.1364 19.6151 39.6591H19.7741V41H21.0696V29.3636H19.7287V33.6591H19.6151C19.3196 33.2045 18.7969 32.1591 17.0923 32.1591C14.8878 32.1591 13.3651 33.9091 13.3651 36.6591C13.3651 39.4318 14.8878 41.1818 17.0696 41.1818ZM17.2514 39.9773C15.5696 39.9773 14.706 38.5 14.706 36.6364C14.706 34.7955 15.5469 33.3636 17.2514 33.3636C18.8878 33.3636 19.7514 34.6818 19.7514 36.6364C19.7514 38.6136 18.8651 39.9773 17.2514 39.9773ZM17.3537 43.8864C17.8764 43.8864 18.3082 43.4773 18.3082 42.9773C18.3082 42.4773 17.8764 42.0682 17.3537 42.0682C16.831 42.0682 16.3991 42.4773 16.3991 42.9773C16.3991 43.4773 16.831 43.8864 17.3537 43.8864ZM29.2116 37.4318C29.2116 39.0682 27.9616 39.8182 26.9616 39.8182C25.848 39.8182 25.0526 39 25.0526 37.7273V32.2727H23.7116V37.8182C23.7116 40.0455 24.8935 41.1136 26.5298 41.1136C27.848 41.1136 28.7116 40.4091 29.1207 39.5227H29.2116V41H30.5526V32.2727H29.2116V37.4318ZM40.0767 41.2045C41.5994 41.2045 42.3949 40.3864 42.6676 39.8182H42.7358V41H44.0767V35.25C44.0767 32.4773 41.9631 32.1591 40.8494 32.1591C39.5312 32.1591 38.0312 32.6136 37.3494 34.2045L38.6222 34.6591C38.9176 34.0227 39.6165 33.3409 40.8949 33.3409C42.1278 33.3409 42.7358 33.9943 42.7358 35.1136V35.1591C42.7358 35.8068 42.0767 35.75 40.4858 35.9545C38.8665 36.1648 37.0994 36.5227 37.0994 38.5227C37.0994 40.2273 38.4176 41.2045 40.0767 41.2045ZM40.2812 40C39.2131 40 38.4403 39.5227 38.4403 38.5909C38.4403 37.5682 39.3722 37.25 40.4176 37.1136C40.9858 37.0455 42.5085 36.8864 42.7358 36.6136V37.8409C42.7358 38.9318 41.8722 40 40.2812 40ZM52.706 34.2273C52.2855 32.9886 51.3423 32.1591 49.6151 32.1591C47.7741 32.1591 46.4105 33.2045 46.4105 34.6818C46.4105 35.8864 47.1264 36.6932 48.7287 37.0682L50.1832 37.4091C51.0639 37.6136 51.4787 38.0341 51.4787 38.6364C51.4787 39.3864 50.6832 40 49.4332 40C48.3366 40 47.6491 39.5284 47.4105 38.5909L46.1378 38.9091C46.4503 40.392 47.6719 41.1818 49.456 41.1818C51.4844 41.1818 52.8651 40.0739 52.8651 38.5682C52.8651 37.3523 52.1037 36.5852 50.5469 36.2045L49.2514 35.8864C48.2173 35.6307 47.7514 35.2841 47.7514 34.6136C47.7514 33.8636 48.5469 33.3182 49.6151 33.3182C50.7855 33.3182 51.2685 33.9659 51.5014 34.5682L52.706 34.2273ZM61.0653 34.2273C60.6449 32.9886 59.7017 32.1591 57.9744 32.1591C56.1335 32.1591 54.7699 33.2045 54.7699 34.6818C54.7699 35.8864 55.4858 36.6932 57.0881 37.0682L58.5426 37.4091C59.4233 37.6136 59.8381 38.0341 59.8381 38.6364C59.8381 39.3864 59.0426 40 57.7926 40C56.696 40 56.0085 39.5284 55.7699 38.5909L54.4972 38.9091C54.8097 40.392 56.0312 41.1818 57.8153 41.1818C59.8438 41.1818 61.2244 40.0739 61.2244 38.5682C61.2244 37.3523 60.4631 36.5852 58.9062 36.2045L57.6108 35.8864C56.5767 35.6307 56.1108 35.2841 56.1108 34.6136C56.1108 33.8636 56.9062 33.3182 57.9744 33.3182C59.1449 33.3182 59.6278 33.9659 59.8608 34.5682L61.0653 34.2273ZM66.902 41.1818C68.6747 41.1818 69.9702 40.2955 70.3793 38.9773L69.0838 38.6136C68.7429 39.5227 67.9531 39.9773 66.902 39.9773C65.3281 39.9773 64.2429 38.9602 64.1804 37.0909H70.5156V36.5227C70.5156 33.2727 68.5838 32.1591 66.7656 32.1591C64.402 32.1591 62.8338 34.0227 62.8338 36.7045C62.8338 39.3864 64.3793 41.1818 66.902 41.1818ZM64.1804 35.9318C64.2713 34.5739 65.2315 33.3636 66.7656 33.3636C68.2202 33.3636 69.152 34.4545 69.152 35.9318H64.1804ZM72.5554 41H73.8963V35.5455C73.8963 34.267 74.8281 33.3636 75.8736 33.3636C76.8906 33.3636 77.6009 34.0284 77.6009 35.0227V41H78.9645V35.3182C78.9645 34.1932 79.669 33.3636 80.8963 33.3636C81.8509 33.3636 82.669 33.8693 82.669 35.1591V41H84.0099V35.1591C84.0099 33.108 82.9077 32.1591 81.3509 32.1591C80.1009 32.1591 79.1861 32.733 78.7372 33.6364H78.6463C78.2145 32.7045 77.4531 32.1591 76.3054 32.1591C75.169 32.1591 74.3281 32.7045 73.9645 33.6364H73.8509V32.2727H72.5554V41ZM86.6435 41H87.9389V39.6591H88.098C88.3935 40.1364 88.9616 41.1818 90.6435 41.1818C92.8253 41.1818 94.348 39.4318 94.348 36.6591C94.348 33.9091 92.8253 32.1591 90.6207 32.1591C88.9162 32.1591 88.3935 33.2045 88.098 33.6591H87.9844V29.3636H86.6435V41ZM87.9616 36.6364C87.9616 34.6818 88.8253 33.3636 90.4616 33.3636C92.1662 33.3636 93.0071 34.7955 93.0071 36.6364C93.0071 38.5 92.1435 39.9773 90.4616 39.9773C88.848 39.9773 87.9616 38.6136 87.9616 36.6364ZM97.7401 29.3636H96.3991V41H97.7401V29.3636ZM103.855 41.1818C105.628 41.1818 106.923 40.2955 107.332 38.9773L106.037 38.6136C105.696 39.5227 104.906 39.9773 103.855 39.9773C102.281 39.9773 101.196 38.9602 101.134 37.0909H107.469V36.5227C107.469 33.2727 105.537 32.1591 103.719 32.1591C101.355 32.1591 99.7869 34.0227 99.7869 36.7045C99.7869 39.3864 101.332 41.1818 103.855 41.1818ZM101.134 35.9318C101.224 34.5739 102.185 33.3636 103.719 33.3636C105.173 33.3636 106.105 34.4545 106.105 35.9318H101.134ZM112.804 41.1818C114.486 41.1818 115.054 40.1364 115.349 39.6591H115.509V41H116.804V29.3636H115.463V33.6591H115.349C115.054 33.2045 114.531 32.1591 112.827 32.1591C110.622 32.1591 109.099 33.9091 109.099 36.6591C109.099 39.4318 110.622 41.1818 112.804 41.1818ZM112.986 39.9773C111.304 39.9773 110.44 38.5 110.44 36.6364C110.44 34.7955 111.281 33.3636 112.986 33.3636C114.622 33.3636 115.486 34.6818 115.486 36.6364C115.486 38.6136 114.599 39.9773 112.986 39.9773ZM123.946 41H125.287V32.2727H123.946V41ZM124.628 30.8182C125.151 30.8182 125.582 30.4091 125.582 29.9091C125.582 29.4091 125.151 29 124.628 29C124.105 29 123.673 29.4091 123.673 29.9091C123.673 30.4091 124.105 30.8182 124.628 30.8182ZM129.084 35.75C129.084 34.2273 130.027 33.3636 131.311 33.3636C132.555 33.3636 133.311 34.1761 133.311 35.5455V41H134.652V35.4545C134.652 33.2273 133.464 32.1591 131.697 32.1591C130.379 32.1591 129.561 32.75 129.152 33.6364H129.038V32.2727H127.743V41H129.084V35.75ZM145.398 32.2727H143.534V30.1818H142.193V32.2727H140.875V33.4091H142.193V38.8636C142.193 40.3864 143.42 41.1136 144.557 41.1136C145.057 41.1136 145.375 41.0227 145.557 40.9545L145.284 39.75C145.17 39.7727 144.989 39.8182 144.693 39.8182C144.102 39.8182 143.534 39.6364 143.534 38.5V33.4091H145.398V32.2727ZM148.943 35.75C148.943 34.2273 149.915 33.3636 151.239 33.3636C152.5 33.3636 153.261 34.1591 153.261 35.5455V41H154.602V35.4545C154.602 33.2102 153.409 32.1591 151.625 32.1591C150.25 32.1591 149.466 32.733 149.057 33.6364H148.943V29.3636H147.602V41H148.943V35.75ZM160.714 41.1818C162.487 41.1818 163.783 40.2955 164.192 38.9773L162.896 38.6136C162.555 39.5227 161.766 39.9773 160.714 39.9773C159.141 39.9773 158.055 38.9602 157.993 37.0909H164.328V36.5227C164.328 33.2727 162.396 32.1591 160.578 32.1591C158.214 32.1591 156.646 34.0227 156.646 36.7045C156.646 39.3864 158.192 41.1818 160.714 41.1818ZM157.993 35.9318C158.084 34.5739 159.044 33.3636 160.578 33.3636C162.033 33.3636 162.964 34.4545 162.964 35.9318H157.993ZM-136.773 68.2727H-135.432V63.6591H-135.318C-135.023 64.1364 -134.455 65.1818 -132.773 65.1818C-130.591 65.1818 -129.068 63.4318 -129.068 60.6591C-129.068 57.9091 -130.591 56.1591 -132.795 56.1591C-134.5 56.1591 -135.023 57.2045 -135.318 57.6591H-135.477V56.2727H-136.773V68.2727ZM-135.455 60.6364C-135.455 58.6818 -134.591 57.3636 -132.955 57.3636C-131.25 57.3636 -130.409 58.7955 -130.409 60.6364C-130.409 62.5 -131.273 63.9773 -132.955 63.9773C-134.568 63.9773 -135.455 62.6136 -135.455 60.6364ZM-125.682 53.3636H-127.023V65H-125.682V53.3636ZM-120.658 65.2045C-119.135 65.2045 -118.339 64.3864 -118.067 63.8182H-117.999V65H-116.658V59.25C-116.658 56.4773 -118.771 56.1591 -119.885 56.1591C-121.203 56.1591 -122.703 56.6136 -123.385 58.2045L-122.112 58.6591C-121.817 58.0227 -121.118 57.3409 -119.839 57.3409C-118.607 57.3409 -117.999 57.9943 -117.999 59.1136V59.1591C-117.999 59.8068 -118.658 59.75 -120.249 59.9545C-121.868 60.1648 -123.635 60.5227 -123.635 62.5227C-123.635 64.2273 -122.317 65.2045 -120.658 65.2045ZM-120.453 64C-121.521 64 -122.294 63.5227 -122.294 62.5909C-122.294 61.5682 -121.362 61.25 -120.317 61.1136C-119.749 61.0455 -118.226 60.8864 -117.999 60.6136V61.8409C-117.999 62.9318 -118.862 64 -120.453 64ZM-110.665 65.1818C-108.733 65.1818 -107.46 64 -107.233 62.4545H-108.574C-108.824 63.4091 -109.619 63.9773 -110.665 63.9773C-112.256 63.9773 -113.278 62.6591 -113.278 60.6364C-113.278 58.6591 -112.233 57.3636 -110.665 57.3636C-109.483 57.3636 -108.778 58.0909 -108.574 58.8864H-107.233C-107.46 57.25 -108.847 56.1591 -110.688 56.1591C-113.051 56.1591 -114.619 58.0227 -114.619 60.6818C-114.619 63.2955 -113.119 65.1818 -110.665 65.1818ZM-101.614 65.1818C-99.8409 65.1818 -98.5455 64.2955 -98.1364 62.9773L-99.4318 62.6136C-99.7727 63.5227 -100.562 63.9773 -101.614 63.9773C-103.188 63.9773 -104.273 62.9602 -104.335 61.0909H-98V60.5227C-98 57.2727 -99.9318 56.1591 -101.75 56.1591C-104.114 56.1591 -105.682 58.0227 -105.682 60.7045C-105.682 63.3864 -104.136 65.1818 -101.614 65.1818ZM-104.335 59.9318C-104.244 58.5739 -103.284 57.3636 -101.75 57.3636C-100.295 57.3636 -99.3636 58.4545 -99.3636 59.9318H-104.335ZM-87.9148 65.1818C-85.5511 65.1818 -83.9602 63.3864 -83.9602 60.6818C-83.9602 57.9545 -85.5511 56.1591 -87.9148 56.1591C-90.2784 56.1591 -91.8693 57.9545 -91.8693 60.6818C-91.8693 63.3864 -90.2784 65.1818 -87.9148 65.1818ZM-87.9148 63.9773C-89.7102 63.9773 -90.5284 62.4318 -90.5284 60.6818C-90.5284 58.9318 -89.7102 57.3636 -87.9148 57.3636C-86.1193 57.3636 -85.3011 58.9318 -85.3011 60.6818C-85.3011 62.4318 -86.1193 63.9773 -87.9148 63.9773ZM-78.027 56.2727H-79.9815V55.3864C-79.9815 54.5227 -79.6179 54.0682 -78.7315 54.0682C-78.3452 54.0682 -78.1179 54.1591 -77.9815 54.2045L-77.5952 53.0455C-77.7997 52.9545 -78.2088 52.8182 -78.8679 52.8182C-80.1179 52.8182 -81.3224 53.5682 -81.3224 55.0682V56.2727H-82.7315V57.4091H-81.3224V65H-79.9815V57.4091H-78.027V56.2727ZM-71.6477 68.2727H-70.3068V63.6591H-70.1932C-69.8977 64.1364 -69.3295 65.1818 -67.6477 65.1818C-65.4659 65.1818 -63.9432 63.4318 -63.9432 60.6591C-63.9432 57.9091 -65.4659 56.1591 -67.6705 56.1591C-69.375 56.1591 -69.8977 57.2045 -70.1932 57.6591H-70.3523V56.2727H-71.6477V68.2727ZM-70.3295 60.6364C-70.3295 58.6818 -69.4659 57.3636 -67.8295 57.3636C-66.125 57.3636 -65.2841 58.7955 -65.2841 60.6364C-65.2841 62.5 -66.1477 63.9773 -67.8295 63.9773C-69.4432 63.9773 -70.3295 62.6136 -70.3295 60.6364ZM-61.8977 65H-60.5568V56.2727H-61.8977V65ZM-61.2159 54.8182C-60.6932 54.8182 -60.2614 54.4091 -60.2614 53.9091C-60.2614 53.4091 -60.6932 53 -61.2159 53C-61.7386 53 -62.1705 53.4091 -62.1705 53.9091C-62.1705 54.4091 -61.7386 54.8182 -61.2159 54.8182ZM-56.7599 53.3636H-58.1009V65H-56.7599V53.3636ZM-50.7812 68.4545C-48.6903 68.4545 -47.0085 67.5 -47.0085 65.25V56.2727H-48.304V57.6591H-48.4403C-48.7358 57.2045 -49.2812 56.1591 -50.9858 56.1591C-53.1903 56.1591 -54.7131 57.9091 -54.7131 60.5909C-54.7131 63.3182 -53.1222 64.8636 -51.0085 64.8636C-49.304 64.8636 -48.7585 63.8636 -48.4631 63.3864H-48.3494V65.1591C-48.3494 66.6136 -49.3722 67.2727 -50.7812 67.2727C-52.3665 67.2727 -52.9233 66.4375 -53.2812 65.9545L-54.3494 66.7045C-53.804 67.6193 -52.7301 68.4545 -50.7812 68.4545ZM-50.8267 63.6591C-52.5085 63.6591 -53.3722 62.3864 -53.3722 60.5682C-53.3722 58.7955 -52.5312 57.3636 -50.8267 57.3636C-49.1903 57.3636 -48.3267 58.6818 -48.3267 60.5682C-48.3267 62.5 -49.2131 63.6591 -50.8267 63.6591ZM-44.554 65H-43.2131V59.4773C-43.2131 58.2955 -42.2812 57.4318 -41.0085 57.4318C-40.6506 57.4318 -40.2812 57.5 -40.1903 57.5227V56.1591C-40.3438 56.1477 -40.696 56.1364 -40.8949 56.1364C-41.9403 56.1364 -42.8494 56.7273 -43.1676 57.5909H-43.2585V56.2727H-44.554V65ZM-38.6009 65H-37.2599V56.2727H-38.6009V65ZM-37.919 54.8182C-37.3963 54.8182 -36.9645 54.4091 -36.9645 53.9091C-36.9645 53.4091 -37.3963 53 -37.919 53C-38.4418 53 -38.8736 53.4091 -38.8736 53.9091C-38.8736 54.4091 -38.4418 54.8182 -37.919 54.8182ZM-34.804 65H-33.4631V59.5455C-33.4631 58.267 -32.5312 57.3636 -31.4858 57.3636C-30.4688 57.3636 -29.7585 58.0284 -29.7585 59.0227V65H-28.3949V59.3182C-28.3949 58.1932 -27.6903 57.3636 -26.4631 57.3636C-25.5085 57.3636 -24.6903 57.8693 -24.6903 59.1591V65H-23.3494V59.1591C-23.3494 57.108 -24.4517 56.1591 -26.0085 56.1591C-27.2585 56.1591 -28.1733 56.733 -28.6222 57.6364H-28.7131C-29.1449 56.7045 -29.9062 56.1591 -31.054 56.1591C-32.1903 56.1591 -33.0312 56.7045 -33.3949 57.6364H-33.5085V56.2727H-34.804V65ZM-18.3295 65.2045C-16.8068 65.2045 -16.0114 64.3864 -15.7386 63.8182H-15.6705V65H-14.3295V59.25C-14.3295 56.4773 -16.4432 56.1591 -17.5568 56.1591C-18.875 56.1591 -20.375 56.6136 -21.0568 58.2045L-19.7841 58.6591C-19.4886 58.0227 -18.7898 57.3409 -17.5114 57.3409C-16.2784 57.3409 -15.6705 57.9943 -15.6705 59.1136V59.1591C-15.6705 59.8068 -16.3295 59.75 -17.9205 59.9545C-19.5398 60.1648 -21.3068 60.5227 -21.3068 62.5227C-21.3068 64.2273 -19.9886 65.2045 -18.3295 65.2045ZM-18.125 64C-19.1932 64 -19.9659 63.5227 -19.9659 62.5909C-19.9659 61.5682 -19.0341 61.25 -17.9886 61.1136C-17.4205 61.0455 -15.8977 60.8864 -15.6705 60.6136V61.8409C-15.6705 62.9318 -16.5341 64 -18.125 64ZM-8.35938 68.4545C-6.26847 68.4545 -4.58665 67.5 -4.58665 65.25V56.2727H-5.8821V57.6591H-6.01847C-6.31392 57.2045 -6.85938 56.1591 -8.56392 56.1591C-10.7685 56.1591 -12.2912 57.9091 -12.2912 60.5909C-12.2912 63.3182 -10.7003 64.8636 -8.58665 64.8636C-6.8821 64.8636 -6.33665 63.8636 -6.04119 63.3864H-5.92756V65.1591C-5.92756 66.6136 -6.95028 67.2727 -8.35938 67.2727C-9.9446 67.2727 -10.5014 66.4375 -10.8594 65.9545L-11.9276 66.7045C-11.3821 67.6193 -10.3082 68.4545 -8.35938 68.4545ZM-8.40483 63.6591C-10.0866 63.6591 -10.9503 62.3864 -10.9503 60.5682C-10.9503 58.7955 -10.1094 57.3636 -8.40483 57.3636C-6.76847 57.3636 -5.90483 58.6818 -5.90483 60.5682C-5.90483 62.5 -6.79119 63.6591 -8.40483 63.6591ZM1.52699 65.1818C3.29972 65.1818 4.59517 64.2955 5.00426 62.9773L3.70881 62.6136C3.3679 63.5227 2.57812 63.9773 1.52699 63.9773C-0.046875 63.9773 -1.1321 62.9602 -1.1946 61.0909H5.14062V60.5227C5.14062 57.2727 3.20881 56.1591 1.39062 56.1591C-0.973011 56.1591 -2.54119 58.0227 -2.54119 60.7045C-2.54119 63.3864 -0.995739 65.1818 1.52699 65.1818ZM-1.1946 59.9318C-1.10369 58.5739 -0.143466 57.3636 1.39062 57.3636C2.84517 57.3636 3.77699 58.4545 3.77699 59.9318H-1.1946ZM14.2486 65.2045C15.7713 65.2045 16.5668 64.3864 16.8395 63.8182H16.9077V65H18.2486V59.25C18.2486 56.4773 16.1349 56.1591 15.0213 56.1591C13.7031 56.1591 12.2031 56.6136 11.5213 58.2045L12.794 58.6591C13.0895 58.0227 13.7884 57.3409 15.0668 57.3409C16.2997 57.3409 16.9077 57.9943 16.9077 59.1136V59.1591C16.9077 59.8068 16.2486 59.75 14.6577 59.9545C13.0384 60.1648 11.2713 60.5227 11.2713 62.5227C11.2713 64.2273 12.5895 65.2045 14.2486 65.2045ZM14.4531 64C13.3849 64 12.6122 63.5227 12.6122 62.5909C12.6122 61.5682 13.544 61.25 14.5895 61.1136C15.1577 61.0455 16.6804 60.8864 16.9077 60.6136V61.8409C16.9077 62.9318 16.044 64 14.4531 64ZM24.4915 56.2727H22.6278V54.1818H21.2869V56.2727H19.9688V57.4091H21.2869V62.8636C21.2869 64.3864 22.5142 65.1136 23.6506 65.1136C24.1506 65.1136 24.4688 65.0227 24.6506 64.9545L24.3778 63.75C24.2642 63.7727 24.0824 63.8182 23.7869 63.8182C23.196 63.8182 22.6278 63.6364 22.6278 62.5V57.4091H24.4915V56.2727ZM31.1903 65H32.5994V61.2273L34.054 59.5909L38.0994 65H39.804L34.9176 58.6136L39.804 53.3636H37.9631L32.7358 59.1364H32.5994V53.3636H31.1903V65ZM46.3991 61.4318C46.3991 63.0682 45.1491 63.8182 44.1491 63.8182C43.0355 63.8182 42.2401 63 42.2401 61.7273V56.2727H40.8991V61.8182C40.8991 64.0455 42.081 65.1136 43.7173 65.1136C45.0355 65.1136 45.8991 64.4091 46.3082 63.5227H46.3991V65H47.7401V56.2727H46.3991V61.4318ZM50.196 65H51.5369V59.4773C51.5369 58.2955 52.4688 57.4318 53.7415 57.4318C54.0994 57.4318 54.4688 57.5 54.5597 57.5227V56.1591C54.4062 56.1477 54.054 56.1364 53.8551 56.1364C52.8097 56.1364 51.9006 56.7273 51.5824 57.5909H51.4915V56.2727H50.196V65ZM61.6491 61.4318C61.6491 63.0682 60.3991 63.8182 59.3991 63.8182C58.2855 63.8182 57.4901 63 57.4901 61.7273V56.2727H56.1491V61.8182C56.1491 64.0455 57.331 65.1136 58.9673 65.1136C60.2855 65.1136 61.1491 64.4091 61.5582 63.5227H61.6491V65H62.9901V56.2727H61.6491V61.4318ZM65.446 65H66.7869V61.733L67.7244 60.8636L70.9915 65H72.696L68.7358 60L72.4233 56.2727H70.7642L66.946 60.1591H66.7869V53.3636H65.446V65ZM80.331 58.2273C79.9105 56.9886 78.9673 56.1591 77.2401 56.1591C75.3991 56.1591 74.0355 57.2045 74.0355 58.6818C74.0355 59.8864 74.7514 60.6932 76.3537 61.0682L77.8082 61.4091C78.6889 61.6136 79.1037 62.0341 79.1037 62.6364C79.1037 63.3864 78.3082 64 77.0582 64C75.9616 64 75.2741 63.5284 75.0355 62.5909L73.7628 62.9091C74.0753 64.392 75.2969 65.1818 77.081 65.1818C79.1094 65.1818 80.4901 64.0739 80.4901 62.5682C80.4901 61.3523 79.7287 60.5852 78.1719 60.2045L76.8764 59.8864C75.8423 59.6307 75.3764 59.2841 75.3764 58.6136C75.3764 57.8636 76.1719 57.3182 77.2401 57.3182C78.4105 57.3182 78.8935 57.9659 79.1264 58.5682L80.331 58.2273ZM77.1946 67.8864C77.7173 67.8864 78.1491 67.4773 78.1491 66.9773C78.1491 66.4773 77.7173 66.0682 77.1946 66.0682C76.6719 66.0682 76.2401 66.4773 76.2401 66.9773C76.2401 67.4773 76.6719 67.8864 77.1946 67.8864ZM86.1676 65.1818C87.9403 65.1818 89.2358 64.2955 89.6449 62.9773L88.3494 62.6136C88.0085 63.5227 87.2188 63.9773 86.1676 63.9773C84.5938 63.9773 83.5085 62.9602 83.446 61.0909H89.7812V60.5227C89.7812 57.2727 87.8494 56.1591 86.0312 56.1591C83.6676 56.1591 82.0994 58.0227 82.0994 60.7045C82.0994 63.3864 83.6449 65.1818 86.1676 65.1818ZM83.446 59.9318C83.5369 58.5739 84.4972 57.3636 86.0312 57.3636C87.4858 57.3636 88.4176 58.4545 88.4176 59.9318H83.446ZM95.6165 56.2727H93.7528V54.1818H92.4119V56.2727H91.0938V57.4091H92.4119V62.8636C92.4119 64.3864 93.6392 65.1136 94.7756 65.1136C95.2756 65.1136 95.5938 65.0227 95.7756 64.9545L95.5028 63.75C95.3892 63.7727 95.2074 63.8182 94.9119 63.8182C94.321 63.8182 93.7528 63.6364 93.7528 62.5V57.4091H95.6165V56.2727ZM97.6335 65H98.9744V59.4773C98.9744 58.2955 99.9062 57.4318 101.179 57.4318C101.537 57.4318 101.906 57.5 101.997 57.5227V56.1591C101.844 56.1477 101.491 56.1364 101.293 56.1364C100.247 56.1364 99.3381 56.7273 99.0199 57.5909H98.929V56.2727H97.6335V65ZM106.155 65.2045C107.678 65.2045 108.473 64.3864 108.746 63.8182H108.814V65H110.155V59.25C110.155 56.4773 108.041 56.1591 106.928 56.1591C105.609 56.1591 104.109 56.6136 103.428 58.2045L104.7 58.6591C104.996 58.0227 105.695 57.3409 106.973 57.3409C108.206 57.3409 108.814 57.9943 108.814 59.1136V59.1591C108.814 59.8068 108.155 59.75 106.564 59.9545C104.945 60.1648 103.178 60.5227 103.178 62.5227C103.178 64.2273 104.496 65.2045 106.155 65.2045ZM106.359 64C105.291 64 104.518 63.5227 104.518 62.5909C104.518 61.5682 105.45 61.25 106.496 61.1136C107.064 61.0455 108.587 60.8864 108.814 60.6136V61.8409C108.814 62.9318 107.95 64 106.359 64ZM114.602 63.4091H113.148L113.08 64.0455C112.915 65.5852 112.591 67.1193 112.443 67.8409H113.466C113.739 67.0682 114.318 65.3182 114.511 64.0227L114.602 63.4091ZM124.882 65.1818C126.564 65.1818 127.132 64.1364 127.428 63.6591H127.587V65H128.882V53.3636H127.541V57.6591H127.428C127.132 57.2045 126.609 56.1591 124.905 56.1591C122.7 56.1591 121.178 57.9091 121.178 60.6591C121.178 63.4318 122.7 65.1818 124.882 65.1818ZM125.064 63.9773C123.382 63.9773 122.518 62.5 122.518 60.6364C122.518 58.7955 123.359 57.3636 125.064 57.3636C126.7 57.3636 127.564 58.6818 127.564 60.6364C127.564 62.6136 126.678 63.9773 125.064 63.9773ZM135.183 65.1818C136.956 65.1818 138.251 64.2955 138.661 62.9773L137.365 62.6136C137.024 63.5227 136.234 63.9773 135.183 63.9773C133.609 63.9773 132.524 62.9602 132.462 61.0909H138.797V60.5227C138.797 57.2727 136.865 56.1591 135.047 56.1591C132.683 56.1591 131.115 58.0227 131.115 60.7045C131.115 63.3864 132.661 65.1818 135.183 65.1818ZM132.462 59.9318C132.553 58.5739 133.513 57.3636 135.047 57.3636C136.501 57.3636 137.433 58.4545 137.433 59.9318H132.462ZM147.018 58.2273C146.598 56.9886 145.655 56.1591 143.928 56.1591C142.087 56.1591 140.723 57.2045 140.723 58.6818C140.723 59.8864 141.439 60.6932 143.041 61.0682L144.496 61.4091C145.376 61.6136 145.791 62.0341 145.791 62.6364C145.791 63.3864 144.996 64 143.746 64C142.649 64 141.962 63.5284 141.723 62.5909L140.45 62.9091C140.763 64.392 141.984 65.1818 143.768 65.1818C145.797 65.1818 147.178 64.0739 147.178 62.5682C147.178 61.3523 146.416 60.5852 144.859 60.2045L143.564 59.8864C142.53 59.6307 142.064 59.2841 142.064 58.6136C142.064 57.8636 142.859 57.3182 143.928 57.3182C145.098 57.3182 145.581 57.9659 145.814 58.5682L147.018 58.2273ZM149.196 65H150.537V56.2727H149.196V65ZM149.878 54.8182C150.401 54.8182 150.832 54.4091 150.832 53.9091C150.832 53.4091 150.401 53 149.878 53C149.355 53 148.923 53.4091 148.923 53.9091C148.923 54.4091 149.355 54.8182 149.878 54.8182ZM152.993 65H154.334V59.4773C154.334 58.2955 155.266 57.4318 156.538 57.4318C156.896 57.4318 157.266 57.5 157.357 57.5227V56.1591C157.203 56.1477 156.851 56.1364 156.652 56.1364C155.607 56.1364 154.697 56.7273 154.379 57.5909H154.288V56.2727H152.993V65ZM158.946 65H160.287V56.2727H158.946V65ZM159.628 54.8182C160.151 54.8182 160.582 54.4091 160.582 53.9091C160.582 53.4091 160.151 53 159.628 53C159.105 53 158.673 53.4091 158.673 53.9091C158.673 54.4091 159.105 54.8182 159.628 54.8182ZM164.084 59.75C164.084 58.2273 165.027 57.3636 166.311 57.3636C167.555 57.3636 168.311 58.1761 168.311 59.5455V65H169.652V59.4545C169.652 57.2273 168.464 56.1591 166.697 56.1591C165.379 56.1591 164.561 56.75 164.152 57.6364H164.038V56.2727H162.743V65H164.084V59.75ZM175.625 68.4545C177.716 68.4545 179.398 67.5 179.398 65.25V56.2727H178.102V57.6591H177.966C177.67 57.2045 177.125 56.1591 175.42 56.1591C173.216 56.1591 171.693 57.9091 171.693 60.5909C171.693 63.3182 173.284 64.8636 175.398 64.8636C177.102 64.8636 177.648 63.8636 177.943 63.3864H178.057V65.1591C178.057 66.6136 177.034 67.2727 175.625 67.2727C174.04 67.2727 173.483 66.4375 173.125 65.9545L172.057 66.7045C172.602 67.6193 173.676 68.4545 175.625 68.4545ZM175.58 63.6591C173.898 63.6591 173.034 62.3864 173.034 60.5682C173.034 58.7955 173.875 57.3636 175.58 57.3636C177.216 57.3636 178.08 58.6818 178.08 60.5682C178.08 62.5 177.193 63.6591 175.58 63.6591ZM-132.977 80.2727H-134.841V78.1818H-136.182V80.2727H-137.5V81.4091H-136.182V86.8636C-136.182 88.3864 -134.955 89.1136 -133.818 89.1136C-133.318 89.1136 -133 89.0227 -132.818 88.9545L-133.091 87.75C-133.205 87.7727 -133.386 87.8182 -133.682 87.8182C-134.273 87.8182 -134.841 87.6364 -134.841 86.5V81.4091H-132.977V80.2727ZM-127.509 89.1818C-125.145 89.1818 -123.554 87.3864 -123.554 84.6818C-123.554 81.9545 -125.145 80.1591 -127.509 80.1591C-129.872 80.1591 -131.463 81.9545 -131.463 84.6818C-131.463 87.3864 -129.872 89.1818 -127.509 89.1818ZM-127.509 87.9773C-129.304 87.9773 -130.122 86.4318 -130.122 84.6818C-130.122 82.9318 -129.304 81.3636 -127.509 81.3636C-125.713 81.3636 -124.895 82.9318 -124.895 84.6818C-124.895 86.4318 -125.713 87.9773 -127.509 87.9773ZM-113.121 80.2727H-115.075V79.3864C-115.075 78.5227 -114.712 78.0682 -113.825 78.0682C-113.439 78.0682 -113.212 78.1591 -113.075 78.2045L-112.689 77.0455C-112.893 76.9545 -113.303 76.8182 -113.962 76.8182C-115.212 76.8182 -116.416 77.5682 -116.416 79.0682V80.2727H-117.825V81.4091H-116.416V89H-115.075V81.4091H-113.121V80.2727ZM-111.241 89H-109.901V80.2727H-111.241V89ZM-110.56 78.8182C-110.037 78.8182 -109.605 78.4091 -109.605 77.9091C-109.605 77.4091 -110.037 77 -110.56 77C-111.082 77 -111.514 77.4091 -111.514 77.9091C-111.514 78.4091 -111.082 78.8182 -110.56 78.8182ZM-103.922 92.4545C-101.831 92.4545 -100.149 91.5 -100.149 89.25V80.2727H-101.445V81.6591H-101.581C-101.876 81.2045 -102.422 80.1591 -104.126 80.1591C-106.331 80.1591 -107.854 81.9091 -107.854 84.5909C-107.854 87.3182 -106.263 88.8636 -104.149 88.8636C-102.445 88.8636 -101.899 87.8636 -101.604 87.3864H-101.49V89.1591C-101.49 90.6136 -102.513 91.2727 -103.922 91.2727C-105.507 91.2727 -106.064 90.4375 -106.422 89.9545L-107.49 90.7045C-106.945 91.6193 -105.871 92.4545 -103.922 92.4545ZM-103.967 87.6591C-105.649 87.6591 -106.513 86.3864 -106.513 84.5682C-106.513 82.7955 -105.672 81.3636 -103.967 81.3636C-102.331 81.3636 -101.467 82.6818 -101.467 84.5682C-101.467 86.5 -102.354 87.6591 -103.967 87.6591ZM-96.3537 83.75C-96.3537 82.2273 -95.3821 81.3636 -94.0582 81.3636C-92.7969 81.3636 -92.0355 82.1591 -92.0355 83.5455V89H-90.6946V83.4545C-90.6946 81.2102 -91.8878 80.1591 -93.6719 80.1591C-95.0469 80.1591 -95.831 80.733 -96.2401 81.6364H-96.3537V77.3636H-97.6946V89H-96.3537V83.75ZM-84.446 80.2727H-86.3097V78.1818H-87.6506V80.2727H-88.9688V81.4091H-87.6506V86.8636C-87.6506 88.3864 -86.4233 89.1136 -85.2869 89.1136C-84.7869 89.1136 -84.4688 89.0227 -84.2869 88.9545L-84.5597 87.75C-84.6733 87.7727 -84.8551 87.8182 -85.1506 87.8182C-85.7415 87.8182 -86.3097 87.6364 -86.3097 86.5V81.4091H-84.446V80.2727ZM-80.429 87.4091H-81.8835L-81.9517 88.0455C-82.1165 89.5852 -82.4403 91.1193 -82.5881 91.8409H-81.5653C-81.2926 91.0682 -80.7131 89.3182 -80.5199 88.0227L-80.429 87.4091ZM-71.4673 89H-70.1491L-68.2401 82.2955H-68.1037L-66.1946 89H-64.8764L-62.2173 80.2727H-63.6264L-65.5128 86.9318H-65.6037L-67.4446 80.2727H-68.8764L-70.7401 86.9545H-70.831L-72.7173 80.2727H-74.1264L-71.4673 89ZM-59.1037 83.75C-59.1037 82.2273 -58.1321 81.3636 -56.8082 81.3636C-55.5469 81.3636 -54.7855 82.1591 -54.7855 83.5455V89H-53.4446V83.4545C-53.4446 81.2102 -54.6378 80.1591 -56.4219 80.1591C-57.7969 80.1591 -58.581 80.733 -58.9901 81.6364H-59.1037V77.3636H-60.4446V89H-59.1037V83.75ZM-48.4233 89.2045C-46.9006 89.2045 -46.1051 88.3864 -45.8324 87.8182H-45.7642V89H-44.4233V83.25C-44.4233 80.4773 -46.5369 80.1591 -47.6506 80.1591C-48.9688 80.1591 -50.4688 80.6136 -51.1506 82.2045L-49.8778 82.6591C-49.5824 82.0227 -48.8835 81.3409 -47.6051 81.3409C-46.3722 81.3409 -45.7642 81.9943 -45.7642 83.1136V83.1591C-45.7642 83.8068 -46.4233 83.75 -48.0142 83.9545C-49.6335 84.1648 -51.4006 84.5227 -51.4006 86.5227C-51.4006 88.2273 -50.0824 89.2045 -48.4233 89.2045ZM-48.2188 88C-49.2869 88 -50.0597 87.5227 -50.0597 86.5909C-50.0597 85.5682 -49.1278 85.25 -48.0824 85.1136C-47.5142 85.0455 -45.9915 84.8864 -45.7642 84.6136V85.8409C-45.7642 86.9318 -46.6278 88 -48.2188 88ZM-38.1804 80.2727H-40.044V78.1818H-41.3849V80.2727H-42.7031V81.4091H-41.3849V86.8636C-41.3849 88.3864 -40.1577 89.1136 -39.0213 89.1136C-38.5213 89.1136 -38.2031 89.0227 -38.0213 88.9545L-38.294 87.75C-38.4077 87.7727 -38.5895 87.8182 -38.8849 87.8182C-39.4759 87.8182 -40.044 87.6364 -40.044 86.5V81.4091H-38.1804V80.2727ZM-28.3679 89.1818C-26.6861 89.1818 -26.1179 88.1364 -25.8224 87.6591H-25.6634V89H-24.3679V77.3636H-25.7088V81.6591H-25.8224C-26.1179 81.2045 -26.6406 80.1591 -28.3452 80.1591C-30.5497 80.1591 -32.0724 81.9091 -32.0724 84.6591C-32.0724 87.4318 -30.5497 89.1818 -28.3679 89.1818ZM-28.1861 87.9773C-29.8679 87.9773 -30.7315 86.5 -30.7315 84.6364C-30.7315 82.7955 -29.8906 81.3636 -28.1861 81.3636C-26.5497 81.3636 -25.6861 82.6818 -25.6861 84.6364C-25.6861 86.6136 -26.5724 87.9773 -28.1861 87.9773ZM-21.7259 89H-20.3849V80.2727H-21.7259V89ZM-21.044 78.8182C-20.5213 78.8182 -20.0895 78.4091 -20.0895 77.9091C-20.0895 77.4091 -20.5213 77 -21.044 77C-21.5668 77 -21.9986 77.4091 -21.9986 77.9091C-21.9986 78.4091 -21.5668 78.8182 -21.044 78.8182ZM-14.6335 89.1818C-12.9517 89.1818 -12.3835 88.1364 -12.0881 87.6591H-11.929V89H-10.6335V77.3636H-11.9744V81.6591H-12.0881C-12.3835 81.2045 -12.9062 80.1591 -14.6108 80.1591C-16.8153 80.1591 -18.3381 81.9091 -18.3381 84.6591C-18.3381 87.4318 -16.8153 89.1818 -14.6335 89.1818ZM-14.4517 87.9773C-16.1335 87.9773 -16.9972 86.5 -16.9972 84.6364C-16.9972 82.7955 -16.1562 81.3636 -14.4517 81.3636C-12.8153 81.3636 -11.9517 82.6818 -11.9517 84.6364C-11.9517 86.6136 -12.8381 87.9773 -14.4517 87.9773ZM0.303977 80.2727H-1.55966V78.1818H-2.90057V80.2727H-4.21875V81.4091H-2.90057V86.8636C-2.90057 88.3864 -1.6733 89.1136 -0.536932 89.1136C-0.0369315 89.1136 0.28125 89.0227 0.463068 88.9545L0.190341 87.75C0.0767045 87.7727 -0.105114 87.8182 -0.400568 87.8182C-0.991477 87.8182 -1.55966 87.6364 -1.55966 86.5V81.4091H0.303977V80.2727ZM3.84943 83.75C3.84943 82.2273 4.82102 81.3636 6.14489 81.3636C7.40625 81.3636 8.16761 82.1591 8.16761 83.5455V89H9.50852V83.4545C9.50852 81.2102 8.31534 80.1591 6.53125 80.1591C5.15625 80.1591 4.37216 80.733 3.96307 81.6364H3.84943V77.3636H2.50852V89H3.84943V83.75ZM15.6207 89.1818C17.3935 89.1818 18.6889 88.2955 19.098 86.9773L17.8026 86.6136C17.4616 87.5227 16.6719 87.9773 15.6207 87.9773C14.0469 87.9773 12.9616 86.9602 12.8991 85.0909H19.2344V84.5227C19.2344 81.2727 17.3026 80.1591 15.4844 80.1591C13.1207 80.1591 11.5526 82.0227 11.5526 84.7045C11.5526 87.3864 13.098 89.1818 15.6207 89.1818ZM12.8991 83.9318C12.9901 82.5739 13.9503 81.3636 15.4844 81.3636C16.9389 81.3636 17.8707 82.4545 17.8707 83.9318H12.8991ZM21.8722 92.2727C23.0824 92.2727 23.9347 91.6307 24.4403 90.2727L28.1562 80.2955L26.6903 80.2727L24.2812 87.2273H24.1903L21.7812 80.2727H20.3267L23.554 89.0455L23.304 89.7273C22.8153 91.0568 22.2131 91.1818 21.2358 90.9318L20.8949 92.1136C21.0312 92.1818 21.4176 92.2727 21.8722 92.2727ZM37.7259 89.1818C39.4077 89.1818 39.9759 88.1364 40.2713 87.6591H40.4304V89H41.7259V77.3636H40.3849V81.6591H40.2713C39.9759 81.2045 39.4531 80.1591 37.7486 80.1591C35.544 80.1591 34.0213 81.9091 34.0213 84.6591C34.0213 87.4318 35.544 89.1818 37.7259 89.1818ZM37.9077 87.9773C36.2259 87.9773 35.3622 86.5 35.3622 84.6364C35.3622 82.7955 36.2031 81.3636 37.9077 81.3636C39.544 81.3636 40.4077 82.6818 40.4077 84.6364C40.4077 86.6136 39.5213 87.9773 37.9077 87.9773ZM47.9134 89.1818C50.277 89.1818 51.8679 87.3864 51.8679 84.6818C51.8679 81.9545 50.277 80.1591 47.9134 80.1591C45.5497 80.1591 43.9588 81.9545 43.9588 84.6818C43.9588 87.3864 45.5497 89.1818 47.9134 89.1818ZM47.9134 87.9773C46.1179 87.9773 45.2997 86.4318 45.2997 84.6818C45.2997 82.9318 46.1179 81.3636 47.9134 81.3636C49.7088 81.3636 50.527 82.9318 50.527 84.6818C50.527 86.4318 49.7088 87.9773 47.9134 87.9773ZM55.6648 85.7273H57.0284V85.6591C57.0511 84.25 57.4148 83.6364 58.4148 83.0114C59.4148 82.4034 60.0057 81.5284 60.0057 80.2727C60.0057 78.5 58.7102 77.2045 56.7102 77.2045C54.8693 77.2045 53.4091 78.3409 53.3239 80.2727H54.7557C54.8409 78.9318 55.7784 78.3864 56.7102 78.3864C57.7784 78.3864 58.642 79.0909 58.642 80.2045C58.642 81.108 58.125 81.7557 57.4602 82.1591C56.3466 82.8352 55.6818 83.4943 55.6648 85.6591V85.7273ZM56.392 89.0909C56.9545 89.0909 57.4148 88.6307 57.4148 88.0682C57.4148 87.5057 56.9545 87.0455 56.392 87.0455C55.8295 87.0455 55.3693 87.5057 55.3693 88.0682C55.3693 88.6307 55.8295 89.0909 56.392 89.0909Z" fill="#1A1A1A"/>
<rect x="-158" y="-155" width="375" height="812" fill="black" fill-opacity="0.5"/>
<rect x="-23" y="-17" width="220" height="104" rx="8" fill="white"/>
<path d="M0.188477 6.49247L2.50732 3.70986L7.145 3.24609L15.4928 3.70986L16.8841 5.10117L17.8117 6.95624L0.188477 6.49247Z" fill="#FEC93B"/>
<path d="M13.8696 2.82609H13.069C12.7704 1.249 11.3877 0 9.69565 0H8.30435C6.61343 0 5.22978 1.24817 4.93104 2.82609H4.13043C1.85291 2.82609 0 4.679 0 6.95652C0 7.3167 0.292 7.6087 0.652174 7.6087H1.78396L2.698 20.4433C2.77052 21.4625 3.62778 22.2609 4.64952 22.2609H13.3504C14.3722 22.2609 15.2294 21.4625 15.302 20.4433L16.216 7.6087H17.3478C17.708 7.6087 18 7.3167 18 6.95652C18 4.679 16.1471 2.82609 13.8696 2.82609ZM8.30435 1.30435H9.69565C10.6478 1.30435 11.4561 1.94496 11.7282 2.82609H6.27183C6.54391 1.94496 7.35217 1.30435 8.30435 1.30435ZM14.001 20.3507C13.9768 20.6903 13.691 20.9565 13.3505 20.9565H4.64952C4.30896 20.9565 4.02317 20.6904 3.999 20.3507L3.09157 7.6087H14.9084L14.001 20.3507ZM1.3803 6.30435C1.67548 5.05935 2.79652 4.13043 4.13043 4.13043H13.8696C15.2035 4.13043 16.3245 5.05935 16.6197 6.30435C16.0321 6.30435 1.87348 6.30435 1.3803 6.30435Z" fill="black"/>
<path d="M11.0542 18.7386C11.4127 18.7564 11.72 18.4807 11.7381 18.1198L12.0859 11.1633C12.1039 10.8036 11.8269 10.4974 11.4671 10.4794C11.108 10.461 10.8012 10.7384 10.7832 11.0982L10.4354 18.0547C10.4174 18.4144 10.6944 18.7206 11.0542 18.7386Z" fill="black"/>
<path d="M6.91253 18.7394C7.28805 18.7394 7.58296 18.4253 7.56444 18.0546L7.21661 11.0981C7.19861 10.7384 6.89192 10.4613 6.5327 10.4793C6.17296 10.4973 5.89592 10.8036 5.91392 11.1633L6.26174 18.1198C6.27913 18.4684 6.56731 18.7394 6.91253 18.7394Z" fill="black"/>
</svg>
