<svg xmlns="http://www.w3.org/2000/svg" width="18" height="23" fill="none" viewBox="0 0 18 23"><g id="Group"><path id="Vector 31" fill="#FEC93B" d="M0.188477 6.49247L2.50732 3.70986L7.145 3.24609L15.4928 3.70986L16.8841 5.10117L17.8117 6.95624L0.188477 6.49247Z"/><path id="Vector" fill="#000" d="M13.8696 2.82609H13.069C12.7704 1.249 11.3877 0 9.69565 0H8.30435C6.61343 0 5.22978 1.24817 4.93104 2.82609H4.13043C1.85291 2.82609 0 4.679 0 6.95652C0 7.3167 0.292 7.6087 0.652174 7.6087H1.78396L2.698 20.4433C2.77052 21.4625 3.62778 22.2609 4.64952 22.2609H13.3504C14.3722 22.2609 15.2294 21.4625 15.302 20.4433L16.216 7.6087H17.3478C17.708 7.6087 18 7.3167 18 6.95652C18 4.679 16.1471 2.82609 13.8696 2.82609ZM8.30435 1.30435H9.69565C10.6478 1.30435 11.4561 1.94496 11.7282 2.82609H6.27183C6.54391 1.94496 7.35217 1.30435 8.30435 1.30435ZM14.001 20.3507C13.9768 20.6903 13.691 20.9565 13.3505 20.9565H4.64952C4.30896 20.9565 4.02317 20.6904 3.999 20.3507L3.09157 7.6087H14.9084L14.001 20.3507ZM1.3803 6.30435C1.67548 5.05935 2.79652 4.13043 4.13043 4.13043H13.8696C15.2035 4.13043 16.3245 5.05935 16.6197 6.30435C16.0321 6.30435 1.87348 6.30435 1.3803 6.30435Z"/><path id="Vector_2" fill="#000" d="M11.0542 18.7386C11.4127 18.7564 11.72 18.4807 11.7381 18.1198L12.0859 11.1633C12.1039 10.8036 11.8269 10.4974 11.4671 10.4794C11.108 10.461 10.8012 10.7384 10.7832 11.0982L10.4354 18.0547C10.4174 18.4144 10.6944 18.7206 11.0542 18.7386Z"/><path id="Vector_3" fill="#000" d="M6.91253 18.7394C7.28805 18.7394 7.58296 18.4253 7.56444 18.0546L7.21661 11.0981C7.19861 10.7384 6.89192 10.4613 6.5327 10.4793C6.17296 10.4973 5.89592 10.8036 5.91392 11.1633L6.26174 18.1198C6.27913 18.4684 6.56731 18.7394 6.91253 18.7394Z"/></g></svg>