<svg width="48" height="48" viewBox="0 0 48 48" fill="none" xmlns="http://www.w3.org/2000/svg">
<g filter="url(#filter0_b)">
<circle cx="24" cy="24" r="24" fill="white" fill-opacity="0.2"/>
</g>
<path fill-rule="evenodd" clip-rule="evenodd" d="M24.53 12.2193C24.3894 12.0789 24.1988 12 24 12C23.8012 12 23.6106 12.0789 23.47 12.2193L20.22 15.4693C20.0875 15.6115 20.0154 15.7996 20.0188 15.9939C20.0223 16.1882 20.101 16.3735 20.2384 16.511C20.3758 16.6484 20.5612 16.7271 20.7555 16.7305C20.9498 16.7339 21.1378 16.6618 21.28 16.5293L23.25 14.5593V25.2493C23.25 25.4483 23.329 25.639 23.4697 25.7797C23.6103 25.9203 23.8011 25.9993 24 25.9993C24.1989 25.9993 24.3897 25.9203 24.5303 25.7797C24.671 25.639 24.75 25.4483 24.75 25.2493V14.5593L26.72 16.5293C26.7887 16.603 26.8715 16.6621 26.9635 16.7031C27.0555 16.7441 27.1548 16.7662 27.2555 16.7679C27.3562 16.7697 27.4562 16.7512 27.5496 16.7135C27.643 16.6757 27.7278 16.6196 27.799 16.5484C27.8703 16.4772 27.9264 16.3923 27.9641 16.2989C28.0018 16.2055 28.0204 16.1055 28.0186 16.0048C28.0168 15.9041 27.9948 15.8048 27.9538 15.7128C27.9128 15.6208 27.8537 15.538 27.78 15.4693L24.53 12.2193ZM17.5 20.7493C17.5 20.683 17.5263 20.6194 17.5732 20.5726C17.6201 20.5257 17.6837 20.4993 17.75 20.4993H20.25C20.4489 20.4993 20.6397 20.4203 20.7803 20.2797C20.921 20.139 21 19.9483 21 19.7493C21 19.5504 20.921 19.3597 20.7803 19.219C20.6397 19.0784 20.4489 18.9993 20.25 18.9993H17.75C17.2859 18.9993 16.8408 19.1837 16.5126 19.5119C16.1844 19.8401 16 20.2852 16 20.7493V31.2493C16 32.2153 16.784 32.9993 17.75 32.9993H30.25C30.7141 32.9993 31.1592 32.815 31.4874 32.4868C31.8156 32.1586 32 31.7135 32 31.2493V20.7493C32 20.2852 31.8156 19.8401 31.4874 19.5119C31.1592 19.1837 30.7141 18.9993 30.25 18.9993H27.75C27.5511 18.9993 27.3603 19.0784 27.2197 19.219C27.079 19.3597 27 19.5504 27 19.7493C27 19.9483 27.079 20.139 27.2197 20.2797C27.3603 20.4203 27.5511 20.4993 27.75 20.4993H30.25C30.3163 20.4993 30.3799 20.5257 30.4268 20.5726C30.4737 20.6194 30.5 20.683 30.5 20.7493V31.2493C30.5 31.3156 30.4737 31.3792 30.4268 31.4261C30.3799 31.473 30.3163 31.4993 30.25 31.4993H17.75C17.6837 31.4993 17.6201 31.473 17.5732 31.4261C17.5263 31.3792 17.5 31.3156 17.5 31.2493V20.7493Z" fill="white"/>
<defs>
<filter id="filter0_b" x="-10" y="-10" width="68" height="68" filterUnits="userSpaceOnUse" color-interpolation-filters="sRGB">
<feFlood flood-opacity="0" result="BackgroundImageFix"/>
<feGaussianBlur in="BackgroundImage" stdDeviation="5"/>
<feComposite in2="SourceAlpha" operator="in" result="effect1_backgroundBlur"/>
<feBlend mode="normal" in="SourceGraphic" in2="effect1_backgroundBlur" result="shape"/>
</filter>
</defs>
</svg>
