<svg xmlns="http://www.w3.org/2000/svg" width="14" height="20" fill="none" viewBox="0 0 14 20"><path fill="#1A1A1A" fill-rule="evenodd" d="M0 1.75C0 0.783503 0.783501 0 1.75 0H12.25C13.2165 0 14 0.783502 14 1.75V19.25C14 19.5383 13.8347 19.8011 13.5749 19.926C13.315 20.0509 13.0066 20.0158 12.7815 19.8357L7 15.2105L1.21852 19.8357C0.993394 20.0158 0.684958 20.0509 0.425108 19.926C0.165259 19.8011 0 19.5383 0 19.25V1.75ZM1.75 1.5C1.61193 1.5 1.5 1.61193 1.5 1.75V17.6895L6.53148 13.6643C6.80539 13.4452 7.19461 13.4452 7.46852 13.6643L12.5 17.6895V1.75C12.5 1.61193 12.3881 1.5 12.25 1.5H1.75Z" clip-rule="evenodd"/></svg>