<svg width="24" height="24" viewBox="0 0 24 24" fill="none" xmlns="http://www.w3.org/2000/svg">
<path d="M17.25 10.5L15 7.16667L15.5625 5.83333L16.5 3.75H17.25L20.25 6L19.5 7.83333L17.25 10.5Z" fill="#FEC93B"/>
<path fill-rule="evenodd" clip-rule="evenodd" d="M16.2981 3.4428C16.8747 2.8524 17.8095 2.8524 18.3861 3.4428L20.5676 5.67666C21.1441 6.26706 21.1441 7.22429 20.5676 7.81469L18.2113 10.2275L18.2008 10.238L9.0657 19.1671C8.8988 19.3303 8.69688 19.4511 8.47615 19.5199L3.81698 20.9719C3.59343 21.0416 3.35058 20.9794 3.18534 20.8102C3.02011 20.641 2.95939 20.3923 3.02743 20.1634L4.43937 15.4129C4.51331 15.1641 4.64868 14.939 4.83238 14.7595L13.9471 5.85025L16.2981 3.4428ZM14.379 7.2195L5.70616 15.6968C5.67992 15.7225 5.66058 15.7546 5.65002 15.7902L4.58351 19.3785L8.10769 18.2802C8.13923 18.2703 8.16807 18.2531 8.19191 18.2298L16.8586 9.75854L14.379 7.2195ZM17.7639 8.85301L19.6727 6.89839C19.7551 6.81405 19.7551 6.6773 19.6727 6.59296L17.4912 4.3591C17.4089 4.27476 17.2753 4.27476 17.193 4.3591L15.2842 6.31373L17.7639 8.85301Z" fill="#24292E"/>
</svg>
