<svg xmlns="http://www.w3.org/2000/svg" width="15" height="18" fill="none" viewBox="0 0 15 18"><rect width="15" height="18" fill="#E5E5E5"/><g clip-path="url(#clip0)"><rect width="375" height="993" fill="#fff" transform="translate(-23 -387)"/><g clip-path="url(#clip1)"><path fill="#FEC93B" d="M5.17012 11.1014L4.99414 13.6016L6.7207 15.4443L7.65039 15.7498L8.64648 15.0193C8.64648 15.0193 8.55684 14.332 8.64648 14.3121C8.73613 14.2889 12.01 12.8744 12.4217 11.7887C12.8334 10.7029 14.0752 7.13691 14.0752 7.13691L13.8029 6.69531C13.8029 6.69531 12.7637 7.64824 12.6973 7.64824C12.6309 7.64824 8.31445 10.6133 8.31445 10.6133L7.84961 11.2242L6.82031 10.4373C6.82031 10.4373 5.94707 10.5934 5.85742 10.7262C5.76777 10.859 5.17012 11.1014 5.17012 11.1014Z"/><path fill="#000" d="M12.4648 5.04883C12.6482 5.04883 12.7969 4.90017 12.7969 4.7168C12.7969 4.53342 12.6482 4.38477 12.4648 4.38477C12.2815 4.38477 12.1328 4.53342 12.1328 4.7168C12.1328 4.90017 12.2815 5.04883 12.4648 5.04883Z"/><path fill="#000" d="M7.94922 6.47656H5.02734C4.84473 6.47656 4.69531 6.62598 4.69531 6.80859C4.69531 6.99121 4.84473 7.14062 5.02734 7.14062H7.94922C8.13183 7.14062 8.28125 6.99121 8.28125 6.80859C8.28125 6.62598 8.13183 6.47656 7.94922 6.47656Z"/><path fill="#000" d="M8.44726 4.7666C8.44726 4.58398 8.29785 4.43457 8.11523 4.43457H5.02734C4.84473 4.43457 4.69531 4.58398 4.69531 4.7666C4.69531 4.94922 4.84473 5.09863 5.02734 5.09863H8.11523C8.29785 5.09863 8.44726 4.94922 8.44726 4.7666Z"/><path fill="#000" d="M7.98242 2.82422C8.1658 2.82422 8.31445 2.67556 8.31445 2.49219C8.31445 2.30881 8.1658 2.16016 7.98242 2.16016C7.79905 2.16016 7.65039 2.30881 7.65039 2.49219C7.65039 2.67556 7.79905 2.82422 7.98242 2.82422Z"/><path fill="#000" d="M4.99414 2.82422C5.17752 2.82422 5.32617 2.67556 5.32617 2.49219C5.32617 2.30881 5.17752 2.16016 4.99414 2.16016C4.81076 2.16016 4.66211 2.30881 4.66211 2.49219C4.66211 2.67556 4.81076 2.82422 4.99414 2.82422Z"/><path fill="#000" d="M6.48828 2.82422C6.67166 2.82422 6.82031 2.67556 6.82031 2.49219C6.82031 2.30881 6.67166 2.16016 6.48828 2.16016C6.30491 2.16016 6.15625 2.30881 6.15625 2.49219C6.15625 2.67556 6.30491 2.82422 6.48828 2.82422Z"/><path fill="#000" d="M4.99414 9.46484C5.17752 9.46484 5.32617 9.31619 5.32617 9.13281C5.32617 8.94944 5.17752 8.80078 4.99414 8.80078C4.81076 8.80078 4.66211 8.94944 4.66211 9.13281C4.66211 9.31619 4.81076 9.46484 4.99414 9.46484Z"/><path fill="#000" d="M6.48828 9.46484C6.67166 9.46484 6.82031 9.31619 6.82031 9.13281C6.82031 8.94944 6.67166 8.80078 6.48828 8.80078C6.30491 8.80078 6.15625 8.94944 6.15625 9.13281C6.15625 9.31619 6.30491 9.46484 6.48828 9.46484Z"/><path fill="#000" d="M7.98242 9.46484C8.1658 9.46484 8.31445 9.31619 8.31445 9.13281C8.31445 8.94944 8.1658 8.80078 7.98242 8.80078C7.79905 8.80078 7.65039 8.94944 7.65039 9.13281C7.65039 9.31619 7.79905 9.46484 7.98242 9.46484Z"/><path fill="#000" d="M13.9191 6.23418C13.793 6.18437 13.6502 6.21426 13.5572 6.31055C13.5473 6.32051 13.2717 6.60273 12.8002 7.02441V6.21094C12.8002 6.02832 12.6508 5.8789 12.4682 5.8789C12.2855 5.8789 12.1361 6.02832 12.1361 6.21094V7.59551C11.1434 8.41562 9.7289 9.43828 8.22148 10.0758C8.13515 10.1123 8.06543 10.1853 8.03555 10.275L7.87949 10.7365L7.11582 10.1887C7.05937 10.1488 6.99297 10.1289 6.92656 10.1256H6.92324C6.82363 10.1256 5.51543 10.6203 5.05723 10.7963C5.02734 10.8395 5.00742 10.8926 5.00078 10.9457L4.95762 11.3475C4.95762 11.3475 4.95762 11.3541 4.9543 11.3674C4.9543 11.3707 4.9543 11.3773 4.95098 11.384C4.95098 11.3939 4.94766 11.4072 4.94766 11.4238C4.94766 11.4305 4.94766 11.4371 4.94433 11.4437C4.94433 11.4471 4.94433 11.4504 4.94433 11.457C4.93105 11.5898 4.90449 11.8355 4.87461 12.1211C4.87129 12.1709 4.86465 12.2207 4.85801 12.2705C4.85469 12.2871 4.85469 12.307 4.85137 12.327C4.8414 12.4299 4.82812 12.5361 4.81816 12.6424C4.81484 12.6623 4.81484 12.6789 4.81152 12.6988C4.8082 12.7287 4.80488 12.7586 4.80156 12.7885C4.775 13.0375 4.75176 13.2699 4.73183 13.4525C4.73183 13.4625 4.72851 13.4725 4.72851 13.4857C4.72851 13.4924 4.72851 13.499 4.72519 13.5057C4.72187 13.5223 4.72187 13.5389 4.71855 13.5555C4.71855 13.5621 4.71855 13.5721 4.71523 13.5787C4.71523 13.592 4.71191 13.6019 4.71191 13.6119C4.71191 13.6219 4.70859 13.6352 4.70859 13.6451C4.70859 13.6551 4.70527 13.665 4.70527 13.6717C4.70195 13.6916 4.70195 13.7082 4.69863 13.7215C4.69863 13.7281 4.69863 13.7348 4.69531 13.7414C4.69531 13.7447 4.69531 13.748 4.69531 13.7514V13.768C4.69531 13.7746 4.69531 13.7812 4.69199 13.7879C4.69199 13.7978 4.69199 13.8045 4.69199 13.8045L4.66875 14.007C4.32676 14.0768 3.98809 14.1166 3.66601 14.1166C3.4834 14.1166 3.33398 14.266 3.33398 14.4486C3.33398 14.6312 3.4834 14.7807 3.66601 14.7807C4.12422 14.7807 4.59902 14.7109 5.07715 14.5947L6.94316 16.1021C7.00293 16.1519 7.07597 16.1752 7.15234 16.1752C7.20215 16.1752 7.25527 16.1619 7.30176 16.1387L8.7959 15.3783C8.90879 15.3219 8.97851 15.209 8.97851 15.0828V14.598C9.4334 14.4387 10.4328 14.0203 11.4389 13.1271C11.6846 12.908 11.917 12.6756 12.1328 12.4266V16.8359H0.84375V1.16406H12.1328V3.22266C12.1328 3.40527 12.2822 3.55469 12.4648 3.55469C12.6475 3.55469 12.7969 3.40527 12.7969 3.22266V0.832031C12.7969 0.745703 12.7603 0.659375 12.7006 0.596289C12.6408 0.533203 12.5512 0.5 12.4648 0.5H0.511719C0.425391 0.5 0.339062 0.536523 0.275977 0.596289C0.212891 0.656055 0.179688 0.745703 0.179688 0.832031V17.168C0.179688 17.2543 0.216211 17.3406 0.275977 17.4037C0.339062 17.4668 0.42207 17.5 0.511719 17.5H12.4648C12.5512 17.5 12.6375 17.4635 12.7006 17.4037C12.7637 17.3406 12.7969 17.2576 12.7969 17.168V11.5334C12.9795 11.2478 13.1455 10.949 13.2883 10.6369C13.8428 9.44492 14.125 8.07031 14.125 6.54297C14.125 6.40683 14.042 6.2873 13.9191 6.23418ZM11.0238 12.6059C9.81191 13.6916 8.57676 14.0236 8.56347 14.0269C8.41738 14.0668 8.31445 14.1963 8.31445 14.349V14.877L7.19219 15.448L5.84746 14.3623C8.3875 13.4824 10.7848 11.5068 10.9143 11.4006C11.057 11.2844 11.0736 11.0752 10.9574 10.9324C10.8412 10.7896 10.632 10.773 10.4893 10.8893C10.4561 10.9158 7.87949 13.0375 5.35273 13.8277L5.62832 11.2379L6.85683 10.8328L7.84961 11.5434C7.93594 11.6031 8.04551 11.623 8.14512 11.5898C8.24472 11.5566 8.32441 11.4803 8.35762 11.3807L8.60996 10.6336C10.6852 9.72051 12.5213 8.18652 13.4277 7.35312C13.2783 9.54453 12.4682 11.3109 11.0238 12.6059Z"/></g></g><defs><clipPath id="clip0"><rect width="375" height="993" fill="#fff" transform="translate(-23 -387)"/></clipPath><clipPath id="clip1"><rect width="13.945" height="17" fill="#fff" transform="translate(0.179688 0.5)"/></clipPath></defs></svg>