<svg width="16" height="18" viewBox="0 0 16 18" fill="none" xmlns="http://www.w3.org/2000/svg">
<g clip-path="url(#clip0_1964:626)">
<path d="M12.1427 2.52439L4.3323 2.19016L12.4583 10.8391L12.8722 9.93679L12.8651 3.37134C12.8651 3.37134 12.6836 2.39754 12.5934 2.3796C12.5032 2.36167 12.1427 2.52439 12.1427 2.52439Z" fill="#FEC93B"/>
<path d="M13.5775 11.3427L13.559 10.9639L13.3695 2.48674C13.3513 2.34246 13.3241 2.24329 13.2518 2.13515L13.2608 2.09004C13.2608 2.09004 13.2157 2.08108 13.2247 2.03597L13.1886 1.9819L13.1796 2.027C13.0894 2.00906 12.9992 1.99113 12.8639 1.96422L4.38619 1.68482L4.0164 1.65817C3.64662 1.63151 3.31322 1.89341 3.28656 2.2632C3.31373 2.36237 3.34089 2.46155 3.42212 2.52459L7.62941 6.83086L0.395312 13.9723C0.0980447 14.2883 0.00834926 14.7393 0.279217 15.0276C0.559053 15.2708 0.982912 15.2613 1.32528 14.9543L8.55938 7.81286L12.6944 12.011C12.7756 12.074 12.8569 12.1371 12.9471 12.155C13.2987 12.0374 13.5508 11.7125 13.5775 11.3427ZM9.03578 6.36037L8.96352 6.25223L5.67723 2.97306L11.0347 3.3821L11.9185 3.41722L11.9285 4.31004L12.2229 9.6667L9.03578 6.36037Z" fill="#24292E"/>
</g>
<defs>
<clipPath id="clip0_1964:626">
<rect width="12.6" height="15.3131" fill="white" transform="translate(2.98633) rotate(11.2478)"/>
</clipPath>
</defs>
</svg>
