<svg width="61" height="18" viewBox="0 0 61 18" fill="none" xmlns="http://www.w3.org/2000/svg">
<g opacity="0.5" clip-path="url(#clip0)">
<path d="M3.90962 9.12259C4.16024 8.07 5.86443 7.86951 6.76665 7.66902C7.86936 7.4184 8.97207 7.21791 10.0748 7.11766C8.67133 6.5663 7.318 5.81446 6.16517 4.91224C5.86443 4.66162 6.26541 4.21051 6.61628 4.46113C8.97207 6.31569 11.779 6.86704 14.5358 7.76926C14.8866 7.86951 14.7864 8.32062 14.4856 8.37074C14.4856 8.37074 14.3854 8.42087 14.3353 8.37074C13.9844 8.37074 11.5284 7.61889 11.2276 7.51865C10.0748 7.56877 8.97207 7.71914 7.81924 7.96976C6.76665 8.22037 5.01233 8.47099 4.31061 9.32308C4.16024 9.52358 3.8595 9.32308 3.90962 9.12259Z" fill="#1AC3AF"/>
<path d="M2.3558 6.76678C1.75432 7.11765 1.40346 7.81937 1.35334 8.5211C1.25309 8.5211 1.15284 8.57122 1.0526 8.57122C0.751858 8.62134 0.400995 8.67147 0.100256 8.67147C-0.0501141 8.67147 -0.100237 8.92208 0.100256 8.92208C0.501242 8.97221 1.00247 9.02233 1.40346 8.92208C1.40346 8.97221 1.40346 9.02233 1.45358 9.07245C1.35334 9.12258 1.25309 9.1727 1.15284 9.22282C0.902228 9.32307 0.601488 9.42332 0.400995 9.57369C0.250625 9.67393 0.350872 9.87443 0.501242 9.87443C0.801981 9.87443 1.10272 9.77418 1.35334 9.67393C1.45358 9.62381 1.50371 9.62381 1.60395 9.57369C1.60395 9.57369 1.60395 9.62381 1.65408 9.62381L1.60395 9.67393C1.35334 9.92455 1.10272 10.125 0.902228 10.3757C0.852105 10.4759 0.952351 10.5762 1.00247 10.526C1.30321 10.3757 1.55383 10.125 1.80445 9.92455C1.80445 9.92455 1.85457 9.92455 1.85457 9.87443C2.05506 10.125 2.40593 10.4258 2.95728 10.526C3.95975 10.6764 5.1627 9.97467 5.31307 8.82184C5.46344 7.81937 4.76172 6.91715 3.90962 6.61641C3.8595 6.61641 3.10765 6.3658 2.3558 6.76678Z" fill="#FF922C"/>
<path d="M4.31051 3.05738C4.46088 3.35812 4.66137 3.65886 4.81174 3.90948C4.81174 3.9596 4.76162 3.9596 4.76162 3.9596C4.7115 3.9596 4.66137 3.90948 4.61125 3.85935C4.31051 3.70898 4.00977 3.55861 3.70903 3.40824C3.55866 3.35812 3.45842 3.50849 3.55866 3.60874C3.80928 3.80923 4.11002 4.00972 4.36063 4.16009C4.46088 4.21022 4.511 4.26034 4.61125 4.31046V4.36059C4.56113 4.36059 4.511 4.36059 4.46088 4.36059C4.21026 4.36059 3.95965 4.31046 3.70903 4.36059C3.65891 4.36059 3.65891 4.51096 3.70903 4.51096C3.95965 4.6112 4.21026 4.6112 4.46088 4.6112C4.511 4.6112 4.511 4.6112 4.56113 4.6112C4.56113 4.76157 4.56113 4.91194 4.56113 5.06231C4.66137 5.66379 5.11248 6.31539 5.86433 6.51589C6.76655 6.71638 7.56852 6.01465 7.81914 5.31293C7.86926 5.16256 8.01963 4.8117 7.91939 4.41071C7.66877 3.50849 6.36557 2.85689 5.51347 3.25787C5.31298 3.35812 5.11248 3.50849 5.01224 3.65886C4.81174 3.40824 4.66137 3.15763 4.511 2.90701C4.41076 2.75664 4.21027 2.90701 4.31051 3.05738Z" fill="#FF922C"/>
<path d="M14.5359 5.11238C15.2376 5.66373 14.9368 5.363 17.5934 7.06719C19.0971 8.06965 19.899 8.62101 20.1497 8.42051C20.3 8.27014 20.1497 7.81903 20.0494 7.56842C18.8966 4.66127 17.042 0.150176 14.2351 -0.000193386C13.9344 -0.000193386 12.8818 -0.0503167 12.2803 0.651409C12.2302 0.701532 11.9294 1.00227 11.8793 1.45338C11.5786 2.75659 13.3329 4.16004 14.5359 5.11238ZM17.443 3.50843C18.0445 4.5109 18.5457 5.61361 18.9968 6.71632C18.4455 5.86423 17.6936 5.11238 16.9919 4.46078C15.7889 3.25782 14.586 2.05486 13.3329 0.902025C14.0346 0.801779 14.987 1.0524 15.4381 1.35313C16.3403 1.85437 16.9418 2.65634 17.443 3.50843ZM12.8818 1.00227C14.8867 3.15757 17.042 5.01213 18.8465 7.3178C18.245 6.91682 17.5934 6.51583 17.042 6.11484C15.6386 5.1625 13.784 4.05979 12.8818 2.55609C12.3806 1.704 12.4808 1.25289 12.8818 1.00227Z" fill="#1AC3AF"/>
<path d="M11.0272 13.9848C11.378 16.09 14.1348 15.3382 15.438 14.8369C17.7938 13.9848 20.0995 12.0802 22.7059 12.2806C22.756 12.2806 22.8061 12.2806 22.8061 12.2806C22.9064 12.2305 22.9064 12.03 22.8562 11.8797C22.756 11.6792 22.6056 11.5789 22.5054 11.5288C18.1948 9.27325 14.9869 10.376 14.9869 10.376C13.3328 10.6767 10.6763 11.7293 11.0272 13.9848ZM21.152 11.3283C19.3476 11.2281 17.4931 11.5789 15.7889 12.0802C14.636 12.3809 13.4331 12.7318 12.3304 13.1829C12.0797 13.2831 11.8792 13.3834 11.7289 13.4836V13.4335C11.6286 12.7318 12.3805 12.1303 12.8316 11.8295C13.9343 10.9774 15.1874 10.9273 16.3903 10.8271C18.0444 10.6266 19.5982 10.8772 21.152 11.3283ZM11.9294 13.9848C13.1825 13.1327 14.9368 12.6816 16.3402 12.2806C17.9943 11.8295 19.5481 11.629 21.2022 11.5789C20.4503 11.7794 19.6484 12.1303 19.1972 12.3308C17.4931 13.0325 15.9392 14.0851 14.1348 14.4861C13.9343 14.5362 13.4832 14.7367 12.9318 14.6364C12.581 14.5863 12.18 14.3357 11.9294 13.9848Z" fill="#1AC3AF"/>
<path d="M48.1687 17.7938C50.324 18.5457 53.7825 13.6837 54.6847 12.3805C55.5368 11.1776 56.1383 10.125 56.4892 9.42324C57.8926 9.27287 59.2961 9.07237 60.6995 8.87188C61.2007 8.82176 61.0504 8.01979 60.5491 8.12003C58.7948 8.37065 57.0405 8.57114 55.2862 8.77163C54.1334 6.51609 52.6297 3.9598 50.6749 2.30573C49.7726 1.50376 47.7176 0.55142 47.0159 2.10524C46.3141 3.65906 48.1687 5.31313 49.1712 6.1151C50.5245 7.26794 52.1786 8.37065 53.9329 8.922C52.2287 9.02225 50.5746 9.1225 48.8704 9.22274C48.1186 8.77163 47.2665 8.52102 46.5146 8.12003C45.5623 7.56868 44.7102 6.91707 43.9082 6.21535C43.6075 5.96473 43.2065 6.36572 43.4571 6.61633C44.4596 7.51855 45.7628 8.62126 47.1662 9.27287C45.462 9.22274 43.7077 9.17262 42.0035 9.17262C41.5524 7.86941 38.8458 0.451173 35.3371 0.25068C35.0865 0.25068 34.3347 0.200557 33.9838 0.651666C33.1818 1.70425 34.9362 4.56128 36.1892 5.76424C37.4423 6.9672 38.7956 8.32052 40.4497 9.02225C39.4974 8.922 38.4949 8.82176 37.5426 8.67139C36.9411 8.42077 36.2895 8.01978 35.6379 7.41831C34.4349 6.26547 33.7833 5.56375 33.3823 5.01239C33.1818 4.71165 32.7307 5.06251 32.8811 5.36325C33.4325 6.36572 34.2344 7.21781 35.1367 7.91954C35.3371 8.06991 35.5376 8.22028 35.7883 8.42077C32.7307 7.91954 29.7233 7.16769 26.6658 6.31559C26.4152 6.26547 26.315 6.56621 26.5656 6.66646C28.1695 7.36818 29.8236 7.91954 31.5278 8.37065C30.3749 8.67139 29.2722 9.07237 28.2196 9.57361C27.969 9.72398 28.1695 10.0748 28.4201 9.97459C29.9238 9.42324 31.4275 9.02225 32.9814 8.77163C34.6855 9.17262 36.3897 9.47336 38.0939 9.67385C35.4875 10.125 32.831 10.9269 30.5253 12.18C29.0216 13.0321 27.1169 14.8867 28.0192 16.7412C28.9715 18.7462 31.7283 17.3427 32.9312 16.3904C34.2344 15.3879 35.3873 14.1849 36.6905 13.1324C37.9937 12.0296 39.5475 11.1274 40.8006 9.97459C40.8006 9.97459 40.8006 9.97459 40.8507 9.92447C42.8055 9.97459 44.8104 10.0748 46.7653 10.125C46.5648 10.2252 46.3141 10.3255 46.1136 10.4257C45.1112 10.9269 44.209 11.5785 43.3569 12.3304C43.1063 12.581 43.4571 12.9319 43.7077 12.7314C44.1588 12.3304 44.7603 11.9795 46.3643 10.9771C46.9156 10.6763 47.5171 10.3756 48.2689 10.1751C48.4694 10.125 48.6198 10.0748 48.7702 10.0748C50.6749 9.97459 52.5294 9.82422 54.4341 9.72398C52.6297 10.4257 50.9255 11.4783 49.522 12.6812C48.4694 13.5333 46.4144 15.7388 47.5171 17.2425C47.7176 17.5432 48.1186 17.7437 48.1687 17.7938ZM29.2722 16.5909C29.172 16.5407 29.0717 16.4405 29.0216 16.3402C30.6256 14.8365 32.4801 13.8842 34.3848 12.7815C36.0389 11.8292 37.6929 10.8768 39.4473 10.125C39.2969 10.2753 39.0964 10.4257 38.8458 10.5761C38.2443 11.0272 36.7907 12.1299 35.5878 13.1825C32.9312 15.3879 31.9288 16.641 30.2747 16.8415C30.0241 16.7914 29.6231 16.7914 29.2722 16.5909ZM33.1818 11.4783C35.7381 10.6763 38.545 10.0247 39.6979 9.72398C37.6428 10.3756 35.7381 11.4783 33.7833 12.4306C31.9288 13.383 30.2246 14.3854 28.6708 15.7889C28.5204 15.2375 28.6206 14.6361 28.9715 14.0847C29.3725 13.4331 30.0241 12.9319 30.6757 12.581C31.9789 11.8793 33.0315 11.5284 33.1818 11.4783ZM34.3347 1.30327C35.287 2.70672 36.4399 3.85955 37.6428 5.06251C38.7957 6.16522 39.748 7.31806 40.7003 8.57114C39.1465 7.66892 38.0438 6.7667 37.3421 6.06498C36.8408 5.56375 33.7332 2.60647 34.3347 1.30327ZM39.1465 4.6114C39.6979 5.51362 40.3996 6.81683 41.0011 8.57114C39.2969 5.71412 36.4399 3.80943 34.7357 0.952406L34.6855 0.902283C34.886 0.802036 35.0364 0.802036 35.0865 0.751913C36.6404 0.55142 38.1942 3.05758 39.1465 4.6114ZM47.5672 2.60647C47.5672 2.60647 47.5672 2.55635 47.6173 2.55635C49.5722 4.71165 51.8277 6.86695 54.2837 8.47089C53.2813 8.12003 51.9781 7.51855 50.5746 6.51609C49.3215 5.56375 48.4193 4.6114 47.868 3.80943C47.5171 3.3082 47.4169 2.85709 47.5672 2.60647ZM54.4341 8.22028C53.3815 7.26794 52.2287 6.41584 51.2262 5.41338C50.1235 4.31066 49.0709 3.25808 48.0183 2.10524C48.2188 2.00499 48.3692 2.00499 48.4694 1.95487C48.9205 1.85462 49.7726 1.95487 51.5771 3.90968C52.3791 4.86202 53.4316 6.26547 54.4341 8.22028ZM51.2763 11.9795C52.1786 11.378 53.4316 10.5761 55.0857 9.87435C52.6297 11.8793 49.923 13.9343 48.0183 16.4906C47.9181 16.2901 47.868 16.1398 47.8178 15.9393C47.6675 14.5358 49.522 13.2326 51.2763 11.9795ZM48.7201 17.0921C48.6198 17.042 48.5697 17.042 48.4694 16.9918C50.1235 14.1849 53.0307 12.1299 55.4366 9.92447C54.5344 11.6287 53.6321 12.8817 52.9304 13.7338C51.6272 15.3879 49.923 17.4931 48.7201 17.0921Z" fill="#1AC3AF"/>
<path d="M24.3099 7.92029C23.7084 7.56943 23.3576 6.8677 23.3074 6.16598C23.2072 6.16598 23.1069 6.11586 23.0067 6.11586C22.706 6.06573 22.4052 6.01561 22.0544 6.01561C21.904 6.01561 21.8539 5.76499 22.0544 5.76499C22.4553 5.71487 22.9566 5.66475 23.3576 5.76499C23.3576 5.71487 23.3576 5.66475 23.4077 5.61462C23.3074 5.5645 23.2072 5.51438 23.1069 5.46425C22.8563 5.36401 22.5556 5.26376 22.3551 5.11339C22.2047 5.01314 22.305 4.81265 22.4553 4.81265C22.7561 4.81265 23.0568 4.9129 23.3074 5.01314C23.4077 5.06327 23.4578 5.06327 23.5581 5.11339C23.5581 5.11339 23.5581 5.06327 23.6082 5.06327L23.5581 5.01314C23.3074 4.81265 23.0568 4.56203 22.8563 4.31142C22.8062 4.21117 22.9065 4.11093 22.9566 4.16105C23.2573 4.31142 23.5079 4.56203 23.7585 4.76253C23.7585 4.76253 23.8087 4.76253 23.8087 4.81265C24.0092 4.56203 24.36 4.2613 24.9114 4.16105C25.9138 4.01068 27.1168 4.66228 27.3173 5.81512C27.4677 6.81758 26.7659 7.7198 25.964 8.02054C25.8136 8.07066 25.0618 8.32128 24.3099 7.92029Z" fill="#FF922C"/>
<path d="M26.2647 11.6294C26.4151 11.3287 26.6156 11.0279 26.766 10.7773C26.766 10.7272 26.7158 10.7272 26.7158 10.7272C26.6657 10.7773 26.6156 10.7773 26.5655 10.8274C26.2647 10.9778 25.964 11.1783 25.6633 11.2786C25.563 11.3287 25.4628 11.1783 25.563 11.0781C25.8136 10.8776 26.1144 10.6771 26.365 10.5267C26.4652 10.4766 26.5153 10.4265 26.6156 10.3763V10.3262C26.5655 10.3262 26.5153 10.3262 26.4652 10.3262C26.2146 10.3262 25.964 10.3763 25.7134 10.3262C25.6131 10.3262 25.6131 10.1758 25.7134 10.1257C25.964 10.0255 26.2146 10.0255 26.4652 10.0255C26.5153 10.0255 26.5153 10.0255 26.5655 10.0255C26.5655 9.8751 26.5153 9.72473 26.5655 9.57436C26.6657 8.97289 27.1168 8.27116 27.8687 8.12079C28.7709 7.9203 29.5729 8.62202 29.8736 9.27362C29.9237 9.42399 30.0741 9.77486 29.9739 10.1758C29.7232 11.1282 28.42 11.7297 27.5679 11.3287C27.3674 11.2284 27.167 11.0781 27.0667 10.9277C26.9163 11.1783 26.766 11.4289 26.6156 11.6795C26.4151 11.88 26.2146 11.7798 26.2647 11.6294Z" fill="#FF922C"/>
<path d="M41.2516 15.5388C41.2516 15.1378 41.3518 14.7368 41.5022 14.386C41.4521 14.3358 41.4521 14.3358 41.402 14.2857C41.3017 14.4361 40.7504 15.1378 40.4997 15.2381C40.4496 15.2381 40.3494 15.2882 40.2992 15.2381C40.2491 15.1879 40.2491 15.0376 40.2491 15.0376C40.2491 14.9373 40.3494 14.8371 40.3995 14.8371C40.5499 14.6867 40.8506 14.4361 41.2516 14.1354C41.2516 14.1354 41.2015 14.0852 41.2015 14.0351C41.2015 13.985 41.1513 13.985 41.1513 13.9349C41.1513 13.9349 41.1012 13.9349 41.1012 13.985C40.8506 14.0852 40.6 14.2356 40.2992 14.2857C40.199 14.2857 40.0987 14.1855 40.199 14.0852C40.3995 13.8847 40.7002 13.7845 40.9508 13.6842H41.001C40.9508 13.5339 40.8506 13.2833 40.8506 12.9825C40.8506 12.3309 41.2516 11.5289 42.0034 11.2282C42.655 10.9776 43.2565 11.2783 43.457 11.3786C43.6074 11.4287 44.6098 11.9299 44.7101 12.8823C44.8103 13.8346 44.0585 14.8371 43.0059 14.9373C42.6049 14.9874 42.254 14.8872 41.9533 14.6867C41.8531 14.9874 41.8029 15.2882 41.7027 15.6391C41.5523 15.7894 41.2516 15.7894 41.2516 15.5388Z" fill="#FF922C"/>
<path d="M30.0241 4.51153C30.0241 4.11055 30.2246 3.75968 30.425 3.50907C30.0742 3.40882 29.7734 3.25845 29.4226 3.1582C29.2722 3.10808 29.3223 2.90759 29.4727 2.90759C29.8737 2.95771 30.3248 3.00783 30.7258 3.1582C30.5754 3.00783 30.4752 2.85747 30.3248 2.75722C30.1243 2.55673 29.8737 2.35623 29.6732 2.10562C29.6231 2.00537 29.6732 1.855 29.7734 1.90512C30.0241 2.00537 30.2747 2.20586 30.5253 2.40636C30.6757 2.55673 30.8762 2.7071 31.0265 2.90759C31.0766 2.85747 31.1268 2.85747 31.1769 2.85747C31.1769 2.80734 31.1769 2.80734 31.1769 2.75722C31.1268 2.5066 31.0265 2.20586 30.9764 1.95525C30.9764 1.855 31.1268 1.75475 31.1769 1.855C31.3273 2.10562 31.4776 2.40636 31.5779 2.75722C31.8285 2.7071 32.029 2.65697 32.2796 2.7071C32.9813 2.75722 33.6831 3.10808 34.0339 3.65944C34.5352 4.56166 33.7833 5.96511 32.7307 6.31597C31.4776 6.66683 30.0241 5.61424 30.0241 4.51153Z" fill="#FF922C"/>
<path d="M43.1562 7.86995C42.1538 7.46897 41.853 6.11564 42.254 5.21342C41.9533 5.11318 41.6525 5.01293 41.3518 4.91268C41.2515 4.86256 41.2515 4.71219 41.3518 4.66207C41.5523 4.5117 41.853 4.66207 42.1036 4.71219C42.254 4.76231 42.3543 4.76231 42.5046 4.81244C42.5548 4.76231 42.6049 4.71219 42.655 4.66207C42.655 4.66207 42.655 4.66207 42.6049 4.61194C42.3041 4.36133 42.0034 4.11071 41.7027 3.86009C41.5523 3.70972 41.7027 3.45911 41.9032 3.55935C42.254 3.80997 42.6049 4.06059 42.9056 4.3112C42.9557 4.3112 42.9557 4.36133 43.0059 4.36133C43.056 4.36133 43.1061 4.3112 43.1562 4.3112C43.056 3.96034 42.9056 3.60948 42.8054 3.25861C42.7552 3.10825 43.056 3.008 43.1061 3.15837C43.2565 3.50923 43.3567 3.86009 43.5071 4.21096C44.3091 4.06059 45.2113 4.5117 45.5622 5.26355C45.8629 5.96527 45.5622 6.71712 45.5622 6.81737C45.512 6.91761 45.4619 7.06798 45.3115 7.26848C44.8103 7.81983 43.9081 8.17069 43.1562 7.86995Z" fill="#FF922C"/>
</g>
<defs>
<clipPath id="clip0">
<rect width="61" height="18" fill="white"/>
</clipPath>
</defs>
</svg>
