<svg xmlns="http://www.w3.org/2000/svg" viewBox="0 0 80 80"><path d="M65 75a1 1 0 0 0 1-1V18a.996.996 0 0 0-.294-.708L53.708 5.294A.997.997 0 0 0 53 5H15a1 1 0 0 0-1 1v68a1 1 0 0 0 1 1h50zM54 8.414 62.586 17H54V8.414zM16 7h36v11a1 1 0 0 0 1 1h11v54H16V7z"/><path d="M30.517 61.96c-.28.82-.486 1.44-.619 1.863-.116-.38-.3-.954-.554-1.72l-2.752-8.23h-2.315v11.623h1.483v-9.895l3.361 9.895h1.388l3.378-9.729v9.73h1.483V53.871H33.3l-2.783 8.088zm14.922-7.433c-.386-.267-.864-.448-1.435-.544-.407-.074-.996-.11-1.768-.11h-4.385v11.623h1.538v-4.725h2.982c1.644 0 2.78-.343 3.41-1.027.628-.685.943-1.521.943-2.51a3.56 3.56 0 0 0-.353-1.586c-.235-.48-.546-.855-.932-1.121zm-.927 4.317c-.418.37-1.124.555-2.117.555h-3.006v-4.155h2.974c.698 0 1.176.035 1.435.103.402.111.725.34.971.686s.369.763.369 1.249c0 .671-.209 1.192-.626 1.562zm9.039.357c.528-.243.927-.571 1.197-.983.27-.413.404-.87.404-1.372 0-.529-.141-1.028-.424-1.499-.283-.47-.691-.842-1.225-1.114s-1.118-.408-1.752-.408c-.92 0-1.69.263-2.308.789-.618.526-1.015 1.267-1.189 2.224l1.427.254c.106-.698.344-1.221.714-1.57s.832-.524 1.387-.524c.56 0 1.018.172 1.372.516.354.343.531.777.531 1.3 0 .66-.243 1.15-.73 1.467s-1.032.476-1.64.476c-.059 0-.135-.006-.23-.016l-.159 1.253c.402-.106.738-.159 1.007-.159.66 0 1.205.213 1.633.638.429.426.643.966.643 1.622 0 .687-.231 1.263-.694 1.728a2.306 2.306 0 0 1-1.7.698c-.566 0-1.046-.178-1.44-.535s-.673-.94-.836-1.748l-1.428.19c.096.967.48 1.755 1.154 2.363.674.607 1.521.911 2.541.911 1.131 0 2.067-.352 2.807-1.058.74-.706 1.11-1.566 1.11-2.581 0-.75-.19-1.376-.57-1.875-.381-.5-.915-.829-1.602-.987zM21 15h26a1 1 0 1 0 0-2H21a1 1 0 1 0 0 2zm0 8h31a1 1 0 1 0 0-2H21a1 1 0 1 0 0 2zm38 6H21a1 1 0 1 0 0 2h38a1 1 0 1 0 0-2zM21 39h28a1 1 0 1 0 0-2H21a1 1 0 1 0 0 2zm38 6H21a1 1 0 1 0 0 2h38a1 1 0 1 0 0-2z"/></svg>