<svg xmlns="http://www.w3.org/2000/svg" width="31" height="24" fill="none" viewBox="0 0 31 24"><path fill="#1A1A1A" fill-rule="evenodd" d="M10.6206 14.6249L12.039 18.567C12.1617 18.9078 12.5356 19.084 12.8743 18.9606C13.2129 18.8372 13.3881 18.461 13.2655 18.1202L8.84831 5.84419C8.66599 5.33751 8.18783 5 7.6523 5C7.11678 5 6.63861 5.33751 6.45629 5.84419L2.03913 18.1201C1.91651 18.4609 2.09165 18.8372 2.43032 18.9606C2.76899 19.084 3.14294 18.9077 3.26556 18.5669L4.684 14.6249H10.6206ZM10.1483 13.3124L7.6523 6.37554L5.15626 13.3124H10.1483Z" clip-rule="evenodd"/><path fill="#1A1A1A" fill-rule="evenodd" d="M14.5616 10.1643C15.3554 8.69158 16.9122 8.23507 18.287 8.23507C19.1971 8.23507 20.0991 8.50772 20.7898 9.00882C21.4861 9.51394 22 10.2821 22 11.2387V18.3436C22 18.706 21.708 18.9998 21.3478 18.9998C20.9876 18.9998 20.6957 18.706 20.6957 18.3436V18.2906C20.6831 18.2981 20.6704 18.3056 20.6577 18.3131C19.8812 18.768 18.8347 19 17.6566 19C16.7426 19 15.8757 18.724 15.2258 18.1707C14.5651 17.6081 14.1675 16.7895 14.1675 15.8063C14.1675 15.0022 14.4714 14.1775 15.1833 13.5635C15.8875 12.9561 16.9228 12.6126 18.287 12.6126H20.6957V11.2387C20.6957 10.7983 20.4672 10.3928 20.027 10.0735C19.5813 9.7501 18.9529 9.54755 18.287 9.54755C17.14 9.54755 16.1751 9.92364 15.7081 10.7901C15.5364 11.1087 15.1405 11.2269 14.8239 11.0541C14.5073 10.8813 14.3898 10.4829 14.5616 10.1643ZM20.6957 13.9251H18.287C17.1295 13.9251 16.4311 14.2159 16.0321 14.56C15.6408 14.8976 15.4718 15.3416 15.4718 15.8063C15.4718 16.409 15.7047 16.8591 16.0684 17.1688C16.4429 17.4876 16.9945 17.6875 17.6566 17.6875C18.6849 17.6875 19.484 17.4819 20.0015 17.1788C20.5083 16.882 20.6956 16.5314 20.6956 16.1869L20.6957 13.9251Z" clip-rule="evenodd"/><rect width="1" height="6" x="27.5" y="3" fill="#0A0A0A"/><rect width="1" height="6" x="31" y="5.5" fill="#0A0A0A" transform="rotate(90 31 5.5)"/></svg>