<svg width="359" height="417" viewBox="0 0 359 417" fill="none" xmlns="http://www.w3.org/2000/svg">
<g filter="url(#filter0_d)">
<path d="M277.441 107.184C290.866 121.938 289.679 149.518 286.06 173.352C282.441 197.186 276.275 217.089 268.782 241.9C261.29 266.711 252.655 296.316 233.164 310.354C213.637 324.542 183.439 323.048 154.562 316.011C125.72 308.825 98.4626 296.317 81.7568 275.398C65.0511 254.48 59.0113 225.338 63.2083 199.742C67.2199 174.26 81.4326 152.474 97.7706 137.052C114.144 121.48 132.758 112.457 151.506 105.525C170.404 98.6281 189.402 93.9713 212.88 92.4396C236.208 90.8723 264.13 92.6155 277.441 107.184Z" fill="#FFF4D8"/>
<path d="M310.319 326.831C296.481 344.348 281.371 355.468 276.558 351.678C271.745 347.877 279.065 330.601 292.892 313.074C306.729 295.557 326.652 288.228 326.652 288.228C326.652 288.228 324.156 309.314 310.319 326.831Z" fill="#D1F3EF"/>
<path d="M276.568 352.049C276.488 352.049 276.408 352.019 276.338 351.969C276.177 351.838 276.147 351.608 276.277 351.437L326.372 287.997C326.502 287.837 326.733 287.807 326.903 287.937C327.063 288.067 327.094 288.298 326.963 288.468L276.859 351.909C276.779 351.999 276.678 352.049 276.568 352.049Z" fill="white"/>
<path d="M309.576 310.237C309.406 310.237 309.246 310.117 309.216 309.946L306.889 299.338C306.849 299.137 306.969 298.937 307.17 298.887C307.381 298.837 307.571 298.967 307.621 299.167L309.947 309.776C309.988 309.976 309.867 310.177 309.667 310.227C309.637 310.237 309.607 310.237 309.576 310.237Z" fill="white"/>
<path d="M307.08 313.406C306.919 313.406 306.769 313.306 306.719 313.145L303.36 302.156C303.3 301.955 303.41 301.745 303.611 301.684C303.811 301.624 304.022 301.734 304.082 301.935L307.441 312.924C307.501 313.125 307.391 313.336 307.19 313.396C307.15 313.406 307.11 313.406 307.08 313.406Z" fill="white"/>
<path d="M311.772 325.307C311.742 325.307 311.712 325.307 311.682 325.297L300.011 322.229C299.81 322.179 299.69 321.968 299.74 321.767C299.79 321.567 299.991 321.447 300.201 321.497L311.873 324.565C312.073 324.615 312.194 324.826 312.143 325.026C312.093 325.197 311.933 325.307 311.772 325.307Z" fill="white"/>
<path d="M308.554 329.398C308.514 329.398 308.474 329.388 308.424 329.378L297.434 325.428C297.244 325.357 297.143 325.147 297.213 324.946C297.284 324.756 297.494 324.645 297.695 324.726L308.684 328.676C308.875 328.746 308.975 328.957 308.905 329.158C308.855 329.298 308.714 329.398 308.554 329.398Z" fill="white"/>
<path d="M288.46 336.979C288.31 336.979 288.159 336.879 288.109 336.728L284.038 325.187C283.968 324.997 284.068 324.776 284.269 324.706C284.469 324.636 284.68 324.736 284.75 324.937L288.821 336.477C288.891 336.668 288.791 336.889 288.59 336.959C288.55 336.969 288.5 336.979 288.46 336.979Z" fill="white"/>
<path d="M322.21 305.624C322.17 305.624 322.13 305.614 322.09 305.604L314.961 303.248C314.76 303.188 314.66 302.967 314.72 302.777C314.79 302.576 315.001 302.476 315.192 302.536L322.321 304.892C322.521 304.952 322.621 305.173 322.561 305.363C322.511 305.524 322.371 305.624 322.21 305.624Z" fill="white"/>
<path d="M34.1382 303.478C42.0795 314.518 44.1049 326.63 38.6703 330.541C33.2357 334.451 22.3867 328.676 14.4454 317.646C6.5041 306.607 5.53149 284.487 5.53149 284.487C5.53149 284.487 26.1969 292.439 34.1382 303.478Z" fill="white"/>
<path d="M34.6195 332.266C28.6234 332.266 20.3713 326.771 14.0143 317.947C6.07298 306.918 5.04021 285.42 5.00011 284.508C4.99008 284.327 5.07029 284.157 5.2207 284.056C5.3711 283.956 5.55158 283.926 5.72204 283.996C6.57433 284.327 26.6281 292.138 34.5694 303.168C42.6711 314.418 44.6464 326.891 38.9812 330.972C37.7579 331.855 36.2739 332.266 34.6195 332.266ZM6.10306 285.29C6.38382 289.391 7.97809 307.75 14.8666 317.336C22.6274 328.115 33.1556 333.85 38.3495 330.11C43.5434 326.37 41.4578 314.558 33.697 303.779C26.8086 294.194 9.91328 286.854 6.10306 285.29Z" fill="#FFBE80"/>
<path d="M5.7673 284.309L5.26294 284.673L38.4344 330.708L38.9387 330.344L5.7673 284.309Z" fill="#FFBE80"/>
<path d="M22.0938 307.206L9.63037 307.303L9.63518 307.924L22.0986 307.828L22.0938 307.206Z" fill="#FFBE80"/>
<path d="M23.989 309.878L10.9836 311.012L11.0376 311.631L24.043 310.497L23.989 309.878Z" fill="#FFBE80"/>
<path d="M36.7287 307.769L30.3779 319.232L30.9217 319.534L37.2724 308.071L36.7287 307.769Z" fill="#FFBE80"/>
<path d="M18.7171 290.968L16.124 299.538L16.719 299.718L19.3121 291.148L18.7171 290.968Z" fill="#FFBE80"/>
<path d="M131.319 350.345L255.712 350.375L255.762 364.593H131.319V350.345Z" fill="white"/>
<path d="M255.762 365.134H131.319C131.028 365.134 130.787 364.894 130.787 364.603V350.345C130.787 350.204 130.847 350.074 130.938 349.974C131.038 349.873 131.168 349.823 131.309 349.823L255.702 349.853C255.993 349.853 256.233 350.084 256.233 350.385L256.283 364.603C256.283 364.743 256.233 364.884 256.133 364.974C256.043 365.074 255.902 365.134 255.762 365.134ZM131.85 364.071H255.241L255.191 350.906L131.85 350.876V364.071Z" fill="#333333"/>
<path d="M329.44 350.374H255.712L255.862 364.562H329.54L329.319 362.637L257.406 362.507L257.336 352.389L329.54 352.049L329.44 350.374Z" fill="white"/>
<path d="M329.54 365.094H255.862C255.572 365.094 255.341 364.863 255.331 364.572L255.181 350.384C255.181 350.244 255.231 350.103 255.331 350.003C255.431 349.903 255.562 349.843 255.712 349.843H329.44C329.72 349.843 329.951 350.063 329.971 350.334L330.081 352.009C330.091 352.159 330.041 352.299 329.941 352.4C329.841 352.51 329.7 352.57 329.56 352.57L257.888 352.901L257.948 361.965L329.329 362.086C329.6 362.086 329.821 362.286 329.851 362.557L330.071 364.482C330.091 364.632 330.041 364.783 329.941 364.893C329.841 365.033 329.69 365.094 329.54 365.094ZM256.384 364.031H328.948L328.848 363.169L257.417 363.048C257.126 363.048 256.895 362.818 256.885 362.527L256.815 352.41C256.815 352.269 256.865 352.139 256.965 352.039C257.066 351.938 257.196 351.878 257.336 351.878L328.978 351.547L328.938 350.926H256.243L256.384 364.031Z" fill="#333333"/>
<path d="M137.204 364.703H239.017V385.148H137.204V364.703Z" fill="#333333"/>
<path d="M328.808 364.081L239.238 364.562L239.017 385.148L330.683 385.027L330.553 382.22L241.785 382.29L242.116 366.848L328.808 366.628V364.081Z" fill="#FFBE80"/>
<path d="M242.386 366.848L241.644 382.159L328.407 382.229C328.407 382.229 325.469 378.971 325.309 374.168C325.148 369.375 327.504 366.607 327.504 366.607L242.386 366.848Z" fill="white"/>
<path d="M328.407 382.751L241.644 382.681C241.504 382.681 241.364 382.621 241.263 382.52C241.163 382.42 241.113 382.27 241.123 382.129L241.865 366.818C241.875 366.537 242.105 366.317 242.396 366.317L327.504 366.076C327.715 366.076 327.895 366.196 327.986 366.387C328.076 366.578 328.046 366.798 327.905 366.949C327.885 366.979 325.69 369.636 325.84 374.148C325.99 378.68 328.778 381.838 328.808 381.868C328.948 382.019 328.978 382.25 328.898 382.44C328.798 382.631 328.617 382.751 328.407 382.751ZM242.196 381.628L327.324 381.698C326.411 380.385 324.887 377.687 324.767 374.188C324.657 370.769 325.76 368.352 326.482 367.139L242.888 367.38L242.196 381.628Z" fill="#333333"/>
<path d="M232.42 364.703H229.783V385.308H232.42V364.703Z" fill="white"/>
<path d="M225.892 364.703H223.255V385.308H225.892V364.703Z" fill="white"/>
<path d="M257.347 352.389L257.417 362.507H327.755C327.755 362.507 326.081 360.18 325.991 357.483C325.9 354.786 327.224 352.059 327.224 352.059L257.347 352.389Z" fill="white"/>
<path d="M327.755 363.048H257.417C257.126 363.048 256.885 362.818 256.885 362.527L256.815 352.41C256.815 352.27 256.865 352.139 256.965 352.039C257.066 351.939 257.196 351.878 257.336 351.878L327.214 351.558C327.394 351.558 327.565 351.648 327.665 351.808C327.765 351.959 327.775 352.159 327.695 352.32C327.685 352.35 326.432 354.957 326.512 357.494C326.592 360 328.156 362.206 328.176 362.226C328.297 362.387 328.307 362.597 328.216 362.778C328.136 362.938 327.956 363.048 327.755 363.048ZM257.938 361.986H326.803C326.271 361.033 325.519 359.359 325.459 357.504C325.399 355.558 326.021 353.623 326.422 352.6L257.878 352.921L257.938 361.986Z" fill="#333333"/>
<path d="M243.449 355.669H138.789V359.9H243.449V355.669Z" fill="#DDDFDC"/>
<path d="M130.657 336.938L255.05 336.156L255.1 350.374H130.657V336.938Z" fill="white"/>
<path d="M255.11 350.906H130.657C130.366 350.906 130.125 350.665 130.125 350.375V336.939C130.125 336.648 130.356 336.407 130.647 336.407L255.04 335.625C255.221 335.655 255.321 335.675 255.411 335.775C255.512 335.876 255.572 336.006 255.572 336.146L255.622 350.365C255.622 350.505 255.572 350.645 255.471 350.735C255.381 350.856 255.251 350.906 255.11 350.906ZM131.188 349.853H254.579L254.529 336.698L131.188 337.47V349.853Z" fill="#333333"/>
<path d="M328.788 336.156H255.06L255.211 350.344H328.888L328.667 348.419L256.755 348.289L256.685 338.172L328.888 337.831L328.788 336.156Z" fill="white"/>
<path d="M328.878 350.876H255.201C254.91 350.876 254.679 350.645 254.669 350.354L254.519 336.166C254.519 336.026 254.569 335.886 254.669 335.785C254.77 335.685 254.9 335.625 255.05 335.625H328.778C329.059 335.625 329.289 335.846 329.309 336.116L329.42 337.791C329.43 337.941 329.38 338.082 329.279 338.182C329.179 338.292 329.039 338.352 328.898 338.352L257.226 338.683L257.286 347.747L328.668 347.868C328.938 347.868 329.159 348.068 329.189 348.339L329.41 350.264C329.43 350.415 329.38 350.565 329.279 350.675C329.179 350.786 329.029 350.876 328.878 350.876ZM255.732 349.813H328.297L328.196 348.951L256.765 348.83C256.474 348.83 256.244 348.59 256.234 348.309L256.163 338.192C256.163 338.051 256.213 337.921 256.314 337.821C256.414 337.721 256.544 337.66 256.685 337.66L328.327 337.33L328.287 336.708H255.592L255.732 349.813Z" fill="#333333"/>
<path d="M256.685 338.172L256.755 348.289H327.094C327.094 348.289 325.419 345.963 325.329 343.265C325.239 340.568 326.562 337.841 326.562 337.841L256.685 338.172Z" fill="white"/>
<path d="M327.093 348.82H256.755C256.464 348.82 256.223 348.589 256.223 348.298L256.153 338.181C256.153 338.041 256.203 337.911 256.304 337.81C256.404 337.71 256.534 337.65 256.675 337.65L326.552 337.329C326.732 337.329 326.903 337.419 327.003 337.58C327.103 337.73 327.113 337.931 327.033 338.091C327.023 338.121 325.77 340.728 325.85 343.265C325.93 345.772 327.494 347.978 327.514 347.998C327.635 348.158 327.645 348.369 327.555 348.549C327.474 348.71 327.294 348.82 327.093 348.82ZM257.286 347.767H326.151C325.619 346.815 324.867 345.15 324.807 343.285C324.747 341.34 325.369 339.415 325.77 338.382L257.226 338.703L257.286 347.767Z" fill="#333333"/>
<path d="M242.787 341.45H138.127V345.682H242.787V341.45Z" fill="#DDDFDC"/>
<path d="M253.797 318.539H220.458V159.151H253.797V318.539Z" fill="#FFE9D5"/>
<path d="M276.387 318.769H252.975V159.382H276.387V318.769Z" fill="#FFE9B1"/>
<path d="M255.772 318.619L273.209 318.779L272.427 163.563L255.09 163.543L255.772 318.619Z" fill="white"/>
<path d="M273.209 319.31C273.199 319.31 273.199 319.31 273.209 319.31L255.772 319.15C255.481 319.15 255.251 318.909 255.251 318.619L254.569 163.553C254.569 163.413 254.619 163.272 254.719 163.182C254.82 163.082 254.95 163.021 255.09 163.021L272.427 163.042C272.718 163.042 272.958 163.272 272.958 163.563L273.74 318.779C273.74 318.919 273.68 319.06 273.58 319.16C273.48 319.26 273.349 319.31 273.209 319.31ZM256.304 318.097L272.678 318.248L271.905 164.094L255.632 164.074L256.304 318.097Z" fill="#333333"/>
<path d="M269.308 293.471C269.018 293.471 268.787 293.24 268.787 292.95L268.677 200.612C268.677 200.321 268.907 200.091 269.198 200.091C269.489 200.091 269.72 200.321 269.72 200.612L269.83 292.95C269.84 293.23 269.599 293.471 269.308 293.471Z" fill="#333333"/>
<path d="M265.418 294.243C265.127 294.243 264.897 294.013 264.897 293.722L264.606 173.841C264.606 173.55 264.836 173.319 265.127 173.319C265.418 173.319 265.649 173.55 265.649 173.841L265.939 293.722C265.949 294.013 265.709 294.243 265.418 294.243Z" fill="#333333"/>
<path d="M261.066 293.161C260.776 293.161 260.545 292.93 260.545 292.639L260.224 164.506C260.224 164.215 260.455 163.984 260.746 163.984C261.036 163.984 261.267 164.215 261.267 164.506L261.578 292.629C261.588 292.92 261.357 293.161 261.066 293.161Z" fill="#333333"/>
<path d="M245.966 203.19H220.859V171.174H245.966V203.19Z" fill="white"/>
<path d="M252.976 318.537H255.092V159.391H252.976V318.537Z" fill="#DDDFDC"/>
<path d="M274.289 318.537H276.405V159.391H274.289V318.537Z" fill="#DDDFDC"/>
<path d="M275.345 319.28C275.054 319.28 274.823 319.05 274.823 318.759L274.161 159.312C274.161 159.021 274.392 158.79 274.683 158.78C274.974 158.78 275.204 159.011 275.204 159.302L275.866 318.749C275.876 319.05 275.615 319.28 275.345 319.28Z" fill="#333333"/>
<path d="M255.752 319.32C255.461 319.32 255.231 319.09 255.231 318.799L254.569 159.362C254.569 159.071 254.8 158.84 255.09 158.83C255.381 158.83 255.612 159.061 255.612 159.351L256.274 318.799C256.274 319.09 256.043 319.32 255.752 319.32Z" fill="#333333"/>
<path d="M253.687 319.32C253.396 319.32 253.165 319.09 253.165 318.799L252.504 159.352C252.504 159.061 252.734 158.83 253.025 158.82C253.316 158.82 253.546 159.051 253.546 159.342L254.208 318.789C254.218 319.09 253.977 319.32 253.687 319.32Z" fill="#333333"/>
<path d="M74.1354 171.896H150.911V374.007H74.1354V171.896Z" fill="#F46F60"/>
<path d="M52.5073 171.926H74.1453V374.629H52.5073V171.926Z" fill="#F46F60"/>
<path d="M71.4582 181.311H58.9847L59.3958 374.198L71.7891 374.248L71.4582 181.311Z" fill="white"/>
<path d="M71.789 374.769L59.3958 374.719C59.105 374.719 58.8744 374.478 58.8644 374.188L58.4432 181.301C58.4432 181.16 58.5034 181.03 58.5936 180.93C58.6939 180.829 58.8243 180.779 58.9646 180.779H71.4381C71.7288 180.779 71.9695 181.02 71.9695 181.311L72.3004 374.238C72.3004 374.378 72.2402 374.519 72.15 374.609C72.0597 374.709 71.9294 374.769 71.789 374.769ZM59.9272 373.666L71.2576 373.706L70.9267 181.832H59.5161L59.9272 373.666Z" fill="#333333"/>
<path d="M62.7948 363.619C62.5041 363.619 62.2734 363.379 62.2734 363.098L62.6745 186.324C62.6745 186.033 62.9051 185.803 63.1959 185.803C63.4867 185.803 63.7173 186.043 63.7173 186.324L63.3162 363.098C63.3263 363.389 63.0856 363.619 62.7948 363.619Z" fill="#333333"/>
<path d="M66.4146 330.912C66.4046 330.912 66.4046 330.912 66.4146 330.912C66.1239 330.912 65.8832 330.671 65.8932 330.381L66.8959 205.576C66.8959 205.285 67.1366 205.055 67.4173 205.055C67.7081 205.055 67.9387 205.295 67.9387 205.586L66.936 330.391C66.936 330.681 66.6954 330.912 66.4146 330.912Z" fill="#333333"/>
<path d="M74.7067 375.15C74.4159 375.15 74.1853 374.92 74.1853 374.629V171.926C74.1853 171.635 74.4159 171.404 74.7067 171.404C74.9975 171.404 75.2281 171.635 75.2281 171.926V374.629C75.2381 374.92 74.9975 375.15 74.7067 375.15Z" fill="#333333"/>
<path d="M71.3478 375.15C71.057 375.15 70.8264 374.92 70.8264 374.629V171.895C70.8264 171.605 71.057 171.374 71.3478 171.374C71.6386 171.374 71.8692 171.605 71.8692 171.895V374.629C71.8692 374.92 71.6386 375.15 71.3478 375.15Z" fill="#333333"/>
<path d="M55.5154 375.15C55.2246 375.15 54.994 374.92 54.994 374.629V171.895C54.994 171.605 55.2246 171.374 55.5154 171.374C55.8062 171.374 56.0368 171.605 56.0368 171.895V374.629C56.0468 374.92 55.8062 375.15 55.5154 375.15Z" fill="#333333"/>
<path d="M221.25 245.282C221.25 245.211 221.26 245.141 221.29 245.071C221.42 244.79 234.676 216.424 252.042 200.682C269.409 184.96 287.477 176.206 287.658 176.126C287.898 176.006 288.189 176.116 288.309 176.357C288.43 176.597 288.32 176.888 288.079 177.009C287.898 177.099 269.96 185.792 252.714 201.414C235.488 217.026 222.313 245.201 222.182 245.492C222.072 245.733 221.781 245.843 221.531 245.733C221.36 245.642 221.26 245.472 221.25 245.282Z" fill="#333333"/>
<path d="M230.444 228.808C230.444 228.808 240.17 203.38 232.44 204.904C224.719 206.428 230.444 228.808 230.444 228.808Z" fill="#333333"/>
<path d="M231.477 228.667C231.477 228.667 252.253 218.58 253.105 224.376C253.957 230.171 231.477 228.667 231.477 228.667Z" fill="#333333"/>
<path d="M246.377 185.8H246.378C247.26 185.745 247.834 186.014 248.229 186.475C248.645 186.963 248.913 187.728 249.022 188.755C249.241 190.808 248.803 193.643 248.095 196.556C247.39 199.454 246.431 202.373 245.647 204.572C245.332 205.457 245.045 206.225 244.815 206.825C244.673 206.266 244.503 205.568 244.322 204.769C243.842 202.65 243.288 199.826 242.986 196.993C242.683 194.148 242.641 191.344 243.153 189.239C243.408 188.189 243.793 187.352 244.317 186.77C244.829 186.201 245.494 185.853 246.377 185.8Z" fill="#FFBE80" stroke="black"/>
<path d="M249.013 208.265C248.444 208.155 247.935 208.05 247.501 207.956C248.067 207.746 248.768 207.493 249.564 207.215C251.715 206.464 254.559 205.54 257.345 204.84C260.148 204.135 262.833 203.672 264.691 203.808C265.629 203.876 266.259 204.091 266.607 204.409C266.912 204.687 267.08 205.12 266.897 205.89C266.531 207.409 265.196 208.353 263.159 208.865C261.131 209.374 258.548 209.413 255.974 209.225C253.409 209.038 250.891 208.629 249.013 208.265Z" fill="#FFBE80" stroke="black"/>
<path d="M262.404 190.495C262.302 189.907 262.18 189.179 262.054 188.351C261.712 186.109 261.335 183.139 261.19 180.21C261.044 177.269 261.135 174.422 261.701 172.401C261.985 171.39 262.372 170.64 262.858 170.181C263.321 169.743 263.903 169.537 264.688 169.662C265.475 169.787 266.009 170.172 266.373 170.76C266.751 171.37 266.962 172.225 267.015 173.289C267.12 175.419 266.587 178.196 265.804 180.988C265.025 183.768 264.013 186.517 263.194 188.574C262.898 189.316 262.629 189.966 262.404 190.495Z" fill="#FFBE80" stroke="black"/>
<path d="M279.585 192.792V192.793C279.478 193.386 279.18 193.817 278.724 194.136C278.254 194.465 277.599 194.686 276.783 194.802C275.149 195.034 273.024 194.824 270.881 194.422C268.748 194.021 266.643 193.438 265.068 192.955C264.672 192.833 264.31 192.718 263.991 192.614C264.383 192.512 264.836 192.396 265.337 192.274C267.079 191.85 269.385 191.346 271.652 191.024C273.934 190.7 276.122 190.568 277.654 190.856C278.423 191.001 278.957 191.239 279.267 191.545C279.548 191.822 279.693 192.201 279.585 192.792Z" fill="#FFBE80" stroke="black"/>
<path d="M283.997 168.144L283.999 168.145C284.299 168.337 284.473 168.627 284.534 169.047C284.598 169.485 284.533 170.049 284.343 170.721C283.964 172.064 283.129 173.685 282.16 175.271C281.196 176.849 280.12 178.36 279.283 179.479C279.213 179.573 279.144 179.664 279.078 179.752C279.109 179.586 279.142 179.413 279.177 179.232C279.464 177.757 279.883 175.819 280.409 173.956C280.939 172.082 281.567 170.328 282.26 169.193C282.61 168.62 282.942 168.264 283.235 168.103C283.373 168.027 283.493 168 283.601 168.003C283.71 168.007 283.84 168.042 283.997 168.144Z" fill="#FFBE80" stroke="black"/>
<path d="M280.335 182.132C280.292 182.121 280.249 182.111 280.206 182.102C280.334 182.073 280.467 182.044 280.604 182.015C282.029 181.706 283.913 181.337 285.763 181.088C287.625 180.837 289.406 180.716 290.646 180.882C291.274 180.966 291.686 181.115 291.906 181.291C292.007 181.372 292.058 181.451 292.083 181.527C292.108 181.605 292.119 181.719 292.076 181.89C291.912 182.531 291.2 182.982 289.816 183.169C288.481 183.349 286.758 183.243 285.026 183.011C283.302 182.779 281.604 182.427 280.335 182.132Z" fill="#FFD3AB" stroke="black"/>
<path d="M287.92 176.657C288.38 176.27 288.934 175.808 289.559 175.298C291.427 173.772 293.926 171.811 296.461 170.061C299.006 168.303 301.547 166.786 303.507 166.117C304.497 165.779 305.258 165.687 305.776 165.815C306.022 165.876 306.206 165.986 306.344 166.141C306.484 166.298 306.603 166.533 306.668 166.883C306.92 168.237 306.005 169.575 304.115 170.879C302.259 172.16 299.644 173.276 296.951 174.196C294.267 175.113 291.539 175.824 289.48 176.306C288.901 176.442 288.376 176.559 287.92 176.657Z" fill="#FFD3AB" stroke="black"/>
<path d="M34.0767 222.801H282.826V385.149H34.0767V222.801Z" fill="#76DBCF" stroke="black"/>
<path d="M47.5742 227.184H271.103V381.277H47.5742V227.184Z" fill="white"/>
<path d="M271.093 381.798H47.5742C47.2834 381.798 47.0427 381.558 47.0427 381.267V227.174C47.0427 226.883 47.2834 226.643 47.5742 226.643H271.103C271.394 226.643 271.635 226.883 271.635 227.174V381.267C271.625 381.568 271.394 381.798 271.093 381.798ZM48.1056 380.746H270.572V227.705H48.1056V380.746Z" fill="#333333"/>
<path d="M51.9156 227.494L52.2766 381.266L51.9156 227.494Z" fill="white"/>
<path d="M52.2768 381.798C51.986 381.798 51.7454 381.567 51.7454 381.266L51.3844 227.494C51.3844 227.204 51.615 226.963 51.9158 226.963C52.2066 226.963 52.4472 227.194 52.4472 227.494L52.8082 381.266C52.8082 381.567 52.5776 381.798 52.2768 381.798Z" fill="#333333"/>
<path d="M259.312 238.264H58.4333V241.282H259.312V238.264Z" fill="#FFF4D8"/>
<path d="M259.312 244.22H58.4333V247.238H259.312V244.22Z" fill="#FFF4D8"/>
<path d="M259.312 251.729H58.4333V254.748H259.312V251.729Z" fill="#FFF4D8"/>
<path d="M259.312 257.686H58.4333V260.704H259.312V257.686Z" fill="#FFF4D8"/>
<path d="M259.773 265.577H58.8945V371.812H259.773V265.577Z" fill="#FFF4D8"/>
<path d="M248.872 286.265L248.647 286.168L248.432 286.286L242.393 289.605L241.5 225.157L254.348 225.148L255.36 289.075L248.872 286.265Z" fill="#FEC93B" stroke="black"/>
<path d="M49.9004 381.518C49.6096 381.518 49.379 381.287 49.379 380.996V227.545C49.379 227.254 49.6096 227.023 49.9004 227.023C50.1912 227.023 50.4218 227.254 50.4218 227.545V380.996C50.4318 381.287 50.1912 381.518 49.9004 381.518Z" fill="#333333"/>
<path d="M266.631 381.478C266.34 381.478 266.11 381.247 266.11 380.956V227.495C266.11 227.204 266.34 226.974 266.631 226.974C266.922 226.974 267.153 227.204 267.153 227.495V380.946C267.153 381.247 266.922 381.478 266.631 381.478Z" fill="#333333"/>
<path d="M269.008 381.478C268.717 381.478 268.486 381.247 268.486 380.956V227.495C268.486 227.204 268.717 226.974 269.008 226.974C269.298 226.974 269.529 227.204 269.529 227.495V380.946C269.539 381.247 269.298 381.478 269.008 381.478Z" fill="#333333"/>
<path d="M236.612 144.312V369.936C236.612 377.882 230.168 384.326 222.222 384.326H118.805C110.859 384.326 104.415 377.882 104.415 369.936V144.312C104.415 136.366 110.859 129.922 118.805 129.922H222.222C230.168 129.922 236.612 136.366 236.612 144.312Z" fill="#F57903" stroke="black"/>
<path d="M227.045 156.655V348.97C227.045 356.079 221.28 361.845 214.171 361.845H126.867C119.758 361.845 113.992 356.079 113.992 348.97V156.655C113.992 149.546 119.758 143.78 126.867 143.78H214.171C221.28 143.78 227.045 149.546 227.045 156.655Z" fill="white"/>
<path d="M214.171 362.367H126.867C119.477 362.367 113.461 356.35 113.461 348.961V156.645C113.461 149.255 119.477 143.239 126.867 143.239H214.171C221.561 143.239 227.577 149.255 227.577 156.645V348.961C227.567 356.35 221.561 362.367 214.171 362.367ZM126.867 144.302C120.059 144.302 114.524 149.837 114.524 156.645V348.961C114.524 355.769 120.059 361.304 126.867 361.304H214.171C220.979 361.304 226.514 355.769 226.514 348.961V156.645C226.514 149.837 220.979 144.302 214.171 144.302H126.867Z" fill="#333333"/>
<path d="M219.375 276.165H118.063V279.935H219.375V276.165Z" fill="#FFF4D8"/>
<path d="M134.407 244.5H124.611V275.894H134.407V244.5Z" fill="#FFF4D8"/>
<path d="M167.385 276.426H156.536V246.195H167.385V276.426ZM157.589 275.363H166.322V247.258H157.589V275.363Z" fill="#333333"/>
<path d="M174.735 276.426H166.333V241.302H174.735V276.426ZM167.385 275.363H173.672V242.355H167.385V275.363Z" fill="#333333"/>
<path d="M182.075 276.426H173.672V241.302H182.075V276.426ZM174.735 275.363H181.022V242.355H174.735V275.363Z" fill="#333333"/>
<path d="M150.851 276.426H143.672V243.969H150.851V276.426ZM144.735 275.363H149.798V245.032H144.735V275.363Z" fill="#333333"/>
<path d="M144.735 276.426H133.886V237.742H144.735V276.426ZM134.939 275.363H143.672V238.795H134.939V275.363Z" fill="#333333"/>
<path d="M157.589 276.426H149.798V237.742H157.589V276.426ZM150.851 275.363H156.526V238.795H150.851V275.363Z" fill="#333333"/>
<path d="M134.938 270.5H124.089V267.352H134.938V270.5ZM125.142 269.447H133.876V268.414H125.142V269.447Z" fill="#333333"/>
<path d="M144.735 270.5H133.886V267.352H144.735V270.5ZM134.939 269.447H143.672V268.414H134.939V269.447Z" fill="#333333"/>
<path d="M148.324 248.21H146.229V270.239H148.324V248.21Z" fill="#333333"/>
<path d="M138.247 241.041H136.693V265.717H138.247V241.041Z" fill="#333333"/>
<path d="M140.864 246.727H139.31V265.717H140.864V246.727Z" fill="#333333"/>
<path d="M157.068 241.041H150.33V242.816H157.068V241.041Z" fill="#333333"/>
<path d="M166.854 269.979H157.058V271.753H166.854V269.979Z" fill="#333333"/>
<path d="M159.625 252.802C159.625 251.519 160.667 250.466 161.961 250.466C163.244 250.466 164.297 251.509 164.297 252.802C164.297 254.086 163.254 255.138 161.961 255.138C160.667 255.138 159.625 254.096 159.625 252.802Z" fill="#333333"/>
<path d="M168.879 246.245C168.879 245.333 169.621 244.601 170.524 244.601C171.436 244.601 172.168 245.343 172.168 246.245C172.168 247.157 171.426 247.889 170.524 247.889C169.621 247.889 168.879 247.147 168.879 246.245Z" fill="#333333"/>
<path d="M176.229 246.245C176.229 245.333 176.971 244.601 177.874 244.601C178.786 244.601 179.518 245.343 179.518 246.245C179.518 247.157 178.776 247.889 177.874 247.889C176.961 247.889 176.229 247.147 176.229 246.245Z" fill="#333333"/>
<path d="M171.607 249.824H169.581V270.239H171.607V249.824Z" fill="#333333"/>
<path d="M178.886 249.824H176.861V270.239H178.886V249.824Z" fill="#333333"/>
<path d="M166.864 268.364H157.278V268.926H166.864V268.364Z" fill="#333333"/>
<path d="M174.274 272.024H167.034V272.586H174.274V272.024Z" fill="#333333"/>
<path d="M174.274 273.438H167.034V273.999H174.274V273.438Z" fill="#333333"/>
<path d="M181.513 272.024H174.274V272.586H181.513V272.024Z" fill="#333333"/>
<path d="M181.513 273.438H174.274V273.999H181.513V273.438Z" fill="#333333"/>
<path d="M219.375 323.753H118.063V327.523H219.375V323.753Z" fill="#FFF4D8"/>
<path d="M171.075 324.545L160.357 295.798L166.764 293.411L177.482 322.158L171.075 324.545ZM161.72 296.419L171.697 323.181L176.119 321.537L166.142 294.775L161.72 296.419Z" fill="#333333"/>
<path d="M165.891 298.026L164.04 298.716L171.298 318.192L173.149 317.502L165.891 298.026Z" fill="#333333"/>
<path d="M192.428 295.482L186.906 293.596L177.236 321.909L182.758 323.795L192.428 295.482Z" fill="#FFF4D8"/>
<path d="M183.077 324.475L176.56 322.249L186.577 292.931L193.094 295.157L183.077 324.475ZM177.904 321.587L182.426 323.132L191.751 295.818L187.229 294.274L177.904 321.587Z" fill="#333333"/>
<path d="M189.469 298.213L187.581 297.568L180.795 317.437L182.683 318.082L189.469 298.213Z" fill="#333333"/>
<path d="M199.291 324.495H192.402V284.397H199.291V324.495ZM193.455 323.442H198.228V285.46H193.455V323.442Z" fill="#333333"/>
<path d="M196.854 291.075H194.859V312.071H196.854V291.075Z" fill="#333333"/>
<path d="M205.879 324.495H198.399V287.576H205.879V324.495ZM199.461 323.442H204.826V288.639H199.461V323.442Z" fill="#333333"/>
<path d="M205.347 290.755H198.93V292.449H205.347V290.755Z" fill="#333333"/>
<path d="M215.414 324.495H205.016V295.638H215.414V324.495ZM206.079 323.442H214.351V296.701H206.079V323.442Z" fill="#333333"/>
<path d="M214.883 318.328H205.548V320.023H214.883V318.328Z" fill="#333333"/>
<path d="M207.994 301.964C207.994 300.741 208.987 299.738 210.22 299.738C211.444 299.738 212.446 300.731 212.446 301.964C212.446 303.188 211.454 304.19 210.22 304.19C208.987 304.19 207.994 303.198 207.994 301.964Z" fill="#333333"/>
<path d="M214.893 316.794H205.758V317.325H214.893V316.794Z" fill="#333333"/>
<path d="M198.77 316.333H192.934V317.005H198.77V316.333Z" fill="#333333"/>
<path d="M198.84 317.757H193.004V318.429H198.84V317.757Z" fill="#333333"/>
<path d="M198.93 319.221H193.094V319.892H198.93V319.221Z" fill="#333333"/>
<path d="M194.167 287.927C194.167 287.356 194.919 286.895 195.852 286.895C196.784 286.895 197.536 287.356 197.536 287.927C197.536 288.499 196.784 288.96 195.852 288.96C194.919 288.96 194.167 288.499 194.167 287.927Z" fill="#333333"/>
<path d="M219.375 227.495H118.063V231.265H219.375V227.495Z" fill="#FFF4D8"/>
<path d="M183.238 227.716H176.349V187.618H183.238V227.716ZM177.402 226.663H182.175V188.671H177.402V226.663Z" fill="#333333"/>
<path d="M180.801 194.296H178.806V215.292H180.801V194.296Z" fill="#333333"/>
<path d="M167.215 227.997L160.697 225.771L170.714 196.452L177.242 198.678L167.215 227.997ZM162.031 225.109L166.553 226.653L175.878 199.34L171.356 197.796L162.031 225.109Z" fill="#333333"/>
<path d="M173.605 201.731L171.717 201.086L164.931 220.955L166.819 221.6L173.605 201.731Z" fill="#333333"/>
<path d="M189.294 191.328H182.877V227.184H189.294V191.328Z" fill="#FFF4D8"/>
<path d="M189.826 227.716H182.345V190.797H189.826V227.716ZM183.408 226.663H188.763V191.86H183.408V226.663Z" fill="#333333"/>
<path d="M189.294 193.976H182.877V195.67H189.294V193.976Z" fill="#333333"/>
<path d="M199.361 227.716H188.963V198.858H199.361V227.716ZM190.026 226.663H198.298V199.921H190.026V226.663Z" fill="#333333"/>
<path d="M206.36 227.715H198.298V194.195H206.36V227.715ZM199.361 226.662H205.307V195.248H199.361V226.662Z" fill="#333333"/>
<path d="M213.369 227.715H205.307V194.195H213.369V227.715ZM206.36 226.662H212.306V195.248H206.36V226.662Z" fill="#333333"/>
<path d="M198.83 221.549H189.495V223.243H198.83V221.549Z" fill="#333333"/>
<path d="M191.941 205.185C191.941 203.962 192.934 202.959 194.167 202.959C195.39 202.959 196.393 203.952 196.393 205.185C196.393 206.408 195.4 207.411 194.167 207.411C192.934 207.411 191.941 206.418 191.941 205.185Z" fill="#333333"/>
<path d="M200.765 198.929C200.765 198.056 201.467 197.354 202.339 197.354C203.211 197.354 203.913 198.056 203.913 198.929C203.913 199.801 203.211 200.503 202.339 200.503C201.467 200.503 200.765 199.801 200.765 198.929Z" fill="#333333"/>
<path d="M207.764 198.929C207.764 198.056 208.466 197.354 209.338 197.354C210.21 197.354 210.912 198.056 210.912 198.929C210.912 199.801 210.21 200.503 209.338 200.503C208.466 200.503 207.764 199.801 207.764 198.929Z" fill="#333333"/>
<path d="M203.372 202.348H201.437V221.8H203.372V202.348Z" fill="#333333"/>
<path d="M210.3 202.348H208.365V221.8H210.3V202.348Z" fill="#333333"/>
<path d="M198.84 220.015H189.705V220.546H198.84V220.015Z" fill="#333333"/>
<path d="M205.899 223.504H199V224.035H205.899V223.504Z" fill="#333333"/>
<path d="M205.899 224.848H199V225.379H205.899V224.848Z" fill="#333333"/>
<path d="M212.807 223.504H205.909V224.035H212.807V223.504Z" fill="#333333"/>
<path d="M212.807 224.848H205.909V225.379H212.807V224.848Z" fill="#333333"/>
<path d="M182.716 219.554H176.881V220.226H182.716V219.554Z" fill="#333333"/>
<path d="M182.787 220.978H176.951V221.649H182.787V220.978Z" fill="#333333"/>
<path d="M182.877 222.441H177.041V223.113H182.877V222.441Z" fill="#333333"/>
<path d="M178.114 191.148C178.114 190.576 178.866 190.115 179.799 190.115C180.731 190.115 181.483 190.576 181.483 191.148C181.483 191.72 180.731 192.181 179.799 192.181C178.866 192.181 178.114 191.72 178.114 191.148Z" fill="#333333"/>
<path d="M141.556 227.475H120.4V194.998H141.556V227.475ZM121.462 226.412H140.503V196.061H121.462V226.412Z" fill="#333333"/>
<path d="M161.51 227.314H140.664V195.158H161.51V227.314ZM141.406 226.572H160.758V195.91H141.406V226.572Z" fill="#333333"/>
<path d="M138.688 197.865H123.057V224.286H138.688V197.865Z" fill="#D1F3EF"/>
<path d="M158.893 197.865H143.261V224.286H158.893V197.865Z" fill="#D1F3EF"/>
<path d="M146.098 231.275L144.594 229.941L143.1 231.275V193.925H146.098V231.275Z" fill="#333333"/>
<path d="M199.541 177.08H122.776C121.432 177.08 120.339 175.987 120.339 174.643V167.685C120.339 166.341 121.432 165.248 122.776 165.248H199.541C200.885 165.248 201.978 166.341 201.978 167.685V174.643C201.978 175.997 200.885 177.08 199.541 177.08Z" fill="#FFF4D8"/>
<path d="M218.853 177.08H212.055C210.711 177.08 209.619 175.987 209.619 174.643V167.685C209.619 166.341 210.711 165.248 212.055 165.248H218.853C220.197 165.248 221.29 166.341 221.29 167.685V174.643C221.29 175.997 220.197 177.08 218.853 177.08Z" fill="#FFF4D8"/>
<path d="M218.101 153.296H211.052C210.511 153.296 210.07 152.855 210.07 152.313V149.786C210.07 149.245 210.511 148.804 211.052 148.804H218.101C218.643 148.804 219.084 149.245 219.084 149.786V152.313C219.084 152.855 218.643 153.296 218.101 153.296ZM211.052 149.295C210.781 149.295 210.561 149.516 210.561 149.786V152.313C210.561 152.584 210.781 152.804 211.052 152.804H218.101C218.372 152.804 218.592 152.584 218.592 152.313V149.786C218.592 149.516 218.372 149.295 218.101 149.295H211.052Z" fill="#333333"/>
<path d="M216.437 152.463H211.413C211.092 152.463 210.842 152.193 210.842 151.872V150.227C210.842 149.906 211.092 149.636 211.413 149.636H214.652L216.437 152.463Z" fill="#333333"/>
<path d="M219.615 150.698V151.26C219.615 151.36 219.535 151.44 219.445 151.44H218.853V150.508H219.445C219.535 150.518 219.615 150.598 219.615 150.698Z" fill="#333333"/>
<path d="M129.063 150.127L128.311 150.919C127.619 150.268 126.686 149.867 125.663 149.867C124.621 149.867 123.668 150.288 122.976 150.959L122.214 150.177C123.107 149.305 124.32 148.774 125.663 148.774C126.977 148.764 128.17 149.285 129.063 150.127Z" fill="#333333"/>
<path d="M127.94 151.3L127.188 152.102C126.787 151.721 126.255 151.491 125.664 151.491C125.062 151.491 124.521 151.731 124.12 152.122L123.348 151.33C123.949 150.749 124.761 150.388 125.664 150.388C126.546 150.398 127.348 150.739 127.94 151.3Z" fill="#333333"/>
<path d="M126.797 152.514L125.664 153.707L124.51 152.524C124.811 152.233 125.212 152.053 125.664 152.053C126.095 152.063 126.496 152.233 126.797 152.514Z" fill="#333333"/>
<path d="M138.041 153.712H139.545V148.388H138.041V153.712Z" fill="#333333"/>
<path d="M135.807 153.707H137.311V149.566H135.807V153.707Z" fill="#333333"/>
<path d="M133.727 153.711H135.231V150.562H133.727V153.711Z" fill="#333333"/>
<path d="M131.688 153.71H133.192V152.136H131.688V153.71Z" fill="#333333"/>
<path d="M224.368 155.843H115.847V156.906H224.368V155.843Z" fill="#333333"/>
<path d="M134.938 276.426H124.089V243.969H134.938V276.426ZM125.142 275.363H133.875V245.032H125.142V275.363Z" fill="#333333"/>
<path d="M177.524 374.559C177.524 377.772 174.92 380.376 171.707 380.376C168.494 380.376 165.89 377.772 165.89 374.559C165.89 371.347 168.494 368.742 171.707 368.742C174.92 368.742 177.524 371.347 177.524 374.559Z" fill="#FFF5EA" stroke="black"/>
<path d="M165.069 351.547C165.069 350.384 164.127 349.451 162.974 349.451C161.81 349.451 160.878 350.394 160.878 351.547C160.878 352.71 161.82 353.642 162.974 353.642C164.127 353.642 165.069 352.7 165.069 351.547Z" fill="#FFE9D5"/>
<path d="M173.782 351.547C173.782 350.384 172.84 349.451 171.687 349.451C170.524 349.451 169.591 350.394 169.591 351.547C169.591 352.71 170.534 353.642 171.687 353.642C172.85 353.642 173.782 352.7 173.782 351.547Z" fill="#FFE9D5"/>
<path d="M129.544 346.183C129.494 346.183 129.444 346.173 129.404 346.152C129.213 346.072 129.123 345.852 129.203 345.661C129.223 345.611 131.349 340.357 130.757 333.809C130.737 333.599 130.888 333.418 131.098 333.398C131.309 333.378 131.489 333.529 131.509 333.739C132.121 340.477 129.985 345.721 129.895 345.942C129.825 346.102 129.684 346.183 129.544 346.183Z" fill="white"/>
<path d="M20.6159 352.964C21.4099 349.601 19.3275 346.231 15.9646 345.437C12.6017 344.643 9.23176 346.726 8.43768 350.089C7.64361 353.452 9.72605 356.821 13.089 357.616C16.4519 358.41 19.8218 356.327 20.6159 352.964Z" fill="#D1F3EF"/>
<path d="M18.8772 266.379C15.2074 266.379 12.2294 263.401 12.2294 259.731C12.2294 256.061 15.2074 253.083 18.8772 253.083C22.547 253.083 25.525 256.061 25.525 259.731C25.525 263.401 22.537 266.379 18.8772 266.379ZM18.8772 253.865C15.6385 253.865 13.0115 256.502 13.0115 259.731C13.0115 262.969 15.6485 265.597 18.8772 265.597C22.1159 265.597 24.7429 262.969 24.7429 259.731C24.7429 256.502 22.1058 253.865 18.8772 253.865Z" fill="#FFE9B1"/>
<path d="M301.615 278.561C298.938 278.561 296.762 276.385 296.762 273.718C296.762 271.041 298.938 268.865 301.615 268.865C304.292 268.865 306.468 271.041 306.468 273.718C306.458 276.385 304.282 278.561 301.615 278.561ZM301.615 269.437C299.259 269.437 297.333 271.352 297.333 273.718C297.333 276.075 299.249 278 301.615 278C303.981 278 305.896 276.085 305.896 273.718C305.886 271.362 303.971 269.437 301.615 269.437Z" fill="#FFE9B1"/>
<path d="M272.838 398.302C272.838 395.896 274.793 393.94 277.199 393.94C279.606 393.94 281.561 395.896 281.561 398.302C281.561 400.709 279.606 402.664 277.199 402.664C274.793 402.674 272.838 400.719 272.838 398.302Z" fill="#FFE9D5"/>
<path d="M280 94.3617C280 91.9552 281.955 90 284.362 90C286.768 90 288.723 91.9552 288.723 94.3617C288.723 96.7681 286.768 98.7234 284.362 98.7234C281.955 98.7334 280 96.7782 280 94.3617Z" fill="#D1F3EF"/>
<path d="M75.3237 144.719C74.9472 140.482 71.2077 137.353 66.9713 137.73C62.7349 138.106 59.6058 141.846 59.9823 146.082C60.3588 150.319 64.0984 153.448 68.3348 153.071C72.5712 152.695 75.7002 148.955 75.3237 144.719Z" fill="#FFE9B1"/>
<path d="M303.642 208.722C304.523 205.766 302.841 202.656 299.885 201.774C296.93 200.893 293.819 202.575 292.938 205.531C292.057 208.487 293.738 211.597 296.694 212.478C299.65 213.36 302.761 211.678 303.642 208.722Z" fill="#FFF4D8"/>
<path d="M82.187 377.477C82.1068 377.477 82.0366 377.447 81.9764 377.387C81.8962 377.307 81.8661 377.196 81.8962 377.096C81.9263 376.986 84.8742 365.996 88.0527 360.101C91.2513 354.165 100.576 348.459 100.967 348.219C101.058 348.169 101.168 348.159 101.268 348.209C101.358 348.259 101.419 348.349 101.429 348.459C102.552 371.722 82.4677 377.407 82.2572 377.457C82.2471 377.477 82.2171 377.477 82.187 377.477ZM100.857 349.011C98.9519 350.224 91.3215 355.318 88.5841 360.391C85.8368 365.485 83.2498 374.459 82.6181 376.725C85.7064 375.672 101.569 369.285 100.857 349.011Z" fill="black"/>
<path d="M82.197 377.467C82.1068 377.467 82.0265 377.427 81.9664 377.357C81.8862 377.257 81.8761 377.126 81.9263 377.026C81.9363 377.006 81.9363 376.986 81.9463 376.976L87.9925 367.761C88.0026 367.741 88.0026 367.731 88.0126 367.711L100.606 348.469C100.697 348.329 100.887 348.289 101.017 348.379C101.158 348.469 101.198 348.66 101.108 348.79L88.544 368.002C88.534 368.022 88.524 368.032 88.524 368.052L82.4778 377.267C82.4577 377.317 82.4276 377.357 82.3975 377.387C82.3374 377.447 82.2672 377.467 82.197 377.467Z" fill="black"/>
<path d="M89.7873 365.866C89.6369 365.866 89.5065 365.755 89.4865 365.605C89.4664 365.445 89.5767 365.294 89.7372 365.264L97.7687 364.141C97.9291 364.121 98.0795 364.231 98.1096 364.392C98.1296 364.552 98.0194 364.703 97.8589 364.733L89.8274 365.856C89.8174 365.866 89.7973 365.866 89.7873 365.866Z" fill="black"/>
<path d="M88.2633 368.172C88.2533 368.172 88.2433 368.172 88.2433 368.172C88.0828 368.162 87.9525 368.032 87.9725 367.871V367.861L87.7118 360.863C87.7018 360.702 87.8322 360.562 88.0026 360.552H88.0127C88.1731 360.552 88.3034 360.682 88.3135 360.843L88.5742 367.881C88.5541 368.032 88.4238 368.172 88.2633 368.172Z" fill="black"/>
<path d="M79.8909 381.117C79.8107 381.117 79.7405 381.087 79.6803 381.037C79.0687 380.455 64.6901 366.658 63.9281 357.273C63.8579 356.451 64.0785 355.899 64.5598 355.619C65.4923 355.077 67.2269 355.829 68.4502 356.511C66.0438 353.172 59.8472 344.198 60.6894 341.28C60.8198 340.829 61.1105 340.508 61.5216 340.348C62.7249 339.886 64.3292 341.1 65.4722 342.213C63.9181 338.824 61.0905 331.995 62.6045 330.251C63.0156 329.779 63.6674 329.679 64.5498 329.97C67.7985 331.043 69.493 336.678 70.2651 340.328C70.3854 338.683 70.6962 337.049 71.4282 336.848C72.09 336.658 72.6414 337.51 73.0124 338.162C74.8875 341.511 75.9102 348.84 76.3213 352.55C76.7224 350.705 77.4744 348.389 78.7278 348.179C79.6603 348.028 80.5928 348.951 81.5854 351.016C85.3254 358.737 80.3922 380.004 80.1817 380.906C80.1616 381.017 80.0814 381.097 79.9711 381.127C79.951 381.117 79.921 381.117 79.8909 381.117ZM65.3619 356.03C65.1714 356.03 65.001 356.06 64.8706 356.14C64.5999 356.29 64.4896 356.661 64.5297 357.233C65.2015 365.555 77.3842 377.938 79.7104 380.235C80.4524 376.866 84.3729 358.135 81.044 351.267C79.921 348.951 79.179 348.7 78.828 348.76C77.6649 348.961 76.8026 352.59 76.5419 354.836C76.5218 354.987 76.3614 355.097 76.2411 355.097C76.0907 355.097 75.9603 354.977 75.9503 354.826C75.9403 354.706 74.9376 342.824 72.491 338.453C71.8794 337.35 71.5986 337.42 71.5886 337.42C71.0271 337.58 70.7263 340.689 70.8065 343.496C70.8065 343.657 70.6862 343.787 70.5258 343.807C70.3653 343.827 70.225 343.707 70.2049 343.546C70.1949 343.436 68.7711 332.005 64.3592 330.551C63.7276 330.341 63.2964 330.381 63.0558 330.652C61.652 332.266 65.3318 340.679 66.876 343.777C66.9462 343.917 66.896 344.078 66.7657 344.168C66.6353 344.248 66.4649 344.218 66.3746 344.098C65.5324 343.045 63.0558 340.418 61.7422 340.919C61.5016 341.009 61.3512 341.18 61.271 341.451C60.4989 344.138 67.2069 353.874 69.854 357.403C69.9442 357.524 69.9342 357.684 69.8339 357.794C69.7336 357.905 69.5732 357.915 69.4429 357.835C68.3199 357.052 66.4348 356.03 65.3619 356.03Z" fill="black"/>
<path d="M79.8808 381.117C79.8006 381.117 79.7204 381.087 79.6703 381.026L79.6602 381.016C79.6201 380.976 79.5901 380.916 79.5901 380.856C79.5901 380.836 79.1088 378.179 77.7652 372.895C77.7652 372.885 77.7551 372.875 77.7551 372.865L77.4744 371.792C77.2738 371.04 77.0633 370.248 76.8427 369.405C76.8327 369.375 76.8327 369.355 76.8327 369.325C75.9904 366.267 75.0379 362.968 74.0051 359.599C73.604 358.306 73.1829 356.952 72.7417 355.558C72.6715 355.318 72.5913 355.087 72.5111 354.856L72.3406 354.325C68.7209 343.215 64.9508 334.512 63.0156 330.3C62.9454 330.15 63.0156 329.97 63.166 329.899C63.3164 329.829 63.4969 329.899 63.5671 330.05C65.5023 334.261 69.2925 342.995 72.9122 354.134L73.0826 354.666C73.1628 354.896 73.233 355.137 73.3132 355.378C73.7644 356.771 74.1856 358.125 74.5866 359.419C75.6194 362.798 76.572 366.096 77.4343 369.235C77.4443 369.255 77.4443 369.285 77.4443 369.315C77.6649 370.087 77.8755 370.889 78.066 371.641L78.3567 372.734C78.3668 372.764 78.3668 372.784 78.3668 372.814C79.57 377.537 80.1315 380.375 80.1917 380.746C80.2217 380.856 80.1917 380.966 80.1014 381.047C80.0212 381.087 79.951 381.117 79.8808 381.117Z" fill="black"/>
<path d="M77.1234 369.616C77.1134 369.616 77.1134 369.616 77.1134 369.616C76.953 369.606 76.8326 369.486 76.8326 369.325V369.315L78.8681 348.459C78.8881 348.299 79.0285 348.169 79.199 348.189C79.3594 348.209 79.4797 348.349 79.4697 348.519L77.4343 369.345C77.4042 369.496 77.2738 369.616 77.1234 369.616Z" fill="black"/>
<path d="M72.6113 354.525C72.4508 354.525 72.3205 354.395 72.3105 354.235L71.5986 337.239C71.5885 337.079 71.7189 336.938 71.8893 336.928C72.0397 336.918 72.1901 337.049 72.2002 337.219L72.9121 354.215C72.9221 354.375 72.7918 354.515 72.6213 354.525C72.6213 354.525 72.6213 354.525 72.6113 354.525Z" fill="black"/>
<path d="M74.2858 359.809C74.1956 359.809 74.1053 359.769 74.0452 359.689L60.7896 341.4C60.6894 341.27 60.7194 341.079 60.8598 340.979C60.9902 340.879 61.1807 340.909 61.2809 341.049L74.5265 359.328C74.6267 359.458 74.5966 359.649 74.4563 359.749C74.4061 359.789 74.346 359.809 74.2858 359.809Z" fill="black"/>
<path d="M78.0458 373.105C78.0357 373.105 78.0257 373.105 78.0157 373.105C77.8553 373.095 77.7249 372.945 77.745 372.785L79.8205 349.171C79.8306 349.011 79.981 348.87 80.1414 348.901C80.3018 348.911 80.4322 349.061 80.4121 349.221L78.3366 372.835C78.3265 372.985 78.1962 373.105 78.0458 373.105Z" fill="black"/>
<path d="M78.0459 373.105C77.9356 373.105 77.8353 373.045 77.7852 372.955L64.0684 356.611C63.9581 356.481 63.9782 356.29 64.1085 356.19C64.2389 356.079 64.4294 356.1 64.5297 356.23L78.2765 372.614C78.3266 372.664 78.3467 372.734 78.3467 372.804C78.3467 372.965 78.2163 373.105 78.0459 373.105Z" fill="black"/>
<path d="M68.5081 378.629H89.8193L88.1465 396.27L88.1462 396.274L87.9661 398.316L87.9658 398.319L87.0463 407.954L71.2813 408.096L68.5081 378.629Z" fill="#FEC93B" stroke="black"/>
</g>
<defs>
<filter id="filter0_d" x="-4" y="0" width="367" height="417" filterUnits="userSpaceOnUse" color-interpolation-filters="sRGB">
<feFlood flood-opacity="0" result="BackgroundImageFix"/>
<feColorMatrix in="SourceAlpha" type="matrix" values="0 0 0 0 0 0 0 0 0 0 0 0 0 0 0 0 0 0 127 0" result="hardAlpha"/>
<feOffset dy="4"/>
<feGaussianBlur stdDeviation="2"/>
<feComposite in2="hardAlpha" operator="out"/>
<feColorMatrix type="matrix" values="0 0 0 0 0 0 0 0 0 0 0 0 0 0 0 0 0 0 0.25 0"/>
<feBlend mode="normal" in2="BackgroundImageFix" result="effect1_dropShadow"/>
<feBlend mode="normal" in="SourceGraphic" in2="effect1_dropShadow" result="shape"/>
</filter>
</defs>
</svg>
