<svg width="303" height="281" viewBox="0 0 303 281" fill="none" xmlns="http://www.w3.org/2000/svg">
<path d="M283.319 179.873C269.482 197.39 254.372 208.51 249.559 204.72C244.746 200.919 252.065 183.643 265.893 166.116C279.73 148.599 299.653 141.27 299.653 141.27C299.653 141.27 297.156 162.356 283.319 179.873Z" fill="#D1F3EF"/>
<path d="M249.569 205.091C249.489 205.091 249.408 205.061 249.338 205.011C249.178 204.88 249.148 204.65 249.278 204.479L299.372 141.039C299.503 140.879 299.733 140.849 299.904 140.979C300.064 141.109 300.094 141.34 299.964 141.51L249.86 204.95C249.779 205.041 249.679 205.091 249.569 205.091Z" fill="white"/>
<path d="M282.577 163.279C282.407 163.279 282.246 163.159 282.216 162.988L279.89 152.38C279.85 152.179 279.97 151.979 280.171 151.929C280.381 151.879 280.572 152.009 280.622 152.209L282.948 162.818C282.988 163.018 282.868 163.219 282.667 163.269C282.637 163.279 282.607 163.279 282.577 163.279Z" fill="white"/>
<path d="M280.081 166.448C279.92 166.448 279.77 166.348 279.72 166.187L276.361 155.198C276.3 154.997 276.411 154.787 276.611 154.726C276.812 154.666 277.022 154.776 277.083 154.977L280.442 165.966C280.502 166.167 280.391 166.378 280.191 166.438C280.151 166.448 280.111 166.448 280.081 166.448Z" fill="white"/>
<path d="M284.773 178.349C284.743 178.349 284.713 178.349 284.683 178.339L273.012 175.271C272.811 175.221 272.691 175.01 272.741 174.809C272.791 174.609 272.992 174.489 273.202 174.539L284.873 177.607C285.074 177.657 285.194 177.868 285.144 178.068C285.094 178.239 284.934 178.349 284.773 178.349Z" fill="white"/>
<path d="M281.555 182.44C281.514 182.44 281.474 182.43 281.424 182.42L270.435 178.47C270.244 178.399 270.144 178.189 270.214 177.988C270.284 177.798 270.495 177.687 270.696 177.768L281.685 181.718C281.875 181.788 281.976 181.999 281.906 182.2C281.855 182.34 281.715 182.44 281.555 182.44Z" fill="white"/>
<path d="M261.461 190.021C261.31 190.021 261.16 189.921 261.11 189.77L257.039 178.229C256.969 178.039 257.069 177.818 257.27 177.748C257.47 177.678 257.681 177.778 257.751 177.979L261.822 189.519C261.892 189.71 261.792 189.931 261.591 190.001C261.551 190.011 261.501 190.021 261.461 190.021Z" fill="white"/>
<path d="M295.211 158.666C295.171 158.666 295.131 158.656 295.091 158.646L287.962 156.29C287.761 156.23 287.661 156.009 287.721 155.819C287.791 155.618 288.002 155.518 288.192 155.578L295.321 157.934C295.522 157.994 295.622 158.215 295.562 158.405C295.512 158.566 295.371 158.666 295.211 158.666Z" fill="white"/>
<path d="M228.59 39.9698C228.59 39.9698 183.402 14.7085 131.468 33.8506C79.533 52.9927 46.5835 103.123 18.7334 142.898C-9.11679 182.751 -4.88043 228.802 27.7553 255.004C60.391 281.207 89.9671 255.789 140.803 262.928C191.64 270.067 204.035 279.638 250.87 258.221C297.706 236.804 316.848 170.591 292.214 115.048C267.659 59.5041 228.59 39.9698 228.59 39.9698Z" fill="#E9FAF8"/>
<path d="M248.2 43.7349C250.222 45.2839 249.973 49.8168 249.214 51.9392C249.144 52.1191 247.78 54.9041 247.744 54.8208L247.684 54.7974C247.666 55.5507 247.589 56.2806 247.548 57.0938C247.429 58.637 247.241 60.3601 246.958 62.323C246.64 64.2026 246.31 66.2855 245.695 68.3948C245.139 70.5274 244.356 72.7098 243.347 74.9419L243.324 75.0018C243.821 74.4358 245.279 73.0008 245.386 72.9043C247.108 71.503 251.373 69.7814 253.465 71.1504C255.003 72.1655 255.104 74.209 254.016 75.581C252.928 76.953 250.707 77.3304 249.058 77.3085C247.144 77.2529 243.447 75.3953 243.17 75.2183C242.148 77.3071 240.945 79.3256 239.623 81.2974C238.832 82.4398 238.04 83.5822 237.273 84.6646C237.723 84.2184 238.15 83.8323 238.174 83.7723C239.895 82.371 244.16 80.6494 246.252 82.0185C247.791 83.0336 247.892 85.077 246.804 86.449C245.715 87.821 243.495 88.1984 241.845 88.1765C240.135 88.1312 236.99 86.6275 236.114 86.2165C235.807 86.6495 235.5 87.0825 235.133 87.492C233.584 89.5135 232.035 91.535 230.606 93.6033C230.121 94.3127 229.637 95.0221 229.13 95.7915C229.557 95.4053 229.901 95.0557 229.924 94.9958C231.646 93.5945 235.911 91.8728 238.002 93.2419C239.541 94.257 239.642 96.3004 238.554 97.6725C237.466 99.0445 235.245 99.4219 233.595 99.4C231.969 99.3181 229.04 97.968 228.044 97.5102C227.537 98.2796 227.113 99.0124 226.688 99.7452C226.418 100.262 226.087 100.755 225.877 101.294C225.606 101.811 225.395 102.35 225.125 102.867C224.667 103.863 224.186 104.919 223.788 105.938C223.507 106.658 223.25 107.318 222.932 107.954C223.416 107.245 224.445 105.849 224.551 105.753C225.546 104.62 227.651 103.3 229.595 102.745C229.725 102.589 229.915 102.456 230.105 102.323C231.483 101.271 233.553 101.457 234.534 103.014C235.832 105.179 233.99 109.367 232.498 111.065C232.392 111.162 231.324 112.127 230.66 112.766C231.124 112.463 231.587 112.161 232.051 111.858C232.978 111.252 233.966 110.67 234.953 110.088C235.477 109.809 235.94 109.506 236.464 109.226C236.987 108.947 237.511 108.668 238.095 108.412C239.369 107.803 240.703 107.218 242.013 106.693C241.504 105.872 239.674 102.947 239.433 101.263C239.192 99.5798 239.341 97.4267 240.549 96.1015C241.794 94.8597 243.837 94.7587 245.032 96.1234C246.627 98.0586 245.468 102.444 244.229 104.379C244.183 104.499 243.141 105.751 242.597 106.437C243.407 106.131 244.218 105.826 245.028 105.52C247.436 104.663 249.82 103.866 252.264 103.092C252.991 102.823 253.778 102.577 254.481 102.368C254.312 102.094 252.059 98.6582 251.768 96.7479C251.527 95.0643 251.676 92.9112 252.884 91.586C254.129 90.3442 256.172 90.2432 257.367 91.6079C258.962 93.5431 257.803 97.9283 256.564 99.8635C256.434 100.02 255.039 101.825 254.588 102.271C256.186 101.72 257.843 101.192 259.404 100.557C261.608 99.6894 263.632 98.7517 265.583 97.6474C265.487 97.5406 263.161 93.938 262.87 92.0277C262.629 90.3441 262.778 88.191 263.986 86.8657C265.231 85.6239 267.274 85.523 268.469 86.8877C270.064 88.8228 268.905 93.208 267.666 95.1432C267.62 95.2632 266.448 96.6718 265.927 97.2978C265.964 97.3812 265.987 97.3212 266.024 97.4046C268.082 96.2037 269.923 94.8492 271.645 93.4479C272.582 92.639 273.52 91.8301 274.338 90.9744C273.818 90.3572 271.559 87.4713 271.114 85.7774C270.706 84.167 270.592 81.9802 271.703 80.5482C272.792 79.1762 274.785 78.8485 276.11 80.0567C277.918 81.7988 277.203 86.2879 276.264 88.3401C276.217 88.46 275.533 89.5058 275.025 90.2752C275.392 89.8657 275.796 89.5395 276.163 89.1299C277.455 87.7681 278.603 86.4195 279.621 85.2274C280.165 84.5414 280.686 83.9153 281.123 83.3258C280.984 82.4424 280.285 78.9216 280.654 77.2688C281.022 75.6159 281.938 73.6237 283.545 72.8689C285.129 72.1741 287.095 72.803 287.683 74.4837C288.481 76.8679 285.81 80.5247 283.968 81.8792C283.778 82.0123 281.173 83.5526 281.136 83.4692L281.16 83.4092C280.722 83.9987 280.285 84.5882 279.741 85.2742C278.783 86.4897 277.695 87.8617 276.38 89.2835C275.065 90.7053 273.643 92.2236 271.981 93.6483C270.32 95.073 268.491 96.5708 266.433 97.7717L266.35 97.8083C267.053 97.5991 269.071 97.2115 269.274 97.2217C271.507 96.9877 275.986 97.9062 277.01 100.241C277.742 101.908 276.693 103.71 275.036 104.238C273.318 104.743 271.303 103.887 269.944 102.942C268.368 101.844 266.306 98.2749 266.196 98.0248C264.222 99.1891 262.09 100.223 259.863 101.151C258.612 101.699 257.325 102.164 256.014 102.689C256.611 102.577 257.208 102.464 257.291 102.428C259.525 102.194 264.004 103.112 265.028 105.447C265.759 107.114 264.71 108.916 263.053 109.444C261.336 109.949 259.32 109.093 257.961 108.148C256.566 107.12 254.759 104.135 254.31 103.337C253.834 103.497 253.333 103.716 252.796 103.852C250.389 104.709 247.981 105.567 245.634 106.447C244.823 106.753 243.989 107.119 243.239 107.448C243.776 107.312 244.289 107.236 244.349 107.259C246.583 107.025 251.062 107.944 252.086 110.278C252.817 111.946 251.768 113.748 250.111 114.276C248.394 114.78 246.378 113.925 245.019 112.98C243.66 112.035 241.987 109.24 241.441 108.336C240.608 108.701 239.834 109.09 239.06 109.479C238.537 109.759 238.036 109.978 237.489 110.318C236.966 110.597 236.502 110.9 235.978 111.179C235.051 111.785 234.064 112.367 233.196 112.996C232.542 113.432 231.972 113.831 231.401 114.23C232.212 113.925 233.832 113.313 233.976 113.3C236.183 112.779 240.739 112.968 242.037 115.133C243.018 116.691 242.269 118.61 240.662 119.364C239.054 120.119 236.922 119.563 235.409 118.835C233.74 117.976 231.264 114.937 230.938 114.533C229.987 115.199 229.013 115.924 228.145 116.553C226.624 117.618 225.306 118.693 224.035 119.648L222.89 118.51C224.161 117.555 225.622 116.467 227.25 115.306C228.224 114.58 229.319 113.901 230.436 113.163C230.266 112.889 229.535 111.222 229.067 109.588C227.167 109.676 223.655 108.581 223.152 108.454C222.707 109.594 222.286 110.673 221.888 111.693C221.279 113.252 220.754 114.775 220.299 116.117L219.034 114.933C219.479 113.793 219.91 112.51 220.485 111.214C220.93 110.075 221.398 108.876 221.949 107.64C221.553 107.416 218.176 105.268 217.194 103.711C216.286 102.32 215.491 100.282 216.087 98.5795C216.659 96.9369 218.48 95.9891 220.112 96.7643C222.381 97.8569 223.136 102.298 222.856 104.607C222.809 104.727 222.474 106.117 222.243 107.063C222.431 106.583 222.701 106.067 222.888 105.587C223.346 104.591 223.804 103.595 224.309 102.479C224.579 101.963 224.85 101.446 225.12 100.93C225.391 100.414 225.722 99.9208 226.016 99.3445C226.71 98.0953 227.502 96.9529 228.316 95.7506C227.44 95.3395 224.272 93.8959 223.174 92.6379C222.075 91.38 220.947 89.4887 221.279 87.7525C221.611 86.0163 223.263 84.7949 224.989 85.3302C227.398 86.063 228.833 90.3546 228.9 92.6613C228.913 92.8046 228.771 94.4078 228.684 95.341C229.168 94.6316 229.652 93.9221 230.196 93.2361C231.685 91.1912 233.294 89.1932 234.903 87.1951C235.424 86.569 235.861 85.9796 236.322 85.3301C236.022 85.2131 232.254 83.5354 230.999 82.1473C229.9 80.8894 228.773 78.9981 229.105 77.2618C229.437 75.5256 231.088 74.3042 232.814 74.8396C235.223 75.5724 236.658 79.864 236.725 82.1707C236.739 82.314 236.519 84.647 236.429 85.2336C237.517 83.8615 238.522 82.5261 239.49 81.1072C240.849 79.2189 242.028 77.2603 243.063 75.3149C242.943 75.2681 238.972 73.5801 237.681 72.1087C236.582 70.8507 235.454 68.9594 235.786 67.2232C236.118 65.487 237.77 64.2656 239.496 64.8009C241.905 65.5337 243.34 69.8253 243.407 72.132C243.42 72.2753 243.268 74.0818 243.144 74.9316C243.204 74.955 243.204 74.955 243.264 74.9784C244.37 72.8531 245.092 70.6473 245.768 68.5615C246.116 67.3153 246.417 66.189 246.659 65.0393C245.916 64.8184 242.427 63.6644 241.078 62.5162C239.79 61.3913 238.532 59.6566 238.684 57.8501C238.813 56.1036 240.331 54.6921 242.127 55.0475C244.653 55.4805 246.482 59.6492 246.799 61.8462C246.812 61.9895 246.811 63.2328 246.866 64.1529C246.994 63.6497 247.084 63.0632 247.188 62.62C247.507 60.7404 247.696 59.0173 247.897 57.4376C247.962 56.5643 248.063 55.7744 248.08 55.0212C247.441 54.3571 244.957 51.8676 244.346 50.2469C243.711 48.6862 243.394 46.4892 244.325 44.987C244.801 43.2376 246.768 42.6232 248.2 43.7349Z" fill="#ADEAD6"/>
<path d="M263.765 112.309C260.117 110.299 258.404 112.011 257.064 110.299C255.724 108.661 260.713 104.268 250.735 99.949C250.735 99.949 250.065 90.5673 236.365 90.2694C222.664 89.9716 226.387 99.6512 222.664 101.959C219.016 104.268 217.973 100.619 214.325 102.927C210.676 105.236 212.314 109.927 209.336 110.597C206.358 111.267 202.337 107.618 198.689 109.926C195.04 112.235 195.04 114.245 193.327 114.245C191.689 114.245 188.339 112.905 186.328 114.245C184.318 115.585 182.01 117.223 182.01 117.223H266.446C266.446 117.298 267.414 114.32 263.765 112.309Z" fill="white"/>
<path opacity="0.5" d="M263.765 112.309C260.117 110.299 258.404 112.011 257.064 110.299C255.724 108.661 260.713 104.268 250.735 99.949C250.735 99.949 250.065 90.5673 236.365 90.2694C222.664 89.9716 226.387 99.6512 222.664 101.959C219.016 104.268 217.973 100.619 214.325 102.927C210.676 105.236 212.314 109.927 209.336 110.597C206.358 111.267 202.337 107.618 198.689 109.926C195.04 112.235 195.04 114.245 193.327 114.245C191.689 114.245 188.339 112.905 186.328 114.245C184.318 115.585 182.01 117.223 182.01 117.223H266.446C266.446 117.298 267.414 114.32 263.765 112.309Z" fill="white"/>
<path d="M135.92 69.644C133.761 68.4527 132.718 69.4207 131.974 68.4527C131.154 67.4847 134.133 64.8787 128.251 62.3471C128.251 62.3471 127.878 56.8371 119.762 56.6138C111.646 56.3904 113.806 62.1237 111.646 63.5384C109.487 64.9531 108.891 62.7194 106.732 64.1341C104.573 65.5488 105.541 68.3038 103.754 68.6761C101.967 69.0484 99.584 66.8891 97.4247 68.3038C95.2654 69.7185 95.2654 70.9098 94.223 70.9098C93.255 70.9098 91.2447 70.0908 90.0533 70.9098C88.862 71.7289 87.4473 72.6968 87.4473 72.6968H137.483C137.483 72.6224 138.079 70.8354 135.92 69.644Z" fill="white"/>
<path opacity="0.5" d="M135.92 69.644C133.761 68.4527 132.718 69.4207 131.974 68.4527C131.154 67.4847 134.133 64.8787 128.251 62.3471C128.251 62.3471 127.878 56.8371 119.762 56.6138C111.646 56.3904 113.806 62.1237 111.646 63.5384C109.487 64.9531 108.891 62.7194 106.732 64.1341C104.573 65.5488 105.541 68.3038 103.754 68.6761C101.967 69.0484 99.584 66.8891 97.4247 68.3038C95.2654 69.7185 95.2654 70.9098 94.223 70.9098C93.255 70.9098 91.2447 70.0908 90.0533 70.9098C88.862 71.7289 87.4473 72.6968 87.4473 72.6968H137.483C137.483 72.6224 138.079 70.8354 135.92 69.644Z" fill="white"/>
<path d="M166.448 234.569C160.194 231.144 157.364 233.974 155.056 231.144C152.748 228.315 161.31 220.944 144.259 213.498C144.259 213.498 143.143 197.564 119.837 196.968C96.5314 196.372 102.786 212.902 96.5314 216.848C90.2769 220.795 88.5643 214.54 82.3098 218.561C76.0553 222.507 78.8847 230.474 73.7471 231.666C68.6094 232.782 61.8337 226.528 55.5792 230.549C49.3247 234.495 49.3247 237.92 46.4952 237.92C43.6658 237.92 37.9325 235.612 34.5819 237.92C31.1568 240.228 27.2104 243.058 27.2104 243.058H171.064C170.99 243.132 172.703 237.995 166.448 234.569Z" fill="white"/>
<path opacity="0.5" d="M166.448 234.569C160.194 231.144 157.364 233.974 155.056 231.144C152.748 228.315 161.31 220.944 144.259 213.498C144.259 213.498 143.143 197.564 119.837 196.968C96.5314 196.372 102.786 212.902 96.5314 216.848C90.2769 220.795 88.5643 214.54 82.3098 218.561C76.0553 222.507 78.8847 230.474 73.7471 231.666C68.6094 232.782 61.8337 226.528 55.5792 230.549C49.3247 234.495 49.3247 237.92 46.4952 237.92C43.6658 237.92 37.9325 235.612 34.5819 237.92C31.1568 240.228 27.2104 243.058 27.2104 243.058H171.064C170.99 243.132 172.703 237.995 166.448 234.569Z" fill="white"/>
<path d="M54.2519 208.572C54.2519 208.572 50.6035 205.37 46.7316 204.253C42.9342 203.137 38.5412 203.137 34.7438 202.094C30.9464 201.052 28.7126 200.158 28.7126 200.158L28.4893 203.583L54.0286 210.508L71.5263 205.668L73.2389 202.094C73.2389 202.094 71.0796 203.211 67.2822 204.105C63.4848 204.998 59.2407 204.998 56.858 205.892C54.5498 206.859 54.2519 208.572 54.2519 208.572Z" fill="white" stroke="#263238" stroke-width="0.744586" stroke-miterlimit="10" stroke-linecap="round" stroke-linejoin="round"/>
<path d="M28.1914 200.978C28.1914 200.978 34.6693 203.137 43.5299 204.179C49.8588 204.998 54.3264 208.572 54.3264 208.572C54.3264 208.572 57.9004 206.041 62.8891 205.892C67.8778 205.743 73.6856 203.733 73.6856 203.733L72.5687 205.966L53.8052 209.615L27.8936 202.839L28.1914 200.978Z" fill="white" stroke="#263238" stroke-width="0.744586" stroke-miterlimit="10" stroke-linecap="round" stroke-linejoin="round"/>
<path d="M27.4468 201.722C27.4468 201.722 33.4035 204.104 39.8069 204.626C46.7316 205.147 54.0285 208.572 54.0285 208.572C54.0285 208.572 58.3471 206.264 63.1124 206.264C67.8778 206.264 72.2709 205.221 73.6111 204.849C73.6111 204.849 73.2388 205.891 73.909 207.008L53.8796 211.252L27.3723 203.509L27.4468 201.722Z" fill="white" stroke="#263238" stroke-width="0.744586" stroke-miterlimit="10" stroke-linecap="round" stroke-linejoin="round"/>
<path d="M27.1489 203.211L53.135 209.763V210.657L55.2943 210.731V209.689L74.5046 206.636C74.5046 206.636 75.3236 206.413 74.6535 207.381C73.9089 208.349 61.5488 219.145 61.5488 219.145L47.8484 220.56L27 215.943L27.1489 203.211Z" fill="#FFBE80"/>
<path opacity="0.3" d="M53.135 210.582V209.689L27.1489 203.211L27 215.943L47.8484 220.56L48.2207 220.485L53.7306 210.582H53.135Z" fill="#FFE9D5"/>
<path d="M27.1489 203.211L53.135 209.763V210.657L55.2943 210.731V209.689L74.5046 206.636C74.5046 206.636 75.3236 206.413 74.6535 207.381C73.9089 208.349 61.5488 219.145 61.5488 219.145L47.8484 220.56L27 215.943L27.1489 203.211Z" stroke="#263238" stroke-width="0.744586" stroke-miterlimit="10" stroke-linecap="round" stroke-linejoin="round"/>
<path d="M53.1349 210.582L47.4016 220.559H48.5185L55.3687 210.656L53.1349 210.582Z" fill="#FFA856" stroke="#263238" stroke-width="0.744586" stroke-miterlimit="10" stroke-linecap="round" stroke-linejoin="round"/>
<path d="M52.2415 271.118C52.2415 271.118 50.9757 273.724 49.3376 274.915C47.6995 276.106 45.5402 276.702 43.8277 277.819C42.1151 279.01 41.2216 279.829 41.2216 279.829L40.5515 277.521L51.8692 269.777L61.1766 270.894L62.5913 273.054C62.5913 273.054 61.3999 272.607 59.3895 272.458C57.3792 272.309 55.2943 272.83 53.9541 272.532C52.6883 272.309 52.2415 271.118 52.2415 271.118Z" fill="white" stroke="#263238" stroke-width="0.744586" stroke-miterlimit="10" stroke-linecap="round" stroke-linejoin="round"/>
<path d="M40.7746 279.457C40.7746 279.457 43.6041 277.223 47.6993 275.436C50.6776 274.17 52.2413 271.192 52.2413 271.192C52.2413 271.192 54.4006 272.457 56.8577 271.936C59.3148 271.489 62.5165 272.085 62.5165 272.085L61.623 270.67L51.7945 270.521L40.2534 278.265L40.7746 279.457Z" fill="white" stroke="#263238" stroke-width="0.744586" stroke-miterlimit="10" stroke-linecap="round" stroke-linejoin="round"/>
<path d="M40.3279 279.01C40.3279 279.01 42.785 276.702 45.8378 275.585C49.114 274.394 52.0923 271.192 52.0923 271.192C52.0923 271.192 54.6239 272.235 56.9321 271.639C59.2403 271.043 61.5486 271.192 62.2931 271.341C62.2931 271.341 61.9209 270.671 62.0698 269.852L51.5711 269.405L39.8811 277.894L40.3279 279.01Z" fill="white" stroke="#263238" stroke-width="0.744586" stroke-miterlimit="10" stroke-linecap="round" stroke-linejoin="round"/>
<path d="M39.9559 278.117L51.497 270.522L51.3481 269.926L52.3905 269.628L52.5394 270.298L62.4424 270.001C62.4424 270.001 62.8892 270.001 62.368 269.479C61.8468 268.884 54.0286 263.15 54.0286 263.15L47.104 263.895L37.7222 269.554L39.9559 278.117Z" fill="#A3E7DF"/>
<path opacity="0.3" d="M51.3478 269.926L51.4968 270.521L39.9557 278.116L37.7219 269.479L47.1037 263.895H47.3271L51.6457 269.851L51.3478 269.926Z" fill="#A3E7DF"/>
<path d="M39.9559 278.117L51.497 270.522L51.3481 269.926L52.3905 269.628L52.5394 270.298L62.4424 270.001C62.4424 270.001 62.8892 270.001 62.368 269.479C61.8468 268.884 54.0286 263.15 54.0286 263.15L47.104 263.895L37.7222 269.554L39.9559 278.117Z" stroke="#263238" stroke-width="0.744586" stroke-miterlimit="10" stroke-linecap="round" stroke-linejoin="round"/>
<path d="M51.3479 269.926L46.8804 263.969L47.4016 263.746L52.3903 269.628L51.3479 269.926Z" fill="#F57903" stroke="#263238" stroke-width="0.744586" stroke-miterlimit="10" stroke-linecap="round" stroke-linejoin="round"/>
<path d="M225.432 191L246.504 212.295L201.605 224.953L198.627 203.584L225.432 191Z" fill="#C6FF00" stroke="#263238" stroke-width="0.744586" stroke-miterlimit="10" stroke-linecap="round" stroke-linejoin="round"/>
<path d="M244.047 215.348L197.659 229.048L201.382 204.477L224.836 194.053L244.047 215.348Z" fill="white" stroke="#263238" stroke-width="0.744586" stroke-miterlimit="10" stroke-linecap="round" stroke-linejoin="round"/>
<path d="M225.879 195.318L243.153 217.656L199.595 230.314L204.658 203.509L225.879 195.318Z" fill="white"/>
<path opacity="0.17" d="M225.879 195.318L243.153 217.656L199.595 230.314L204.658 203.509L225.879 195.318Z" fill="black"/>
<path d="M225.879 195.318L243.153 217.656L199.595 230.314L204.658 203.509L225.879 195.318Z" stroke="#263238" stroke-width="0.744586" stroke-miterlimit="10" stroke-linecap="round" stroke-linejoin="round"/>
<path d="M225.879 195.318L217.986 222.868L187.086 232.25L198.925 206.934L225.879 195.318Z" fill="white" stroke="#263238" stroke-width="0.744586" stroke-miterlimit="10" stroke-linecap="round" stroke-linejoin="round"/>
<path d="M215.752 220.635L185.969 230.687L185.075 226.517L212.7 216.614L215.752 220.635Z" fill="white" stroke="#263238" stroke-width="0.744586" stroke-miterlimit="10" stroke-linecap="round" stroke-linejoin="round"/>
<path d="M225.134 191.596L244.94 212.221L244.047 215.348L225.879 195.319L215.753 220.635L212.7 216.614L225.134 191.596Z" fill="white" stroke="#263238" stroke-width="0.744586" stroke-miterlimit="10" stroke-linecap="round" stroke-linejoin="round"/>
<path d="M225.432 191L212.849 217.358L183.661 227.261L198.627 203.584L225.432 191Z" fill="#1AC3AF"/>
<path opacity="0.3" d="M225.432 191L212.849 217.358L183.661 227.261L198.627 203.584L225.432 191Z" fill="#1AC3AF"/>
<path d="M225.432 191L212.849 217.358L183.661 227.261L198.627 203.584L225.432 191Z" stroke="#263238" stroke-width="0.744586" stroke-miterlimit="10" stroke-linecap="round" stroke-linejoin="round"/>
<path d="M197.436 206.04L220.89 195.318" stroke="#263238" stroke-width="0.744586" stroke-miterlimit="10" stroke-linecap="round" stroke-linejoin="round"/>
<path d="M127.743 267.543L149.336 241.036L104.884 238.951L101.31 261.214L127.743 267.543Z" fill="#C6FF00" stroke="#263238" stroke-width="0.744586" stroke-miterlimit="10" stroke-linecap="round" stroke-linejoin="round"/>
<path d="M146.953 238.505L101.012 235.75L104.139 259.651L127.221 264.64L146.953 238.505Z" fill="white" stroke="#263238" stroke-width="0.744586" stroke-miterlimit="10" stroke-linecap="round" stroke-linejoin="round"/>
<path d="M128.338 263.076L146.134 236.346L103.022 233.963L107.341 259.875L128.338 263.076Z" fill="white"/>
<path opacity="0.17" d="M128.338 263.076L146.134 236.346L103.022 233.963L107.341 259.875L128.338 263.076Z" fill="#FFBE80"/>
<path d="M128.338 263.076L146.134 236.346L103.022 233.963L107.341 259.875L128.338 263.076Z" stroke="#263238" stroke-width="0.744586" stroke-miterlimit="10" stroke-linecap="round" stroke-linejoin="round"/>
<path d="M128.338 263.077L121.19 237.165L90.5876 235.08L101.756 257.79L128.338 263.077Z" fill="white" stroke="#263238" stroke-width="0.744586" stroke-miterlimit="10" stroke-linecap="round" stroke-linejoin="round"/>
<path d="M118.882 239.92L89.4706 236.867L88.5027 241.335L115.755 244.76L118.882 239.92Z" fill="white" stroke="#263238" stroke-width="0.744586" stroke-miterlimit="10" stroke-linecap="round" stroke-linejoin="round"/>
<path d="M127.445 267.023L147.772 241.483L146.953 238.505L128.338 263.076L118.882 239.92L115.755 244.759L127.445 267.023Z" fill="white" stroke="#263238" stroke-width="0.744586" stroke-miterlimit="10" stroke-linecap="round" stroke-linejoin="round"/>
<path d="M127.743 267.544L115.904 243.94L87.0881 240.888L101.31 261.215L127.743 267.544Z" fill="#FEC93B"/>
<path d="M127.743 267.544L115.904 243.94L87.0881 240.888L101.31 261.215L127.743 267.544Z" stroke="#263238" stroke-width="0.744586" stroke-miterlimit="10" stroke-linecap="round" stroke-linejoin="round"/>
<path d="M99.1504 258.236L122.605 263.225" stroke="#263238" stroke-width="0.744586" stroke-miterlimit="10" stroke-linecap="round" stroke-linejoin="round"/>
<path d="M152.301 91.088C152.301 91.088 142.547 95.7789 138.675 101.512C134.803 107.171 135.92 117.744 141.951 121.169C147.982 124.594 168.905 137.103 183.722 135.316C198.54 133.529 196.231 118.414 188.786 112.383C181.34 106.352 171.213 100.991 171.213 100.991C171.213 100.991 170.692 97.7149 170.096 96.598C169.352 95.4811 161.906 88.1842 152.301 91.088Z" fill="#FEDF89" stroke="#263238" stroke-width="0.744586" stroke-miterlimit="10" stroke-linecap="round" stroke-linejoin="round"/>
<path d="M191.913 115.957C169.799 109.181 155.205 121.318 150.588 125.934C159.747 130.7 173.224 136.507 183.648 135.241C196.008 133.827 196.455 123.03 191.913 115.957Z" fill="white" stroke="#263238" stroke-width="0.744586" stroke-miterlimit="10" stroke-linecap="round" stroke-linejoin="round"/>
<path d="M176.872 114.17C176.872 114.17 189.902 124.594 185.36 134.944" stroke="#263238" stroke-width="0.744586" stroke-miterlimit="10" stroke-linecap="round" stroke-linejoin="round"/>
<path d="M134.133 86.5463L128.921 110.82H133.091L143.44 91.6839C143.44 91.7584 141.43 85.5783 134.133 86.5463Z" fill="white" stroke="#263238" stroke-width="0.744586" stroke-miterlimit="10" stroke-linecap="round" stroke-linejoin="round"/>
<path d="M199.657 74.7814C195.412 69.5693 189.754 64.7295 179.404 63.9104C179.404 63.9104 170.618 63.6126 158.63 68.7503C149.248 72.6966 139.271 81.4082 134.133 86.6203C138.749 87.8117 141.504 89.6731 143.44 91.758C145.451 89.822 147.238 88.1095 148.578 87.0671C152.971 83.4931 159.449 80.4403 159.449 80.4403C159.449 80.4403 152.45 90.0454 151.035 92.577C149.695 95.0341 150.588 99.0549 157.885 100.172C165.182 101.289 166.969 99.874 169.873 98.2359C172.777 96.5978 176.351 95.0341 177.691 95.0341C179.032 95.0341 181.787 95.332 185.361 92.8004C188.935 90.3433 190.424 83.2697 191.69 82.7485C192.658 82.3762 200.178 92.2047 205.986 99.5017C206.135 99.4272 206.283 99.3527 206.507 99.2038C209.038 97.8636 211.049 95.2575 212.389 92.8748C207.698 86.0246 202.412 78.132 199.657 74.7814Z" fill="#F57903" stroke="#263238" stroke-width="0.744586" stroke-miterlimit="10" stroke-linecap="round" stroke-linejoin="round"/>
<path d="M175.011 68.5273C175.011 68.5273 172.107 75.5265 177.915 78.207" stroke="#263238" stroke-width="0.744586" stroke-miterlimit="10" stroke-linecap="round" stroke-linejoin="round"/>
<path d="M159.449 80.4398L165.852 78.5039" stroke="#263238" stroke-width="0.744586" stroke-miterlimit="10" stroke-linecap="round" stroke-linejoin="round"/>
<path d="M159.374 92.6509C159.374 92.6509 163.395 96.1504 172.702 92.2041" stroke="#263238" stroke-width="0.744586" stroke-miterlimit="10" stroke-linecap="round" stroke-linejoin="round"/>
<path d="M195.933 80.0674C193.625 80.3652 191.838 82.7479 191.838 82.7479C191.838 82.7479 196.38 81.7799 199.954 81.7799" stroke="#263238" stroke-width="0.744586" stroke-miterlimit="10" stroke-linecap="round" stroke-linejoin="round"/>
<path d="M159.672 80.9614C159.672 80.9614 163.991 80.9614 168.086 80.8125" stroke="#263238" stroke-width="0.744586" stroke-miterlimit="10" stroke-linecap="round" stroke-linejoin="round"/>
<path d="M161.98 90.79C161.98 90.79 162.427 93.545 168.458 93.2472" stroke="#263238" stroke-width="0.744586" stroke-miterlimit="10" stroke-linecap="round" stroke-linejoin="round"/>
<path d="M177.915 66.2187C177.915 66.2187 176.947 71.2074 177.617 73.8135C178.287 76.4195 180.819 79.4723 182.606 76.2706C184.393 73.0689 185.361 69.4949 185.361 67.8568C185.361 66.2187 179.18 63.0914 177.915 66.2187Z" fill="white" stroke="#263238" stroke-width="0.744586" stroke-miterlimit="10" stroke-linecap="round" stroke-linejoin="round"/>
<path d="M191.838 60.0387C191.838 60.0387 195.71 59.2197 198.986 54.9755C202.262 50.7314 198.018 50.1357 196.678 46.0405C195.338 41.9453 200.178 43.2855 193.104 36.1375C186.105 28.9895 174.638 31.4466 169.277 33.8293C163.916 36.1375 164.065 44.0301 160.193 44.5513C156.321 45.0726 154.683 41.3496 149.992 41.3496C145.302 41.3496 140.387 46.3384 142.323 50.4336C144.259 54.5288 147.982 52.7418 148.205 52.0717C148.503 51.4015 146.27 52.2206 146.121 50.1357C145.972 48.0509 151.109 49.1678 152.599 51.9227C153.864 54.1565 151.556 57.3582 151.631 59.6664C151.779 64.3573 157.513 67.4101 161.236 68.0058C166.224 68.8993 172.33 68.6015 176.872 66.0699C182.456 63.0171 179.85 56.6881 183.946 55.05C188.041 53.4119 190.126 55.8691 190.126 55.8691L191.838 60.0387Z" fill="#804916" stroke="#263238" stroke-width="0.744586" stroke-miterlimit="10" stroke-linecap="round" stroke-linejoin="round"/>
<path d="M149.769 43.8811C147.684 43.0621 145.972 43.9556 145.45 44.4768L149.769 43.8811Z" fill="#804916"/>
<path d="M149.769 43.8811C147.684 43.0621 145.972 43.9556 145.45 44.4768" stroke="white" stroke-width="0.744586" stroke-miterlimit="10" stroke-linecap="round" stroke-linejoin="round"/>
<path d="M186.477 47.753C186.477 47.753 186.477 39.5625 180.744 37.9244C175.011 36.2864 168.458 43.6578 165.108 48.3487C161.831 53.0395 156.917 51.9227 153.343 47.0084C152.971 46.4872 152.599 46.0404 152.226 45.6681" fill="#804916"/>
<path d="M186.477 47.753C186.477 47.753 186.477 39.5625 180.744 37.9244C175.011 36.2864 168.458 43.6578 165.108 48.3487C161.831 53.0395 156.917 51.9227 153.343 47.0084C152.971 46.4872 152.599 46.0404 152.226 45.6681" stroke="white" stroke-width="0.744586" stroke-miterlimit="10" stroke-linecap="round" stroke-linejoin="round"/>
<path d="M153.864 63.0914C156.843 65.0273 159.076 65.5485 163.47 64.2082C167.863 62.868 167.267 55.72 171.139 51.9226C174.936 48.1252 181.786 49.4654 181.786 49.4654C181.786 49.4654 174.117 45.3702 168.086 49.7633C162.055 54.1563 162.576 61.5277 157.141 62.868" fill="#804916"/>
<path d="M153.864 63.0914C156.843 65.0273 159.076 65.5485 163.47 64.2082C167.863 62.868 167.267 55.72 171.139 51.9226C174.936 48.1252 181.786 49.4654 181.786 49.4654C181.786 49.4654 174.117 45.3702 168.086 49.7633C162.055 54.1563 162.576 61.5277 157.141 62.868" stroke="white" stroke-width="0.744586" stroke-miterlimit="10" stroke-linecap="round" stroke-linejoin="round"/>
<path d="M190.275 48.5722C190.275 48.5722 195.487 47.2319 195.189 42.541L190.275 48.5722Z" fill="#804916"/>
<path d="M190.275 48.5722C190.275 48.5722 195.487 47.2319 195.189 42.541" stroke="white" stroke-width="0.744586" stroke-miterlimit="10" stroke-linecap="round" stroke-linejoin="round"/>
<path d="M147.386 101.363C147.386 101.363 161.534 103.15 168.682 108.065" stroke="white" stroke-width="0.744586" stroke-miterlimit="10" stroke-linecap="round" stroke-linejoin="round"/>
<path d="M187.296 50.3588C187.296 50.3588 184.69 49.3909 182.308 51.848C179.999 54.3052 180.074 55.5709 178.138 57.1346C176.202 58.6237 174.713 57.8047 173.894 57.4324C173.075 56.9857 172.107 57.2835 171.809 59.2194C171.511 61.1553 174.117 62.6445 174.564 62.6445C175.011 62.6445 175.83 62.7934 175.83 62.7934C175.83 62.7934 175.83 66.2185 178.138 68.3034C180.446 70.3882 185.137 73.6644 188.339 72.9943C191.54 72.3241 192.732 65.0272 192.732 61.3043C192.732 57.5813 191.466 52.5181 190.498 50.2844C189.605 48.0506 187.296 50.3588 187.296 50.3588Z" fill="white" stroke="#263238" stroke-width="0.744586" stroke-miterlimit="10" stroke-linecap="round" stroke-linejoin="round"/>
<path d="M184.69 58.7731C184.69 59.5177 184.392 60.1878 184.094 60.1878C183.722 60.1878 183.499 59.5922 183.499 58.7731C183.499 57.9541 183.797 57.3584 184.094 57.3584C184.392 57.3584 184.69 57.9541 184.69 58.7731Z" fill="#263238"/>
<path d="M189.604 58.2516C189.604 58.9962 189.306 59.6663 189.009 59.6663C188.636 59.6663 188.413 59.0707 188.413 58.2516C188.413 57.507 188.711 56.8369 189.009 56.8369C189.306 56.9114 189.604 57.507 189.604 58.2516Z" fill="#263238"/>
<path d="M181.786 55.9433C181.786 55.9433 182.68 54.5286 184.988 55.1988" stroke="#263238" stroke-width="0.744586" stroke-miterlimit="10" stroke-linecap="round" stroke-linejoin="round"/>
<path d="M187.594 55.1986C187.594 55.1986 189.158 53.4861 190.498 55.1986" stroke="#263238" stroke-width="0.744586" stroke-miterlimit="10" stroke-linecap="round" stroke-linejoin="round"/>
<path d="M187.445 58.251C187.445 58.251 187.594 61.3038 188.488 61.3038C189.381 61.3038 189.083 62.7185 187.892 63.1652" stroke="#263238" stroke-width="0.744586" stroke-miterlimit="10" stroke-linecap="round" stroke-linejoin="round"/>
<path d="M186.7 66.2931C186.7 66.2931 183.945 67.4845 182.829 64.7295" stroke="#263238" stroke-width="0.744586" stroke-miterlimit="10" stroke-linecap="round" stroke-linejoin="round"/>
<path d="M187.371 134.2C187.371 134.2 171.735 120.499 155.503 115.809C139.345 111.118 120.656 113.351 104.424 108.958C88.2665 104.565 78.8847 98.5342 78.8847 98.5342L78.0657 113.054L186.701 142.39L261.085 121.84L268.531 106.725C268.531 106.725 259.447 111.416 243.289 115.213C227.132 119.085 208.964 119.085 198.838 122.882C188.711 126.828 187.371 134.2 187.371 134.2Z" fill="white" stroke="#263238" stroke-width="0.744586" stroke-miterlimit="10" stroke-linecap="round" stroke-linejoin="round"/>
<path d="M76.5019 101.885C76.5019 101.885 94.5953 112.83 135.473 116.702C162.353 119.234 187.371 134.274 187.371 134.274C187.371 134.274 202.486 123.552 223.855 122.733C245.225 121.914 269.648 113.426 269.648 113.426L264.957 123.031L185.137 138.667L74.7893 109.777L76.5019 101.885Z" fill="white" stroke="#263238" stroke-width="0.744586" stroke-miterlimit="10" stroke-linecap="round" stroke-linejoin="round"/>
<path d="M73.4492 105.161C73.4492 105.161 94.8933 115.734 122.294 117.819C151.631 119.978 186.477 134.274 186.477 134.274C186.477 134.274 204.869 124.371 225.196 124.371C245.523 124.371 264.138 119.978 269.945 118.34C269.945 118.34 268.307 122.733 271.286 127.424L186.18 145.518L72.928 112.533L73.4492 105.161Z" fill="white" stroke="#263238" stroke-width="0.744586" stroke-miterlimit="10" stroke-linecap="round" stroke-linejoin="round"/>
<path d="M73.9703 111.639L182.605 138.891V142.763L191.913 143.061V138.668L273.817 125.712C273.817 125.712 277.391 124.893 274.338 128.988C271.286 133.084 218.643 178.95 218.643 178.95L160.193 184.981L71.5876 165.473L72.1089 113.129C72.0344 112.161 73.0024 111.416 73.9703 111.639Z" fill="#FEDF89"/>
<path d="M182.68 142.763V138.891L72.1088 111.192L71.5132 165.547L160.193 184.981L161.757 184.832L185.137 142.837L182.68 142.763Z" fill="#FFE9B1"/>
<path d="M73.9703 111.639L182.605 138.891V142.763L191.913 143.061V138.668L273.817 125.712C273.817 125.712 277.391 124.893 274.338 128.988C271.286 133.084 218.643 178.95 218.643 178.95L160.193 184.981L71.5876 165.473L72.1089 113.129C72.0344 112.161 73.0024 111.416 73.9703 111.639Z" stroke="#263238" stroke-width="0.744586" stroke-miterlimit="10" stroke-linecap="round" stroke-linejoin="round"/>
<path d="M182.68 142.763L158.258 184.981L162.948 185.279L191.987 142.986L182.68 142.763Z" fill="#FEC93B" stroke="#263238" stroke-width="0.744586" stroke-miterlimit="10" stroke-linecap="round" stroke-linejoin="round"/>
<path d="M264.212 127.425C264.212 127.425 271.509 128.765 269.945 133.679L274.339 129.063C274.339 129.063 276.349 126.606 275.455 126.084C274.487 125.638 264.212 127.425 264.212 127.425Z" fill="#263238"/>
<path d="M84.0967 114.394C84.0967 114.394 73.8214 117.223 72.1833 124.967L72.0344 113.128C72.0344 113.128 72.3323 111.341 73.9703 111.639C75.6084 111.937 84.0967 114.394 84.0967 114.394Z" fill="#263238"/>
<path d="M71.6621 161.898L76.7997 166.813L71.5132 165.547L71.6621 161.898Z" fill="#263238"/>
<path d="M214.921 179.247L221.92 175.822L218.197 179.024L214.921 179.247Z" fill="#263238"/>
<path d="M212.389 92.9492L232.195 116.627L227.206 117.446L205.986 99.576C205.986 99.5016 211.496 95.9276 212.389 92.9492Z" fill="white" stroke="#263238" stroke-width="0.744586" stroke-miterlimit="10" stroke-linecap="round" stroke-linejoin="round"/>
<path d="M124.751 108.735C124.751 108.735 123.783 107.543 123.485 108.586C123.262 109.628 121.028 113.351 122.741 113.649C124.453 113.947 125.496 109.628 125.496 109.628L124.751 108.735Z" fill="white" stroke="#263238" stroke-width="0.744586" stroke-miterlimit="10" stroke-linecap="round" stroke-linejoin="round"/>
<path d="M127.134 108.586C127.134 108.586 126.166 107.395 125.868 108.437C125.645 109.48 123.411 113.203 125.123 113.501C126.836 113.798 127.878 109.48 127.878 109.48L127.134 108.586Z" fill="white" stroke="#263238" stroke-width="0.744586" stroke-miterlimit="10" stroke-linecap="round" stroke-linejoin="round"/>
<path d="M129.442 108.512C129.442 108.512 128.251 107.171 127.953 108.363C127.655 109.554 124.974 113.649 127.059 113.947C129.144 114.245 130.335 109.479 130.335 109.479L129.442 108.512Z" fill="white" stroke="#263238" stroke-width="0.744586" stroke-miterlimit="10" stroke-linecap="round" stroke-linejoin="round"/>
<path d="M131.527 108.884L135.548 112.756H130.782L131.527 108.884Z" fill="white" stroke="#263238" stroke-width="0.744586" stroke-miterlimit="10" stroke-linecap="round" stroke-linejoin="round"/>
<path d="M131.527 108.884C131.527 108.884 130.336 107.543 130.038 108.735C129.74 109.926 127.059 114.021 129.144 114.319C131.229 114.617 132.42 109.852 132.42 109.852L131.527 108.884Z" fill="white" stroke="#263238" stroke-width="0.744586" stroke-miterlimit="10" stroke-linecap="round" stroke-linejoin="round"/>
<path d="M237.63 112.383C237.63 112.383 238.449 111.043 238.822 112.085C239.268 113.128 242.023 116.404 240.385 117C238.673 117.521 237.035 113.5 237.035 113.5L237.63 112.383Z" fill="white" stroke="#263238" stroke-width="0.744586" stroke-miterlimit="10" stroke-linecap="round" stroke-linejoin="round"/>
<path d="M235.248 112.607C235.248 112.607 236.067 111.267 236.439 112.309C236.886 113.351 239.641 116.628 238.003 117.223C236.29 117.745 234.652 113.724 234.652 113.724L235.248 112.607Z" fill="white" stroke="#263238" stroke-width="0.744586" stroke-miterlimit="10" stroke-linecap="round" stroke-linejoin="round"/>
<path d="M232.865 112.905C232.865 112.905 233.833 111.416 234.28 112.533C234.726 113.649 238.003 117.298 236.067 117.968C234.056 118.564 232.195 114.096 232.195 114.096L232.865 112.905Z" fill="white" stroke="#263238" stroke-width="0.744586" stroke-miterlimit="10" stroke-linecap="round" stroke-linejoin="round"/>
<path d="M230.929 113.649L227.578 118.042L232.269 117.298L230.929 113.649Z" fill="white" stroke="#263238" stroke-width="0.744586" stroke-miterlimit="10" stroke-linecap="round" stroke-linejoin="round"/>
<path d="M230.929 113.649C230.929 113.649 231.897 112.16 232.344 113.277C232.79 114.394 236.067 118.042 234.131 118.712C232.12 119.308 230.259 114.84 230.259 114.84L230.929 113.649Z" fill="white" stroke="#263238" stroke-width="0.744586" stroke-miterlimit="10" stroke-linecap="round" stroke-linejoin="round"/>
<path d="M72.7328 51.01C72.3396 46.586 68.4344 43.3184 64.0104 43.7115C59.5864 44.1047 56.3187 48.0099 56.7119 52.4339C57.1051 56.8579 61.0102 60.1256 65.4343 59.7324C69.8583 59.3392 73.1259 55.4341 72.7328 51.01Z" fill="#FFE9B1"/>
<path d="M282.177 249.421C284.453 249.219 286.463 250.9 286.665 253.177C286.868 255.453 285.186 257.463 282.909 257.665C280.633 257.868 278.623 256.186 278.421 253.909C278.219 251.633 279.9 249.623 282.177 249.421Z" stroke="#F57903" stroke-width="0.100269"/>
<path d="M264.772 12.1145C264.471 8.73774 261.491 6.24363 258.114 6.54374C254.737 6.84385 252.243 9.82453 252.543 13.2013C252.843 16.578 255.824 19.0721 259.201 18.772C262.578 18.4719 265.072 15.4912 264.772 12.1145Z" fill="#D1F3EF"/>
<path d="M10.2836 124.648C10.0474 121.99 7.70137 120.027 5.0436 120.263C2.38583 120.499 0.422766 122.845 0.658976 125.503C0.895186 128.161 3.24122 130.124 5.89899 129.888C8.55677 129.652 10.5198 127.305 10.2836 124.648Z" fill="#D1F3EF"/>
<path d="M49.5 138C47.0158 138 45 135.984 45 133.5C45 131.016 47.0158 129 49.5 129C51.9842 129 54 131.016 54 133.5C54 135.984 51.9774 138 49.5 138ZM49.5 129.529C47.3077 129.529 45.5294 131.314 45.5294 133.5C45.5294 135.692 47.3145 137.471 49.5 137.471C51.6923 137.471 53.4706 135.692 53.4706 133.5C53.4706 131.314 51.6855 129.529 49.5 129.529Z" fill="#F57903"/>
<path d="M141.121 4.50216C140.128 3.20779 139.52 1.74459 139.41 0.0562805V0C139.244 0.056277 139.079 0.0562667 138.968 0.112544C139.024 2.36363 138.361 4.27705 136.319 5.51514C135.932 5.68397 135.49 5.90908 135.104 6.07791C134.773 6.19047 134.497 6.30303 134 6.52814C134.883 6.80953 135.601 6.8658 136.098 7.3723C138.361 8.44156 138.692 10.6926 139.3 13C139.852 10.355 140.68 8.21645 142.998 7.09091C143.053 5.74026 141.839 5.34632 141.121 4.50216Z" fill="#FFBE80"/>
<path d="M268.913 188.848C267.808 187.455 267.134 185.879 267.011 184.061V184C266.827 184.061 266.643 184.061 266.52 184.121C266.582 186.545 265.846 188.606 263.576 189.939C263.147 190.121 262.656 190.364 262.227 190.545C261.859 190.667 261.552 190.788 261 191.03C261.981 191.333 262.779 191.394 263.331 191.939C265.846 193.091 266.214 195.515 266.888 198C267.502 195.152 268.422 192.848 270.998 191.636C271.059 190.182 269.71 189.758 268.913 188.848Z" fill="#FFBE80"/>
</svg>
