<svg xmlns="http://www.w3.org/2000/svg" width="331" height="318" fill="none" viewBox="0 0 331 318"><path fill="#FFBE80" d="M287.643 93.9108C285.761 93.2453 282.638 90.0917 282.638 90.0917C282.578 90.0683 285.339 88.6583 285.506 88.5851C287.604 87.8143 292.144 87.5129 293.738 89.4481C294.85 90.8493 294.341 92.862 292.866 93.8069C291.392 94.7519 289.226 94.4593 287.643 93.9108Z"/><path fill="#FFBE80" d="M254.582 63.5256C254.522 63.5022 256.042 60.8474 256.172 60.6908C257.508 58.8624 261.131 56.1301 263.517 56.9228C265.243 57.4582 265.917 59.4489 265.225 61.0447C264.51 62.7005 262.485 63.6382 260.898 63.9863C258.941 64.3973 254.642 63.549 254.582 63.5256Z"/><path fill="#FFBE80" d="M256.2 42.7349C258.222 44.2839 257.973 48.8168 257.214 50.9392C257.144 51.1191 255.78 53.9041 255.744 53.8208L255.684 53.7974C255.666 54.5507 255.589 55.2806 255.548 56.0938C255.429 57.637 255.241 59.3601 254.958 61.323C254.64 63.2026 254.31 65.2855 253.695 67.3948C253.139 69.5274 252.356 71.7098 251.347 73.9419L251.324 74.0018C251.821 73.4358 253.279 72.0008 253.386 71.9043C255.108 70.503 259.373 68.7814 261.465 70.1504C263.003 71.1655 263.104 73.209 262.016 74.581C260.928 75.953 258.707 76.3304 257.058 76.3085C255.144 76.2529 251.447 74.3953 251.17 74.2183C250.148 76.3071 248.945 78.3256 247.623 80.2974C246.832 81.4398 246.04 82.5822 245.273 83.6646C245.723 83.2184 246.15 82.8323 246.174 82.7723C247.895 81.371 252.16 79.6494 254.252 81.0185C255.791 82.0336 255.892 84.077 254.804 85.449C253.715 86.821 251.495 87.1984 249.845 87.1765C248.135 87.1312 244.99 85.6275 244.114 85.2165C243.807 85.6495 243.5 86.0825 243.133 86.492C241.584 88.5135 240.035 90.535 238.606 92.6033C238.121 93.3127 237.637 94.0221 237.13 94.7915C237.557 94.4053 237.901 94.0557 237.924 93.9958C239.646 92.5945 243.911 90.8728 246.002 92.2419C247.541 93.257 247.642 95.3004 246.554 96.6725C245.466 98.0445 243.245 98.4219 241.595 98.4C239.969 98.3181 237.04 96.968 236.044 96.5102C235.537 97.2796 235.113 98.0124 234.688 98.7452C234.418 99.2616 234.087 99.7545 233.877 100.294C233.606 100.811 233.395 101.35 233.125 101.867C232.667 102.863 232.186 103.919 231.788 104.938C231.507 105.658 231.25 106.318 230.932 106.954C231.416 106.245 232.445 104.849 232.551 104.753C233.546 103.62 235.651 102.3 237.595 101.745C237.725 101.589 237.915 101.456 238.105 101.323C239.483 100.271 241.553 100.457 242.534 102.014C243.832 104.179 241.99 108.367 240.498 110.065C240.392 110.162 239.324 111.127 238.66 111.766C239.124 111.463 239.587 111.161 240.051 110.858C240.978 110.252 241.966 109.67 242.953 109.088C243.477 108.809 243.94 108.506 244.464 108.226C244.987 107.947 245.511 107.668 246.095 107.412C247.369 106.803 248.703 106.218 250.013 105.693C249.504 104.872 247.674 101.947 247.433 100.263C247.192 98.5798 247.341 96.4267 248.549 95.1015C249.794 93.8597 251.837 93.7587 253.032 95.1234C254.627 97.0586 253.468 101.444 252.229 103.379C252.183 103.499 251.141 104.751 250.597 105.437C251.407 105.131 252.218 104.826 253.028 104.52C255.436 103.663 257.82 102.866 260.264 102.092C260.991 101.823 261.778 101.577 262.481 101.368C262.312 101.094 260.059 97.6582 259.768 95.7479C259.527 94.0643 259.676 91.9112 260.884 90.586C262.129 89.3442 264.172 89.2432 265.367 90.6079C266.962 92.5431 265.803 96.9283 264.564 98.8635C264.434 99.02 263.039 100.825 262.588 101.271C264.186 100.72 265.843 100.192 267.404 99.5568C269.608 98.6894 271.632 97.7517 273.583 96.6474C273.487 96.5406 271.161 92.938 270.87 91.0277C270.629 89.3441 270.778 87.191 271.986 85.8657C273.231 84.6239 275.274 84.523 276.469 85.8877C278.064 87.8228 276.905 92.208 275.666 94.1432C275.62 94.2632 274.448 95.6718 273.927 96.2978C273.964 96.3812 273.987 96.3212 274.024 96.4046C276.082 95.2037 277.923 93.8492 279.645 92.4479C280.582 91.639 281.52 90.8301 282.338 89.9744C281.818 89.3572 279.559 86.4713 279.114 84.7774C278.706 83.167 278.592 80.9802 279.703 79.5482C280.792 78.1762 282.785 77.8485 284.11 79.0567C285.918 80.7988 285.203 85.2879 284.264 87.3401C284.217 87.46 283.533 88.5058 283.025 89.2752C283.392 88.8657 283.796 88.5395 284.163 88.1299C285.455 86.7681 286.603 85.4195 287.621 84.2274C288.165 83.5414 288.686 82.9153 289.123 82.3258C288.984 81.4424 288.285 77.9216 288.654 76.2688C289.022 74.6159 289.938 72.6237 291.545 71.8689C293.129 71.1741 295.095 71.803 295.683 73.4837C296.481 75.8679 293.81 79.5247 291.968 80.8792C291.778 81.0123 289.173 82.5526 289.136 82.4692L289.16 82.4092C288.722 82.9987 288.285 83.5882 287.741 84.2742C286.783 85.4897 285.695 86.8617 284.38 88.2835C283.065 89.7053 281.643 91.2236 279.981 92.6483C278.32 94.073 276.491 95.5708 274.433 96.7717L274.35 96.8083C275.053 96.5991 277.071 96.2115 277.274 96.2217C279.507 95.9877 283.986 96.9062 285.01 99.2407C285.742 100.908 284.693 102.71 283.036 103.238C281.318 103.743 279.303 102.887 277.944 101.942C276.368 100.844 274.306 97.2749 274.196 97.0248C272.222 98.1891 270.09 99.2233 267.863 100.151C266.612 100.699 265.325 101.164 264.014 101.689C264.611 101.577 265.208 101.464 265.291 101.428C267.525 101.194 272.004 102.112 273.028 104.447C273.759 106.114 272.71 107.916 271.053 108.444C269.336 108.949 267.32 108.093 265.961 107.148C264.566 106.12 262.759 103.135 262.31 102.337C261.834 102.497 261.333 102.716 260.796 102.852C258.389 103.709 255.981 104.567 253.634 105.447C252.823 105.753 251.989 106.119 251.239 106.448C251.776 106.312 252.289 106.236 252.349 106.259C254.583 106.025 259.062 106.944 260.086 109.278C260.817 110.946 259.768 112.748 258.111 113.276C256.394 113.78 254.378 112.925 253.019 111.98C251.66 111.035 249.987 108.24 249.441 107.336C248.608 107.701 247.834 108.09 247.06 108.479C246.537 108.759 246.036 108.978 245.489 109.318C244.966 109.597 244.502 109.9 243.978 110.179C243.051 110.785 242.064 111.367 241.196 111.996C240.542 112.432 239.972 112.831 239.401 113.23C240.212 112.925 241.832 112.313 241.976 112.3C244.183 111.779 248.739 111.968 250.037 114.133C251.018 115.691 250.269 117.61 248.662 118.364C247.054 119.119 244.922 118.563 243.409 117.835C241.74 116.976 239.264 113.937 238.938 113.533C237.987 114.199 237.013 114.924 236.145 115.553C234.624 116.618 233.306 117.693 232.035 118.648L230.89 117.51C232.161 116.555 233.622 115.467 235.25 114.306C236.224 113.58 237.319 112.901 238.436 112.163C238.266 111.889 237.535 110.222 237.067 108.588C235.167 108.676 231.655 107.581 231.152 107.454C230.707 108.594 230.286 109.673 229.888 110.693C229.279 112.252 228.754 113.775 228.299 115.117L227.034 113.933C227.479 112.793 227.91 111.51 228.485 110.214C228.93 109.075 229.398 107.876 229.949 106.64C229.553 106.416 226.176 104.268 225.194 102.711C224.286 101.32 223.491 99.2821 224.087 97.5795C224.659 95.9369 226.48 94.9891 228.112 95.7643C230.381 96.8569 231.136 101.298 230.856 103.607C230.809 103.727 230.474 105.117 230.243 106.063C230.431 105.583 230.701 105.067 230.888 104.587C231.346 103.591 231.804 102.595 232.309 101.479C232.579 100.963 232.85 100.446 233.12 99.93C233.391 99.4137 233.722 98.9208 234.016 98.3445C234.71 97.0953 235.502 95.9529 236.316 94.7506C235.44 94.3395 232.272 92.8959 231.174 91.6379C230.075 90.38 228.947 88.4887 229.279 86.7525C229.611 85.0163 231.263 83.7949 232.989 84.3302C235.398 85.063 236.833 89.3546 236.9 91.6613C236.913 91.8046 236.771 93.4078 236.684 94.341C237.168 93.6316 237.652 92.9221 238.196 92.2361C239.685 90.1912 241.294 88.1932 242.903 86.1951C243.424 85.569 243.861 84.9796 244.322 84.3301C244.022 84.2131 240.254 82.5354 238.999 81.1473C237.9 79.8894 236.773 77.9981 237.105 76.2618C237.437 74.5256 239.088 73.3042 240.814 73.8396C243.223 74.5724 244.658 78.864 244.725 81.1707C244.739 81.314 244.519 83.647 244.429 84.2336C245.517 82.8615 246.522 81.5261 247.49 80.1072C248.849 78.2189 250.028 76.2603 251.063 74.3149C250.943 74.2681 246.972 72.5801 245.681 71.1087C244.582 69.8507 243.454 67.9594 243.786 66.2232C244.118 64.487 245.77 63.2656 247.496 63.8009C249.905 64.5337 251.34 68.8253 251.407 71.132C251.42 71.2753 251.268 73.0818 251.144 73.9316C251.204 73.955 251.204 73.955 251.264 73.9784C252.37 71.8531 253.092 69.6473 253.768 67.5615C254.116 66.3153 254.417 65.189 254.659 64.0393C253.916 63.8184 250.427 62.6644 249.078 61.5162C247.79 60.3913 246.532 58.6566 246.684 56.8501C246.813 55.1036 248.331 53.6921 250.127 54.0475C252.653 54.4805 254.482 58.6492 254.799 60.8462C254.812 60.9895 254.811 62.2328 254.866 63.1529C254.994 62.6497 255.084 62.0632 255.188 61.62C255.507 59.7404 255.696 58.0173 255.897 56.4376C255.962 55.5643 256.063 54.7744 256.08 54.0212C255.441 53.3571 252.957 50.8676 252.346 49.2469C251.711 47.6862 251.394 45.4892 252.325 43.987C252.801 42.2376 254.768 41.6232 256.2 42.7349Z"/><path fill="#FFD3AB" d="M231.075 86.8389C206.939 44.4577 168.94 20.8247 123.182 24.3445C77.425 27.8643 75.3419 62.0567 75.3419 100.343C75.3419 138.199 21.2519 120.528 4.01204 166.214C-9.42067 201.843 25.49 266.852 41.5805 293.861H269.865C278.7 263.26 294.791 203.064 296.586 164.059C299.675 94.0222 250.326 120.672 231.075 86.8389Z"/><path fill="#fff" d="M231.075 86.8389C206.939 44.4577 168.94 20.8247 123.182 24.3445C77.425 27.8643 75.3419 62.0567 75.3419 100.343C75.3419 138.199 21.2519 120.528 4.01204 166.214C-9.42067 201.843 25.49 266.852 41.5805 293.861H269.865C278.7 263.26 294.791 203.064 296.586 164.059C299.675 94.0222 250.326 120.672 231.075 86.8389Z" opacity=".7"/><path fill="#D1F3EF" d="M158.319 165.831C144.481 183.348 129.371 194.468 124.558 190.678C119.745 186.877 127.065 169.601 140.892 152.074C154.729 134.557 174.652 127.228 174.652 127.228C174.652 127.228 172.156 148.314 158.319 165.831Z"/><path fill="#FFBE80" d="M205.922 252.956C205.922 252.956 219.119 213.236 202.574 249.931C202.574 249.931 196.716 218 198.261 252.827C198.261 252.827 181.201 226.111 195.557 258.621C195.557 258.621 173.412 234.995 196.265 265.767C196.265 265.767 241.007 263.514 206.244 261.969C206.244 261.969 246.672 244.845 208.111 257.141C208.111 257.205 242.616 223.086 205.922 252.956Z"/><path stroke="#263238" stroke-linecap="round" stroke-linejoin="round" stroke-miterlimit="10" stroke-width=".483" d="M203.089 253.793C203.089 253.793 194.205 266.346 190.987 279.35"/><path fill="#FFE9B1" d="M178.755 254.244C178.755 254.244 147.662 229.717 174.957 256.304C174.957 256.304 144.636 251.283 176.18 261.068C176.18 261.068 146.889 267.699 180.494 265.317C180.494 265.317 152.297 277.484 187.124 266.99C187.124 266.99 199.484 226.434 186.996 256.883C186.996 256.883 184.742 215.361 183.326 253.665C183.262 253.6 163.885 211.949 178.755 254.244Z"/><path fill="#FFBE80" d="M178.755 254.244C178.755 254.244 147.662 229.717 174.957 256.304C174.957 256.304 144.636 251.283 176.18 261.068C176.18 261.068 146.889 267.699 180.494 265.317C180.494 265.317 152.297 277.484 187.124 266.99C187.124 266.99 199.484 226.434 186.996 256.883C186.996 256.883 184.742 215.361 183.326 253.665C183.262 253.6 163.885 211.949 178.755 254.244Z" opacity=".3"/><path stroke="#263238" stroke-linecap="round" stroke-linejoin="round" stroke-miterlimit="10" stroke-width=".483" d="M193.433 280.574C187.832 261.905 177.983 257.334 177.983 257.334"/><path stroke="#263238" stroke-linecap="round" stroke-linejoin="round" stroke-miterlimit="10" stroke-width=".322" d="M191.373 256.368C191.373 256.368 195.364 260.102 196.394 265.188C196.394 265.188 201.287 263.256 208.304 263.578"/><path stroke="#263238" stroke-linecap="round" stroke-linejoin="round" stroke-miterlimit="10" stroke-width=".322" d="M195.558 252.377C195.558 252.377 198.326 255.725 196.395 265.252L206.888 257.913"/><path stroke="#263238" stroke-linecap="round" stroke-linejoin="round" stroke-miterlimit="10" stroke-width=".322" d="M188.283 256.883C188.283 256.883 186.481 260.938 186.674 265.831C186.674 265.831 182.232 266.346 179.142 267.762"/><path stroke="#263238" stroke-linecap="round" stroke-linejoin="round" stroke-miterlimit="10" stroke-width=".322" d="M183.391 255.66C183.391 255.66 183.777 260.231 186.609 265.767C186.609 265.767 183.712 263.192 176.116 262.742"/><path fill="#F57903" stroke="#263238" stroke-linecap="round" stroke-linejoin="round" stroke-miterlimit="10" stroke-width=".483" d="M182.746 277.935H186.738H187.832H196.33H197.167H201.351L198.519 295.316H197.617V296.024C197.617 296.539 197.231 296.925 196.716 296.925H195.879C195.364 296.925 194.978 296.539 194.978 296.024V295.316H189.184V296.024C189.184 296.539 188.798 296.925 188.283 296.925H187.446C186.931 296.925 186.545 296.539 186.545 296.024V295.316H185.643L182.746 277.935Z"/><path fill="#E9FAF8" d="M264.633 296.86H47.3639C34.2312 298.856 23.7379 301.495 27.0211 304.457C34.7462 311.409 90.3671 303.298 88.7577 311.345C87.1483 319.392 128.864 317.396 151.524 317.396C174.185 317.396 198.969 315.272 191.051 309.092C183.069 302.912 236.05 307.418 258.775 307.418C275.384 307.418 286.778 302.783 264.633 296.86Z"/><path stroke="#263238" stroke-linecap="round" stroke-linejoin="round" stroke-miterlimit="10" stroke-width=".483" d="M7.25751 296.86H293.602"/><path fill="#263238" stroke="#263238" stroke-linecap="round" stroke-linejoin="round" stroke-miterlimit="10" stroke-width=".644" d="M213.261 226.304H102.856C99.8947 226.304 97.5128 223.923 97.5128 220.961V75.7934C97.5128 72.8321 99.8947 70.4502 102.856 70.4502H213.261C216.222 70.4502 218.604 72.8321 218.604 75.7934V220.961C218.604 223.923 216.222 226.304 213.261 226.304Z"/><path fill="#FFE9B1" d="M211.33 223.987H100.925C97.9636 223.987 95.5817 221.605 95.5817 218.644V73.476C95.5817 70.5147 97.9636 68.1328 100.925 68.1328H211.33C214.291 68.1328 216.673 70.5147 216.673 73.476V218.644C216.673 221.605 214.291 223.987 211.33 223.987Z"/><path fill="#fff" d="M211.33 223.987H100.925C97.9636 223.987 95.5817 221.605 95.5817 218.644V73.476C95.5817 70.5147 97.9636 68.1328 100.925 68.1328H211.33C214.291 68.1328 216.673 70.5147 216.673 73.476V218.644C216.673 221.605 214.291 223.987 211.33 223.987Z" opacity=".8"/><path stroke="#263238" stroke-linecap="round" stroke-linejoin="round" stroke-miterlimit="10" stroke-width=".644" d="M211.33 223.987H100.925C97.9636 223.987 95.5817 221.605 95.5817 218.644V73.476C95.5817 70.5147 97.9636 68.1328 100.925 68.1328H211.33C214.291 68.1328 216.673 70.5147 216.673 73.476V218.644C216.673 221.605 214.291 223.987 211.33 223.987Z"/><path fill="#fff" stroke="#263238" stroke-linecap="round" stroke-linejoin="round" stroke-miterlimit="10" stroke-width=".644" d="M211.523 90.4707H100.796V133.667H211.523V90.4707Z"/><path fill="#263238" stroke="#263238" stroke-linecap="round" stroke-linejoin="round" stroke-miterlimit="10" stroke-width=".483" d="M180.107 77.5319H132.147C131.632 77.5319 131.181 77.0812 131.181 76.5662C131.181 76.0512 131.632 75.6006 132.147 75.6006H180.107C180.622 75.6006 181.073 76.0512 181.073 76.5662C181.073 77.1456 180.622 77.5319 180.107 77.5319Z"/><path fill="#263238" stroke="#263238" stroke-linecap="round" stroke-linejoin="round" stroke-miterlimit="10" stroke-width=".643" d="M209.784 144.29H124.808C123.842 144.29 123.07 143.839 123.07 143.324C123.07 142.809 123.842 142.358 124.808 142.358H209.784C210.75 142.358 211.523 142.809 211.523 143.324C211.523 143.903 210.75 144.29 209.784 144.29Z"/><path fill="#263238" stroke="#263238" stroke-linecap="round" stroke-linejoin="round" stroke-miterlimit="10" stroke-width=".643" d="M191.566 154.976H124.808C123.842 154.976 123.07 154.526 123.07 154.011C123.07 153.496 123.842 153.045 124.808 153.045H191.566C192.532 153.045 193.304 153.496 193.304 154.011C193.24 154.526 192.467 154.976 191.566 154.976Z"/><path fill="#263238" stroke="#263238" stroke-linecap="round" stroke-linejoin="round" stroke-miterlimit="10" stroke-width=".643" d="M183.455 162.507H124.1C123.585 162.507 123.134 162.057 123.134 161.542C123.134 161.027 123.585 160.576 124.1 160.576H183.455C183.97 160.576 184.42 161.027 184.42 161.542C184.42 162.121 183.97 162.507 183.455 162.507Z"/><path fill="#263238" stroke="#263238" stroke-linecap="round" stroke-linejoin="round" stroke-miterlimit="10" stroke-width=".643" d="M199.549 170.104H124.808C123.842 170.104 123.07 169.653 123.07 169.138C123.07 168.623 123.842 168.173 124.808 168.173H199.549C200.514 168.173 201.287 168.623 201.287 169.138C201.222 169.653 200.45 170.104 199.549 170.104Z"/><path fill="#263238" stroke="#263238" stroke-linecap="round" stroke-linejoin="round" stroke-miterlimit="10" stroke-width=".643" d="M192.403 177.636H124.808C123.842 177.636 123.07 177.186 123.07 176.671C123.07 176.156 123.842 175.705 124.808 175.705H192.403C193.369 175.705 194.141 176.156 194.141 176.671C194.077 177.186 193.369 177.636 192.403 177.636Z"/><path fill="#263238" stroke="#263238" stroke-linecap="round" stroke-linejoin="round" stroke-miterlimit="10" stroke-width=".643" d="M182.682 185.169H124.808C123.842 185.169 123.07 184.718 123.07 184.203C123.07 183.688 123.842 183.237 124.808 183.237H182.682C183.648 183.237 184.42 183.688 184.42 184.203C184.42 184.718 183.648 185.169 182.682 185.169Z"/><path fill="#263238" stroke="#263238" stroke-linecap="round" stroke-linejoin="round" stroke-miterlimit="10" stroke-width=".483" d="M187.382 84.0983H124.937C124.422 84.0983 123.971 83.6476 123.971 83.1326C123.971 82.6176 124.422 82.167 124.937 82.167H187.382C187.897 82.167 188.347 82.6176 188.347 83.1326C188.347 83.6476 187.897 84.0983 187.382 84.0983Z"/><path fill="#F57903" stroke="#263238" stroke-linecap="round" stroke-linejoin="round" stroke-miterlimit="10" stroke-width=".483" d="M156.159 217.356C161.848 217.356 166.459 212.745 166.459 207.056C166.459 201.367 161.848 196.756 156.159 196.756C150.471 196.756 145.859 201.367 145.859 207.056C145.859 212.745 150.471 217.356 156.159 217.356Z"/><path fill="#F57903" stroke="#263238" stroke-linecap="round" stroke-linejoin="round" stroke-miterlimit="10" stroke-width=".644" d="M125.259 217.356C130.947 217.356 135.559 212.745 135.559 207.056C135.559 201.367 130.947 196.756 125.259 196.756C119.57 196.756 114.958 201.367 114.958 207.056C114.958 212.745 119.57 217.356 125.259 217.356Z"/><path fill="#F57903" stroke="#263238" stroke-linecap="round" stroke-linejoin="round" stroke-miterlimit="10" stroke-width=".644" d="M187.059 217.356C192.748 217.356 197.36 212.745 197.36 207.056C197.36 201.367 192.748 196.756 187.059 196.756C181.371 196.756 176.759 201.367 176.759 207.056C176.759 212.745 181.371 217.356 187.059 217.356Z"/><path fill="#fff" stroke="#263238" stroke-linecap="round" stroke-linejoin="round" stroke-miterlimit="10" stroke-width=".644" d="M183.261 160.963H166.009V137.208H178.562L183.261 141.907V160.963Z"/><path fill="#263238" stroke="#263238" stroke-linecap="round" stroke-linejoin="round" stroke-miterlimit="10" stroke-width=".483" d="M178.562 137.208V137.852V142.551H183.262V141.907L178.562 137.208Z"/><path fill="#fff" stroke="#263238" stroke-linecap="round" stroke-linejoin="round" stroke-miterlimit="10" stroke-width=".644" d="M178.562 141.907H183.262L178.562 137.208V141.907Z"/><path fill="#1AC3AF" stroke="#FFE9B1" stroke-linecap="round" stroke-linejoin="round" stroke-miterlimit="10" stroke-width=".322" d="M173.927 143.195H176.695L178.82 156.328H176.76L176.373 153.753V153.817H174.056L173.669 156.392H171.738L173.927 143.195ZM176.18 151.95L175.279 145.448H175.215L174.313 151.95H176.18Z"/><path fill="#fff" stroke="#263238" stroke-linecap="round" stroke-linejoin="round" stroke-miterlimit="10" stroke-width=".483" d="M172.639 142.551H175.408L177.532 155.683H175.472L175.086 153.108V153.173H172.768L172.382 155.748H170.451L172.639 142.551ZM174.893 151.306L173.991 144.804H173.927L173.026 151.306H174.893Z"/><path fill="#A3E7DF" d="M41.0591 210.976C55.1716 228.492 70.5827 239.612 75.4914 235.822C80.4001 232.022 72.9348 214.746 58.8326 197.219C44.7202 179.702 24.4003 172.372 24.4003 172.372C24.4003 172.372 26.9467 193.459 41.0591 210.976Z"/><path fill="#fff" d="M75.4811 236.193C75.5629 236.193 75.6447 236.163 75.7163 236.113C75.8799 235.983 75.9106 235.752 75.7776 235.582L24.6866 172.142C24.5536 171.981 24.3184 171.951 24.1446 172.082C23.981 172.212 23.9503 172.443 24.0832 172.613L75.1845 236.053C75.2663 236.143 75.3686 236.193 75.4811 236.193Z"/><path fill="#fff" d="M41.8159 194.382C41.9898 194.382 42.1534 194.261 42.1841 194.091L44.5566 183.482C44.5975 183.282 44.4748 183.081 44.2703 183.031C44.0555 182.981 43.8612 183.111 43.8101 183.312L41.4376 193.92C41.3967 194.121 41.5194 194.322 41.7239 194.372C41.7546 194.382 41.7853 194.382 41.8159 194.382Z"/><path fill="#fff" d="M44.3622 197.55C44.5258 197.55 44.6792 197.45 44.7303 197.29L48.1562 186.3C48.2175 186.1 48.1051 185.889 47.9005 185.829C47.696 185.769 47.4813 185.879 47.4199 186.08L43.9941 197.069C43.9327 197.27 44.0452 197.48 44.2497 197.54C44.2906 197.55 44.3315 197.55 44.3622 197.55Z"/><path fill="#fff" d="M39.5761 209.451C39.6068 209.451 39.6375 209.451 39.6681 209.441L51.5717 206.373C51.7762 206.323 51.8989 206.113 51.8478 205.912C51.7967 205.711 51.5921 205.591 51.3774 205.641L39.4738 208.709C39.2693 208.76 39.1466 208.97 39.1977 209.171C39.2489 209.341 39.4125 209.451 39.5761 209.451Z"/><path fill="#fff" d="M42.8588 213.543C42.8997 213.543 42.9406 213.533 42.9917 213.523L54.1998 209.572C54.3941 209.502 54.4964 209.291 54.4248 209.091C54.3532 208.9 54.1385 208.79 53.9339 208.87L42.7258 212.821C42.5315 212.891 42.4293 213.102 42.5008 213.302C42.552 213.442 42.6952 213.543 42.8588 213.543Z"/><path fill="#fff" d="M63.3525 221.123C63.5059 221.123 63.6593 221.023 63.7104 220.873L67.8624 209.332C67.9339 209.141 67.8317 208.921 67.6271 208.85C67.4226 208.78 67.2079 208.881 67.1363 209.081L62.9843 220.622C62.9128 220.813 63.015 221.033 63.2196 221.103C63.2605 221.113 63.3116 221.123 63.3525 221.123Z"/><path fill="#fff" d="M28.9307 189.769C28.9716 189.769 29.0125 189.759 29.0534 189.749L36.3244 187.392C36.5289 187.332 36.6312 187.112 36.5698 186.921C36.4983 186.721 36.2835 186.62 36.0892 186.68L28.8182 189.037C28.6137 189.097 28.5114 189.318 28.5728 189.508C28.6239 189.668 28.7671 189.769 28.9307 189.769Z"/><path fill="#D1F3EF" d="M38.7152 239.516C60.8398 243.578 79.7737 241.946 81.0195 235.871C82.2588 229.788 65.3278 221.57 43.2044 217.493C21.0797 213.43 0.90007 221.137 0.90007 221.137C0.90007 221.137 16.5906 235.453 38.7152 239.516Z"/><path fill="#fff" d="M81.2538 236.159C81.3158 236.105 81.3581 236.029 81.3797 235.944C81.4186 235.739 81.2913 235.544 81.0793 235.502L0.966439 220.775C0.761012 220.741 0.563182 220.871 0.516522 221.084C0.477613 221.289 0.604866 221.484 0.816837 221.526L80.9375 236.246C81.0584 236.261 81.1686 236.232 81.2538 236.159Z"/><path fill="#fff" d="M28.459 226.448C28.5907 226.334 28.6362 226.137 28.5482 225.987L23.4227 216.401C23.3229 216.222 23.099 216.151 22.9113 216.246C22.7159 216.348 22.6537 216.574 22.7459 216.759L27.8713 226.345C27.9712 226.524 28.1951 226.596 28.3827 226.5C28.4125 226.488 28.4358 226.468 28.459 226.448Z"/><path fill="#fff" d="M32.4561 227.187C32.5801 227.08 32.6309 226.904 32.5649 226.749L27.9889 216.187C27.9046 215.995 27.6819 215.909 27.4877 215.997C27.2934 216.085 27.2027 216.308 27.2871 216.5L31.8631 227.063C31.9475 227.255 32.1701 227.341 32.3644 227.253C32.4019 227.234 32.4329 227.207 32.4561 227.187Z"/><path fill="#fff" d="M36.5969 239.329C36.6201 239.309 36.6434 239.289 36.6601 239.261L43.677 229.168C43.7993 228.997 43.7548 228.757 43.5852 228.638C43.4156 228.52 43.1821 228.562 43.0521 228.74L36.0352 238.833C35.9129 239.005 35.9574 239.244 36.127 239.363C36.277 239.459 36.4729 239.435 36.5969 239.329Z"/><path fill="#fff" d="M41.754 240.286C41.785 240.259 41.8094 240.225 41.8416 240.184L47.7558 229.876C47.8573 229.696 47.7973 229.469 47.6122 229.364C47.4336 229.267 47.1989 229.323 47.0963 229.517L41.1821 239.825C41.0807 240.005 41.1406 240.232 41.3258 240.337C41.4561 240.41 41.63 240.392 41.754 240.286Z"/><path fill="#fff" d="M62.229 232.655C62.3453 232.555 62.3961 232.379 62.3366 232.231L57.9509 220.777C57.8808 220.586 57.6593 220.486 57.4586 220.566C57.2578 220.646 57.1605 220.863 57.2371 221.061L61.6229 232.515C61.693 232.706 61.9144 232.807 62.1152 232.727C62.1527 232.707 62.198 232.682 62.229 232.655Z"/><path fill="#fff" d="M15.6859 231.362C15.7169 231.335 15.7413 231.301 15.7658 231.266L19.7372 224.736C19.8529 224.557 19.7865 224.323 19.6157 224.219C19.4305 224.114 19.2024 224.178 19.0944 224.35L15.123 230.881C15.0073 231.06 15.0737 231.293 15.2445 231.398C15.388 231.486 15.5619 231.469 15.6859 231.362Z"/><path fill="#fff" d="M234.698 203.772L246.286 247.548C246.286 247.548 246.479 252.376 248.732 256.11L251.886 292.998C251.886 292.998 254.333 296.731 263.024 292.998C263.024 292.998 263.41 266.603 260.191 250.188L257.423 218.901C257.423 218.901 258.517 212.334 256.908 204.159L234.698 203.772Z"/><path fill="#000" d="M253.753 203.064C253.753 203.064 254.783 214.137 248.861 221.862C242.938 229.587 245.191 238.407 244.741 247.29C244.29 256.174 238.625 223.986 238.625 223.986L247.445 201.97L253.753 203.064Z" opacity=".5"/><path stroke="#263238" stroke-linecap="round" stroke-linejoin="round" stroke-miterlimit="10" stroke-width=".483" d="M234.698 203.772L246.286 247.548C246.286 247.548 246.479 252.376 248.732 256.11L251.886 292.998C251.886 292.998 254.333 296.731 263.024 292.998C263.024 292.998 263.41 266.603 260.191 250.188L257.423 218.901C257.423 218.901 258.517 212.334 256.908 204.159L234.698 203.772Z"/><path fill="#76DBCF" stroke="#263238" stroke-linecap="round" stroke-linejoin="round" stroke-miterlimit="10" stroke-width=".644" d="M252.53 292.933C252.53 292.933 246.929 295.508 244.934 295.508C243.582 295.508 241.007 294.091 239.784 297.31C239.784 297.31 238.303 300.143 247.122 301.173C253.946 301.945 261.092 301.559 263.989 301.301C264.697 301.237 265.212 300.593 265.083 299.821L264.955 299.241C264.955 299.241 264.761 294.993 262.122 292.868H252.53V292.933Z"/><path fill="#fff" stroke="#263238" stroke-linecap="round" stroke-linejoin="round" stroke-miterlimit="10" stroke-width=".483" d="M245.577 299.564C239.848 298.47 239.977 296.86 239.977 296.86C239.912 296.989 239.848 297.118 239.784 297.311C239.784 297.311 238.303 300.144 247.122 301.174C253.946 301.946 261.092 301.56 263.989 301.302C264.697 301.238 265.212 300.594 265.083 299.822L265.019 299.629L259.805 300.079C259.869 300.079 251.307 300.723 245.577 299.564Z"/><path stroke="#7F7F7F" stroke-linecap="round" stroke-linejoin="round" stroke-width=".483" d="M252.402 248.771C252.402 248.771 254.526 251.475 258.775 251.089"/><path fill="#fff" stroke="#263238" stroke-linecap="round" stroke-linejoin="round" stroke-miterlimit="10" stroke-width=".483" d="M223.625 201.97C223.625 201.97 220.728 209.566 226.072 241.883C226.072 241.883 225.106 244.973 227.037 251.089L229.612 271.882V292.482C229.612 292.482 231.415 296.86 241.844 292.482C241.844 292.482 242.166 255.917 241.007 248.192L243.453 224.63C243.711 222.377 244.869 220.446 246.672 219.094C248.989 217.42 251.951 213.879 252.401 206.669L223.625 201.97Z"/><path fill="#76DBCF" stroke="#263238" stroke-linecap="round" stroke-linejoin="round" stroke-miterlimit="10" stroke-width=".644" d="M230.321 292.032C230.321 292.032 224.141 294.865 221.952 294.865C220.407 294.865 217.574 293.32 216.222 296.86C216.222 296.86 214.613 300.015 224.334 301.109C231.866 301.946 239.72 301.495 242.938 301.238C243.711 301.174 244.29 300.401 244.161 299.629L244.033 298.985C244.033 298.985 243.775 294.285 240.878 291.968H230.321V292.032Z"/><path fill="#fff" stroke="#263238" stroke-linecap="round" stroke-linejoin="round" stroke-miterlimit="10" stroke-width=".483" d="M222.595 299.37C216.287 298.147 216.415 296.409 216.415 296.409C216.351 296.538 216.287 296.731 216.222 296.924C216.222 296.924 214.613 300.079 224.334 301.173C231.866 302.01 239.72 301.559 242.938 301.302C243.711 301.237 244.29 300.465 244.161 299.692L244.097 299.435L238.303 299.95C238.368 299.95 228.904 300.594 222.595 299.37Z"/><path stroke="#7F7F7F" stroke-linecap="round" stroke-linejoin="round" stroke-width=".483" d="M231.673 246.582C231.673 246.582 234.183 249.608 239.269 249.221"/><path fill="#263238" stroke="#263238" stroke-linecap="round" stroke-linejoin="round" stroke-miterlimit="10" stroke-width=".483" d="M236.308 120.535C236.308 120.535 231.093 122.852 230.707 120.535C230.707 120.535 232.638 119.891 233.861 118.088C235.084 116.286 241.586 116.801 241.586 116.801C241.586 116.801 252.916 115.706 251.5 121.565C251.5 121.565 256.007 125.813 252.144 131.993C248.281 138.174 246.028 140.234 246.028 140.234L242.166 139.59L236.823 123.238L236.308 120.535Z"/><path fill="#fff" d="M237.08 144.547V142.101C237.08 142.101 232.896 142.745 232.316 141.65C231.737 140.556 232.702 136.114 232.702 136.114C232.702 136.114 230.707 136.178 230.707 135.277C230.707 134.311 233.089 130.384 233.089 130.384C233.089 130.384 232.831 127.23 233.089 126.2C233.346 125.17 236.308 119.505 236.308 119.505C236.308 119.505 240.621 121.887 240.492 123.174C240.363 124.462 239.14 125.685 240.106 126.779C241.136 127.874 242.488 130.771 242.037 132.187L242.681 132.638C242.681 132.638 243.067 130.063 244.483 129.612C245.9 129.161 247.058 132.058 246.093 134.054C245.063 136.05 243.904 135.728 243.904 135.728C243.904 135.728 244.483 139.204 245.964 140.363L246.415 143.968L237.08 144.547Z"/><path fill="#263238" stroke="#263238" stroke-linecap="round" stroke-linejoin="round" stroke-miterlimit="10" stroke-width=".322" d="M232.381 141.715C232.381 141.715 234.505 142.23 239.204 140.363C243.904 138.431 243.968 135.728 243.968 135.728L244.161 136.114C244.161 136.114 243.775 140.363 237.144 142.165C231.801 143.646 231.801 142.551 231.801 142.551L232.381 141.715Z"/><path stroke="#263238" stroke-linecap="round" stroke-linejoin="round" stroke-miterlimit="10" stroke-width=".644" d="M237.08 144.547V142.101C237.08 142.101 232.896 142.745 232.316 141.65C231.737 140.556 232.702 136.114 232.702 136.114C232.702 136.114 230.707 136.178 230.707 135.277C230.707 134.311 233.089 130.384 233.089 130.384C233.089 130.384 232.831 127.23 233.089 126.2C233.346 125.17 236.308 119.505 236.308 119.505C236.308 119.505 240.621 121.887 240.492 123.174C240.363 124.462 239.14 125.685 240.106 126.779C241.136 127.874 242.488 130.771 242.037 132.187L242.681 132.638C242.681 132.638 243.067 130.063 244.483 129.612C245.9 129.161 247.058 132.058 246.093 134.054C245.063 136.05 243.904 135.728 243.904 135.728C243.904 135.728 244.483 139.204 245.964 140.363L246.415 143.968L237.08 144.547Z"/><path stroke="#263238" stroke-linecap="round" stroke-linejoin="round" stroke-miterlimit="10" stroke-width=".483" d="M236.887 136.178C236.887 136.178 236.178 138.495 233.861 137.272"/><path stroke="#263238" stroke-linecap="round" stroke-linejoin="round" stroke-miterlimit="10" stroke-width=".483" d="M234.312 127.165C234.312 127.165 235.792 126.972 236.307 128.453"/><path fill="#2E353A" d="M233.861 129.611C233.861 130.062 234.054 130.448 234.312 130.448C234.569 130.448 234.762 130.062 234.762 129.611C234.762 129.161 234.569 128.774 234.312 128.774C234.054 128.774 233.861 129.161 233.861 129.611Z"/><path fill="#FFE9B1" d="M261.028 158.581C261.028 158.581 273.195 183.623 270.62 187.486C268.045 191.348 256.908 204.095 256.908 204.095L252.401 198.945L261.414 183.623L256.715 174.16C256.779 174.16 254.655 166.692 261.028 158.581Z"/><path fill="#000" d="M261.607 162.765C261.607 162.765 262.38 171.263 261.607 175.64C260.835 180.018 265.727 180.469 265.148 183.044C264.568 185.619 256.521 189.353 256.972 204.159C257.487 218.901 251.5 179.052 251.5 179.052L255.878 163.345L258.968 159.225L261.607 162.765Z" opacity=".2"/><path stroke="#263238" stroke-linecap="round" stroke-linejoin="round" stroke-miterlimit="10" stroke-width=".644" d="M261.028 158.581C261.028 158.581 273.195 183.623 270.62 187.486C268.045 191.348 256.908 204.095 256.908 204.095L252.401 198.945L261.414 183.623L256.715 174.16C256.779 174.16 254.655 166.692 261.028 158.581Z"/><path stroke="#263238" stroke-linecap="round" stroke-linejoin="round" stroke-miterlimit="10" stroke-width=".483" d="M263.024 183.302C263.024 183.302 265.084 182.658 267.208 183.302"/><path fill="#FFE9B1" stroke="#263238" stroke-linecap="round" stroke-linejoin="round" stroke-miterlimit="10" stroke-width=".644" d="M234.247 148.216L237.144 143.452C237.144 143.452 245.191 140.169 249.247 143.452L251.5 149.826L234.247 148.216Z"/><path fill="#FFE9B1" d="M222.66 203.515L225.042 183.751L224.076 154.138C224.012 151.499 225.686 149.117 228.261 148.344C236.436 145.963 253.947 143.066 261.028 158.58C261.607 159.868 261.801 161.348 261.543 162.765L256.715 190.446L258.002 205.51C258.067 205.51 242.423 217.034 222.66 203.515Z"/><path stroke="#263238" stroke-linecap="round" stroke-linejoin="round" stroke-miterlimit="10" stroke-width=".644" d="M222.66 203.515L225.042 183.751L224.076 154.138C224.012 151.499 225.686 149.117 228.261 148.344C236.436 145.963 253.947 143.066 261.028 158.58C261.607 159.868 261.801 161.348 261.543 162.765L256.715 190.446L258.002 205.51C258.067 205.51 242.423 217.034 222.66 203.515Z"/><path stroke="#263238" stroke-linecap="round" stroke-linejoin="round" stroke-miterlimit="10" stroke-width=".483" d="M254.977 191.026C254.977 191.026 230.836 196.176 229.548 191.026C228.261 185.876 236.307 189.095 242.809 188.258"/><path fill="#fff" stroke="#263238" stroke-linecap="round" stroke-linejoin="round" stroke-miterlimit="10" stroke-width=".644" d="M195.236 160.576L187.51 157.808C187.51 157.808 185.515 152.529 184.034 151.435C182.553 150.34 180.815 148.216 180.365 149.053C180.043 149.632 180.944 151.177 182.167 152.207C183.519 153.366 182.94 154.847 182.682 155.426C182.425 156.07 180.236 157.036 178.498 157.615C176.76 158.194 172.704 156.714 171.674 157.744C170.644 158.774 173.283 159.16 173.283 159.16C173.283 159.16 171.288 159.289 171.095 160.448C170.966 161.156 172.961 160.705 173.927 160.576C174.893 160.448 176.953 160.319 176.953 160.319C176.953 160.319 173.541 161.478 173.798 162.443C174.056 163.409 176.438 161.928 178.433 161.606C178.433 161.606 175.73 162.958 176.116 163.795C176.438 164.696 177.725 163.409 180.043 162.508L184.871 161.413L192.725 165.662L195.236 160.576Z"/><path stroke="#263238" stroke-linecap="round" stroke-linejoin="round" stroke-miterlimit="10" stroke-width=".483" d="M173.992 159.096C173.992 159.096 175.858 159.546 177.339 159.418"/><path fill="#FFE9B1" d="M227.488 148.988C226.973 148.795 226.394 148.924 226.007 149.31L212.167 163.988L189.506 157.743L186.996 164.052C186.996 164.052 204.184 173.644 212.875 173.129C219.505 172.743 227.617 165.597 231.093 162.185C232.252 161.026 232.831 159.353 232.509 157.743"/><path stroke="#263238" stroke-linecap="round" stroke-linejoin="round" stroke-miterlimit="10" stroke-width=".644" d="M227.488 148.988C226.973 148.795 226.394 148.924 226.007 149.31L212.167 163.988L189.506 157.743L186.996 164.052C186.996 164.052 204.184 173.644 212.875 173.129C219.505 172.743 227.617 165.597 231.093 162.185C232.252 161.026 232.831 159.353 232.509 157.743"/><path fill="#fff" stroke="#263238" stroke-linecap="round" stroke-linejoin="round" stroke-miterlimit="10" stroke-width=".483" d="M191.824 163.409C191.888 163.795 191.63 164.246 191.18 164.31C190.794 164.374 190.343 164.117 190.279 163.666C190.214 163.28 190.472 162.829 190.922 162.765C191.373 162.701 191.759 163.023 191.824 163.409Z"/><path stroke="#263238" stroke-linecap="round" stroke-linejoin="round" stroke-miterlimit="10" stroke-width=".483" d="M211.973 168.366C212.682 166.499 211.716 164.89 212.746 164.697C213.84 164.504 213.84 167.787 215.579 167.722"/><path fill="#fff" stroke="#263238" stroke-linecap="round" stroke-linejoin="round" stroke-miterlimit="10" stroke-width=".483" d="M106.976 297.44L90.7533 295.637V258.878L99.1222 253.857V251.99H76.7837V253.793L85.1526 258.75V295.508L68.8011 297.44C67.3204 297.633 66.1617 298.856 66.1617 300.401V301.882H109.615V300.401C109.68 298.856 108.521 297.568 106.976 297.44Z"/><path fill="#fff" stroke="#263238" stroke-linecap="round" stroke-linejoin="round" stroke-miterlimit="10" stroke-width=".483" d="M71.8912 230.425H67.4492V250.574H71.8912V230.425Z"/><path fill="#263238" stroke="#263238" stroke-linecap="round" stroke-linejoin="round" stroke-miterlimit="10" stroke-width=".644" d="M111.482 254.823H64.2947C62.7496 254.823 61.5265 253.6 61.5265 252.055V249.287C61.5265 247.742 62.7496 246.519 64.2947 246.519H111.482C113.027 246.519 114.25 247.742 114.25 249.287V252.055C114.315 253.536 113.027 254.823 111.482 254.823Z"/><path fill="#263238" d="M78.9724 232.291H60.3677C57.4064 232.291 55.0245 229.91 55.0245 226.948V215.167C55.0245 212.206 57.4064 209.824 60.3677 209.824H78.9724C81.9337 209.824 84.3156 212.206 84.3156 215.167V226.948C84.3156 229.91 81.9337 232.291 78.9724 232.291Z"/><path fill="#000" d="M83.8652 232.291H65.2605C62.2992 232.291 59.9173 229.91 59.9173 226.948V215.167C59.9173 212.206 62.2992 209.824 65.2605 209.824H83.8652C86.8265 209.824 89.2084 212.206 89.2084 215.167V226.948C89.2084 229.91 86.8265 232.291 83.8652 232.291Z" opacity=".5"/><path stroke="#263238" stroke-linecap="round" stroke-linejoin="round" stroke-miterlimit="10" stroke-width=".644" d="M78.9724 232.291H60.3677C57.4064 232.291 55.0245 229.91 55.0245 226.948V215.167C55.0245 212.206 57.4064 209.824 60.3677 209.824H78.9724C81.9337 209.824 84.3156 212.206 84.3156 215.167V226.948C84.3156 229.91 81.9337 232.291 78.9724 232.291Z"/><path stroke="#263238" stroke-linecap="round" stroke-linejoin="round" stroke-miterlimit="10" stroke-width=".483" d="M104.916 245.167C105.431 244.716 106.59 243.815 109.486 242.463"/><path stroke="#263238" stroke-linecap="round" stroke-linejoin="round" stroke-miterlimit="10" stroke-width=".483" d="M107.684 240.982C107.684 240.982 103.049 244.781 103.95 245.36"/><path fill="#FEC93B" stroke="#263238" stroke-linecap="round" stroke-linejoin="round" stroke-miterlimit="10" stroke-width=".483" d="M122.426 276.711L123.843 286.883C123.843 286.883 121.139 289.071 121.01 295.123L125.774 296.797L127.061 295.123L131.31 299.565C131.31 299.565 138.842 302.977 139.872 300.659C140.902 298.342 136.718 296.732 133.242 291.711C132.34 290.423 129.25 286.754 129.25 286.754L129.572 276.132L122.426 276.711Z"/><path fill="#fff" d="M85.9895 233.451C85.9895 233.451 125.967 230.747 127.77 236.412C129.572 242.077 130.473 260.102 130.538 267.312C130.602 274.458 130.087 283.599 130.087 283.599C130.087 283.599 126.482 284.823 122.748 283.599C122.748 283.599 121.01 273.171 119.723 268.085C118.435 262.999 117.083 256.24 117.856 245.553C117.856 245.553 79.5519 251.347 79.3588 244.652C79.1013 237.892 85.9895 233.451 85.9895 233.451Z"/><path fill="#804916" d="M85.9895 233.451C85.9895 233.451 125.967 230.747 127.77 236.412C129.572 242.077 130.473 260.102 130.538 267.312C130.602 274.458 130.087 283.599 130.087 283.599C130.087 283.599 126.482 284.823 122.748 283.599C122.748 283.599 121.01 273.171 119.723 268.085C118.435 262.999 117.083 256.24 117.856 245.553C117.856 245.553 79.5519 251.347 79.3588 244.652C79.1013 237.892 85.9895 233.451 85.9895 233.451Z" opacity=".5"/><path fill="#000" d="M112.641 235.189C112.641 235.189 122.233 235.06 121.268 245.167C120.237 255.274 117.984 249.351 118.757 264.029C119.529 278.707 110.967 250.446 110.967 250.446V237.57L112.641 235.189Z" opacity=".2"/><path stroke="#263238" stroke-linecap="round" stroke-linejoin="round" stroke-miterlimit="10" stroke-width=".644" d="M85.9895 233.451C85.9895 233.451 125.967 230.747 127.77 236.412C129.572 242.077 130.473 260.102 130.538 267.312C130.602 274.458 130.087 283.599 130.087 283.599C130.087 283.599 126.482 284.823 122.748 283.599C122.748 283.599 121.01 273.171 119.723 268.085C118.435 262.999 117.083 256.24 117.856 245.553C117.856 245.553 79.5519 251.347 79.3588 244.652C79.1013 237.892 85.9895 233.451 85.9895 233.451Z"/><path stroke="#263238" stroke-linecap="round" stroke-linejoin="round" stroke-miterlimit="10" stroke-width=".483" d="M122.104 241.884C122.104 241.884 121.718 243.751 119.079 245.553"/><path fill="#FFE9B1" d="M130.988 281.218L130.731 283.922C130.731 283.922 126.16 286.368 122.104 284.115L121.268 281.475C121.268 281.475 124.036 283.342 130.988 281.218Z"/><path fill="#FFE9B1" stroke="#263238" stroke-miterlimit="10" stroke-width=".483" d="M130.988 281.218L130.731 283.922C130.731 283.922 126.16 286.368 122.104 284.115L121.268 281.475C121.268 281.475 124.036 283.342 130.988 281.218Z" opacity=".3"/><path stroke="#263238" stroke-linecap="round" stroke-linejoin="round" stroke-miterlimit="10" stroke-width=".483" d="M130.988 281.218L130.731 283.922C130.731 283.922 126.16 286.368 122.104 284.115L121.268 281.475C121.268 281.475 124.036 283.342 130.988 281.218Z"/><path stroke="#7F7F7F" stroke-linecap="round" stroke-linejoin="round" stroke-width=".644" d="M129.057 287.72C129.057 287.72 131.439 289.909 133.885 293.771"/><path fill="#FEC93B" stroke="#263238" stroke-linecap="round" stroke-linejoin="round" stroke-miterlimit="10" stroke-width=".483" d="M93.3926 269.63L88.9507 278.9C88.9507 278.9 85.4744 279.222 81.998 284.179L85.0237 288.235L87.0194 287.526L88.1138 293.578C88.1138 293.578 92.4913 300.595 94.6157 299.307C96.7402 298.02 94.2295 294.286 94.0364 288.17C93.972 286.561 93.457 281.861 93.457 281.861L99.6371 273.171L93.3926 269.63Z"/><path fill="#fff" d="M72.2131 234.931C72.2131 234.931 66.548 246.261 73.8225 247.291C81.097 248.321 103.242 247.034 103.242 247.034C103.242 247.034 98.736 254.115 95.9035 260.939C93.0066 267.698 90.174 274.715 90.174 274.715C90.174 274.715 91.3972 278.063 96.4829 278.707C96.4829 278.707 100.603 272.269 109.616 262.226C118.628 252.184 121.074 242.141 119.208 238.729C117.276 235.317 107.362 233.45 91.2684 232.678L72.2131 234.931Z"/><path fill="#804916" d="M72.2131 234.931C72.2131 234.931 66.548 246.261 73.8225 247.291C81.097 248.321 103.242 247.034 103.242 247.034C103.242 247.034 98.736 254.115 95.9035 260.939C93.0066 267.698 90.174 274.715 90.174 274.715C90.174 274.715 91.3972 278.063 96.4829 278.707C96.4829 278.707 100.603 272.269 109.616 262.226C118.628 252.184 121.074 242.141 119.208 238.729C117.276 235.317 107.362 233.45 91.2684 232.678L72.2131 234.931Z" opacity=".5"/><path stroke="#263238" stroke-linecap="round" stroke-linejoin="round" stroke-miterlimit="10" stroke-width=".644" d="M72.2131 234.931C72.2131 234.931 66.548 246.261 73.8225 247.291C81.097 248.321 103.242 247.034 103.242 247.034C103.242 247.034 98.736 254.115 95.9035 260.939C93.0066 267.698 90.174 274.715 90.174 274.715C90.174 274.715 91.3972 278.063 96.4829 278.707C96.4829 278.707 100.603 272.269 109.616 262.226C118.628 252.184 121.074 242.141 119.208 238.729C117.276 235.317 107.362 233.45 91.2684 232.678L72.2131 234.931Z"/><path fill="#FFE9B1" d="M98.092 277.676L96.3539 279.801C96.3539 279.801 91.2038 279.35 89.0794 275.23L89.8519 272.526C89.9163 272.526 91.1394 275.616 98.092 277.676Z"/><path fill="#FFE9B1" stroke="#263238" stroke-miterlimit="10" stroke-width=".483" d="M98.092 277.676L96.3539 279.801C96.3539 279.801 91.2038 279.35 89.0794 275.23L89.8519 272.526C89.9163 272.526 91.1394 275.616 98.092 277.676Z" opacity=".3"/><path stroke="#263238" stroke-linecap="round" stroke-linejoin="round" stroke-miterlimit="10" stroke-width=".483" d="M98.092 277.676L96.3539 279.801C96.3539 279.801 91.2038 279.35 89.0794 275.23L89.8519 272.526C89.9163 272.526 91.1394 275.616 98.092 277.676Z"/><path stroke="#FEC93B" stroke-linecap="round" stroke-linejoin="round" stroke-width=".644" d="M92.6202 282.698C92.8777 284.115 93.3927 286.947 93.5858 290.037"/><path fill="#263238" stroke="#263238" stroke-linecap="round" stroke-linejoin="round" stroke-miterlimit="10" stroke-width=".644" d="M90.5602 167.143C90.5602 167.143 95.5171 164.696 90.3027 161.413C85.0882 158.13 76.0112 167.143 76.0112 167.143L75.1099 171.327C75.1099 171.327 75.4962 174.675 76.7193 176.606C77.685 178.151 79.4231 178.151 80.1956 179.76C81.4188 182.142 81.0325 183.816 82.32 182.786C85.4745 180.211 86.5045 170.04 86.5045 170.04L90.5602 167.143Z"/><path fill="#fff" d="M88.6932 187.292L89.5301 182.206L83.0281 176.67L81.2256 185.039L88.6932 187.292Z"/><path fill="#263238" stroke="#263238" stroke-linecap="round" stroke-linejoin="round" stroke-miterlimit="10" stroke-width=".322" d="M82.3845 177.249C82.3845 177.249 82.8995 180.146 84.5089 181.949C86.0539 183.751 90.174 185.94 90.174 185.94L90.5602 182.464L84.1226 177.571L83.0282 176.67L82.3845 177.249Z"/><path stroke="#263238" stroke-linecap="round" stroke-linejoin="round" stroke-miterlimit="10" stroke-width=".644" d="M88.6932 187.292L89.5301 182.206L83.0281 176.67L81.2256 185.039L88.6932 187.292Z"/><path fill="#fff" d="M90.7534 165.404C90.7534 165.404 93.7147 170.554 93.6504 172.035C93.6504 172.035 97.5129 182.142 93.6504 183.816C90.6247 185.103 86.8909 182.593 85.4102 181.434C85.024 181.112 84.6377 180.726 84.4446 180.275L83.1571 178.086C83.1571 178.086 81.612 178.537 80.1958 176.541C78.7795 174.546 80.2601 172.614 81.8052 173.838C81.8052 173.838 82.9639 171.391 82.6421 170.039C82.2558 168.687 84.0583 168.687 84.1227 167.271C84.0583 167.271 88.2428 167.078 90.7534 165.404Z"/><path stroke="#263238" stroke-linecap="round" stroke-linejoin="round" stroke-miterlimit="10" stroke-width=".644" d="M90.7534 165.404C90.7534 165.404 93.7147 170.554 93.6504 172.035C93.6504 172.035 97.5129 182.142 93.6504 183.816C90.6247 185.103 86.8909 182.593 85.4102 181.434C85.024 181.112 84.6377 180.726 84.4446 180.275L83.1571 178.086C83.1571 178.086 81.612 178.537 80.1958 176.541C78.7795 174.546 80.2601 172.614 81.8052 173.838C81.8052 173.838 82.9639 171.391 82.6421 170.039C82.2558 168.687 84.0583 168.687 84.1227 167.271C84.0583 167.271 88.2428 167.078 90.7534 165.404Z"/><path stroke="#263238" stroke-linecap="round" stroke-linejoin="round" stroke-miterlimit="10" stroke-width=".483" d="M90.1738 179.31C90.1738 179.31 91.1394 180.598 93.0707 178.859"/><path stroke="#263238" stroke-linecap="round" stroke-linejoin="round" stroke-miterlimit="10" stroke-width=".483" d="M91.7834 173.258C92.1697 174.674 91.7191 175.962 90.8822 176.155C90.0453 176.348 89.0153 175.447 88.6934 174.031C88.3071 172.614 88.8865 172.099 89.7878 171.906C90.6247 171.713 91.4616 171.906 91.7834 173.258Z"/><path fill="#fff" stroke="#263238" stroke-linecap="round" stroke-linejoin="round" stroke-miterlimit="10" stroke-width=".483" d="M95.7101 172.164C96.0964 173.58 95.7745 174.803 95.0664 174.996C94.3582 175.189 93.5213 174.224 93.1351 172.807C92.7488 171.391 93.1994 170.941 93.9076 170.747C94.6801 170.554 95.3882 170.747 95.7101 172.164Z"/><path stroke="#263238" stroke-linecap="round" stroke-linejoin="round" stroke-miterlimit="10" stroke-width=".483" d="M88.1782 171.906C88.1782 171.906 89.0151 170.168 90.8176 171.005"/><path stroke="#263238" stroke-linecap="round" stroke-linejoin="round" stroke-miterlimit="10" stroke-width=".483" d="M92.4915 170.49C92.4915 170.49 92.6202 169.782 93.3283 169.524"/><path stroke="#263238" stroke-linecap="round" stroke-linejoin="round" stroke-miterlimit="10" stroke-width=".483" d="M88.6933 174.095L87.0195 174.739L81.7407 173.773"/><path stroke="#263238" stroke-linecap="round" stroke-linejoin="round" stroke-miterlimit="10" stroke-width=".483" d="M93.1351 172.55L91.7832 173.065"/><path fill="#263238" d="M91.0752 173.58C91.1395 174.031 90.9464 174.417 90.6889 174.417C90.4314 174.417 90.1739 174.095 90.1095 173.709C90.0451 173.258 90.2383 172.872 90.4958 172.872C90.7533 172.872 91.0108 173.194 91.0752 173.58Z"/><path fill="#263238" d="M94.294 172.421C94.3584 172.872 94.2296 173.194 94.0365 173.258C93.8433 173.258 93.6502 172.936 93.5858 172.55C93.5215 172.099 93.6502 171.777 93.8433 171.713C94.0365 171.713 94.2296 172.035 94.294 172.421Z"/><path fill="#fff" d="M92.8134 172.679L95.5171 175.061C95.7746 175.318 95.7746 175.769 95.4528 175.962L94.0365 176.863"/><path stroke="#263238" stroke-linecap="round" stroke-linejoin="round" stroke-miterlimit="10" stroke-width=".483" d="M92.8134 172.679L95.5171 175.061C95.7746 175.318 95.7746 175.769 95.4528 175.962L94.0365 176.863"/><path fill="#263238" stroke="#263238" stroke-linecap="round" stroke-linejoin="round" stroke-miterlimit="10" stroke-width=".644" d="M77.4918 167.336C77.4918 167.336 77.0412 158.774 70.346 162.186C63.7153 165.598 70.0242 175.641 68.0929 177.829C66.0972 180.018 69.8954 179.053 70.346 177.443C70.7967 175.834 70.4104 180.147 71.3761 180.276C72.2773 180.404 72.4705 176.606 73.3073 176.606C74.1442 176.606 73.0498 178.988 73.758 179.246C74.4661 179.503 76.0755 174.546 76.5261 171.842C76.9124 169.139 77.4918 167.336 77.4918 167.336Z"/><path fill="#FFE9B1" stroke="#263238" stroke-linecap="round" stroke-linejoin="round" stroke-miterlimit="10" stroke-width=".644" d="M77.492 166.177C77.492 166.177 75.1745 168.752 76.0757 175.189C76.0757 175.189 71.5694 168.623 77.492 166.177Z"/><path fill="#263238" stroke="#263238" stroke-linecap="round" stroke-linejoin="round" stroke-miterlimit="10" stroke-width=".483" d="M82.9637 167.143C82.9637 167.143 85.5388 167.851 85.8607 169.976C86.2469 172.1 87.4701 165.083 82.9637 167.143Z"/><path fill="#263238" stroke="#263238" stroke-linecap="round" stroke-linejoin="round" stroke-miterlimit="10" stroke-width=".483" d="M91.5258 166.692C91.5258 166.692 94.294 165.855 95.1309 167.657C95.1309 167.657 94.7446 163.28 91.5258 166.692Z"/><path fill="#fff" stroke="#263238" stroke-linecap="round" stroke-linejoin="round" stroke-miterlimit="10" stroke-width=".644" d="M113.671 164.825C114.25 164.696 114.83 165.405 114.83 165.405C115.409 164.375 116.375 166.113 116.375 166.113C117.212 165.147 117.598 167.271 117.598 167.271C117.598 167.271 118.435 167.078 118.371 168.173C118.242 169.589 116.568 172.872 116.568 172.872L115.474 178.409L111.418 177.958L112.705 172.615C112.705 172.615 112.19 171.585 111.547 170.297C111.547 170.297 110.774 168.623 110.903 167.271C111.032 165.984 113.092 165.018 113.671 164.825Z"/><path fill="#fff" d="M113.671 166.177C113.671 166.177 114.894 168.687 114.701 166.177C114.701 166.177 115.602 169.331 116.117 166.756C116.117 166.756 115.796 169.653 116.954 168.044C116.954 168.044 116.439 168.945 116.697 169.331C116.89 169.717 117.534 169.074 117.534 169.074"/><path stroke="#263238" stroke-linecap="round" stroke-linejoin="round" stroke-miterlimit="10" stroke-width=".483" d="M113.671 166.177C113.671 166.177 114.894 168.687 114.701 166.177C114.701 166.177 115.602 169.331 116.117 166.756C116.117 166.756 115.796 169.653 116.954 168.044C116.954 168.044 116.439 168.945 116.697 169.331C116.89 169.717 117.534 169.074 117.534 169.074"/><path fill="#FFD3AB" d="M93.9077 189.031L106.847 189.288L111.74 175.77L116.053 177.25C116.053 177.25 113.864 194.374 111.676 195.404C109.487 196.434 96.0965 197.85 96.0965 197.85C96.0965 197.85 91.9121 193.344 93.9077 189.031Z"/><path fill="#000" d="M92.8132 188.645C92.8132 188.645 96.2895 189.16 98.5427 192.958C100.731 196.756 107.298 196.434 107.298 196.434L109.551 199.588L100.088 202.872L93.1351 200.49L89.5944 193.601V191.606L92.8132 188.645Z" opacity=".2"/><path stroke="#263238" stroke-linecap="round" stroke-linejoin="round" stroke-miterlimit="10" stroke-width=".644" d="M93.9077 189.031L106.847 189.288L111.74 175.77L116.053 177.25C116.053 177.25 113.864 194.374 111.676 195.404C109.487 196.434 96.0965 197.85 96.0965 197.85C96.0965 197.85 91.9121 193.344 93.9077 189.031Z"/><path fill="#FFD3AB" stroke="#263238" stroke-linecap="round" stroke-linejoin="round" stroke-miterlimit="10" stroke-width=".644" d="M110.967 176.864L115.989 178.537L116.311 176.284L111.547 174.739L110.967 176.864Z"/><path fill="#fff" stroke="#263238" stroke-linecap="round" stroke-linejoin="round" stroke-miterlimit="10" stroke-width=".483" d="M118.049 170.684C116.117 171.134 114.186 169.911 113.735 167.98L108.714 146.156L115.795 144.547L120.817 166.37C121.203 168.302 119.98 170.233 118.049 170.684Z"/><path fill="#FFD3AB" d="M115.087 146.349H110.452V149.696H115.087V146.349Z"/><path fill="#fff" d="M114.654 145.886L110.136 146.92L110.882 150.183L115.401 149.15L114.654 145.886Z" opacity=".7"/><path fill="#FFD3AB" d="M116.052 150.34H111.417V153.687H116.052V150.34Z"/><path fill="#fff" d="M115.614 149.868L111.096 150.901L111.843 154.165L116.361 153.131L115.614 149.868Z" opacity=".3"/><path fill="#FFD3AB" d="M116.526 153.925L112.008 154.959L112.755 158.222L117.273 157.189L116.526 153.925Z"/><path fill="#FFD3AB" d="M117.855 158.387H113.22V161.734H117.855V158.387Z"/><path fill="#000" d="M117.424 157.92L112.906 158.954L113.652 162.217L118.17 161.184L117.424 157.92Z" opacity=".2"/><path fill="#FFD3AB" d="M118.756 162.378H114.121V165.725H118.756V162.378Z"/><path fill="#000" d="M118.33 161.907L113.812 162.941L114.559 166.205L119.077 165.171L118.33 161.907Z" opacity=".3"/><path fill="#fff" d="M111.933 166.821C111.933 166.821 112.19 165.662 113.285 166.434C114.315 167.207 115.86 167.465 115.667 167.915C115.474 168.366 115.087 168.688 113.607 168.108C113.607 168.108 113.349 168.237 113.736 168.752C114.186 169.331 114.701 170.04 114.701 170.619"/><path stroke="#263238" stroke-linecap="round" stroke-linejoin="round" stroke-miterlimit="10" stroke-width=".483" d="M111.933 166.821C111.933 166.821 112.19 165.662 113.285 166.434C114.315 167.207 115.86 167.465 115.667 167.915C115.474 168.366 115.087 168.688 113.607 168.108C113.607 168.108 113.349 168.237 113.736 168.752C114.186 169.331 114.701 170.04 114.701 170.619"/><path fill="#FFD3AB" d="M69.7669 189.352L73.8226 225.532L71.2475 236.411C71.2475 236.411 73.9513 236.991 81.4833 234.673C89.0153 232.291 97.0623 232.999 97.0623 232.999C97.0623 232.999 100.41 208.923 99.058 201.391C97.7061 193.859 93.9723 189.031 93.9723 189.031C93.9723 189.031 79.552 182.722 70.7325 187.55C70.0244 187.936 69.7025 188.644 69.7669 189.352Z"/><path fill="#000" d="M75.7537 198.365C75.7537 198.365 77.7494 205.768 77.4275 210.275C77.1056 214.781 87.792 213.815 87.277 216.906C86.762 219.996 76.7194 223.343 76.3975 226.176C76.0756 229.008 72.3418 235.961 83.5432 234.094C94.7446 232.227 75.1743 242.527 75.1743 242.527L58.1791 239.051L63.9085 224.051L69.7668 199.202L75.7537 198.365Z" opacity=".12"/><path stroke="#263238" stroke-linecap="round" stroke-linejoin="round" stroke-miterlimit="10" stroke-width=".644" d="M69.7669 189.352L73.8226 225.532L71.2475 236.411C71.2475 236.411 73.9513 236.991 81.4833 234.673C89.0153 232.291 97.0623 232.999 97.0623 232.999C97.0623 232.999 100.41 208.923 99.058 201.391C97.7061 193.859 93.9723 189.031 93.9723 189.031C93.9723 189.031 79.552 182.722 70.7325 187.55C70.0244 187.936 69.7025 188.644 69.7669 189.352Z"/><path fill="#FFD3AB" stroke="#263238" stroke-linecap="round" stroke-linejoin="round" stroke-miterlimit="10" stroke-width=".644" d="M78.9081 185.941L80.8394 182.207C80.8394 182.207 83.8651 183.237 87.4702 184.074C91.1396 184.846 90.2383 185.941 90.2383 185.941L89.3371 188.773C89.2727 188.773 87.8564 190.19 78.9081 185.941Z"/><path stroke="#263238" stroke-linecap="round" stroke-linejoin="round" stroke-miterlimit="10" stroke-width=".644" d="M71.8268 214.008C71.8268 214.008 73.8868 212.399 74.4018 213.043C74.9168 213.751 73.8224 213.493 72.9856 215.875"/><path fill="#fff" stroke="#263238" stroke-linecap="round" stroke-linejoin="round" stroke-miterlimit="10" stroke-width=".483" d="M90.3671 231.197C90.0452 229.652 91.0752 228.107 92.6846 227.785L110.324 224.373L111.418 230.038L93.779 233.45C92.1696 233.772 90.689 232.742 90.3671 231.197Z"/><path fill="#FFE9B1" d="M110.517 226.305H106.783V228.944H110.517V226.305Z"/><path fill="#fff" d="M110.287 229.201L109.581 225.534L106.99 226.033L107.695 229.699L110.287 229.201Z" opacity=".7"/><path fill="#FFE9B1" d="M107.298 226.884H103.564V229.523H107.298V226.884Z"/><path fill="#fff" d="M107.099 229.827L106.394 226.16L103.802 226.659L104.507 230.325L107.099 229.827Z" opacity=".3"/><path fill="#FFE9B1" d="M103.848 230.464L103.143 226.798L100.551 227.296L101.256 230.963L103.848 230.464Z"/><path fill="#FFE9B1" d="M100.796 228.171H97.0619V230.81H100.796V228.171Z"/><path fill="#000" d="M100.585 231.04L99.8801 227.373L97.2882 227.872L97.9935 231.538L100.585 231.04Z" opacity=".2"/><path fill="#FFE9B1" d="M97.5772 228.75H93.8434V231.389H97.5772V228.75Z"/><path fill="#000" d="M97.3983 231.666L96.693 227.999L94.1011 228.498L94.8064 232.164L97.3983 231.666Z" opacity=".3"/><path fill="#fff" stroke="#263238" stroke-linecap="round" stroke-linejoin="round" stroke-miterlimit="10" stroke-width=".483" d="M91.075 231.905C90.045 230.682 90.1737 228.879 91.3969 227.849L104.98 216.133L108.778 220.51L95.1951 232.227C93.9075 233.257 92.105 233.128 91.075 231.905Z"/><path fill="#FFE9B1" d="M106.976 218.386H103.242V221.025H106.976V218.386Z"/><path fill="#fff" d="M107.323 220.247L104.879 217.424L102.884 219.152L105.328 221.974L107.323 220.247Z" opacity=".7"/><path fill="#FFE9B1" d="M104.53 220.511H100.796V223.15H104.53V220.511Z"/><path fill="#fff" d="M104.887 222.414L102.443 219.591L100.447 221.319L102.891 224.141L104.887 222.414Z" opacity=".3"/><path fill="#FFE9B1" d="M102.358 224.573L99.9141 221.75L97.9187 223.478L100.363 226.301L102.358 224.573Z"/><path fill="#FFE9B1" d="M99.5085 224.823H95.7747V227.463H99.5085V224.823Z"/><path fill="#000" d="M99.8782 226.69L97.434 223.867L95.4386 225.595L97.8828 228.418L99.8782 226.69Z" opacity=".2"/><path fill="#FFE9B1" d="M97.062 227.012H93.3282V229.651H97.062V227.012Z"/><path fill="#000" d="M97.3911 228.898L94.947 226.075L92.9516 227.803L95.3957 230.626L97.3911 228.898Z" opacity=".3"/><path fill="#fff" stroke="#263238" stroke-linecap="round" stroke-linejoin="round" stroke-miterlimit="10" stroke-width=".483" d="M91.5901 232.034C90.1095 231.519 89.2726 229.845 89.7876 228.364L95.6458 211.434L101.118 213.3L95.2595 230.231C94.7445 231.776 93.1351 232.549 91.5901 232.034Z"/><path fill="#FFE9B1" d="M99.572 213.106H95.8382V215.746H99.572V213.106Z"/><path fill="#fff" d="M99.8915 213.804L96.3634 212.582L95.4993 215.076L99.0273 216.298L99.8915 213.804Z" opacity=".7"/><path fill="#FFE9B1" d="M98.4776 216.196H94.7438V218.836H98.4776V216.196Z"/><path fill="#fff" d="M98.8043 216.889L95.2762 215.667L94.4121 218.161L97.9402 219.383L98.8043 216.889Z" opacity=".3"/><path fill="#FFE9B1" d="M97.7181 219.975L94.1901 218.753L93.3259 221.247L96.854 222.469L97.7181 219.975Z"/><path fill="#FFE9B1" d="M96.2888 222.441H92.555V225.081H96.2888V222.441Z"/><path fill="#000" d="M96.6088 223.122L93.0807 221.899L92.2165 224.393L95.7446 225.616L96.6088 223.122Z" opacity=".2"/><path fill="#FFE9B1" d="M95.2588 225.531H91.525V228.171H95.2588V225.531Z"/><path fill="#000" d="M95.5823 226.228L92.0543 225.006L91.1901 227.5L94.7182 228.722L95.5823 226.228Z" opacity=".3"/><path fill="#fff" stroke="#263238" stroke-linecap="round" stroke-linejoin="round" stroke-miterlimit="10" stroke-width=".644" d="M84.8305 221.411L89.723 224.952C89.723 224.952 95.2594 224.952 96.2894 226.497C97.3194 227.977 97.5769 229.716 96.6756 230.295C95.7744 230.874 97.1263 228.686 94.6156 227.527C94.6156 227.527 95.9031 233.385 93.65 232.098C93.65 232.098 93.3281 233.063 92.4912 232.162C92.4912 232.162 92.7487 231.003 92.1693 230.038C91.9118 229.587 91.7187 229.265 91.0106 229.136C91.0106 229.136 92.5556 231.261 91.5256 231.84C90.6887 232.291 90.238 229.201 89.1437 228.879C89.1437 228.879 87.2124 228.814 86.2467 226.947L82.4485 224.952L84.8305 221.411Z"/><path stroke="#263238" stroke-linecap="round" stroke-linejoin="round" stroke-miterlimit="10" stroke-width=".483" d="M93.843 231.261C93.9074 230.682 93.9074 229.458 93.0061 228.235"/><path stroke="#263238" stroke-linecap="round" stroke-linejoin="round" stroke-miterlimit="10" stroke-width=".483" d="M95.0662 226.562C95.0662 226.562 94.9375 227.012 93.9719 226.883C93.2637 226.819 92.1693 228.3 91.0106 228.107"/><path fill="#FFD3AB" d="M70.7966 188.322C70.5391 188 70.0241 188.065 69.831 188.451C68.801 191.155 65.904 200.296 67.4491 216.455C67.4491 216.455 68.6722 219.738 83.0924 226.047L85.8606 221.798L75.2386 213.171C75.2386 213.171 76.6548 201.584 75.5604 197.271"/><path stroke="#263238" stroke-linecap="round" stroke-linejoin="round" stroke-miterlimit="10" stroke-width=".644" d="M70.7966 188.322C70.5391 188 70.0241 188.065 69.831 188.451C68.801 191.155 65.904 200.296 67.4491 216.455C67.4491 216.455 68.6722 219.738 83.0924 226.047L85.8606 221.798L75.2386 213.171C75.2386 213.171 76.6548 201.584 75.5604 197.271"/><path fill="#FFE9B1" stroke="#263238" stroke-linecap="round" stroke-linejoin="round" stroke-miterlimit="10" stroke-width=".644" d="M85.2813 220.896L81.9337 226.24L84.5731 227.205L87.3413 222.506L85.2813 220.896Z"/><path fill="#fff" stroke="#08090C" stroke-miterlimit="10" stroke-width=".644" d="M67.0628 153.753L61.6553 144.29C64.0372 140.427 65.3891 135.856 65.3891 131.028C65.3891 117.059 54.0589 105.664 40.0249 105.664C26.0553 105.664 14.7252 116.994 14.7252 131.028C14.7252 144.998 26.0553 156.392 40.0893 156.392C45.9475 156.392 51.2907 154.397 55.6039 151.114L67.0628 153.753Z"/><path fill="#F57903" stroke="#141823" stroke-miterlimit="10" stroke-width=".644" d="M45.0463 118.99H47.7501C49.0376 118.99 50.0676 120.02 50.0676 121.308C50.0676 127.488 50.0676 136.243 50.0676 136.243L33.7805 135.985V121.308C33.7805 120.02 32.7505 118.99 31.463 118.99H45.0463Z"/><g opacity=".3"><path fill="#000" stroke="#141823" stroke-miterlimit="10" stroke-width=".644" d="M45.0463 118.99H47.7501C49.0376 118.99 50.0676 120.02 50.0676 121.308C50.0676 127.488 50.0676 136.243 50.0676 136.243L33.7805 135.985V121.308C33.7805 120.02 32.7505 118.99 31.463 118.99H45.0463Z" opacity=".3"/></g><path fill="#F57903" stroke="#141823" stroke-miterlimit="10" stroke-width=".644" d="M29.6604 121.372C29.6604 120.085 30.6904 119.055 31.9779 119.055H34.6817H48.2007C46.9132 119.055 45.8831 120.085 45.8831 121.372V143.067C45.8831 143.582 45.3681 143.904 44.9175 143.646L37.7718 139.655L30.626 143.324C30.1754 143.582 29.6604 143.26 29.6604 142.745C29.596 138.947 29.6604 126.522 29.6604 121.372Z"/><path fill="#fff" stroke="#141823" stroke-miterlimit="10" stroke-width=".644" d="M37.772 127.359L37.1926 128.582C37.1283 128.711 37.0639 128.775 36.9351 128.775L35.5832 128.969C35.3257 129.033 35.197 129.355 35.3901 129.548L36.3557 130.514C36.4201 130.578 36.4845 130.707 36.4845 130.835L36.227 132.187C36.1626 132.445 36.4845 132.702 36.742 132.574L37.9008 131.93C38.0295 131.865 38.0939 131.865 38.2227 131.93L39.3814 132.574C39.6389 132.702 39.8964 132.509 39.8964 132.187L39.6389 130.835C39.6389 130.707 39.6389 130.642 39.7677 130.514L40.7333 129.548C40.9264 129.355 40.7977 129.033 40.5402 128.969L39.1883 128.775C39.0595 128.775 38.9952 128.711 38.9308 128.582L38.3514 127.359C38.2227 127.102 37.9008 127.102 37.772 127.359Z"/><path fill="#D1F3EF" d="M65.7206 65.3748C66.4625 62.233 64.517 59.0847 61.3752 58.3429C58.2334 57.601 55.0851 59.5465 54.3433 62.6883C53.6014 65.83 55.5469 68.9783 58.6887 69.7202C61.8304 70.4621 64.9788 68.5166 65.7206 65.3748Z"/><path fill="#FFE9B1" d="M14.7716 273C14.5688 273.406 14.5012 273.676 14.366 273.946C14.028 275.096 13.0816 275.636 12 276.177C13.9604 276.448 14.0956 278.273 15.042 279.287C15.2448 278.273 15.5152 277.326 16.5292 276.853C16.6644 276.786 16.732 276.65 16.8672 276.583C17.1376 276.448 17.408 276.38 17.6108 276.245C17.5432 276.11 17.5432 275.907 17.4756 275.772C15.8532 275.704 15.6504 274.014 14.7716 273Z"/><path fill="#FFE9B1" d="M313.242 230.381C312.978 227.409 310.354 225.214 307.382 225.478C304.409 225.742 302.214 228.366 302.478 231.338C302.742 234.31 305.366 236.506 308.338 236.241C311.31 235.977 313.506 233.354 313.242 230.381Z"/><path fill="#FFBE80" d="M168.648 13.2956C164.978 13.2956 162 10.3176 162 6.64781C162 2.97797 164.978 0 168.648 0C172.318 0 175.296 2.97797 175.296 6.64781C175.296 10.3176 172.308 13.2956 168.648 13.2956ZM168.648 0.782089C165.409 0.782089 162.782 3.41916 162.782 6.64781C162.782 9.88649 165.419 12.5135 168.648 12.5135C171.886 12.5135 174.514 9.88649 174.514 6.64781C174.514 3.41916 171.876 0.782089 168.648 0.782089Z"/></svg>