<svg xmlns="http://www.w3.org/2000/svg" width="319" height="302" fill="none" viewBox="0 0 319 302"><path fill="#FFE9B1" d="M32.9058 112.032C31.2645 113.29 31.4663 116.97 32.0827 118.694C32.1397 118.84 33.2465 121.101 33.2762 121.033L33.3249 121.014C33.3391 121.626 33.4021 122.219 33.4353 122.879C33.5315 124.132 33.6847 125.531 33.9139 127.125C34.1728 128.651 34.44 130.342 34.9399 132.054C35.3912 133.786 36.0266 135.558 36.846 137.37L36.865 137.419C36.4612 136.959 35.2772 135.794 35.1905 135.716C33.7927 134.578 30.3297 133.18 28.6314 134.292C27.382 135.116 27.3 136.775 28.1836 137.889C29.0672 139.003 30.87 139.309 32.2096 139.292C33.763 139.246 36.7653 137.738 36.9897 137.594C37.8198 139.29 38.796 140.929 39.8696 142.53C40.5121 143.458 41.1546 144.385 41.7781 145.264C41.4123 144.902 41.0655 144.588 41.0465 144.54C39.6487 143.402 36.1857 142.004 34.4874 143.116C33.238 143.94 33.1561 145.599 34.0396 146.713C34.9232 147.827 36.726 148.133 38.0656 148.115C39.4539 148.079 42.0073 146.858 42.7187 146.524C42.968 146.876 43.2174 147.227 43.5155 147.56C44.7732 149.201 46.0308 150.842 47.1911 152.522C47.5842 153.098 47.9773 153.674 48.3894 154.298C48.0426 153.985 47.7635 153.701 47.7445 153.652C46.3467 152.514 42.8837 151.117 41.1854 152.228C39.936 153.052 39.8541 154.711 40.7377 155.825C41.6212 156.939 43.424 157.246 44.7636 157.228C46.0842 157.162 48.4618 156.065 49.2706 155.694C49.6827 156.318 50.0271 156.913 50.3715 157.508C50.5912 157.928 50.8596 158.328 51.0306 158.766C51.2503 159.185 51.4213 159.623 51.641 160.043C52.0127 160.851 52.4034 161.709 52.7265 162.537C52.9545 163.121 53.1635 163.657 53.4212 164.173C53.0281 163.597 52.1932 162.464 52.1065 162.386C51.299 161.467 49.59 160.394 48.0117 159.944C47.906 159.817 47.7516 159.709 47.5972 159.601C46.4785 158.747 44.798 158.898 44.0012 160.163C42.9477 161.92 44.4429 165.32 45.6542 166.699C45.7409 166.778 46.6079 167.561 47.1471 168.08C46.7706 167.835 46.3941 167.589 46.0177 167.343C45.2647 166.851 44.4631 166.379 43.6615 165.906C43.2363 165.679 42.8598 165.433 42.4347 165.206C42.0095 164.979 41.5843 164.753 41.1105 164.545C40.0761 164.051 38.993 163.576 37.9289 163.149C38.3422 162.483 39.8279 160.108 40.0239 158.741C40.2198 157.374 40.0987 155.626 39.1178 154.55C38.1071 153.542 36.448 153.46 35.4778 154.568C34.1833 156.139 35.1238 159.699 36.1297 161.271C36.1677 161.368 37.0133 162.385 37.455 162.942C36.7971 162.693 36.1392 162.445 35.4813 162.197C33.5265 161.501 31.5907 160.854 29.6062 160.225C29.0159 160.007 28.377 159.807 27.8058 159.638C27.9435 159.415 29.7725 156.626 30.0088 155.075C30.2048 153.708 30.0837 151.96 29.1027 150.884C28.0921 149.875 26.433 149.793 25.4627 150.901C24.1682 152.473 25.1088 156.033 26.1146 157.604C26.2203 157.731 27.3533 159.197 27.7191 159.559C26.4222 159.111 25.0767 158.683 23.8095 158.167C22.0198 157.463 20.3762 156.702 18.7919 155.805C18.8703 155.718 20.7586 152.793 20.9949 151.242C21.1909 149.875 21.0698 148.127 20.0888 147.051C19.0782 146.043 17.4191 145.961 16.4488 147.069C15.1543 148.64 16.0949 152.201 17.1008 153.772C17.1388 153.869 18.09 155.013 18.5128 155.521C18.4831 155.589 18.4641 155.54 18.4344 155.608C16.7635 154.633 15.2683 153.533 13.8705 152.395C13.1092 151.739 12.348 151.082 11.6841 150.387C12.1057 149.886 13.9406 147.543 14.3016 146.168C14.633 144.86 14.7256 143.085 13.8231 141.922C12.9395 140.808 11.3208 140.542 10.2448 141.523C8.77691 142.937 9.35762 146.582 10.1201 148.248C10.1581 148.346 10.7139 149.195 11.1259 149.819C10.8279 149.487 10.5001 149.222 10.202 148.89C9.15335 147.784 8.22108 146.689 7.39452 145.721C6.95273 145.164 6.52996 144.656 6.17487 144.177C6.2877 143.46 6.85538 140.601 6.55612 139.259C6.25685 137.917 5.51343 136.3 4.20826 135.687C2.92209 135.123 1.32595 135.633 0.848521 136.998C0.201259 138.934 2.36979 141.903 3.86498 143.003C4.01937 143.111 6.13449 144.361 6.16418 144.293L6.14518 144.245C6.50026 144.723 6.85536 145.202 7.29714 145.759C8.07501 146.746 8.95859 147.86 10.0262 149.014C11.0939 150.169 12.2482 151.401 13.5973 152.558C14.9464 153.715 16.4309 154.931 18.1019 155.906L18.1696 155.936C17.5983 155.766 15.9606 155.451 15.7956 155.459C13.9821 155.269 10.3456 156.015 9.51431 157.911C8.92049 159.264 9.77199 160.728 11.1175 161.156C12.5118 161.566 14.1483 160.871 15.2516 160.104C16.5307 159.212 18.2052 156.315 18.2943 156.111C19.8975 157.057 21.6279 157.896 23.4366 158.649C24.452 159.095 25.4971 159.472 26.5612 159.899C26.0766 159.807 25.5921 159.716 25.5244 159.686C23.7109 159.496 20.0745 160.242 19.2431 162.137C18.6493 163.491 19.5008 164.954 20.8464 165.383C22.2406 165.793 23.8771 165.098 24.9804 164.331C26.1134 163.496 27.5801 161.072 27.9447 160.425C28.3319 160.554 28.738 160.733 29.1739 160.843C31.1287 161.539 33.0835 162.235 34.9896 162.95C35.6475 163.198 36.3244 163.495 36.9337 163.762C36.4978 163.652 36.081 163.59 36.0323 163.609C34.2188 163.419 30.5824 164.165 29.751 166.06C29.1572 167.414 30.0087 168.877 31.3543 169.306C32.7485 169.716 34.3851 169.021 35.4883 168.254C36.5916 167.486 37.9503 165.217 38.3932 164.483C39.0702 164.78 39.6984 165.096 40.3267 165.412C40.7518 165.639 41.158 165.817 41.6021 166.092C42.0273 166.319 42.4038 166.565 42.8289 166.792C43.5819 167.283 44.3835 167.756 45.0877 168.267C45.6186 168.621 46.0818 168.945 46.5449 169.269C45.887 169.021 44.5711 168.525 44.4548 168.514C42.6627 168.091 38.9633 168.244 37.9098 170.002C37.1129 171.267 37.721 172.825 39.0262 173.438C40.3313 174.05 42.0629 173.599 43.2909 173.008C44.6459 172.311 46.6566 169.843 46.9214 169.515C47.6933 170.055 48.4843 170.644 49.1885 171.155C50.4236 172.02 51.4936 172.893 52.5257 173.668L53.4556 172.744C52.4236 171.969 51.2371 171.085 49.9154 170.142C49.1244 169.553 48.2361 169.002 47.3288 168.402C47.4665 168.18 48.0603 166.826 48.4404 165.5C49.9831 165.571 52.8345 164.683 53.2431 164.579C53.6041 165.505 53.9461 166.381 54.2691 167.209C54.7632 168.475 55.1895 169.711 55.5589 170.801L56.5861 169.839C56.2251 168.914 55.8748 167.873 55.4081 166.82C55.047 165.895 54.667 164.921 54.2193 163.918C54.5411 163.736 57.2833 161.993 58.0802 160.728C58.8177 159.599 59.4626 157.944 58.9793 156.562C58.5149 155.228 57.0364 154.459 55.711 155.088C53.869 155.975 53.2562 159.581 53.483 161.456C53.521 161.553 53.7929 162.682 53.9806 163.45C53.8286 163.06 53.6089 162.641 53.4568 162.252C53.0851 161.443 52.7134 160.634 52.3037 159.728C52.084 159.309 51.8643 158.89 51.6446 158.47C51.4249 158.051 51.1565 157.651 50.9178 157.183C50.3537 156.169 49.7112 155.241 49.0497 154.265C49.7611 153.931 52.3334 152.759 53.2253 151.738C54.1172 150.716 55.0329 149.181 54.7633 147.771C54.4938 146.362 53.153 145.37 51.7516 145.804C49.7956 146.399 48.6305 149.884 48.5759 151.757C48.5652 151.873 48.6804 153.175 48.7516 153.932C48.3585 153.356 47.9654 152.78 47.5236 152.223C46.3147 150.563 45.0083 148.941 43.702 147.319C43.2792 146.81 42.9241 146.332 42.55 145.804C42.7935 145.709 45.8528 144.347 46.8717 143.22C47.7636 142.199 48.6793 140.663 48.4097 139.254C48.1401 137.844 46.7993 136.852 45.398 137.287C43.442 137.882 42.2769 141.366 42.2223 143.239C42.2116 143.356 42.3897 145.25 42.4633 145.726C41.5797 144.612 40.7639 143.528 39.9777 142.376C38.8744 140.843 37.9172 139.252 37.0764 137.673C37.1738 137.635 40.3981 136.264 41.4468 135.07C42.3387 134.048 43.2544 132.513 42.9848 131.103C42.7152 129.693 41.3744 128.702 39.973 129.136C38.0171 129.731 36.852 133.216 36.7973 135.089C36.7867 135.205 36.9101 136.672 37.0111 137.362C36.9624 137.381 36.9624 137.381 36.9137 137.4C36.0159 135.674 35.4292 133.883 34.8806 132.19C34.5979 131.178 34.3533 130.263 34.1573 129.33C34.7606 129.151 37.5931 128.214 38.6881 127.281C39.7344 126.368 40.7557 124.96 40.6322 123.493C40.5277 122.075 39.295 120.929 37.8366 121.217C35.7856 121.569 34.3011 124.954 34.0434 126.737C34.0327 126.854 34.0338 127.863 33.9887 128.61C33.8854 128.202 33.8118 127.725 33.7274 127.366C33.4686 125.84 33.3154 124.441 33.1515 123.158C33.0992 122.449 33.0173 121.808 33.0031 121.196C33.522 120.657 35.5386 118.636 36.035 117.32C36.5505 116.052 36.8082 114.269 36.0517 113.049C35.6657 111.629 34.0684 111.13 32.9058 112.032Z"/><path fill="#E9FAF8" d="M302.126 202.128C302.126 202.128 324.249 159.055 298.429 115.655C272.609 72.2543 215.822 49.5317 170.585 29.9966C125.266 10.4715 76.7253 20.0437 52.2824 52.16C27.8395 84.2762 57.9857 107.153 55.734 152.914C53.4823 198.675 44.604 210.824 72.3079 249.437C100.012 288.05 172.456 296.552 228.95 267.779C285.453 239.075 302.126 202.128 302.126 202.128Z"/><path fill="#FFE9D5" d="M298.848 289.64C298.848 296.197 237.94 301.47 162.837 301.47C87.7333 301.47 26.8257 296.197 26.8257 289.64C26.8257 283.082 87.7333 277.81 162.837 277.81C237.94 277.81 298.848 283.082 298.848 289.64Z"/><path fill="#F57903" stroke="#1F2023" stroke-miterlimit="10" stroke-width=".676" d="M151.412 259.491C145.126 256.516 138.366 255.773 131.538 255.367C125.251 255.029 118.964 255.57 112.678 256.381C101.591 257.868 90.7075 260.572 79.7563 262.871C72.7259 264.358 65.6279 265.575 58.4623 266.724C57.5159 266.859 56.5695 266.927 55.7583 267.467C54.9471 268.143 54.6767 269.157 54.2035 269.969C53.3923 271.321 52.9191 273.078 51.7699 273.889C50.4855 274.836 50.0799 275.985 49.6067 277.269C48.9307 279.027 48.2547 280.852 47.5787 282.61C47.9843 283.015 48.5251 282.88 48.9983 282.88C49.2011 282.88 49.4039 282.88 49.6067 282.88C49.2687 282.88 48.8631 282.88 48.5251 282.88C48.0519 282.88 47.6463 282.88 47.2407 283.218L46.9703 284.435C47.6463 285.111 48.5927 284.908 49.4039 284.908C57.7187 284.841 66.1011 285.179 74.4159 284.57C79.0127 284.165 83.6095 283.962 88.2739 283.691C93.1411 283.421 98.0083 283.015 102.876 282.61C109.568 282.137 116.328 281.731 123.02 281.528C127.212 281.393 131.335 281.799 135.526 282.069C140.056 282.407 144.517 283.015 148.844 284.367C149.384 284.435 149.858 284.638 150.398 284.503C151.074 284.232 151.277 283.556 151.548 282.948C154.116 278.081 158.037 275.241 163.58 274.633C164.324 274.565 165.203 274.633 165.744 273.822C165.744 273.078 165.406 272.47 165.068 271.861C161.958 266.318 157.294 262.262 151.412 259.491Z"/><path fill="#FFD3AB" d="M101.185 138.216C102.335 139.027 102.537 140.717 104.633 141.123C102.537 141.663 102.267 143.218 101.185 144.165C101.118 143.962 101.118 143.759 101.05 143.556L100.847 143.083H100.915C100.645 142.137 100.036 141.528 99.0223 141.393C98.9547 141.19 98.9547 141.055 98.8871 140.852C100.374 140.649 101.118 139.703 101.185 138.216Z"/><path fill="#FFD3AB" d="M165.541 61.9631C163.986 62.5039 163.445 63.6531 162.904 64.9375C162.634 63.5855 162.093 62.5715 160.674 62.0307C161.89 61.3547 162.702 60.5435 162.904 58.8535C163.378 60.4083 164.054 61.4223 165.541 61.9631Z"/><path fill="#FFD3AB" stroke="#202020" stroke-miterlimit="10" stroke-width=".676" d="M125.386 96.2359C125.522 95.9655 125.86 95.6275 125.319 95.3571C126.062 94.8163 126.468 94.0051 126.738 92.7207C127.212 94.2079 127.82 95.2895 129.375 95.7627C127.888 96.3711 127.212 97.3175 126.806 99.0751C126.536 97.6555 126.13 96.8443 125.386 96.2359Z"/><path fill="#FFD3AB" d="M123.629 214.739C124.034 216.496 125.251 217.443 127.144 218.186C124.71 218.93 123.696 220.688 123.088 222.986C122.885 221.972 122.75 221.228 122.344 220.552C121.939 219.606 120.992 219.268 120.114 218.93C119.708 218.795 119.505 218.457 119.505 218.119C119.505 217.443 119.978 217.984 120.249 217.848C122.142 217.24 122.682 215.618 123.088 213.657C123.358 214.063 123.494 214.401 123.629 214.739Z"/><path fill="#FFF4D8" d="M33.5036 89.732C31.2728 90.2728 30.5968 92.0304 30.056 93.9908C29.5828 92.9768 29.6504 91.76 28.704 91.0164C28.5012 90.8136 28.366 90.6108 28.1632 90.408C27.8928 90.0024 27.4872 89.7996 26.9464 89.732L26 89.5292L26.0676 89.4616L26 89.394C26.338 89.2588 26.676 89.1912 27.014 89.056C27.6224 88.9884 28.0956 88.6504 28.5012 88.1772C28.6364 87.9744 28.7716 87.8392 28.9068 87.6364V87.704C29.042 87.4336 29.1772 87.2308 29.3124 86.9604H29.2448C29.6504 86.6224 29.718 86.2168 29.718 85.7436C29.8532 85.5408 29.9208 85.338 30.056 85C30.5968 85.9464 30.5292 87.1632 31.6108 87.704C31.6784 88.9208 33.436 88.5152 33.5036 89.732Z"/><path fill="#FFF4D8" d="M206.562 52.3599C206.359 52.6303 206.156 52.9683 206.021 53.2387C205.886 53.5767 205.818 53.9147 205.615 54.5231C204.939 53.1035 204.804 51.5487 203.384 50.9403C203.182 50.6699 202.979 50.6023 202.641 50.6023C202.979 50.2643 201.154 50.3319 202.506 49.7235C203.79 49.1151 204.804 48.1687 204.872 46.6139C205.21 46.5463 205.277 46.2759 205.21 46.0055C205.412 46.0055 205.75 45.9379 205.818 46.2759C206.224 48.3039 207.711 49.3179 209.401 50.1967C208.184 50.6023 207.373 51.4811 206.562 52.3599Z"/><path fill="#FFD3AB" d="M113.354 194.324C113.016 194.256 112.88 194.054 112.813 193.716C115.044 193.445 115.72 191.755 116.396 189.524C117.072 191.755 118.086 193.378 120.587 193.918C118.288 194.662 117.072 195.946 116.734 197.974C116.26 198.312 116.26 198.312 115.99 197.434C115.72 195.879 114.841 194.797 113.354 194.324Z"/><path fill="#FFBE80" d="M264.828 55.3404C263.002 55.8812 262.597 57.5036 261.988 59.1936C260.907 57.5036 260.772 55.07 258 55.0024C260.434 54.2588 261.515 52.704 261.921 50C262.664 52.4336 263.476 54.2588 265.842 54.5968C265.504 54.8672 265.166 55.07 264.828 55.3404Z"/><path fill="#FFD3AB" d="M139.65 174.517C139.447 174.99 139.244 175.531 138.974 176.139C138.501 173.976 137.69 172.286 135.121 171.61C136.338 171.137 137.284 170.799 137.825 169.853C138.568 169.177 138.636 168.163 139.042 167.081C139.582 169.177 140.596 170.799 142.827 171.543C141.34 172.286 140.123 173.03 139.65 174.517Z"/><path fill="#FFD3AB" d="M160.944 162.011C159.254 162.755 158.51 163.769 158.037 165.594C157.564 163.836 156.956 162.687 155.063 162.079C156.888 161.403 157.632 160.389 157.97 158.901C158.443 160.321 159.254 161.403 160.944 162.011Z"/><path fill="#FFD3AB" d="M187.714 120.91C187.578 121.248 187.308 121.451 187.038 121.586C185.888 122.059 185.618 123.209 185.01 124.155C184.807 123.885 184.672 123.614 184.469 123.411C184.401 122.127 183.387 121.654 182.17 121.045C183.793 120.437 184.739 119.355 184.807 117.733C184.874 117.665 184.942 117.598 184.942 117.53C185.415 119.22 185.956 120.572 187.714 120.91Z"/><path fill="#FFD3AB" d="M208.534 206.492C206.709 207.168 205.966 208.25 205.425 209.94C204.952 208.317 204.343 207.101 202.518 206.56C204.276 205.951 205.087 204.87 205.425 202.842C205.898 204.735 206.574 205.951 208.534 206.492Z"/><path fill="#FFD3AB" d="M126.062 149.979C124.372 150.587 123.629 151.804 123.088 153.562C122.75 151.736 122.006 150.52 120.114 149.979C122.006 149.438 122.75 148.289 123.088 146.531C123.629 148.154 124.372 149.37 126.062 149.979Z"/><path fill="#FFD3AB" d="M190.553 176.072C191.905 175.396 192.851 174.72 193.054 173.301C193.595 174.518 194.203 175.464 195.623 175.937C194.271 176.613 193.527 177.492 193.122 179.182C192.648 177.492 192.175 176.41 190.553 176.072Z"/><path fill="#FFD3AB" d="M150.939 218.322C149.655 218.66 148.979 219.674 148.506 221.431C148.168 219.674 147.627 218.66 146.072 218.186C147.356 217.51 148.168 216.767 148.573 215.482C148.979 216.902 149.993 217.578 150.939 218.322Z"/><path fill="#FFD3AB" d="M163.918 133.89C164.459 135.309 165 136.256 166.825 136.729C165.135 137.202 164.459 138.148 163.986 139.568C163.445 138.284 163.04 137.134 161.079 136.796C162.837 136.323 163.513 135.377 163.918 133.89Z"/><path fill="#FFD3AB" d="M166.149 250.702C165.811 249.553 164.392 249.486 163.986 248.404C165.676 248.066 166.284 246.849 166.555 245.159C167.231 246.579 167.704 247.998 169.732 248.539C167.907 249.148 167.231 250.297 166.69 251.852C166.42 251.311 166.284 250.973 166.149 250.702Z"/><path fill="#FFD3AB" d="M169.259 199.867C169.123 200.137 169.056 200.408 168.785 201.084C168.245 198.65 167.433 196.892 164.594 196.352C167.298 195.811 168.312 194.256 168.785 192.093C169.394 194.121 170.475 195.608 172.436 196.352C172.436 196.419 172.368 196.487 172.368 196.487C172.301 196.554 172.301 196.554 172.233 196.622C170.611 197.095 169.664 198.244 169.259 199.867Z"/><path fill="#FFD3AB" d="M227.462 164.918C227.462 163.296 225.908 162.823 225.096 161.741C226.786 161.538 227.192 160.186 227.665 158.699C228.206 160.119 228.814 161.403 230.64 161.944C228.747 162.552 228.814 164.31 227.665 165.189C227.665 165.189 227.598 165.121 227.53 165.121C227.53 165.054 227.53 164.986 227.462 164.918Z"/><path fill="#FFD3AB" d="M201.639 237.182C201.301 235.154 200.557 234.005 198.732 233.464C200.557 232.924 201.301 231.842 201.639 229.949C202.18 231.707 202.924 232.924 204.681 233.464C202.856 234.14 202.18 235.29 201.639 237.182Z"/><path fill="#FFE9B1" d="M113.151 129.158C114.3 128.752 113.962 127.332 114.841 126.792C115.381 125.98 116.125 125.575 117.004 125.372C116.936 124.764 116.26 124.831 115.99 124.426C114.3 123.75 113.962 122.06 113.353 120.234C112.948 122.871 111.934 124.561 109.162 125.169C111.731 125.71 112.813 127.062 113.151 129.158Z"/><path fill="#FFE9B1" d="M47.7716 245C47.5688 245.406 47.5012 245.676 47.366 245.946C47.028 247.096 46.0816 247.636 45 248.177C46.9604 248.448 47.0956 250.273 48.042 251.287C48.2448 250.273 48.5152 249.326 49.5292 248.853C49.6644 248.786 49.732 248.65 49.8672 248.583C50.1376 248.448 50.408 248.38 50.6108 248.245C50.5432 248.11 50.5432 247.907 50.4756 247.772C48.8532 247.704 48.6504 246.014 47.7716 245Z"/><path fill="#FFE9B1" stroke="#202020" stroke-miterlimit="10" stroke-width=".676" d="M123.291 99.143C123.697 97.6558 124.237 96.6418 125.454 96.2362C125.589 95.9658 125.927 95.6278 125.387 95.3574C123.967 94.9518 123.697 93.5998 123.088 92.3154C122.75 93.9378 122.142 95.2222 120.452 95.763C122.142 96.3038 122.547 97.6558 123.291 99.143Z"/><path fill="#FFD3AB" stroke="#1F2023" stroke-miterlimit="10" stroke-width=".676" d="M222.528 190.877C222.19 188.984 220.973 187.835 219.148 187.294C220.162 186.753 221.243 186.483 221.716 185.469C219.756 181.616 217.525 178.033 214.145 175.261C208.805 170.867 202.653 168.636 195.826 168.298C195.42 168.298 195.014 168.231 194.541 168.231C191.296 168.434 188.119 168.569 184.942 169.38C181.562 170.259 178.25 171.138 175.005 172.422C168.786 174.923 162.634 177.83 155.942 178.912C149.925 179.858 144.112 179.588 139.65 174.518C139.447 174.991 139.244 175.532 138.974 176.14C138.501 173.977 137.69 172.287 135.121 171.611C136.338 171.138 137.284 170.8 137.825 169.853C136.676 162.35 141.813 154.238 148.979 152.277C155.874 150.317 162.499 156.333 161.214 163.364C160.674 166.338 158.51 167.487 155.739 166.406C154.725 166 153.778 165.459 152.967 164.783C152.224 164.175 151.412 163.566 150.398 162.755C150.534 164.31 151.074 165.324 151.48 166.338C153.778 171.611 157.091 173.774 162.837 173.436C168.042 173.098 172.368 170.8 176.154 167.352C181.156 162.823 183.522 157.009 183.184 150.384C182.914 145.788 181.156 141.461 178.588 137.608C173.991 130.578 167.772 125.575 159.862 122.668C154.657 121.249 149.317 120.978 143.976 121.587C141.746 122.128 141.07 123.885 140.529 125.846C140.056 124.832 140.123 123.615 139.177 122.871C138.839 122.939 138.501 123.006 138.163 123.074C136.743 123.682 135.324 124.291 133.904 124.899C133.498 125.102 133.16 125.305 132.755 125.575C131.808 126.116 130.93 126.657 129.983 127.198H129.916C129.78 127.468 129.578 127.671 129.24 127.603C129.104 128.144 128.631 128.347 128.158 128.55C127.482 129.158 126.806 129.699 126.198 130.307C124.778 131.93 123.358 133.484 121.939 135.107C121.804 135.242 121.736 135.31 121.668 135.445C120.316 137.878 119.032 140.312 117.68 142.746C117.68 142.881 117.68 142.948 117.612 143.016C117.274 144.165 116.936 145.247 116.328 146.261L116.125 147.004C115.99 147.748 115.855 148.492 115.449 149.168C115.382 149.438 115.382 149.641 115.314 149.911L115.044 150.993C114.976 151.263 114.908 151.466 114.841 151.736C114.435 154.44 113.894 157.144 113.692 159.916C113.286 164.986 113.894 169.988 115.584 174.856L115.855 175.599L115.922 175.734L115.855 175.802C115.72 175.87 115.652 175.937 115.517 176.005C115.652 176.884 116.869 176.816 117.004 177.695C118.221 179.385 119.438 181.075 120.587 182.765C121.33 183.373 122.074 183.914 122.818 184.59C129.78 190.606 137.69 193.716 146.951 192.77C147.965 192.364 149.182 192.77 150.196 192.161L150.939 192.026C151.21 192.026 151.412 191.958 151.683 191.958C152.9 191.553 154.049 191.147 155.266 190.809C155.536 190.742 155.739 190.606 156.009 190.539C156.077 190.471 156.212 190.404 156.347 190.404C161.552 188.308 166.69 186.145 172.436 186.145C180.818 186.212 187.781 192.634 188.525 201.017C189.066 207.101 184.469 212.374 178.317 212.712C174.329 212.914 170.678 211.833 167.163 210.143C163.918 208.588 160.741 206.898 157.496 205.276C157.361 205.208 157.226 205.073 157.091 205.005C156.618 204.938 156.212 204.735 156.009 204.262C155.063 204.262 154.252 203.991 153.508 203.518C153.17 203.383 152.764 203.248 152.426 203.18C152.224 203.045 152.088 202.977 151.886 202.842C151.615 202.842 151.277 202.774 151.007 202.774H150.872H150.736C149.925 202.842 149.249 202.369 148.573 202.166C147.897 202.098 147.221 202.098 146.613 202.031C141.137 201.422 136.27 202.774 131.673 205.749C128.158 208.047 125.927 211.36 123.967 214.875C124.372 216.632 125.589 217.579 127.482 218.322C125.048 219.066 124.034 220.824 123.426 223.122C123.223 222.108 123.088 221.364 122.682 220.688C122.074 225.15 122.75 229.409 124.846 233.465C127.414 238.4 131.268 241.374 137.014 241.644C140.326 241.847 143.503 241.239 146.68 240.63C150.196 239.954 153.711 239.076 157.361 239.143C161.89 238.602 166.352 239.008 170.611 240.833C177.844 243.875 180.48 250.77 177.303 257.936C176.086 260.708 174.126 263.006 172.639 265.642C172.774 265.778 172.842 265.845 172.977 265.98C184.401 260.032 186.632 247.458 181.494 237.791C179.264 233.6 175.343 231.978 171.084 230.828C166.622 229.612 161.958 229.206 157.632 227.584C156.009 226.975 154.387 226.299 153.102 225.015C151.277 223.19 150.128 221.229 151.345 218.593C150.06 218.931 149.384 219.877 148.911 221.702C148.573 219.945 148.032 218.931 146.478 218.458C147.762 217.782 148.573 217.038 148.979 215.754C149.384 217.106 150.466 217.782 151.412 218.525C154.184 215.213 157.699 214.74 161.823 215.28C166.96 215.956 171.016 218.525 175.14 221.297C177.979 223.19 180.683 225.42 183.86 226.908C186.294 228.057 188.795 228.665 191.432 229.206C197.921 229.341 204.14 228.124 210.089 225.556C216.511 222.784 220.838 218.12 222.866 211.427C224.961 204.735 225.434 197.975 223.744 191.147C223.001 191.688 222.73 191.688 222.528 190.877ZM163.918 133.89C164.459 135.31 165 136.256 166.825 136.729C165.135 137.202 164.459 138.149 163.986 139.568C163.445 138.284 163.04 137.135 161.079 136.797C162.837 136.324 163.513 135.377 163.918 133.89ZM123.088 153.494C122.75 151.669 122.006 150.452 120.114 149.911C122.006 149.37 122.75 148.221 123.088 146.464C123.629 148.086 124.372 149.303 126.062 149.911C124.372 150.587 123.629 151.804 123.088 153.494ZM193.122 179.182C192.648 177.492 192.108 176.343 190.553 176.072C191.905 175.396 192.851 174.72 193.054 173.301C193.595 174.518 194.203 175.464 195.623 175.937C194.271 176.613 193.527 177.424 193.122 179.182ZM205.425 209.94C204.952 208.318 204.343 207.101 202.518 206.56C204.276 205.952 205.087 204.87 205.425 202.842C205.966 204.735 206.642 205.952 208.602 206.492C206.642 207.168 205.966 208.25 205.425 209.94Z"/><path fill="#D1F3EF" stroke="#1F2023" stroke-miterlimit="10" stroke-width=".676" d="M171.557 114.894C174.126 119.017 179.264 122.262 184.874 117.8C184.942 117.733 185.01 117.665 185.01 117.598C186.497 115.84 187.714 113.88 187.714 111.446C187.781 108.404 186.091 106.984 183.117 107.593C181.968 107.863 180.818 108.269 179.466 108.607C179.669 106.849 180.48 105.632 181.968 105.024C185.212 103.604 189.606 105.159 191.364 108.269C193.46 112.054 193.054 115.164 190.08 118.341C189.336 119.152 188.457 119.964 187.714 120.842C187.578 121.18 187.308 121.383 187.038 121.518C186.429 122.668 185.821 123.884 185.145 125.034C185.01 125.439 184.942 125.845 184.807 126.25V126.318L184.739 126.386C183.658 131.32 185.01 135.85 187.24 140.108C187.173 138.959 187.038 137.742 186.97 136.593C186.564 132.064 186.632 127.602 189.944 124.02C191.77 122.059 194.068 120.64 196.231 119.22C200.828 116.178 203.6 112.054 202.788 106.308C201.977 100.765 199.341 96.3037 194.068 93.8025C193.865 94.0729 193.662 94.4109 193.527 94.6813C193.392 95.0193 193.324 95.3573 193.122 95.9657C192.446 94.5461 192.31 92.9913 190.891 92.3829C190.62 92.2477 190.418 92.1801 190.147 92.0449C187.714 91.7069 185.28 91.3689 182.779 91.6393C179.534 91.9773 176.56 92.9237 174.126 95.1545C170.273 98.6021 169.124 103.064 169.191 107.998C169.8 110.5 170.273 112.866 171.557 114.894Z"/><path fill="#FFE9B1" d="M115.99 197.433C114.841 196.622 113.827 195.676 113.354 194.324C113.016 194.256 112.88 194.053 112.88 193.715C112.475 192.634 112.002 191.552 112.002 190.403C111.866 190.2 111.799 189.862 111.664 189.795C111.258 189.659 111.461 190.065 111.393 190.268C111.19 191.485 111.055 192.634 110.244 193.648C110.109 194.121 110.041 194.729 109.703 195.135C109.095 195.946 108.757 197.231 107.337 197.028C107.27 197.231 107.27 197.433 107.202 197.636C106.188 198.65 104.701 198.583 103.349 199.394C108.081 200.07 110.988 203.517 111.461 208.79C112.745 204.261 114.706 200.34 120.046 199.259C118.762 198.785 117.748 198.38 116.734 198.042C116.26 198.312 116.26 198.312 115.99 197.433Z"/><path fill="#FFE9B1" stroke="#202020" stroke-miterlimit="10" stroke-width=".676" d="M148.844 105.092C152.359 106.106 154.252 108.134 154.725 111.379C154.657 111.514 154.522 111.717 154.454 111.852C155.198 112.528 155.333 112.19 155.536 111.379C155.942 109.216 157.091 107.458 158.916 106.241C159.66 105.768 160.741 105.836 161.282 104.889C157.699 103.943 156.009 101.509 155.401 98.0617C155.401 97.8589 155.604 97.2505 154.928 97.5885C154.928 97.8589 154.86 98.0617 154.86 98.3321C154.454 101.847 152.629 104.146 148.844 105.092Z"/><path fill="#D1F3EF" stroke="#1F2023" stroke-miterlimit="10" stroke-width=".676" d="M230.369 135.309C230.302 135.107 230.234 134.836 230.234 134.633C230.099 134.295 230.031 133.89 229.896 133.552C229.693 132.808 229.423 132.132 229.22 131.389C229.152 131.118 229.017 130.848 228.95 130.645C228.814 130.375 228.747 130.172 228.612 129.901C227.868 128.752 227.124 127.603 226.448 126.386C224.961 124.967 223.542 123.547 221.649 122.601C214.821 119.153 204.614 121.587 199.408 127.671C196.028 131.659 195.285 136.053 196.231 141.055C196.84 144.233 197.38 147.545 196.637 150.722C195.285 156.063 191.702 159.848 187.511 163.161C193.933 161.471 200.287 159.645 205.492 155.116C205.695 154.846 205.898 154.643 206.101 154.373C206.371 154.035 206.642 153.697 206.912 153.291C207.926 151.466 208.534 149.573 208.737 147.545C208.737 147.275 208.737 147.072 208.737 146.801C208.737 146.328 208.737 145.855 208.737 145.382C208.399 143.421 208.467 141.461 209.143 139.568C209.346 139.095 209.548 138.622 209.751 138.081C210.36 136.661 211.171 135.58 212.726 135.107C212.996 134.701 213.402 134.633 213.807 134.701V134.769C213.942 134.701 214.078 134.566 214.213 134.498C214.821 134.363 215.43 134.295 216.038 134.431C216.444 134.431 216.849 134.363 217.12 134.701C217.39 134.836 217.66 134.971 217.863 135.107C219.756 136.459 220.094 138.013 218.945 140.244C218.877 140.717 218.674 141.123 218.201 141.326C216.917 143.354 215.294 143.151 213.537 142.069C213.537 142.272 213.537 142.543 213.537 142.745C213.74 143.083 213.74 143.489 213.672 143.827C213.875 144.571 214.01 145.247 214.213 145.99C214.686 146.599 215.092 147.207 215.565 147.815C215.632 147.815 215.7 147.883 215.7 148.018C216.308 148.424 216.917 148.762 217.525 149.167C219.012 149.641 220.5 149.911 222.122 149.843C222.392 149.776 222.663 149.776 222.933 149.708L225.772 148.762C225.908 148.694 226.043 148.627 226.178 148.491C227.26 147.613 228.341 146.734 229.152 145.585C229.288 145.314 229.49 145.044 229.626 144.773C230.707 142.272 230.978 139.636 230.775 136.864C230.437 136.526 230.369 135.918 230.369 135.309Z"/><path fill="#FFF5EA" d="M303.612 138C305.025 135.023 305.322 134.617 308 133.331C305.471 132.722 304.281 131.098 303.612 129C303.24 131.368 301.975 132.857 299 133.466C301.975 134.008 303.091 135.699 303.612 138Z"/><path fill="#FFE9B1" d="M187.308 140.312L187.443 140.582C187.443 140.514 187.376 140.447 187.308 140.312Z"/><path fill="#FFE9B1" d="M163.986 248.404C163.58 247.593 163.242 246.782 162.837 245.971C162.566 248.066 161.552 249.756 158.984 250.568C161.688 251.244 162.499 252.934 162.972 255.502C163.445 253.069 164.392 251.582 166.217 250.703C165.811 249.554 164.392 249.418 163.986 248.404Z"/><path fill="#FFF4D8" d="M307.704 247.541C306.489 245.948 305.747 244.147 305.612 242.069V242C305.41 242.069 305.207 242.069 305.072 242.139C305.14 244.909 304.33 247.264 301.834 248.788C301.361 248.996 300.822 249.273 300.349 249.481C299.945 249.619 299.607 249.758 299 250.035C300.08 250.381 300.957 250.45 301.564 251.074C304.33 252.39 304.735 255.16 305.477 258C306.152 254.745 307.164 252.113 309.998 250.727C310.065 249.065 308.581 248.58 307.704 247.541Z"/><path fill="#FFF4D8" d="M23.7038 225.541C22.4893 223.948 21.7471 222.147 21.6122 220.069V220C21.4098 220.069 21.2073 220.069 21.0724 220.139C21.1399 222.909 20.3302 225.264 17.8338 226.788C17.3615 226.996 16.8217 227.273 16.3494 227.481C15.9446 227.619 15.6072 227.758 15 228.035C16.0795 228.381 16.9567 228.45 17.5639 229.074C20.3302 230.39 20.735 233.16 21.4772 236C22.1519 232.745 23.164 230.113 25.9978 228.727C26.0652 227.065 24.5809 226.58 23.7038 225.541Z"/><path fill="#FFE9D5" d="M241.714 175C241.5 176.67 240.5 177.412 239 178.093C240.714 178.588 241.286 179.701 241.929 181C242.5 179.639 243.071 178.526 245 178.093C243.286 177.474 242.5 176.423 241.714 175Z"/><path fill="#FFD3AB" d="M235.574 131.727C235.98 133.957 236.859 135.715 239.157 136.526C239.09 137.202 238.346 137.067 238.008 137.473C237.264 137.878 236.656 138.419 236.453 139.23C235.98 139.771 235.98 140.582 235.642 141.393C235.034 139.23 234.425 137.202 231.856 136.999C231.856 136.864 231.856 136.729 231.789 136.594C232.194 136.526 232.735 136.594 233.006 136.121C233.141 135.985 233.276 135.918 233.344 135.783C234.087 135.783 234.425 135.377 234.493 134.633C235.169 134.093 235.304 133.281 235.236 132.47C235.574 132.335 235.507 131.997 235.574 131.727Z"/><path fill="#A3E7DF" stroke="#1F2023" stroke-miterlimit="10" stroke-width=".676" d="M21.2825 176.883C23.5809 173.435 26.5553 170.596 29.1917 167.419C32.6393 163.363 36.1545 159.375 39.5345 155.319C40.5485 154.169 41.2921 153.764 42.6441 154.913C55.4881 165.797 68.3997 176.68 81.3113 187.564C82.0549 188.24 82.4605 188.848 82.1225 189.862C81.1761 192.499 79.0129 194.189 77.3229 196.149C73.0641 201.084 68.8729 206.019 64.5465 210.886C64.0057 211.494 63.5325 212.238 62.6537 212.305C61.7749 212.103 61.3017 211.224 60.5581 210.818C48.5253 200.813 36.6953 190.606 24.6625 180.601C23.4457 179.519 21.9585 178.573 21.2825 176.883Z"/><path fill="#FFF4D8" stroke="#1F2023" stroke-miterlimit="10" stroke-width=".676" d="M21.2825 176.883C26.6905 181.412 32.0985 185.941 37.5065 190.47C45.3481 197.095 53.1897 203.788 61.0313 210.48C61.5721 211.291 61.0313 211.9 60.5581 212.44C59.2737 213.995 58.1921 215.685 56.7725 217.037C54.5417 219.2 52.7165 221.499 52.1081 224.608C47.9169 221.634 44.1989 218.119 40.2781 214.806C37.3037 212.238 34.1265 209.804 31.1521 207.168C27.1637 203.652 23.1077 200.34 19.0517 196.892C17.2941 195.405 15.5365 194.053 13.8465 192.498C11.0749 189.997 10.8721 188.307 13.4409 185.603C15.8069 183.102 17.8349 180.33 20.1333 177.829C20.4713 177.491 20.8769 177.221 21.2825 176.883Z"/><path fill="#FFF4D8" stroke="#1F2023" stroke-miterlimit="10" stroke-width=".676" d="M62.6535 212.102C68.6699 205.14 74.6863 198.244 80.7027 191.282C81.1083 190.808 81.6491 190.403 82.1223 189.93C83.6095 191.214 85.0967 192.498 86.5839 193.783C87.0571 194.932 86.1107 195.54 85.5699 196.216C79.7563 202.909 73.9427 209.601 68.1967 216.294C67.1827 217.172 66.5067 218.457 65.2223 219.133C64.8843 219.268 64.4787 219.268 64.1407 219.065C62.9915 218.322 62.1803 218.524 61.3015 219.606C60.4903 220.62 59.9495 221.499 61.0987 222.648C61.4367 222.986 61.4367 223.459 61.3015 223.932C61.0311 224.608 60.4903 225.149 59.9495 225.622C58.1919 227.245 56.6371 227.245 54.8795 225.69C53.1219 224.135 52.9191 222.445 54.3387 220.688C56.5019 217.984 58.8679 215.482 61.1663 212.914C61.5719 212.373 62.0451 212.035 62.6535 212.102Z"/><path fill="#A3E7DF" stroke="#1F2023" stroke-miterlimit="10" stroke-width=".676" d="M67.7238 215.888C72.929 209.804 78.2018 203.72 83.407 197.636C84.4886 196.352 85.5026 195 86.5842 193.716C87.1926 193.513 87.8686 192.972 88.3418 193.783C88.7474 194.459 88.139 195 87.7334 195.473C81.5142 202.639 75.295 209.737 69.0758 216.902C68.197 217.173 67.7914 216.767 67.7238 215.888Z"/><path fill="#D1F3EF" stroke="#1F2023" stroke-miterlimit="10" stroke-width=".676" d="M62.6537 212.103C60.0849 215.077 57.4485 218.119 54.8797 221.094C53.3925 222.851 53.5277 223.595 55.4205 225.285C56.9077 226.637 58.1921 226.772 59.5441 225.15C60.0173 224.541 60.6257 223.933 61.1665 223.392C62.0453 223.257 62.5861 223.527 62.5185 224.541C61.9101 225.285 61.3693 226.028 60.6933 226.704C58.5977 228.8 56.7725 228.868 54.5417 226.907C53.7305 226.164 52.9193 225.42 52.1081 224.609C51.2293 221.905 53.0545 220.147 54.6093 218.457C56.9077 215.956 59.2061 213.387 61.0313 210.48C61.7749 210.751 62.3157 211.359 62.6537 212.103Z"/><path fill="#F57903" stroke="#1F2023" stroke-miterlimit="10" stroke-width=".676" d="M62.5182 224.473C62.2478 223.933 61.707 223.595 61.1662 223.324C60.8282 222.986 60.6254 222.648 60.2198 222.445C59.003 221.702 59.003 220.958 60.017 220.079C60.1522 219.944 60.355 219.741 60.4226 219.606C61.6394 217.375 63.1266 217.037 64.9518 218.863C65.6954 218.93 66.3714 219.133 66.5066 220.079C68.5346 221.296 68.0614 223.121 67.791 224.879C67.6558 225.825 67.5206 226.772 67.3178 227.989C65.6278 226.772 64.073 225.623 62.5182 224.473Z"/><path fill="#D1F3EF" stroke="#1F2023" stroke-miterlimit="10" stroke-width=".676" d="M66.5067 220.147C65.9659 219.742 65.4927 219.336 64.9519 218.93C65.8307 217.916 66.7771 216.97 67.6559 215.956C68.1291 216.294 68.5347 216.632 69.0079 216.97C68.2643 217.984 67.3855 219.066 66.5067 220.147Z"/><path fill="#FEC93B" stroke="#202020" stroke-miterlimit="10" stroke-width=".676" d="M75.0243 106.714C73.5371 106.985 72.6583 108.134 72.3879 109.283C71.7119 111.919 71.1711 114.623 71.1711 117.395C72.1851 116.651 73.1991 115.975 73.8075 114.826C75.2947 115.57 76.7819 115.773 78.3367 115.164C78.8099 112.393 79.2831 109.621 79.8239 106.849C78.2015 106.714 76.6467 105.903 75.0243 106.714Z"/><path fill="#FEC93B" stroke="#202020" stroke-miterlimit="10" stroke-width=".676" d="M68.3996 148.559C67.1828 148.829 66.5744 149.776 65.8984 150.722C65.0872 153.359 64.614 155.995 64.614 158.767C65.2224 157.482 66.304 156.806 67.5208 156.265C68.9404 155.927 70.36 156.468 71.7796 156.536C72.1852 153.899 72.5908 151.263 72.9964 148.627C71.5092 148.289 69.9544 147.815 68.3996 148.559Z"/><path fill="#FEC93B" stroke="#202020" stroke-miterlimit="10" stroke-width=".676" d="M73.4021 117.666C72.2529 118.071 71.3741 118.815 70.8333 119.897C70.0897 122.195 69.6841 124.561 69.6841 126.995C70.3601 125.575 71.5093 124.696 72.9965 124.291C74.2809 124.223 75.6329 124.358 76.9173 124.696C77.2553 122.398 77.6609 120.099 77.9989 117.733C76.4441 117.531 74.8893 117.057 73.4021 117.666Z"/><path fill="#F57903" stroke="#202020" stroke-miterlimit="10" stroke-width=".676" d="M79.8241 106.917C91.3161 108.742 102.808 110.567 114.3 112.325C115.449 112.528 115.787 113.069 115.584 114.218C113.016 130.307 110.447 146.463 107.878 162.552C107.27 162.755 106.661 162.619 106.12 162.552C95.4397 160.862 84.7589 159.172 74.0781 157.482C73.2669 157.347 72.3881 157.279 71.7121 156.603C71.3741 156.13 71.3741 155.589 71.4417 154.981C71.7797 152.75 72.0501 150.519 72.5909 148.288C73.0641 143.759 73.9429 139.23 74.6865 134.701C75.2273 131.253 75.6329 127.805 76.3765 124.425C76.5793 122.127 76.9173 119.829 77.4581 117.598C77.5257 116.719 77.5933 115.908 77.8637 115.097C77.9989 112.866 78.4721 110.703 78.8101 108.472C78.9453 107.863 79.2157 107.255 79.8241 106.917Z"/><path fill="#FFE9B1" stroke="#202020" stroke-miterlimit="10" stroke-width=".676" d="M76.8497 124.697C71.1713 157.888 76.0385 145.179 65.8309 150.249C67.2505 141.935 67.8589 134.025 70.0897 125.643C71.3065 123.683 75.2949 122.871 76.8497 124.697Z"/><path fill="#48CFBF" stroke="#202020" stroke-miterlimit="10" stroke-width=".676" d="M71.7796 156.468C83.1364 158.293 94.4932 160.118 105.85 161.876C106.526 162.011 107.27 162.011 107.81 162.552C107.743 162.957 107.675 163.295 107.675 163.701C107.202 164.377 106.594 164.377 105.85 164.242C93.8848 162.349 81.9196 160.456 69.9544 158.563C69.008 158.428 68.0616 158.225 67.318 159.037C67.0476 159.442 66.7096 159.848 66.5068 160.321C65.8984 162.011 66.7772 163.566 68.5348 163.836C69.1432 163.904 69.7516 163.971 70.2924 164.242C70.9008 164.918 71.6444 164.512 72.3204 164.445C73.064 164.512 73.8076 164.647 74.5512 164.783C75.1596 164.918 75.4976 165.999 76.3764 165.391C84.6236 166.54 92.8708 167.96 101.118 169.244C101.929 169.244 102.673 169.515 103.416 169.515C103.957 169.582 104.498 169.785 104.904 169.244C105.039 169.177 105.174 169.109 105.309 169.041C106.053 169.379 106.188 170.123 106.526 170.664C106.526 171.678 106.053 172.016 104.971 171.881C92.5328 169.853 80.0944 167.96 67.656 165.932C64.4788 165.391 63.1268 162.146 64.5464 158.699C64.6816 156.738 66.2364 156.265 67.656 155.657C69.2108 155.521 70.6304 155.386 71.7796 156.468Z"/><path fill="#FFE9B1" stroke="#202020" stroke-miterlimit="10" stroke-width=".676" d="M71.1712 117.463C72.2528 114.827 75.1596 114.353 78.3368 115.232C78.2692 116.855 77.8636 117.463 77.458 117.666C76.7144 118.071 75.9708 117.193 74.6864 117.26C73.5372 117.328 72.5908 118.139 71.9148 118.95C71.5092 119.288 71.036 119.626 70.8332 119.491C70.4952 119.356 70.8332 118.274 71.1712 117.463Z"/><path fill="#FEC93B" d="M106.256 163.836C106.729 163.769 107.27 163.769 107.743 163.701C107.337 166.067 106.999 168.366 106.594 170.732C105.85 170.529 105.174 170.191 105.444 169.244C105.106 169.042 105.039 168.704 105.039 168.366C105.039 168.028 105.039 167.69 105.174 167.419C105.242 167.081 105.242 166.811 105.309 166.473C105.309 166.135 105.377 165.864 105.444 165.526C105.444 165.256 105.512 165.053 105.58 164.783C105.647 164.377 105.782 164.039 106.256 163.836Z"/><path fill="#FFE9B1" stroke="#202020" stroke-miterlimit="10" stroke-width=".676" d="M82.7307 137.878C83.2715 134.633 83.7447 131.388 84.2855 128.211C84.5559 126.453 85.1643 125.98 86.9895 126.25C92.2623 127.062 97.5351 127.873 102.808 128.752C104.971 129.09 105.444 129.698 105.039 131.929C104.092 137.878 103.146 143.894 102.2 149.843C102.132 150.451 101.929 150.992 101.794 151.6C101.524 152.547 100.915 152.885 99.9687 152.75C94.1551 151.803 88.3415 150.924 82.5279 149.978C81.1759 149.775 81.0407 148.829 81.1759 147.747C81.6491 144.435 82.1899 141.19 82.7307 137.878Z"/><path fill="#FFE9B1" stroke="#202020" stroke-miterlimit="10" stroke-width=".676" d="M96.1832 120.573C93.2088 120.1 90.2344 119.626 87.1924 119.153C86.3136 119.018 85.5024 118.68 85.6376 117.666C85.7728 116.72 86.584 116.517 87.4628 116.652C93.4116 117.598 99.428 118.545 105.377 119.491C106.256 119.626 106.932 119.964 106.729 121.046C106.526 122.195 105.715 122.128 104.836 121.992C102.064 121.519 99.09 121.046 96.1832 120.573Z"/><path fill="#F57903" stroke="#202020" stroke-miterlimit="10" stroke-width=".676" d="M71.2388 160.389C72.9288 159.983 74.4836 160.659 76.106 160.862C76.7144 160.93 76.5792 161.538 76.5116 161.944C76.3764 163.161 76.1736 164.445 76.0384 165.662C75.1596 166.743 75.2272 165.121 74.754 165.189C73.9428 164.513 73.064 164.175 72.05 164.715C71.5768 164.513 70.9008 166.338 70.5628 164.513C70.4276 164.242 70.2248 163.972 70.2924 163.566C70.2924 163.228 70.36 162.89 70.4276 162.62C70.4952 162.282 70.4952 162.011 70.5628 161.673C70.6304 161.335 70.6304 161.065 70.7656 160.727C70.8332 160.659 70.9684 160.457 71.2388 160.389Z"/><path fill="#E4EAE6" d="M71.9148 164.85C73.4696 163.701 73.4696 163.701 74.6188 165.324C73.74 165.121 72.8612 164.986 71.9148 164.85Z"/><path fill="#FFF4D8" stroke="#202020" stroke-miterlimit="10" stroke-width=".676" d="M106.256 163.837C93.9524 161.876 81.5816 159.916 69.2784 157.955C68.1968 157.753 67.2504 158.023 66.7096 159.037C64.952 161.538 65.8984 163.837 68.8728 164.377C69.4136 164.445 69.9544 164.58 70.4952 164.648C70.5628 164.31 70.5628 163.972 70.6304 163.701C70.698 163.431 70.698 163.093 70.7656 162.823L70.9008 161.944C70.9684 161.673 70.9684 161.335 71.036 161.065C71.036 160.997 71.1036 160.862 71.1036 160.795C72.05 160.997 72.9288 160.997 73.8752 161.2C75.8356 161.538 75.8356 161.538 75.6328 163.499C75.5652 164.31 75.092 165.189 75.9708 165.865C76.5792 165.932 77.1876 166 77.796 166.135C85.7052 167.352 93.6144 168.636 101.524 169.853C102.402 169.988 103.281 170.123 104.228 170.326C105.039 170.529 105.377 170.191 105.309 169.38L105.444 169.312C105.444 168.974 105.512 168.704 105.512 168.366C105.58 168.028 105.58 167.757 105.647 167.419C105.715 167.149 105.782 166.811 105.782 166.541C105.85 166.203 105.85 165.932 105.918 165.594C105.918 165.391 105.985 165.189 105.985 164.986C106.053 164.58 106.12 164.242 106.256 163.837Z"/><path fill="#F57903" stroke="#1F2023" stroke-miterlimit="10" stroke-width=".676" d="M283.976 283.016C283.773 282.407 283.638 281.799 283.435 281.123C282.624 281.528 281.745 281.258 280.934 281.19C281.204 281.19 281.542 281.19 281.813 281.19C282.354 281.19 282.894 281.258 283.368 280.852C282.759 279.5 282.016 278.284 281.61 276.864C280.934 274.566 278.771 273.281 277.892 271.118C277.351 269.766 276.81 268.414 275.526 267.468C274.985 267.062 274.377 266.859 273.701 266.792C266.13 265.98 258.694 264.561 251.258 263.209C247.134 262.533 243.078 261.586 238.954 260.775C230.707 259.153 222.392 258.004 213.942 258.004C211.982 258.004 209.954 258.004 207.994 258.004C205.83 257.936 203.667 258.342 201.572 258.68C191.972 260.032 183.117 263.074 175.613 269.428C173.72 271.05 171.692 272.605 170.611 274.971C170.611 275.512 171.016 275.782 171.422 275.985C174.734 277.608 177.033 280.312 178.79 283.489C179.128 284.03 179.399 284.638 180.142 284.841C181.156 285.044 182.17 284.841 183.184 284.57C191.094 282.542 199.138 281.866 207.25 281.664C212.996 281.528 218.674 282.069 224.42 282.61C231.721 283.354 239.022 284.03 246.323 284.638C247.607 284.638 248.824 284.976 250.108 284.976C260.857 284.976 271.605 284.976 282.286 284.976C282.962 284.976 283.706 285.044 284.246 284.503C284.179 283.962 284.111 283.489 283.976 283.016Z"/><path fill="#FEC93B" stroke="#1F2023" stroke-miterlimit="10" stroke-width=".676" d="M218.945 221.837C223.339 218.727 228.071 216.091 232.803 213.657C236.926 211.562 241.118 209.601 245.241 207.573C246.796 206.965 248.283 206.424 250.108 205.748C249.162 209.196 248.216 212.44 247.337 215.618C247.066 216.699 245.985 216.429 245.309 216.564C240.509 217.375 235.71 218.389 230.978 219.538C226.922 220.485 222.933 221.634 218.945 222.986C218.539 223.121 218.134 223.392 217.66 223.256C217.593 222.445 218.742 222.513 218.945 221.837Z"/><path fill="#BF972C" d="M218.945 221.837C219.012 222.716 217.796 222.581 217.728 223.324C217.052 223.73 216.376 224.135 215.632 224.27C216.444 223.121 217.796 222.581 218.945 221.837Z"/><path fill="#149283" stroke="#1F2023" stroke-miterlimit="10" stroke-width=".676" d="M179.872 284.57C180.886 284.503 181.968 284.57 182.914 284.232C200.625 283.691 218.337 284.165 236.048 284.029C238.684 284.029 241.388 284.097 244.025 284.367C244.701 284.435 245.444 284.503 246.12 284.3C257.95 284.908 269.848 284.435 281.678 284.57C282.557 284.57 283.368 284.57 284.247 284.503C285.869 284.705 286.68 285.449 286.613 286.666C286.545 287.883 285.666 288.491 283.976 288.491C250.987 288.491 218.066 288.491 185.077 288.491C184.469 288.491 183.725 288.288 183.185 288.761C182.035 288.964 180.886 288.964 179.737 288.761C178.791 288.559 177.979 288.221 178.047 287.004C178.115 286.666 178.317 286.463 178.655 286.666C179.872 287.274 179.94 286.666 179.669 285.719C179.737 285.314 179.534 284.908 179.872 284.57Z"/><path fill="#149283" stroke="#1F2023" stroke-miterlimit="10" stroke-width=".676" d="M47.038 284.502C55.3528 284.435 63.7352 284.84 72.05 284.3C72.9288 284.232 73.74 284.3 74.6188 284.3C76.9848 284.638 79.3508 284.232 81.7168 284.232C83.88 284.164 86.0432 284.097 88.2064 284.097C107.27 284.097 126.4 284.097 145.464 284.029C146.748 284.029 148.032 284.435 149.317 284.232C149.722 284.367 150.06 284.435 150.466 284.57C150.736 284.908 150.601 285.246 150.534 285.584C150.466 285.99 150.196 286.53 150.736 286.733C151.277 287.004 151.412 286.328 151.615 285.99C151.886 285.584 151.953 284.908 152.764 285.111C153.508 285.652 153.778 286.395 153.44 287.206C153.102 288.22 152.359 288.761 151.345 288.829C149.858 288.964 148.37 288.761 146.883 289.099C146.545 288.153 145.734 288.491 145.058 288.491C120.181 288.491 95.2368 288.491 70.36 288.491C62.7212 288.491 55.15 288.491 47.5112 288.491C46.7 288.491 45.8888 288.558 45.2804 287.815C44.8072 287.206 44.672 286.598 44.8748 285.854C45.2804 284.84 46.0916 284.57 47.038 284.502Z"/><path fill="#E77305" stroke="#1F2023" stroke-width=".5" d="M170.284 274.802V274.801L170.274 274.798C169.799 274.663 169.34 274.531 168.884 274.336L168.849 274.321L168.811 274.317C168.476 274.283 168.158 274.266 167.855 274.25L167.827 274.248C167.514 274.231 167.217 274.215 166.92 274.182L166.907 274.18H166.893C166.759 274.18 166.627 274.195 166.513 274.207C166.393 274.22 166.294 274.231 166.2 274.231C166.026 274.231 165.906 274.194 165.8 274.067L165.72 273.971L165.595 273.978C163.084 274.114 160.542 274.454 158.197 275.626C154.343 277.485 151.943 280.649 150.238 284.399L150.231 284.416L150.226 284.434C150.161 284.662 150.079 284.89 149.994 285.128L149.993 285.132C149.909 285.366 149.822 285.609 149.752 285.854L149.75 285.862C149.677 286.156 149.651 286.478 149.746 286.776C149.846 287.085 150.068 287.341 150.432 287.503L150.441 287.506C150.638 287.585 150.824 287.617 151 287.597C151.179 287.575 151.328 287.502 151.452 287.4C151.687 287.208 151.844 286.903 151.974 286.643L151.977 286.636L151.98 286.629C152.083 286.39 152.185 286.134 152.286 285.882L152.287 285.88C152.388 285.626 152.489 285.375 152.589 285.142L152.591 285.136C155.381 278.161 162.145 275.108 168.992 276.903C173.882 278.225 176.54 281.921 178.148 286.612L178.164 286.657L178.195 286.693C178.267 286.778 178.334 286.873 178.409 286.98C178.429 287.008 178.449 287.037 178.47 287.067C178.565 287.202 178.677 287.352 178.811 287.47C178.948 287.592 179.122 287.691 179.342 287.703C179.557 287.713 179.777 287.637 180.006 287.486C180.412 287.24 180.59 286.896 180.612 286.52C180.632 286.165 180.512 285.801 180.373 285.487C180.249 285.175 180.185 284.861 180.117 284.521L180.11 284.487L180.094 284.456C177.986 280.374 175.247 276.871 170.915 274.945L170.904 274.941L170.893 274.937C170.773 274.897 170.655 274.877 170.557 274.861L170.551 274.86C170.446 274.842 170.364 274.828 170.284 274.802Z"/><path fill="#CAC8B4" d="M207.723 258.476C209.819 258.003 211.982 258.003 214.078 258.476C211.982 258.476 209.886 258.476 207.723 258.476Z"/><path fill="#FEDF89" stroke="#1F2023" stroke-miterlimit="10" stroke-width=".676" d="M130.524 277.269C130.524 275.782 130.456 274.227 130.456 272.74C130.186 271.253 130.592 269.698 130.321 268.211C130.321 268.008 130.254 267.737 130.254 267.535C129.983 267.264 129.983 266.926 130.186 266.588C130.186 264.695 130.186 262.803 130.186 260.977C130.321 260.842 130.456 260.775 130.659 260.775C135.324 260.707 139.988 261.315 144.517 262.532C145.126 262.667 145.734 262.803 146.207 263.141C146.342 263.276 146.41 263.411 146.342 263.614C146.207 269.495 146.14 275.444 146.004 281.663C144.923 280.852 144.112 280.243 143.233 279.635C142.557 279.432 142.016 279.094 141.475 278.689C141.34 278.553 141.137 278.418 141.002 278.351C137.622 275.714 138.906 275.849 135.256 278.013C134.918 278.283 134.512 278.351 134.107 278.486C132.89 278.756 132.011 279.703 130.727 280.243C130.321 279.567 130.659 278.891 130.456 278.215C130.321 277.877 130.321 277.539 130.524 277.269Z"/><path fill="#1AC3AF" stroke="#1F2023" stroke-width=".5" d="M180.447 288.671C180.708 288.708 180.964 288.703 181.205 288.687C181.307 288.681 181.401 288.673 181.493 288.666C181.631 288.655 181.762 288.644 181.901 288.639C182.291 288.625 182.641 288.662 182.977 288.874C182.837 289.558 182.551 290.04 182.157 290.358C181.732 290.701 181.152 290.877 180.413 290.877H180.353H180.292H180.232H180.172H180.112H180.052H179.991H179.931H179.871H179.811H179.751H179.69H179.63H179.57H179.51H179.45H179.389H179.329H179.269H179.209H179.149H179.088H179.028H178.968H178.908H178.847H178.787H178.727H178.667H178.607H178.546H178.486H178.426H178.366H178.306H178.245H178.185H178.125H178.065H178.005H177.944H177.884H177.824H177.764H177.704H177.643H177.583H177.523H177.463H177.403H177.342H177.282H177.222H177.162H177.102H177.041H176.981H176.921H176.861H176.8H176.74H176.68H176.62H176.56H176.499H176.439H176.379H176.319H176.259H176.198H176.138H176.078H176.018H175.958H175.897H175.837H175.777H175.717H175.657H175.596H175.536H175.476H175.416H175.356H175.295H175.235H175.175H175.115H175.055H174.994H174.934H174.874H174.814H174.753H174.693H174.633H174.573H174.513H174.452H174.392H174.332H174.272H174.212H174.151H174.091H174.031H173.971H173.911H173.85H173.79H173.73H173.67H173.61H173.549H173.489H173.429H173.369H173.309H173.248H173.188H173.128H173.068H173.007H172.947H172.887H172.827H172.767H172.706H172.646H172.586H172.526H172.466H172.405H172.345H172.285H172.225H172.165H172.104H172.044H171.984H171.924H171.864H171.803H171.743H171.683H171.623H171.563H171.502H171.442H171.382H171.322H171.262H171.201H171.141H171.081H171.021H170.96H170.9H170.84H170.78H170.72H170.659H170.599H170.539H170.479H170.419H170.358H170.298H170.238H170.178H170.118H170.057H169.997H169.937H169.877H169.817H169.756H169.696H169.636H169.576H169.516H169.455H169.395H169.335H169.275H169.214H169.154H169.094H169.034H168.974H168.913H168.853H168.793H168.733H168.673H168.612H168.552H168.492H168.432H168.372H168.311H168.251H168.191H168.131H168.071H168.01H167.95H167.89H167.83H167.77H167.709H167.649H167.589H167.529H167.469H167.408H167.348H167.288H167.228H167.167H167.107H167.047H166.987H166.927H166.866H166.806H166.746H166.686H166.626H166.565H166.505H166.445H166.385H166.325H166.264H166.204H166.144H166.084H166.024H165.963H165.903H165.843H165.783H165.723H165.662H165.602H165.542H165.482H165.422H165.361H165.301H165.241H165.181H165.12H165.06H165H164.94H164.88H164.819H164.759H164.699H164.639H164.579H164.518H164.458H164.398H164.338H164.278H164.217H164.157H164.097H164.037H163.977H163.916H163.856H163.796H163.736H163.676H163.615H163.555H163.495H163.435H163.374H163.314H163.254H163.194H163.134H163.073H163.013H162.953H162.893H162.833H162.772H162.712H162.652H162.592H162.532H162.471H162.411H162.351H162.291H162.231H162.17H162.11H162.05H161.99H161.93H161.869H161.809H161.749H161.689H161.629H161.568H161.508H161.448H161.388H161.327H161.267H161.207H161.147H161.087H161.026H160.966H160.906H160.846H160.786H160.725H160.665H160.605H160.545H160.485H160.424H160.364H160.304H160.244H160.184H160.123H160.063H160.003H159.943H159.883H159.822H159.762H159.702H159.642H159.582H159.521H159.461H159.401H159.341H159.28H159.22H159.16H159.1H159.04H158.979H158.919H158.859H158.799H158.739H158.678H158.618H158.558H158.498H158.438H158.377H158.317H158.257H158.197H158.137H158.076H158.016H157.956H157.896H157.836H157.775H157.715H157.655H157.595H157.534H157.474H157.414H157.354H157.294H157.233H157.173H157.113H157.053H156.993H156.932H156.872H156.812H156.752H156.692H156.631H156.571H156.511H156.451H156.391H156.33H156.27H156.21H156.15H156.09H156.029H155.969H155.909H155.849H155.789H155.728H155.668H155.608H155.548H155.487H155.427H155.367H155.307H155.247H155.186H155.126H155.066H155.006H154.946H154.885H154.825H154.765H154.705H154.645H154.584H154.524H154.464H154.404H154.344H154.283H154.223H154.163H154.103H154.043H153.982H153.922H153.862H153.802H153.741H153.681H153.621H153.561H153.501H153.44H153.38H153.32H153.26H153.2H153.139H153.079H153.019H152.959H152.899H152.838H152.778H152.718H152.658H152.598H152.537H152.477H152.417H152.357H152.297H152.236H152.176H152.116H152.056H151.996H151.935H151.875H151.815H151.755H151.694H151.634H151.574H151.514H151.454H151.393H151.333H151.273H151.213H151.153H151.092H151.032H150.972H150.912H150.852H150.791H150.731H150.671H150.611H150.551H150.49H150.43H150.37H150.31H150.25H150.189H150.129H150.069H150.009H149.949H149.888H149.828H149.768H149.708H149.647H149.587C148.942 290.877 148.387 290.748 147.96 290.463C147.547 290.187 147.229 289.751 147.069 289.085C147.085 288.967 147.115 288.893 147.146 288.845C147.179 288.796 147.221 288.762 147.279 288.737C147.415 288.678 147.61 288.673 147.897 288.673C148.25 288.673 148.589 288.665 148.922 288.658C149.568 288.643 150.192 288.628 150.855 288.673H150.856C151.438 288.709 151.931 288.601 152.338 288.348C152.745 288.097 153.044 287.715 153.262 287.244C153.491 286.747 153.497 286.287 153.335 285.873C153.186 285.49 152.902 285.167 152.569 284.892C152.391 284.369 152.644 283.883 152.976 283.35L152.977 283.351L152.981 283.344C155.578 278.882 159.358 276.365 164.607 276.099H164.609C168.067 275.9 171.045 276.762 173.696 278.949C175.746 280.668 177.078 282.923 178.152 285.337C178.162 285.369 178.173 285.4 178.183 285.431C178.243 285.606 178.296 285.761 178.314 285.917C178.334 286.087 178.307 286.233 178.193 286.37L178.145 286.427L178.137 286.501C178.083 286.951 178.12 287.318 178.244 287.616C178.37 287.918 178.576 288.129 178.824 288.275C179.066 288.418 179.345 288.499 179.62 288.553C179.846 288.598 180.084 288.627 180.308 288.654C180.355 288.66 180.402 288.665 180.447 288.671ZM180.447 288.671C180.447 288.671 180.446 288.671 180.445 288.671L180.48 288.423L180.447 288.671ZM180.447 288.671C180.448 288.671 180.449 288.671 180.449 288.671L180.48 288.423L180.447 288.671ZM180.48 288.423C180.809 288.47 181.138 288.444 181.463 288.418C182.076 288.368 182.678 288.32 183.252 288.761L178.385 286.53C178.191 288.145 179.293 288.279 180.335 288.405C180.383 288.411 180.432 288.417 180.48 288.423Z"/><path fill="#A3E7DF" stroke="#1F2023" d="M200.12 282.027H200.123C210.164 281.244 220.211 282.231 230.247 283.217C230.564 283.248 230.88 283.279 231.196 283.31C233.51 283.564 235.841 283.788 238.178 284.003H238.099H237.982H237.864H237.747H237.63H237.513H237.395H237.278H237.161H237.044H236.926H236.809H236.692H236.575H236.458H236.34H236.223H236.106H235.989H235.871H235.754H235.637H235.52H235.402H235.285H235.168H235.051H234.933H234.816H234.699H234.582H234.464H234.347H234.23H234.113H233.995H233.878H233.761H233.644H233.526H233.409H233.292H233.175H233.057H232.94H232.823H232.706H232.588H232.471H232.354H232.237H232.119H232.002H231.885H231.768H231.651H231.533H231.416H231.299H231.182H231.064H230.947H230.83H230.713H230.595H230.478H230.361H230.244H230.126H230.009H229.892H229.775H229.657H229.54H229.423H229.306H229.188H229.071H228.954H228.837H228.719H228.602H228.485H228.368H228.25H228.133H228.016H227.899H227.781H227.664H227.547H227.43H227.312H227.195H227.078H226.961H226.844H226.726H226.609H226.492H226.375H226.257H226.14H226.023H225.906H225.788H225.671H225.554H225.437H225.319H225.202H225.085H224.968H224.85H224.733H224.616H224.499H224.381H224.264H224.147H224.03H223.912H223.795H223.678H223.561H223.443H223.326H223.209H223.092H222.974H222.857H222.74H222.623H222.506H222.388H222.271H222.154H222.037H221.919H221.802H221.685H221.568H221.45H221.333H221.216H221.099H220.981H220.864H220.747H220.63H220.512H220.395H220.278H220.161H220.043H219.926H219.809H219.692H219.574H219.457H219.34H219.223H219.105H218.988H218.871H218.754H218.636H218.519H218.402H218.285H218.167H218.05H217.933H217.816H217.699H217.581H217.464H217.347H217.23H217.112H216.995H216.878H216.761H216.643H216.526H216.409H216.292H216.174H216.057H215.94H215.823H215.705H215.588H215.471H215.354H215.236H215.119H215.002H214.885H214.767H214.65H214.533H214.416H214.298H214.181H214.064H213.947H213.829H213.712H213.595H213.478H213.36H213.243H213.126H213.009H212.892H212.774H212.657H212.54H212.423H212.305H212.188H212.071H211.954H211.836H211.719H211.602H211.485H211.367H211.25H211.133H211.016H210.898H210.781H210.664H210.547H210.429H210.312H210.195H210.078H209.96H209.843H209.726H209.609H209.491H209.374H209.257H209.14H209.022H208.905H208.788H208.671H208.554H208.436H208.319H208.202H208.085H207.967H207.85H207.733H207.616H207.498H207.381H207.264H207.147H207.029H206.912H206.795H206.678H206.56H206.443H206.326H206.209H206.091H205.974H205.857H205.74H205.622H205.505H205.388H205.271H205.153H205.036H204.919H204.802H204.684H204.567H204.45H204.333H204.215H204.098H203.981H203.864H203.747H203.629H203.512H203.395H203.278H203.16H203.043H202.926H202.809H202.691H202.574H202.457H202.34H202.222H202.105H201.988H201.871H201.753H201.636H201.519H201.402H201.284H201.167H201.05H200.933H200.815H200.698H200.581H200.464H200.346H200.229H200.112H199.995H199.877H199.76H199.643H199.526H199.408H199.291H199.174H199.057H198.94H198.822H198.705H198.588H198.471H198.353H198.236H198.119H198.002H197.884H197.767H197.65H197.533H197.415H197.298H197.181H197.064H196.946H196.829H196.712H196.595H196.477H196.36H196.243H196.126H196.008H195.891H195.774H195.657H195.539H195.422H195.305H195.188H195.07H194.953H194.836H194.719H194.601H194.484H194.367H194.25H194.133H194.015H193.898H193.781H193.664H193.546H193.429H193.312H193.195H193.077H192.96H192.843H192.726H192.608H192.491H192.374H192.257H192.139H192.022H191.905H191.788H191.67H191.553H191.436H191.319H191.201H191.084H190.967H190.85H190.732H190.615H190.498H190.381H190.263H190.146H190.029H189.912H189.795H189.677H189.56H189.443H189.326H189.208H189.091H188.974H188.857H188.739H188.622H188.505H188.388H188.27H188.153H188.036H187.919H187.801H187.684H187.567H187.45H187.332H187.215H187.098H186.981H186.863H186.746H186.629H186.512H186.394H186.277H186.16H186.043H185.931C190.6 282.932 195.354 282.364 200.12 282.027Z"/><path fill="#A3E7DF" stroke="#1F2023" d="M146.023 283.772C138.103 281.96 130.038 281.555 121.952 281.757L146.023 283.772ZM146.023 283.772C146.312 283.844 146.596 283.921 146.879 284.002H146.775H146.635H146.495H146.355H146.215H146.074H145.934H145.794H145.654H145.514H145.374H145.233H145.093H144.953H144.813H144.673H144.532H144.392H144.252H144.112H143.972H143.831H143.691H143.551H143.411H143.271H143.131H142.99H142.85H142.71H142.57H142.43H142.29H142.149H142.009H141.869H141.729H141.589H141.449H141.309H141.168H141.028H140.888H140.748H140.608H140.468H140.328H140.187H140.047H139.907H139.767H139.627H139.487H139.347H139.206H139.066H138.926H138.786H138.646H138.506H138.366H138.226H138.085H137.945H137.805H137.665H137.525H137.385H137.245H137.105H136.964H136.824H136.684H136.544H136.404H136.264H136.124H135.984H135.844H135.703H135.563H135.423H135.283H135.143H135.003H134.863H134.723H134.583H134.443H134.302H134.162H134.022H133.882H133.742H133.602H133.462H133.322H133.182H133.042H132.902H132.761H132.621H132.481H132.341H132.201H132.061H131.921H131.781H131.641H131.501H131.361H131.221H131.081H130.94H130.8H130.66H130.52H130.38H130.24H130.1H129.96H129.82H129.68H129.54H129.4H129.26H129.12H128.979H128.839H128.699H128.559H128.419H128.279H128.139H127.999H127.859H127.719H127.579H127.439H127.299H127.159H127.019H126.879H126.739H126.598H126.458H126.318H126.178H126.038H125.898H125.758H125.618H125.478H125.338H125.198H125.058H124.918H124.778H124.638H124.498H124.358H124.218H124.078H123.938H123.798H123.658H123.517H123.377H123.237H123.097H122.957H122.817H122.677H122.537H122.397H122.257H122.117H121.977H121.837H121.697H121.557H121.417H121.277H121.137H120.997H120.857H120.717H120.577H120.437H120.297H120.157H120.017H119.877H119.737H119.597H119.457H119.317H119.176H119.036H118.896H118.756H118.616H118.476H118.336H118.196H118.056H117.916H117.776H117.636H117.496H117.356H117.216H117.076H116.936H116.796H116.656H116.516H116.376H116.236H116.096H115.956H115.816H115.676H115.536H115.396H115.256H115.116H114.976H114.836H114.696H114.556H114.416H114.276H114.136H113.996H113.856H113.716H113.576H113.436H113.296H113.156H113.016H112.875H112.735H112.595H112.455H112.315H112.175H112.035H111.895H111.755H111.615H111.475H111.335H111.195H111.055H110.915H110.775H110.635H110.495H110.355H110.215H110.075H109.935H109.795H109.655H109.515H109.375H109.235H109.095H108.955H108.815H108.675H108.535H108.395H108.255H108.115H107.975H107.835H107.695H107.555H107.415H107.275H107.135H106.995H106.855H106.715H106.575H106.435H106.295H106.154H106.014H105.874H105.734H105.594H105.454H105.314H105.174H105.034H104.894H104.754H104.614H104.474H104.334H104.194H104.054H103.914H103.774H103.634H103.494H103.354H103.214H103.074H102.934H102.794H102.654H102.514H102.374H102.234H102.094H101.954H101.814H101.674H101.534H101.393H101.253H101.113H100.973H100.833H100.693H100.553H100.413H100.273H100.133H99.9931H99.853H99.713H99.573H99.4329H99.2929H99.1528H99.0128H98.8727H98.7327H98.5926H98.4526H98.3125H98.1725H98.0324H97.8924H97.7523H97.6123H97.4722H97.3322H97.1921H97.0521H96.912H96.772H96.6319H96.4919H96.3518H96.2118H96.0717H95.9316H95.7916H95.6515H95.5115H95.3714H95.2313H95.0913H94.9512H94.8111H94.6711H94.531H94.3909H94.2509H94.1108H93.9707H93.8307H93.6906H93.5505H93.4105H93.2704H93.1303H92.9902H92.8502H92.7101H92.57H92.4299H92.2898H92.1498H92.0097H91.8696H91.7295H91.5894H91.4494H91.3093H91.1692H91.0291H90.889H90.7489H90.6088H90.4687H90.3287H90.1886H90.0485H89.9084H89.7683H89.6282H89.4881H89.348H89.2079H89.0678H88.9277H88.7876H88.6475H88.5074H88.3673H88.2272H88.0871H87.947H87.8068H87.6667H87.5266H87.3865H87.2464H87.1063H86.9662H86.8261H86.6859H86.5458H86.4057H86.2656H86.1255H85.9853H85.8452H85.7836C88.1665 283.829 90.5482 283.649 92.9297 283.469C102.592 282.737 112.249 282.006 121.951 281.757L146.023 283.772Z"/><path fill="#95806D" d="M249.906 267.264C244.43 266.115 239.022 265.101 233.546 264.087C227.26 262.87 220.973 262.126 214.618 261.856C205.695 261.383 197.042 262.938 188.592 266.047C186.024 266.994 183.455 268.075 181.156 269.562C183.658 268.751 186.024 267.737 188.525 266.926C195.082 264.695 201.774 263.208 208.67 263.005C215.97 262.735 223.068 263.614 230.234 264.763C239.901 266.318 249.5 268.21 259.099 269.968C260.924 270.306 262.75 270.914 264.642 270.712C259.708 269.562 254.84 268.346 249.906 267.264Z"/><path fill="#95806D" d="M181.089 275.106C197.989 268.008 215.43 267.941 233.208 270.712C215.362 267.062 197.854 266.521 181.089 275.106Z"/><path fill="#95806D" d="M186.902 278.418C200.422 274.159 214.213 274.7 228.003 276.525C214.145 273.956 200.422 273.01 186.902 278.418Z"/><path fill="#0A0A0A" d="M132.146 259.423C127.144 259.423 122.074 259.423 117.071 259.964C112.204 260.437 107.405 261.181 102.673 262.06C96.9267 263.074 91.2483 264.628 85.5023 265.913C82.7983 266.521 80.0943 267.265 77.3903 268.008C77.7283 268.211 78.0663 268.279 78.3367 268.211C87.8683 265.913 97.4675 263.885 107.202 262.465C114.908 261.384 122.615 260.91 130.321 261.113C130.389 261.113 130.524 261.046 130.591 261.046C131.538 260.37 132.687 260.37 133.633 259.761C133.16 259.288 132.619 259.423 132.146 259.423Z"/><path fill="#0A0A0A" d="M129.24 271.659C123.426 271.253 117.68 271.523 111.934 271.929C107.067 272.267 102.267 272.875 97.4677 273.619C94.2905 274.16 91.1133 274.498 88.0037 275.377C102.132 273.551 116.26 271.591 130.524 272.808C130.524 271.185 130.051 271.659 129.24 271.659Z"/><path fill="#0A0A0A" d="M93.7498 279.567C105.985 278.215 118.221 277.607 130.524 278.215V277.269C118.221 276.999 105.918 277.269 93.7498 279.567Z"/><path fill="#0A0A0A" d="M130.321 267.535C130.321 267.197 130.321 266.926 130.254 266.588C129.713 266.318 129.104 266.385 128.496 266.385C122.48 266.385 116.463 266.926 110.514 267.602C106.999 268.008 103.552 268.616 100.104 269.089C110.109 268.075 120.114 266.791 130.321 267.535Z"/><path fill="#0A0A0A" d="M146.613 261.856C146.68 262.397 146.613 262.87 146.342 263.344C146.342 263.479 146.41 263.546 146.41 263.682C151.818 264.966 156.347 267.94 160.471 271.591C156.955 266.588 152.156 263.682 146.613 261.856Z"/><path fill="#fff" stroke="#1F2023" stroke-miterlimit="10" stroke-width=".676" d="M241.523 208.452C238.414 209.399 233.682 210.818 228.003 212.846C208.872 219.674 195.217 224.676 183.793 236.506C181.021 239.346 177.1 243.943 173.382 250.567C172.977 238.332 171.354 228.394 169.935 221.296C168.65 215.212 167.704 210.616 165.473 204.532C162.296 196.014 157.834 188.105 152.494 180.736C149.655 176.816 146.68 172.962 143.706 169.109C143.03 168.23 142.354 167.825 141.205 168.568C136.202 171.746 131.2 174.855 126.198 178.032C122.344 180.466 118.491 182.832 114.57 185.198C117.207 187.632 119.843 190.065 122.412 192.566C126.062 196.149 129.713 199.8 133.228 203.585C135.864 206.492 138.568 209.331 141.137 212.306C146.68 218.66 152.021 225.285 156.888 232.248C160.403 237.318 163.851 242.388 166.42 247.998C168.448 252.325 169.732 256.854 170.205 261.654C170.273 261.992 170.07 262.668 170.611 262.735C170.611 265.913 170.611 269.022 170.611 272.47C173.45 268.617 176.086 264.966 178.723 261.316C179.399 261.383 179.602 260.707 179.94 260.234C184.672 254.015 189.742 248.066 195.014 242.32C201.234 235.56 207.994 229.476 215.7 224.338C216.849 223.46 218.134 222.919 219.283 222.108C227.192 216.97 235.507 212.644 244.092 208.79C244.227 208.723 244.633 208.52 245.174 208.182C247.134 207.168 248.892 206.424 250.176 205.884C248.216 206.357 245.241 207.303 241.523 208.452Z"/><path fill="#fff" stroke="#1F2023" stroke-miterlimit="10" stroke-width=".676" d="M163.107 258.747C162.702 257.868 162.228 257.057 161.62 256.313C161.417 256.111 161.147 255.908 160.944 255.705C160.876 255.57 160.809 255.367 160.741 255.232C156.753 248.675 152.021 242.726 146.816 237.115C143.3 233.329 139.65 229.747 135.662 226.434C130.051 221.77 124.17 217.376 118.221 213.252C116.598 212.171 114.976 211.021 113.354 209.94C113.354 210.075 113.354 210.143 113.286 210.278C112.137 209.061 110.852 208.047 109.095 207.709C108.96 207.912 108.824 208.115 108.622 208.25C106.323 209.805 104.092 211.495 101.862 213.117C96.8593 216.835 92.2625 221.094 87.7333 225.285C83.1365 229.544 78.8777 234.141 74.6189 238.67C74.3485 238.94 74.0105 239.211 74.0781 239.684C74.4161 240.157 74.8893 240.292 75.4301 240.292C76.9173 240.225 78.3369 240.563 79.7565 240.698C85.5701 241.103 91.3837 241.644 97.1973 242.185C103.687 242.793 110.176 243.469 116.666 244.281C125.386 245.362 133.972 246.849 142.422 249.215C148.303 250.838 153.981 252.866 158.781 256.651C159.93 257.53 160.944 258.612 161.958 259.626C162.296 259.964 162.769 260.505 163.242 260.234C163.783 259.829 163.31 259.22 163.107 258.747Z"/><path fill="#fff" stroke="#1F2023" stroke-miterlimit="10" stroke-width=".676" d="M167.434 273.214C167.298 272.064 167.163 270.983 166.622 269.969C166.42 269.698 166.284 269.293 166.082 268.955C165 263.885 162.026 259.964 158.105 256.652C154.657 253.812 150.534 252.122 146.342 250.703C137.69 247.728 128.834 246.106 119.776 244.822C115.044 244.146 110.312 243.605 105.58 243.199C100.712 242.794 95.7776 242.253 90.9104 241.78C89.0176 241.712 87.1248 241.239 85.1644 241.442C85.1644 241.374 85.0968 241.306 85.0968 241.239C83.8124 240.766 82.4604 240.766 81.176 240.63C80.5 240.563 79.824 240.292 79.2156 240.833C79.2156 241.171 79.0804 241.374 78.8776 241.644C74.6864 245.903 70.7656 250.432 66.7772 254.962C63.1268 259.085 59.4088 263.141 55.9612 267.4C61.7072 266.792 67.3856 265.71 72.9964 264.561C82.866 262.6 92.6004 260.437 102.47 258.409C109.23 257.057 115.99 256.043 122.885 255.638C128.766 255.3 134.648 255.57 140.461 256.516C146.275 257.463 151.818 259.22 156.618 262.803C160.606 265.778 163.918 269.428 165.744 274.16C166.014 274.836 166.555 274.701 167.028 274.566C167.434 274.295 167.501 273.754 167.434 273.214Z"/><path fill="#fff" stroke="#1F2023" stroke-miterlimit="10" stroke-width=".676" d="M169.935 266.927C169.8 266.454 169.664 266.048 169.597 265.642C169.664 259.896 168.448 254.353 166.217 249.013C162.837 241.104 157.767 234.344 152.697 227.516C148.573 221.973 144.247 216.497 139.65 211.292C135.662 206.695 131.606 202.166 127.212 197.907C125.657 196.285 124.17 194.662 122.48 193.243C122.48 193.175 122.547 193.175 122.547 193.108C121.398 191.215 119.708 189.998 117.95 188.781C117.95 188.781 117.883 188.849 117.815 188.849C117.612 189.187 117.342 189.457 117.004 189.66C110.988 192.905 105.512 196.893 99.9688 200.882C100.374 201.558 101.118 201.896 101.726 202.301C112.137 208.926 122.48 215.686 132.282 223.19C138.704 228.124 144.517 233.668 149.858 239.752C155.13 245.836 159.93 252.325 163.783 259.491C166.149 263.817 168.177 268.346 168.38 273.416C168.38 273.957 168.312 274.633 169.191 274.633C169.732 274.295 169.732 273.754 169.8 273.214C170.205 271.118 170.138 269.022 169.935 266.927Z"/><path fill="#fff" stroke="#1F2023" stroke-miterlimit="10" stroke-width=".676" d="M274.782 266.048C270.118 259.22 265.454 252.46 260.992 245.497C259.64 243.402 257.95 242.32 255.584 241.779C249.635 240.292 243.619 239.075 237.535 238.129C234.02 237.588 230.504 236.912 226.989 236.777C221.987 236.574 216.984 236.439 211.982 237.25C206.642 238.129 201.504 239.616 196.772 242.117C196.366 242.32 194.203 243.875 194.136 243.942C193.798 244.28 193.392 244.618 193.054 244.956C190.282 248.201 187.511 251.446 184.807 254.758C181.494 258.882 178.25 263.073 175.41 267.467C173.45 269.833 171.828 272.334 170.34 275.038C170.543 275.241 170.746 275.309 170.949 275.174C171.354 274.565 171.76 273.889 172.233 273.348C175.951 269.292 180.345 266.115 185.348 263.749C192.513 260.437 200.017 258.95 207.858 258.409C209.954 258.206 212.117 258.206 214.213 258.409C217.39 258.409 220.5 258.747 223.677 258.95C230.031 259.355 236.25 260.842 242.47 261.856C245.444 262.33 248.418 263.344 251.46 263.546C252.745 264.087 254.097 264.087 255.381 264.358C262.074 265.642 268.834 266.724 275.661 267.467C275.458 266.926 275.12 266.521 274.782 266.048Z"/><path fill="#FEC93B" stroke="#000" stroke-width=".5" d="M100.157 200.73L99.8796 201.144C104.971 205.244 110.419 209.084 115.976 213L116.097 213.086C121.698 217.034 127.409 221.062 132.987 225.523C143.656 234.053 153.837 244.158 161.812 258.266C158.806 255.297 154.257 252.807 148.709 250.715C142.137 248.237 134.128 246.305 125.539 244.804C108.361 241.801 88.8278 240.516 73.7478 240.043L73.6759 240.534C77.5911 241.572 84.3333 242.114 92.4204 242.709C92.9975 242.752 93.5815 242.794 94.172 242.838C101.871 243.401 110.667 244.044 119.413 245.205C128.832 246.454 138.178 248.302 146.022 251.287C153.87 254.274 160.179 258.388 163.568 264.147L163.578 264.164L163.591 264.18C164.865 265.715 165.413 267.869 165.854 269.936C165.901 270.155 165.946 270.374 165.991 270.59C166.157 271.384 166.317 272.151 166.508 272.833C166.751 273.698 167.055 274.466 167.515 274.999L167.865 275.406L167.951 274.876C168.945 268.706 166.697 261.824 162.431 254.787C158.161 247.744 151.851 240.513 144.665 233.631C130.291 219.866 112.376 207.466 100.157 200.73Z"/><path fill="#FEC93B" stroke="#000" stroke-width=".5" d="M178.751 261.412L178.812 261.386L178.852 261.335C186.897 251.072 195.477 240.399 205.675 231.814C195.302 241.134 186.486 252.405 180.085 261.1C178.587 263.135 177.223 265.026 176.002 266.718C173.824 269.738 172.103 272.125 170.894 273.562C170.422 274.122 170.04 274.524 169.746 274.761C169.598 274.88 169.487 274.946 169.41 274.974C169.376 274.986 169.357 274.988 169.347 274.989C169.339 274.978 169.32 274.946 169.303 274.866C169.28 274.755 169.271 274.59 169.285 274.359C169.313 273.898 169.427 273.228 169.638 272.324L169.641 272.307L169.643 272.29C171.207 255.491 161.755 238.422 150.097 223.559C141.939 213.16 132.666 203.8 125.282 196.346C122.112 193.146 119.289 190.297 117.053 187.868L117.024 187.837L116.986 187.817C116.772 187.702 116.42 187.395 116.047 187.007C115.681 186.625 115.321 186.192 115.09 185.852C115.056 185.802 115.026 185.756 115 185.713C115.195 185.823 115.466 186.001 115.828 186.268C129.345 199.346 143.691 213.795 154.329 228.239C164.975 242.692 171.87 257.089 170.566 270.068C170.507 270.386 170.473 270.643 170.465 270.842C170.461 270.943 170.464 271.035 170.475 271.116C170.486 271.194 170.507 271.278 170.551 271.352C170.6 271.433 170.679 271.504 170.792 271.526C170.895 271.547 170.987 271.519 171.054 271.488C171.182 271.429 171.311 271.311 171.433 271.18C171.927 270.65 172.692 269.458 173.551 268.109C173.599 268.034 173.647 267.959 173.695 267.883C174.526 266.577 175.447 265.129 176.33 263.92C176.796 263.281 177.248 262.714 177.665 262.274C178.088 261.828 178.455 261.534 178.751 261.412Z"/><path fill="#F6F7E0" stroke="#1F2023" stroke-miterlimit="10" stroke-width=".676" d="M236.521 105.363C236.926 104.146 237.603 103.132 238.819 102.456C246.999 97.8593 255.246 93.2625 263.426 88.5981C264.305 88.1249 264.71 88.1925 265.116 89.0037C265.859 89.5445 266.333 90.2881 266.806 91.0993C273.228 102.591 279.717 114.016 286.207 125.44C286.68 126.184 287.221 126.995 287.086 127.941C286.815 128.752 286.072 129.023 285.463 129.428C278.027 133.687 270.591 137.811 263.088 142.07C261.398 143.016 259.775 143.962 259.505 146.193C259.505 146.396 259.302 146.531 259.099 146.666C258.153 146.531 257.95 145.652 257.544 144.976C253.218 137.473 249.027 129.902 244.768 122.398C242.402 118.274 240.036 114.083 237.738 109.892C237.265 109.013 236.724 108.134 236.521 107.188C236.183 106.58 236.183 105.971 236.521 105.363Z"/><path fill="#F6F7E0" stroke="#1F2023" stroke-miterlimit="10" stroke-width=".676" d="M229.964 107.593C230.64 107.052 231.383 106.647 232.262 106.309C232.6 106.444 232.803 106.714 232.938 107.052C237.129 114.759 241.523 122.33 245.85 129.969C248.554 134.768 251.325 139.5 253.962 144.3C254.367 145.043 254.705 145.719 254.367 146.598C254.029 147.207 253.488 147.545 252.88 147.815C245.512 152.006 238.143 156.13 230.707 160.253C229.964 160.659 229.22 161.335 228.206 160.862C227.057 159.78 226.448 158.293 225.705 156.941C219.553 146.057 213.402 135.174 207.318 124.29C206.912 123.547 206.439 122.803 206.439 121.924C206.304 121.451 205.763 121.045 206.574 120.572C213.131 116.922 219.688 113.271 226.246 109.553C226.719 109.621 226.989 110.027 227.192 110.432C228.612 112.933 230.099 115.435 231.518 118.003C231.789 118.477 232.059 119.017 231.924 119.558C231.654 120.302 230.978 120.572 230.369 120.91C225.84 123.479 221.311 125.98 216.849 128.617C221.243 126.183 225.637 123.749 230.031 121.248C230.775 120.843 231.451 120.234 232.397 120.302C233.276 120.775 233.614 121.519 233.614 122.465C232.735 123.817 231.248 124.29 229.964 125.034C226.11 127.129 222.392 129.36 218.539 131.523C222.528 129.36 226.516 127.129 230.504 124.899C231.654 124.29 232.668 123.479 234.02 123.209C234.898 123.682 235.304 124.425 235.236 125.372C234.831 126.318 233.952 126.656 233.208 127.062C229.085 129.428 224.961 131.726 220.838 134.025C220.635 134.092 220.5 134.227 220.297 134.498C224.691 132.064 228.95 129.563 233.276 127.197C234.087 126.791 234.763 126.115 235.777 126.251C236.588 126.791 236.994 127.467 236.926 128.414C236.318 129.36 235.304 129.766 234.425 130.239C230.572 132.335 226.854 134.565 223.001 136.661C222.663 136.864 222.325 136.999 221.852 137.472C226.516 134.903 230.842 132.335 235.304 129.901C235.98 129.563 236.588 129.022 237.4 129.09C238.278 129.563 238.616 130.307 238.549 131.253C238.076 132.199 237.129 132.537 236.318 133.011C232.059 135.444 227.733 137.81 223.474 140.311C228.071 137.81 232.6 135.174 237.129 132.673C237.67 132.335 238.211 131.929 238.954 131.997C239.766 132.47 240.239 133.146 240.171 134.16C239.901 134.836 239.36 135.106 238.752 135.444C234.155 138.081 229.558 140.582 225.029 143.286C229.22 141.055 233.344 138.689 237.467 136.391C238.481 135.85 239.36 135.039 240.577 135.039C241.253 135.579 242.199 135.917 242.605 136.796C242.402 137.337 241.861 137.607 241.388 137.878C236.588 140.582 231.721 143.286 226.989 146.057C232.803 142.88 238.549 139.568 244.362 136.391C244.836 136.255 245.241 136.255 245.714 136.323C243.754 133.078 241.929 129.766 240.104 126.521C236.926 120.91 233.749 115.299 230.64 109.756C230.234 109.013 229.761 108.404 229.964 107.593Z"/><path fill="#F57903" stroke="#1F2023" stroke-miterlimit="10" stroke-width=".676" d="M206.439 121.992C211.171 130.307 215.903 138.689 220.635 147.004C223.204 151.533 225.773 156.13 228.341 160.659C229.017 161.673 229.829 161.2 230.572 160.794C233.141 159.442 235.642 157.955 238.211 156.536C242.943 153.899 247.675 151.195 252.407 148.491C253.894 147.612 255.449 147.274 257.207 147.748C258.694 148.153 260.451 147.072 260.857 145.584C261.263 144.03 262.141 143.016 263.493 142.272C270.727 138.148 277.96 134.16 285.193 129.969C286.004 129.496 287.018 129.225 286.883 127.941C281.069 117.53 275.188 107.188 269.375 96.7772C267.955 94.2084 266.535 91.572 265.116 89.0032C266.4 88.0568 267.144 88.3948 267.887 89.7468C274.918 102.388 282.016 114.962 289.114 127.535C290.06 129.158 289.993 129.36 288.303 130.307C280.867 134.498 273.431 138.689 265.927 142.88C264.778 143.489 264.169 144.097 264.44 145.517C264.71 146.869 264.034 148.086 262.75 148.829C261.465 149.573 260.181 150.384 258.829 151.06C257.612 151.668 255.652 151.398 254.773 150.316C254.232 149.573 253.827 149.708 253.151 150.114C248.621 152.682 244.16 155.251 239.631 157.752C236.318 159.578 233.006 161.403 229.761 163.296C228.409 164.107 227.801 163.836 227.057 162.484C224.353 157.617 221.581 152.75 218.81 147.883C214.483 140.244 210.225 132.605 205.831 125.034C205.019 123.682 204.952 122.736 206.439 121.992Z"/><path fill="#FFE9D5" stroke="#1F2023" stroke-miterlimit="10" stroke-width=".676" d="M254.097 146.53C254.232 145.922 254.029 145.381 253.691 144.84C250.176 138.486 246.458 132.199 243.01 125.845C239.968 120.234 236.656 114.758 233.479 109.215C232.938 108.269 232.532 107.322 232.262 106.308C233.208 105.632 234.222 105.903 235.169 106.106C235.98 105.768 236.25 106.511 236.724 106.849C238.616 110.567 240.712 114.15 242.74 117.8C244.971 121.721 247.202 125.642 249.365 129.563C252.272 134.768 255.246 139.906 258.153 145.111C258.423 145.652 258.761 146.125 259.099 146.666C259.302 147.206 258.829 147.139 258.626 147.004C257.274 146.328 255.854 146.328 254.435 146.666C254.367 146.733 254.164 146.666 254.097 146.53Z"/><path fill="#F57903" d="M236.724 106.849C236.048 106.984 235.777 106.241 235.169 106.106C235.439 105.565 236.048 105.632 236.453 105.43C236.589 105.903 236.656 106.376 236.724 106.849Z"/><path fill="#FFE9D5" stroke="#1F2023" stroke-miterlimit="10" stroke-width=".676" d="M254.097 146.53C255.787 145.719 257.409 145.584 258.964 146.801C258.964 146.801 259.032 146.801 259.099 146.801C259.099 146.801 259.099 146.733 259.167 146.666C259.032 144.57 260.046 143.218 261.871 142.204C269.915 137.742 277.824 133.213 285.801 128.684C286.207 128.481 286.545 128.143 286.883 127.94C287.829 128.954 287.153 129.428 286.274 129.968C278.636 134.227 270.997 138.554 263.358 142.88C262.141 143.556 261.465 144.502 261.262 145.854C260.992 147.409 258.491 148.829 257.071 148.288C255.787 147.747 254.57 147.882 253.286 148.558C245.714 152.817 238.076 157.076 230.572 161.402C229.355 162.146 228.747 162.078 228.341 160.726C228.814 161.132 229.22 160.726 229.558 160.524C237.602 155.994 245.647 151.465 253.691 146.936C253.826 146.733 253.962 146.666 254.097 146.53Z"/><path fill="#FFE9D5" d="M227.733 114.286C228.071 114.826 228.611 115.3 227.597 115.908C223.001 118.477 218.336 121.046 213.739 123.682C213.131 124.02 212.793 124.02 212.387 123.412C211.982 122.736 212.32 122.398 212.861 122.06C217.39 119.491 221.987 116.922 226.516 114.353C226.854 114.15 227.259 113.88 227.733 114.286Z"/><path fill="#FFE9D5" stroke="#1F2023" stroke-miterlimit="10" stroke-width=".676" d="M250.176 140.312C250.649 141.056 250.041 141.258 249.568 141.529C246.864 143.084 244.16 144.638 241.456 146.126C237.738 148.221 234.02 150.317 230.302 152.412C229.964 152.615 229.49 153.291 229.085 152.548C228.679 151.804 229.49 151.736 229.828 151.534C236.183 147.951 242.537 144.368 248.892 140.785C249.162 140.447 249.635 140.177 250.176 140.312Z"/><path fill="#FFE9D5" stroke="#1F2023" stroke-miterlimit="10" stroke-width=".676" d="M227.395 148.965C229.085 148.018 230.64 147.072 232.194 146.193C237.264 143.354 242.334 140.515 247.472 137.675C247.81 137.473 248.216 136.932 248.621 137.54C249.027 138.149 248.418 138.351 248.08 138.554C242.402 141.799 236.724 144.976 231.045 148.221C230.099 148.762 229.22 149.235 228.274 149.776C228.003 149.911 227.733 150.114 227.462 149.776C227.192 149.438 227.192 149.167 227.395 148.965Z"/><path fill="#FFE9D5" stroke="#1F2023" stroke-miterlimit="10" stroke-width=".676" d="M251.866 143.219C252.339 144.03 251.596 144.165 251.19 144.435C248.621 145.855 246.12 147.275 243.551 148.762C239.766 150.925 235.912 153.021 232.059 155.184C231.654 155.387 231.113 155.995 230.775 155.387C230.369 154.711 231.18 154.508 231.586 154.237C237.94 150.655 244.295 147.072 250.649 143.489C251.055 143.354 251.393 142.813 251.866 143.219Z"/><path fill="#FFE9D5" stroke="#1F2023" stroke-miterlimit="10" stroke-width=".676" d="M242.605 136.526C243.213 136.391 243.889 136.459 244.498 136.662C238.684 139.974 232.87 143.286 227.057 146.531C226.719 146.734 226.178 147.207 225.84 146.666C225.502 146.058 226.178 145.855 226.584 145.585C231.924 142.61 237.264 139.568 242.605 136.526Z"/><path fill="#FFE9D5" d="M239.968 134.093C240.171 134.431 240.374 134.769 240.577 135.107C235.777 137.743 230.978 140.447 226.246 143.084C225.84 143.286 225.434 143.489 225.029 143.692C224.691 143.895 224.353 144.3 224.015 143.76C223.677 143.219 224.15 143.084 224.488 142.881C226.516 141.732 228.612 140.582 230.64 139.366C233.817 137.676 236.859 135.918 239.968 134.093Z"/><path fill="#FFE9D5" d="M231.857 119.626C232.059 119.896 232.195 120.234 232.397 120.505C227.26 123.412 222.19 126.318 217.052 129.225C216.647 129.428 216.309 129.901 215.903 129.293C215.565 128.684 216.106 128.549 216.511 128.279C221.581 125.44 226.719 122.533 231.857 119.626Z"/><path fill="#FFE9D5" d="M236.724 128.414C236.926 128.684 237.062 129.022 237.264 129.293C232.194 132.132 227.124 135.039 222.054 137.878C221.649 138.081 221.176 138.486 220.905 137.946C220.567 137.337 221.176 137.202 221.581 136.999C226.584 134.092 231.654 131.253 236.724 128.414Z"/><path fill="#FFE9D5" d="M233.411 122.533C233.546 122.804 233.749 123.142 233.884 123.412C229.828 125.778 225.705 128.144 221.649 130.442C220.635 130.983 219.621 131.592 218.607 132.132C218.269 132.335 217.863 132.876 217.458 132.2C217.12 131.592 217.728 131.389 218.066 131.254C221.176 129.496 224.285 127.738 227.395 125.981C229.423 124.832 231.451 123.682 233.411 122.533Z"/><path fill="#FFE9D5" d="M235.034 125.372C235.236 125.71 235.439 126.048 235.642 126.386C230.64 129.225 225.57 131.997 220.567 134.836C220.162 135.039 219.621 135.647 219.283 135.039C218.945 134.43 219.621 134.228 220.026 133.957C224.826 131.253 229.626 128.482 234.425 125.778C234.628 125.642 234.831 125.507 235.034 125.372Z"/><path fill="#FFE9D5" d="M238.346 131.253C238.549 131.523 238.684 131.861 238.887 132.132C233.749 135.039 228.611 138.013 223.474 140.92C223.136 141.123 222.798 141.461 222.46 140.92C222.054 140.176 222.865 140.041 223.203 139.838C227.462 137.405 231.789 134.971 236.047 132.537C236.791 132.132 237.602 131.726 238.346 131.253Z"/><path fill="#FFE9D5" d="M214.28 125.777C214.821 125.439 215.362 125.101 215.97 124.763C220.094 122.465 224.218 120.099 228.341 117.868C228.679 117.665 229.152 116.922 229.558 117.665C229.828 118.206 229.22 118.544 228.814 118.747C224.285 121.248 219.824 123.817 215.294 126.318C215.024 126.453 214.686 126.994 214.28 126.521C214.01 126.318 213.875 125.98 214.28 125.777Z"/><path fill="#FEDF89" stroke="#1F2023" stroke-miterlimit="10" stroke-width=".676" d="M229.964 107.593C235.439 117.26 240.847 126.859 246.323 136.526C245.985 136.728 244.836 137.202 243.416 136.931C241.861 136.661 240.982 135.647 240.712 135.376C239.022 132.672 237.264 129.901 235.574 126.994C232.059 121.045 229.017 115.232 226.313 109.621C227.462 108.81 228.679 108.134 229.964 107.593Z"/><path fill="#FFE9D5" d="M317.641 172.76C311.827 168.028 306.081 163.296 300.335 158.564C297.428 156.063 294.522 153.629 291.48 151.398C290.533 150.925 290.263 151.872 289.857 152.345C285.869 157.28 281.948 162.214 278.027 167.217C272.349 174.382 266.806 181.616 260.992 188.714C260.451 189.39 259.775 190.066 259.843 191.08C259.91 191.35 260.046 191.688 260.248 191.823C262.682 193.919 265.116 195.947 267.684 197.907C268.022 198.178 268.36 198.313 268.766 198.178C268.969 198.989 269.577 199.53 270.186 200.07C275.729 204.6 281.34 209.061 286.883 213.59C287.356 213.928 287.762 214.402 288.438 214.266C298.24 201.22 307.974 188.173 317.776 175.126C318.655 174.045 318.52 173.436 317.641 172.76ZM297.564 193.919C295.874 196.014 294.386 198.245 292.764 200.408C291.412 202.301 291.209 202.369 289.384 200.949C285.666 197.975 282.016 195 278.365 192.026C277.486 191.35 276.675 190.539 275.594 190.201C275.594 189.592 274.985 189.254 274.58 188.916C273.363 187.767 272.011 186.821 270.726 185.739C269.712 184.928 269.577 184.184 270.456 183.17C271.943 181.48 273.16 179.723 274.58 177.965C277.351 174.585 277.351 174.653 280.731 177.424C281.61 178.1 282.286 179.182 283.57 179.114C283.638 180.128 284.517 180.602 285.193 181.142C289.181 184.387 293.102 187.7 297.158 190.877C298.24 191.891 298.51 192.702 297.564 193.919Z"/><path fill="#A3E7DF" stroke="#1F2023" stroke-miterlimit="10" stroke-width=".676" d="M275.526 190.673C273.566 189.051 271.605 187.361 269.645 185.806C268.766 185.13 268.563 184.522 269.307 183.575C271.538 180.804 273.768 178.032 275.932 175.193C276.81 174.044 277.486 174.044 278.5 174.99C280.123 176.477 281.88 177.762 283.638 179.114C288.505 183.17 293.305 187.226 298.24 191.146C299.254 191.958 299.186 192.498 298.51 193.445C296.347 196.284 294.184 199.191 292.156 202.098C291.344 203.247 290.871 203.044 289.925 202.3C285.26 198.38 280.393 194.526 275.526 190.673Z"/><path fill="#F57903" d="M260.384 203.653C257.544 200.813 248.621 195.473 248.892 192.363C249.5 189.254 252.407 185.401 255.99 187.564C261.195 190.876 265.116 195.135 270.253 199.056C276.067 204.734 284.044 208.79 288.302 214.604C285.598 216.767 279.379 208.723 277.216 207.844C270.321 202.301 263.831 196.96 256.936 191.417C255.719 190.538 254.638 188.916 252.88 189.524C247.404 192.769 253.826 195.405 256.463 197.974C265.521 205.816 275.323 212.305 283.503 220.485C283.841 224.609 259.978 204.126 260.384 203.653Z"/><path fill="#F57903" stroke="#202020" stroke-miterlimit="10" stroke-width=".676" d="M126.468 92.316C127.617 94.4116 128.766 96.4396 129.916 98.5352C130.186 98.9408 130.254 99.414 130.186 99.8872C129.848 101.915 130.794 103.132 132.282 104.349C134.377 106.039 136.338 106.377 138.568 104.822C141.881 104.552 145.058 105.633 148.303 106.174C157.902 107.932 167.434 109.622 177.033 111.379C182.373 112.326 187.646 113.34 192.986 114.286C193.73 114.421 194.474 114.556 195.082 114.962C195.961 115.165 196.84 115.368 197.718 115.503C198.597 115.638 199.273 115.976 199.07 116.922C198.868 117.801 198.124 117.734 197.38 117.598C192.986 116.787 188.592 116.044 184.198 115.232C170.07 112.731 155.942 110.162 141.813 107.661C140.596 107.458 139.582 107.391 138.501 108.067C134.242 110.568 126.4 105.025 127.347 100.09C127.617 98.8732 127.414 97.7916 126.536 96.8452C124.575 95.4256 123.696 93.3976 123.426 91.0992C115.314 76.6328 107.202 62.1664 99.0899 47.7676C98.6843 47.0916 98.2787 46.2804 99.0899 45.8072C100.036 45.1988 100.577 46.01 100.983 46.7536C101.456 47.5648 101.929 48.376 102.47 49.2548C103.214 49.6604 103.687 50.2688 104.092 51.0124C110.447 62.4368 116.936 73.7936 123.223 85.2856C123.832 86.908 124.981 88.26 125.724 89.7472C126.062 90.626 126.603 91.3696 126.468 92.316Z"/><path fill="#1AC3AF" stroke="#202020" stroke-miterlimit="10" stroke-width=".676" d="M123.358 91.2344C124.372 93.1272 125.386 95.0876 126.4 96.9804C124.237 100.022 122.074 103.064 119.775 106.309C118.897 105.092 119.708 103.402 118.694 102.997C117.747 102.591 116.463 103.132 114.773 103.267C117.883 99.0084 120.654 95.1552 123.358 91.2344Z"/><path fill="#FFF4D8" stroke="#202020" stroke-miterlimit="10" stroke-width=".676" d="M110.041 51.7559C109.703 51.2827 109.365 50.9447 108.757 50.8095C106.594 50.3363 104.498 49.8631 102.335 49.3223C109.162 61.4903 115.99 73.7259 122.818 85.8939C125.589 86.0967 127.55 84.6771 129.307 82.7843C124.17 71.6979 117.477 61.4903 110.041 51.7559Z"/><path fill="#FFF4D8" stroke="#202020" stroke-miterlimit="10" stroke-width=".676" d="M194.339 113.88C192.919 110.703 190.891 108.539 187.105 107.999C183.59 107.525 180.21 106.309 176.695 105.43C165.676 102.793 154.657 100.157 143.3 99.2782C142.827 99.2782 142.287 99.481 141.746 98.8726C147.019 98.467 152.021 99.0078 156.956 99.7514C168.042 101.509 178.926 104.213 189.674 107.39C190.215 107.593 191.094 108.201 191.432 107.187C191.702 106.376 190.823 106.444 190.35 106.309C176.763 102.32 163.107 98.6698 148.911 97.5206C148.506 97.5206 147.965 97.791 147.762 96.9798C148.438 96.9122 149.047 96.777 149.655 96.777C159.119 95.9658 168.448 96.9122 177.844 98.1966C181.968 98.805 186.091 99.6162 190.215 100.292C190.688 100.36 191.364 100.765 191.499 99.8866C191.635 99.2106 190.958 99.2106 190.553 99.0754C190.35 99.0078 190.147 99.0078 189.944 98.9402C178.791 96.777 167.569 95.1546 156.212 95.2222C153.711 95.2222 151.21 95.3574 148.776 95.425C149.249 95.0194 149.722 94.8842 150.263 94.749C158.173 93.1942 166.217 92.8562 174.261 92.9914C179.264 93.059 184.266 93.397 189.336 93.5998C189.809 93.5998 190.553 94.0054 190.688 93.1266C190.891 92.045 189.945 92.383 189.404 92.3154C188.255 92.1802 187.105 92.1126 185.888 92.045C173.518 91.4366 161.147 91.1662 148.911 93.6674C146.613 94.1406 144.382 94.8842 141.678 95.6278C145.599 92.4506 149.385 89.8142 153.373 87.4482C162.431 81.9726 171.963 77.3758 181.697 73.1846C182.238 72.9142 183.32 72.8466 182.914 71.9002C182.576 71.089 181.833 71.765 181.359 71.9678C175.816 74.1986 170.408 76.7674 165.068 79.4714C155.874 84.1358 146.951 89.2734 138.906 96.3714C139.718 93.6674 140.597 91.369 141.205 89.003C144.382 75.9562 144.45 62.7066 143.706 49.457C143.639 48.6458 143.571 47.8346 143.503 46.9558C143.503 46.6178 143.436 46.2122 142.962 46.2122C142.489 46.2122 142.151 46.415 142.219 46.9558C142.219 47.3614 142.286 47.767 142.286 48.1726C142.962 59.0562 142.962 69.8722 141.475 80.6882C141.272 81.905 141.07 83.1218 140.867 84.3386C140.664 85.4878 140.394 86.5694 140.191 87.7186C140.732 74.1986 139.38 60.8814 137.216 47.6318C137.081 46.9558 137.487 45.6038 136.27 45.8066C135.189 45.9418 135.932 47.091 136 47.6994C136.541 52.2962 137.284 56.8254 137.757 61.4222C138.771 71.6298 139.582 81.8374 137.892 92.045C137.69 93.4646 137.487 94.9518 136.608 96.3714C135.932 93.397 135.391 90.6254 134.648 87.9214C130.93 74.469 125.454 61.7602 119.64 49.119C119.37 48.5782 119.37 47.2262 118.356 47.6994C117.342 48.1726 118.356 48.9838 118.559 49.6598C118.762 50.4034 119.167 51.0118 119.505 51.7554C124.237 62.3686 128.767 73.0494 132.282 84.2034C133.161 87.1102 134.039 90.017 134.174 93.1266C133.634 91.7746 133.025 90.4226 132.484 89.0706C130.051 89.4086 127.955 90.2198 126.671 92.5182C127.212 95.087 128.429 97.1826 130.186 99.143C132.958 100.63 135.865 101.982 138.095 104.281C138.23 104.348 138.298 104.416 138.433 104.416C138.433 104.889 138.907 105.092 139.312 105.362C149.723 107.187 160.133 109.013 170.543 110.838C178.858 112.325 187.173 113.745 195.488 115.164C194.879 114.691 194.609 114.285 194.339 113.88Z"/><path fill="#1AC3AF" stroke="#202020" stroke-miterlimit="10" stroke-width=".676" d="M122.885 85.9612C125.183 85.15 127.211 83.9332 129.375 82.8516C130.659 84.7444 131.47 86.84 132.146 89.0032C130.253 90.1524 128.158 90.896 126.468 92.3832C125.251 90.22 123.831 88.192 122.885 85.9612Z"/><path fill="#F57903" stroke="#202020" stroke-miterlimit="10" stroke-width=".676" d="M138.163 103.808C138.433 104.281 138.636 104.754 138.906 105.228C136.811 106.985 135.053 107.12 133.025 105.701C129.375 103.2 128.834 102.05 129.916 98.5352C133.093 99.6168 135.864 101.307 138.163 103.808Z"/><path fill="#F6F7E0" stroke="#1F2023" stroke-miterlimit="10" stroke-width=".676" d="M255.111 189.254C254.232 188.511 253.353 188.578 252.61 189.389C252.474 189.389 252.339 189.457 252.136 189.457C249.635 191.147 249.432 192.972 251.663 194.933C253.421 196.487 255.314 197.839 257.071 199.327C264.778 205.613 272.552 211.968 280.326 218.187C281.069 218.795 281.745 219.674 282.962 219.404C283.841 218.255 284.652 217.173 285.531 216.024C285.869 215.618 286.207 215.213 286.545 214.807C276.134 206.289 265.656 197.772 255.111 189.254Z"/><path stroke="#000" stroke-miterlimit="10" stroke-width=".676" d="M250.514 188.781C250.514 188.781 248.892 190.741 248.824 192.364C248.756 195.406 276.337 219.471 281.745 220.621C285.193 221.364 282.624 219.607 282.624 219.607L286.612 214.875C286.612 214.875 287.897 215.077 288.167 214.739C288.438 214.401 288.167 214.199 288.167 214.199C288.167 214.199 317.506 175.531 318.384 174.315C319.263 173.03 288.032 148.289 285.463 147.275C282.894 146.261 252.339 186.888 252.339 186.888L250.514 188.781Z"/><path fill="#FFBE80" stroke="#1F2023" stroke-miterlimit="10" stroke-width=".676" d="M289.587 149.843C289.316 149.573 289.114 149.302 288.843 149.1C285.598 146.396 284.044 146.531 281.475 149.911C277.892 154.372 274.377 158.902 270.862 163.431C264.71 171.272 258.558 179.114 252.407 186.956C252.407 187.294 252.61 187.564 252.88 187.564C254.638 187.564 256.057 188.578 257.612 189.186C257.747 189.186 257.815 189.186 257.95 189.186C258.626 189.862 259.505 190.268 260.181 191.012C263.899 186.28 267.617 181.548 271.335 176.816C274.174 173.165 277.081 169.515 279.92 165.864C283.773 160.997 287.626 156.198 291.48 151.398C290.939 150.722 290.33 150.249 289.587 149.843Z"/><path fill="#FEDF89" stroke="#1F2023" stroke-miterlimit="10" stroke-width=".676" d="M130.592 260.91C131.2 259.491 132.484 259.694 133.634 259.626C138.028 259.896 142.422 260.505 146.613 261.857C147.018 262.465 147.018 262.938 146.342 263.344C142.76 262.465 139.177 261.789 135.526 261.384C134.242 261.248 132.958 261.248 131.606 261.316C131.132 261.248 130.794 261.384 130.592 260.91Z"/><path fill="#FFE9B1" d="M311.597 64.7825C311.308 61.5363 308.443 59.1386 305.197 59.4271C301.95 59.7156 299.553 62.5811 299.841 65.8273C300.13 69.0735 302.995 71.4712 306.241 71.1827C309.488 70.8942 311.885 68.0287 311.597 64.7825Z"/><path fill="#FFBE80" d="M53.6478 26.2956C49.978 26.2956 47 23.3176 47 19.6478C47 15.978 49.978 13 53.6478 13C57.3177 13 60.2956 15.978 60.2956 19.6478C60.2956 23.3176 57.3076 26.2956 53.6478 26.2956ZM53.6478 13.7821C50.4091 13.7821 47.7821 16.4192 47.7821 19.6478C47.7821 22.8865 50.4192 25.5135 53.6478 25.5135C56.8865 25.5135 59.5135 22.8865 59.5135 19.6478C59.5135 16.4192 56.8765 13.7821 53.6478 13.7821Z"/><path fill="#D1F3EF" d="M190.721 7.37479C191.462 4.23302 189.517 1.08471 186.375 0.342849C183.233 -0.399011 180.085 1.54651 179.343 4.68828C178.601 7.83005 180.547 10.9783 183.689 11.7202C186.83 12.4621 189.979 10.5166 190.721 7.37479Z"/></svg>