<svg width="12" height="10" viewBox="0 0 12 10" fill="none" xmlns="http://www.w3.org/2000/svg">
<path fill-rule="evenodd" clip-rule="evenodd" d="M6.81311 9.35355C7.00838 9.54881 7.32496 9.54881 7.52022 9.35355L11.6869 5.18689C11.8821 4.99162 11.8821 4.67504 11.6869 4.47978L7.52022 0.313113C7.32496 0.117851 7.00837 0.117851 6.81311 0.313113C6.61785 0.508375 6.61785 0.824958 6.81311 1.02022L10.1262 4.33333L0.499999 4.33333C0.223857 4.33333 -8.64228e-07 4.55719 -8.15946e-07 4.83333C-7.67664e-07 5.10948 0.223857 5.33333 0.499999 5.33333L10.1262 5.33333L6.81311 8.64645C6.61785 8.84171 6.61785 9.15829 6.81311 9.35355Z" fill="#FF922C"/>
</svg>
