<svg width="303" height="246" viewBox="0 0 303 246" fill="none" xmlns="http://www.w3.org/2000/svg">
<rect width="303" height="246" fill="#E5E5E5"/>
<g clip-path="url(#clip0)">
<rect width="375" height="812" transform="translate(-36 -183)" fill="white"/>
<path d="M283.319 153.873C269.482 171.39 254.372 182.51 249.559 178.72C244.746 174.919 252.065 157.643 265.893 140.116C279.73 122.599 299.653 115.27 299.653 115.27C299.653 115.27 297.156 136.356 283.319 153.873Z" fill="#D1F3EF"/>
<path d="M249.569 179.091C249.489 179.091 249.408 179.061 249.338 179.011C249.178 178.88 249.148 178.65 249.278 178.479L299.372 115.039C299.503 114.879 299.733 114.849 299.904 114.979C300.064 115.109 300.094 115.34 299.964 115.51L249.86 178.95C249.779 179.041 249.679 179.091 249.569 179.091Z" fill="white"/>
<path d="M282.577 137.279C282.407 137.279 282.246 137.159 282.216 136.988L279.89 126.38C279.85 126.179 279.97 125.979 280.171 125.929C280.381 125.879 280.572 126.009 280.622 126.209L282.948 136.818C282.988 137.018 282.868 137.219 282.667 137.269C282.637 137.279 282.607 137.279 282.577 137.279Z" fill="white"/>
<path d="M280.081 140.448C279.92 140.448 279.77 140.348 279.72 140.187L276.361 129.198C276.3 128.997 276.411 128.787 276.611 128.726C276.812 128.666 277.022 128.776 277.083 128.977L280.442 139.966C280.502 140.167 280.391 140.378 280.191 140.438C280.151 140.448 280.111 140.448 280.081 140.448Z" fill="white"/>
<path d="M284.773 152.349C284.743 152.349 284.713 152.349 284.683 152.339L273.012 149.271C272.811 149.221 272.691 149.01 272.741 148.809C272.791 148.609 272.992 148.489 273.202 148.539L284.873 151.607C285.074 151.657 285.194 151.868 285.144 152.068C285.094 152.239 284.934 152.349 284.773 152.349Z" fill="white"/>
<path d="M281.555 156.44C281.514 156.44 281.474 156.43 281.424 156.42L270.435 152.47C270.244 152.399 270.144 152.189 270.214 151.988C270.284 151.798 270.495 151.687 270.696 151.768L281.685 155.718C281.875 155.788 281.976 155.999 281.906 156.2C281.855 156.34 281.715 156.44 281.555 156.44Z" fill="white"/>
<path d="M261.461 164.021C261.31 164.021 261.16 163.921 261.11 163.77L257.039 152.229C256.969 152.039 257.069 151.818 257.27 151.748C257.47 151.678 257.681 151.778 257.751 151.979L261.822 163.519C261.892 163.71 261.792 163.931 261.591 164.001C261.551 164.011 261.501 164.021 261.461 164.021Z" fill="white"/>
<path d="M295.211 132.666C295.171 132.666 295.131 132.656 295.091 132.646L287.962 130.29C287.761 130.23 287.661 130.009 287.721 129.819C287.791 129.618 288.002 129.518 288.192 129.578L295.321 131.934C295.522 131.994 295.622 132.215 295.562 132.405C295.512 132.566 295.371 132.666 295.211 132.666Z" fill="white"/>
<path d="M228.59 13.9698C228.59 13.9698 183.402 -11.2915 131.468 7.85061C79.533 26.9927 46.5835 77.123 18.7334 116.898C-9.11678 156.751 -4.88042 202.802 27.7553 229.004C60.391 255.207 89.9671 229.789 140.803 236.928C191.64 244.067 204.035 253.638 250.87 232.221C297.706 210.804 316.848 144.591 292.214 89.0476C267.659 33.5041 228.59 13.9698 228.59 13.9698Z" fill="#E9FAF8"/>
<path d="M248.2 17.7349C250.222 19.2839 249.973 23.8168 249.214 25.9392C249.144 26.1191 247.78 28.9041 247.744 28.8208L247.684 28.7974C247.666 29.5507 247.589 30.2806 247.548 31.0938C247.429 32.637 247.241 34.3601 246.958 36.323C246.64 38.2026 246.31 40.2855 245.695 42.3948C245.139 44.5274 244.356 46.7098 243.347 48.9419L243.324 49.0018C243.821 48.4358 245.279 47.0008 245.386 46.9043C247.108 45.503 251.373 43.7814 253.465 45.1504C255.003 46.1655 255.104 48.209 254.016 49.581C252.928 50.953 250.707 51.3304 249.058 51.3085C247.144 51.2529 243.447 49.3953 243.17 49.2183C242.148 51.3071 240.945 53.3256 239.623 55.2974C238.832 56.4398 238.04 57.5822 237.273 58.6646C237.723 58.2184 238.15 57.8323 238.174 57.7723C239.895 56.371 244.16 54.6494 246.252 56.0185C247.791 57.0336 247.892 59.077 246.804 60.449C245.715 61.821 243.495 62.1984 241.845 62.1765C240.135 62.1312 236.99 60.6275 236.114 60.2165C235.807 60.6495 235.5 61.0825 235.133 61.492C233.584 63.5135 232.035 65.535 230.606 67.6033C230.121 68.3127 229.637 69.0221 229.13 69.7915C229.557 69.4053 229.901 69.0557 229.924 68.9958C231.646 67.5945 235.911 65.8728 238.002 67.2419C239.541 68.257 239.642 70.3004 238.554 71.6725C237.466 73.0445 235.245 73.4219 233.595 73.4C231.969 73.3181 229.04 71.968 228.044 71.5102C227.537 72.2796 227.113 73.0124 226.688 73.7452C226.418 74.2616 226.087 74.7545 225.877 75.2943C225.606 75.8106 225.395 76.3503 225.125 76.8667C224.667 77.8628 224.186 78.9189 223.788 79.9384C223.507 80.658 223.25 81.3177 222.932 81.954C223.416 81.2446 224.445 79.8492 224.551 79.7526C225.546 78.6205 227.651 77.2996 229.595 76.7452C229.725 76.5887 229.915 76.4556 230.105 76.3225C231.483 75.2708 233.553 75.4566 234.534 77.0143C235.832 79.1791 233.99 83.3669 232.498 85.0651C232.392 85.1617 231.324 86.1271 230.66 86.7663C231.124 86.4635 231.587 86.1607 232.051 85.8579C232.978 85.2523 233.966 84.6702 234.953 84.088C235.477 83.8086 235.94 83.5058 236.464 83.2265C236.987 82.9471 237.511 82.6677 238.095 82.4117C239.369 81.8032 240.703 81.2181 242.013 80.693C241.504 79.8724 239.674 76.947 239.433 75.2634C239.192 73.5798 239.341 71.4267 240.549 70.1015C241.794 68.8597 243.837 68.7587 245.032 70.1234C246.627 72.0586 245.468 76.4438 244.229 78.379C244.183 78.4989 243.141 79.751 242.597 80.437C243.407 80.1313 244.218 79.8256 245.028 79.5199C247.436 78.6627 249.82 77.8655 252.264 77.0917C252.991 76.8226 253.778 76.5768 254.481 76.3676C254.312 76.0941 252.059 72.6582 251.768 70.7479C251.527 69.0643 251.676 66.9112 252.884 65.586C254.129 64.3442 256.172 64.2432 257.367 65.6079C258.962 67.5431 257.803 71.9283 256.564 73.8635C256.434 74.02 255.039 75.825 254.588 76.2711C256.186 75.7197 257.843 75.1916 259.404 74.5568C261.608 73.6894 263.632 72.7517 265.583 71.6474C265.487 71.5406 263.161 67.938 262.87 66.0277C262.629 64.3441 262.778 62.191 263.986 60.8657C265.231 59.6239 267.274 59.523 268.469 60.8877C270.064 62.8228 268.905 67.208 267.666 69.1432C267.62 69.2632 266.448 70.6718 265.927 71.2978C265.964 71.3812 265.987 71.3212 266.024 71.4046C268.082 70.2037 269.923 68.8492 271.645 67.4479C272.582 66.639 273.52 65.8301 274.338 64.9744C273.818 64.3572 271.559 61.4713 271.114 59.7774C270.706 58.167 270.592 55.9802 271.703 54.5482C272.792 53.1762 274.785 52.8485 276.11 54.0567C277.918 55.7988 277.203 60.2879 276.264 62.3401C276.217 62.46 275.533 63.5058 275.025 64.2752C275.392 63.8657 275.796 63.5395 276.163 63.1299C277.455 61.7681 278.603 60.4195 279.621 59.2274C280.165 58.5414 280.686 57.9153 281.123 57.3258C280.984 56.4424 280.285 52.9216 280.654 51.2688C281.022 49.6159 281.938 47.6237 283.545 46.8689C285.129 46.1741 287.095 46.803 287.683 48.4837C288.481 50.8679 285.81 54.5247 283.968 55.8792C283.778 56.0123 281.173 57.5526 281.136 57.4692L281.16 57.4092C280.722 57.9987 280.285 58.5882 279.741 59.2742C278.783 60.4897 277.695 61.8617 276.38 63.2835C275.065 64.7053 273.643 66.2236 271.981 67.6483C270.32 69.073 268.491 70.5708 266.433 71.7717L266.35 71.8083C267.053 71.5991 269.071 71.2115 269.274 71.2217C271.507 70.9877 275.986 71.9062 277.01 74.2407C277.742 75.9082 276.693 77.7102 275.036 78.2383C273.318 78.7429 271.303 77.8873 269.944 76.9424C268.368 75.8439 266.306 72.2749 266.196 72.0248C264.222 73.1891 262.09 74.2233 259.863 75.1506C258.612 75.6992 257.325 76.1643 256.014 76.6894C256.611 76.5768 257.208 76.4642 257.291 76.4276C259.525 76.1935 264.004 77.1121 265.028 79.4466C265.759 81.1141 264.71 82.9161 263.053 83.4442C261.336 83.9488 259.32 83.0932 257.961 82.1483C256.566 81.12 254.759 78.1346 254.31 77.3374C253.834 77.4969 253.333 77.7163 252.796 77.8523C250.389 78.7095 247.981 79.5666 245.634 80.4472C244.823 80.7529 243.989 81.1186 243.239 81.4477C243.776 81.3117 244.289 81.2357 244.349 81.2591C246.583 81.025 251.062 81.9435 252.086 84.278C252.817 85.9455 251.768 87.7476 250.111 88.2756C248.394 88.7803 246.378 87.9246 245.019 86.9797C243.66 86.0348 241.987 83.2396 241.441 82.3356C240.608 82.7013 239.834 83.0904 239.06 83.4795C238.537 83.7589 238.036 83.9783 237.489 84.3176C236.966 84.597 236.502 84.8998 235.978 85.1792C235.051 85.7848 234.064 86.3669 233.196 86.9959C232.542 87.4318 231.972 87.8311 231.401 88.2304C232.212 87.9247 233.832 87.3133 233.976 87.3001C236.183 86.7794 240.739 86.968 242.037 89.1328C243.018 90.6906 242.269 92.6097 240.662 93.3645C239.054 94.1193 236.922 93.5635 235.409 92.835C233.74 91.9764 231.264 88.9369 230.938 88.5332C229.987 89.1988 229.013 89.9243 228.145 90.5532C226.624 91.6181 225.306 92.6932 224.035 93.6484L222.89 92.5104C224.161 91.5552 225.622 90.467 227.25 89.3056C228.224 88.5801 229.319 87.9013 230.436 87.1627C230.266 86.8891 229.535 85.2217 229.067 83.5878C227.167 83.6756 223.655 82.5815 223.152 82.4542C222.707 83.5937 222.286 84.6732 221.888 85.6927C221.279 87.252 220.754 88.7747 220.299 90.1174L219.034 88.9326C219.479 87.7932 219.91 86.5104 220.485 85.2144C220.93 84.0749 221.398 82.8755 221.949 81.6395C221.553 81.4157 218.176 79.2685 217.194 77.7107C216.286 76.3197 215.491 74.2821 216.087 72.5795C216.659 70.9369 218.48 69.9891 220.112 70.7643C222.381 71.8569 223.136 76.2977 222.856 78.6073C222.809 78.7273 222.474 80.1168 222.243 81.0632C222.431 80.5834 222.701 80.0671 222.888 79.5873C223.346 78.5912 223.804 77.5951 224.309 76.4791C224.579 75.9627 224.85 75.4464 225.12 74.93C225.391 74.4137 225.722 73.9208 226.016 73.3445C226.71 72.0953 227.502 70.9529 228.316 69.7506C227.44 69.3395 224.272 67.8959 223.174 66.6379C222.075 65.38 220.947 63.4887 221.279 61.7525C221.611 60.0163 223.263 58.7949 224.989 59.3302C227.398 60.063 228.833 64.3546 228.9 66.6613C228.913 66.8046 228.771 68.4078 228.684 69.341C229.168 68.6316 229.652 67.9221 230.196 67.2361C231.685 65.1912 233.294 63.1932 234.903 61.1951C235.424 60.569 235.861 59.9796 236.322 59.3301C236.022 59.2131 232.254 57.5354 230.999 56.1473C229.9 54.8894 228.773 52.9981 229.105 51.2618C229.437 49.5256 231.088 48.3042 232.814 48.8396C235.223 49.5724 236.658 53.864 236.725 56.1707C236.739 56.314 236.519 58.647 236.429 59.2336C237.517 57.8615 238.522 56.5261 239.49 55.1072C240.849 53.2189 242.028 51.2603 243.063 49.3149C242.943 49.2681 238.972 47.5801 237.681 46.1087C236.582 44.8507 235.454 42.9594 235.786 41.2232C236.118 39.487 237.77 38.2656 239.496 38.8009C241.905 39.5337 243.34 43.8253 243.407 46.132C243.42 46.2753 243.268 48.0818 243.144 48.9316C243.204 48.955 243.204 48.955 243.264 48.9784C244.37 46.8531 245.092 44.6473 245.768 42.5615C246.116 41.3153 246.417 40.189 246.659 39.0393C245.916 38.8184 242.427 37.6644 241.078 36.5162C239.79 35.3913 238.532 33.6566 238.684 31.8501C238.813 30.1036 240.331 28.6921 242.127 29.0475C244.653 29.4805 246.482 33.6492 246.799 35.8462C246.812 35.9895 246.811 37.2328 246.866 38.1529C246.994 37.6497 247.084 37.0632 247.188 36.62C247.507 34.7404 247.696 33.0173 247.897 31.4376C247.962 30.5643 248.063 29.7744 248.08 29.0212C247.441 28.3571 244.957 25.8676 244.346 24.2469C243.711 22.6862 243.394 20.4892 244.325 18.987C244.801 17.2376 246.768 16.6232 248.2 17.7349Z" fill="#ADEAD6"/>
<path d="M263.765 86.3092C260.117 84.2988 258.404 86.0113 257.064 84.2988C255.724 82.6607 260.713 78.2676 250.735 73.949C250.735 73.949 250.065 64.5673 236.365 64.2694C222.664 63.9716 226.387 73.6512 222.664 75.9594C219.016 78.2676 217.973 74.6192 214.325 76.9274C210.676 79.2356 212.314 83.9265 209.336 84.5966C206.358 85.2668 202.337 81.6183 198.689 83.9265C195.04 86.2347 195.04 88.2451 193.327 88.2451C191.689 88.2451 188.339 86.9048 186.328 88.2451C184.318 89.5854 182.01 91.2234 182.01 91.2234H266.446C266.446 91.2979 267.414 88.3196 263.765 86.3092Z" fill="white"/>
<path opacity="0.5" d="M263.765 86.3092C260.117 84.2988 258.404 86.0113 257.064 84.2988C255.724 82.6607 260.713 78.2676 250.735 73.949C250.735 73.949 250.065 64.5673 236.365 64.2694C222.664 63.9716 226.387 73.6512 222.664 75.9594C219.016 78.2676 217.973 74.6192 214.325 76.9274C210.676 79.2356 212.314 83.9265 209.336 84.5966C206.358 85.2668 202.337 81.6183 198.689 83.9265C195.04 86.2347 195.04 88.2451 193.327 88.2451C191.689 88.2451 188.339 86.9048 186.328 88.2451C184.318 89.5854 182.01 91.2234 182.01 91.2234H266.446C266.446 91.2979 267.414 88.3196 263.765 86.3092Z" fill="white"/>
<path d="M135.92 43.644C133.761 42.4527 132.718 43.4207 131.974 42.4527C131.154 41.4847 134.133 38.8787 128.251 36.3471C128.251 36.3471 127.878 30.8371 119.762 30.6138C111.646 30.3904 113.806 36.1237 111.646 37.5384C109.487 38.9531 108.891 36.7194 106.732 38.1341C104.573 39.5488 105.541 42.3038 103.754 42.6761C101.967 43.0484 99.584 40.8891 97.4247 42.3038C95.2654 43.7185 95.2654 44.9098 94.223 44.9098C93.255 44.9098 91.2447 44.0908 90.0533 44.9098C88.862 45.7289 87.4473 46.6968 87.4473 46.6968H137.483C137.483 46.6224 138.079 44.8354 135.92 43.644Z" fill="white"/>
<path opacity="0.5" d="M135.92 43.644C133.761 42.4527 132.718 43.4207 131.974 42.4527C131.154 41.4847 134.133 38.8787 128.251 36.3471C128.251 36.3471 127.878 30.8371 119.762 30.6138C111.646 30.3904 113.806 36.1237 111.646 37.5384C109.487 38.9531 108.891 36.7194 106.732 38.1341C104.573 39.5488 105.541 42.3038 103.754 42.6761C101.967 43.0484 99.584 40.8891 97.4247 42.3038C95.2654 43.7185 95.2654 44.9098 94.223 44.9098C93.255 44.9098 91.2447 44.0908 90.0533 44.9098C88.862 45.7289 87.4473 46.6968 87.4473 46.6968H137.483C137.483 46.6224 138.079 44.8354 135.92 43.644Z" fill="white"/>
<path d="M166.448 208.569C160.194 205.144 157.364 207.974 155.056 205.144C152.748 202.315 161.31 194.944 144.259 187.498C144.259 187.498 143.143 171.564 119.837 170.968C96.5314 170.372 102.786 186.902 96.5314 190.848C90.2769 194.795 88.5643 188.54 82.3098 192.561C76.0553 196.507 78.8847 204.474 73.7471 205.666C68.6094 206.782 61.8337 200.528 55.5792 204.549C49.3247 208.495 49.3247 211.92 46.4952 211.92C43.6658 211.92 37.9325 209.612 34.5819 211.92C31.1568 214.228 27.2104 217.058 27.2104 217.058H171.064C170.99 217.132 172.703 211.995 166.448 208.569Z" fill="white"/>
<path opacity="0.5" d="M166.448 208.569C160.194 205.144 157.364 207.974 155.056 205.144C152.748 202.315 161.31 194.944 144.259 187.498C144.259 187.498 143.143 171.564 119.837 170.968C96.5314 170.372 102.786 186.902 96.5314 190.848C90.2769 194.795 88.5643 188.54 82.3098 192.561C76.0553 196.507 78.8847 204.474 73.7471 205.666C68.6094 206.782 61.8337 200.528 55.5792 204.549C49.3247 208.495 49.3247 211.92 46.4952 211.92C43.6658 211.92 37.9325 209.612 34.5819 211.92C31.1568 214.228 27.2104 217.058 27.2104 217.058H171.064C170.99 217.132 172.703 211.995 166.448 208.569Z" fill="white"/>
<path d="M54.2519 182.572C54.2519 182.572 50.6035 179.37 46.7316 178.253C42.9342 177.137 38.5412 177.137 34.7438 176.094C30.9464 175.052 28.7126 174.158 28.7126 174.158L28.4893 177.583L54.0286 184.508L71.5263 179.668L73.2389 176.094C73.2389 176.094 71.0796 177.211 67.2822 178.105C63.4848 178.998 59.2407 178.998 56.858 179.892C54.5498 180.859 54.2519 182.572 54.2519 182.572Z" fill="white" stroke="#263238" stroke-width="0.744586" stroke-miterlimit="10" stroke-linecap="round" stroke-linejoin="round"/>
<path d="M28.1914 174.978C28.1914 174.978 34.6693 177.137 43.5299 178.179C49.8588 178.998 54.3264 182.572 54.3264 182.572C54.3264 182.572 57.9004 180.041 62.8891 179.892C67.8778 179.743 73.6856 177.733 73.6856 177.733L72.5687 179.966L53.8052 183.615L27.8936 176.839L28.1914 174.978Z" fill="white" stroke="#263238" stroke-width="0.744586" stroke-miterlimit="10" stroke-linecap="round" stroke-linejoin="round"/>
<path d="M27.4468 175.722C27.4468 175.722 33.4035 178.104 39.8069 178.626C46.7316 179.147 54.0285 182.572 54.0285 182.572C54.0285 182.572 58.3471 180.264 63.1124 180.264C67.8778 180.264 72.2709 179.221 73.6111 178.849C73.6111 178.849 73.2388 179.891 73.909 181.008L53.8796 185.252L27.3723 177.509L27.4468 175.722Z" fill="white" stroke="#263238" stroke-width="0.744586" stroke-miterlimit="10" stroke-linecap="round" stroke-linejoin="round"/>
<path d="M27.1489 177.211L53.135 183.763V184.657L55.2943 184.731V183.689L74.5046 180.636C74.5046 180.636 75.3236 180.413 74.6535 181.381C73.9089 182.349 61.5488 193.145 61.5488 193.145L47.8484 194.56L27 189.943L27.1489 177.211Z" fill="#FFBE80"/>
<path opacity="0.3" d="M53.135 184.582V183.689L27.1489 177.211L27 189.943L47.8484 194.56L48.2207 194.485L53.7306 184.582H53.135Z" fill="#FFE9D5"/>
<path d="M27.1489 177.211L53.135 183.763V184.657L55.2943 184.731V183.689L74.5046 180.636C74.5046 180.636 75.3236 180.413 74.6535 181.381C73.9089 182.349 61.5488 193.145 61.5488 193.145L47.8484 194.56L27 189.943L27.1489 177.211Z" stroke="#263238" stroke-width="0.744586" stroke-miterlimit="10" stroke-linecap="round" stroke-linejoin="round"/>
<path d="M53.1349 184.582L47.4016 194.559H48.5185L55.3687 184.656L53.1349 184.582Z" fill="#FFA856" stroke="#263238" stroke-width="0.744586" stroke-miterlimit="10" stroke-linecap="round" stroke-linejoin="round"/>
<path d="M52.2415 245.118C52.2415 245.118 50.9757 247.724 49.3376 248.915C47.6995 250.106 45.5402 250.702 43.8277 251.819C42.1151 253.01 41.2216 253.829 41.2216 253.829L40.5515 251.521L51.8692 243.777L61.1766 244.894L62.5913 247.054C62.5913 247.054 61.3999 246.607 59.3895 246.458C57.3792 246.309 55.2943 246.83 53.9541 246.532C52.6883 246.309 52.2415 245.118 52.2415 245.118Z" fill="white" stroke="#263238" stroke-width="0.744586" stroke-miterlimit="10" stroke-linecap="round" stroke-linejoin="round"/>
<path d="M40.7746 253.457C40.7746 253.457 43.6041 251.223 47.6993 249.436C50.6776 248.17 52.2413 245.192 52.2413 245.192C52.2413 245.192 54.4006 246.457 56.8577 245.936C59.3148 245.489 62.5165 246.085 62.5165 246.085L61.623 244.67L51.7945 244.521L40.2534 252.265L40.7746 253.457Z" fill="white" stroke="#263238" stroke-width="0.744586" stroke-miterlimit="10" stroke-linecap="round" stroke-linejoin="round"/>
<path d="M40.3279 253.01C40.3279 253.01 42.785 250.702 45.8378 249.585C49.114 248.394 52.0923 245.192 52.0923 245.192C52.0923 245.192 54.6239 246.235 56.9321 245.639C59.2403 245.043 61.5486 245.192 62.2931 245.341C62.2931 245.341 61.9209 244.671 62.0698 243.852L51.5711 243.405L39.8811 251.894L40.3279 253.01Z" fill="white" stroke="#263238" stroke-width="0.744586" stroke-miterlimit="10" stroke-linecap="round" stroke-linejoin="round"/>
<path d="M39.9559 252.117L51.497 244.522L51.3481 243.926L52.3905 243.628L52.5394 244.298L62.4424 244.001C62.4424 244.001 62.8892 244.001 62.368 243.479C61.8468 242.884 54.0286 237.15 54.0286 237.15L47.104 237.895L37.7222 243.554L39.9559 252.117Z" fill="#A3E7DF"/>
<path opacity="0.3" d="M51.3478 243.926L51.4968 244.521L39.9557 252.116L37.7219 243.479L47.1037 237.895H47.3271L51.6457 243.851L51.3478 243.926Z" fill="#A3E7DF"/>
<path d="M39.9559 252.117L51.497 244.522L51.3481 243.926L52.3905 243.628L52.5394 244.298L62.4424 244.001C62.4424 244.001 62.8892 244.001 62.368 243.479C61.8468 242.884 54.0286 237.15 54.0286 237.15L47.104 237.895L37.7222 243.554L39.9559 252.117Z" stroke="#263238" stroke-width="0.744586" stroke-miterlimit="10" stroke-linecap="round" stroke-linejoin="round"/>
<path d="M51.3479 243.926L46.8804 237.969L47.4016 237.746L52.3903 243.628L51.3479 243.926Z" fill="#F57903" stroke="#263238" stroke-width="0.744586" stroke-miterlimit="10" stroke-linecap="round" stroke-linejoin="round"/>
<path d="M225.432 165L246.504 186.295L201.605 198.953L198.627 177.584L225.432 165Z" fill="#C6FF00" stroke="#263238" stroke-width="0.744586" stroke-miterlimit="10" stroke-linecap="round" stroke-linejoin="round"/>
<path d="M244.047 189.348L197.659 203.048L201.382 178.477L224.836 168.053L244.047 189.348Z" fill="white" stroke="#263238" stroke-width="0.744586" stroke-miterlimit="10" stroke-linecap="round" stroke-linejoin="round"/>
<path d="M225.879 169.318L243.153 191.656L199.595 204.314L204.658 177.509L225.879 169.318Z" fill="white"/>
<path opacity="0.17" d="M225.879 169.318L243.153 191.656L199.595 204.314L204.658 177.509L225.879 169.318Z" fill="black"/>
<path d="M225.879 169.318L243.153 191.656L199.595 204.314L204.658 177.509L225.879 169.318Z" stroke="#263238" stroke-width="0.744586" stroke-miterlimit="10" stroke-linecap="round" stroke-linejoin="round"/>
<path d="M225.879 169.318L217.986 196.868L187.086 206.25L198.925 180.934L225.879 169.318Z" fill="white" stroke="#263238" stroke-width="0.744586" stroke-miterlimit="10" stroke-linecap="round" stroke-linejoin="round"/>
<path d="M215.752 194.635L185.969 204.687L185.075 200.517L212.7 190.614L215.752 194.635Z" fill="white" stroke="#263238" stroke-width="0.744586" stroke-miterlimit="10" stroke-linecap="round" stroke-linejoin="round"/>
<path d="M225.134 165.596L244.94 186.221L244.047 189.348L225.879 169.319L215.753 194.635L212.7 190.614L225.134 165.596Z" fill="white" stroke="#263238" stroke-width="0.744586" stroke-miterlimit="10" stroke-linecap="round" stroke-linejoin="round"/>
<path d="M225.432 165L212.849 191.358L183.661 201.261L198.627 177.584L225.432 165Z" fill="#1AC3AF"/>
<path opacity="0.3" d="M225.432 165L212.849 191.358L183.661 201.261L198.627 177.584L225.432 165Z" fill="#1AC3AF"/>
<path d="M225.432 165L212.849 191.358L183.661 201.261L198.627 177.584L225.432 165Z" stroke="#263238" stroke-width="0.744586" stroke-miterlimit="10" stroke-linecap="round" stroke-linejoin="round"/>
<path d="M197.436 180.04L220.89 169.318" stroke="#263238" stroke-width="0.744586" stroke-miterlimit="10" stroke-linecap="round" stroke-linejoin="round"/>
<path d="M127.743 241.543L149.336 215.036L104.884 212.951L101.31 235.214L127.743 241.543Z" fill="#C6FF00" stroke="#263238" stroke-width="0.744586" stroke-miterlimit="10" stroke-linecap="round" stroke-linejoin="round"/>
<path d="M146.953 212.505L101.012 209.75L104.139 233.651L127.221 238.64L146.953 212.505Z" fill="white" stroke="#263238" stroke-width="0.744586" stroke-miterlimit="10" stroke-linecap="round" stroke-linejoin="round"/>
<path d="M128.338 237.076L146.134 210.346L103.022 207.963L107.341 233.875L128.338 237.076Z" fill="white"/>
<path opacity="0.17" d="M128.338 237.076L146.134 210.346L103.022 207.963L107.341 233.875L128.338 237.076Z" fill="#FFBE80"/>
<path d="M128.338 237.076L146.134 210.346L103.022 207.963L107.341 233.875L128.338 237.076Z" stroke="#263238" stroke-width="0.744586" stroke-miterlimit="10" stroke-linecap="round" stroke-linejoin="round"/>
<path d="M128.338 237.077L121.19 211.165L90.5876 209.08L101.756 231.79L128.338 237.077Z" fill="white" stroke="#263238" stroke-width="0.744586" stroke-miterlimit="10" stroke-linecap="round" stroke-linejoin="round"/>
<path d="M118.882 213.92L89.4706 210.867L88.5027 215.335L115.755 218.76L118.882 213.92Z" fill="white" stroke="#263238" stroke-width="0.744586" stroke-miterlimit="10" stroke-linecap="round" stroke-linejoin="round"/>
<path d="M127.445 241.023L147.772 215.483L146.953 212.505L128.338 237.076L118.882 213.92L115.755 218.759L127.445 241.023Z" fill="white" stroke="#263238" stroke-width="0.744586" stroke-miterlimit="10" stroke-linecap="round" stroke-linejoin="round"/>
<path d="M127.743 241.544L115.904 217.94L87.0881 214.888L101.31 235.215L127.743 241.544Z" fill="#FEC93B"/>
<path d="M127.743 241.544L115.904 217.94L87.0881 214.888L101.31 235.215L127.743 241.544Z" stroke="#263238" stroke-width="0.744586" stroke-miterlimit="10" stroke-linecap="round" stroke-linejoin="round"/>
<path d="M99.1504 232.236L122.605 237.225" stroke="#263238" stroke-width="0.744586" stroke-miterlimit="10" stroke-linecap="round" stroke-linejoin="round"/>
<path d="M152.301 65.088C152.301 65.088 142.547 69.7789 138.675 75.5122C134.803 81.1711 135.92 91.7442 141.951 95.1693C147.982 98.5944 168.905 111.103 183.722 109.316C198.54 107.529 196.231 92.4144 188.786 86.3832C181.34 80.3521 171.213 74.991 171.213 74.991C171.213 74.991 170.692 71.7149 170.096 70.598C169.352 69.4811 161.906 62.1842 152.301 65.088Z" fill="#FEDF89" stroke="#263238" stroke-width="0.744586" stroke-miterlimit="10" stroke-linecap="round" stroke-linejoin="round"/>
<path d="M191.913 89.9567C169.799 83.181 155.205 95.3177 150.588 99.9342C159.747 104.7 173.224 110.507 183.648 109.241C196.008 107.827 196.455 97.0303 191.913 89.9567Z" fill="white" stroke="#263238" stroke-width="0.744586" stroke-miterlimit="10" stroke-linecap="round" stroke-linejoin="round"/>
<path d="M176.872 88.1699C176.872 88.1699 189.902 98.5941 185.36 108.944" stroke="#263238" stroke-width="0.744586" stroke-miterlimit="10" stroke-linecap="round" stroke-linejoin="round"/>
<path d="M134.133 60.5463L128.921 84.8198H133.091L143.44 65.6839C143.44 65.7584 141.43 59.5783 134.133 60.5463Z" fill="white" stroke="#263238" stroke-width="0.744586" stroke-miterlimit="10" stroke-linecap="round" stroke-linejoin="round"/>
<path d="M199.657 48.7814C195.412 43.5693 189.754 38.7295 179.404 37.9104C179.404 37.9104 170.618 37.6126 158.63 42.7503C149.248 46.6966 139.271 55.4082 134.133 60.6203C138.749 61.8117 141.504 63.6731 143.44 65.758C145.451 63.822 147.238 62.1095 148.578 61.0671C152.971 57.4931 159.449 54.4403 159.449 54.4403C159.449 54.4403 152.45 64.0454 151.035 66.577C149.695 69.0341 150.588 73.0549 157.885 74.1718C165.182 75.2887 166.969 73.874 169.873 72.2359C172.777 70.5978 176.351 69.0341 177.691 69.0341C179.032 69.0341 181.787 69.332 185.361 66.8004C188.935 64.3433 190.424 57.2697 191.69 56.7485C192.658 56.3762 200.178 66.2047 205.986 73.5017C206.135 73.4272 206.283 73.3527 206.507 73.2038C209.038 71.8636 211.049 69.2575 212.389 66.8748C207.698 60.0246 202.412 52.132 199.657 48.7814Z" fill="#F57903" stroke="#263238" stroke-width="0.744586" stroke-miterlimit="10" stroke-linecap="round" stroke-linejoin="round"/>
<path d="M175.011 42.5273C175.011 42.5273 172.107 49.5265 177.915 52.207" stroke="#263238" stroke-width="0.744586" stroke-miterlimit="10" stroke-linecap="round" stroke-linejoin="round"/>
<path d="M159.449 54.4398L165.852 52.5039" stroke="#263238" stroke-width="0.744586" stroke-miterlimit="10" stroke-linecap="round" stroke-linejoin="round"/>
<path d="M159.374 66.6509C159.374 66.6509 163.395 70.1504 172.702 66.2041" stroke="#263238" stroke-width="0.744586" stroke-miterlimit="10" stroke-linecap="round" stroke-linejoin="round"/>
<path d="M195.933 54.0674C193.625 54.3652 191.838 56.7479 191.838 56.7479C191.838 56.7479 196.38 55.7799 199.954 55.7799" stroke="#263238" stroke-width="0.744586" stroke-miterlimit="10" stroke-linecap="round" stroke-linejoin="round"/>
<path d="M159.672 54.9614C159.672 54.9614 163.991 54.9614 168.086 54.8125" stroke="#263238" stroke-width="0.744586" stroke-miterlimit="10" stroke-linecap="round" stroke-linejoin="round"/>
<path d="M161.98 64.79C161.98 64.79 162.427 67.545 168.458 67.2472" stroke="#263238" stroke-width="0.744586" stroke-miterlimit="10" stroke-linecap="round" stroke-linejoin="round"/>
<path d="M177.915 40.2187C177.915 40.2187 176.947 45.2074 177.617 47.8135C178.287 50.4195 180.819 53.4723 182.606 50.2706C184.393 47.0689 185.361 43.4949 185.361 41.8568C185.361 40.2187 179.18 37.0914 177.915 40.2187Z" fill="white" stroke="#263238" stroke-width="0.744586" stroke-miterlimit="10" stroke-linecap="round" stroke-linejoin="round"/>
<path d="M191.838 34.0387C191.838 34.0387 195.71 33.2197 198.986 28.9755C202.262 24.7314 198.018 24.1357 196.678 20.0405C195.338 15.9453 200.178 17.2855 193.104 10.1375C186.105 2.98949 174.638 5.44663 169.277 7.8293C163.916 10.1375 164.065 18.0301 160.193 18.5513C156.321 19.0726 154.683 15.3496 149.992 15.3496C145.302 15.3496 140.387 20.3384 142.323 24.4336C144.259 28.5288 147.982 26.7418 148.205 26.0717C148.503 25.4015 146.27 26.2206 146.121 24.1357C145.972 22.0509 151.109 23.1678 152.599 25.9227C153.864 28.1565 151.556 31.3582 151.631 33.6664C151.779 38.3573 157.513 41.4101 161.236 42.0058C166.224 42.8993 172.33 42.6015 176.872 40.0699C182.456 37.0171 179.85 30.6881 183.946 29.05C188.041 27.4119 190.126 29.8691 190.126 29.8691L191.838 34.0387Z" fill="#804916" stroke="#263238" stroke-width="0.744586" stroke-miterlimit="10" stroke-linecap="round" stroke-linejoin="round"/>
<path d="M149.769 17.8811C147.684 17.0621 145.972 17.9556 145.45 18.4768L149.769 17.8811Z" fill="#804916"/>
<path d="M149.769 17.8811C147.684 17.0621 145.972 17.9556 145.45 18.4768" stroke="white" stroke-width="0.744586" stroke-miterlimit="10" stroke-linecap="round" stroke-linejoin="round"/>
<path d="M186.477 21.753C186.477 21.753 186.477 13.5625 180.744 11.9244C175.011 10.2864 168.458 17.6578 165.108 22.3487C161.831 27.0395 156.917 25.9227 153.343 21.0084C152.971 20.4872 152.599 20.0404 152.226 19.6681" fill="#804916"/>
<path d="M186.477 21.753C186.477 21.753 186.477 13.5625 180.744 11.9244C175.011 10.2864 168.458 17.6578 165.108 22.3487C161.831 27.0395 156.917 25.9227 153.343 21.0084C152.971 20.4872 152.599 20.0404 152.226 19.6681" stroke="white" stroke-width="0.744586" stroke-miterlimit="10" stroke-linecap="round" stroke-linejoin="round"/>
<path d="M153.864 37.0914C156.843 39.0273 159.076 39.5485 163.47 38.2082C167.863 36.868 167.267 29.72 171.139 25.9226C174.936 22.1252 181.786 23.4654 181.786 23.4654C181.786 23.4654 174.117 19.3702 168.086 23.7633C162.055 28.1563 162.576 35.5277 157.141 36.868" fill="#804916"/>
<path d="M153.864 37.0914C156.843 39.0273 159.076 39.5485 163.47 38.2082C167.863 36.868 167.267 29.72 171.139 25.9226C174.936 22.1252 181.786 23.4654 181.786 23.4654C181.786 23.4654 174.117 19.3702 168.086 23.7633C162.055 28.1563 162.576 35.5277 157.141 36.868" stroke="white" stroke-width="0.744586" stroke-miterlimit="10" stroke-linecap="round" stroke-linejoin="round"/>
<path d="M190.275 22.5722C190.275 22.5722 195.487 21.2319 195.189 16.541L190.275 22.5722Z" fill="#804916"/>
<path d="M190.275 22.5722C190.275 22.5722 195.487 21.2319 195.189 16.541" stroke="white" stroke-width="0.744586" stroke-miterlimit="10" stroke-linecap="round" stroke-linejoin="round"/>
<path d="M147.386 75.3633C147.386 75.3633 161.534 77.1503 168.682 82.0646" stroke="white" stroke-width="0.744586" stroke-miterlimit="10" stroke-linecap="round" stroke-linejoin="round"/>
<path d="M187.296 24.3588C187.296 24.3588 184.69 23.3909 182.308 25.848C179.999 28.3052 180.074 29.5709 178.138 31.1346C176.202 32.6237 174.713 31.8047 173.894 31.4324C173.075 30.9857 172.107 31.2835 171.809 33.2194C171.511 35.1553 174.117 36.6445 174.564 36.6445C175.011 36.6445 175.83 36.7934 175.83 36.7934C175.83 36.7934 175.83 40.2185 178.138 42.3034C180.446 44.3882 185.137 47.6644 188.339 46.9943C191.54 46.3241 192.732 39.0272 192.732 35.3043C192.732 31.5813 191.466 26.5181 190.498 24.2844C189.605 22.0506 187.296 24.3588 187.296 24.3588Z" fill="white" stroke="#263238" stroke-width="0.744586" stroke-miterlimit="10" stroke-linecap="round" stroke-linejoin="round"/>
<path d="M184.69 32.7731C184.69 33.5177 184.392 34.1878 184.094 34.1878C183.722 34.1878 183.499 33.5922 183.499 32.7731C183.499 31.9541 183.797 31.3584 184.094 31.3584C184.392 31.3584 184.69 31.9541 184.69 32.7731Z" fill="#263238"/>
<path d="M189.604 32.2516C189.604 32.9962 189.306 33.6663 189.009 33.6663C188.636 33.6663 188.413 33.0707 188.413 32.2516C188.413 31.507 188.711 30.8369 189.009 30.8369C189.306 30.9114 189.604 31.507 189.604 32.2516Z" fill="#263238"/>
<path d="M181.786 29.9433C181.786 29.9433 182.68 28.5286 184.988 29.1988" stroke="#263238" stroke-width="0.744586" stroke-miterlimit="10" stroke-linecap="round" stroke-linejoin="round"/>
<path d="M187.594 29.1986C187.594 29.1986 189.158 27.4861 190.498 29.1986" stroke="#263238" stroke-width="0.744586" stroke-miterlimit="10" stroke-linecap="round" stroke-linejoin="round"/>
<path d="M187.445 32.251C187.445 32.251 187.594 35.3038 188.488 35.3038C189.381 35.3038 189.083 36.7185 187.892 37.1652" stroke="#263238" stroke-width="0.744586" stroke-miterlimit="10" stroke-linecap="round" stroke-linejoin="round"/>
<path d="M186.7 40.2931C186.7 40.2931 183.945 41.4845 182.829 38.7295" stroke="#263238" stroke-width="0.744586" stroke-miterlimit="10" stroke-linecap="round" stroke-linejoin="round"/>
<path d="M187.371 108.2C187.371 108.2 171.735 94.4995 155.503 89.8086C139.345 85.1177 120.656 87.3514 104.424 82.9584C88.2665 78.5653 78.8847 72.5342 78.8847 72.5342L78.0657 87.0536L186.701 116.39L261.085 95.8397L268.531 80.7246C268.531 80.7246 259.447 85.4155 243.289 89.2129C227.132 93.0848 208.964 93.0848 198.838 96.8822C188.711 100.828 187.371 108.2 187.371 108.2Z" fill="white" stroke="#263238" stroke-width="0.744586" stroke-miterlimit="10" stroke-linecap="round" stroke-linejoin="round"/>
<path d="M76.5019 75.8848C76.5019 75.8848 94.5953 86.8302 135.473 90.702C162.353 93.2336 187.371 108.274 187.371 108.274C187.371 108.274 202.486 97.5522 223.855 96.7332C245.225 95.9141 269.648 87.4259 269.648 87.4259L264.957 97.031L185.137 112.667L74.7893 83.7774L76.5019 75.8848Z" fill="white" stroke="#263238" stroke-width="0.744586" stroke-miterlimit="10" stroke-linecap="round" stroke-linejoin="round"/>
<path d="M73.4492 79.1611C73.4492 79.1611 94.8933 89.7343 122.294 91.8191C151.631 93.9784 186.477 108.274 186.477 108.274C186.477 108.274 204.869 98.3715 225.196 98.3715C245.523 98.3715 264.138 93.9784 269.945 92.3403C269.945 92.3403 268.307 96.7334 271.286 101.424L186.18 119.518L72.928 86.5325L73.4492 79.1611Z" fill="white" stroke="#263238" stroke-width="0.744586" stroke-miterlimit="10" stroke-linecap="round" stroke-linejoin="round"/>
<path d="M73.9703 85.6395L182.605 112.891V116.763L191.913 117.061V112.668L273.817 99.7122C273.817 99.7122 277.391 98.8931 274.338 102.988C271.286 107.084 218.643 152.95 218.643 152.95L160.193 158.981L71.5876 139.473L72.1089 87.1287C72.0344 86.1607 73.0024 85.4161 73.9703 85.6395Z" fill="#FEDF89"/>
<path d="M182.68 116.763V112.891L72.1088 85.1924L71.5132 139.547L160.193 158.981L161.757 158.832L185.137 116.837L182.68 116.763Z" fill="#FFE9B1"/>
<path d="M73.9703 85.6395L182.605 112.891V116.763L191.913 117.061V112.668L273.817 99.7122C273.817 99.7122 277.391 98.8931 274.338 102.988C271.286 107.084 218.643 152.95 218.643 152.95L160.193 158.981L71.5876 139.473L72.1089 87.1287C72.0344 86.1607 73.0024 85.4161 73.9703 85.6395Z" stroke="#263238" stroke-width="0.744586" stroke-miterlimit="10" stroke-linecap="round" stroke-linejoin="round"/>
<path d="M182.68 116.763L158.258 158.981L162.948 159.279L191.987 116.986L182.68 116.763Z" fill="#FEC93B" stroke="#263238" stroke-width="0.744586" stroke-miterlimit="10" stroke-linecap="round" stroke-linejoin="round"/>
<path d="M264.212 101.425C264.212 101.425 271.509 102.765 269.945 107.679L274.339 103.063C274.339 103.063 276.349 100.606 275.455 100.084C274.487 99.6376 264.212 101.425 264.212 101.425Z" fill="#263238"/>
<path d="M84.0967 88.3939C84.0967 88.3939 73.8214 91.2233 72.1833 98.967L72.0344 87.1281C72.0344 87.1281 72.3323 85.3411 73.9703 85.639C75.6084 85.9368 84.0967 88.3939 84.0967 88.3939Z" fill="#263238"/>
<path d="M71.6621 135.898L76.7997 140.813L71.5132 139.547L71.6621 135.898Z" fill="#263238"/>
<path d="M214.921 153.247L221.92 149.822L218.197 153.024L214.921 153.247Z" fill="#263238"/>
<path d="M212.389 66.9492L232.195 90.6271L227.206 91.4461L205.986 73.576C205.986 73.5016 211.496 69.9276 212.389 66.9492Z" fill="white" stroke="#263238" stroke-width="0.744586" stroke-miterlimit="10" stroke-linecap="round" stroke-linejoin="round"/>
<path d="M124.751 82.7347C124.751 82.7347 123.783 81.5434 123.485 82.5858C123.262 83.6282 121.028 87.3512 122.741 87.649C124.453 87.9468 125.496 83.6282 125.496 83.6282L124.751 82.7347Z" fill="white" stroke="#263238" stroke-width="0.744586" stroke-miterlimit="10" stroke-linecap="round" stroke-linejoin="round"/>
<path d="M127.134 82.5863C127.134 82.5863 126.166 81.395 125.868 82.4374C125.645 83.4798 123.411 87.2027 125.123 87.5006C126.836 87.7984 127.878 83.4798 127.878 83.4798L127.134 82.5863Z" fill="white" stroke="#263238" stroke-width="0.744586" stroke-miterlimit="10" stroke-linecap="round" stroke-linejoin="round"/>
<path d="M129.442 82.5115C129.442 82.5115 128.251 81.1713 127.953 82.3626C127.655 83.5539 124.974 87.6492 127.059 87.947C129.144 88.2448 130.335 83.4795 130.335 83.4795L129.442 82.5115Z" fill="white" stroke="#263238" stroke-width="0.744586" stroke-miterlimit="10" stroke-linecap="round" stroke-linejoin="round"/>
<path d="M131.527 82.8838L135.548 86.7556H130.782L131.527 82.8838Z" fill="white" stroke="#263238" stroke-width="0.744586" stroke-miterlimit="10" stroke-linecap="round" stroke-linejoin="round"/>
<path d="M131.527 82.8836C131.527 82.8836 130.336 81.5433 130.038 82.7347C129.74 83.926 127.059 88.0212 129.144 88.3191C131.229 88.6169 132.42 83.8515 132.42 83.8515L131.527 82.8836Z" fill="white" stroke="#263238" stroke-width="0.744586" stroke-miterlimit="10" stroke-linecap="round" stroke-linejoin="round"/>
<path d="M237.63 86.3833C237.63 86.3833 238.449 85.043 238.822 86.0854C239.268 87.1279 242.023 90.404 240.385 90.9997C238.673 91.5209 237.035 87.5001 237.035 87.5001L237.63 86.3833Z" fill="white" stroke="#263238" stroke-width="0.744586" stroke-miterlimit="10" stroke-linecap="round" stroke-linejoin="round"/>
<path d="M235.248 86.6069C235.248 86.6069 236.067 85.2666 236.439 86.3091C236.886 87.3515 239.641 90.6277 238.003 91.2233C236.29 91.7445 234.652 87.7238 234.652 87.7238L235.248 86.6069Z" fill="white" stroke="#263238" stroke-width="0.744586" stroke-miterlimit="10" stroke-linecap="round" stroke-linejoin="round"/>
<path d="M232.865 86.9048C232.865 86.9048 233.833 85.4157 234.28 86.5326C234.726 87.6494 238.003 91.2979 236.067 91.968C234.056 92.5637 232.195 88.0962 232.195 88.0962L232.865 86.9048Z" fill="white" stroke="#263238" stroke-width="0.744586" stroke-miterlimit="10" stroke-linecap="round" stroke-linejoin="round"/>
<path d="M230.929 87.6494L227.578 92.0425L232.269 91.2979L230.929 87.6494Z" fill="white" stroke="#263238" stroke-width="0.744586" stroke-miterlimit="10" stroke-linecap="round" stroke-linejoin="round"/>
<path d="M230.929 87.649C230.929 87.649 231.897 86.1598 232.344 87.2767C232.79 88.3936 236.067 92.0421 234.131 92.7122C232.12 93.3078 230.259 88.8403 230.259 88.8403L230.929 87.649Z" fill="white" stroke="#263238" stroke-width="0.744586" stroke-miterlimit="10" stroke-linecap="round" stroke-linejoin="round"/>
<path d="M72.7328 25.01C72.3396 20.586 68.4344 17.3184 64.0104 17.7115C59.5864 18.1047 56.3187 22.0099 56.7119 26.4339C57.1051 30.8579 61.0102 34.1256 65.4343 33.7324C69.8583 33.3392 73.1259 29.4341 72.7328 25.01Z" fill="#FFE9B1"/>
<path d="M282.177 223.421C284.453 223.219 286.463 224.9 286.665 227.177C286.868 229.453 285.186 231.463 282.909 231.665C280.633 231.868 278.623 230.186 278.421 227.909C278.219 225.633 279.9 223.623 282.177 223.421Z" stroke="#F57903" stroke-width="0.100269"/>
<path d="M10.2836 98.6477C10.0474 95.9899 7.70137 94.0269 5.0436 94.2631C2.38583 94.4993 0.422764 96.8453 0.658974 99.5031C0.895184 102.161 3.24122 104.124 5.89899 103.888C8.55677 103.652 10.5198 101.305 10.2836 98.6477Z" fill="#D1F3EF"/>
<path d="M49.5 112C47.0158 112 45 109.984 45 107.5C45 105.016 47.0158 103 49.5 103C51.9842 103 54 105.016 54 107.5C54 109.984 51.9774 112 49.5 112ZM49.5 103.529C47.3077 103.529 45.5294 105.314 45.5294 107.5C45.5294 109.692 47.3145 111.471 49.5 111.471C51.6923 111.471 53.4706 109.692 53.4706 107.5C53.4706 105.314 51.6855 103.529 49.5 103.529Z" fill="#F57903"/>
<path d="M268.913 162.848C267.808 161.455 267.134 159.879 267.011 158.061V158C266.827 158.061 266.643 158.061 266.52 158.121C266.582 160.545 265.846 162.606 263.576 163.939C263.147 164.121 262.656 164.364 262.227 164.545C261.859 164.667 261.552 164.788 261 165.03C261.981 165.333 262.779 165.394 263.331 165.939C265.846 167.091 266.214 169.515 266.888 172C267.502 169.152 268.422 166.848 270.998 165.636C271.059 164.182 269.71 163.758 268.913 162.848Z" fill="#FFBE80"/>
</g>
<defs>
<clipPath id="clip0">
<rect width="375" height="812" fill="white" transform="translate(-36 -183)"/>
</clipPath>
</defs>
</svg>
